# TreasureTurtle / LegFrontLeftTip  (local frame of part 'LegFrontLeftTip', bbox-centred; -Z = front)
v -0.27693 0.02996 0.24836
v -0.31472 0.03481 0.16391
v -0.33341 0.00655 0.11579
v -0.29778 -0.02981 0.20675
v -0.24523 -0.01168 0.29826
v -0.30796 -0.06040 0.14245
v -0.25352 -0.05896 0.25895
v -0.32772 -0.06230 -0.00400
v -0.34509 -0.01556 -0.00695
v -0.20586 -0.05431 0.31930
v -0.24620 -0.10825 0.18662
v -0.29067 -0.10535 0.02176
v -0.33051 -0.00482 -0.13116
v -0.31841 -0.03933 -0.14664
v -0.33920 0.03731 -0.04491
v -0.32838 0.05970 0.05533
v -0.28679 -0.09704 -0.11508
v -0.27527 -0.02827 -0.25185
v -0.27347 -0.05807 -0.22949
v -0.25384 -0.10952 -0.16937
v -0.29530 0.02556 -0.21873
v -0.31567 0.06578 -0.11336
v -0.28187 0.08889 0.16449
v -0.24515 0.04058 -0.29056
v -0.26059 0.07751 0.22965
v -0.20923 -0.00482 -0.34056
v -0.30436 0.09612 0.03173
v -0.23537 -0.04003 -0.30066
v -0.22235 -0.09084 -0.26090
v -0.21379 0.04988 0.31768
v -0.17288 -0.00539 0.36679
v -0.15611 -0.05357 -0.36214
v -0.14268 -0.01477 -0.38743
v -0.15926 0.02812 -0.37510
v 0.10924 -0.11842 -0.31459
v 0.08431 -0.07914 -0.37646
v 0.17437 -0.09432 -0.30981
v 0.16337 -0.13580 -0.24118
v 0.06154 -0.15068 -0.26669
v -0.00208 -0.11898 -0.33868
v 0.12744 -0.16897 -0.16681
v -0.04953 -0.16381 -0.23282
v 0.00614 -0.18686 -0.14764
v 0.09133 -0.18522 -0.11432
v 0.21243 -0.14565 -0.13326
v -0.09131 -0.10653 -0.33927
v -0.12613 -0.13066 -0.27926
v -0.01923 -0.07208 -0.39512
v 0.24441 -0.08626 -0.24396
v 0.26849 -0.10121 -0.16672
v 0.10027 -0.04523 -0.39680
v 0.19319 -0.05925 -0.33309
v 0.23610 -0.04720 -0.29990
v -0.15797 -0.08035 -0.33639
v -0.15611 -0.05357 -0.36214
v 0.16040 -0.02182 -0.37724
v -0.03436 -0.03204 -0.41817
v 0.04388 0.00201 -0.42354
v -0.14268 -0.01477 -0.38743
v 0.10444 0.01718 -0.40659
v -0.07168 0.01238 -0.41672
v 0.17754 0.03255 -0.36347
v 0.23161 0.01397 -0.32159
v -0.04352 0.10267 -0.36445
v -0.13637 0.08418 -0.35063
v -0.07934 0.14959 -0.27092
v -0.16389 0.14266 -0.22769
v -0.17935 0.10671 -0.28849
v -0.00132 0.13752 -0.31386
v -0.11376 0.17550 -0.16166
v -0.22409 0.11137 -0.22707
v 0.02309 0.17175 -0.22406
v 0.00673 0.19313 -0.12412
v -0.16691 0.17247 -0.08649
v -0.06577 0.19740 -0.02331
v 0.07584 0.13516 -0.30493
v -0.23733 0.14347 -0.07311
v -0.27242 0.10042 -0.15967
v -0.28097 0.11295 -0.07966
v 0.07468 0.08216 -0.38027
v 0.11341 0.10121 -0.34381
v -0.05731 0.06492 -0.39849
v 0.01523 0.04101 -0.41804
v -0.20497 0.06469 -0.31713
v -0.26767 0.06494 -0.23543
v -0.24515 0.04058 -0.29056
v -0.31567 0.06578 -0.11336
v -0.15926 0.02812 -0.37510
v 0.14540 0.08342 -0.34764
v -0.29530 0.02556 -0.21873
v -0.30436 0.09612 0.03173
v -0.07168 0.01238 -0.41672
v -0.20923 -0.00482 -0.34056
v 0.10444 0.01718 -0.40659
v 0.17754 0.03255 -0.36347
v 0.04388 0.00201 -0.42354
v -0.14268 -0.01477 -0.38743
v 0.33903 -0.03412 -0.06833
v 0.33518 0.02551 -0.11071
v 0.34036 0.04198 -0.04118
v 0.34509 -0.02764 0.00267
v 0.34215 0.01794 0.07417
v 0.32442 0.00985 -0.16000
v 0.32528 -0.02886 0.13716
v 0.33045 0.05308 0.08017
v 0.30830 -0.06097 -0.15241
v 0.28643 -0.02193 -0.24250
v 0.31373 -0.06721 0.11204
v 0.31241 -0.08614 -0.02827
v 0.29798 -0.09953 0.04599
v 0.26463 -0.07805 0.21752
v 0.27578 -0.03602 0.24580
v 0.27376 -0.10830 0.12054
v 0.26849 -0.10121 -0.16672
v 0.24441 -0.08626 -0.24396
v 0.23610 -0.04720 -0.29990
v 0.21824 -0.07039 0.29343
v 0.24474 -0.01400 0.29989
v 0.23161 0.01397 -0.32159
v 0.27016 0.05327 -0.25088
v 0.16040 -0.02182 -0.37724
v 0.15313 -0.06390 0.35565
v 0.24474 -0.01400 0.29989
v 0.30209 0.02842 0.20279
v 0.25874 0.04644 0.26740
v 0.27578 -0.03602 0.24580
v 0.32528 -0.02886 0.13716
v 0.33045 0.05308 0.08017
v 0.34215 0.01794 0.07417
v 0.18264 0.03174 0.35599
v 0.28093 0.08624 0.17591
v 0.22623 0.08511 0.26992
v 0.27853 0.10794 0.12077
v 0.14003 0.07258 0.35909
v 0.14937 -0.01741 0.38168
v 0.13538 0.09746 0.33511
v 0.20884 0.13027 0.20533
v 0.27897 0.12140 0.01077
v 0.34036 0.04198 -0.04118
v 0.29576 0.10564 -0.04778
v 0.12674 0.13081 0.28727
v 0.29098 0.07791 -0.17489
v 0.33518 0.02551 -0.11071
v 0.32442 0.00985 -0.16000
v 0.27016 0.05327 -0.25088
v 0.08116 0.02119 0.41149
v 0.06130 0.06839 0.39439
v 0.18744 0.16950 -0.00149
v 0.17151 0.16191 -0.15354
v 0.08420 0.19461 -0.03886
v 0.12533 0.17153 -0.17163
v 0.10938 0.18937 0.05451
v 0.00673 0.19313 -0.12412
v 0.02309 0.17175 -0.22406
v 0.00739 0.19900 0.06367
v -0.06577 0.19740 -0.02331
v 0.04761 0.17698 0.19926
v 0.13275 0.16938 0.17135
v 0.20235 0.15489 0.12077
v 0.25540 0.13653 -0.03694
v 0.13831 0.14874 -0.23884
v 0.25504 0.12178 -0.14471
v 0.07584 0.13516 -0.30493
v 0.20849 0.10904 -0.25820
v 0.01365 0.14885 0.28997
v 0.14540 0.08342 -0.34764
v 0.11341 0.10121 -0.34381
v 0.20585 0.07695 -0.30763
v 0.17754 0.03255 -0.36347
v 0.23161 0.01397 -0.32159
v -0.06574 0.11825 0.33733
v 0.00625 0.10666 0.36304
v -0.06907 0.16415 0.23583
v -0.13028 0.15559 0.22314
v -0.16011 0.11305 0.29479
v -0.06881 0.18716 0.13553
v -0.16356 0.17056 0.10950
v -0.15783 0.17650 0.06952
v -0.21211 0.12534 0.21164
v -0.16691 0.17247 -0.08649
v -0.24806 0.13536 0.08558
v -0.23733 0.14347 -0.07311
v -0.28187 0.08889 0.16449
v -0.30436 0.09612 0.03173
v -0.28097 0.11295 -0.07966
v -0.26059 0.07751 0.22965
v -0.08848 0.07439 0.38094
v -0.15265 0.05506 0.36362
v -0.21379 0.04988 0.31768
v -0.02845 0.05647 0.40750
v -0.32838 0.05970 0.05533
v -0.11438 0.01864 0.39876
v -0.02659 0.00483 0.42354
v -0.17288 -0.00539 0.36679
v -0.02659 0.00483 0.42354
v -0.11438 0.01864 0.39876
v -0.10428 -0.03482 0.39706
v -0.17288 -0.00539 0.36679
v 0.00630 -0.03794 0.41655
v 0.06601 -0.02769 0.41284
v -0.09743 -0.06933 0.37826
v -0.00170 -0.08072 0.38723
v -0.20586 -0.05431 0.31930
v -0.17679 -0.09622 0.29971
v -0.09489 -0.10696 0.33673
v -0.24523 -0.01168 0.29826
v -0.25352 -0.05896 0.25895
v -0.06532 -0.13964 0.29005
v 0.00960 -0.11447 0.34573
v 0.07103 -0.09773 0.35902
v -0.24620 -0.10825 0.18662
v 0.15313 -0.06390 0.35565
v 0.14937 -0.01741 0.38168
v 0.24474 -0.01400 0.29989
v 0.08116 0.02119 0.41149
v -0.25384 -0.10952 -0.16937
v -0.19938 -0.11904 -0.23633
v -0.22342 -0.14274 -0.10740
v -0.13501 -0.15958 -0.19401
v -0.12613 -0.13066 -0.27926
v -0.10843 -0.18163 -0.11281
v -0.18896 -0.16448 -0.02415
v -0.10724 -0.18852 0.00653
v -0.04953 -0.16381 -0.23282
v 0.00614 -0.18686 -0.14764
v -0.03032 -0.19900 -0.00162
v 0.05377 -0.19747 -0.00850
v -0.03315 -0.18749 0.13564
v -0.13054 -0.16937 0.15558
v -0.23637 -0.13536 0.10554
v 0.09133 -0.18522 -0.11432
v 0.03013 -0.18442 0.15499
v -0.02111 -0.16423 0.23740
v -0.15594 -0.14402 0.22195
v -0.29067 -0.10535 0.02176
v -0.28679 -0.09704 -0.11508
v -0.30796 -0.06040 0.14245
v -0.15797 -0.08035 -0.33639
v -0.22235 -0.09084 -0.26090
v -0.27347 -0.05807 -0.22949
v -0.15611 -0.05357 -0.36214
v -0.23537 -0.04003 -0.30066
v 0.27376 -0.10830 0.12054
v 0.26463 -0.07805 0.21752
v 0.20329 -0.11785 0.23532
v 0.19300 -0.15751 0.10934
v 0.14153 -0.16847 0.14868
v 0.21287 -0.15696 -0.00125
v 0.29798 -0.09953 0.04599
v 0.25699 -0.13205 -0.04540
v 0.12780 -0.12666 0.28842
v 0.09905 -0.18996 0.04605
v 0.06463 -0.14959 0.26846
v 0.21243 -0.14565 -0.13326
v 0.12744 -0.16897 -0.16681
v 0.26849 -0.10121 -0.16672
v 0.31241 -0.08614 -0.02827
v 0.21824 -0.07039 0.29343
vt 0.60325 0.11157
vt 0.59914 0.16365
vt 0.61505 0.19282
vt 0.63889 0.13885
vt 0.62965 0.07750
vt 0.65835 0.17628
vt 0.66022 0.10071
vt 0.65564 0.26044
vt 0.62595 0.26171
vt 0.66065 0.05509
vt 0.69792 0.13855
vt 0.69041 0.24589
vt 0.62011 0.33101
vt 0.64169 0.34064
vt 0.59447 0.28287
vt 0.57984 0.22531
vt 0.68382 0.32580
vt 0.63924 0.40650
vt 0.65918 0.39388
vt 0.69792 0.36216
vt 0.60311 0.38591
vt 0.57493 0.32363
vt 0.56108 0.15615
vt 0.59754 0.43909
vt 0.57018 0.11588
vt 0.63006 0.47407
vt 0.55208 0.23929
vt 0.65067 0.44358
vt 0.68859 0.42514
vt 0.58934 0.05733
vt 0.62343 0.01831
vt 0.66838 0.50314
vt 0.64442 0.52254
vt 0.61450 0.51388
vt 0.89400 0.12185
vt 0.93698 0.13722
vt 0.90113 0.08275
vt 0.85154 0.08699
vt 0.85820 0.14756
vt 0.90392 0.18504
vt 0.79907 0.10426
vt 0.83320 0.21111
vt 0.78003 0.17532
vt 0.76339 0.12362
vt 0.78933 0.04819
vt 0.90775 0.23618
vt 0.86818 0.25742
vt 0.94698 0.19507
vt 0.87028 0.03357
vt 0.82272 0.01268
vt 0.96015 0.12733
vt 0.92592 0.06993
vt 0.91442 0.03805
vt 0.91618 0.27746
vt 0.94040 0.27659
vt 0.96395 0.08786
vt 0.97408 0.20415
vt 0.99556 0.15867
vt 0.97052 0.27036
vt 0.99851 0.11928
vt 0.99851 0.22870
vt 0.99460 0.06680
vt 0.97223 0.02909
vt 0.56404 0.90229
vt 0.59342 0.85640
vt 0.62781 0.91408
vt 0.67159 0.88034
vt 0.63989 0.85295
vt 0.58227 0.94064
vt 0.69704 0.92508
vt 0.68418 0.84360
vt 0.62606 0.98032
vt 0.68684 0.99859
vt 0.75215 0.91373
vt 0.76200 0.98506
vt 0.56193 0.98143
vt 0.77566 0.87367
vt 0.73247 0.82875
vt 0.78154 0.84170
vt 0.51425 0.95187
vt 0.52201 0.98417
vt 0.54332 0.88033
vt 0.50459 0.90570
vt 0.62558 0.82342
vt 0.68643 0.80649
vt 0.64671 0.79866
vt 0.76835 0.80247
vt 0.57450 0.82279
vt 0.50178 0.99601
vt 0.70005 0.77887
vt 0.85565 0.83942
vt 0.52162 0.85403
vt 0.59905 0.78806
vt 0.46759 0.94731
vt 0.46280 0.99859
vt 0.47470 0.90850
vt 0.54694 0.81114
vt 0.77463 0.48986
vt 0.74079 0.46251
vt 0.72716 0.50224
vt 0.76799 0.52970
vt 0.73883 0.56995
vt 0.75427 0.43425
vt 0.76812 0.60785
vt 0.71577 0.57260
vt 0.79798 0.44183
vt 0.78369 0.38685
vt 0.79350 0.59416
vt 0.80968 0.51371
vt 0.81858 0.55753
vt 0.81041 0.66039
vt 0.78293 0.67680
vt 0.82811 0.60283
vt 0.83185 0.43143
vt 0.83027 0.38351
vt 0.81009 0.34819
vt 0.81780 0.71280
vt 0.77842 0.71574
vt 0.77532 0.32871
vt 0.74062 0.36923
vt 0.81153 0.28310
vt 0.83185 0.76479
vt 0.28322 0.01407
vt 0.33924 0.06265
vt 0.29238 0.05457
vt 0.32751 0.01530
vt 0.39503 0.05337
vt 0.39800 0.11512
vt 0.41566 0.09902
vt 0.22599 0.03211
vt 0.32976 0.09919
vt 0.27236 0.07501
vt 0.34617 0.12796
vt 0.20262 0.05688
vt 0.20100 0.00141
vt 0.20777 0.07508
vt 0.28231 0.11734
vt 0.38462 0.17952
vt 0.45505 0.16731
vt 0.41728 0.19802
vt 0.21814 0.10511
vt 0.47154 0.25602
vt 0.48718 0.20036
vt 0.51050 0.22609
vt 0.50194 0.29820
vt 0.15194 0.02806
vt 0.15138 0.06087
vt 0.33985 0.22006
vt 0.38821 0.29477
vt 0.30126 0.27260
vt 0.37199 0.31984
vt 0.28198 0.22107
vt 0.29285 0.34013
vt 0.34235 0.38323
vt 0.22853 0.24826
vt 0.21850 0.31388
vt 0.20675 0.17225
vt 0.25601 0.15979
vt 0.30579 0.15937
vt 0.38871 0.21062
vt 0.40776 0.34614
vt 0.43130 0.25875
vt 0.40716 0.40265
vt 0.45693 0.32775
vt 0.16293 0.13740
vt 0.47138 0.39632
vt 0.44956 0.40704
vt 0.48478 0.35202
vt 0.51426 0.39223
vt 0.53125 0.34893
vt 0.10734 0.13235
vt 0.13563 0.09944
vt 0.13786 0.18610
vt 0.10931 0.20770
vt 0.06836 0.17686
vt 0.16801 0.23506
vt 0.12488 0.27335
vt 0.13983 0.29197
vt 0.06404 0.23341
vt 0.17856 0.37605
vt 0.08044 0.30842
vt 0.13147 0.38949
vt 0.02892 0.27666
vt 0.05543 0.35445
vt 0.10288 0.40704
vt 0.01960 0.23443
vt 0.07634 0.10979
vt 0.04065 0.13162
vt 0.01488 0.17121
vt 0.09798 0.07634
vt 0.02391 0.35057
vt 0.03969 0.09259
vt 0.08063 0.04762
vt 0.00149 0.11962
vt 0.54006 0.64883
vt 0.54018 0.59132
vt 0.50844 0.60335
vt 0.51224 0.55525
vt 0.51213 0.66738
vt 0.51232 0.70239
vt 0.48565 0.60789
vt 0.48217 0.66106
vt 0.46749 0.53696
vt 0.44131 0.55775
vt 0.45321 0.60754
vt 0.48150 0.50164
vt 0.43287 0.50238
vt 0.41949 0.62191
vt 0.45111 0.66521
vt 0.46005 0.69981
vt 0.37718 0.50776
vt 0.46650 0.75080
vt 0.50101 0.75427
vt 0.46477 0.82385
vt 0.54018 0.71772
vt 0.15448 0.47583
vt 0.10797 0.50534
vt 0.19204 0.50475
vt 0.13230 0.55239
vt 0.07489 0.54767
vt 0.18116 0.57543
vt 0.24055 0.53332
vt 0.25318 0.58390
vt 0.10108 0.60067
vt 0.15222 0.64079
vt 0.24381 0.62724
vt 0.23565 0.67457
vt 0.32476 0.63234
vt 0.34325 0.57895
vt 0.32359 0.51193
vt 0.16929 0.69350
vt 0.33319 0.66798
vt 0.38430 0.64362
vt 0.38602 0.56751
vt 0.27802 0.46806
vt 0.19167 0.45782
vt 0.35914 0.45617
vt 0.03361 0.51428
vt 0.09083 0.48377
vt 0.11170 0.44648
vt 0.01042 0.50557
vt 0.05598 0.45905
vt 0.31160 0.81459
vt 0.37613 0.81591
vt 0.38194 0.77209
vt 0.30293 0.75970
vt 0.32679 0.73032
vt 0.23584 0.76929
vt 0.26445 0.82990
vt 0.20798 0.79777
vt 0.41319 0.72861
vt 0.26669 0.70235
vt 0.40019 0.69179
vt 0.15413 0.76845
vt 0.13545 0.71546
vt 0.13065 0.81032
vt 0.21699 0.84085
vt 0.42567 0.78925
vn -0.8293 0.2536 0.4979
vn -0.9052 0.2862 0.3142
vn -0.9745 0.0420 0.2204
vn -0.8706 -0.2817 0.4033
vn -0.7653 -0.1281 0.6307
vn -0.8239 -0.5082 0.2508
vn -0.7084 -0.5117 0.4861
vn -0.8578 -0.5140 -0.0026
vn -0.9882 -0.1530 -0.0085
vn -0.6026 -0.4931 0.6275
vn -0.5800 -0.7625 0.2866
vn -0.6640 -0.7470 0.0349
vn -0.9667 -0.0597 -0.2488
vn -0.8957 -0.3521 -0.2715
vn -0.9510 0.2998 -0.0760
vn -0.8804 0.4642 0.0970
vn -0.6830 -0.7102 -0.1707
vn -0.8221 -0.2747 -0.4987
vn -0.7552 -0.5001 -0.4238
vn -0.5874 -0.7668 -0.2589
vn -0.8745 0.2170 -0.4338
vn -0.8344 0.5155 -0.1951
vn -0.7070 0.6523 0.2731
vn -0.7373 0.3563 -0.5739
vn -0.6916 0.5971 0.4064
vn -0.6786 -0.0660 -0.7316
vn -0.7318 0.6795 0.0526
vn -0.7063 -0.3854 -0.5938
vn -0.5606 -0.7010 -0.4409
vn -0.6403 0.4254 0.6395
vn -0.5765 -0.0715 0.8140
vn -0.4668 -0.5121 -0.7210
vn -0.4760 -0.1699 -0.8629
vn -0.5184 0.2612 -0.8143
vn 0.2373 -0.8390 -0.4897
vn 0.2208 -0.6856 -0.6937
vn 0.4294 -0.7351 -0.5247
vn 0.3405 -0.8741 -0.3464
vn 0.1128 -0.9227 -0.3688
vn -0.0080 -0.8513 -0.5246
vn 0.2298 -0.9510 -0.2066
vn -0.0918 -0.9480 -0.3048
vn 0.0081 -0.9842 -0.1768
vn 0.1555 -0.9789 -0.1328
vn 0.4272 -0.8883 -0.1687
vn -0.2215 -0.8046 -0.5510
vn -0.2738 -0.8659 -0.4186
vn -0.0583 -0.6538 -0.7544
vn 0.6154 -0.6728 -0.4106
vn 0.6340 -0.7298 -0.2558
vn 0.3052 -0.4554 -0.8363
vn 0.5450 -0.5380 -0.6430
vn 0.6821 -0.4392 -0.5847
vn -0.4238 -0.6783 -0.6003
vn -0.4668 -0.5121 -0.7210
vn 0.5107 -0.2362 -0.8267
vn -0.1176 -0.3481 -0.9301
vn 0.1468 0.0019 -0.9892
vn -0.4760 -0.1699 -0.8629
vn 0.3448 0.1599 -0.9249
vn -0.2489 0.1111 -0.9621
vn 0.5524 0.3020 -0.7770
vn 0.7223 0.1182 -0.6814
vn -0.1139 0.7765 -0.6198
vn -0.3710 0.6800 -0.6325
vn -0.1616 0.9139 -0.3724
vn -0.3461 0.8815 -0.3213
vn -0.4381 0.7676 -0.4678
vn -0.0059 0.8909 -0.4542
vn -0.2031 0.9597 -0.1940
vn -0.5314 0.7684 -0.3566
vn 0.0387 0.9598 -0.2780
vn 0.0089 0.9905 -0.1370
vn -0.3089 0.9465 -0.0939
vn -0.1104 0.9936 -0.0227
vn 0.1639 0.8795 -0.4468
vn -0.4834 0.8706 -0.0917
vn -0.6555 0.7112 -0.2539
vn -0.6383 0.7605 -0.1188
vn 0.2037 0.6792 -0.7051
vn 0.2816 0.7647 -0.5796
vn -0.1740 0.5757 -0.7989
vn 0.0451 0.3926 -0.9186
vn -0.5860 0.5474 -0.5975
vn -0.7343 0.5265 -0.4285
vn -0.7373 0.3563 -0.5739
vn -0.8344 0.5155 -0.1951
vn -0.5184 0.2612 -0.8143
vn 0.3826 0.6778 -0.6278
vn -0.8745 0.2170 -0.4338
vn -0.7318 0.6795 0.0526
vn -0.2489 0.1111 -0.9621
vn -0.6786 -0.0660 -0.7316
vn 0.3448 0.1599 -0.9249
vn 0.5524 0.3020 -0.7770
vn 0.1468 0.0019 -0.9892
vn -0.4760 -0.1699 -0.8629
vn 0.9441 -0.3071 -0.1201
vn 0.9570 0.2071 -0.2030
vn 0.9383 0.3385 -0.0706
vn 0.9669 -0.2549 0.0097
vn 0.9790 0.1417 0.1466
vn 0.9498 0.0721 -0.3045
vn 0.9255 -0.2677 0.2681
vn 0.8944 0.4218 0.1489
vn 0.8230 -0.5036 -0.2626
vn 0.8546 -0.2160 -0.4723
vn 0.8150 -0.5445 0.1983
vn 0.7584 -0.6506 -0.0403
vn 0.6943 -0.7160 0.0731
vn 0.6894 -0.6170 0.3795
vn 0.8093 -0.3353 0.4824
vn 0.6294 -0.7550 0.1837
vn 0.6340 -0.7298 -0.2558
vn 0.6154 -0.6728 -0.4106
vn 0.6821 -0.4392 -0.5847
vn 0.6025 -0.5888 0.5388
vn 0.7643 -0.1498 0.6272
vn 0.7223 0.1182 -0.6814
vn 0.7647 0.4435 -0.4675
vn 0.5107 -0.2362 -0.8267
vn 0.4484 -0.5654 0.6923
vn 0.7643 -0.1498 0.6272
vn 0.8839 0.2363 0.4037
vn 0.7558 0.3941 0.5229
vn 0.8093 -0.3353 0.4824
vn 0.9255 -0.2677 0.2681
vn 0.8944 0.4218 0.1489
vn 0.9790 0.1417 0.1466
vn 0.5844 0.2869 0.7590
vn 0.7099 0.6362 0.3022
vn 0.5924 0.6503 0.4756
vn 0.6458 0.7406 0.1856
vn 0.4048 0.6062 0.6846
vn 0.4980 -0.1891 0.8463
vn 0.3543 0.7365 0.5763
vn 0.4607 0.8346 0.3020
vn 0.6011 0.7989 0.0187
vn 0.9383 0.3385 -0.0706
vn 0.6786 0.7315 -0.0668
vn 0.2862 0.8543 0.4338
vn 0.7517 0.5907 -0.2931
vn 0.9570 0.2071 -0.2030
vn 0.9498 0.0721 -0.3045
vn 0.7647 0.4435 -0.4675
vn 0.2778 0.1958 0.9405
vn 0.1829 0.5900 0.7864
vn 0.3429 0.9394 0.0012
vn 0.3254 0.9272 -0.1855
vn 0.1461 0.9886 -0.0376
vn 0.2219 0.9525 -0.2085
vn 0.1907 0.9802 0.0538
vn 0.0089 0.9905 -0.1370
vn 0.0387 0.9598 -0.2780
vn 0.0099 0.9976 0.0688
vn -0.1104 0.9936 -0.0227
vn 0.0797 0.9683 0.2368
vn 0.2445 0.9468 0.2093
vn 0.3982 0.9060 0.1438
vn 0.5202 0.8530 -0.0427
vn 0.2723 0.9027 -0.3330
vn 0.5659 0.7995 -0.2014
vn 0.1639 0.8795 -0.4468
vn 0.4870 0.7682 -0.4155
vn 0.0253 0.9161 0.4001
vn 0.3826 0.6778 -0.6278
vn 0.2816 0.7647 -0.5796
vn 0.5455 0.6245 -0.5590
vn 0.5524 0.3020 -0.7770
vn 0.7223 0.1182 -0.6814
vn -0.1586 0.8270 0.5394
vn 0.0121 0.7889 0.6144
vn -0.1292 0.9451 0.3000
vn -0.2595 0.9199 0.2939
vn -0.3896 0.7886 0.4758
vn -0.1152 0.9819 0.1500
vn -0.3058 0.9440 0.1237
vn -0.2873 0.9549 0.0751
vn -0.4783 0.8207 0.3126
vn -0.3089 0.9465 -0.0939
vn -0.5204 0.8464 0.1134
vn -0.4834 0.8706 -0.0917
vn -0.7070 0.6523 0.2731
vn -0.7318 0.6795 0.0526
vn -0.6383 0.7605 -0.1188
vn -0.6916 0.5971 0.4064
vn -0.2634 0.6203 0.7388
vn -0.4712 0.4766 0.7422
vn -0.6403 0.4254 0.6395
vn -0.0941 0.5084 0.8560
vn -0.8804 0.4642 0.0970
vn -0.3973 0.1680 0.9022
vn -0.0985 0.0310 0.9947
vn -0.5765 -0.0715 0.8140
vn -0.0985 0.0310 0.9947
vn -0.3973 0.1680 0.9022
vn -0.3503 -0.3574 0.8658
vn -0.5765 -0.0715 0.8140
vn 0.0159 -0.3926 0.9196
vn 0.2208 -0.2956 0.9294
vn -0.2898 -0.6179 0.7309
vn -0.0085 -0.6939 0.7200
vn -0.6026 -0.4931 0.6275
vn -0.4473 -0.7349 0.5098
vn -0.2366 -0.7993 0.5523
vn -0.7653 -0.1281 0.6307
vn -0.7084 -0.5117 0.4861
vn -0.1381 -0.8981 0.4174
vn 0.0189 -0.8348 0.5502
vn 0.1749 -0.7677 0.6165
vn -0.5800 -0.7625 0.2866
vn 0.4484 -0.5654 0.6923
vn 0.4980 -0.1891 0.8463
vn 0.7643 -0.1498 0.6272
vn 0.2778 0.1958 0.9405
vn -0.5874 -0.7668 -0.2589
vn -0.4545 -0.8133 -0.3632
vn -0.4571 -0.8803 -0.1266
vn -0.2607 -0.9318 -0.2526
vn -0.2738 -0.8659 -0.4186
vn -0.1973 -0.9725 -0.1235
vn -0.3579 -0.9334 -0.0238
vn -0.2064 -0.9784 0.0099
vn -0.0918 -0.9480 -0.3048
vn 0.0081 -0.9842 -0.1768
vn -0.0583 -0.9983 0.0010
vn 0.0934 -0.9956 -0.0068
vn -0.0576 -0.9853 0.1611
vn -0.2432 -0.9516 0.1877
vn -0.4988 -0.8567 0.1316
vn 0.1555 -0.9789 -0.1328
vn 0.0481 -0.9818 0.1835
vn -0.0411 -0.9510 0.3064
vn -0.3252 -0.8937 0.3089
vn -0.6640 -0.7470 0.0349
vn -0.6830 -0.7102 -0.1707
vn -0.8239 -0.5082 0.2508
vn -0.4238 -0.6783 -0.6003
vn -0.5606 -0.7010 -0.4409
vn -0.7552 -0.5001 -0.4238
vn -0.4668 -0.5121 -0.7210
vn -0.7063 -0.3854 -0.5938
vn 0.6294 -0.7550 0.1837
vn 0.6894 -0.6170 0.3795
vn 0.4685 -0.8067 0.3601
vn 0.3746 -0.9176 0.1328
vn 0.2619 -0.9479 0.1813
vn 0.4088 -0.9126 0.0015
vn 0.6943 -0.7160 0.0731
vn 0.5370 -0.8418 -0.0546
vn 0.2823 -0.8552 0.4346
vn 0.1764 -0.9828 0.0540
vn 0.1214 -0.9213 0.3695
vn 0.4272 -0.8883 -0.1687
vn 0.2298 -0.9510 -0.2066
vn 0.6340 -0.7298 -0.2558
vn 0.7584 -0.6506 -0.0403
vn 0.6025 -0.5888 0.5388
f 15/15/15 9/9/9 16/16/16
f 9/9/9 3/3/3 16/16/16
f 8/8/8 3/3/3 9/9/9
f 15/15/15 13/13/13 9/9/9
f 13/13/13 14/14/14 8/8/8
f 13/13/13 8/8/8 9/9/9
f 3/3/3 8/8/8 6/6/6
f 15/15/15 22/22/22 13/13/13
f 27/27/27 15/15/15 16/16/16
f 13/13/13 22/22/22 21/21/21
f 16/16/16 3/3/3 23/23/23
f 27/27/27 22/22/22 15/15/15
f 14/14/14 17/17/17 8/8/8
f 8/8/8 12/12/12 6/6/6
f 4/4/4 3/3/3 6/6/6
f 1/1/1 3/3/3 4/4/4
f 3/3/3 2/2/2 23/23/23
f 13/13/13 18/18/18 14/14/14
f 21/21/21 18/18/18 13/13/13
f 1/1/1 2/2/2 3/3/3
f 91/91/91 79/79/79 87/87/87
f 12/12/12 8/8/8 17/17/17
f 14/14/14 20/20/20 17/17/17
f 18/18/18 19/19/19 14/14/14
f 1/1/1 23/23/23 2/2/2
f 90/90/90 87/87/87 78/78/78
f 184/184/184 191/191/191 183/183/183
f 230/230/230 237/237/237 235/235/235
f 19/19/19 20/20/20 14/14/14
f 4/4/4 6/6/6 7/7/7
f 1/1/1 4/4/4 5/5/5
f 25/25/25 23/23/23 1/1/1
f 85/85/85 90/90/90 78/78/78
f 6/6/6 11/11/11 7/7/7
f 85/85/85 86/86/86 90/90/90
f 184/184/184 183/183/183 181/181/181
f 182/182/182 184/184/184 181/181/181
f 237/237/237 230/230/230 211/211/211
f 5/5/5 4/4/4 7/7/7
f 78/78/78 87/87/87 79/79/79
f 182/182/182 185/185/185 184/184/184
f 218/218/218 235/235/235 236/236/236
f 18/18/18 29/29/29 19/19/19
f 21/21/21 24/24/24 18/18/18
f 71/71/71 85/85/85 78/78/78
f 183/183/183 186/186/186 179/179/179
f 218/218/218 222/222/222 235/235/235
f 240/240/240 239/239/239 217/217/217
f 18/18/18 28/28/28 29/29/29
f 71/71/71 86/86/86 85/85/85
f 236/236/236 216/216/216 218/218/218
f 240/240/240 217/217/217 216/216/216
f 10/10/10 5/5/5 7/7/7
f 18/18/18 26/26/26 28/28/28
f 18/18/18 24/24/24 26/26/26
f 5/5/5 30/30/30 1/1/1
f 25/25/25 1/1/1 30/30/30
f 77/77/77 71/71/71 78/78/78
f 79/79/79 77/77/77 78/78/78
f 183/183/183 179/179/179 181/181/181
f 235/235/235 222/222/222 230/230/230
f 178/178/178 182/182/182 181/181/181
f 84/84/84 86/86/86 71/71/71
f 189/189/189 175/175/175 186/186/186
f 71/71/71 68/68/68 84/84/84
f 175/175/175 179/179/179 186/186/186
f 204/204/204 207/207/207 211/211/211
f 71/71/71 77/77/77 67/67/67
f 234/234/234 211/211/211 230/230/230
f 204/204/204 211/211/211 234/234/234
f 203/203/203 207/207/207 204/204/204
f 242/242/242 241/241/241 239/239/239
f 198/198/198 206/206/206 203/203/203
f 86/86/86 84/84/84 93/93/93
f 216/216/216 217/217/217 218/218/218
f 26/26/26 32/32/32 28/28/28
f 5/5/5 31/31/31 30/30/30
f 88/88/88 93/93/93 84/84/84
f 177/177/177 178/178/178 181/181/181
f 239/239/239 241/241/241 238/238/238
f 188/188/188 189/189/189 194/194/194
f 177/177/177 181/181/181 179/179/179
f 74/74/74 67/67/67 77/77/77
f 178/178/178 180/180/180 182/182/182
f 234/234/234 230/230/230 229/229/229
f 218/218/218 217/217/217 219/219/219
f 219/219/219 221/221/221 218/218/218
f 222/222/222 218/218/218 221/221/221
f 34/34/34 33/33/33 26/26/26
f 84/84/84 65/65/65 88/88/88
f 65/65/65 84/84/84 68/68/68
f 67/67/67 68/68/68 71/71/71
f 177/177/177 179/179/179 174/174/174
f 74/74/74 70/70/70 67/67/67
f 222/222/222 229/229/229 230/230/230
f 217/217/217 239/239/239 238/238/238
f 201/201/201 198/198/198 203/203/203
f 188/188/188 175/175/175 189/189/189
f 174/174/174 179/179/179 175/175/175
f 217/217/217 220/220/220 219/219/219
f 238/238/238 220/220/220 217/217/217
f 32/32/32 26/26/26 33/33/33
f 223/223/223 229/229/229 222/222/222
f 204/204/204 201/201/201 203/203/203
f 197/197/197 198/198/198 201/201/201
f 194/194/194 192/192/192 188/188/188
f 197/197/197 196/196/196 198/198/198
f 88/88/88 92/92/92 97/97/97
f 223/223/223 222/222/222 221/221/221
f 204/204/204 234/234/234 205/205/205
f 187/187/187 171/171/171 175/175/175
f 75/75/75 70/70/70 74/74/74
f 178/178/178 156/156/156 180/180/180
f 178/178/178 177/177/177 176/176/176
f 92/92/92 88/88/88 82/82/82
f 82/82/82 88/88/88 65/65/65
f 187/187/187 175/175/175 188/188/188
f 65/65/65 68/68/68 67/67/67
f 65/65/65 67/67/67 66/66/66
f 173/173/173 176/176/176 177/177/177
f 173/173/173 177/177/177 174/174/174
f 224/224/224 221/221/221 219/219/219
f 204/204/204 205/205/205 201/201/201
f 54/54/54 55/55/55 46/46/46
f 57/57/57 55/55/55 59/59/59
f 61/61/61 57/57/57 59/59/59
f 192/192/192 187/187/187 188/188/188
f 234/234/234 229/229/229 208/208/208
f 224/224/224 219/219/219 220/220/220
f 205/205/205 234/234/234 208/208/208
f 47/47/47 54/54/54 46/46/46
f 67/67/67 70/70/70 66/66/66
f 46/46/46 55/55/55 48/48/48
f 64/64/64 65/65/65 66/66/66
f 171/171/171 174/174/174 175/175/175
f 171/171/171 173/173/173 174/174/174
f 223/223/223 221/221/221 226/226/226
f 47/47/47 46/46/46 42/42/42
f 55/55/55 57/57/57 48/48/48
f 187/187/187 192/192/192 190/190/190
f 223/223/223 228/228/228 229/229/229
f 46/46/46 48/48/48 40/40/40
f 190/190/190 192/192/192 193/193/193
f 64/64/64 82/82/82 65/65/65
f 223/223/223 226/226/226 228/228/228
f 221/221/221 224/224/224 225/225/225
f 229/229/229 233/233/233 208/208/208
f 208/208/208 201/201/201 205/205/205
f 195/195/195 196/196/196 197/197/197
f 83/83/83 92/92/92 82/82/82
f 171/171/171 187/187/187 172/172/172
f 75/75/75 73/73/73 70/70/70
f 69/69/69 64/64/64 66/66/66
f 176/176/176 156/156/156 178/178/178
f 229/229/229 228/228/228 233/233/233
f 42/42/42 46/46/46 40/40/40
f 201/201/201 208/208/208 202/202/202
f 199/199/199 197/197/197 201/201/201
f 199/199/199 195/195/195 197/197/197
f 187/187/187 190/190/190 172/172/172
f 72/72/72 66/66/66 70/70/70
f 72/72/72 70/70/70 73/73/73
f 173/173/173 171/171/171 165/165/165
f 155/155/155 156/156/156 176/176/176
f 225/225/225 227/227/227 221/221/221
f 208/208/208 209/209/209 202/202/202
f 199/199/199 201/201/201 202/202/202
f 72/72/72 69/69/69 66/66/66
f 176/176/176 173/173/173 157/157/157
f 221/221/221 227/227/227 226/226/226
f 61/61/61 58/58/58 57/57/57
f 171/171/171 172/172/172 165/165/165
f 233/233/233 209/209/209 208/208/208
f 165/165/165 157/157/157 173/173/173
f 232/232/232 233/233/233 228/228/228
f 83/83/83 96/96/96 92/92/92
f 80/80/80 64/64/64 69/69/69
f 40/40/40 39/39/39 42/42/42
f 209/209/209 233/233/233 253/253/253
f 80/80/80 82/82/82 64/64/64
f 150/150/150 153/153/153 156/156/156
f 155/155/155 176/176/176 157/157/157
f 227/227/227 232/232/232 226/226/226
f 199/199/199 200/200/200 195/195/195
f 146/146/146 190/190/190 193/193/193
f 83/83/83 82/82/82 80/80/80
f 172/172/172 190/190/190 147/147/147
f 210/210/210 202/202/202 209/209/209
f 57/57/57 51/51/51 48/48/48
f 146/146/146 147/147/147 190/190/190
f 155/155/155 150/150/150 156/156/156
f 226/226/226 232/232/232 228/228/228
f 232/232/232 253/253/253 233/233/233
f 48/48/48 36/36/36 40/40/40
f 200/200/200 215/215/215 195/195/195
f 76/76/76 69/69/69 72/72/72
f 39/39/39 41/41/41 42/42/42
f 252/252/252 232/232/232 227/227/227
f 58/58/58 51/51/51 57/57/57
f 81/81/81 69/69/69 76/76/76
f 42/42/42 41/41/41 43/43/43
f 253/253/253 210/210/210 209/209/209
f 40/40/40 36/36/36 35/35/35
f 202/202/202 200/200/200 199/199/199
f 81/81/81 80/80/80 69/69/69
f 231/231/231 227/227/227 225/225/225
f 44/44/44 43/43/43 41/41/41
f 210/210/210 200/200/200 202/202/202
f 48/48/48 51/51/51 36/36/36
f 141/141/141 165/165/165 172/172/172
f 157/157/157 165/165/165 141/141/141
f 35/35/35 39/39/39 40/40/40
f 253/253/253 251/251/251 210/210/210
f 141/141/141 172/172/172 147/147/147
f 151/151/151 154/154/154 153/153/153
f 150/150/150 151/151/151 153/153/153
f 150/150/150 155/155/155 152/152/152
f 96/96/96 83/83/83 94/94/94
f 80/80/80 94/94/94 83/83/83
f 141/141/141 147/147/147 136/136/136
f 151/151/151 161/161/161 163/163/163
f 152/152/152 155/155/155 157/157/157
f 232/232/232 252/252/252 247/247/247
f 232/232/232 247/247/247 253/253/253
f 210/210/210 212/212/212 200/200/200
f 58/58/58 60/60/60 51/51/51
f 166/166/166 167/167/167 163/163/163
f 151/151/151 163/163/163 154/154/154
f 89/89/89 80/80/80 81/81/81
f 136/136/136 147/147/147 134/134/134
f 152/152/152 157/157/157 158/158/158
f 39/39/39 38/38/38 41/41/41
f 35/35/35 36/36/36 37/37/37
f 158/158/158 157/157/157 141/141/141
f 38/38/38 39/39/39 35/35/35
f 210/210/210 251/251/251 212/212/212
f 212/212/212 213/213/213 200/200/200
f 56/56/56 51/51/51 60/60/60
f 213/213/213 215/215/215 200/200/200
f 146/146/146 134/134/134 147/147/147
f 148/148/148 150/150/150 152/152/152
f 247/247/247 251/251/251 253/253/253
f 135/135/135 130/130/130 146/146/146
f 146/146/146 130/130/130 134/134/134
f 95/95/95 94/94/94 80/80/80
f 164/164/164 166/166/166 163/163/163
f 231/231/231 248/248/248 227/227/227
f 252/252/252 246/246/246 247/247/247
f 51/51/51 37/37/37 36/36/36
f 95/95/95 80/80/80 89/89/89
f 164/164/164 163/163/163 161/161/161
f 159/159/159 152/152/152 158/158/158
f 227/227/227 248/248/248 252/252/252
f 255/255/255 254/254/254 231/231/231
f 60/60/60 62/62/62 56/56/56
f 149/149/149 161/161/161 151/151/151
f 159/159/159 148/148/148 152/152/152
f 247/247/247 245/245/245 251/251/251
f 35/35/35 37/37/37 38/38/38
f 51/51/51 52/52/52 37/37/37
f 158/158/158 141/141/141 137/137/137
f 38/38/38 45/45/45 41/41/41
f 251/251/251 245/245/245 212/212/212
f 51/51/51 56/56/56 52/52/52
f 132/132/132 141/141/141 136/136/136
f 149/149/149 151/151/151 150/150/150
f 254/254/254 248/248/248 231/231/231
f 164/164/164 168/168/168 166/166/166
f 148/148/148 149/149/149 150/150/150
f 248/248/248 246/246/246 252/252/252
f 62/62/62 63/63/63 56/56/56
f 166/166/166 168/168/168 169/169/169
f 137/137/137 159/159/159 158/158/158
f 258/258/258 212/212/212 245/245/245
f 52/52/52 53/53/53 37/37/37
f 214/214/214 213/213/213 212/212/212
f 123/123/123 130/130/130 135/135/135
f 134/134/134 132/132/132 136/136/136
f 149/149/149 164/164/164 161/161/161
f 49/49/49 37/37/37 53/53/53
f 132/132/132 134/134/134 130/130/130
f 246/246/246 245/245/245 247/247/247
f 37/37/37 49/49/49 38/38/38
f 117/117/117 118/118/118 122/122/122
f 53/53/53 52/52/52 56/56/56
f 119/119/119 116/116/116 121/121/121
f 168/168/168 170/170/170 169/169/169
f 137/137/137 141/141/141 132/132/132
f 148/148/148 160/160/160 149/149/149
f 38/38/38 49/49/49 45/45/45
f 254/254/254 250/250/250 248/248/248
f 245/245/245 244/244/244 258/258/258
f 125/125/125 132/132/132 130/130/130
f 145/145/145 170/170/170 168/168/168
f 162/162/162 164/164/164 149/149/149
f 138/138/138 160/160/160 148/148/148
f 45/45/45 49/49/49 50/50/50
f 125/125/125 130/130/130 123/123/123
f 162/162/162 149/149/149 160/160/160
f 159/159/159 138/138/138 148/148/148
f 248/248/248 243/243/243 246/246/246
f 254/254/254 256/256/256 250/250/250
f 246/246/246 243/243/243 245/245/245
f 112/112/112 118/118/118 117/117/117
f 243/243/243 244/244/244 245/245/245
f 111/111/111 112/112/112 117/117/117
f 116/116/116 119/119/119 107/107/107
f 168/168/168 164/164/164 145/145/145
f 137/137/137 132/132/132 131/131/131
f 131/131/131 159/159/159 137/137/137
f 159/159/159 133/133/133 138/138/138
f 249/249/249 243/243/243 248/248/248
f 145/145/145 164/164/164 142/142/142
f 164/164/164 162/162/162 142/142/142
f 133/133/133 159/159/159 131/131/131
f 140/140/140 162/162/162 160/160/160
f 249/249/249 248/248/248 250/250/250
f 119/119/119 120/120/120 107/107/107
f 123/123/123 124/124/124 125/125/125
f 256/256/256 257/257/257 250/250/250
f 114/114/114 115/115/115 107/107/107
f 107/107/107 115/115/115 116/116/116
f 125/125/125 131/131/131 132/132/132
f 110/110/110 108/108/108 113/113/113
f 108/108/108 111/111/111 113/113/113
f 126/126/126 124/124/124 123/123/123
f 140/140/140 142/142/142 162/162/162
f 249/249/249 250/250/250 257/257/257
f 114/114/114 106/106/106 109/109/109
f 108/108/108 104/104/104 111/111/111
f 107/107/107 106/106/106 114/114/114
f 112/112/112 111/111/111 104/104/104
f 107/107/107 120/120/120 103/103/103
f 124/124/124 131/131/131 125/125/125
f 140/140/140 160/160/160 138/138/138
f 128/128/128 138/138/138 133/133/133
f 103/103/103 106/106/106 107/107/107
f 127/127/127 124/124/124 126/126/126
f 145/145/145 142/142/142 144/144/144
f 128/128/128 131/131/131 124/124/124
f 128/128/128 133/133/133 131/131/131
f 106/106/106 98/98/98 109/109/109
f 109/109/109 108/108/108 110/110/110
f 143/143/143 144/144/144 142/142/142
f 139/139/139 140/140/140 138/138/138
f 139/139/139 138/138/138 128/128/128
f 109/109/109 98/98/98 101/101/101
f 128/128/128 124/124/124 127/127/127
f 143/143/143 142/142/142 139/139/139
f 139/139/139 142/142/142 140/140/140
f 101/101/101 108/108/108 109/109/109
f 108/108/108 101/101/101 104/104/104
f 106/106/106 103/103/103 98/98/98
f 103/103/103 99/99/99 98/98/98
f 127/127/127 129/129/129 128/128/128
f 104/104/104 101/101/101 102/102/102
f 98/98/98 99/99/99 100/100/100
f 98/98/98 100/100/100 101/101/101
f 100/100/100 105/105/105 102/102/102
f 101/101/101 100/100/100 102/102/102
