# TreasureTurtle / LegFrontLeft  (local frame of part 'LegFrontLeft', bbox-centred; -Z = front)
v 0.21222 0.05459 0.56425
v 0.12275 0.10995 0.57038
v 0.14106 0.04775 0.60859
v 0.19416 0.10253 0.53934
v 0.05428 0.08581 0.61248
v 0.06455 0.02502 0.64033
v 0.02492 0.05321 0.63616
v 0.20970 0.01775 0.57884
v 0.27885 0.06806 0.49860
v 0.24817 0.12222 0.47157
v 0.29685 0.09373 0.45535
v 0.16310 0.15188 0.49237
v 0.23302 0.15099 0.43902
v 0.04627 0.14669 0.54503
v 0.29054 0.15012 0.37289
v 0.33022 0.12094 0.37129
v 0.18009 0.18940 0.39988
v 0.06280 0.18442 0.47203
v 0.10772 0.19909 0.42036
v 0.21923 0.20299 0.31794
v 0.30507 0.17700 0.27233
v 0.26576 0.20132 0.25248
v 0.05119 0.21992 0.37850
v -0.02915 0.13637 0.56216
v -0.05758 0.19807 0.44070
v -0.08654 0.17463 0.48597
v -0.02941 0.22894 0.35139
v -0.10191 0.14435 0.53415
v -0.03945 0.08202 0.61757
v 0.36967 0.11650 0.30608
v 0.36440 0.13997 0.25963
v 0.33506 0.18465 0.15831
v 0.37986 0.14070 0.21366
v -0.13668 0.11354 0.56046
v -0.13545 0.08822 0.58593
v -0.14522 0.12882 0.53737
v -0.12218 0.04075 0.61958
v -0.24476 0.08006 0.52131
v -0.05541 0.03072 0.64069
v -0.19259 0.03638 0.58587
v -0.26231 0.02654 0.53533
v 0.01702 -0.01360 0.64794
v -0.07513 -0.00543 0.64076
v -0.18215 -0.00856 0.59802
v -0.13129 -0.03962 0.61638
v -0.31470 0.02658 -0.48659
v -0.23659 0.02584 -0.56196
v -0.24931 -0.03080 -0.55035
v -0.31398 -0.03622 -0.48400
v -0.18546 0.00436 -0.59931
v -0.36790 -0.03723 -0.40825
v -0.38972 0.01543 -0.37747
v -0.35295 0.05540 -0.42072
v -0.27808 0.07254 -0.50061
v -0.40058 0.06475 -0.32310
v -0.42566 0.00708 -0.29773
v -0.38613 -0.07136 -0.34747
v -0.43683 -0.02548 -0.25912
v -0.25381 -0.06977 -0.52609
v -0.35950 -0.08045 -0.38704
v -0.44045 0.05270 -0.22208
v -0.45815 0.00374 -0.18700
v -0.46255 0.05190 -0.11404
v -0.47080 0.00618 -0.11610
v -0.46834 -0.05020 -0.06459
v -0.43488 -0.08547 -0.18255
v -0.42353 -0.08713 -0.22360
v -0.47674 -0.01698 0.03597
v -0.47308 0.04107 -0.02019
v -0.46710 0.05755 0.03515
v -0.41408 0.10413 -0.21545
v -0.44038 0.09912 -0.10146
v -0.46542 -0.01263 0.13806
v -0.37999 0.11188 -0.29591
v -0.33446 0.10510 -0.39440
v -0.44776 0.04493 0.19266
v -0.43522 0.11392 -0.02816
v -0.44986 -0.08800 0.07177
v -0.45283 -0.05912 0.14757
v -0.44895 -0.09369 -0.04529
v -0.42772 -0.00494 0.28111
v -0.42754 -0.04959 0.25745
v -0.37154 -0.12752 -0.28125
v -0.38764 -0.12499 -0.24457
v -0.36179 -0.11726 -0.32617
v -0.28287 -0.09323 -0.47662
v -0.44200 0.09811 0.08548
v -0.40755 0.03270 0.32291
v -0.42260 0.08153 0.22762
v -0.37681 -0.04089 0.38128
v -0.36610 0.01994 0.40867
v -0.41030 -0.11651 0.18220
v -0.40608 -0.09466 0.25267
v -0.37775 -0.09515 0.32216
v -0.32905 -0.11774 -0.38381
v -0.33974 0.00303 0.45110
v -0.34227 -0.04993 0.43210
v -0.31722 -0.09929 0.42054
v -0.37169 0.06071 0.37630
v -0.37782 0.09421 0.32429
v -0.27859 -0.01923 0.52143
v -0.32389 0.05385 0.45516
v -0.27201 -0.06692 0.50599
v -0.26231 0.02654 0.53533
v 0.34394 0.14341 -0.29993
v 0.33284 0.16690 -0.25287
v 0.31606 0.19356 -0.17743
v 0.36703 0.03469 0.40537
v 0.32838 -0.01877 0.46587
v 0.36820 -0.03143 0.40488
v 0.40128 0.00128 0.35156
v 0.33359 0.05193 0.44527
v 0.29868 0.02227 0.50008
v 0.39637 0.05390 0.33917
v 0.42338 0.03291 0.29116
v 0.25802 -0.02674 0.53899
v 0.39219 -0.05208 0.34938
v 0.41673 -0.05194 0.29363
v 0.42428 -0.02030 0.29497
v 0.20970 0.01775 0.57884
v 0.35795 -0.07849 0.38686
v 0.30521 -0.08083 0.45858
v 0.26027 -0.08206 0.50537
v 0.44937 -0.01565 0.21925
v 0.44183 -0.06198 0.20218
v 0.43159 -0.06430 0.23574
v 0.46436 -0.01252 0.15296
v 0.37722 -0.10445 0.31407
v 0.40372 -0.10436 0.24739
v 0.44606 -0.07764 0.14849
v 0.18269 -0.05323 0.58419
v 0.14128 -0.01775 0.61732
v 0.29582 -0.11896 0.42377
v 0.32349 -0.12363 0.37788
v 0.25638 -0.11692 0.47055
v 0.32661 -0.14307 0.33328
v 0.17159 -0.10956 0.54575
v 0.13407 -0.08920 0.58519
v 0.19109 -0.13897 0.49408
v 0.39988 -0.13272 0.17406
v 0.33656 -0.17043 0.22806
v 0.25046 -0.16294 0.39642
v 0.35316 -0.17822 0.13116
v 0.06205 -0.05262 0.63151
v 0.10567 -0.13438 0.54659
v 0.10211 -0.15718 0.51247
v 0.05589 -0.10514 0.59483
v -0.02478 -0.06122 0.63215
v 0.01702 -0.01360 0.64794
v 0.14106 0.04775 0.60859
v 0.06455 0.02502 0.64033
v 0.21222 0.05459 0.56425
v 0.27885 0.06806 0.49860
v -0.01851 -0.11007 0.59427
v -0.07513 -0.00543 0.64076
v -0.13129 -0.03962 0.61638
v -0.09221 -0.06959 0.61525
v -0.17825 -0.08736 0.56428
v -0.22381 -0.04435 0.56120
v -0.18215 -0.00856 0.59802
v 0.44441 -0.02617 -0.23361
v 0.46542 0.02557 -0.14107
v 0.45429 -0.04382 -0.17838
v 0.47301 -0.01168 -0.09697
v 0.45098 0.04988 -0.18509
v 0.43276 0.00958 -0.27613
v 0.46180 0.06483 -0.08118
v 0.47627 0.02602 -0.01444
v 0.47674 -0.02332 -0.00510
v 0.47520 0.02647 0.04043
v 0.46945 -0.04727 0.05679
v 0.47298 0.00907 0.09380
v 0.46499 -0.06395 -0.03649
v 0.44988 -0.08727 -0.08903
v 0.41394 -0.05800 -0.29555
v 0.38836 -0.01046 -0.37755
v 0.36880 -0.03987 -0.40200
v 0.45468 -0.08505 0.03447
v 0.41729 -0.10813 -0.19330
v 0.43098 -0.10830 -0.12725
v 0.44606 -0.07764 0.14849
v 0.46436 -0.01252 0.15296
v 0.44897 -0.08023 0.12245
v 0.44183 -0.06198 0.20218
v 0.37519 -0.08640 -0.34676
v 0.41941 -0.13307 -0.03621
v 0.39830 -0.12956 -0.19380
v 0.41743 -0.13353 0.05608
v 0.40451 -0.14508 0.07115
v 0.35428 -0.13819 -0.28935
v 0.39988 -0.13272 0.17406
v 0.40372 -0.10436 0.24739
v 0.30719 -0.09034 -0.44888
v 0.32273 -0.12263 -0.38031
v 0.30126 -0.03627 -0.49736
v 0.34093 -0.19041 -0.09584
v 0.36582 -0.17914 -0.00614
v 0.33073 -0.17661 -0.21579
v 0.25888 -0.07123 -0.51967
v 0.34046 0.00722 -0.45563
v 0.35316 -0.17822 0.13116
v 0.27299 -0.17289 -0.33995
v 0.22102 -0.12799 -0.48846
v 0.24952 -0.14832 -0.42645
v 0.24260 -0.05475 -0.54518
v 0.17227 -0.10077 -0.55686
v 0.25240 0.00516 -0.55246
v 0.18017 -0.04923 -0.59111
v 0.41484 0.04882 -0.30231
v 0.35964 0.04427 -0.41470
v 0.30195 0.03928 -0.49537
v 0.16210 0.00783 -0.61183
v 0.09407 -0.08880 -0.60140
v 0.13387 -0.03558 -0.61870
v 0.20373 0.03098 -0.58409
v 0.24399 0.06038 -0.54084
v 0.27379 0.06012 -0.51376
v 0.06030 -0.07212 -0.62178
v 0.04490 -0.02911 -0.64384
v 0.06325 0.00903 -0.64439
v -0.04305 -0.06463 -0.62910
v -0.01405 -0.09464 -0.60969
v -0.03565 -0.01307 -0.64794
v -0.09755 -0.01465 -0.63570
v -0.14614 -0.03927 -0.61200
v 0.25936 -0.23015 -0.07650
v 0.21536 -0.24548 0.04799
v 0.14859 -0.25717 -0.10703
v 0.18200 -0.25412 0.03959
v 0.23184 -0.23318 -0.14238
v 0.09346 -0.26903 -0.00803
v 0.17205 -0.23945 -0.21013
v 0.30293 -0.21461 -0.00417
v 0.16950 -0.25169 0.12261
v 0.10011 -0.26589 0.08172
v 0.03597 -0.26745 -0.12852
v 0.02411 -0.27236 -0.06398
v 0.07641 -0.25917 -0.17772
v 0.08613 -0.24173 -0.27596
v -0.00455 -0.27383 -0.02525
v 0.09727 -0.25465 0.20006
v 0.08464 -0.26331 0.13794
v 0.00429 -0.27016 0.10598
v 0.17616 -0.23611 0.22892
v -0.01452 -0.25494 -0.22957
v 0.01194 -0.26460 -0.16186
v -0.07736 -0.27048 -0.00311
v -0.09282 -0.25857 -0.17033
v -0.10442 -0.26223 -0.12409
v 0.03672 -0.23167 -0.33717
v -0.09481 -0.24489 -0.25626
v -0.03066 -0.26187 0.18529
v -0.00878 -0.24485 0.29106
v 0.07173 -0.24295 0.28393
v -0.13110 -0.26312 0.04269
v -0.09296 -0.25705 0.18416
v -0.11376 -0.26635 -0.01397
v -0.17511 -0.25000 -0.12659
v -0.18465 -0.23751 -0.20856
v -0.07235 -0.23092 -0.33021
v -0.20523 -0.24814 -0.02742
v 0.11541 -0.21903 -0.35260
v -0.10181 -0.23142 0.31796
v -0.19255 -0.24837 0.08855
v -0.10415 -0.24708 0.24064
v -0.17190 -0.23809 0.21739
v 0.11061 -0.22795 0.32796
v 0.19242 -0.21194 0.31980
v 0.08369 -0.21336 0.39072
v -0.08180 -0.20943 0.40271
v 0.00035 -0.19950 0.44380
v 0.05971 -0.20162 0.43104
v 0.25961 -0.21617 0.19382
v 0.27907 -0.21701 0.13268
v 0.31517 -0.20555 0.08020
v 0.22486 -0.20618 0.30199
v -0.13470 -0.20924 0.37585
v -0.01798 -0.19727 -0.44872
v 0.06810 -0.18363 -0.47211
v -0.14247 -0.20589 -0.38136
v 0.26718 -0.19902 0.26370
v 0.18679 -0.18288 0.41169
v 0.12961 -0.18470 0.44533
v 0.05234 -0.17825 0.48679
v 0.10211 -0.15718 0.51247
v -0.03579 -0.16108 0.52223
v -0.06958 -0.18310 0.47258
v 0.01867 -0.14967 0.54279
v 0.25046 -0.16294 0.39642
v 0.27768 -0.19007 0.28012
v 0.33656 -0.17043 0.22806
v 0.18425 -0.17952 -0.41929
v 0.20095 -0.21054 -0.31073
v 0.26948 -0.20404 -0.23334
v 0.29358 -0.20706 -0.15891
v -0.02579 -0.17760 -0.49318
v 0.15150 -0.15318 -0.49633
v 0.09279 -0.15905 -0.51313
v -0.09222 -0.16026 -0.51185
v 0.00043 -0.15237 -0.54010
v 0.19109 -0.13897 0.49408
v 0.32661 -0.14307 0.33328
v 0.10567 -0.13438 0.54659
v 0.09891 -0.12274 -0.56494
v 0.03530 -0.10774 -0.59561
v 0.05589 -0.10514 0.59483
v -0.01851 -0.11007 0.59427
v -0.44986 -0.08800 0.07177
v -0.42107 -0.13061 -0.02089
v -0.42023 -0.13126 0.02207
v -0.44895 -0.09369 -0.04529
v -0.41030 -0.11651 0.18220
v -0.37532 -0.16443 0.10396
v -0.45283 -0.05912 0.14757
v -0.33500 -0.17877 0.18554
v -0.34945 -0.14571 0.27344
v -0.37775 -0.09515 0.32216
v -0.40608 -0.09466 0.25267
v -0.33105 -0.13364 0.34083
v -0.36894 -0.17476 -0.04131
v -0.32603 -0.19978 0.06112
v -0.30773 -0.17276 0.27776
v -0.38956 -0.14865 -0.14297
v -0.35773 -0.17912 -0.09262
v -0.27578 -0.21596 0.14061
v -0.29380 -0.21564 -0.06980
v -0.30030 -0.21120 -0.09212
v -0.24469 -0.21083 0.24409
v -0.26751 -0.22548 0.07836
v -0.24988 -0.23459 -0.02371
v -0.25649 -0.17937 0.34239
v -0.25415 -0.15283 0.41109
v -0.22114 -0.20148 0.31827
v -0.21768 -0.21941 0.24872
v -0.21755 -0.23266 0.17172
v -0.27890 -0.20102 -0.23444
v -0.35949 -0.15409 -0.23153
v -0.26404 -0.21470 -0.19445
v -0.16483 -0.16604 0.46435
v -0.27946 -0.15535 -0.38092
v -0.20026 -0.19113 -0.37933
v -0.37154 -0.12752 -0.28125
v -0.09893 -0.16352 0.50256
v -0.24220 -0.11987 0.47977
v -0.16733 -0.12347 0.53211
v -0.31722 -0.09929 0.42054
v -0.32905 -0.11774 -0.38381
v -0.36179 -0.11726 -0.32617
v -0.20109 -0.14669 -0.47690
v -0.38764 -0.12499 -0.24457
v -0.42353 -0.08713 -0.22360
v -0.10000 -0.11867 0.56901
v -0.43488 -0.08547 -0.18255
v -0.28287 -0.09323 -0.47662
v -0.20239 -0.10097 -0.53829
v -0.09788 -0.10521 -0.58511
v -0.17825 -0.08736 0.56428
v -0.24829 -0.10137 0.49719
v -0.27201 -0.06692 0.50599
v -0.09221 -0.06959 0.61525
v -0.02478 -0.06122 0.63215
v -0.25381 -0.06977 -0.52609
v -0.18639 -0.06329 -0.57960
v -0.22381 -0.04435 0.56120
v -0.24931 -0.03080 -0.55035
v -0.27859 -0.01923 0.52143
v 0.42428 -0.02030 0.29497
v 0.42338 0.03291 0.29116
v 0.40128 0.00128 0.35156
v 0.44125 0.04448 0.22776
v 0.44937 -0.01565 0.21925
v 0.46436 -0.01252 0.15296
v 0.45661 0.04338 0.16486
v 0.47298 0.00907 0.09380
v 0.45785 0.06522 0.11010
v 0.46036 0.07489 0.02616
v 0.47520 0.02647 0.04043
v 0.44019 0.07708 0.17903
v 0.47627 0.02602 -0.01444
v 0.39557 0.08541 0.30378
v 0.39637 0.05390 0.33917
v 0.41306 0.08934 0.25081
v 0.41153 0.09573 0.24233
v 0.45513 0.08587 -0.01371
v 0.46180 0.06483 -0.08118
v 0.43328 0.11290 0.07833
v 0.40412 0.12997 0.16597
v 0.42897 0.12286 -0.02830
v 0.43940 0.10196 -0.10101
v 0.37986 0.14070 0.21366
v 0.39581 0.14389 0.13743
v 0.36440 0.13997 0.25963
v 0.36967 0.11650 0.30608
v 0.36037 0.08784 0.37149
v 0.36262 0.10673 0.33917
v 0.36703 0.03469 0.40537
v 0.33359 0.05193 0.44527
v 0.39113 0.15901 0.03763
v 0.33022 0.12094 0.37129
v 0.29685 0.09373 0.45535
v 0.39467 0.15201 -0.09532
v 0.27885 0.06806 0.49860
v 0.33506 0.18465 0.15831
v 0.46542 0.02557 -0.14107
v 0.45098 0.04988 -0.18509
v 0.42862 0.08725 -0.20587
v 0.40189 0.12721 -0.19051
v 0.37474 0.15388 -0.18356
v 0.36693 0.17742 0.03006
v 0.42577 0.08044 -0.22999
v 0.40470 0.08570 -0.28227
v 0.38578 0.12858 -0.23900
v 0.43276 0.00958 -0.27613
v 0.41484 0.04882 -0.30231
v 0.36993 0.09376 -0.34719
v 0.36835 0.11642 -0.31101
v 0.34394 0.14341 -0.29993
v 0.35964 0.04427 -0.41470
v 0.31607 0.09829 -0.42844
v 0.30903 0.14576 -0.35683
v 0.30114 0.12981 -0.40057
v 0.26211 0.10779 -0.48002
v 0.30195 0.03928 -0.49537
v 0.27379 0.06012 -0.51376
v 0.20732 0.10188 -0.53387
v 0.24399 0.06038 -0.54084
v 0.22415 0.22082 -0.24147
v 0.23384 0.20466 -0.29615
v 0.20656 0.20102 -0.34222
v 0.15202 0.21206 -0.35609
v 0.08984 0.23832 -0.29792
v 0.14100 0.24190 -0.24252
v 0.24698 0.23195 -0.11041
v 0.16569 0.25306 -0.12494
v 0.09857 0.25866 -0.17647
v 0.04454 0.24813 -0.27148
v 0.14708 0.26183 -0.02238
v 0.09466 0.26709 -0.08799
v 0.25126 0.23466 0.02677
v 0.31619 0.20050 -0.12864
v 0.31606 0.19356 -0.17743
v 0.30519 0.21300 -0.01156
v 0.28200 0.18346 -0.29703
v 0.22265 0.23481 0.14892
v 0.15047 0.25767 0.09552
v 0.11605 0.26672 0.01490
v 0.12377 0.26098 0.11006
v 0.31888 0.20035 0.10890
v -0.04921 0.26150 -0.18957
v -0.00567 0.26987 -0.12499
v 0.03506 0.27383 0.01971
v 0.16934 0.23168 0.25724
v -0.00289 0.27373 0.05058
v -0.04058 0.27362 -0.02665
v 0.02298 0.26592 0.15100
v 0.09001 0.24049 0.28222
v 0.00996 0.25390 0.23876
v 0.07314 0.24057 0.29049
v 0.26578 0.21190 0.19959
v 0.26576 0.20132 0.25248
v 0.21923 0.20299 0.31794
v 0.08715 0.22693 0.34112
v -0.07400 0.26948 0.07441
v -0.04388 0.24213 -0.29935
v 0.18009 0.18940 0.39988
v 0.10772 0.19909 0.42036
v 0.05119 0.21992 0.37850
v -0.08259 0.24978 0.23874
v -0.02941 0.22894 0.35139
v 0.01316 0.21365 -0.40525
v 0.07618 0.18759 -0.46110
v -0.06903 0.22015 -0.37415
v 0.18350 0.17863 -0.42489
v 0.30507 0.17700 0.27233
v 0.33284 0.16690 -0.25287
v 0.23025 0.16231 -0.42013
v 0.35959 0.17383 -0.13504
v 0.01546 0.17711 -0.49439
v -0.05719 0.18227 -0.47766
v -0.07856 0.19319 -0.44669
v 0.16952 0.14886 -0.49443
v 0.07116 0.14015 -0.54945
v -0.03340 0.12929 -0.57074
v -0.09986 0.13349 -0.55017
v -0.11717 0.17032 -0.48173
v 0.06852 0.11072 -0.58690
v 0.16102 0.08090 -0.58147
v 0.03026 0.07310 -0.62516
v -0.06503 0.08698 -0.60984
v -0.12963 0.09019 -0.58752
v 0.10897 0.05568 -0.61922
v 0.20373 0.03098 -0.58409
v -0.05431 0.03432 -0.64099
v -0.15161 0.03757 -0.61012
v 0.06325 0.00903 -0.64439
v 0.16210 0.00783 -0.61183
v -0.03565 -0.01307 -0.64794
v -0.31636 0.20704 0.04225
v -0.36462 0.17830 -0.04536
v -0.38103 0.16372 0.07535
v -0.33421 0.18495 0.16112
v -0.29205 0.21881 -0.04453
v -0.34497 0.18240 -0.13834
v -0.24510 0.23510 0.07893
v -0.21341 0.23427 0.17994
v -0.27088 0.20032 0.25005
v -0.19267 0.25292 0.00940
v -0.24533 0.23675 -0.05270
v -0.24097 0.22680 -0.17025
v -0.18738 0.22200 0.28467
v -0.13957 0.25873 0.11197
v -0.23099 0.19087 0.34519
v -0.35555 0.16138 0.20704
v -0.28907 0.16928 0.32632
v -0.12764 0.26215 -0.09946
v -0.16204 0.24244 -0.21188
v -0.12321 0.22791 0.31802
v -0.21622 0.22599 -0.22362
v -0.15733 0.18358 0.43148
v -0.09657 0.20479 0.40971
v -0.14809 0.23741 -0.25583
v -0.10033 0.24784 -0.24422
v -0.18685 0.20867 -0.33502
v -0.26293 0.19348 -0.29138
v -0.33425 0.17130 -0.23065
v -0.05758 0.19807 0.44070
v -0.08654 0.17463 0.48597
v -0.20938 0.15211 0.45770
v -0.21061 0.17532 -0.40788
v -0.24202 0.15641 -0.41957
v -0.31138 0.15149 -0.34036
v -0.18614 0.13232 -0.50844
v -0.36516 0.14039 -0.25985
v -0.41413 0.13249 -0.09411
v -0.43522 0.11392 -0.02816
v -0.26000 0.12579 0.45339
v -0.10191 0.14435 0.53415
v -0.14522 0.12882 0.53737
v -0.36380 0.12146 0.30429
v -0.40690 0.12881 0.15130
v -0.41408 0.10413 -0.21545
v -0.31144 0.11421 0.40810
v -0.37999 0.11188 -0.29591
v -0.44200 0.09811 0.08548
v -0.33446 0.10510 -0.39440
v -0.26132 0.10292 -0.48660
v -0.44038 0.09912 -0.10146
v -0.42260 0.08153 0.22762
v -0.24476 0.08006 0.52131
v -0.37782 0.09421 0.32429
v -0.29473 0.08867 0.46198
v -0.13668 0.11354 0.56046
v -0.18379 0.07945 -0.56942
v -0.27808 0.07254 -0.50061
v -0.37169 0.06071 0.37630
v -0.32389 0.05385 0.45516
v -0.23659 0.02584 -0.56196
v -0.26231 0.02654 0.53533
v -0.18546 0.00436 -0.59931
v -0.18215 -0.00856 0.59802
v -0.26231 0.02654 0.53533
v -0.22381 -0.04435 0.56120
v -0.27859 -0.01923 0.52143
v -0.09755 -0.01465 -0.63570
v -0.15161 0.03757 -0.61012
v -0.05431 0.03432 -0.64099
v -0.18546 0.00436 -0.59931
v -0.03565 -0.01307 -0.64794
v -0.14614 -0.03927 -0.61200
v -0.18639 -0.06329 -0.57960
v -0.24931 -0.03080 -0.55035
v -0.03565 -0.01307 -0.64794
v 0.06325 0.00903 -0.64439
v 0.04490 -0.02911 -0.64384
vt 0.98126 0.36534
vt 0.95215 0.40043
vt 0.98490 0.40209
vt 0.95630 0.36759
vt 0.96030 0.43475
vt 0.98939 0.43957
vt 0.97200 0.45196
vt 0.99846 0.36933
vt 0.96820 0.32578
vt 0.93917 0.33332
vt 0.95020 0.31010
vt 0.92401 0.37005
vt 0.91897 0.33268
vt 0.92314 0.42415
vt 0.90789 0.29605
vt 0.92172 0.27919
vt 0.88767 0.34498
vt 0.89332 0.40434
vt 0.87985 0.37722
vt 0.86419 0.31173
vt 0.87074 0.26786
vt 0.85116 0.27874
vt 0.85112 0.39221
vt 0.91929 0.45674
vt 0.85978 0.44674
vt 0.87586 0.46674
vt 0.82615 0.41989
vt 0.89698 0.48210
vt 0.94864 0.47204
vt 0.90828 0.24811
vt 0.88618 0.24024
vt 0.83611 0.22803
vt 0.87340 0.22273
vt 0.90851 0.50270
vt 0.92379 0.50693
vt 0.89557 0.50238
vt 0.94933 0.51065
vt 0.89294 0.55325
vt 0.96814 0.48723
vt 0.93185 0.53924
vt 0.91142 0.57121
vt 0.99846 0.46567
vt 0.97852 0.50186
vt 0.95202 0.54548
vt 0.97674 0.53274
vt 0.74631 0.07623
vt 0.74706 0.02951
vt 0.72170 0.03664
vt 0.71936 0.07649
vt 0.73792 0.00152
vt 0.71847 0.11547
vt 0.74043 0.13143
vt 0.75827 0.10838
vt 0.76830 0.06183
vt 0.76188 0.15425
vt 0.73636 0.16776
vt 0.70261 0.14134
vt 0.72232 0.18442
vt 0.70309 0.04571
vt 0.69840 0.12114
vt 0.75594 0.20017
vt 0.73444 0.21623
vt 0.75539 0.24715
vt 0.73526 0.24661
vt 0.71045 0.26813
vt 0.69429 0.21563
vt 0.69341 0.19667
vt 0.72492 0.31114
vt 0.75007 0.28737
vt 0.75759 0.31103
vt 0.78148 0.20009
vt 0.77859 0.25152
vt 0.72656 0.35528
vt 0.78615 0.16174
vt 0.78339 0.11423
vt 0.75249 0.37960
vt 0.78615 0.28358
vt 0.69186 0.32713
vt 0.70540 0.36048
vt 0.68928 0.27570
vt 0.73114 0.41914
vt 0.71100 0.40986
vt 0.67231 0.16478
vt 0.67338 0.18221
vt 0.67818 0.14475
vt 0.69148 0.07054
vt 0.77787 0.33359
vt 0.74809 0.43890
vt 0.77053 0.39687
vt 0.71607 0.46791
vt 0.74307 0.48039
vt 0.67629 0.38077
vt 0.68868 0.41137
vt 0.68913 0.44482
vt 0.67807 0.11527
vt 0.73550 0.50217
vt 0.71184 0.49445
vt 0.68663 0.49602
vt 0.76205 0.46657
vt 0.77822 0.44381
vt 0.72440 0.54312
vt 0.75878 0.50811
vt 0.70185 0.53891
vt 0.74512 0.55303
vt 0.99231 0.12273
vt 0.96792 0.11970
vt 0.93077 0.12273
vt 0.72777 0.71887
vt 0.75246 0.74862
vt 0.75707 0.71792
vt 0.74257 0.69081
vt 0.72079 0.74195
vt 0.73608 0.76866
vt 0.71834 0.68738
vt 0.72739 0.66311
vt 0.75905 0.79035
vt 0.76684 0.69237
vt 0.76847 0.66594
vt 0.75378 0.66416
vt 0.74310 0.81884
vt 0.77906 0.71379
vt 0.78095 0.75104
vt 0.78351 0.77780
vt 0.75563 0.62867
vt 0.77816 0.62491
vt 0.77726 0.64048
vt 0.75840 0.59848
vt 0.79405 0.68280
vt 0.79707 0.65152
vt 0.78991 0.60275
vt 0.77600 0.82442
vt 0.76488 0.84836
vt 0.80129 0.74137
vt 0.80381 0.71854
vt 0.80169 0.76727
vt 0.81694 0.70151
vt 0.80396 0.81522
vt 0.79707 0.83867
vt 0.81977 0.79321
vt 0.81910 0.62426
vt 0.83999 0.65899
vt 0.83186 0.74360
vt 0.85385 0.61772
vt 0.78850 0.87681
vt 0.82599 0.83672
vt 0.84206 0.82732
vt 0.81549 0.86798
vt 0.80591 0.91038
vt 0.77771 0.90114
vt 0.73658 0.85312
vt 0.75523 0.88560
vt 0.72569 0.81547
vt 0.71538 0.77572
vt 0.83044 0.89722
vt 0.79030 0.94047
vt 0.81684 0.95829
vt 0.82283 0.93697
vt 0.85385 0.97144
vt 0.84512 0.99848
vt 0.81699 0.98643
vt 0.53710 0.34120
vt 0.53824 0.39007
vt 0.51907 0.35974
vt 0.51269 0.39852
vt 0.55860 0.37620
vt 0.56016 0.32911
vt 0.53896 0.42359
vt 0.50563 0.43944
vt 0.48460 0.42948
vt 0.48949 0.46003
vt 0.45809 0.44430
vt 0.46680 0.47400
vt 0.47783 0.40722
vt 0.48193 0.38198
vt 0.53483 0.30867
vt 0.56556 0.27912
vt 0.55593 0.26356
vt 0.45023 0.42534
vt 0.49587 0.33721
vt 0.48192 0.36190
vt 0.41752 0.46601
vt 0.44041 0.48796
vt 0.42500 0.45635
vt 0.40590 0.48939
vt 0.53004 0.27977
vt 0.44918 0.38542
vt 0.48647 0.33022
vt 0.42296 0.41574
vt 0.41253 0.41594
vt 0.49802 0.28851
vt 0.38398 0.45338
vt 0.36997 0.48718
vt 0.53721 0.23004
vt 0.51646 0.25365
vt 0.56360 0.21507
vt 0.43354 0.34049
vt 0.41754 0.37610
vt 0.46545 0.30216
vt 0.54791 0.19584
vt 0.58053 0.24108
vt 0.37341 0.41888
vt 0.48360 0.25026
vt 0.51719 0.19407
vt 0.50444 0.21954
vt 0.55499 0.18348
vt 0.52854 0.16025
vt 0.58161 0.18315
vt 0.55310 0.15074
vt 0.58229 0.32040
vt 0.59463 0.26393
vt 0.59745 0.21711
vt 0.57675 0.13428
vt 0.52357 0.12283
vt 0.55341 0.12689
vt 0.59132 0.15607
vt 0.60769 0.18268
vt 0.60762 0.20154
vt 0.52450 0.10431
vt 0.53930 0.08609
vt 0.56020 0.08689
vt 0.49915 0.06533
vt 0.49534 0.08523
vt 0.52060 0.05079
vt 0.49674 0.03141
vt 0.46857 0.02667
vt 0.40000 0.32165
vt 0.34970 0.34584
vt 0.37453 0.28031
vt 0.34159 0.33322
vt 0.41037 0.29421
vt 0.32889 0.29280
vt 0.41202 0.25785
vt 0.39386 0.35668
vt 0.31277 0.35468
vt 0.30390 0.32117
vt 0.34798 0.24144
vt 0.32527 0.25625
vt 0.37436 0.23939
vt 0.40680 0.21474
vt 0.30535 0.25876
vt 0.26669 0.35607
vt 0.28208 0.33326
vt 0.26798 0.29942
vt 0.28216 0.39018
vt 0.36435 0.19814
vt 0.35131 0.22499
vt 0.27750 0.24316
vt 0.32429 0.19120
vt 0.30696 0.20073
vt 0.41178 0.18336
vt 0.35028 0.16634
vt 0.23283 0.31208
vt 0.20567 0.35074
vt 0.23242 0.37402
vt 0.24758 0.23987
vt 0.21450 0.29254
vt 0.27030 0.22905
vt 0.28746 0.17792
vt 0.31014 0.15140
vt 0.37970 0.15233
vt 0.24756 0.19659
vt 0.43870 0.20191
vt 0.16814 0.32981
vt 0.21478 0.23380
vt 0.19290 0.30575
vt 0.17957 0.27761
vt 0.23003 0.40052
vt 0.25837 0.42532
vt 0.20063 0.41212
vt 0.14533 0.36230
vt 0.15648 0.40211
vt 0.17929 0.41766
vt 0.32015 0.40647
vt 0.34543 0.39282
vt 0.37387 0.38772
vt 0.27464 0.43065
vt 0.13784 0.33708
vt 0.43279 0.13561
vt 0.46401 0.15486
vt 0.37732 0.11506
vt 0.30093 0.43274
vt 0.22572 0.45550
vt 0.19587 0.44688
vt 0.15670 0.43450
vt 0.16233 0.46222
vt 0.11524 0.41653
vt 0.12362 0.38859
vt 0.12397 0.44270
vt 0.25173 0.47475
vt 0.29925 0.44232
vt 0.33684 0.44686
vt 0.48048 0.20304
vt 0.45114 0.23791
vt 0.44943 0.27918
vt 0.43535 0.30751
vt 0.44580 0.12024
vt 0.49690 0.17211
vt 0.48548 0.15037
vt 0.43507 0.09274
vt 0.46975 0.11432
vt 0.19747 0.48939
vt 0.29928 0.48227
vt 0.14870 0.47726
vt 0.50761 0.13653
vt 0.50231 0.10693
vt 0.11164 0.47803
vt 0.08823 0.45000
vt 0.12494 0.13027
vt 0.17297 0.11835
vt 0.15854 0.13175
vt 0.16774 0.09488
vt 0.10388 0.18220
vt 0.14864 0.17507
vt 0.09110 0.14765
vt 0.13547 0.21401
vt 0.09714 0.23404
vt 0.06152 0.23604
vt 0.07669 0.20418
vt 0.07830 0.26070
vt 0.19986 0.13523
vt 0.18107 0.18128
vt 0.11265 0.25054
vt 0.22602 0.09520
vt 0.22066 0.12431
vt 0.17160 0.22167
vt 0.23409 0.15473
vt 0.23915 0.14602
vt 0.14705 0.26207
vt 0.19472 0.20652
vt 0.23298 0.18308
vt 0.10815 0.28742
vt 0.08255 0.30916
vt 0.12932 0.29180
vt 0.15444 0.27218
vt 0.18023 0.24974
vt 0.29154 0.11129
vt 0.26549 0.07950
vt 0.28285 0.12868
vt 0.09480 0.35506
vt 0.33994 0.06495
vt 0.36121 0.09597
vt 0.27807 0.05670
vt 0.10224 0.38895
vt 0.05765 0.33473
vt 0.06453 0.37669
vt 0.04857 0.28964
vt 0.32670 0.04052
vt 0.29660 0.04560
vt 0.39493 0.06455
vt 0.25966 0.06115
vt 0.23684 0.04804
vt 0.07260 0.41191
vt 0.21878 0.05645
vt 0.37387 0.02664
vt 0.41839 0.04024
vt 0.46277 0.06492
vt 0.04206 0.38491
vt 0.04599 0.33823
vt 0.02607 0.33287
vt 0.04818 0.43393
vt 0.06150 0.46562
vt 0.40153 0.01797
vt 0.44139 0.02647
vt 0.01602 0.36866
vt 0.41553 0.00152
vt 0.00154 0.33673
vt 0.59577 0.53282
vt 0.58903 0.55633
vt 0.62131 0.54845
vt 0.55835 0.55489
vt 0.55924 0.52711
vt 0.52801 0.52273
vt 0.52960 0.54878
vt 0.49902 0.52827
vt 0.50377 0.55513
vt 0.46551 0.55588
vt 0.47345 0.53331
vt 0.53432 0.56604
vt 0.44777 0.53171
vt 0.59212 0.58387
vt 0.61082 0.57264
vt 0.56684 0.57951
vt 0.56264 0.58197
vt 0.44723 0.56053
vt 0.41625 0.55016
vt 0.48782 0.57777
vt 0.52657 0.59412
vt 0.44020 0.58035
vt 0.40754 0.57007
vt 0.54829 0.60632
vt 0.51324 0.60048
vt 0.57022 0.61144
vt 0.59270 0.60235
vt 0.62531 0.59554
vt 0.60901 0.60129
vt 0.64557 0.57458
vt 0.66500 0.59087
vt 0.46850 0.60411
vt 0.62546 0.61601
vt 0.66934 0.61645
vt 0.41039 0.59956
vt 0.69385 0.61260
vt 0.52136 0.63379
vt 0.38633 0.53478
vt 0.36670 0.54924
vt 0.35926 0.57002
vt 0.36763 0.59066
vt 0.37137 0.60701
vt 0.46464 0.61702
vt 0.34767 0.56947
vt 0.32405 0.57950
vt 0.34620 0.59723
vt 0.31928 0.54232
vt 0.31083 0.56446
vt 0.29518 0.59628
vt 0.31332 0.60169
vt 0.31981 0.61680
vt 0.25749 0.58827
vt 0.25899 0.61995
vt 0.29501 0.63129
vt 0.27445 0.63174
vt 0.23653 0.64451
vt 0.21862 0.61277
vt 0.21323 0.63071
vt 0.21103 0.66714
vt 0.19987 0.64456
vt 0.34631 0.67636
vt 0.32302 0.66990
vt 0.30296 0.67990
vt 0.29644 0.70256
vt 0.31998 0.73063
vt 0.34448 0.71158
vt 0.40212 0.67069
vt 0.39430 0.70517
vt 0.37104 0.73139
vt 0.32975 0.75008
vt 0.43686 0.71604
vt 0.40780 0.73594
vt 0.46053 0.67213
vt 0.39526 0.63866
vt 0.37440 0.63710
vt 0.44532 0.64674
vt 0.32258 0.64789
vt 0.51277 0.68719
vt 0.48709 0.71772
vt 0.45188 0.73005
vt 0.49231 0.72962
vt 0.49838 0.64171
vt 0.36057 0.79124
vt 0.38911 0.77585
vt 0.45097 0.76416
vt 0.55898 0.71357
vt 0.46256 0.78104
vt 0.42879 0.79379
vt 0.50641 0.77380
vt 0.56685 0.74938
vt 0.54420 0.78254
vt 0.56997 0.75703
vt 0.53713 0.66804
vt 0.56146 0.66882
vt 0.58955 0.69190
vt 0.59394 0.75269
vt 0.46989 0.81163
vt 0.31478 0.78496
vt 0.62625 0.71164
vt 0.63241 0.74527
vt 0.60993 0.77000
vt 0.54058 0.82242
vt 0.59420 0.80485
vt 0.27186 0.75770
vt 0.24908 0.72965
vt 0.28173 0.79224
vt 0.26623 0.68598
vt 0.57249 0.64894
vt 0.34145 0.62542
vt 0.26792 0.66525
vt 0.39280 0.61708
vt 0.23231 0.75306
vt 0.23663 0.78340
vt 0.24936 0.79335
vt 0.23374 0.68825
vt 0.20720 0.72737
vt 0.19282 0.76959
vt 0.19855 0.79814
vt 0.23072 0.80801
vt 0.18718 0.72610
vt 0.18616 0.68473
vt 0.16238 0.73931
vt 0.16701 0.78107
vt 0.17351 0.81008
vt 0.16315 0.70442
vt 0.17231 0.65863
vt 0.13950 0.77479
vt 0.14804 0.82147
vt 0.13532 0.71965
vt 0.15165 0.67427
vt 0.11846 0.76321
vt 0.44581 0.91576
vt 0.40512 0.93566
vt 0.45715 0.95048
vt 0.49660 0.93133
vt 0.40988 0.90036
vt 0.36581 0.92200
vt 0.46471 0.88491
vt 0.50946 0.87623
vt 0.53791 0.90677
vt 0.43757 0.85882
vt 0.40888 0.87903
vt 0.35910 0.87250
vt 0.55636 0.87092
vt 0.48324 0.84081
vt 0.58203 0.89538
vt 0.51625 0.94593
vt 0.57179 0.92189
vt 0.39479 0.82699
vt 0.34585 0.83712
vt 0.57417 0.84451
vt 0.33767 0.85977
vt 0.62537 0.86898
vt 0.61819 0.83943
vt 0.32800 0.82961
vt 0.33541 0.81019
vt 0.29140 0.84287
vt 0.30468 0.87808
vt 0.32549 0.91395
vt 0.63510 0.82420
vt 0.65615 0.84192
vt 0.63613 0.89666
vt 0.25685 0.85063
vt 0.24798 0.86461
vt 0.27736 0.89988
vt 0.21071 0.83690
vt 0.30856 0.92984
vt 0.37947 0.96201
vt 0.40772 0.97852
vt 0.63340 0.92211
vt 0.68038 0.85529
vt 0.68016 0.87670
vt 0.56109 0.96108
vt 0.48985 0.97126
vt 0.32306 0.96075
vt 0.61117 0.94411
vt 0.28843 0.93904
vt 0.45880 0.99047
vt 0.24601 0.91249
vt 0.21008 0.87343
vt 0.37289 0.98024
vt 0.52526 0.99242
vt 0.67158 0.92755
vt 0.57146 0.97421
vt 0.63944 0.94461
vt 0.69385 0.87697
vt 0.17534 0.83528
vt 0.19639 0.88366
vt 0.59947 0.98180
vt 0.63948 0.96581
vt 0.15981 0.86575
vt 0.68645 0.95032
vt 0.13909 0.84231
vt 0.03231 0.06818
vt 0.08216 0.06818
vt 0.05120 0.04394
vt 0.08462 0.04478
vt 0.03938 0.76672
vt 0.00769 0.78499
vt 0.02354 0.74318
vt 0.01766 0.80390
vt 0.04769 0.74091
vt 0.04316 0.79232
vt 0.04769 0.81615
vt 0.02357 0.84091
vt 0.94615 0.94697
vt 0.99231 0.94697
vt 0.98039 0.93182
vn 0.5315 0.3972 0.7481
vn 0.2715 0.7043 0.6559
vn 0.3815 0.3667 0.8485
vn 0.4254 0.6534 0.6262
vn 0.1333 0.6097 0.7813
vn 0.1866 0.2047 0.9609
vn 0.0673 0.4170 0.9064
vn 0.5601 0.1378 0.8169
vn 0.6354 0.4585 0.6213
vn 0.4874 0.7121 0.5054
vn 0.6204 0.5824 0.5252
vn 0.2968 0.8250 0.4810
vn 0.4139 0.8052 0.4247
vn 0.0875 0.8325 0.5470
vn 0.5032 0.7887 0.3533
vn 0.6181 0.6857 0.3843
vn 0.2780 0.8999 0.3359
vn 0.1002 0.9075 0.4078
vn 0.1605 0.9256 0.3428
vn 0.3198 0.9128 0.2539
vn 0.4769 0.8473 0.2338
vn 0.3872 0.8993 0.2033
vn 0.0714 0.9550 0.2880
vn -0.0573 0.8065 0.5885
vn -0.0869 0.9281 0.3620
vn -0.1451 0.8882 0.4359
vn -0.0393 0.9647 0.2604
vn -0.1951 0.8200 0.5382
vn -0.0966 0.5915 0.8005
vn 0.6853 0.6576 0.3130
vn 0.6274 0.7382 0.2479
vn 0.5051 0.8517 0.1397
vn 0.6479 0.7338 0.2045
vn -0.2953 0.7166 0.6319
vn -0.3223 0.6086 0.7251
vn -0.2942 0.7666 0.5708
vn -0.3354 0.3207 0.8858
vn -0.5588 0.5367 0.6322
vn -0.1563 0.2502 0.9555
vn -0.5105 0.2790 0.8134
vn -0.6643 0.1973 0.7209
vn 0.0490 -0.1132 0.9924
vn -0.2174 -0.0450 0.9751
vn -0.5020 -0.0680 0.8622
vn -0.3597 -0.3117 0.8795
vn -0.7484 0.1938 -0.6343
vn -0.5989 0.2026 -0.7748
vn -0.6211 -0.2353 -0.7476
vn -0.7377 -0.2584 -0.6237
vn -0.4949 0.0359 -0.8682
vn -0.8286 -0.2515 -0.5001
vn -0.8818 0.1041 -0.4600
vn -0.7774 0.3721 -0.5071
vn -0.6155 0.5000 -0.6092
vn -0.8391 0.4062 -0.3618
vn -0.9365 0.0458 -0.3477
vn -0.8065 -0.4444 -0.3900
vn -0.9413 -0.1620 -0.2961
vn -0.5776 -0.4856 -0.6562
vn -0.7463 -0.5019 -0.4372
vn -0.9134 0.3244 -0.2458
vn -0.9761 0.0235 -0.2161
vn -0.9398 0.3170 -0.1280
vn -0.9900 0.0386 -0.1359
vn -0.9493 -0.3063 -0.0708
vn -0.8474 -0.4955 -0.1908
vn -0.8302 -0.5065 -0.2330
vn -0.9932 -0.1059 0.0481
vn -0.9671 0.2536 -0.0189
vn -0.9360 0.3492 0.0449
vn -0.7796 0.5875 -0.2168
vn -0.8234 0.5582 -0.1023
vn -0.9812 -0.0791 0.1762
vn -0.7122 0.6354 -0.2984
vn -0.6506 0.6306 -0.4231
vn -0.9332 0.2756 0.2306
vn -0.7851 0.6189 -0.0243
vn -0.8581 -0.5066 0.0842
vn -0.9171 -0.3566 0.1780
vn -0.8447 -0.5334 -0.0439
vn -0.9402 -0.0320 0.3391
vn -0.9026 -0.3084 0.3003
vn -0.6706 -0.6900 -0.2725
vn -0.7002 -0.6741 -0.2352
vn -0.6763 -0.6589 -0.3293
vn -0.5899 -0.5929 -0.5481
vn -0.8280 0.5525 0.0959
vn -0.8977 0.2106 0.3871
vn -0.8422 0.4762 0.2529
vn -0.8440 -0.2703 0.4632
vn -0.8477 0.1356 0.5128
vn -0.7486 -0.6353 0.1896
vn -0.7912 -0.5475 0.2725
vn -0.7500 -0.5620 0.3490
vn -0.6216 -0.6750 -0.3975
vn -0.8123 0.0212 0.5829
vn -0.7777 -0.3355 0.5316
vn -0.6483 -0.6032 0.4646
vn -0.8079 0.3871 0.4443
vn -0.7552 0.5520 0.3534
vn -0.7004 -0.1422 0.6995
vn -0.7418 0.3637 0.5634
vn -0.6313 -0.4565 0.6270
vn -0.6643 0.1973 0.7209
vn 0.5947 0.7500 -0.2894
vn 0.5349 0.8135 -0.2284
vn 0.4681 0.8712 -0.1482
vn 0.8271 0.2332 0.5114
vn 0.7791 -0.1328 0.6126
vn 0.8322 -0.2116 0.5125
vn 0.8992 0.0084 0.4375
vn 0.7523 0.3486 0.5591
vn 0.7277 0.1610 0.6668
vn 0.8480 0.3452 0.4022
vn 0.9142 0.2113 0.3459
vn 0.6503 -0.2000 0.7329
vn 0.8448 -0.3338 0.4182
vn 0.8814 -0.3263 0.3417
vn 0.9260 -0.1312 0.3541
vn 0.5601 0.1378 0.8169
vn 0.7465 -0.4887 0.4516
vn 0.6572 -0.5179 0.5476
vn 0.5777 -0.5406 0.6116
vn 0.9613 -0.0990 0.2572
vn 0.8995 -0.3744 0.2254
vn 0.8817 -0.3904 0.2651
vn 0.9815 -0.0781 0.1746
vn 0.7255 -0.6020 0.3334
vn 0.7638 -0.5914 0.2584
vn 0.8774 -0.4530 0.1582
vn 0.4713 -0.3971 0.7876
vn 0.4013 -0.1433 0.9047
vn 0.5694 -0.6848 0.4548
vn 0.6042 -0.6928 0.3937
vn 0.5081 -0.6911 0.5141
vn 0.5713 -0.7548 0.3223
vn 0.3702 -0.6920 0.6197
vn 0.3199 -0.6143 0.7213
vn 0.3615 -0.7833 0.5057
vn 0.6987 -0.6953 0.1683
vn 0.5338 -0.8212 0.2015
vn 0.4206 -0.8280 0.3708
vn 0.5456 -0.8299 0.1164
vn 0.1698 -0.4122 0.8951
vn 0.2106 -0.7933 0.5713
vn 0.1832 -0.8511 0.4920
vn 0.1270 -0.7007 0.7020
vn -0.0644 -0.4719 0.8793
vn 0.0490 -0.1132 0.9924
vn 0.3815 0.3667 0.8485
vn 0.1866 0.2047 0.9609
vn 0.5315 0.3972 0.7481
vn 0.6354 0.4585 0.6213
vn -0.0400 -0.7231 0.6896
vn -0.2174 -0.0450 0.9751
vn -0.3597 -0.3117 0.8795
vn -0.2360 -0.5177 0.8224
vn -0.4156 -0.5932 0.6895
vn -0.5698 -0.3288 0.7532
vn -0.5020 -0.0680 0.8622
vn 0.9470 -0.1656 -0.2753
vn 0.9746 0.1574 -0.1594
vn 0.9416 -0.2690 -0.2025
vn 0.9916 -0.0722 -0.1071
vn 0.9295 0.3035 -0.2095
vn 0.9412 0.0617 -0.3321
vn 0.9210 0.3803 -0.0846
vn 0.9873 0.1582 -0.0122
vn 0.9898 -0.1427 -0.0018
vn 0.9858 0.1611 0.0476
vn 0.9566 -0.2844 0.0639
vn 0.9928 0.0559 0.1061
vn 0.9258 -0.3764 -0.0354
vn 0.8635 -0.4962 -0.0900
vn 0.8661 -0.3642 -0.3423
vn 0.8817 -0.0713 -0.4663
vn 0.8290 -0.2709 -0.4892
vn 0.8743 -0.4839 0.0383
vn 0.7728 -0.6022 -0.2001
vn 0.7941 -0.5942 -0.1278
vn 0.8774 -0.4530 0.1582
vn 0.9815 -0.0781 0.1746
vn 0.8763 -0.4641 0.1290
vn 0.8995 -0.3744 0.2254
vn 0.7560 -0.5292 -0.3851
vn 0.7285 -0.6843 -0.0311
vn 0.6989 -0.6888 -0.1926
vn 0.7247 -0.6869 0.0547
vn 0.6831 -0.7272 0.0674
vn 0.6149 -0.7367 -0.2814
vn 0.6987 -0.6953 0.1683
vn 0.7638 -0.5914 0.2584
vn 0.6397 -0.5795 -0.5049
vn 0.5993 -0.7001 -0.3883
vn 0.7221 -0.2656 -0.6387
vn 0.5080 -0.8571 -0.0855
vn 0.5652 -0.8249 -0.0022
vn 0.5098 -0.8382 -0.1935
vn 0.5886 -0.5009 -0.6346
vn 0.8115 0.0515 -0.5821
vn 0.5456 -0.8299 0.1164
vn 0.4346 -0.8487 -0.3013
vn 0.4208 -0.7558 -0.5018
vn 0.4358 -0.8023 -0.4080
vn 0.5827 -0.4064 -0.7038
vn 0.3697 -0.6699 -0.6438
vn 0.6477 0.0400 -0.7608
vn 0.4522 -0.3843 -0.8049
vn 0.8822 0.3090 -0.3552
vn 0.8102 0.2988 -0.5043
vn 0.7204 0.2826 -0.6333
vn 0.4370 0.0651 -0.8971
vn 0.2165 -0.6278 -0.7477
vn 0.3531 -0.2922 -0.8888
vn 0.5255 0.2448 -0.8148
vn 0.5785 0.4354 -0.6898
vn 0.6383 0.4241 -0.6424
vn 0.1486 -0.5448 -0.8253
vn 0.1251 -0.2490 -0.9604
vn 0.1789 0.0788 -0.9807
vn -0.1101 -0.5020 -0.8578
vn -0.0324 -0.6597 -0.7508
vn -0.1025 -0.1147 -0.9881
vn -0.2731 -0.1260 -0.9537
vn -0.3829 -0.3164 -0.8679
vn 0.3423 -0.9375 -0.0625
vn 0.2680 -0.9627 0.0378
vn 0.1747 -0.9812 -0.0823
vn 0.2175 -0.9756 0.0305
vn 0.3013 -0.9462 -0.1176
vn 0.1048 -0.9945 -0.0030
vn 0.2180 -0.9627 -0.1605
vn 0.4203 -0.9074 -0.0005
vn 0.2056 -0.9745 0.0897
vn 0.1142 -0.9918 0.0565
vn 0.0425 -0.9947 -0.0939
vn 0.0283 -0.9986 -0.0442
vn 0.0909 -0.9873 -0.1303
vn 0.1096 -0.9737 -0.2000
vn -0.0054 -0.9999 -0.0149
vn 0.1193 -0.9832 0.1379
vn 0.0995 -0.9906 0.0934
vn 0.0053 -0.9975 0.0701
vn 0.2292 -0.9589 0.1672
vn -0.0180 -0.9864 -0.1635
vn 0.0147 -0.9930 -0.1176
vn -0.0903 -0.9959 0.0003
vn -0.1075 -0.9865 -0.1235
vn -0.1217 -0.9885 -0.0897
vn 0.0497 -0.9676 -0.2477
vn -0.1124 -0.9763 -0.1848
vn -0.0387 -0.9915 0.1242
vn -0.0116 -0.9785 0.2058
vn 0.0928 -0.9751 0.2016
vn -0.1559 -0.9873 0.0316
vn -0.1190 -0.9848 0.1266
vn -0.1337 -0.9910 -0.0071
vn -0.2140 -0.9726 -0.0904
vn -0.2314 -0.9607 -0.1531
vn -0.0909 -0.9654 -0.2442
vn -0.2568 -0.9663 -0.0169
vn 0.1595 -0.9496 -0.2697
vn -0.1438 -0.9614 0.2346
vn -0.2418 -0.9679 0.0688
vn -0.1393 -0.9757 0.1690
vn -0.2303 -0.9600 0.1593
vn 0.1493 -0.9577 0.2461
vn 0.2729 -0.9288 0.2509
vn 0.1190 -0.9426 0.3121
vn -0.1214 -0.9382 0.3242
vn 0.0007 -0.9287 0.3707
vn 0.0889 -0.9296 0.3578
vn 0.3593 -0.9206 0.1531
vn 0.3845 -0.9168 0.1082
vn 0.4496 -0.8906 0.0688
vn 0.3243 -0.9150 0.2398
vn -0.2012 -0.9331 0.2981
vn -0.0277 -0.9309 -0.3642
vn 0.1147 -0.9070 -0.4052
vn -0.1971 -0.9323 -0.3031
vn 0.3924 -0.8947 0.2134
vn 0.2952 -0.8839 0.3627
vn 0.2048 -0.8976 0.3904
vn 0.0858 -0.8968 0.4341
vn 0.1832 -0.8511 0.4920
vn -0.0624 -0.8671 0.4942
vn -0.1111 -0.9033 0.4143
vn 0.0347 -0.8432 0.5365
vn 0.4206 -0.8280 0.3708
vn 0.4199 -0.8772 0.2326
vn 0.5338 -0.8212 0.2015
vn 0.2943 -0.8834 -0.3647
vn 0.2827 -0.9270 -0.2466
vn 0.3854 -0.9023 -0.1929
vn 0.4150 -0.8993 -0.1381
vn -0.0430 -0.8987 -0.4364
vn 0.2738 -0.8370 -0.4738
vn 0.1698 -0.8573 -0.4860
vn -0.1608 -0.8595 -0.4851
vn 0.0010 -0.8466 -0.5322
vn 0.3615 -0.7833 0.5057
vn 0.5713 -0.7548 0.3223
vn 0.2106 -0.7933 0.5713
vn 0.2031 -0.7604 -0.6169
vn 0.0777 -0.7124 -0.6974
vn 0.1270 -0.7007 0.7020
vn -0.0400 -0.7231 0.6896
vn -0.8581 -0.5066 0.0842
vn -0.7298 -0.6834 -0.0164
vn -0.7274 -0.6858 0.0247
vn -0.8447 -0.5334 -0.0439
vn -0.7486 -0.6353 0.1896
vn -0.6012 -0.7930 0.0984
vn -0.9171 -0.3566 0.1780
vn -0.5177 -0.8396 0.1647
vn -0.6008 -0.7560 0.2596
vn -0.7500 -0.5620 0.3490
vn -0.7912 -0.5475 0.2725
vn -0.5989 -0.7271 0.3357
vn -0.5746 -0.8178 -0.0318
vn -0.4742 -0.8787 0.0547
vn -0.4902 -0.8368 0.2439
vn -0.6529 -0.7469 -0.1261
vn -0.5517 -0.8307 -0.0742
vn -0.3824 -0.9165 0.1173
vn -0.4079 -0.9116 -0.0507
vn -0.4224 -0.9038 -0.0687
vn -0.3490 -0.9171 0.1925
vn -0.3606 -0.9304 0.0660
vn -0.3275 -0.9448 -0.0146
vn -0.4087 -0.8642 0.2936
vn -0.4483 -0.8058 0.3870
vn -0.3305 -0.9087 0.2551
vn -0.3051 -0.9330 0.1906
vn -0.2897 -0.9478 0.1332
vn -0.4041 -0.8954 -0.1867
vn -0.5994 -0.7733 -0.2066
vn -0.3665 -0.9185 -0.1486
vn -0.2832 -0.8586 0.4272
vn -0.4717 -0.8068 -0.3558
vn -0.2963 -0.9005 -0.3183
vn -0.6706 -0.6900 -0.2725
vn -0.1709 -0.8657 0.4706
vn -0.4855 -0.7086 0.5121
vn -0.3415 -0.7443 0.5740
vn -0.6483 -0.6032 0.4646
vn -0.6216 -0.6750 -0.3975
vn -0.6763 -0.6589 -0.3293
vn -0.3570 -0.8074 -0.4698
vn -0.7002 -0.6741 -0.2352
vn -0.8302 -0.5065 -0.2330
vn -0.2108 -0.7451 0.6328
vn -0.8474 -0.4955 -0.1908
vn -0.5899 -0.5929 -0.5481
vn -0.4274 -0.6547 -0.6234
vn -0.2119 -0.6958 -0.6862
vn -0.4156 -0.5932 0.6895
vn -0.5288 -0.6345 0.5637
vn -0.6313 -0.4565 0.6270
vn -0.2360 -0.5177 0.8224
vn -0.0644 -0.4719 0.8793
vn -0.5776 -0.4856 -0.6562
vn -0.4492 -0.4685 -0.7607
vn -0.5698 -0.3288 0.7532
vn -0.6211 -0.2353 -0.7476
vn -0.7004 -0.1422 0.6995
vn 0.9260 -0.1312 0.3541
vn 0.9142 0.2113 0.3459
vn 0.8992 0.0084 0.4375
vn 0.9243 0.2771 0.2624
vn 0.9613 -0.0990 0.2572
vn 0.9815 -0.0781 0.1746
vn 0.9460 0.2658 0.1854
vn 0.9928 0.0559 0.1061
vn 0.9152 0.3850 0.1192
vn 0.9015 0.4317 0.0307
vn 0.9858 0.1611 0.0476
vn 0.8695 0.4543 0.1939
vn 0.9873 0.1582 -0.0122
vn 0.7896 0.5145 0.3344
vn 0.8480 0.3452 0.4022
vn 0.8063 0.5259 0.2707
vn 0.7906 0.5555 0.2577
vn 0.8739 0.4859 -0.0105
vn 0.9210 0.3803 -0.0846
vn 0.7880 0.6105 0.0797
vn 0.7068 0.6884 0.1631
vn 0.7614 0.6478 -0.0239
vn 0.8200 0.5635 -0.1006
vn 0.6479 0.7338 0.2045
vn 0.6666 0.7336 0.1319
vn 0.6274 0.7382 0.2479
vn 0.6853 0.6576 0.3130
vn 0.7314 0.5374 0.4199
vn 0.6958 0.6214 0.3602
vn 0.8271 0.2332 0.5114
vn 0.7523 0.3486 0.5591
vn 0.6331 0.7732 0.0369
vn 0.6181 0.6857 0.3843
vn 0.6204 0.5824 0.5252
vn 0.6519 0.7535 -0.0851
vn 0.6354 0.4585 0.6213
vn 0.5051 0.8517 0.1397
vn 0.9746 0.1574 -0.1594
vn 0.9295 0.3035 -0.2095
vn 0.8343 0.5046 -0.2221
vn 0.7126 0.6759 -0.1882
vn 0.6189 0.7669 -0.1699
vn 0.5649 0.8247 0.0290
vn 0.8435 0.4737 -0.2531
vn 0.8032 0.5079 -0.3112
vn 0.6861 0.6875 -0.2380
vn 0.9412 0.0617 -0.3321
vn 0.8822 0.3090 -0.3552
vn 0.7361 0.5602 -0.3800
vn 0.6860 0.6526 -0.3218
vn 0.5947 0.7500 -0.2894
vn 0.8102 0.2988 -0.5043
vn 0.6431 0.6038 -0.4711
vn 0.5384 0.7699 -0.3425
vn 0.5564 0.7266 -0.4031
vn 0.5318 0.6645 -0.5251
vn 0.7204 0.2826 -0.6333
vn 0.6383 0.4241 -0.6424
vn 0.4373 0.6600 -0.6109
vn 0.5785 0.4354 -0.6898
vn 0.3083 0.9324 -0.1889
vn 0.3386 0.9092 -0.2422
vn 0.3034 0.9101 -0.2821
vn 0.2159 0.9340 -0.2846
vn 0.1182 0.9675 -0.2234
vn 0.1822 0.9667 -0.1796
vn 0.3275 0.9413 -0.0819
vn 0.2048 0.9749 -0.0875
vn 0.1209 0.9851 -0.1226
vn 0.0577 0.9784 -0.1985
vn 0.1753 0.9844 -0.0128
vn 0.1116 0.9921 -0.0569
vn 0.3303 0.9436 0.0231
vn 0.4582 0.8827 -0.1042
vn 0.4681 0.8712 -0.1482
vn 0.4265 0.9045 -0.0062
vn 0.4355 0.8627 -0.2571
vn 0.2917 0.9492 0.1181
vn 0.1820 0.9805 0.0739
vn 0.1360 0.9906 0.0127
vn 0.1480 0.9855 0.0836
vn 0.4609 0.8823 0.0955
vn -0.0622 0.9894 -0.1312
vn -0.0069 0.9967 -0.0814
vn 0.0415 0.9990 0.0158
vn 0.2239 0.9558 0.1904
vn -0.0034 0.9993 0.0380
vn -0.0464 0.9988 -0.0151
vn 0.0282 0.9936 0.1097
vn 0.1160 0.9723 0.2029
vn 0.0128 0.9857 0.1677
vn 0.0946 0.9734 0.2088
vn 0.3738 0.9135 0.1608
vn 0.3872 0.8993 0.2033
vn 0.3198 0.9128 0.2539
vn 0.1176 0.9600 0.2541
vn -0.0834 0.9949 0.0559
vn -0.0596 0.9732 -0.2223
vn 0.2780 0.8999 0.3359
vn 0.1605 0.9256 0.3428
vn 0.0714 0.9550 0.2880
vn -0.0986 0.9806 0.1697
vn -0.0393 0.9647 0.2604
vn 0.0194 0.9466 -0.3217
vn 0.1196 0.9101 -0.3968
vn -0.1004 0.9511 -0.2922
vn 0.2924 0.8804 -0.3733
vn 0.4769 0.8473 0.2338
vn 0.5349 0.8135 -0.2284
vn 0.3872 0.8369 -0.3868
vn 0.5606 0.8198 -0.1172
vn 0.0260 0.8963 -0.4426
vn -0.0960 0.9029 -0.4190
vn -0.1261 0.9175 -0.3773
vn 0.3022 0.8220 -0.4828
vn 0.1337 0.8150 -0.5638
vn -0.0679 0.7874 -0.6128
vn -0.1971 0.7940 -0.5750
vn -0.2009 0.8761 -0.4382
vn 0.1446 0.7233 -0.6752
vn 0.3699 0.5758 -0.7291
vn 0.0751 0.5538 -0.8292
vn -0.1534 0.6236 -0.7666
vn -0.2944 0.6305 -0.7182
vn 0.2759 0.4383 -0.8554
vn 0.5255 0.2448 -0.8148
vn -0.1505 0.2902 -0.9451
vn -0.3974 0.3049 -0.8655
vn 0.1789 0.0788 -0.9807
vn 0.4370 0.0651 -0.8971
vn -0.1025 -0.1147 -0.9881
vn -0.4565 0.8889 0.0373
vn -0.5704 0.8206 -0.0369
vn -0.6181 0.7829 0.0704
vn -0.5137 0.8462 0.1414
vn -0.4063 0.9131 -0.0344
vn -0.5299 0.8393 -0.1216
vn -0.3233 0.9441 0.0640
vn -0.2791 0.9502 0.1387
vn -0.4013 0.8927 0.2052
vn -0.2353 0.9719 0.0091
vn -0.3220 0.9459 -0.0404
vn -0.3250 0.9354 -0.1395
vn -0.2541 0.9423 0.2178
vn -0.1628 0.9830 0.0848
vn -0.3559 0.8875 0.2929
vn -0.5855 0.7880 0.1903
vn -0.4754 0.8292 0.2939
vn -0.1504 0.9861 -0.0704
vn -0.2131 0.9639 -0.1599
vn -0.1600 0.9579 0.2382
vn -0.2936 0.9397 -0.1754
vn -0.2508 0.8921 0.3759
vn -0.1399 0.9337 0.3295
vn -0.1997 0.9609 -0.1918
vn -0.1333 0.9749 -0.1784
vn -0.2689 0.9248 -0.2691
vn -0.3891 0.8893 -0.2403
vn -0.5263 0.8261 -0.2013
vn -0.0869 0.9281 0.3620
vn -0.1451 0.8882 0.4359
vn -0.3769 0.8131 0.4437
vn -0.3347 0.8696 -0.3629
vn -0.4062 0.8240 -0.3951
vn -0.5238 0.7907 -0.3169
vn -0.3515 0.7763 -0.5233
vn -0.6298 0.7378 -0.2428
vn -0.7201 0.6883 -0.0872
vn -0.7851 0.6189 -0.0243
vn -0.5046 0.7210 0.4750
vn -0.1951 0.8200 0.5382
vn -0.2942 0.7666 0.5708
vn -0.6782 0.6662 0.3103
vn -0.7215 0.6755 0.1522
vn -0.7796 0.5875 -0.2168
vn -0.6103 0.6613 0.4360
vn -0.7122 0.6354 -0.2984
vn -0.8280 0.5525 0.0959
vn -0.6506 0.6306 -0.4231
vn -0.5282 0.6521 -0.5439
vn -0.8234 0.5582 -0.1023
vn -0.8422 0.4762 0.2529
vn -0.5588 0.5367 0.6322
vn -0.7552 0.5520 0.3534
vn -0.6319 0.5612 0.5346
vn -0.2953 0.7166 0.6319
vn -0.4209 0.5667 -0.7083
vn -0.6155 0.5000 -0.6092
vn -0.8079 0.3871 0.4443
vn -0.7418 0.3637 0.5634
vn -0.5989 0.2026 -0.7748
vn -0.6643 0.1973 0.7209
vn -0.4949 0.0359 -0.8682
vn -0.5020 -0.0680 0.8622
vn -0.6643 0.1973 0.7209
vn -0.5698 -0.3288 0.7532
vn -0.7004 -0.1422 0.6995
vn -0.2731 -0.1260 -0.9537
vn -0.3974 0.3049 -0.8655
vn -0.1505 0.2902 -0.9451
vn -0.4949 0.0359 -0.8682
vn -0.1025 -0.1147 -0.9881
vn -0.3829 -0.3164 -0.8679
vn -0.4492 -0.4685 -0.7607
vn -0.6211 -0.2353 -0.7476
vn -0.1025 -0.1147 -0.9881
vn 0.1789 0.0788 -0.9807
vn 0.1251 -0.2490 -0.9604
f 64/64/64 65/65/65 68/68/68
f 69/69/69 64/64/64 68/68/68
f 63/63/63 64/64/64 69/69/69
f 70/70/70 69/69/69 68/68/68
f 68/68/68 73/73/73 70/70/70
f 65/65/65 78/78/78 68/68/68
f 68/68/68 78/78/78 73/73/73
f 78/78/78 79/79/79 73/73/73
f 62/62/62 65/65/65 64/64/64
f 63/63/63 62/62/62 64/64/64
f 73/73/73 76/76/76 70/70/70
f 69/69/69 70/70/70 63/63/63
f 87/87/87 70/70/70 76/76/76
f 72/72/72 63/63/63 70/70/70
f 66/66/66 80/80/80 65/65/65
f 65/65/65 80/80/80 78/78/78
f 73/73/73 79/79/79 82/82/82
f 62/62/62 66/66/66 65/65/65
f 62/62/62 58/58/58 66/66/66
f 61/61/61 58/58/58 62/62/62
f 76/76/76 73/73/73 81/81/81
f 63/63/63 61/61/61 62/62/62
f 61/61/61 63/63/63 72/72/72
f 70/70/70 77/77/77 72/72/72
f 70/70/70 87/87/87 77/77/77
f 311/311/311 309/309/309 308/308/308
f 308/308/308 312/312/312 314/314/314
f 79/79/79 92/92/92 82/82/82
f 93/93/93 82/82/82 92/92/92
f 81/81/81 73/73/73 82/82/82
f 61/61/61 56/56/56 58/58/58
f 81/81/81 88/88/88 76/76/76
f 76/76/76 89/89/89 87/87/87
f 61/61/61 72/72/72 71/71/71
f 353/353/353 323/323/323 311/311/311
f 308/308/308 309/309/309 310/310/310
f 308/308/308 310/310/310 312/312/312
f 58/58/58 67/67/67 66/66/66
f 61/61/61 55/55/55 56/56/56
f 534/534/534 541/541/541 547/547/547
f 311/311/311 323/323/323 320/320/320
f 311/311/311 320/320/320 309/309/309
f 58/58/58 57/57/57 67/67/67
f 56/56/56 57/57/57 58/58/58
f 88/88/88 89/89/89 76/76/76
f 71/71/71 55/55/55 61/61/61
f 548/548/548 540/540/540 544/544/544
f 544/544/544 500/500/500 535/535/535
f 540/540/540 500/500/500 544/544/544
f 534/534/534 547/547/547 535/535/535
f 309/309/309 320/320/320 310/310/310
f 310/310/310 313/313/313 312/312/312
f 351/351/351 337/337/337 353/353/353
f 353/353/353 337/337/337 323/323/323
f 351/351/351 350/350/350 337/337/337
f 57/57/57 83/83/83 67/67/67
f 93/93/93 94/94/94 82/82/82
f 82/82/82 94/94/94 90/90/90
f 82/82/82 90/90/90 81/81/81
f 52/52/52 57/57/57 56/56/56
f 91/91/91 88/88/88 81/81/81
f 56/56/56 55/55/55 52/52/52
f 88/88/88 100/100/100 89/89/89
f 541/541/541 533/533/533 543/543/543
f 548/548/548 539/539/539 540/540/540
f 499/499/499 535/535/535 500/500/500
f 499/499/499 534/534/534 535/535/535
f 83/83/83 84/84/84 67/67/67
f 51/51/51 60/60/60 57/57/57
f 51/51/51 57/57/57 52/52/52
f 99/99/99 100/100/100 88/88/88
f 71/71/71 74/74/74 55/55/55
f 548/548/548 550/550/550 539/539/539
f 525/525/525 533/533/533 541/541/541
f 503/503/503 525/525/525 541/541/541
f 503/503/503 541/541/541 534/534/534
f 503/503/503 534/534/534 499/499/499
f 320/320/320 323/323/323 324/324/324
f 315/315/315 312/312/312 313/313/313
f 317/317/317 312/312/312 316/316/316
f 312/312/312 317/317/317 318/318/318
f 60/60/60 85/85/85 57/57/57
f 91/91/91 81/81/81 90/90/90
f 91/91/91 99/99/99 88/88/88
f 55/55/55 53/53/53 52/52/52
f 55/55/55 74/74/74 75/75/75
f 539/539/539 513/513/513 540/540/540
f 321/321/321 310/310/310 320/320/320
f 321/321/321 313/313/313 310/310/310
f 316/316/316 312/312/312 315/315/315
f 85/85/85 83/83/83 57/57/57
f 94/94/94 97/97/97 90/90/90
f 91/91/91 90/90/90 96/96/96
f 75/75/75 53/53/53 55/55/55
f 500/500/500 540/540/540 513/513/513
f 324/324/324 323/323/323 327/327/327
f 320/320/320 324/324/324 327/327/327
f 313/313/313 321/321/321 315/315/315
f 316/316/316 319/319/319 317/317/317
f 317/317/317 319/319/319 346/346/346
f 98/98/98 97/97/97 94/94/94
f 51/51/51 49/49/49 60/60/60
f 96/96/96 90/90/90 97/97/97
f 52/52/52 46/46/46 51/51/51
f 52/52/52 53/53/53 46/46/46
f 542/542/542 550/550/550 555/555/555
f 500/500/500 501/501/501 498/498/498
f 498/498/498 499/499/499 500/500/500
f 337/337/337 336/336/336 323/323/323
f 350/350/350 342/342/342 337/337/337
f 60/60/60 95/95/95 85/85/85
f 348/348/348 347/347/347 342/342/342
f 46/46/46 49/49/49 51/51/51
f 91/91/91 102/102/102 99/99/99
f 542/542/542 555/555/555 556/556/556
f 542/542/542 539/539/539 550/550/550
f 543/543/543 531/531/531 545/545/545
f 531/531/531 543/543/543 533/533/533
f 514/514/514 513/513/513 539/539/539
f 327/327/327 323/323/323 336/336/336
f 322/322/322 316/316/316 315/315/315
f 342/342/342 340/340/340 337/337/337
f 347/347/347 340/340/340 342/342/342
f 60/60/60 86/86/86 95/95/95
f 49/49/49 86/86/86 60/60/60
f 97/97/97 101/101/101 96/96/96
f 91/91/91 96/96/96 102/102/102
f 54/54/54 46/46/46 53/53/53
f 54/54/54 53/53/53 75/75/75
f 525/525/525 531/531/531 533/533/533
f 502/502/502 503/503/503 499/499/499
f 498/498/498 502/502/502 499/499/499
f 327/327/327 326/326/326 320/320/320
f 315/315/315 321/321/321 325/325/325
f 319/319/319 316/316/316 322/322/322
f 98/98/98 103/103/103 97/97/97
f 104/104/104 102/102/102 96/96/96
f 556/556/556 551/551/551 542/542/542
f 513/513/513 506/506/506 501/501/501
f 506/506/506 513/513/513 514/514/514
f 501/501/501 500/500/500 513/513/513
f 326/326/326 321/321/321 320/320/320
f 337/337/337 340/340/340 336/336/336
f 332/332/332 346/346/346 319/319/319
f 101/101/101 97/97/97 103/103/103
f 96/96/96 101/101/101 104/104/104
f 554/554/554 545/545/545 546/546/546
f 551/551/551 536/536/536 542/542/542
f 539/539/539 542/542/542 514/514/514
f 508/508/508 503/503/503 502/502/502
f 321/321/321 329/329/329 325/325/325
f 338/338/338 327/327/327 336/336/336
f 331/331/331 332/332/332 319/319/319
f 354/354/354 340/340/340 347/347/347
f 344/344/344 346/346/346 332/332/332
f 549/549/549 556/556/556 558/558/558
f 549/549/549 551/551/551 556/556/556
f 530/530/530 545/545/545 531/531/531
f 503/503/503 509/509/509 525/525/525
f 508/508/508 509/509/509 503/503/503
f 498/498/498 501/501/501 504/504/504
f 326/326/326 330/330/330 321/321/321
f 330/330/330 329/329/329 321/321/321
f 328/328/328 315/315/315 325/325/325
f 315/315/315 328/328/328 322/322/322
f 328/328/328 333/333/333 322/322/322
f 322/322/322 331/331/331 319/319/319
f 344/344/344 359/359/359 346/346/346
f 49/49/49 59/59/59 86/86/86
f 46/46/46 48/48/48 49/49/49
f 546/546/546 545/545/545 530/530/530
f 524/524/524 530/530/530 531/531/531
f 524/524/524 531/531/531 525/525/525
f 501/501/501 505/505/505 504/504/504
f 505/505/505 501/501/501 506/506/506
f 354/354/354 349/349/349 340/340/340
f 358/358/358 359/359/359 344/344/344
f 362/362/362 355/355/355 354/354/354
f 49/49/49 48/48/48 59/59/59
f 46/46/46 47/47/47 48/48/48
f 54/54/54 47/47/47 46/46/46
f 536/536/536 551/551/551 549/549/549
f 514/514/514 542/542/542 536/536/536
f 509/509/509 524/524/524 525/525/525
f 327/327/327 330/330/330 326/326/326
f 330/330/330 264/264/264 329/329/329
f 336/336/336 340/340/340 341/341/341
f 322/322/322 333/333/333 331/331/331
f 563/563/563 562/562/562 561/561/561
f 528/528/528 514/514/514 536/536/536
f 523/523/523 530/530/530 524/524/524
f 512/512/512 506/506/506 514/514/514
f 507/507/507 508/508/508 502/502/502
f 507/507/507 502/502/502 504/504/504
f 504/504/504 502/502/502 498/498/498
f 261/261/261 330/330/330 327/327/327
f 329/329/329 335/335/335 325/325/325
f 334/334/334 328/328/328 325/325/325
f 336/336/336 259/259/259 338/338/338
f 359/359/359 364/364/364 366/366/366
f 528/528/528 512/512/512 514/514/514
f 523/523/523 529/529/529 530/530/530
f 510/510/510 506/506/506 512/512/512
f 509/509/509 518/518/518 524/524/524
f 510/510/510 505/505/505 506/506/506
f 338/338/338 258/258/258 327/327/327
f 264/264/264 335/335/335 329/329/329
f 364/364/364 359/359/359 357/357/357
f 47/47/47 50/50/50 48/48/48
f 560/560/560 561/561/561 562/562/562
f 38/38/38 41/41/41 40/40/40
f 553/553/553 554/554/554 546/546/546
f 530/530/530 532/532/532 546/546/546
f 261/261/261 327/327/327 258/258/258
f 330/330/330 261/261/261 264/264/264
f 266/266/266 325/325/325 335/335/335
f 266/266/266 334/334/334 325/325/325
f 340/340/340 349/349/349 341/341/341
f 332/332/332 339/339/339 344/344/344
f 357/357/357 358/358/358 344/344/344
f 358/358/358 357/357/357 359/359/359
f 363/363/363 355/355/355 362/362/362
f 365/365/365 363/363/363 362/362/362
f 570/570/570 571/571/571 567/567/567
f 40/40/40 41/41/41 44/44/44
f 554/554/554 553/553/553 557/557/557
f 536/536/536 549/549/549 528/528/528
f 512/512/512 528/528/528 519/519/519
f 518/518/518 523/523/523 524/524/524
f 259/259/259 258/258/258 338/338/338
f 280/280/280 336/336/336 341/341/341
f 336/336/336 280/280/280 259/259/259
f 333/333/333 332/332/332 331/331/331
f 345/345/345 357/357/357 344/344/344
f 354/354/354 355/355/355 349/349/349
f 532/532/532 553/553/553 546/546/546
f 528/528/528 549/549/549 538/538/538
f 508/508/508 515/515/515 509/509/509
f 333/333/333 328/328/328 334/334/334
f 339/339/339 332/332/332 333/333/333
f 160/160/160 159/159/159 156/156/156
f 567/567/567 569/569/569 570/570/570
f 553/553/553 494/494/494 557/557/557
f 35/35/35 38/38/38 40/40/40
f 509/509/509 516/516/516 518/518/518
f 335/335/335 264/264/264 266/266/266
f 266/266/266 333/333/333 334/334/334
f 158/158/158 156/156/156 159/159/159
f 557/557/557 494/494/494 559/559/559
f 552/552/552 538/538/538 549/549/549
f 34/34/34 38/38/38 35/35/35
f 530/530/530 485/485/485 532/532/532
f 516/516/516 523/523/523 518/518/518
f 516/516/516 509/509/509 515/515/515
f 507/507/507 504/504/504 511/511/511
f 505/505/505 511/511/511 504/504/504
f 264/264/264 261/261/261 255/255/255
f 258/258/258 255/255/255 261/261/261
f 341/341/341 349/349/349 280/280/280
f 339/339/339 345/345/345 344/344/344
f 352/352/352 357/357/357 345/345/345
f 529/529/529 485/485/485 530/530/530
f 523/523/523 485/485/485 529/529/529
f 510/510/510 512/512/512 519/519/519
f 505/505/505 510/510/510 517/517/517
f 468/468/468 511/511/511 505/505/505
f 507/507/507 515/515/515 508/508/508
f 258/258/258 257/257/257 255/255/255
f 266/266/266 263/263/263 333/333/333
f 280/280/280 251/251/251 259/259/259
f 333/333/333 277/277/277 339/339/339
f 355/355/355 363/363/363 356/356/356
f 490/490/490 553/553/553 532/532/532
f 521/521/521 523/523/523 516/516/516
f 255/255/255 256/256/256 264/264/264
f 259/259/259 248/248/248 249/249/249
f 248/248/248 259/259/259 251/251/251
f 263/263/263 277/277/277 333/333/333
f 349/349/349 355/355/355 299/299/299
f 356/356/356 363/363/363 225/225/225
f 157/157/157 156/156/156 158/158/158
f 37/37/37 40/40/40 44/44/44
f 37/37/37 35/35/35 40/40/40
f 485/485/485 484/484/484 532/532/532
f 519/519/519 527/527/527 520/520/520
f 521/521/521 472/472/472 523/523/523
f 505/505/505 517/517/517 468/468/468
f 521/521/521 516/516/516 515/515/515
f 259/259/259 247/247/247 258/258/258
f 249/249/249 247/247/247 259/259/259
f 265/265/265 263/263/263 266/266/266
f 251/251/251 280/280/280 260/260/260
f 349/349/349 299/299/299 280/280/280
f 299/299/299 355/355/355 356/356/356
f 567/567/567 564/564/564 569/569/569
f 564/564/564 567/567/567 565/565/565
f 494/494/494 553/553/553 490/490/490
f 484/484/484 490/490/490 532/532/532
f 519/519/519 528/528/528 538/538/538
f 485/485/485 523/523/523 472/472/472
f 520/520/520 510/510/510 519/519/519
f 463/463/463 507/507/507 511/511/511
f 264/264/264 265/265/265 266/266/266
f 256/256/256 265/265/265 264/264/264
f 339/339/339 352/352/352 345/345/345
f 357/357/357 352/352/352 360/360/360
f 356/356/356 225/225/225 221/221/221
f 43/43/43 44/44/44 45/45/45
f 43/43/43 37/37/37 44/44/44
f 490/490/490 493/493/493 494/494/494
f 537/537/537 519/519/519 538/538/538
f 449/449/449 522/522/522 521/521/521
f 507/507/507 463/463/463 515/515/515
f 247/247/247 257/257/257 258/258/258
f 277/277/277 270/270/270 339/339/339
f 343/343/343 352/352/352 339/339/339
f 564/564/564 565/565/565 566/566/566
f 34/34/34 28/28/28 36/36/36
f 519/519/519 537/537/537 527/527/527
f 472/472/472 480/480/480 485/485/485
f 526/526/526 510/510/510 520/520/520
f 515/515/515 449/449/449 521/521/521
f 255/255/255 252/252/252 256/256/256
f 263/263/263 270/270/270 277/277/277
f 339/339/339 270/270/270 287/287/287
f 343/343/343 339/339/339 287/287/287
f 224/224/224 221/221/221 225/225/225
f 39/39/39 37/37/37 43/43/43
f 493/493/493 490/490/490 489/489/489
f 480/480/480 484/484/484 485/485/485
f 526/526/526 517/517/517 510/510/510
f 522/522/522 472/472/472 521/521/521
f 257/257/257 247/247/247 255/255/255
f 256/256/256 263/263/263 265/265/265
f 260/260/260 280/280/280 278/278/278
f 280/280/280 299/299/299 278/278/278
f 37/37/37 29/29/29 35/35/35
f 484/484/484 489/489/489 490/490/490
f 34/34/34 24/24/24 28/28/28
f 34/34/34 35/35/35 24/24/24
f 479/479/479 484/484/484 480/480/480
f 249/249/249 240/240/240 247/247/247
f 247/247/247 252/252/252 255/255/255
f 343/343/343 287/287/287 352/352/352
f 352/352/352 287/287/287 286/286/286
f 360/360/360 352/352/352 361/361/361
f 148/148/148 156/156/156 157/157/157
f 29/29/29 37/37/37 39/39/39
f 483/483/483 489/489/489 484/484/484
f 479/479/479 483/483/483 484/484/484
f 464/464/464 472/472/472 522/522/522
f 469/469/469 468/468/468 517/517/517
f 468/468/468 463/463/463 511/511/511
f 454/454/454 515/515/515 463/463/463
f 249/249/249 248/248/248 240/240/240
f 245/245/245 251/251/251 260/260/260
f 278/278/278 299/299/299 296/296/296
f 356/356/356 221/221/221 222/222/222
f 223/223/223 221/221/221 224/224/224
f 148/148/148 155/155/155 156/156/156
f 568/568/568 564/564/564 566/566/566
f 29/29/29 24/24/24 35/35/35
f 24/24/24 26/26/26 28/28/28
f 527/527/527 526/526/526 520/520/520
f 449/449/449 464/464/464 522/522/522
f 515/515/515 450/450/450 449/449/449
f 453/453/453 454/454/454 463/463/463
f 256/256/256 253/253/253 263/263/263
f 356/356/356 300/300/300 299/299/299
f 307/307/307 352/352/352 286/286/286
f 361/361/361 352/352/352 307/307/307
f 149/149/149 155/155/155 148/148/148
f 472/472/472 479/479/479 480/480/480
f 469/469/469 517/517/517 526/526/526
f 270/270/270 286/286/286 287/287/287
f 288/288/288 286/286/286 271/271/271
f 299/299/299 300/300/300 296/296/296
f 300/300/300 356/356/356 222/222/222
f 42/42/42 39/39/39 43/43/43
f 478/478/478 483/483/483 479/479/479
f 450/450/450 515/515/515 454/454/454
f 247/247/247 243/243/243 252/252/252
f 251/251/251 236/236/236 248/248/248
f 253/253/253 270/270/270 263/263/263
f 286/286/286 270/270/270 271/271/271
f 288/288/288 307/307/307 286/286/286
f 39/39/39 7/7/7 29/29/29
f 488/488/488 493/493/493 489/489/489
f 483/483/483 488/488/488 489/489/489
f 24/24/24 25/25/25 26/26/26
f 478/478/478 479/479/479 472/472/472
f 449/449/449 436/436/436 464/464/464
f 468/468/468 469/469/469 467/467/467
f 468/468/468 457/457/457 463/463/463
f 248/248/248 237/237/237 240/240/240
f 236/236/236 237/237/237 248/248/248
f 252/252/252 253/253/253 256/256/256
f 253/253/253 271/271/271 270/270/270
f 470/470/470 478/478/478 472/472/472
f 436/436/436 472/472/472 464/464/464
f 455/455/455 453/453/453 463/463/463
f 463/463/463 457/457/457 455/455/455
f 247/247/247 240/240/240 243/243/243
f 251/251/251 246/246/246 236/236/236
f 245/245/245 246/246/246 251/251/251
f 250/250/250 245/245/245 260/260/260
f 278/278/278 250/250/250 260/260/260
f 300/300/300 222/222/222 305/305/305
f 218/218/218 305/305/305 222/222/222
f 222/222/222 221/221/221 218/218/218
f 221/221/221 223/223/223 219/219/219
f 7/7/7 39/39/39 42/42/42
f 24/24/24 29/29/29 5/5/5
f 482/482/482 483/483/483 478/478/478
f 25/25/25 14/14/14 18/18/18
f 18/18/18 27/27/27 25/25/25
f 18/18/18 23/23/23 27/27/27
f 468/468/468 467/467/467 462/462/462
f 468/468/468 462/462/462 457/457/457
f 450/450/450 454/454/454 453/453/453
f 279/279/279 278/278/278 296/296/296
f 279/279/279 296/296/296 300/300/300
f 154/154/154 147/147/147 148/148/148
f 144/144/144 149/149/149 148/148/148
f 572/572/572 573/573/573 574/574/574
f 493/493/493 495/495/495 497/497/497
f 6/6/6 7/7/7 42/42/42
f 488/488/488 495/495/495 493/493/493
f 7/7/7 5/5/5 29/29/29
f 486/486/486 488/488/488 483/483/483
f 25/25/25 24/24/24 14/14/14
f 471/471/471 478/478/478 470/470/470
f 436/436/436 470/470/470 472/472/472
f 237/237/237 231/231/231 240/240/240
f 246/246/246 245/245/245 236/236/236
f 253/253/253 269/269/269 271/271/271
f 305/305/305 298/298/298 300/300/300
f 306/306/306 307/307/307 288/288/288
f 482/482/482 486/486/486 483/483/483
f 438/438/438 449/449/449 450/450/450
f 438/438/438 436/436/436 449/449/449
f 456/456/456 455/455/455 457/457/457
f 451/451/451 450/450/450 453/453/453
f 243/243/243 241/241/241 252/252/252
f 252/252/252 241/241/241 253/253/253
f 245/245/245 250/250/250 239/239/239
f 254/254/254 269/269/269 253/253/253
f 250/250/250 278/278/278 262/262/262
f 284/284/284 271/271/271 272/272/272
f 271/271/271 284/284/284 288/288/288
f 148/148/148 147/147/147 144/144/144
f 218/218/218 221/221/221 219/219/219
f 14/14/14 24/24/24 5/5/5
f 447/447/447 453/453/453 455/455/455
f 242/242/242 241/241/241 243/243/243
f 239/239/239 238/238/238 245/245/245
f 241/241/241 254/254/254 253/253/253
f 279/279/279 262/262/262 278/278/278
f 269/269/269 272/272/272 271/271/271
f 305/305/305 218/218/218 213/213/213
f 7/7/7 6/6/6 5/5/5
f 431/431/431 471/471/471 470/470/470
f 436/436/436 431/431/431 470/470/470
f 467/467/467 466/466/466 462/462/462
f 236/236/236 231/231/231 237/237/237
f 240/240/240 242/242/242 243/243/243
f 245/245/245 238/238/238 236/236/236
f 300/300/300 298/298/298 279/279/279
f 288/288/288 284/284/284 285/285/285
f 298/298/298 305/305/305 304/304/304
f 488/488/488 491/491/491 495/495/495
f 457/457/457 458/458/458 456/456/456
f 435/435/435 431/431/431 436/436/436
f 438/438/438 450/450/450 451/451/451
f 447/447/447 451/451/451 453/453/453
f 240/240/240 235/235/235 242/242/242
f 269/269/269 284/284/284 272/272/272
f 285/285/285 303/303/303 288/288/288
f 303/303/303 306/306/306 288/288/288
f 144/144/144 132/132/132 149/149/149
f 486/486/486 491/491/491 488/488/488
f 14/14/14 5/5/5 2/2/2
f 482/482/482 478/478/478 471/471/471
f 462/462/462 458/458/458 457/457/457
f 435/435/435 436/436/436 438/438/438
f 240/240/240 231/231/231 235/235/235
f 238/238/238 228/228/228 236/236/236
f 250/250/250 262/262/262 239/239/239
f 269/269/269 285/285/285 284/284/284
f 213/213/213 304/304/304 305/305/305
f 147/147/147 138/138/138 144/144/144
f 214/214/214 218/218/218 219/219/219
f 220/220/220 214/214/214 219/219/219
f 151/151/151 149/149/149 132/132/132
f 431/431/431 430/430/430 471/471/471
f 435/435/435 432/432/432 431/431/431
f 447/447/447 455/455/455 456/456/456
f 447/447/447 438/438/438 451/451/451
f 231/231/231 236/236/236 228/228/228
f 254/254/254 267/267/267 269/269/269
f 269/269/269 267/267/267 283/283/283
f 214/214/214 213/213/213 218/218/218
f 3/3/3 5/5/5 6/6/6
f 14/14/14 12/12/12 18/18/18
f 19/19/19 23/23/23 18/18/18
f 456/456/456 458/458/458 462/462/462
f 446/446/446 438/438/438 447/447/447
f 145/145/145 138/138/138 147/147/147
f 486/486/486 487/487/487 491/491/491
f 5/5/5 3/3/3 2/2/2
f 12/12/12 14/14/14 2/2/2
f 481/481/481 482/482/482 471/471/471
f 437/437/437 435/435/435 438/438/438
f 235/235/235 241/241/241 242/242/242
f 239/239/239 228/228/228 238/238/238
f 262/262/262 232/232/232 239/239/239
f 267/267/267 254/254/254 241/241/241
f 269/269/269 283/283/283 285/285/285
f 298/298/298 304/304/304 297/297/297
f 213/213/213 206/206/206 304/304/304
f 138/138/138 131/131/131 144/144/144
f 150/150/150 151/151/151 132/132/132
f 434/434/434 435/435/435 437/437/437
f 446/446/446 447/447/447 445/445/445
f 229/229/229 234/234/234 231/231/231
f 231/231/231 234/234/234 235/235/235
f 283/283/283 267/267/267 282/282/282
f 279/279/279 292/292/292 262/262/262
f 297/297/297 279/279/279 298/298/298
f 146/146/146 137/137/137 145/145/145
f 206/206/206 213/213/213 208/208/208
f 131/131/131 132/132/132 144/144/144
f 212/212/212 214/214/214 220/220/220
f 495/495/495 491/491/491 496/496/496
f 487/487/487 486/486/486 425/425/425
f 482/482/482 425/425/425 486/486/486
f 434/434/434 432/432/432 435/435/435
f 438/438/438 446/446/446 445/445/445
f 228/228/228 229/229/229 231/231/231
f 234/234/234 241/241/241 235/235/235
f 239/239/239 232/232/232 228/228/228
f 241/241/241 268/268/268 267/267/267
f 297/297/297 292/292/292 279/279/279
f 283/283/283 301/301/301 285/285/285
f 146/146/146 139/139/139 137/137/137
f 213/213/213 214/214/214 208/208/208
f 482/482/482 481/481/481 425/425/425
f 2/2/2 4/4/4 12/12/12
f 12/12/12 19/19/19 18/18/18
f 473/473/473 481/481/481 471/471/471
f 430/430/430 473/473/473 471/471/471
f 465/465/465 462/462/462 466/466/466
f 452/452/452 447/447/447 456/456/456
f 437/437/437 438/438/438 445/445/445
f 244/244/244 268/268/268 241/241/241
f 267/267/267 268/268/268 282/282/282
f 304/304/304 206/206/206 297/297/297
f 145/145/145 137/137/137 138/138/138
f 492/492/492 496/496/496 491/491/491
f 1/1/1 2/2/2 3/3/3
f 17/17/17 19/19/19 12/12/12
f 429/429/429 473/473/473 430/430/430
f 452/452/452 456/456/456 462/462/462
f 427/427/427 430/430/430 431/431/431
f 241/241/241 234/234/234 244/244/244
f 262/262/262 292/292/292 293/293/293
f 131/131/131 138/138/138 137/137/137
f 120/120/120 150/150/150 132/132/132
f 487/487/487 492/492/492 491/491/491
f 2/2/2 1/1/1 4/4/4
f 462/462/462 465/465/465 461/461/461
f 461/461/461 452/452/452 462/462/462
f 432/432/432 427/427/427 431/431/431
f 444/444/444 445/445/445 447/447/447
f 228/228/228 227/227/227 229/229/229
f 262/262/262 293/293/293 230/230/230
f 262/262/262 230/230/230 232/232/232
f 234/234/234 273/273/273 244/244/244
f 282/282/282 301/301/301 283/283/283
f 292/292/292 297/297/297 203/203/203
f 297/297/297 206/206/206 203/203/203
f 473/473/473 476/476/476 481/481/481
f 452/452/452 444/444/444 447/447/447
f 433/433/433 432/432/432 434/434/434
f 228/228/228 232/232/232 230/230/230
f 230/230/230 226/226/226 228/228/228
f 226/226/226 227/227/227 228/228/228
f 276/276/276 268/268/268 244/244/244
f 208/208/208 214/214/214 212/212/212
f 1/1/1 3/3/3 8/8/8
f 10/10/10 12/12/12 4/4/4
f 17/17/17 12/12/12 13/13/13
f 429/429/429 476/476/476 473/473/473
f 433/433/433 427/427/427 432/432/432
f 439/439/439 434/434/434 437/437/437
f 234/234/234 229/229/229 227/227/227
f 227/227/227 273/273/273 234/234/234
f 293/293/293 294/294/294 230/230/230
f 292/292/292 203/203/203 204/204/204
f 206/206/206 199/199/199 203/203/203
f 208/208/208 205/205/205 206/206/206
f 131/131/131 116/116/116 132/132/132
f 212/212/212 207/207/207 208/208/208
f 207/207/207 212/212/212 215/215/215
f 426/426/426 492/492/492 487/487/487
f 425/425/425 426/426/426 487/487/487
f 430/430/430 427/427/427 429/429/429
f 444/444/444 439/439/439 437/437/437
f 444/444/444 437/437/437 445/445/445
f 273/273/273 276/276/276 244/244/244
f 292/292/292 202/202/202 293/293/293
f 289/289/289 301/301/301 282/282/282
f 139/139/139 123/123/123 137/137/137
f 123/123/123 131/131/131 137/137/137
f 205/205/205 199/199/199 206/206/206
f 120/120/120 132/132/132 116/116/116
f 422/422/422 425/425/425 481/481/481
f 433/433/433 434/434/434 439/439/439
f 273/273/273 281/281/281 276/276/276
f 276/276/276 289/289/289 268/268/268
f 282/282/282 268/268/268 289/289/289
f 292/292/292 204/204/204 202/202/202
f 207/207/207 205/205/205 208/208/208
f 9/9/9 10/10/10 4/4/4
f 422/422/422 481/481/481 476/476/476
f 13/13/13 12/12/12 10/10/10
f 20/20/20 17/17/17 13/13/13
f 428/428/428 443/443/443 429/429/429
f 452/452/452 461/461/461 460/460/460
f 444/444/444 452/452/452 460/460/460
f 230/230/230 233/233/233 226/226/226
f 135/135/135 139/139/139 142/142/142
f 139/139/139 135/135/135 123/123/123
f 123/123/123 116/116/116 131/131/131
f 207/207/207 195/195/195 205/205/205
f 215/215/215 216/216/216 207/207/207
f 425/425/425 424/424/424 426/426/426
f 9/9/9 4/4/4 1/1/1
f 422/422/422 424/424/424 425/425/425
f 427/427/427 428/428/428 429/429/429
f 459/459/459 444/444/444 460/460/460
f 459/459/459 439/439/439 444/444/444
f 226/226/226 233/233/233 227/227/227
f 227/227/227 274/274/274 273/273/273
f 276/276/276 281/281/281 289/289/289
f 11/11/11 10/10/10 9/9/9
f 443/443/443 428/428/428 427/427/427
f 440/440/440 441/441/441 427/427/427
f 440/440/440 427/427/427 433/433/433
f 442/442/442 433/433/433 439/439/439
f 230/230/230 294/294/294 295/295/295
f 290/290/290 281/281/281 273/273/273
f 293/293/293 202/202/202 294/294/294
f 142/142/142 133/133/133 135/135/135
f 193/193/193 194/194/194 203/203/203
f 113/113/113 152/152/152 120/120/120
f 113/113/113 120/120/120 116/116/116
f 211/211/211 207/207/207 216/216/216
f 113/113/113 153/153/153 152/152/152
f 421/421/421 422/422/422 476/476/476
f 15/15/15 13/13/13 10/10/10
f 476/476/476 429/429/429 443/443/443
f 20/20/20 13/13/13 15/15/15
f 22/22/22 20/20/20 21/21/21
f 21/21/21 20/20/20 15/15/15
f 230/230/230 295/295/295 196/196/196
f 196/196/196 233/233/233 230/230/230
f 227/227/227 275/275/275 274/274/274
f 203/203/203 194/194/194 204/204/204
f 133/133/133 123/123/123 135/135/135
f 199/199/199 193/193/193 203/203/203
f 205/205/205 195/195/195 199/199/199
f 217/217/217 211/211/211 216/216/216
f 421/421/421 419/419/419 422/422/422
f 421/421/421 476/476/476 420/420/420
f 476/476/476 443/443/443 420/420/420
f 459/459/459 460/460/460 474/474/474
f 448/448/448 442/442/442 439/439/439
f 275/275/275 227/227/227 233/233/233
f 289/289/289 281/281/281 290/290/290
f 289/289/289 290/290/290 302/302/302
f 204/204/204 194/194/194 202/202/202
f 142/142/142 136/136/136 134/134/134
f 134/134/134 133/133/133 142/142/142
f 133/133/133 122/122/122 123/123/123
f 122/122/122 109/109/109 123/123/123
f 116/116/116 123/123/123 109/109/109
f 443/443/443 417/417/417 420/420/420
f 427/427/427 441/441/441 443/443/443
f 403/403/403 439/439/439 459/459/459
f 448/448/448 439/439/439 403/403/403
f 274/274/274 275/275/275 273/273/273
f 273/273/273 291/291/291 290/290/290
f 294/294/294 202/202/202 198/198/198
f 109/109/109 113/113/113 116/116/116
f 195/195/195 207/207/207 211/211/211
f 422/422/422 423/423/423 424/424/424
f 419/419/419 423/423/423 422/422/422
f 15/15/15 10/10/10 11/11/11
f 442/442/442 440/440/440 433/433/433
f 201/201/201 291/291/291 273/273/273
f 198/198/198 295/295/295 294/294/294
f 199/199/199 195/195/195 193/193/193
f 200/200/200 195/195/195 211/211/211
f 397/397/397 400/400/400 402/402/402
f 16/16/16 15/15/15 11/11/11
f 21/21/21 15/15/15 16/16/16
f 197/197/197 275/275/275 233/233/233
f 201/201/201 273/273/273 275/275/275
f 295/295/295 198/198/198 196/196/196
f 202/202/202 190/190/190 198/198/198
f 190/190/190 202/202/202 194/194/194
f 291/291/291 302/302/302 290/290/290
f 121/121/121 133/133/133 134/134/134
f 121/121/121 122/122/122 133/133/133
f 112/112/112 113/113/113 109/109/109
f 112/112/112 153/153/153 113/113/113
f 419/419/419 418/418/418 423/423/423
f 399/399/399 400/400/400 397/397/397
f 419/419/419 421/421/421 420/420/420
f 441/441/441 475/475/475 443/443/443
f 459/459/459 474/474/474 403/403/403
f 477/477/477 441/441/441 440/440/440
f 197/197/197 233/233/233 196/196/196
f 136/136/136 121/121/121 134/134/134
f 185/185/185 194/194/194 193/193/193
f 121/121/121 109/109/109 122/122/122
f 211/211/211 210/210/210 200/200/200
f 394/394/394 399/399/399 397/397/397
f 420/420/420 415/415/415 419/419/419
f 21/21/21 16/16/16 30/30/30
f 475/475/475 417/417/417 443/443/443
f 197/197/197 201/201/201 275/275/275
f 190/190/190 187/187/187 198/198/198
f 195/195/195 177/177/177 193/193/193
f 177/177/177 185/185/185 193/193/193
f 110/110/110 109/109/109 121/121/121
f 177/177/177 195/195/195 200/200/200
f 396/396/396 394/394/394 397/397/397
f 418/418/418 419/419/419 415/415/415
f 416/416/416 415/415/415 420/420/420
f 393/393/393 399/399/399 395/395/395
f 395/395/395 399/399/399 394/394/394
f 416/416/416 420/420/420 417/417/417
f 30/30/30 31/31/31 21/21/21
f 105/105/105 106/106/106 107/107/107
f 441/441/441 477/477/477 408/408/408
f 409/409/409 440/440/440 442/442/442
f 409/409/409 442/442/442 448/448/448
f 187/187/187 196/196/196 198/198/198
f 197/197/197 189/189/189 201/201/201
f 140/140/140 141/141/141 143/143/143
f 141/141/141 140/140/140 136/136/136
f 185/185/185 190/190/190 194/194/194
f 176/176/176 177/177/177 200/200/200
f 108/108/108 109/109/109 110/110/110
f 108/108/108 112/112/112 109/109/109
f 31/31/31 32/32/32 21/21/21
f 408/408/408 417/417/417 441/441/441
f 33/33/33 32/32/32 31/31/31
f 391/391/391 448/448/448 403/403/403
f 387/387/387 391/391/391 403/403/403
f 401/401/401 440/440/440 409/409/409
f 140/140/140 129/129/129 136/136/136
f 128/128/128 136/136/136 129/129/129
f 136/136/136 128/128/128 121/121/121
f 117/117/117 110/110/110 121/121/121
f 200/200/200 210/210/210 176/176/176
f 393/393/393 395/395/395 394/394/394
f 392/392/392 393/393/393 380/380/380
f 417/417/417 408/408/408 407/407/407
f 401/401/401 477/477/477 440/440/440
f 391/391/391 409/409/409 448/448/448
f 197/197/197 196/196/196 186/186/186
f 196/196/196 187/187/187 186/186/186
f 185/185/185 187/187/187 190/190/190
f 121/121/121 128/128/128 118/118/118
f 175/175/175 185/185/185 177/177/177
f 176/176/176 175/175/175 177/177/177
f 108/108/108 110/110/110 111/111/111
f 111/111/111 114/114/114 108/108/108
f 381/381/381 394/394/394 396/396/396
f 380/380/380 393/393/393 381/381/381
f 381/381/381 393/393/393 394/394/394
f 383/383/383 392/392/392 380/380/380
f 412/412/412 417/417/417 407/407/407
f 408/408/408 477/477/477 401/401/401
f 408/408/408 401/401/401 407/407/407
f 387/387/387 403/403/403 390/390/390
f 401/401/401 409/409/409 398/398/398
f 398/398/398 409/409/409 391/391/391
f 186/186/186 189/189/189 197/197/197
f 191/191/191 201/201/201 189/189/189
f 129/129/129 118/118/118 128/128/128
f 117/117/117 121/121/121 118/118/118
f 111/111/111 117/117/117 118/118/118
f 111/111/111 110/110/110 117/117/117
f 210/210/210 209/209/209 176/176/176
f 415/415/415 414/414/414 418/418/418
f 411/411/411 414/414/414 415/415/415
f 415/415/415 416/416/416 411/411/411
f 417/417/417 411/411/411 416/416/416
f 411/411/411 417/417/417 412/412/412
f 411/411/411 412/412/412 407/407/407
f 390/390/390 392/392/392 383/383/383
f 388/388/388 401/401/401 398/398/398
f 188/188/188 189/189/189 186/186/186
f 187/187/187 180/180/180 186/186/186
f 181/181/181 192/192/192 191/191/191
f 185/185/185 175/175/175 187/187/187
f 176/176/176 166/166/166 175/175/175
f 119/119/119 111/111/111 118/118/118
f 209/209/209 166/166/166 176/176/176
f 115/115/115 114/114/114 111/111/111
f 380/380/380 381/381/381 368/368/368
f 380/380/380 382/382/382 383/383/383
f 410/410/410 411/411/411 407/407/407
f 387/387/387 390/390/390 383/383/383
f 386/386/386 398/398/398 391/391/391
f 180/180/180 187/187/187 179/179/179
f 179/179/179 187/187/187 175/175/175
f 125/125/125 129/129/129 130/130/130
f 129/129/129 126/126/126 118/118/118
f 161/161/161 175/175/175 166/166/166
f 367/367/367 368/368/368 369/369/369
f 414/414/414 411/411/411 410/410/410
f 370/370/370 382/382/382 380/380/380
f 370/370/370 380/380/380 368/368/368
f 383/383/383 382/382/382 370/370/370
f 406/406/406 410/410/410 407/407/407
f 378/378/378 387/387/387 383/383/383
f 407/407/407 401/401/401 406/406/406
f 406/406/406 401/401/401 389/389/389
f 388/388/388 389/389/389 401/401/401
f 388/388/388 398/398/398 386/386/386
f 178/178/178 186/186/186 174/174/174
f 174/174/174 186/186/186 180/180/180
f 186/186/186 178/178/178 188/188/188
f 188/188/188 178/178/178 189/189/189
f 189/189/189 183/183/183 191/191/191
f 183/183/183 181/181/181 191/191/191
f 179/179/179 174/174/174 180/180/180
f 179/179/179 163/163/163 174/174/174
f 126/126/126 129/129/129 125/125/125
f 163/163/163 179/179/179 175/175/175
f 125/125/125 118/118/118 126/126/126
f 124/124/124 119/119/119 118/118/118
f 370/370/370 368/368/368 367/367/367
f 410/410/410 413/413/413 414/414/414
f 413/413/413 410/410/410 406/406/406
f 378/378/378 383/383/383 370/370/370
f 378/378/378 386/386/386 387/387/387
f 386/386/386 391/391/391 387/387/387
f 388/388/388 386/386/386 376/376/376
f 183/183/183 189/189/189 178/178/178
f 161/161/161 163/163/163 175/175/175
f 125/125/125 124/124/124 118/118/118
f 371/371/371 370/370/370 367/367/367
f 161/161/161 166/166/166 165/165/165
f 405/405/405 413/413/413 406/406/406
f 405/405/405 406/406/406 389/389/389
f 375/375/375 386/386/386 378/378/378
f 375/375/375 378/378/378 373/373/373
f 385/385/385 389/389/389 388/388/388
f 376/376/376 384/384/384 388/388/388
f 178/178/178 174/174/174 173/173/173
f 178/178/178 173/173/173 171/171/171
f 171/171/171 183/183/183 178/178/178
f 171/171/171 181/181/181 183/183/183
f 163/163/163 164/164/164 174/174/174
f 173/173/173 174/174/174 164/164/164
f 182/182/182 184/184/184 181/181/181
f 127/127/127 124/124/124 125/125/125
f 161/161/161 162/162/162 163/163/163
f 372/372/372 370/370/370 371/371/371
f 165/165/165 162/162/162 161/161/161
f 372/372/372 373/373/373 370/370/370
f 373/373/373 378/378/378 370/370/370
f 389/389/389 404/404/404 405/405/405
f 385/385/385 404/404/404 389/389/389
f 376/376/376 386/386/386 375/375/375
f 388/388/388 384/384/384 385/385/385
f 171/171/171 173/173/173 169/169/169
f 173/173/173 164/164/164 169/169/169
f 172/172/172 182/182/182 181/181/181
f 171/171/171 172/172/172 181/181/181
f 170/170/170 171/171/171 169/169/169
f 171/171/171 170/170/170 172/172/172
f 162/162/162 164/164/164 163/163/163
f 374/374/374 373/373/373 372/372/372
f 164/164/164 162/162/162 167/167/167
f 164/164/164 167/167/167 168/168/168
f 377/377/377 376/376/376 374/374/374
f 374/374/374 375/375/375 373/373/373
f 379/379/379 384/384/384 376/376/376
f 379/379/379 376/376/376 377/377/377
f 374/374/374 376/376/376 375/375/375
f 385/385/385 384/384/384 379/379/379
f 169/169/169 164/164/164 168/168/168
f 169/169/169 168/168/168 170/170/170
