# TreasureTurtle / Eye1  (local frame of part 'Eye1', bbox-centred; -Z = front)
v 0.00000 0.00000 0.20000
v 0.00000 0.00000 0.20000
v 0.00000 0.00000 0.20000
v 0.00000 0.00000 0.20000
v 0.00000 0.00000 0.20000
v 0.00000 0.00000 0.20000
v 0.00000 0.00000 0.20000
v 0.00000 0.00000 0.20000
v 0.00000 0.00000 0.20000
v 0.00000 0.00000 0.20000
v 0.00000 0.00000 0.20000
v 0.00000 0.00000 0.20000
v 0.00000 0.00000 0.20000
v 0.00000 0.00000 0.20000
v 0.00000 0.00000 0.20000
v 0.00000 0.00000 0.20000
v 0.00000 0.00000 0.20000
v 0.00000 0.00000 0.20000
v 0.00000 0.00000 0.20000
v 0.00000 0.00000 0.20000
v 0.00000 0.00000 0.20000
v 0.00000 0.00000 0.20000
v 0.00000 0.00000 0.20000
v 0.00000 0.00000 0.20000
v 0.00000 0.00000 0.20000
v -0.04877 0.00000 0.19616
v -0.04711 -0.01262 0.19616
v -0.04224 -0.02439 0.19616
v -0.03449 -0.03449 0.19616
v -0.02439 -0.04224 0.19616
v -0.01262 -0.04711 0.19616
v -0.00000 -0.04877 0.19616
v 0.01262 -0.04711 0.19616
v 0.02439 -0.04224 0.19616
v 0.03449 -0.03449 0.19616
v 0.04224 -0.02439 0.19616
v 0.04711 -0.01262 0.19616
v 0.04877 -0.00000 0.19616
v 0.04711 0.01262 0.19616
v 0.04224 0.02439 0.19616
v 0.03449 0.03449 0.19616
v 0.02439 0.04224 0.19616
v 0.01262 0.04711 0.19616
v 0.00000 0.04877 0.19616
v -0.01262 0.04711 0.19616
v -0.02439 0.04224 0.19616
v -0.03449 0.03449 0.19616
v -0.04224 0.02439 0.19616
v -0.04711 0.01262 0.19616
v -0.04877 0.00000 0.19616
v -0.09567 0.00000 0.18478
v -0.09241 -0.02476 0.18478
v -0.08285 -0.04784 0.18478
v -0.06765 -0.06765 0.18478
v -0.04784 -0.08285 0.18478
v -0.02476 -0.09241 0.18478
v -0.00000 -0.09567 0.18478
v 0.02476 -0.09241 0.18478
v 0.04784 -0.08285 0.18478
v 0.06765 -0.06765 0.18478
v 0.08285 -0.04784 0.18478
v 0.09241 -0.02476 0.18478
v 0.09567 -0.00000 0.18478
v 0.09241 0.02476 0.18478
v 0.08285 0.04784 0.18478
v 0.06765 0.06765 0.18478
v 0.04784 0.08285 0.18478
v 0.02476 0.09241 0.18478
v 0.00000 0.09567 0.18478
v -0.02476 0.09241 0.18478
v -0.04784 0.08285 0.18478
v -0.06765 0.06765 0.18478
v -0.08285 0.04784 0.18478
v -0.09241 0.02476 0.18478
v -0.09567 0.00000 0.18478
v -0.13889 0.00000 0.16629
v -0.13416 -0.03595 0.16629
v -0.12028 -0.06945 0.16629
v -0.09821 -0.09821 0.16629
v -0.06945 -0.12028 0.16629
v -0.03595 -0.13416 0.16629
v -0.00000 -0.13889 0.16629
v 0.03595 -0.13416 0.16629
v 0.06945 -0.12028 0.16629
v 0.09821 -0.09821 0.16629
v 0.12028 -0.06945 0.16629
v 0.13416 -0.03595 0.16629
v 0.13889 -0.00000 0.16629
v 0.13416 0.03595 0.16629
v 0.12028 0.06945 0.16629
v 0.09821 0.09821 0.16629
v 0.06945 0.12028 0.16629
v 0.03595 0.13416 0.16629
v 0.00000 0.13889 0.16629
v -0.03595 0.13416 0.16629
v -0.06945 0.12028 0.16629
v -0.09821 0.09821 0.16629
v -0.12028 0.06945 0.16629
v -0.13416 0.03595 0.16629
v -0.13889 0.00000 0.16629
v -0.17678 0.00000 0.14142
v -0.17075 -0.04575 0.14142
v -0.15309 -0.08839 0.14142
v -0.12500 -0.12500 0.14142
v -0.08839 -0.15309 0.14142
v -0.04575 -0.17075 0.14142
v -0.00000 -0.17678 0.14142
v 0.04575 -0.17075 0.14142
v 0.08839 -0.15309 0.14142
v 0.12500 -0.12500 0.14142
v 0.15309 -0.08839 0.14142
v 0.17075 -0.04575 0.14142
v 0.17678 -0.00000 0.14142
v 0.17075 0.04575 0.14142
v 0.15309 0.08839 0.14142
v 0.12500 0.12500 0.14142
v 0.08839 0.15309 0.14142
v 0.04575 0.17075 0.14142
v 0.00000 0.17678 0.14142
v -0.04575 0.17075 0.14142
v -0.08839 0.15309 0.14142
v -0.12500 0.12500 0.14142
v -0.15309 0.08839 0.14142
v -0.17075 0.04575 0.14142
v -0.17678 0.00000 0.14142
v -0.20787 0.00000 0.11111
v -0.20078 -0.05380 0.11111
v -0.18002 -0.10393 0.11111
v -0.14698 -0.14698 0.11111
v -0.10393 -0.18002 0.11111
v -0.05380 -0.20078 0.11111
v -0.00000 -0.20787 0.11111
v 0.05380 -0.20078 0.11111
v 0.10393 -0.18002 0.11111
v 0.14698 -0.14698 0.11111
v 0.18002 -0.10393 0.11111
v 0.20078 -0.05380 0.11111
v 0.20787 -0.00000 0.11111
v 0.20078 0.05380 0.11111
v 0.18002 0.10393 0.11111
v 0.14698 0.14698 0.11111
v 0.10393 0.18002 0.11111
v 0.05380 0.20078 0.11111
v 0.00000 0.20787 0.11111
v -0.05380 0.20078 0.11111
v -0.10393 0.18002 0.11111
v -0.14698 0.14698 0.11111
v -0.18002 0.10393 0.11111
v -0.20078 0.05380 0.11111
v -0.20787 0.00000 0.11111
v -0.23097 0.00000 0.07654
v -0.22310 -0.05978 0.07654
v -0.20003 -0.11548 0.07654
v -0.16332 -0.16332 0.07654
v -0.11548 -0.20003 0.07654
v -0.05978 -0.22310 0.07654
v -0.00000 -0.23097 0.07654
v 0.05978 -0.22310 0.07654
v 0.11548 -0.20003 0.07654
v 0.16332 -0.16332 0.07654
v 0.20003 -0.11548 0.07654
v 0.22310 -0.05978 0.07654
v 0.23097 -0.00000 0.07654
v 0.22310 0.05978 0.07654
v 0.20003 0.11548 0.07654
v 0.16332 0.16332 0.07654
v 0.11548 0.20003 0.07654
v 0.05978 0.22310 0.07654
v 0.00000 0.23097 0.07654
v -0.05978 0.22310 0.07654
v -0.11548 0.20003 0.07654
v -0.16332 0.16332 0.07654
v -0.20003 0.11548 0.07654
v -0.22310 0.05978 0.07654
v -0.23097 0.00000 0.07654
v -0.24520 0.00000 0.03902
v -0.23684 -0.06346 0.03902
v -0.21235 -0.12260 0.03902
v -0.17338 -0.17338 0.03902
v -0.12260 -0.21235 0.03902
v -0.06346 -0.23684 0.03902
v -0.00000 -0.24520 0.03902
v 0.06346 -0.23684 0.03902
v 0.12260 -0.21235 0.03902
v 0.17338 -0.17338 0.03902
v 0.21235 -0.12260 0.03902
v 0.23684 -0.06346 0.03902
v 0.24520 -0.00000 0.03902
v 0.23684 0.06346 0.03902
v 0.21235 0.12260 0.03902
v 0.17338 0.17338 0.03902
v 0.12260 0.21235 0.03902
v 0.06346 0.23684 0.03902
v 0.00000 0.24520 0.03902
v -0.06346 0.23684 0.03902
v -0.12260 0.21235 0.03902
v -0.17338 0.17338 0.03902
v -0.21235 0.12260 0.03902
v -0.23684 0.06346 0.03902
v -0.24520 0.00000 0.03902
v -0.25000 0.00000 0.00000
v -0.24148 -0.06470 0.00000
v -0.21651 -0.12500 0.00000
v -0.17678 -0.17678 0.00000
v -0.12500 -0.21651 0.00000
v -0.06470 -0.24148 0.00000
v -0.00000 -0.25000 0.00000
v 0.06470 -0.24148 0.00000
v 0.12500 -0.21651 0.00000
v 0.17678 -0.17678 0.00000
v 0.21651 -0.12500 0.00000
v 0.24148 -0.06470 0.00000
v 0.25000 -0.00000 0.00000
v 0.24148 0.06470 0.00000
v 0.21651 0.12500 0.00000
v 0.17678 0.17678 0.00000
v 0.12500 0.21651 0.00000
v 0.06470 0.24148 0.00000
v 0.00000 0.25000 0.00000
v -0.06470 0.24148 0.00000
v -0.12500 0.21651 0.00000
v -0.17678 0.17678 0.00000
v -0.21651 0.12500 0.00000
v -0.24148 0.06470 0.00000
v -0.25000 0.00000 0.00000
v -0.24520 0.00000 -0.03902
v -0.23684 -0.06346 -0.03902
v -0.21235 -0.12260 -0.03902
v -0.17338 -0.17338 -0.03902
v -0.12260 -0.21235 -0.03902
v -0.06346 -0.23684 -0.03902
v -0.00000 -0.24520 -0.03902
v 0.06346 -0.23684 -0.03902
v 0.12260 -0.21235 -0.03902
v 0.17338 -0.17338 -0.03902
v 0.21235 -0.12260 -0.03902
v 0.23684 -0.06346 -0.03902
v 0.24520 -0.00000 -0.03902
v 0.23684 0.06346 -0.03902
v 0.21235 0.12260 -0.03902
v 0.17338 0.17338 -0.03902
v 0.12260 0.21235 -0.03902
v 0.06346 0.23684 -0.03902
v 0.00000 0.24520 -0.03902
v -0.06346 0.23684 -0.03902
v -0.12260 0.21235 -0.03902
v -0.17338 0.17338 -0.03902
v -0.21235 0.12260 -0.03902
v -0.23684 0.06346 -0.03902
v -0.24520 0.00000 -0.03902
v -0.23097 0.00000 -0.07654
v -0.22310 -0.05978 -0.07654
v -0.20003 -0.11548 -0.07654
v -0.16332 -0.16332 -0.07654
v -0.11548 -0.20003 -0.07654
v -0.05978 -0.22310 -0.07654
v -0.00000 -0.23097 -0.07654
v 0.05978 -0.22310 -0.07654
v 0.11548 -0.20003 -0.07654
v 0.16332 -0.16332 -0.07654
v 0.20003 -0.11548 -0.07654
v 0.22310 -0.05978 -0.07654
v 0.23097 -0.00000 -0.07654
v 0.22310 0.05978 -0.07654
v 0.20003 0.11548 -0.07654
v 0.16332 0.16332 -0.07654
v 0.11548 0.20003 -0.07654
v 0.05978 0.22310 -0.07654
v 0.00000 0.23097 -0.07654
v -0.05978 0.22310 -0.07654
v -0.11548 0.20003 -0.07654
v -0.16332 0.16332 -0.07654
v -0.20003 0.11548 -0.07654
v -0.22310 0.05978 -0.07654
v -0.23097 0.00000 -0.07654
v -0.20787 0.00000 -0.11111
v -0.20078 -0.05380 -0.11111
v -0.18002 -0.10393 -0.11111
v -0.14698 -0.14698 -0.11111
v -0.10393 -0.18002 -0.11111
v -0.05380 -0.20078 -0.11111
v -0.00000 -0.20787 -0.11111
v 0.05380 -0.20078 -0.11111
v 0.10393 -0.18002 -0.11111
v 0.14698 -0.14698 -0.11111
v 0.18002 -0.10393 -0.11111
v 0.20078 -0.05380 -0.11111
v 0.20787 -0.00000 -0.11111
v 0.20078 0.05380 -0.11111
v 0.18002 0.10393 -0.11111
v 0.14698 0.14698 -0.11111
v 0.10393 0.18002 -0.11111
v 0.05380 0.20078 -0.11111
v 0.00000 0.20787 -0.11111
v -0.05380 0.20078 -0.11111
v -0.10393 0.18002 -0.11111
v -0.14698 0.14698 -0.11111
v -0.18002 0.10393 -0.11111
v -0.20078 0.05380 -0.11111
v -0.20787 0.00000 -0.11111
v -0.17678 0.00000 -0.14142
v -0.17075 -0.04575 -0.14142
v -0.15309 -0.08839 -0.14142
v -0.12500 -0.12500 -0.14142
v -0.08839 -0.15309 -0.14142
v -0.04575 -0.17075 -0.14142
v -0.00000 -0.17678 -0.14142
v 0.04575 -0.17075 -0.14142
v 0.08839 -0.15309 -0.14142
v 0.12500 -0.12500 -0.14142
v 0.15309 -0.08839 -0.14142
v 0.17075 -0.04575 -0.14142
v 0.17678 -0.00000 -0.14142
v 0.17075 0.04575 -0.14142
v 0.15309 0.08839 -0.14142
v 0.12500 0.12500 -0.14142
v 0.08839 0.15309 -0.14142
v 0.04575 0.17075 -0.14142
v 0.00000 0.17678 -0.14142
v -0.04575 0.17075 -0.14142
v -0.08839 0.15309 -0.14142
v -0.12500 0.12500 -0.14142
v -0.15309 0.08839 -0.14142
v -0.17075 0.04575 -0.14142
v -0.17678 0.00000 -0.14142
v -0.13889 0.00000 -0.16629
v -0.13416 -0.03595 -0.16629
v -0.12028 -0.06945 -0.16629
v -0.09821 -0.09821 -0.16629
v -0.06945 -0.12028 -0.16629
v -0.03595 -0.13416 -0.16629
v -0.00000 -0.13889 -0.16629
v 0.03595 -0.13416 -0.16629
v 0.06945 -0.12028 -0.16629
v 0.09821 -0.09821 -0.16629
v 0.12028 -0.06945 -0.16629
v 0.13416 -0.03595 -0.16629
v 0.13889 -0.00000 -0.16629
v 0.13416 0.03595 -0.16629
v 0.12028 0.06945 -0.16629
v 0.09821 0.09821 -0.16629
v 0.06945 0.12028 -0.16629
v 0.03595 0.13416 -0.16629
v 0.00000 0.13889 -0.16629
v -0.03595 0.13416 -0.16629
v -0.06945 0.12028 -0.16629
v -0.09821 0.09821 -0.16629
v -0.12028 0.06945 -0.16629
v -0.13416 0.03595 -0.16629
v -0.13889 0.00000 -0.16629
v -0.09567 0.00000 -0.18478
v -0.09241 -0.02476 -0.18478
v -0.08285 -0.04784 -0.18478
v -0.06765 -0.06765 -0.18478
v -0.04784 -0.08285 -0.18478
v -0.02476 -0.09241 -0.18478
v -0.00000 -0.09567 -0.18478
v 0.02476 -0.09241 -0.18478
v 0.04784 -0.08285 -0.18478
v 0.06765 -0.06765 -0.18478
v 0.08285 -0.04784 -0.18478
v 0.09241 -0.02476 -0.18478
v 0.09567 -0.00000 -0.18478
v 0.09241 0.02476 -0.18478
v 0.08285 0.04784 -0.18478
v 0.06765 0.06765 -0.18478
v 0.04784 0.08285 -0.18478
v 0.02476 0.09241 -0.18478
v 0.00000 0.09567 -0.18478
v -0.02476 0.09241 -0.18478
v -0.04784 0.08285 -0.18478
v -0.06765 0.06765 -0.18478
v -0.08285 0.04784 -0.18478
v -0.09241 0.02476 -0.18478
v -0.09567 0.00000 -0.18478
v -0.04877 0.00000 -0.19616
v -0.04711 -0.01262 -0.19616
v -0.04224 -0.02439 -0.19616
v -0.03449 -0.03449 -0.19616
v -0.02439 -0.04224 -0.19616
v -0.01262 -0.04711 -0.19616
v -0.00000 -0.04877 -0.19616
v 0.01262 -0.04711 -0.19616
v 0.02439 -0.04224 -0.19616
v 0.03449 -0.03449 -0.19616
v 0.04224 -0.02439 -0.19616
v 0.04711 -0.01262 -0.19616
v 0.04877 -0.00000 -0.19616
v 0.04711 0.01262 -0.19616
v 0.04224 0.02439 -0.19616
v 0.03449 0.03449 -0.19616
v 0.02439 0.04224 -0.19616
v 0.01262 0.04711 -0.19616
v 0.00000 0.04877 -0.19616
v -0.01262 0.04711 -0.19616
v -0.02439 0.04224 -0.19616
v -0.03449 0.03449 -0.19616
v -0.04224 0.02439 -0.19616
v -0.04711 0.01262 -0.19616
v -0.04877 0.00000 -0.19616
v -0.00000 0.00000 -0.20000
v -0.00000 -0.00000 -0.20000
v -0.00000 -0.00000 -0.20000
v -0.00000 -0.00000 -0.20000
v -0.00000 -0.00000 -0.20000
v -0.00000 -0.00000 -0.20000
v -0.00000 -0.00000 -0.20000
v 0.00000 -0.00000 -0.20000
v 0.00000 -0.00000 -0.20000
v 0.00000 -0.00000 -0.20000
v 0.00000 -0.00000 -0.20000
v 0.00000 -0.00000 -0.20000
v 0.00000 -0.00000 -0.20000
v 0.00000 0.00000 -0.20000
v 0.00000 0.00000 -0.20000
v 0.00000 0.00000 -0.20000
v 0.00000 0.00000 -0.20000
v 0.00000 0.00000 -0.20000
v 0.00000 0.00000 -0.20000
v -0.00000 0.00000 -0.20000
v -0.00000 0.00000 -0.20000
v -0.00000 0.00000 -0.20000
v -0.00000 0.00000 -0.20000
v -0.00000 0.00000 -0.20000
v -0.00000 0.00000 -0.20000
vt 0.00000 1.00000
vt 0.04167 1.00000
vt 0.08333 1.00000
vt 0.12500 1.00000
vt 0.16667 1.00000
vt 0.20833 1.00000
vt 0.25000 1.00000
vt 0.29167 1.00000
vt 0.33333 1.00000
vt 0.37500 1.00000
vt 0.41667 1.00000
vt 0.45833 1.00000
vt 0.50000 1.00000
vt 0.54167 1.00000
vt 0.58333 1.00000
vt 0.62500 1.00000
vt 0.66667 1.00000
vt 0.70833 1.00000
vt 0.75000 1.00000
vt 0.79167 1.00000
vt 0.83333 1.00000
vt 0.87500 1.00000
vt 0.91667 1.00000
vt 0.95833 1.00000
vt 1.00000 1.00000
vt 0.00000 0.93750
vt 0.04167 0.93750
vt 0.08333 0.93750
vt 0.12500 0.93750
vt 0.16667 0.93750
vt 0.20833 0.93750
vt 0.25000 0.93750
vt 0.29167 0.93750
vt 0.33333 0.93750
vt 0.37500 0.93750
vt 0.41667 0.93750
vt 0.45833 0.93750
vt 0.50000 0.93750
vt 0.54167 0.93750
vt 0.58333 0.93750
vt 0.62500 0.93750
vt 0.66667 0.93750
vt 0.70833 0.93750
vt 0.75000 0.93750
vt 0.79167 0.93750
vt 0.83333 0.93750
vt 0.87500 0.93750
vt 0.91667 0.93750
vt 0.95833 0.93750
vt 1.00000 0.93750
vt 0.00000 0.87500
vt 0.04167 0.87500
vt 0.08333 0.87500
vt 0.12500 0.87500
vt 0.16667 0.87500
vt 0.20833 0.87500
vt 0.25000 0.87500
vt 0.29167 0.87500
vt 0.33333 0.87500
vt 0.37500 0.87500
vt 0.41667 0.87500
vt 0.45833 0.87500
vt 0.50000 0.87500
vt 0.54167 0.87500
vt 0.58333 0.87500
vt 0.62500 0.87500
vt 0.66667 0.87500
vt 0.70833 0.87500
vt 0.75000 0.87500
vt 0.79167 0.87500
vt 0.83333 0.87500
vt 0.87500 0.87500
vt 0.91667 0.87500
vt 0.95833 0.87500
vt 1.00000 0.87500
vt 0.00000 0.81250
vt 0.04167 0.81250
vt 0.08333 0.81250
vt 0.12500 0.81250
vt 0.16667 0.81250
vt 0.20833 0.81250
vt 0.25000 0.81250
vt 0.29167 0.81250
vt 0.33333 0.81250
vt 0.37500 0.81250
vt 0.41667 0.81250
vt 0.45833 0.81250
vt 0.50000 0.81250
vt 0.54167 0.81250
vt 0.58333 0.81250
vt 0.62500 0.81250
vt 0.66667 0.81250
vt 0.70833 0.81250
vt 0.75000 0.81250
vt 0.79167 0.81250
vt 0.83333 0.81250
vt 0.87500 0.81250
vt 0.91667 0.81250
vt 0.95833 0.81250
vt 1.00000 0.81250
vt 0.00000 0.75000
vt 0.04167 0.75000
vt 0.08333 0.75000
vt 0.12500 0.75000
vt 0.16667 0.75000
vt 0.20833 0.75000
vt 0.25000 0.75000
vt 0.29167 0.75000
vt 0.33333 0.75000
vt 0.37500 0.75000
vt 0.41667 0.75000
vt 0.45833 0.75000
vt 0.50000 0.75000
vt 0.54167 0.75000
vt 0.58333 0.75000
vt 0.62500 0.75000
vt 0.66667 0.75000
vt 0.70833 0.75000
vt 0.75000 0.75000
vt 0.79167 0.75000
vt 0.83333 0.75000
vt 0.87500 0.75000
vt 0.91667 0.75000
vt 0.95833 0.75000
vt 1.00000 0.75000
vt 0.00000 0.68750
vt 0.04167 0.68750
vt 0.08333 0.68750
vt 0.12500 0.68750
vt 0.16667 0.68750
vt 0.20833 0.68750
vt 0.25000 0.68750
vt 0.29167 0.68750
vt 0.33333 0.68750
vt 0.37500 0.68750
vt 0.41667 0.68750
vt 0.45833 0.68750
vt 0.50000 0.68750
vt 0.54167 0.68750
vt 0.58333 0.68750
vt 0.62500 0.68750
vt 0.66667 0.68750
vt 0.70833 0.68750
vt 0.75000 0.68750
vt 0.79167 0.68750
vt 0.83333 0.68750
vt 0.87500 0.68750
vt 0.91667 0.68750
vt 0.95833 0.68750
vt 1.00000 0.68750
vt 0.00000 0.62500
vt 0.04167 0.62500
vt 0.08333 0.62500
vt 0.12500 0.62500
vt 0.16667 0.62500
vt 0.20833 0.62500
vt 0.25000 0.62500
vt 0.29167 0.62500
vt 0.33333 0.62500
vt 0.37500 0.62500
vt 0.41667 0.62500
vt 0.45833 0.62500
vt 0.50000 0.62500
vt 0.54167 0.62500
vt 0.58333 0.62500
vt 0.62500 0.62500
vt 0.66667 0.62500
vt 0.70833 0.62500
vt 0.75000 0.62500
vt 0.79167 0.62500
vt 0.83333 0.62500
vt 0.87500 0.62500
vt 0.91667 0.62500
vt 0.95833 0.62500
vt 1.00000 0.62500
vt 0.00000 0.56250
vt 0.04167 0.56250
vt 0.08333 0.56250
vt 0.12500 0.56250
vt 0.16667 0.56250
vt 0.20833 0.56250
vt 0.25000 0.56250
vt 0.29167 0.56250
vt 0.33333 0.56250
vt 0.37500 0.56250
vt 0.41667 0.56250
vt 0.45833 0.56250
vt 0.50000 0.56250
vt 0.54167 0.56250
vt 0.58333 0.56250
vt 0.62500 0.56250
vt 0.66667 0.56250
vt 0.70833 0.56250
vt 0.75000 0.56250
vt 0.79167 0.56250
vt 0.83333 0.56250
vt 0.87500 0.56250
vt 0.91667 0.56250
vt 0.95833 0.56250
vt 1.00000 0.56250
vt 0.00000 0.50000
vt 0.04167 0.50000
vt 0.08333 0.50000
vt 0.12500 0.50000
vt 0.16667 0.50000
vt 0.20833 0.50000
vt 0.25000 0.50000
vt 0.29167 0.50000
vt 0.33333 0.50000
vt 0.37500 0.50000
vt 0.41667 0.50000
vt 0.45833 0.50000
vt 0.50000 0.50000
vt 0.54167 0.50000
vt 0.58333 0.50000
vt 0.62500 0.50000
vt 0.66667 0.50000
vt 0.70833 0.50000
vt 0.75000 0.50000
vt 0.79167 0.50000
vt 0.83333 0.50000
vt 0.87500 0.50000
vt 0.91667 0.50000
vt 0.95833 0.50000
vt 1.00000 0.50000
vt 0.00000 0.43750
vt 0.04167 0.43750
vt 0.08333 0.43750
vt 0.12500 0.43750
vt 0.16667 0.43750
vt 0.20833 0.43750
vt 0.25000 0.43750
vt 0.29167 0.43750
vt 0.33333 0.43750
vt 0.37500 0.43750
vt 0.41667 0.43750
vt 0.45833 0.43750
vt 0.50000 0.43750
vt 0.54167 0.43750
vt 0.58333 0.43750
vt 0.62500 0.43750
vt 0.66667 0.43750
vt 0.70833 0.43750
vt 0.75000 0.43750
vt 0.79167 0.43750
vt 0.83333 0.43750
vt 0.87500 0.43750
vt 0.91667 0.43750
vt 0.95833 0.43750
vt 1.00000 0.43750
vt 0.00000 0.37500
vt 0.04167 0.37500
vt 0.08333 0.37500
vt 0.12500 0.37500
vt 0.16667 0.37500
vt 0.20833 0.37500
vt 0.25000 0.37500
vt 0.29167 0.37500
vt 0.33333 0.37500
vt 0.37500 0.37500
vt 0.41667 0.37500
vt 0.45833 0.37500
vt 0.50000 0.37500
vt 0.54167 0.37500
vt 0.58333 0.37500
vt 0.62500 0.37500
vt 0.66667 0.37500
vt 0.70833 0.37500
vt 0.75000 0.37500
vt 0.79167 0.37500
vt 0.83333 0.37500
vt 0.87500 0.37500
vt 0.91667 0.37500
vt 0.95833 0.37500
vt 1.00000 0.37500
vt 0.00000 0.31250
vt 0.04167 0.31250
vt 0.08333 0.31250
vt 0.12500 0.31250
vt 0.16667 0.31250
vt 0.20833 0.31250
vt 0.25000 0.31250
vt 0.29167 0.31250
vt 0.33333 0.31250
vt 0.37500 0.31250
vt 0.41667 0.31250
vt 0.45833 0.31250
vt 0.50000 0.31250
vt 0.54167 0.31250
vt 0.58333 0.31250
vt 0.62500 0.31250
vt 0.66667 0.31250
vt 0.70833 0.31250
vt 0.75000 0.31250
vt 0.79167 0.31250
vt 0.83333 0.31250
vt 0.87500 0.31250
vt 0.91667 0.31250
vt 0.95833 0.31250
vt 1.00000 0.31250
vt 0.00000 0.25000
vt 0.04167 0.25000
vt 0.08333 0.25000
vt 0.12500 0.25000
vt 0.16667 0.25000
vt 0.20833 0.25000
vt 0.25000 0.25000
vt 0.29167 0.25000
vt 0.33333 0.25000
vt 0.37500 0.25000
vt 0.41667 0.25000
vt 0.45833 0.25000
vt 0.50000 0.25000
vt 0.54167 0.25000
vt 0.58333 0.25000
vt 0.62500 0.25000
vt 0.66667 0.25000
vt 0.70833 0.25000
vt 0.75000 0.25000
vt 0.79167 0.25000
vt 0.83333 0.25000
vt 0.87500 0.25000
vt 0.91667 0.25000
vt 0.95833 0.25000
vt 1.00000 0.25000
vt 0.00000 0.18750
vt 0.04167 0.18750
vt 0.08333 0.18750
vt 0.12500 0.18750
vt 0.16667 0.18750
vt 0.20833 0.18750
vt 0.25000 0.18750
vt 0.29167 0.18750
vt 0.33333 0.18750
vt 0.37500 0.18750
vt 0.41667 0.18750
vt 0.45833 0.18750
vt 0.50000 0.18750
vt 0.54167 0.18750
vt 0.58333 0.18750
vt 0.62500 0.18750
vt 0.66667 0.18750
vt 0.70833 0.18750
vt 0.75000 0.18750
vt 0.79167 0.18750
vt 0.83333 0.18750
vt 0.87500 0.18750
vt 0.91667 0.18750
vt 0.95833 0.18750
vt 1.00000 0.18750
vt 0.00000 0.12500
vt 0.04167 0.12500
vt 0.08333 0.12500
vt 0.12500 0.12500
vt 0.16667 0.12500
vt 0.20833 0.12500
vt 0.25000 0.12500
vt 0.29167 0.12500
vt 0.33333 0.12500
vt 0.37500 0.12500
vt 0.41667 0.12500
vt 0.45833 0.12500
vt 0.50000 0.12500
vt 0.54167 0.12500
vt 0.58333 0.12500
vt 0.62500 0.12500
vt 0.66667 0.12500
vt 0.70833 0.12500
vt 0.75000 0.12500
vt 0.79167 0.12500
vt 0.83333 0.12500
vt 0.87500 0.12500
vt 0.91667 0.12500
vt 0.95833 0.12500
vt 1.00000 0.12500
vt 0.00000 0.06250
vt 0.04167 0.06250
vt 0.08333 0.06250
vt 0.12500 0.06250
vt 0.16667 0.06250
vt 0.20833 0.06250
vt 0.25000 0.06250
vt 0.29167 0.06250
vt 0.33333 0.06250
vt 0.37500 0.06250
vt 0.41667 0.06250
vt 0.45833 0.06250
vt 0.50000 0.06250
vt 0.54167 0.06250
vt 0.58333 0.06250
vt 0.62500 0.06250
vt 0.66667 0.06250
vt 0.70833 0.06250
vt 0.75000 0.06250
vt 0.79167 0.06250
vt 0.83333 0.06250
vt 0.87500 0.06250
vt 0.91667 0.06250
vt 0.95833 0.06250
vt 1.00000 0.06250
vt 0.00000 0.00000
vt 0.04167 0.00000
vt 0.08333 0.00000
vt 0.12500 0.00000
vt 0.16667 0.00000
vt 0.20833 0.00000
vt 0.25000 0.00000
vt 0.29167 0.00000
vt 0.33333 0.00000
vt 0.37500 0.00000
vt 0.41667 0.00000
vt 0.45833 0.00000
vt 0.50000 0.00000
vt 0.54167 0.00000
vt 0.58333 0.00000
vt 0.62500 0.00000
vt 0.66667 0.00000
vt 0.70833 0.00000
vt 0.75000 0.00000
vt 0.79167 0.00000
vt 0.83333 0.00000
vt 0.87500 0.00000
vt 0.91667 0.00000
vt 0.95833 0.00000
vt 1.00000 0.00000
vn 0.0000 0.0000 1.0000
vn 0.0000 0.0000 1.0000
vn 0.0000 0.0000 1.0000
vn 0.0000 0.0000 1.0000
vn 0.0000 0.0000 1.0000
vn 0.0000 0.0000 1.0000
vn 0.0000 0.0000 1.0000
vn 0.0000 0.0000 1.0000
vn 0.0000 0.0000 1.0000
vn 0.0000 0.0000 1.0000
vn 0.0000 0.0000 1.0000
vn 0.0000 0.0000 1.0000
vn 0.0000 0.0000 1.0000
vn 0.0000 0.0000 1.0000
vn 0.0000 0.0000 1.0000
vn 0.0000 0.0000 1.0000
vn 0.0000 0.0000 1.0000
vn 0.0000 0.0000 1.0000
vn 0.0000 0.0000 1.0000
vn 0.0000 0.0000 1.0000
vn 0.0000 0.0000 1.0000
vn 0.0000 0.0000 1.0000
vn 0.0000 0.0000 1.0000
vn 0.0000 0.0000 1.0000
vn 0.0000 0.0000 1.0000
vn -0.1572 0.0000 0.9876
vn -0.1518 -0.0407 0.9876
vn -0.1361 -0.0786 0.9876
vn -0.1111 -0.1111 0.9876
vn -0.0786 -0.1361 0.9876
vn -0.0407 -0.1518 0.9876
vn -0.0000 -0.1572 0.9876
vn 0.0407 -0.1518 0.9876
vn 0.0786 -0.1361 0.9876
vn 0.1111 -0.1111 0.9876
vn 0.1361 -0.0786 0.9876
vn 0.1518 -0.0407 0.9876
vn 0.1572 -0.0000 0.9876
vn 0.1518 0.0407 0.9876
vn 0.1361 0.0786 0.9876
vn 0.1111 0.1111 0.9876
vn 0.0786 0.1361 0.9876
vn 0.0407 0.1518 0.9876
vn 0.0000 0.1572 0.9876
vn -0.0407 0.1518 0.9876
vn -0.0786 0.1361 0.9876
vn -0.1111 0.1111 0.9876
vn -0.1361 0.0786 0.9876
vn -0.1518 0.0407 0.9876
vn -0.1572 0.0000 0.9876
vn -0.3146 0.0000 0.9492
vn -0.3038 -0.0814 0.9492
vn -0.2724 -0.1573 0.9492
vn -0.2224 -0.2224 0.9492
vn -0.1573 -0.2724 0.9492
vn -0.0814 -0.3038 0.9492
vn -0.0000 -0.3146 0.9492
vn 0.0814 -0.3038 0.9492
vn 0.1573 -0.2724 0.9492
vn 0.2224 -0.2224 0.9492
vn 0.2724 -0.1573 0.9492
vn 0.3038 -0.0814 0.9492
vn 0.3146 -0.0000 0.9492
vn 0.3038 0.0814 0.9492
vn 0.2724 0.1573 0.9492
vn 0.2224 0.2224 0.9492
vn 0.1573 0.2724 0.9492
vn 0.0814 0.3038 0.9492
vn 0.0000 0.3146 0.9492
vn -0.0814 0.3038 0.9492
vn -0.1573 0.2724 0.9492
vn -0.2224 0.2224 0.9492
vn -0.2724 0.1573 0.9492
vn -0.3038 0.0814 0.9492
vn -0.3146 0.0000 0.9492
vn -0.4714 0.0000 0.8819
vn -0.4554 -0.1220 0.8819
vn -0.4083 -0.2357 0.8819
vn -0.3333 -0.3333 0.8819
vn -0.2357 -0.4083 0.8819
vn -0.1220 -0.4554 0.8819
vn -0.0000 -0.4714 0.8819
vn 0.1220 -0.4554 0.8819
vn 0.2357 -0.4083 0.8819
vn 0.3333 -0.3333 0.8819
vn 0.4083 -0.2357 0.8819
vn 0.4554 -0.1220 0.8819
vn 0.4714 -0.0000 0.8819
vn 0.4554 0.1220 0.8819
vn 0.4083 0.2357 0.8819
vn 0.3333 0.3333 0.8819
vn 0.2357 0.4083 0.8819
vn 0.1220 0.4554 0.8819
vn 0.0000 0.4714 0.8819
vn -0.1220 0.4554 0.8819
vn -0.2357 0.4083 0.8819
vn -0.3333 0.3333 0.8819
vn -0.4083 0.2357 0.8819
vn -0.4554 0.1220 0.8819
vn -0.4714 0.0000 0.8819
vn -0.6247 0.0000 0.7809
vn -0.6034 -0.1617 0.7809
vn -0.5410 -0.3123 0.7809
vn -0.4417 -0.4417 0.7809
vn -0.3123 -0.5410 0.7809
vn -0.1617 -0.6034 0.7809
vn -0.0000 -0.6247 0.7809
vn 0.1617 -0.6034 0.7809
vn 0.3123 -0.5410 0.7809
vn 0.4417 -0.4417 0.7809
vn 0.5410 -0.3123 0.7809
vn 0.6034 -0.1617 0.7809
vn 0.6247 -0.0000 0.7809
vn 0.6034 0.1617 0.7809
vn 0.5410 0.3123 0.7809
vn 0.4417 0.4417 0.7809
vn 0.3123 0.5410 0.7809
vn 0.1617 0.6034 0.7809
vn 0.0000 0.6247 0.7809
vn -0.1617 0.6034 0.7809
vn -0.3123 0.5410 0.7809
vn -0.4417 0.4417 0.7809
vn -0.5410 0.3123 0.7809
vn -0.6034 0.1617 0.7809
vn -0.6247 0.0000 0.7809
vn -0.7675 0.0000 0.6410
vn -0.7414 -0.1986 0.6410
vn -0.6647 -0.3838 0.6410
vn -0.5427 -0.5427 0.6410
vn -0.3838 -0.6647 0.6410
vn -0.1986 -0.7414 0.6410
vn -0.0000 -0.7675 0.6410
vn 0.1986 -0.7414 0.6410
vn 0.3838 -0.6647 0.6410
vn 0.5427 -0.5427 0.6410
vn 0.6647 -0.3838 0.6410
vn 0.7414 -0.1986 0.6410
vn 0.7675 -0.0000 0.6410
vn 0.7414 0.1986 0.6410
vn 0.6647 0.3838 0.6410
vn 0.5427 0.5427 0.6410
vn 0.3838 0.6647 0.6410
vn 0.1986 0.7414 0.6410
vn 0.0000 0.7675 0.6410
vn -0.1986 0.7414 0.6410
vn -0.3838 0.6647 0.6410
vn -0.5427 0.5427 0.6410
vn -0.6647 0.3838 0.6410
vn -0.7414 0.1986 0.6410
vn -0.7675 0.0000 0.6410
vn -0.8880 0.0000 0.4598
vn -0.8578 -0.2298 0.4598
vn -0.7691 -0.4440 0.4598
vn -0.6279 -0.6279 0.4598
vn -0.4440 -0.7691 0.4598
vn -0.2298 -0.8578 0.4598
vn -0.0000 -0.8880 0.4598
vn 0.2298 -0.8578 0.4598
vn 0.4440 -0.7691 0.4598
vn 0.6279 -0.6279 0.4598
vn 0.7691 -0.4440 0.4598
vn 0.8578 -0.2298 0.4598
vn 0.8880 -0.0000 0.4598
vn 0.8578 0.2298 0.4598
vn 0.7691 0.4440 0.4598
vn 0.6279 0.6279 0.4598
vn 0.4440 0.7691 0.4598
vn 0.2298 0.8578 0.4598
vn 0.0000 0.8880 0.4598
vn -0.2298 0.8578 0.4598
vn -0.4440 0.7691 0.4598
vn -0.6279 0.6279 0.4598
vn -0.7691 0.4440 0.4598
vn -0.8578 0.2298 0.4598
vn -0.8880 0.0000 0.4598
vn -0.9705 0.0000 0.2413
vn -0.9374 -0.2512 0.2413
vn -0.8404 -0.4852 0.2413
vn -0.6862 -0.6862 0.2413
vn -0.4852 -0.8404 0.2413
vn -0.2512 -0.9374 0.2413
vn -0.0000 -0.9705 0.2413
vn 0.2512 -0.9374 0.2413
vn 0.4852 -0.8404 0.2413
vn 0.6862 -0.6862 0.2413
vn 0.8404 -0.4852 0.2413
vn 0.9374 -0.2512 0.2413
vn 0.9705 -0.0000 0.2413
vn 0.9374 0.2512 0.2413
vn 0.8404 0.4852 0.2413
vn 0.6862 0.6862 0.2413
vn 0.4852 0.8404 0.2413
vn 0.2512 0.9374 0.2413
vn 0.0000 0.9705 0.2413
vn -0.2512 0.9374 0.2413
vn -0.4852 0.8404 0.2413
vn -0.6862 0.6862 0.2413
vn -0.8404 0.4852 0.2413
vn -0.9374 0.2512 0.2413
vn -0.9705 0.0000 0.2413
vn -1.0000 0.0000 0.0000
vn -0.9659 -0.2588 0.0000
vn -0.8660 -0.5000 0.0000
vn -0.7071 -0.7071 0.0000
vn -0.5000 -0.8660 0.0000
vn -0.2588 -0.9659 0.0000
vn -0.0000 -1.0000 0.0000
vn 0.2588 -0.9659 0.0000
vn 0.5000 -0.8660 0.0000
vn 0.7071 -0.7071 0.0000
vn 0.8660 -0.5000 0.0000
vn 0.9659 -0.2588 0.0000
vn 1.0000 -0.0000 0.0000
vn 0.9659 0.2588 0.0000
vn 0.8660 0.5000 0.0000
vn 0.7071 0.7071 0.0000
vn 0.5000 0.8660 0.0000
vn 0.2588 0.9659 0.0000
vn 0.0000 1.0000 0.0000
vn -0.2588 0.9659 0.0000
vn -0.5000 0.8660 0.0000
vn -0.7071 0.7071 0.0000
vn -0.8660 0.5000 0.0000
vn -0.9659 0.2588 0.0000
vn -1.0000 0.0000 0.0000
vn -0.9705 0.0000 -0.2413
vn -0.9374 -0.2512 -0.2413
vn -0.8404 -0.4852 -0.2413
vn -0.6862 -0.6862 -0.2413
vn -0.4852 -0.8404 -0.2413
vn -0.2512 -0.9374 -0.2413
vn -0.0000 -0.9705 -0.2413
vn 0.2512 -0.9374 -0.2413
vn 0.4852 -0.8404 -0.2413
vn 0.6862 -0.6862 -0.2413
vn 0.8404 -0.4852 -0.2413
vn 0.9374 -0.2512 -0.2413
vn 0.9705 -0.0000 -0.2413
vn 0.9374 0.2512 -0.2413
vn 0.8404 0.4852 -0.2413
vn 0.6862 0.6862 -0.2413
vn 0.4852 0.8404 -0.2413
vn 0.2512 0.9374 -0.2413
vn 0.0000 0.9705 -0.2413
vn -0.2512 0.9374 -0.2413
vn -0.4852 0.8404 -0.2413
vn -0.6862 0.6862 -0.2413
vn -0.8404 0.4852 -0.2413
vn -0.9374 0.2512 -0.2413
vn -0.9705 0.0000 -0.2413
vn -0.8880 0.0000 -0.4598
vn -0.8578 -0.2298 -0.4598
vn -0.7691 -0.4440 -0.4598
vn -0.6279 -0.6279 -0.4598
vn -0.4440 -0.7691 -0.4598
vn -0.2298 -0.8578 -0.4598
vn -0.0000 -0.8880 -0.4598
vn 0.2298 -0.8578 -0.4598
vn 0.4440 -0.7691 -0.4598
vn 0.6279 -0.6279 -0.4598
vn 0.7691 -0.4440 -0.4598
vn 0.8578 -0.2298 -0.4598
vn 0.8880 -0.0000 -0.4598
vn 0.8578 0.2298 -0.4598
vn 0.7691 0.4440 -0.4598
vn 0.6279 0.6279 -0.4598
vn 0.4440 0.7691 -0.4598
vn 0.2298 0.8578 -0.4598
vn 0.0000 0.8880 -0.4598
vn -0.2298 0.8578 -0.4598
vn -0.4440 0.7691 -0.4598
vn -0.6279 0.6279 -0.4598
vn -0.7691 0.4440 -0.4598
vn -0.8578 0.2298 -0.4598
vn -0.8880 0.0000 -0.4598
vn -0.7675 0.0000 -0.6410
vn -0.7414 -0.1986 -0.6410
vn -0.6647 -0.3838 -0.6410
vn -0.5427 -0.5427 -0.6410
vn -0.3838 -0.6647 -0.6410
vn -0.1986 -0.7414 -0.6410
vn -0.0000 -0.7675 -0.6410
vn 0.1986 -0.7414 -0.6410
vn 0.3838 -0.6647 -0.6410
vn 0.5427 -0.5427 -0.6410
vn 0.6647 -0.3838 -0.6410
vn 0.7414 -0.1986 -0.6410
vn 0.7675 -0.0000 -0.6410
vn 0.7414 0.1986 -0.6410
vn 0.6647 0.3838 -0.6410
vn 0.5427 0.5427 -0.6410
vn 0.3838 0.6647 -0.6410
vn 0.1986 0.7414 -0.6410
vn 0.0000 0.7675 -0.6410
vn -0.1986 0.7414 -0.6410
vn -0.3838 0.6647 -0.6410
vn -0.5427 0.5427 -0.6410
vn -0.6647 0.3838 -0.6410
vn -0.7414 0.1986 -0.6410
vn -0.7675 0.0000 -0.6410
vn -0.6247 0.0000 -0.7809
vn -0.6034 -0.1617 -0.7809
vn -0.5410 -0.3123 -0.7809
vn -0.4417 -0.4417 -0.7809
vn -0.3123 -0.5410 -0.7809
vn -0.1617 -0.6034 -0.7809
vn -0.0000 -0.6247 -0.7809
vn 0.1617 -0.6034 -0.7809
vn 0.3123 -0.5410 -0.7809
vn 0.4417 -0.4417 -0.7809
vn 0.5410 -0.3123 -0.7809
vn 0.6034 -0.1617 -0.7809
vn 0.6247 -0.0000 -0.7809
vn 0.6034 0.1617 -0.7809
vn 0.5410 0.3123 -0.7809
vn 0.4417 0.4417 -0.7809
vn 0.3123 0.5410 -0.7809
vn 0.1617 0.6034 -0.7809
vn 0.0000 0.6247 -0.7809
vn -0.1617 0.6034 -0.7809
vn -0.3123 0.5410 -0.7809
vn -0.4417 0.4417 -0.7809
vn -0.5410 0.3123 -0.7809
vn -0.6034 0.1617 -0.7809
vn -0.6247 0.0000 -0.7809
vn -0.4714 0.0000 -0.8819
vn -0.4554 -0.1220 -0.8819
vn -0.4083 -0.2357 -0.8819
vn -0.3333 -0.3333 -0.8819
vn -0.2357 -0.4083 -0.8819
vn -0.1220 -0.4554 -0.8819
vn -0.0000 -0.4714 -0.8819
vn 0.1220 -0.4554 -0.8819
vn 0.2357 -0.4083 -0.8819
vn 0.3333 -0.3333 -0.8819
vn 0.4083 -0.2357 -0.8819
vn 0.4554 -0.1220 -0.8819
vn 0.4714 -0.0000 -0.8819
vn 0.4554 0.1220 -0.8819
vn 0.4083 0.2357 -0.8819
vn 0.3333 0.3333 -0.8819
vn 0.2357 0.4083 -0.8819
vn 0.1220 0.4554 -0.8819
vn 0.0000 0.4714 -0.8819
vn -0.1220 0.4554 -0.8819
vn -0.2357 0.4083 -0.8819
vn -0.3333 0.3333 -0.8819
vn -0.4083 0.2357 -0.8819
vn -0.4554 0.1220 -0.8819
vn -0.4714 0.0000 -0.8819
vn -0.3146 0.0000 -0.9492
vn -0.3038 -0.0814 -0.9492
vn -0.2724 -0.1573 -0.9492
vn -0.2224 -0.2224 -0.9492
vn -0.1573 -0.2724 -0.9492
vn -0.0814 -0.3038 -0.9492
vn -0.0000 -0.3146 -0.9492
vn 0.0814 -0.3038 -0.9492
vn 0.1573 -0.2724 -0.9492
vn 0.2224 -0.2224 -0.9492
vn 0.2724 -0.1573 -0.9492
vn 0.3038 -0.0814 -0.9492
vn 0.3146 -0.0000 -0.9492
vn 0.3038 0.0814 -0.9492
vn 0.2724 0.1573 -0.9492
vn 0.2224 0.2224 -0.9492
vn 0.1573 0.2724 -0.9492
vn 0.0814 0.3038 -0.9492
vn 0.0000 0.3146 -0.9492
vn -0.0814 0.3038 -0.9492
vn -0.1573 0.2724 -0.9492
vn -0.2224 0.2224 -0.9492
vn -0.2724 0.1573 -0.9492
vn -0.3038 0.0814 -0.9492
vn -0.3146 0.0000 -0.9492
vn -0.1572 0.0000 -0.9876
vn -0.1518 -0.0407 -0.9876
vn -0.1361 -0.0786 -0.9876
vn -0.1111 -0.1111 -0.9876
vn -0.0786 -0.1361 -0.9876
vn -0.0407 -0.1518 -0.9876
vn -0.0000 -0.1572 -0.9876
vn 0.0407 -0.1518 -0.9876
vn 0.0786 -0.1361 -0.9876
vn 0.1111 -0.1111 -0.9876
vn 0.1361 -0.0786 -0.9876
vn 0.1518 -0.0407 -0.9876
vn 0.1572 -0.0000 -0.9876
vn 0.1518 0.0407 -0.9876
vn 0.1361 0.0786 -0.9876
vn 0.1111 0.1111 -0.9876
vn 0.0786 0.1361 -0.9876
vn 0.0407 0.1518 -0.9876
vn 0.0000 0.1572 -0.9876
vn -0.0407 0.1518 -0.9876
vn -0.0786 0.1361 -0.9876
vn -0.1111 0.1111 -0.9876
vn -0.1361 0.0786 -0.9876
vn -0.1518 0.0407 -0.9876
vn -0.1572 0.0000 -0.9876
vn -0.0000 0.0000 -1.0000
vn -0.0000 -0.0000 -1.0000
vn -0.0000 -0.0000 -1.0000
vn -0.0000 -0.0000 -1.0000
vn -0.0000 -0.0000 -1.0000
vn -0.0000 -0.0000 -1.0000
vn -0.0000 -0.0000 -1.0000
vn 0.0000 -0.0000 -1.0000
vn 0.0000 -0.0000 -1.0000
vn 0.0000 -0.0000 -1.0000
vn 0.0000 -0.0000 -1.0000
vn 0.0000 -0.0000 -1.0000
vn 0.0000 -0.0000 -1.0000
vn 0.0000 0.0000 -1.0000
vn 0.0000 0.0000 -1.0000
vn 0.0000 0.0000 -1.0000
vn 0.0000 0.0000 -1.0000
vn 0.0000 0.0000 -1.0000
vn 0.0000 0.0000 -1.0000
vn -0.0000 0.0000 -1.0000
vn -0.0000 0.0000 -1.0000
vn -0.0000 0.0000 -1.0000
vn -0.0000 0.0000 -1.0000
vn -0.0000 0.0000 -1.0000
vn -0.0000 0.0000 -1.0000
f 2/2/2 26/26/26 27/27/27
f 3/3/3 27/27/27 28/28/28
f 4/4/4 28/28/28 29/29/29
f 5/5/5 29/29/29 30/30/30
f 6/6/6 30/30/30 31/31/31
f 7/7/7 31/31/31 32/32/32
f 8/8/8 32/32/32 33/33/33
f 9/9/9 33/33/33 34/34/34
f 10/10/10 34/34/34 35/35/35
f 11/11/11 35/35/35 36/36/36
f 12/12/12 36/36/36 37/37/37
f 13/13/13 37/37/37 38/38/38
f 14/14/14 38/38/38 39/39/39
f 15/15/15 39/39/39 40/40/40
f 16/16/16 40/40/40 41/41/41
f 17/17/17 41/41/41 42/42/42
f 18/18/18 42/42/42 43/43/43
f 19/19/19 43/43/43 44/44/44
f 20/20/20 44/44/44 45/45/45
f 21/21/21 45/45/45 46/46/46
f 22/22/22 46/46/46 47/47/47
f 23/23/23 47/47/47 48/48/48
f 24/24/24 48/48/48 49/49/49
f 25/25/25 49/49/49 50/50/50
f 26/26/26 51/51/51 27/27/27
f 27/27/27 51/51/51 52/52/52
f 27/27/27 52/52/52 28/28/28
f 28/28/28 52/52/52 53/53/53
f 28/28/28 53/53/53 29/29/29
f 29/29/29 53/53/53 54/54/54
f 29/29/29 54/54/54 30/30/30
f 30/30/30 54/54/54 55/55/55
f 30/30/30 55/55/55 31/31/31
f 31/31/31 55/55/55 56/56/56
f 31/31/31 56/56/56 32/32/32
f 32/32/32 56/56/56 57/57/57
f 32/32/32 57/57/57 33/33/33
f 33/33/33 57/57/57 58/58/58
f 33/33/33 58/58/58 34/34/34
f 34/34/34 58/58/58 59/59/59
f 34/34/34 59/59/59 35/35/35
f 35/35/35 59/59/59 60/60/60
f 35/35/35 60/60/60 36/36/36
f 36/36/36 60/60/60 61/61/61
f 36/36/36 61/61/61 37/37/37
f 37/37/37 61/61/61 62/62/62
f 37/37/37 62/62/62 38/38/38
f 38/38/38 62/62/62 63/63/63
f 38/38/38 63/63/63 39/39/39
f 39/39/39 63/63/63 64/64/64
f 39/39/39 64/64/64 40/40/40
f 40/40/40 64/64/64 65/65/65
f 40/40/40 65/65/65 41/41/41
f 41/41/41 65/65/65 66/66/66
f 41/41/41 66/66/66 42/42/42
f 42/42/42 66/66/66 67/67/67
f 42/42/42 67/67/67 43/43/43
f 43/43/43 67/67/67 68/68/68
f 43/43/43 68/68/68 44/44/44
f 44/44/44 68/68/68 69/69/69
f 44/44/44 69/69/69 45/45/45
f 45/45/45 69/69/69 70/70/70
f 45/45/45 70/70/70 46/46/46
f 46/46/46 70/70/70 71/71/71
f 46/46/46 71/71/71 47/47/47
f 47/47/47 71/71/71 72/72/72
f 47/47/47 72/72/72 48/48/48
f 48/48/48 72/72/72 73/73/73
f 48/48/48 73/73/73 49/49/49
f 49/49/49 73/73/73 74/74/74
f 49/49/49 74/74/74 50/50/50
f 50/50/50 74/74/74 75/75/75
f 51/51/51 76/76/76 52/52/52
f 52/52/52 76/76/76 77/77/77
f 52/52/52 77/77/77 53/53/53
f 53/53/53 77/77/77 78/78/78
f 53/53/53 78/78/78 54/54/54
f 54/54/54 78/78/78 79/79/79
f 54/54/54 79/79/79 55/55/55
f 55/55/55 79/79/79 80/80/80
f 55/55/55 80/80/80 56/56/56
f 56/56/56 80/80/80 81/81/81
f 56/56/56 81/81/81 57/57/57
f 57/57/57 81/81/81 82/82/82
f 57/57/57 82/82/82 58/58/58
f 58/58/58 82/82/82 83/83/83
f 58/58/58 83/83/83 59/59/59
f 59/59/59 83/83/83 84/84/84
f 59/59/59 84/84/84 60/60/60
f 60/60/60 84/84/84 85/85/85
f 60/60/60 85/85/85 61/61/61
f 61/61/61 85/85/85 86/86/86
f 61/61/61 86/86/86 62/62/62
f 62/62/62 86/86/86 87/87/87
f 62/62/62 87/87/87 63/63/63
f 63/63/63 87/87/87 88/88/88
f 63/63/63 88/88/88 64/64/64
f 64/64/64 88/88/88 89/89/89
f 64/64/64 89/89/89 65/65/65
f 65/65/65 89/89/89 90/90/90
f 65/65/65 90/90/90 66/66/66
f 66/66/66 90/90/90 91/91/91
f 66/66/66 91/91/91 67/67/67
f 67/67/67 91/91/91 92/92/92
f 67/67/67 92/92/92 68/68/68
f 68/68/68 92/92/92 93/93/93
f 68/68/68 93/93/93 69/69/69
f 69/69/69 93/93/93 94/94/94
f 69/69/69 94/94/94 70/70/70
f 70/70/70 94/94/94 95/95/95
f 70/70/70 95/95/95 71/71/71
f 71/71/71 95/95/95 96/96/96
f 71/71/71 96/96/96 72/72/72
f 72/72/72 96/96/96 97/97/97
f 72/72/72 97/97/97 73/73/73
f 73/73/73 97/97/97 98/98/98
f 73/73/73 98/98/98 74/74/74
f 74/74/74 98/98/98 99/99/99
f 74/74/74 99/99/99 75/75/75
f 75/75/75 99/99/99 100/100/100
f 76/76/76 101/101/101 77/77/77
f 77/77/77 101/101/101 102/102/102
f 77/77/77 102/102/102 78/78/78
f 78/78/78 102/102/102 103/103/103
f 78/78/78 103/103/103 79/79/79
f 79/79/79 103/103/103 104/104/104
f 79/79/79 104/104/104 80/80/80
f 80/80/80 104/104/104 105/105/105
f 80/80/80 105/105/105 81/81/81
f 81/81/81 105/105/105 106/106/106
f 81/81/81 106/106/106 82/82/82
f 82/82/82 106/106/106 107/107/107
f 82/82/82 107/107/107 83/83/83
f 83/83/83 107/107/107 108/108/108
f 83/83/83 108/108/108 84/84/84
f 84/84/84 108/108/108 109/109/109
f 84/84/84 109/109/109 85/85/85
f 85/85/85 109/109/109 110/110/110
f 85/85/85 110/110/110 86/86/86
f 86/86/86 110/110/110 111/111/111
f 86/86/86 111/111/111 87/87/87
f 87/87/87 111/111/111 112/112/112
f 87/87/87 112/112/112 88/88/88
f 88/88/88 112/112/112 113/113/113
f 88/88/88 113/113/113 89/89/89
f 89/89/89 113/113/113 114/114/114
f 89/89/89 114/114/114 90/90/90
f 90/90/90 114/114/114 115/115/115
f 90/90/90 115/115/115 91/91/91
f 91/91/91 115/115/115 116/116/116
f 91/91/91 116/116/116 92/92/92
f 92/92/92 116/116/116 117/117/117
f 92/92/92 117/117/117 93/93/93
f 93/93/93 117/117/117 118/118/118
f 93/93/93 118/118/118 94/94/94
f 94/94/94 118/118/118 119/119/119
f 94/94/94 119/119/119 95/95/95
f 95/95/95 119/119/119 120/120/120
f 95/95/95 120/120/120 96/96/96
f 96/96/96 120/120/120 121/121/121
f 96/96/96 121/121/121 97/97/97
f 97/97/97 121/121/121 122/122/122
f 97/97/97 122/122/122 98/98/98
f 98/98/98 122/122/122 123/123/123
f 98/98/98 123/123/123 99/99/99
f 99/99/99 123/123/123 124/124/124
f 99/99/99 124/124/124 100/100/100
f 100/100/100 124/124/124 125/125/125
f 101/101/101 126/126/126 102/102/102
f 102/102/102 126/126/126 127/127/127
f 102/102/102 127/127/127 103/103/103
f 103/103/103 127/127/127 128/128/128
f 103/103/103 128/128/128 104/104/104
f 104/104/104 128/128/128 129/129/129
f 104/104/104 129/129/129 105/105/105
f 105/105/105 129/129/129 130/130/130
f 105/105/105 130/130/130 106/106/106
f 106/106/106 130/130/130 131/131/131
f 106/106/106 131/131/131 107/107/107
f 107/107/107 131/131/131 132/132/132
f 107/107/107 132/132/132 108/108/108
f 108/108/108 132/132/132 133/133/133
f 108/108/108 133/133/133 109/109/109
f 109/109/109 133/133/133 134/134/134
f 109/109/109 134/134/134 110/110/110
f 110/110/110 134/134/134 135/135/135
f 110/110/110 135/135/135 111/111/111
f 111/111/111 135/135/135 136/136/136
f 111/111/111 136/136/136 112/112/112
f 112/112/112 136/136/136 137/137/137
f 112/112/112 137/137/137 113/113/113
f 113/113/113 137/137/137 138/138/138
f 113/113/113 138/138/138 114/114/114
f 114/114/114 138/138/138 139/139/139
f 114/114/114 139/139/139 115/115/115
f 115/115/115 139/139/139 140/140/140
f 115/115/115 140/140/140 116/116/116
f 116/116/116 140/140/140 141/141/141
f 116/116/116 141/141/141 117/117/117
f 117/117/117 141/141/141 142/142/142
f 117/117/117 142/142/142 118/118/118
f 118/118/118 142/142/142 143/143/143
f 118/118/118 143/143/143 119/119/119
f 119/119/119 143/143/143 144/144/144
f 119/119/119 144/144/144 120/120/120
f 120/120/120 144/144/144 145/145/145
f 120/120/120 145/145/145 121/121/121
f 121/121/121 145/145/145 146/146/146
f 121/121/121 146/146/146 122/122/122
f 122/122/122 146/146/146 147/147/147
f 122/122/122 147/147/147 123/123/123
f 123/123/123 147/147/147 148/148/148
f 123/123/123 148/148/148 124/124/124
f 124/124/124 148/148/148 149/149/149
f 124/124/124 149/149/149 125/125/125
f 125/125/125 149/149/149 150/150/150
f 126/126/126 151/151/151 127/127/127
f 127/127/127 151/151/151 152/152/152
f 127/127/127 152/152/152 128/128/128
f 128/128/128 152/152/152 153/153/153
f 128/128/128 153/153/153 129/129/129
f 129/129/129 153/153/153 154/154/154
f 129/129/129 154/154/154 130/130/130
f 130/130/130 154/154/154 155/155/155
f 130/130/130 155/155/155 131/131/131
f 131/131/131 155/155/155 156/156/156
f 131/131/131 156/156/156 132/132/132
f 132/132/132 156/156/156 157/157/157
f 132/132/132 157/157/157 133/133/133
f 133/133/133 157/157/157 158/158/158
f 133/133/133 158/158/158 134/134/134
f 134/134/134 158/158/158 159/159/159
f 134/134/134 159/159/159 135/135/135
f 135/135/135 159/159/159 160/160/160
f 135/135/135 160/160/160 136/136/136
f 136/136/136 160/160/160 161/161/161
f 136/136/136 161/161/161 137/137/137
f 137/137/137 161/161/161 162/162/162
f 137/137/137 162/162/162 138/138/138
f 138/138/138 162/162/162 163/163/163
f 138/138/138 163/163/163 139/139/139
f 139/139/139 163/163/163 164/164/164
f 139/139/139 164/164/164 140/140/140
f 140/140/140 164/164/164 165/165/165
f 140/140/140 165/165/165 141/141/141
f 141/141/141 165/165/165 166/166/166
f 141/141/141 166/166/166 142/142/142
f 142/142/142 166/166/166 167/167/167
f 142/142/142 167/167/167 143/143/143
f 143/143/143 167/167/167 168/168/168
f 143/143/143 168/168/168 144/144/144
f 144/144/144 168/168/168 169/169/169
f 144/144/144 169/169/169 145/145/145
f 145/145/145 169/169/169 170/170/170
f 145/145/145 170/170/170 146/146/146
f 146/146/146 170/170/170 171/171/171
f 146/146/146 171/171/171 147/147/147
f 147/147/147 171/171/171 172/172/172
f 147/147/147 172/172/172 148/148/148
f 148/148/148 172/172/172 173/173/173
f 148/148/148 173/173/173 149/149/149
f 149/149/149 173/173/173 174/174/174
f 149/149/149 174/174/174 150/150/150
f 150/150/150 174/174/174 175/175/175
f 151/151/151 176/176/176 152/152/152
f 152/152/152 176/176/176 177/177/177
f 152/152/152 177/177/177 153/153/153
f 153/153/153 177/177/177 178/178/178
f 153/153/153 178/178/178 154/154/154
f 154/154/154 178/178/178 179/179/179
f 154/154/154 179/179/179 155/155/155
f 155/155/155 179/179/179 180/180/180
f 155/155/155 180/180/180 156/156/156
f 156/156/156 180/180/180 181/181/181
f 156/156/156 181/181/181 157/157/157
f 157/157/157 181/181/181 182/182/182
f 157/157/157 182/182/182 158/158/158
f 158/158/158 182/182/182 183/183/183
f 158/158/158 183/183/183 159/159/159
f 159/159/159 183/183/183 184/184/184
f 159/159/159 184/184/184 160/160/160
f 160/160/160 184/184/184 185/185/185
f 160/160/160 185/185/185 161/161/161
f 161/161/161 185/185/185 186/186/186
f 161/161/161 186/186/186 162/162/162
f 162/162/162 186/186/186 187/187/187
f 162/162/162 187/187/187 163/163/163
f 163/163/163 187/187/187 188/188/188
f 163/163/163 188/188/188 164/164/164
f 164/164/164 188/188/188 189/189/189
f 164/164/164 189/189/189 165/165/165
f 165/165/165 189/189/189 190/190/190
f 165/165/165 190/190/190 166/166/166
f 166/166/166 190/190/190 191/191/191
f 166/166/166 191/191/191 167/167/167
f 167/167/167 191/191/191 192/192/192
f 167/167/167 192/192/192 168/168/168
f 168/168/168 192/192/192 193/193/193
f 168/168/168 193/193/193 169/169/169
f 169/169/169 193/193/193 194/194/194
f 169/169/169 194/194/194 170/170/170
f 170/170/170 194/194/194 195/195/195
f 170/170/170 195/195/195 171/171/171
f 171/171/171 195/195/195 196/196/196
f 171/171/171 196/196/196 172/172/172
f 172/172/172 196/196/196 197/197/197
f 172/172/172 197/197/197 173/173/173
f 173/173/173 197/197/197 198/198/198
f 173/173/173 198/198/198 174/174/174
f 174/174/174 198/198/198 199/199/199
f 174/174/174 199/199/199 175/175/175
f 175/175/175 199/199/199 200/200/200
f 176/176/176 201/201/201 177/177/177
f 177/177/177 201/201/201 202/202/202
f 177/177/177 202/202/202 178/178/178
f 178/178/178 202/202/202 203/203/203
f 178/178/178 203/203/203 179/179/179
f 179/179/179 203/203/203 204/204/204
f 179/179/179 204/204/204 180/180/180
f 180/180/180 204/204/204 205/205/205
f 180/180/180 205/205/205 181/181/181
f 181/181/181 205/205/205 206/206/206
f 181/181/181 206/206/206 182/182/182
f 182/182/182 206/206/206 207/207/207
f 182/182/182 207/207/207 183/183/183
f 183/183/183 207/207/207 208/208/208
f 183/183/183 208/208/208 184/184/184
f 184/184/184 208/208/208 209/209/209
f 184/184/184 209/209/209 185/185/185
f 185/185/185 209/209/209 210/210/210
f 185/185/185 210/210/210 186/186/186
f 186/186/186 210/210/210 211/211/211
f 186/186/186 211/211/211 187/187/187
f 187/187/187 211/211/211 212/212/212
f 187/187/187 212/212/212 188/188/188
f 188/188/188 212/212/212 213/213/213
f 188/188/188 213/213/213 189/189/189
f 189/189/189 213/213/213 214/214/214
f 189/189/189 214/214/214 190/190/190
f 190/190/190 214/214/214 215/215/215
f 190/190/190 215/215/215 191/191/191
f 191/191/191 215/215/215 216/216/216
f 191/191/191 216/216/216 192/192/192
f 192/192/192 216/216/216 217/217/217
f 192/192/192 217/217/217 193/193/193
f 193/193/193 217/217/217 218/218/218
f 193/193/193 218/218/218 194/194/194
f 194/194/194 218/218/218 219/219/219
f 194/194/194 219/219/219 195/195/195
f 195/195/195 219/219/219 220/220/220
f 195/195/195 220/220/220 196/196/196
f 196/196/196 220/220/220 221/221/221
f 196/196/196 221/221/221 197/197/197
f 197/197/197 221/221/221 222/222/222
f 197/197/197 222/222/222 198/198/198
f 198/198/198 222/222/222 223/223/223
f 198/198/198 223/223/223 199/199/199
f 199/199/199 223/223/223 224/224/224
f 199/199/199 224/224/224 200/200/200
f 200/200/200 224/224/224 225/225/225
f 201/201/201 226/226/226 202/202/202
f 202/202/202 226/226/226 227/227/227
f 202/202/202 227/227/227 203/203/203
f 203/203/203 227/227/227 228/228/228
f 203/203/203 228/228/228 204/204/204
f 204/204/204 228/228/228 229/229/229
f 204/204/204 229/229/229 205/205/205
f 205/205/205 229/229/229 230/230/230
f 205/205/205 230/230/230 206/206/206
f 206/206/206 230/230/230 231/231/231
f 206/206/206 231/231/231 207/207/207
f 207/207/207 231/231/231 232/232/232
f 207/207/207 232/232/232 208/208/208
f 208/208/208 232/232/232 233/233/233
f 208/208/208 233/233/233 209/209/209
f 209/209/209 233/233/233 234/234/234
f 209/209/209 234/234/234 210/210/210
f 210/210/210 234/234/234 235/235/235
f 210/210/210 235/235/235 211/211/211
f 211/211/211 235/235/235 236/236/236
f 211/211/211 236/236/236 212/212/212
f 212/212/212 236/236/236 237/237/237
f 212/212/212 237/237/237 213/213/213
f 213/213/213 237/237/237 238/238/238
f 213/213/213 238/238/238 214/214/214
f 214/214/214 238/238/238 239/239/239
f 214/214/214 239/239/239 215/215/215
f 215/215/215 239/239/239 240/240/240
f 215/215/215 240/240/240 216/216/216
f 216/216/216 240/240/240 241/241/241
f 216/216/216 241/241/241 217/217/217
f 217/217/217 241/241/241 242/242/242
f 217/217/217 242/242/242 218/218/218
f 218/218/218 242/242/242 243/243/243
f 218/218/218 243/243/243 219/219/219
f 219/219/219 243/243/243 244/244/244
f 219/219/219 244/244/244 220/220/220
f 220/220/220 244/244/244 245/245/245
f 220/220/220 245/245/245 221/221/221
f 221/221/221 245/245/245 246/246/246
f 221/221/221 246/246/246 222/222/222
f 222/222/222 246/246/246 247/247/247
f 222/222/222 247/247/247 223/223/223
f 223/223/223 247/247/247 248/248/248
f 223/223/223 248/248/248 224/224/224
f 224/224/224 248/248/248 249/249/249
f 224/224/224 249/249/249 225/225/225
f 225/225/225 249/249/249 250/250/250
f 226/226/226 251/251/251 227/227/227
f 227/227/227 251/251/251 252/252/252
f 227/227/227 252/252/252 228/228/228
f 228/228/228 252/252/252 253/253/253
f 228/228/228 253/253/253 229/229/229
f 229/229/229 253/253/253 254/254/254
f 229/229/229 254/254/254 230/230/230
f 230/230/230 254/254/254 255/255/255
f 230/230/230 255/255/255 231/231/231
f 231/231/231 255/255/255 256/256/256
f 231/231/231 256/256/256 232/232/232
f 232/232/232 256/256/256 257/257/257
f 232/232/232 257/257/257 233/233/233
f 233/233/233 257/257/257 258/258/258
f 233/233/233 258/258/258 234/234/234
f 234/234/234 258/258/258 259/259/259
f 234/234/234 259/259/259 235/235/235
f 235/235/235 259/259/259 260/260/260
f 235/235/235 260/260/260 236/236/236
f 236/236/236 260/260/260 261/261/261
f 236/236/236 261/261/261 237/237/237
f 237/237/237 261/261/261 262/262/262
f 237/237/237 262/262/262 238/238/238
f 238/238/238 262/262/262 263/263/263
f 238/238/238 263/263/263 239/239/239
f 239/239/239 263/263/263 264/264/264
f 239/239/239 264/264/264 240/240/240
f 240/240/240 264/264/264 265/265/265
f 240/240/240 265/265/265 241/241/241
f 241/241/241 265/265/265 266/266/266
f 241/241/241 266/266/266 242/242/242
f 242/242/242 266/266/266 267/267/267
f 242/242/242 267/267/267 243/243/243
f 243/243/243 267/267/267 268/268/268
f 243/243/243 268/268/268 244/244/244
f 244/244/244 268/268/268 269/269/269
f 244/244/244 269/269/269 245/245/245
f 245/245/245 269/269/269 270/270/270
f 245/245/245 270/270/270 246/246/246
f 246/246/246 270/270/270 271/271/271
f 246/246/246 271/271/271 247/247/247
f 247/247/247 271/271/271 272/272/272
f 247/247/247 272/272/272 248/248/248
f 248/248/248 272/272/272 273/273/273
f 248/248/248 273/273/273 249/249/249
f 249/249/249 273/273/273 274/274/274
f 249/249/249 274/274/274 250/250/250
f 250/250/250 274/274/274 275/275/275
f 251/251/251 276/276/276 252/252/252
f 252/252/252 276/276/276 277/277/277
f 252/252/252 277/277/277 253/253/253
f 253/253/253 277/277/277 278/278/278
f 253/253/253 278/278/278 254/254/254
f 254/254/254 278/278/278 279/279/279
f 254/254/254 279/279/279 255/255/255
f 255/255/255 279/279/279 280/280/280
f 255/255/255 280/280/280 256/256/256
f 256/256/256 280/280/280 281/281/281
f 256/256/256 281/281/281 257/257/257
f 257/257/257 281/281/281 282/282/282
f 257/257/257 282/282/282 258/258/258
f 258/258/258 282/282/282 283/283/283
f 258/258/258 283/283/283 259/259/259
f 259/259/259 283/283/283 284/284/284
f 259/259/259 284/284/284 260/260/260
f 260/260/260 284/284/284 285/285/285
f 260/260/260 285/285/285 261/261/261
f 261/261/261 285/285/285 286/286/286
f 261/261/261 286/286/286 262/262/262
f 262/262/262 286/286/286 287/287/287
f 262/262/262 287/287/287 263/263/263
f 263/263/263 287/287/287 288/288/288
f 263/263/263 288/288/288 264/264/264
f 264/264/264 288/288/288 289/289/289
f 264/264/264 289/289/289 265/265/265
f 265/265/265 289/289/289 290/290/290
f 265/265/265 290/290/290 266/266/266
f 266/266/266 290/290/290 291/291/291
f 266/266/266 291/291/291 267/267/267
f 267/267/267 291/291/291 292/292/292
f 267/267/267 292/292/292 268/268/268
f 268/268/268 292/292/292 293/293/293
f 268/268/268 293/293/293 269/269/269
f 269/269/269 293/293/293 294/294/294
f 269/269/269 294/294/294 270/270/270
f 270/270/270 294/294/294 295/295/295
f 270/270/270 295/295/295 271/271/271
f 271/271/271 295/295/295 296/296/296
f 271/271/271 296/296/296 272/272/272
f 272/272/272 296/296/296 297/297/297
f 272/272/272 297/297/297 273/273/273
f 273/273/273 297/297/297 298/298/298
f 273/273/273 298/298/298 274/274/274
f 274/274/274 298/298/298 299/299/299
f 274/274/274 299/299/299 275/275/275
f 275/275/275 299/299/299 300/300/300
f 276/276/276 301/301/301 277/277/277
f 277/277/277 301/301/301 302/302/302
f 277/277/277 302/302/302 278/278/278
f 278/278/278 302/302/302 303/303/303
f 278/278/278 303/303/303 279/279/279
f 279/279/279 303/303/303 304/304/304
f 279/279/279 304/304/304 280/280/280
f 280/280/280 304/304/304 305/305/305
f 280/280/280 305/305/305 281/281/281
f 281/281/281 305/305/305 306/306/306
f 281/281/281 306/306/306 282/282/282
f 282/282/282 306/306/306 307/307/307
f 282/282/282 307/307/307 283/283/283
f 283/283/283 307/307/307 308/308/308
f 283/283/283 308/308/308 284/284/284
f 284/284/284 308/308/308 309/309/309
f 284/284/284 309/309/309 285/285/285
f 285/285/285 309/309/309 310/310/310
f 285/285/285 310/310/310 286/286/286
f 286/286/286 310/310/310 311/311/311
f 286/286/286 311/311/311 287/287/287
f 287/287/287 311/311/311 312/312/312
f 287/287/287 312/312/312 288/288/288
f 288/288/288 312/312/312 313/313/313
f 288/288/288 313/313/313 289/289/289
f 289/289/289 313/313/313 314/314/314
f 289/289/289 314/314/314 290/290/290
f 290/290/290 314/314/314 315/315/315
f 290/290/290 315/315/315 291/291/291
f 291/291/291 315/315/315 316/316/316
f 291/291/291 316/316/316 292/292/292
f 292/292/292 316/316/316 317/317/317
f 292/292/292 317/317/317 293/293/293
f 293/293/293 317/317/317 318/318/318
f 293/293/293 318/318/318 294/294/294
f 294/294/294 318/318/318 319/319/319
f 294/294/294 319/319/319 295/295/295
f 295/295/295 319/319/319 320/320/320
f 295/295/295 320/320/320 296/296/296
f 296/296/296 320/320/320 321/321/321
f 296/296/296 321/321/321 297/297/297
f 297/297/297 321/321/321 322/322/322
f 297/297/297 322/322/322 298/298/298
f 298/298/298 322/322/322 323/323/323
f 298/298/298 323/323/323 299/299/299
f 299/299/299 323/323/323 324/324/324
f 299/299/299 324/324/324 300/300/300
f 300/300/300 324/324/324 325/325/325
f 301/301/301 326/326/326 302/302/302
f 302/302/302 326/326/326 327/327/327
f 302/302/302 327/327/327 303/303/303
f 303/303/303 327/327/327 328/328/328
f 303/303/303 328/328/328 304/304/304
f 304/304/304 328/328/328 329/329/329
f 304/304/304 329/329/329 305/305/305
f 305/305/305 329/329/329 330/330/330
f 305/305/305 330/330/330 306/306/306
f 306/306/306 330/330/330 331/331/331
f 306/306/306 331/331/331 307/307/307
f 307/307/307 331/331/331 332/332/332
f 307/307/307 332/332/332 308/308/308
f 308/308/308 332/332/332 333/333/333
f 308/308/308 333/333/333 309/309/309
f 309/309/309 333/333/333 334/334/334
f 309/309/309 334/334/334 310/310/310
f 310/310/310 334/334/334 335/335/335
f 310/310/310 335/335/335 311/311/311
f 311/311/311 335/335/335 336/336/336
f 311/311/311 336/336/336 312/312/312
f 312/312/312 336/336/336 337/337/337
f 312/312/312 337/337/337 313/313/313
f 313/313/313 337/337/337 338/338/338
f 313/313/313 338/338/338 314/314/314
f 314/314/314 338/338/338 339/339/339
f 314/314/314 339/339/339 315/315/315
f 315/315/315 339/339/339 340/340/340
f 315/315/315 340/340/340 316/316/316
f 316/316/316 340/340/340 341/341/341
f 316/316/316 341/341/341 317/317/317
f 317/317/317 341/341/341 342/342/342
f 317/317/317 342/342/342 318/318/318
f 318/318/318 342/342/342 343/343/343
f 318/318/318 343/343/343 319/319/319
f 319/319/319 343/343/343 344/344/344
f 319/319/319 344/344/344 320/320/320
f 320/320/320 344/344/344 345/345/345
f 320/320/320 345/345/345 321/321/321
f 321/321/321 345/345/345 346/346/346
f 321/321/321 346/346/346 322/322/322
f 322/322/322 346/346/346 347/347/347
f 322/322/322 347/347/347 323/323/323
f 323/323/323 347/347/347 348/348/348
f 323/323/323 348/348/348 324/324/324
f 324/324/324 348/348/348 349/349/349
f 324/324/324 349/349/349 325/325/325
f 325/325/325 349/349/349 350/350/350
f 326/326/326 351/351/351 327/327/327
f 327/327/327 351/351/351 352/352/352
f 327/327/327 352/352/352 328/328/328
f 328/328/328 352/352/352 353/353/353
f 328/328/328 353/353/353 329/329/329
f 329/329/329 353/353/353 354/354/354
f 329/329/329 354/354/354 330/330/330
f 330/330/330 354/354/354 355/355/355
f 330/330/330 355/355/355 331/331/331
f 331/331/331 355/355/355 356/356/356
f 331/331/331 356/356/356 332/332/332
f 332/332/332 356/356/356 357/357/357
f 332/332/332 357/357/357 333/333/333
f 333/333/333 357/357/357 358/358/358
f 333/333/333 358/358/358 334/334/334
f 334/334/334 358/358/358 359/359/359
f 334/334/334 359/359/359 335/335/335
f 335/335/335 359/359/359 360/360/360
f 335/335/335 360/360/360 336/336/336
f 336/336/336 360/360/360 361/361/361
f 336/336/336 361/361/361 337/337/337
f 337/337/337 361/361/361 362/362/362
f 337/337/337 362/362/362 338/338/338
f 338/338/338 362/362/362 363/363/363
f 338/338/338 363/363/363 339/339/339
f 339/339/339 363/363/363 364/364/364
f 339/339/339 364/364/364 340/340/340
f 340/340/340 364/364/364 365/365/365
f 340/340/340 365/365/365 341/341/341
f 341/341/341 365/365/365 366/366/366
f 341/341/341 366/366/366 342/342/342
f 342/342/342 366/366/366 367/367/367
f 342/342/342 367/367/367 343/343/343
f 343/343/343 367/367/367 368/368/368
f 343/343/343 368/368/368 344/344/344
f 344/344/344 368/368/368 369/369/369
f 344/344/344 369/369/369 345/345/345
f 345/345/345 369/369/369 370/370/370
f 345/345/345 370/370/370 346/346/346
f 346/346/346 370/370/370 371/371/371
f 346/346/346 371/371/371 347/347/347
f 347/347/347 371/371/371 372/372/372
f 347/347/347 372/372/372 348/348/348
f 348/348/348 372/372/372 373/373/373
f 348/348/348 373/373/373 349/349/349
f 349/349/349 373/373/373 374/374/374
f 349/349/349 374/374/374 350/350/350
f 350/350/350 374/374/374 375/375/375
f 351/351/351 376/376/376 352/352/352
f 352/352/352 376/376/376 377/377/377
f 352/352/352 377/377/377 353/353/353
f 353/353/353 377/377/377 378/378/378
f 353/353/353 378/378/378 354/354/354
f 354/354/354 378/378/378 379/379/379
f 354/354/354 379/379/379 355/355/355
f 355/355/355 379/379/379 380/380/380
f 355/355/355 380/380/380 356/356/356
f 356/356/356 380/380/380 381/381/381
f 356/356/356 381/381/381 357/357/357
f 357/357/357 381/381/381 382/382/382
f 357/357/357 382/382/382 358/358/358
f 358/358/358 382/382/382 383/383/383
f 358/358/358 383/383/383 359/359/359
f 359/359/359 383/383/383 384/384/384
f 359/359/359 384/384/384 360/360/360
f 360/360/360 384/384/384 385/385/385
f 360/360/360 385/385/385 361/361/361
f 361/361/361 385/385/385 386/386/386
f 361/361/361 386/386/386 362/362/362
f 362/362/362 386/386/386 387/387/387
f 362/362/362 387/387/387 363/363/363
f 363/363/363 387/387/387 388/388/388
f 363/363/363 388/388/388 364/364/364
f 364/364/364 388/388/388 389/389/389
f 364/364/364 389/389/389 365/365/365
f 365/365/365 389/389/389 390/390/390
f 365/365/365 390/390/390 366/366/366
f 366/366/366 390/390/390 391/391/391
f 366/366/366 391/391/391 367/367/367
f 367/367/367 391/391/391 392/392/392
f 367/367/367 392/392/392 368/368/368
f 368/368/368 392/392/392 393/393/393
f 368/368/368 393/393/393 369/369/369
f 369/369/369 393/393/393 394/394/394
f 369/369/369 394/394/394 370/370/370
f 370/370/370 394/394/394 395/395/395
f 370/370/370 395/395/395 371/371/371
f 371/371/371 395/395/395 396/396/396
f 371/371/371 396/396/396 372/372/372
f 372/372/372 396/396/396 397/397/397
f 372/372/372 397/397/397 373/373/373
f 373/373/373 397/397/397 398/398/398
f 373/373/373 398/398/398 374/374/374
f 374/374/374 398/398/398 399/399/399
f 374/374/374 399/399/399 375/375/375
f 375/375/375 399/399/399 400/400/400
f 376/376/376 401/401/401 377/377/377
f 377/377/377 402/402/402 378/378/378
f 378/378/378 403/403/403 379/379/379
f 379/379/379 404/404/404 380/380/380
f 380/380/380 405/405/405 381/381/381
f 381/381/381 406/406/406 382/382/382
f 382/382/382 407/407/407 383/383/383
f 383/383/383 408/408/408 384/384/384
f 384/384/384 409/409/409 385/385/385
f 385/385/385 410/410/410 386/386/386
f 386/386/386 411/411/411 387/387/387
f 387/387/387 412/412/412 388/388/388
f 388/388/388 413/413/413 389/389/389
f 389/389/389 414/414/414 390/390/390
f 390/390/390 415/415/415 391/391/391
f 391/391/391 416/416/416 392/392/392
f 392/392/392 417/417/417 393/393/393
f 393/393/393 418/418/418 394/394/394
f 394/394/394 419/419/419 395/395/395
f 395/395/395 420/420/420 396/396/396
f 396/396/396 421/421/421 397/397/397
f 397/397/397 422/422/422 398/398/398
f 398/398/398 423/423/423 399/399/399
f 399/399/399 424/424/424 400/400/400
