# Shopkeeper / Leg4  (local frame of part 'Leg4', bbox-centred; -Z = front)
v -0.14369 -0.00266 0.04202
v -0.14174 0.13263 0.01953
v -0.14747 0.06470 -0.01311
v -0.14669 -0.08489 0.00460
v -0.13465 -0.08846 0.05731
v -0.11764 -0.23459 0.03811
v -0.13159 -0.16705 -0.03762
v -0.10928 -0.27999 -0.01820
v -0.08630 -0.33851 0.02058
v -0.13879 0.02476 -0.05419
v -0.12667 0.19470 -0.04449
v -0.11362 0.28132 -0.01515
v -0.10670 -0.25207 -0.05132
v -0.12000 -0.06904 -0.08437
v -0.11289 0.25463 0.04660
v -0.12828 0.14338 0.05997
v -0.11915 -0.14541 0.07386
v -0.08489 0.34460 0.03202
v -0.06997 -0.36252 -0.02922
v -0.07213 0.36561 -0.03243
v -0.10432 0.16002 -0.09156
v -0.07873 0.30051 -0.07367
v -0.10107 -0.12560 -0.09857
v -0.08758 0.04792 -0.11943
v -0.06005 -0.32683 -0.07136
v -0.04860 -0.39773 0.01323
v -0.06175 -0.24888 -0.10113
v -0.07371 -0.31787 0.06424
v -0.03617 -0.39147 -0.04218
v -0.02593 -0.36799 -0.06777
v -0.03219 0.36200 -0.07450
v -0.02461 0.39799 -0.04999
v -0.01733 0.42015 -0.02206
v -0.03344 -0.39853 0.03724
v -0.00550 -0.42303 0.00234
v -0.03161 -0.33369 0.08584
v -0.01030 -0.17500 0.13531
v -0.06376 -0.22047 0.10934
v 0.02173 -0.25389 0.11701
v -0.01431 -0.33907 0.08803
v -0.06319 -0.15155 0.12384
v -0.04489 -0.03098 0.14338
v 0.01996 -0.08376 0.14625
v -0.02104 0.04617 0.14857
v -0.08227 -0.03578 0.12445
v 0.04970 0.00911 0.14266
v 0.02527 0.08996 0.14514
v -0.04271 0.18310 0.12890
v 0.00010 0.17657 0.13703
v -0.07302 0.08938 0.12685
v 0.00275 0.27563 0.11592
v -0.04022 0.27974 0.10734
v -0.10715 0.03930 0.10305
v -0.09333 -0.12912 0.10695
v 0.03587 0.24925 0.11795
v -0.00668 0.35231 0.08632
v 0.05401 -0.11812 0.13332
v -0.09071 0.21022 0.09472
v -0.05831 0.32366 0.08079
v 0.02968 0.34196 0.08698
v 0.07705 0.18759 0.11209
v 0.03017 -0.35259 0.07715
v 0.05848 -0.25963 0.10194
v 0.08635 0.03866 0.12234
v 0.00605 0.39782 0.05657
v 0.09608 -0.05333 0.11358
v 0.07710 0.25562 0.09477
v 0.08870 -0.17207 0.10343
v 0.06198 -0.33171 0.06922
v 0.05905 0.35093 0.06504
v 0.11034 0.14296 0.09008
v 0.09364 0.23168 0.08738
v -0.07371 -0.31787 0.06424
v 0.09736 -0.26644 0.06317
v 0.04475 0.40484 0.02333
v 0.02948 -0.40756 0.02862
v -0.00095 -0.40269 0.04636
v -0.03344 -0.39853 0.03724
v -0.11915 -0.14541 0.07386
v 0.02089 0.42303 0.01126
v -0.00550 -0.42303 0.00234
v 0.09293 -0.31763 0.03383
v 0.12183 -0.24216 -0.01677
v 0.12781 -0.20251 0.03324
v 0.08447 -0.34933 -0.00054
v 0.14390 -0.12020 -0.00026
v 0.13348 -0.09818 0.05802
v 0.09736 -0.26644 0.06317
v 0.14020 0.06007 0.04663
v 0.14747 0.02141 0.01634
v 0.11340 -0.17590 0.07530
v 0.12444 -0.01287 0.08230
v 0.14618 0.04073 -0.02232
v 0.13903 0.13830 0.03454
v 0.14208 0.14862 -0.00182
v 0.12920 -0.18694 -0.03794
v 0.12342 0.24152 0.02617
v 0.13107 0.16981 0.04780
v 0.13255 0.19517 -0.02730
v 0.11876 0.26242 -0.02022
v 0.13605 -0.08690 -0.05265
v 0.11034 0.14296 0.09008
v 0.10491 0.27691 0.05070
v 0.08480 0.35361 0.01571
v 0.09364 0.23168 0.08738
v 0.13259 0.08322 -0.06184
v 0.09608 -0.05333 0.11358
v 0.05988 -0.37830 0.03108
v 0.08870 -0.17207 0.10343
v 0.08167 -0.33402 -0.04111
v 0.11607 0.23095 -0.05376
v 0.10421 -0.06565 -0.10382
v 0.05905 0.35093 0.06504
v 0.06198 -0.33171 0.06922
v 0.08635 0.03866 0.12234
v 0.04811 -0.39838 -0.01582
v 0.10881 -0.18925 -0.07713
v 0.11851 0.10659 -0.08301
v 0.07710 0.25562 0.09477
v 0.04475 0.40484 0.02333
v 0.06834 0.38210 -0.01050
v 0.07642 0.33308 -0.05784
v 0.06786 -0.30320 -0.07793
v 0.09477 0.11048 -0.10872
v 0.08653 0.21166 -0.09812
v 0.06696 0.29432 -0.08788
v 0.03371 0.40413 -0.03759
v 0.02948 -0.40756 0.02862
v 0.04129 -0.35656 -0.06834
v 0.02714 -0.40749 -0.02971
v 0.02089 0.42303 0.01126
v -0.00550 -0.42303 0.00234
v 0.04374 0.20146 -0.12488
v -0.00403 0.23539 -0.12538
v 0.02328 0.28391 -0.11106
v -0.00019 0.15442 -0.13931
v 0.04690 0.08920 -0.13876
v -0.01561 0.04379 -0.14857
v 0.06592 0.00725 -0.13460
v 0.03023 -0.03801 -0.14661
v -0.03524 -0.04096 -0.14501
v -0.02257 -0.13338 -0.13888
v 0.04489 -0.11002 -0.13673
v 0.00193 -0.25211 -0.11810
v -0.05383 0.13445 -0.13098
v -0.00771 0.34757 -0.08866
v -0.04809 0.25979 -0.10958
v -0.06449 -0.01653 -0.13479
v -0.08758 0.04792 -0.11943
v -0.06142 -0.15758 -0.12223
v -0.06175 -0.24888 -0.10113
v -0.02900 -0.28205 -0.10557
v 0.02183 -0.31743 -0.09518
v -0.10107 -0.12560 -0.09857
v -0.03219 0.36200 -0.07450
v -0.02593 -0.36799 -0.06777
v -0.06005 -0.32683 -0.07136
v -0.10432 0.16002 -0.09156
v -0.07873 0.30051 -0.07367
v -0.12000 -0.06904 -0.08437
v 0.00300 -0.39636 -0.05148
v 0.06735 -0.24174 -0.10086
v 0.07973 -0.12994 -0.11700
v 0.02417 0.37453 -0.07002
v 0.04129 -0.35656 -0.06834
v 0.04648 0.35697 -0.07052
v 0.10421 -0.06565 -0.10382
v 0.06786 -0.30320 -0.07793
v 0.06696 0.29432 -0.08788
v 0.08653 0.21166 -0.09812
v 0.09477 0.11048 -0.10872
v -0.02461 0.39799 -0.04999
v 0.10881 -0.18925 -0.07713
v -0.03617 -0.39147 -0.04218
v 0.02714 -0.40749 -0.02971
v 0.07642 0.33308 -0.05784
v 0.03371 0.40413 -0.03759
v -0.01733 0.42015 -0.02206
v -0.00550 -0.42303 0.00234
v 0.02089 0.42303 0.01126
v -0.01431 -0.33907 0.08803
v -0.03161 -0.33369 0.08584
v 0.03017 -0.35259 0.07715
v 0.02089 0.42303 0.01126
v -0.01733 0.42015 -0.02206
v -0.02332 0.41750 0.02409
v -0.04738 0.40467 0.01464
v 0.00605 0.39782 0.05657
v -0.04733 0.37495 0.05657
v -0.00668 0.35231 0.08632
v -0.05831 0.32366 0.08079
v -0.08489 0.34460 0.03202
v -0.11289 0.25463 0.04660
v -0.09071 0.21022 0.09472
v -0.07213 0.36561 -0.03243
v -0.12828 0.14338 0.05997
v -0.10715 0.03930 0.10305
v -0.14369 -0.00266 0.04202
v -0.13465 -0.08846 0.05731
v -0.09333 -0.12912 0.10695
v -0.11915 -0.14541 0.07386
v -0.08227 -0.03578 0.12445
v -0.06376 -0.22047 0.10934
vt 0.45347 0.97695
vt 0.32979 0.95981
vt 0.39067 0.92918
vt 0.52543 0.93843
vt 0.53332 0.98647
vt 0.66215 0.95630
vt 0.59650 0.89538
vt 0.69764 0.90437
vt 0.75459 0.93268
vt 0.42483 0.89000
vt 0.27196 0.90226
vt 0.19306 0.92868
vt 0.67265 0.87692
vt 0.50789 0.85432
vt 0.21559 0.98553
vt 0.31921 0.99836
vt 0.58760 0.99836
vt 0.12855 0.97007
vt 0.77527 0.88729
vt 0.10780 0.90959
vt 0.29938 0.85249
vt 0.16759 0.86938
vt 0.56038 0.83407
vt 0.39934 0.81743
vt 0.74680 0.84619
vt 0.81460 0.92036
vt 0.67633 0.81749
vt 0.74685 0.97628
vt 0.81245 0.86908
vt 0.79568 0.83908
vt 0.09678 0.85651
vt 0.06130 0.87780
vt 0.03512 0.89986
vt 0.82715 0.94231
vt 0.85786 0.90498
vt 0.72231 0.38074
vt 0.57607 0.39302
vt 0.62230 0.34565
vt 0.64608 0.42369
vt 0.72564 0.39581
vt 0.55871 0.34420
vt 0.44902 0.35858
vt 0.49410 0.41729
vt 0.37965 0.37870
vt 0.45495 0.32133
vt 0.41080 0.44219
vt 0.33967 0.41820
vt 0.25748 0.35599
vt 0.26308 0.39425
vt 0.34101 0.32957
vt 0.17307 0.39374
vt 0.16882 0.35486
vt 0.38577 0.29183
vt 0.54172 0.31137
vt 0.19546 0.42403
vt 0.09828 0.38248
vt 0.52473 0.44924
vt 0.22967 0.30486
vt 0.12387 0.33367
vt 0.10703 0.41624
vt 0.24782 0.46489
vt 0.73857 0.43474
vt 0.65344 0.45776
vt 0.38256 0.47882
vt 0.04706 0.39608
vt 0.46695 0.49159
vt 0.18350 0.46541
vt 0.57569 0.48701
vt 0.72447 0.46649
vt 0.09075 0.44697
vt 0.28416 0.50493
vt 0.20364 0.48416
vt 0.71938 0.33706
vt 0.66797 0.50493
vt 0.02520 0.43934
vt 0.80469 0.43756
vt 0.79061 0.40901
vt 0.79463 0.37890
vt 0.57214 0.27138
vt 0.00167 0.41971
vt 0.83445 0.40571
vt 0.69980 0.65432
vt 0.62559 0.69496
vt 0.59237 0.64948
vt 0.72627 0.68631
vt 0.51708 0.67590
vt 0.50063 0.62309
vt 0.65664 0.62254
vt 0.35856 0.62718
vt 0.39178 0.65586
vt 0.57271 0.60797
vt 0.42568 0.59557
vt 0.37297 0.68872
vt 0.28842 0.63490
vt 0.27844 0.66638
vt 0.57598 0.71206
vt 0.19658 0.63948
vt 0.26073 0.62193
vt 0.23608 0.68682
vt 0.17679 0.67864
vt 0.48584 0.72123
vt 0.28373 0.57890
vt 0.16258 0.61612
vt 0.09183 0.64595
vt 0.20051 0.57856
vt 0.33274 0.72295
vt 0.46504 0.55993
vt 0.76111 0.66108
vt 0.57422 0.57390
vt 0.71308 0.72143
vt 0.20154 0.71015
vt 0.46535 0.77467
vt 0.08498 0.59676
vt 0.72648 0.61879
vt 0.38033 0.54441
vt 0.77883 0.70356
vt 0.57986 0.75166
vt 0.31036 0.74362
vt 0.17402 0.56717
vt 0.03351 0.63560
vt 0.06228 0.66696
vt 0.10328 0.71277
vt 0.69055 0.75978
vt 0.30368 0.77467
vt 0.21071 0.75958
vt 0.13305 0.74729
vt 0.02651 0.69321
vt 0.79976 0.66395
vt 0.74695 0.75549
vt 0.79724 0.71941
vt 0.00502 0.64798
vt 0.83445 0.69101
vt 0.60046 0.18170
vt 0.63267 0.14108
vt 0.67606 0.16756
vt 0.56004 0.13940
vt 0.49954 0.17715
vt 0.46307 0.11882
vt 0.42584 0.18924
vt 0.38837 0.15353
vt 0.38978 0.09624
vt 0.30743 0.10179
vt 0.32366 0.16258
vt 0.19892 0.11641
vt 0.54696 0.09003
vt 0.73766 0.14291
vt 0.65932 0.10299
vt 0.41299 0.07042
vt 0.47285 0.04990
vt 0.28640 0.06415
vt 0.20174 0.05707
vt 0.17185 0.08750
vt 0.13638 0.13126
vt 0.31527 0.02244
vt 0.75657 0.12083
vt 0.08625 0.08526
vt 0.12422 0.05342
vt 0.57881 0.03698
vt 0.70563 0.07118
vt 0.36766 0.00164
vt 0.05613 0.11123
vt 0.20100 0.17733
vt 0.30153 0.19521
vt 0.76467 0.17384
vt 0.09298 0.14871
vt 0.74918 0.19387
vt 0.35651 0.22747
vt 0.14115 0.17748
vt 0.68903 0.21147
vt 0.61110 0.22701
vt 0.51722 0.22862
vt 0.79727 0.13206
vt 0.24003 0.22862
vt 0.05381 0.07447
vt 0.03369 0.13302
vt 0.73341 0.22738
vt 0.80362 0.18796
vt 0.82996 0.14261
vt 0.00167 0.10071
vt 0.85452 0.18373
vt 0.00502 0.76111
vt 0.01171 0.74507
vt 0.01171 0.80428
vt 0.91689 0.64309
vt 0.95876 0.63584
vt 0.93239 0.61120
vt 0.94820 0.59891
vt 0.89574 0.60396
vt 0.92508 0.56872
vt 0.88127 0.56051
vt 0.91415 0.52346
vt 0.96125 0.54364
vt 0.96893 0.46111
vt 0.92271 0.41914
vt 0.99833 0.58555
vt 0.97119 0.35840
vt 0.92891 0.25985
vt 0.99833 0.22247
vt 0.98423 0.14050
vt 0.92319 0.09945
vt 0.96472 0.08539
vt 0.90015 0.18736
vt 0.90618 0.00822
vn -0.9580 -0.0022 0.2867
vn -0.9854 0.1036 0.1353
vn -0.9943 0.0483 -0.0946
vn -0.9970 -0.0718 0.0275
vn -0.9139 -0.0748 0.3990
vn -0.9230 -0.2377 0.3025
vn -0.9438 -0.1588 -0.2897
vn -0.9392 -0.3007 -0.1657
vn -0.8828 -0.4230 0.2043
vn -0.9269 0.0194 -0.3749
vn -0.9268 0.1668 -0.3364
vn -0.9482 0.2886 -0.1329
vn -0.8627 -0.2568 -0.4356
vn -0.8101 -0.0644 -0.5827
vn -0.8947 0.2423 0.3753
vn -0.8944 0.1131 0.4328
vn -0.8369 -0.1338 0.5308
vn -0.8432 0.4349 0.3161
vn -0.7952 -0.5033 -0.3382
vn -0.7838 0.5065 -0.3592
vn -0.7379 0.1299 -0.6623
vn -0.6879 0.3214 -0.6507
vn -0.7042 -0.1202 -0.6998
vn -0.6004 0.0399 -0.7987
vn -0.5944 -0.3866 -0.7051
vn -0.6978 -0.6936 0.1789
vn -0.5072 -0.2452 -0.8262
vn -0.7035 -0.3672 0.6085
vn -0.4964 -0.6487 -0.5769
vn -0.3097 -0.5254 -0.7925
vn -0.3512 0.4918 -0.7967
vn -0.3309 0.6740 -0.6605
vn -0.2896 0.8851 -0.3644
vn -0.4864 -0.6991 0.5241
vn -0.1191 -0.9923 0.0325
vn -0.3230 -0.4059 0.8549
vn -0.0811 -0.1651 0.9829
vn -0.4944 -0.2152 0.8422
vn 0.1741 -0.2551 0.9511
vn -0.1533 -0.4213 0.8939
vn -0.4534 -0.1431 0.8797
vn -0.3171 -0.0305 0.9479
vn 0.1343 -0.0892 0.9869
vn -0.1505 0.0460 0.9875
vn -0.5672 -0.0323 0.8229
vn 0.3403 0.0080 0.9403
vn 0.1696 0.0863 0.9817
vn -0.3166 0.1527 0.9362
vn -0.0044 0.1475 0.9891
vn -0.5098 0.0787 0.8567
vn 0.0166 0.2797 0.9599
vn -0.3342 0.2850 0.8984
vn -0.7236 0.0324 0.6894
vn -0.6517 -0.1187 0.7491
vn 0.2737 0.2384 0.9318
vn -0.0743 0.4502 0.8899
vn 0.3797 -0.1176 0.9176
vn -0.6756 0.1805 0.7149
vn -0.5353 0.3739 0.7574
vn 0.2845 0.4195 0.8620
vn 0.5502 0.1572 0.8201
vn 0.3184 -0.4645 0.8264
vn 0.4788 -0.2614 0.8381
vn 0.5920 0.0318 0.8053
vn 0.0695 0.6649 0.7437
vn 0.6586 -0.0502 0.7508
vn 0.6033 0.2504 0.7572
vn 0.6382 -0.1588 0.7533
vn 0.6096 -0.4004 0.6842
vn 0.5994 0.4473 0.6638
vn 0.7648 0.1081 0.6351
vn 0.7067 0.2152 0.6740
vn -0.7035 -0.3672 0.6085
vn 0.7999 -0.2759 0.5330
vn 0.6172 0.7206 0.3159
vn 0.4490 -0.7794 0.4369
vn -0.0247 -0.7329 0.6799
vn -0.4864 -0.6991 0.5241
vn -0.8369 -0.1338 0.5308
vn 0.3387 0.9240 0.1776
vn -0.1191 -0.9923 0.0325
vn 0.8727 -0.3703 0.3182
vn 0.9582 -0.2484 -0.1420
vn 0.9470 -0.1943 0.2558
vn 0.8901 -0.4556 -0.0127
vn 0.9962 -0.0872 -0.0064
vn 0.9132 -0.0711 0.4013
vn 0.7999 -0.2759 0.5330
vn 0.9506 0.0297 0.3089
vn 0.9944 0.0131 0.1052
vn 0.8119 -0.1618 0.5610
vn 0.8429 -0.0104 0.5379
vn 0.9877 0.0207 -0.1551
vn 0.9660 0.0960 0.2402
vn 0.9939 0.1091 -0.0175
vn 0.9402 -0.1758 -0.2919
vn 0.9511 0.2358 0.1993
vn 0.9291 0.1372 0.3434
vn 0.9632 0.1671 -0.2103
vn 0.9484 0.2693 -0.1676
vn 0.9289 -0.0568 -0.3660
vn 0.7648 0.1081 0.6351
vn 0.8613 0.2907 0.4168
vn 0.8767 0.4558 0.1540
vn 0.7067 0.2152 0.6740
vn 0.9021 0.0471 -0.4289
vn 0.6586 -0.0502 0.7508
vn 0.7293 -0.5719 0.3757
vn 0.6382 -0.1588 0.7533
vn 0.8107 -0.4096 -0.4184
vn 0.8789 0.2139 -0.4264
vn 0.7149 -0.0531 -0.6973
vn 0.5994 0.4473 0.6638
vn 0.6096 -0.4004 0.6842
vn 0.5920 0.0318 0.8053
vn 0.6771 -0.6975 -0.2346
vn 0.7908 -0.1793 -0.5852
vn 0.8114 0.0724 -0.5800
vn 0.6033 0.2504 0.7572
vn 0.6172 0.7206 0.3159
vn 0.8107 0.5709 -0.1298
vn 0.7346 0.3989 -0.5488
vn 0.6113 -0.3346 -0.7172
vn 0.6552 0.0860 -0.7506
vn 0.6410 0.1821 -0.7457
vn 0.5758 0.3063 -0.7580
vn 0.4593 0.7185 -0.5224
vn 0.4490 -0.7794 0.4369
vn 0.4466 -0.4800 -0.7551
vn 0.4123 -0.7792 -0.4722
vn 0.3387 0.9240 0.1776
vn -0.1191 -0.9923 0.0325
vn 0.3218 0.1732 -0.9308
vn -0.0363 0.2096 -0.9771
vn 0.1904 0.2821 -0.9403
vn -0.0064 0.1320 -0.9912
vn 0.3265 0.0828 -0.9415
vn -0.1122 0.0431 -0.9928
vn 0.4582 0.0063 -0.8889
vn 0.2067 -0.0401 -0.9776
vn -0.2492 -0.0438 -0.9675
vn -0.1672 -0.1348 -0.9767
vn 0.3109 -0.1134 -0.9437
vn 0.0100 -0.2499 -0.9682
vn -0.3793 0.1144 -0.9181
vn -0.0846 0.4418 -0.8931
vn -0.3899 0.2441 -0.8879
vn -0.4485 -0.0157 -0.8936
vn -0.6004 0.0399 -0.7987
vn -0.4507 -0.1510 -0.8798
vn -0.5072 -0.2452 -0.8262
vn -0.2604 -0.2923 -0.9202
vn 0.2015 -0.3635 -0.9095
vn -0.7042 -0.1202 -0.6998
vn -0.3512 0.4918 -0.7967
vn -0.3097 -0.5254 -0.7925
vn -0.5944 -0.3866 -0.7051
vn -0.7379 0.1299 -0.6623
vn -0.6879 0.3214 -0.6507
vn -0.8101 -0.0644 -0.5827
vn 0.0320 -0.6830 -0.7297
vn 0.5283 -0.2391 -0.8147
vn 0.5552 -0.1216 -0.8228
vn 0.2684 0.5434 -0.7954
vn 0.4466 -0.4800 -0.7551
vn 0.4854 0.4729 -0.7354
vn 0.7149 -0.0531 -0.6973
vn 0.6113 -0.3346 -0.7172
vn 0.5758 0.3063 -0.7580
vn 0.6410 0.1821 -0.7457
vn 0.6552 0.0860 -0.7506
vn -0.3309 0.6740 -0.6605
vn 0.7908 -0.1793 -0.5852
vn -0.4964 -0.6487 -0.5769
vn 0.4123 -0.7792 -0.4722
vn 0.7346 0.3989 -0.5488
vn 0.4593 0.7185 -0.5224
vn -0.2896 0.8851 -0.3644
vn -0.1191 -0.9923 0.0325
vn 0.3387 0.9240 0.1776
vn -0.1533 -0.4213 0.8939
vn -0.3230 -0.4059 0.8549
vn 0.3184 -0.4645 0.8264
vn 0.3387 0.9240 0.1776
vn -0.2896 0.8851 -0.3644
vn -0.3737 0.8508 0.3695
vn -0.6607 0.7250 0.1946
vn 0.0695 0.6649 0.7437
vn -0.5373 0.5415 0.6466
vn -0.0743 0.4502 0.8899
vn -0.5353 0.3739 0.7574
vn -0.8432 0.4349 0.3161
vn -0.8947 0.2423 0.3753
vn -0.6756 0.1805 0.7149
vn -0.7838 0.5065 -0.3592
vn -0.8944 0.1131 0.4328
vn -0.7236 0.0324 0.6894
vn -0.9580 -0.0022 0.2867
vn -0.9139 -0.0748 0.3990
vn -0.6517 -0.1187 0.7491
vn -0.8369 -0.1338 0.5308
vn -0.5672 -0.0323 0.8229
vn -0.4944 -0.2152 0.8422
f 1/1/1 2/2/2 3/3/3
f 1/1/1 3/3/3 4/4/4
f 5/5/5 1/1/1 4/4/4
f 4/4/4 10/10/10 7/7/7
f 3/3/3 10/10/10 4/4/4
f 16/16/16 2/2/2 1/1/1
f 11/11/11 3/3/3 2/2/2
f 4/4/4 7/7/7 6/6/6
f 4/4/4 6/6/6 5/5/5
f 10/10/10 14/14/14 7/7/7
f 198/198/198 199/199/199 197/197/197
f 3/3/3 11/11/11 10/10/10
f 2/2/2 12/12/12 11/11/11
f 7/7/7 8/8/8 6/6/6
f 5/5/5 6/6/6 17/17/17
f 196/196/196 198/198/198 197/197/197
f 16/16/16 15/15/15 2/2/2
f 12/12/12 2/2/2 15/15/15
f 201/201/201 200/200/200 199/199/199
f 10/10/10 21/21/21 14/14/14
f 11/11/11 21/21/21 10/10/10
f 196/196/196 197/197/197 194/194/194
f 7/7/7 13/13/13 8/8/8
f 14/14/14 23/23/23 7/7/7
f 197/197/197 199/199/199 200/200/200
f 21/21/21 24/24/24 14/14/14
f 196/196/196 194/194/194 193/193/193
f 18/18/18 12/12/12 15/15/15
f 12/12/12 22/22/22 11/11/11
f 9/9/9 6/6/6 8/8/8
f 7/7/7 23/23/23 13/13/13
f 203/203/203 200/200/200 201/201/201
f 160/160/160 148/148/148 154/154/154
f 11/11/11 22/22/22 21/21/21
f 9/9/9 28/28/28 6/6/6
f 25/25/25 19/19/19 8/8/8
f 13/13/13 25/25/25 8/8/8
f 28/28/28 17/17/17 6/6/6
f 73/73/73 38/38/38 79/79/79
f 23/23/23 27/27/27 13/13/13
f 202/202/202 197/197/197 200/200/200
f 149/149/149 148/148/148 160/160/160
f 50/50/50 58/58/58 53/53/53
f 20/20/20 22/22/22 12/12/12
f 13/13/13 27/27/27 25/25/25
f 154/154/154 150/150/150 151/151/151
f 191/191/191 192/192/192 193/193/193
f 191/191/191 193/193/193 194/194/194
f 20/20/20 12/12/12 18/18/18
f 8/8/8 19/19/19 9/9/9
f 45/45/45 54/54/54 41/41/41
f 149/149/149 158/158/158 145/145/145
f 19/19/19 26/26/26 9/9/9
f 26/26/26 28/28/28 9/9/9
f 41/41/41 54/54/54 38/38/38
f 154/154/154 141/141/141 150/150/150
f 148/148/148 141/141/141 154/154/154
f 42/42/42 53/53/53 45/45/45
f 159/159/159 147/147/147 158/158/158
f 52/52/52 59/59/59 58/58/58
f 189/189/189 192/192/192 191/191/191
f 44/44/44 53/53/53 42/42/42
f 48/48/48 58/58/58 50/50/50
f 147/147/147 145/145/145 158/158/158
f 192/192/192 187/187/187 195/195/195
f 26/26/26 34/34/34 28/28/28
f 30/30/30 29/29/29 19/19/19
f 30/30/30 19/19/19 25/25/25
f 36/36/36 38/38/38 73/73/73
f 152/152/152 157/157/157 151/151/151
f 149/149/149 145/145/145 138/138/138
f 50/50/50 53/53/53 44/44/44
f 20/20/20 31/31/31 22/22/22
f 187/187/187 192/192/192 189/189/189
f 19/19/19 29/29/29 26/26/26
f 78/78/78 36/36/36 73/73/73
f 150/150/150 142/142/142 151/151/151
f 42/42/42 45/45/45 41/41/41
f 149/149/149 138/138/138 148/148/148
f 52/52/52 58/58/58 48/48/48
f 20/20/20 33/33/33 32/32/32
f 187/187/187 185/185/185 195/195/195
f 150/150/150 141/141/141 142/142/142
f 44/44/44 48/48/48 50/50/50
f 159/159/159 155/155/155 147/147/147
f 32/32/32 31/31/31 20/20/20
f 189/189/189 186/186/186 187/187/187
f 144/144/144 152/152/152 151/151/151
f 38/38/38 37/37/37 41/41/41
f 37/37/37 42/42/42 41/41/41
f 147/147/147 134/134/134 136/136/136
f 26/26/26 29/29/29 35/35/35
f 26/26/26 35/35/35 34/34/34
f 77/77/77 36/36/36 78/78/78
f 148/148/148 138/138/138 141/141/141
f 147/147/147 136/136/136 145/145/145
f 191/191/191 190/190/190 189/189/189
f 146/146/146 155/155/155 172/172/172
f 188/188/188 186/186/186 189/189/189
f 186/186/186 185/185/185 187/187/187
f 161/161/161 174/174/174 156/156/156
f 152/152/152 156/156/156 157/157/157
f 142/142/142 144/144/144 151/151/151
f 42/42/42 37/37/37 43/43/43
f 48/48/48 51/51/51 52/52/52
f 134/134/134 147/147/147 146/146/146
f 147/147/147 155/155/155 146/146/146
f 59/59/59 52/52/52 56/56/56
f 188/188/188 189/189/189 190/190/190
f 179/179/179 174/174/174 161/161/161
f 81/81/81 77/77/77 78/78/78
f 153/153/153 152/152/152 144/144/144
f 36/36/36 37/37/37 38/38/38
f 136/136/136 138/138/138 145/145/145
f 49/49/49 51/51/51 48/48/48
f 62/62/62 36/36/36 77/77/77
f 181/181/181 182/182/182 183/183/183
f 36/36/36 40/40/40 39/39/39
f 141/141/141 140/140/140 142/142/142
f 44/44/44 47/47/47 48/48/48
f 146/146/146 135/135/135 134/134/134
f 51/51/51 56/56/56 52/52/52
f 184/184/184 185/185/185 186/186/186
f 179/179/179 161/161/161 175/175/175
f 153/153/153 161/161/161 156/156/156
f 152/152/152 153/153/153 156/156/156
f 39/39/39 37/37/37 36/36/36
f 44/44/44 42/42/42 43/43/43
f 47/47/47 49/49/49 48/48/48
f 164/164/164 172/172/172 177/177/177
f 178/178/178 177/177/177 172/172/172
f 186/186/186 188/188/188 184/184/184
f 46/46/46 47/47/47 44/44/44
f 146/146/146 172/172/172 164/164/164
f 81/81/81 76/76/76 77/77/77
f 153/153/153 165/165/165 161/161/161
f 40/40/40 62/62/62 39/39/39
f 140/140/140 141/141/141 138/138/138
f 136/136/136 137/137/137 138/138/138
f 134/134/134 133/133/133 136/136/136
f 55/55/55 51/51/51 49/49/49
f 60/60/60 65/65/65 56/56/56
f 178/178/178 180/180/180 177/177/177
f 76/76/76 62/62/62 77/77/77
f 142/142/142 143/143/143 144/144/144
f 140/140/140 143/143/143 142/142/142
f 44/44/44 43/43/43 46/46/46
f 133/133/133 134/134/134 135/135/135
f 56/56/56 51/51/51 60/60/60
f 132/132/132 130/130/130 116/116/116
f 132/132/132 116/116/116 128/128/128
f 164/164/164 135/135/135 146/146/146
f 80/80/80 65/65/65 75/75/75
f 144/144/144 162/162/162 153/153/153
f 43/43/43 37/37/37 39/39/39
f 138/138/138 139/139/139 140/140/140
f 137/137/137 139/139/139 138/138/138
f 137/137/137 136/136/136 133/133/133
f 51/51/51 55/55/55 60/60/60
f 65/65/65 60/60/60 70/70/70
f 161/161/161 165/165/165 175/175/175
f 62/62/62 76/76/76 69/69/69
f 153/153/153 168/168/168 165/165/165
f 43/43/43 39/39/39 57/57/57
f 140/140/140 139/139/139 143/143/143
f 47/47/47 61/61/61 49/49/49
f 61/61/61 55/55/55 49/49/49
f 166/166/166 169/169/169 135/135/135
f 164/164/164 166/166/166 135/135/135
f 177/177/177 166/166/166 164/164/164
f 131/131/131 121/121/121 127/127/127
f 108/108/108 128/128/128 116/116/116
f 108/108/108 114/114/114 128/128/128
f 63/63/63 57/57/57 39/39/39
f 163/163/163 162/162/162 144/144/144
f 143/143/143 163/163/163 144/144/144
f 46/46/46 43/43/43 57/57/57
f 75/75/75 65/65/65 70/70/70
f 121/121/121 131/131/131 120/120/120
f 116/116/116 130/130/130 129/129/129
f 110/110/110 116/116/116 129/129/129
f 162/162/162 168/168/168 153/153/153
f 39/39/39 62/62/62 63/63/63
f 55/55/55 67/67/67 60/60/60
f 67/67/67 70/70/70 60/60/60
f 177/177/177 176/176/176 166/166/166
f 67/67/67 55/55/55 61/61/61
f 135/135/135 170/170/170 133/133/133
f 135/135/135 169/169/169 170/170/170
f 104/104/104 120/120/120 113/113/113
f 104/104/104 121/121/121 120/120/120
f 85/85/85 108/108/108 116/116/116
f 110/110/110 129/129/129 123/123/123
f 69/69/69 63/63/63 62/62/62
f 68/68/68 57/57/57 63/63/63
f 167/167/167 143/143/143 139/139/139
f 66/66/66 46/46/46 57/57/57
f 64/64/64 61/61/61 47/47/47
f 133/133/133 170/170/170 137/137/137
f 166/166/166 176/176/176 169/169/169
f 121/121/121 122/122/122 127/127/127
f 85/85/85 116/116/116 110/110/110
f 82/82/82 114/114/114 108/108/108
f 137/137/137 171/171/171 139/139/139
f 64/64/64 47/47/47 46/46/46
f 85/85/85 82/82/82 108/108/108
f 74/74/74 63/63/63 69/69/69
f 74/74/74 68/68/68 63/63/63
f 173/173/173 168/168/168 162/162/162
f 173/173/173 162/162/162 163/163/163
f 66/66/66 57/57/57 68/68/68
f 167/167/167 163/163/163 143/143/143
f 61/61/61 64/64/64 71/71/71
f 137/137/137 170/170/170 171/171/171
f 104/104/104 113/113/113 103/103/103
f 110/110/110 123/123/123 117/117/117
f 167/167/167 173/173/173 163/163/163
f 64/64/64 46/46/46 66/66/66
f 103/103/103 119/119/119 105/105/105
f 103/103/103 113/113/113 119/119/119
f 110/110/110 83/83/83 85/85/85
f 82/82/82 88/88/88 114/114/114
f 71/71/71 67/67/67 61/61/61
f 111/111/111 125/125/125 126/126/126
f 122/122/122 111/111/111 126/126/126
f 111/111/111 122/122/122 104/104/104
f 122/122/122 121/121/121 104/104/104
f 85/85/85 83/83/83 82/82/82
f 84/84/84 88/88/88 82/82/82
f 91/91/91 109/109/109 88/88/88
f 87/87/87 107/107/107 109/109/109
f 171/171/171 167/167/167 139/139/139
f 71/71/71 72/72/72 67/67/67
f 97/97/97 104/104/104 103/103/103
f 100/100/100 111/111/111 104/104/104
f 117/117/117 83/83/83 110/110/110
f 117/117/117 96/96/96 83/83/83
f 92/92/92 115/115/115 107/107/107
f 92/92/92 102/102/102 115/115/115
f 102/102/102 103/103/103 105/105/105
f 100/100/100 104/104/104 97/97/97
f 82/82/82 83/83/83 84/84/84
f 84/84/84 91/91/91 88/88/88
f 87/87/87 109/109/109 91/91/91
f 106/106/106 112/112/112 124/124/124
f 118/118/118 106/106/106 124/124/124
f 124/124/124 125/125/125 111/111/111
f 97/97/97 103/103/103 102/102/102
f 87/87/87 91/91/91 84/84/84
f 101/101/101 117/117/117 112/112/112
f 87/87/87 92/92/92 107/107/107
f 111/111/111 106/106/106 118/118/118
f 124/124/124 111/111/111 118/118/118
f 98/98/98 102/102/102 94/94/94
f 97/97/97 102/102/102 98/98/98
f 111/111/111 100/100/100 99/99/99
f 83/83/83 86/86/86 84/84/84
f 96/96/96 117/117/117 101/101/101
f 112/112/112 93/93/93 101/101/101
f 112/112/112 106/106/106 93/93/93
f 89/89/89 102/102/102 92/92/92
f 94/94/94 102/102/102 89/89/89
f 100/100/100 97/97/97 99/99/99
f 83/83/83 96/96/96 86/86/86
f 86/86/86 87/87/87 84/84/84
f 111/111/111 99/99/99 106/106/106
f 106/106/106 99/99/99 95/95/95
f 94/94/94 95/95/95 97/97/97
f 94/94/94 97/97/97 98/98/98
f 95/95/95 99/99/99 97/97/97
f 101/101/101 86/86/86 96/96/96
f 101/101/101 93/93/93 86/86/86
f 87/87/87 89/89/89 92/92/92
f 86/86/86 89/89/89 87/87/87
f 86/86/86 93/93/93 90/90/90
f 90/90/90 89/89/89 86/86/86
f 93/93/93 89/89/89 90/90/90
f 89/89/89 93/93/93 94/94/94
f 95/95/95 93/93/93 106/106/106
f 93/93/93 95/95/95 94/94/94
