# Shopkeeper / Leg3  (local frame of part 'Leg3', bbox-centred; -Z = front)
v -0.00637 0.04949 0.15225
v -0.01306 -0.04686 0.15188
v 0.02342 -0.05910 0.15008
v 0.04643 -0.00015 0.14619
v 0.01085 0.11011 0.14682
v 0.03836 0.08610 0.14469
v 0.05318 0.12885 0.13468
v 0.04457 -0.12364 0.13944
v 0.00546 -0.16351 0.14114
v 0.03595 -0.23093 0.12320
v -0.00322 -0.22411 0.12988
v -0.03922 -0.03971 0.14730
v -0.00302 -0.27593 0.11602
v -0.04534 -0.12397 0.13883
v -0.03987 -0.20526 0.12756
v -0.04270 0.11917 0.13956
v -0.04275 0.18773 0.12878
v -0.05416 0.05796 0.14133
v -0.00990 0.18231 0.13635
v 0.02825 0.17948 0.13434
v -0.01958 0.25592 0.11928
v 0.01746 0.24186 0.12323
v 0.01657 0.30449 0.10537
v 0.06323 0.16646 0.12416
v -0.00284 0.35212 0.08690
v 0.04851 0.26548 0.10809
v 0.07049 0.02374 0.13554
v 0.07713 0.05014 0.13063
v 0.05902 -0.20641 0.11972
v 0.04052 -0.31648 0.09370
v -0.01386 -0.31679 0.10082
v 0.01987 -0.35782 0.08058
v 0.07705 -0.13719 0.12198
v 0.09081 -0.05880 0.12049
v -0.05287 -0.25811 0.10880
v -0.05299 0.25070 0.10994
v -0.06756 0.15476 0.12385
v -0.08122 -0.07371 0.12570
v -0.08679 0.02198 0.12456
v -0.07215 -0.18644 0.11592
v -0.05917 0.31740 0.08253
v -0.04243 0.33770 0.08329
v -0.04726 -0.33621 0.08084
v -0.03321 -0.34550 0.08280
v -0.01850 -0.38185 0.06528
v -0.09865 0.11460 0.10764
v -0.09777 0.03897 0.11527
v -0.10553 0.09692 0.10325
v -0.02005 0.38060 0.06743
v -0.09789 0.19954 0.09030
v -0.08653 0.24863 0.08636
v -0.07623 0.25558 0.09345
v -0.09046 -0.21993 0.09279
v -0.08306 -0.26809 0.08364
v -0.11135 -0.11514 0.09376
v -0.04682 0.37570 0.05647
v -0.12223 0.02987 0.08904
v 0.04405 0.35583 0.07288
v 0.00048 0.40522 0.05034
v 0.07276 0.21192 0.10899
v 0.06792 -0.23923 0.10612
v 0.09032 -0.00297 0.12288
v 0.06446 0.28596 0.09228
v 0.07880 0.23242 0.09907
v 0.08800 0.08929 0.11987
v 0.07764 0.17961 0.11297
v 0.06550 -0.30339 0.08450
v 0.06700 0.31074 0.08003
v 0.09652 0.11948 0.10878
v 0.09553 -0.11020 0.11151
v 0.09067 -0.20656 0.09696
v 0.10348 -0.12347 0.10184
v 0.10329 0.16874 0.09249
v 0.10545 0.06097 0.10733
v 0.03901 -0.38399 0.05395
v 0.00562 -0.41729 0.03071
v 0.06615 -0.33661 0.06613
v -0.06264 -0.36426 0.04874
v -0.07958 -0.33156 0.05345
v -0.01774 -0.41394 0.03174
v 0.07587 0.30376 0.07511
v -0.07270 0.35804 0.04073
v -0.08030 0.33171 0.05193
v 0.01929 0.41777 0.02941
v 0.10601 0.20264 0.07990
v 0.09892 0.24101 0.07565
v 0.09972 0.26914 0.06179
v 0.07133 0.32583 0.06811
v 0.05997 0.36679 0.05158
v 0.04877 0.40374 0.01805
v -0.04240 0.40710 0.02252
v -0.00885 0.42491 0.01920
v -0.04726 -0.40259 0.01685
v 0.03033 -0.41516 0.01741
v -0.00804 0.01162 -0.15225
v -0.00179 -0.02825 -0.15208
v -0.03741 -0.05077 -0.14637
v -0.05128 -0.02454 -0.14306
v -0.04438 0.05214 -0.14469
v -0.00741 0.03461 -0.15191
v 0.00503 -0.09139 -0.14832
v -0.04697 -0.12395 -0.13715
v -0.04214 -0.19008 -0.12866
v -0.05340 0.08250 -0.13979
v -0.00476 0.09508 -0.14902
v -0.05457 0.16355 -0.12979
v -0.00166 0.13796 -0.14489
v -0.05168 0.18051 -0.12805
v -0.01745 0.24291 -0.12427
v -0.06490 -0.12105 -0.13000
v -0.09326 0.04959 -0.11882
v -0.08954 -0.02663 -0.12244
v -0.09233 -0.11236 -0.11337
v -0.08781 -0.15237 -0.11082
v -0.08454 0.10899 -0.12020
v -0.06485 0.28734 -0.09161
v -0.08897 0.17415 -0.10570
v -0.10396 0.15263 -0.09547
v -0.10855 -0.00466 -0.10637
v 0.00681 0.28031 -0.11518
v -0.01633 0.30728 -0.10515
v -0.04441 0.34259 -0.08021
v 0.02013 0.16865 -0.13919
v 0.00516 0.23062 -0.12843
v 0.00022 0.35054 -0.08830
v -0.02581 0.38335 -0.06374
v 0.03232 0.08475 -0.14630
v 0.01655 -0.10180 -0.14652
v 0.01428 -0.17256 -0.13769
v 0.03075 -0.23752 -0.12184
v -0.01880 -0.24114 -0.12323
v -0.05725 -0.22768 -0.11431
v -0.06847 -0.19965 -0.11479
v 0.02657 -0.24661 -0.12053
v 0.04487 -0.02538 -0.14526
v -0.00957 -0.29344 -0.10931
v -0.05802 -0.28603 -0.09615
v 0.05181 0.17108 -0.13017
v 0.03775 0.25285 -0.11709
v 0.02151 -0.31347 -0.10049
v 0.02936 0.33433 -0.09126
v 0.06469 -0.14622 -0.12657
v -0.02883 -0.32850 -0.09227
v -0.06315 -0.29182 -0.09067
v -0.00509 -0.36343 -0.07938
v 0.06966 0.06491 -0.13339
v -0.06124 -0.32172 -0.07872
v -0.10492 -0.18581 -0.08669
v -0.09386 -0.25728 -0.07590
v -0.02049 -0.38881 -0.05912
v 0.03246 -0.35288 -0.07914
v 0.07311 0.00754 -0.13314
v -0.05597 -0.37158 -0.04975
v -0.04469 -0.38112 -0.05181
v -0.12054 -0.08035 -0.08753
v 0.06698 -0.03633 -0.13574
v 0.08610 -0.08217 -0.12100
v 0.05628 -0.27137 -0.10236
v 0.05931 0.30449 -0.08928
v 0.08425 0.09461 -0.12219
v 0.05796 0.26974 -0.10303
v 0.07595 0.15294 -0.12056
v 0.01971 -0.39107 -0.05770
v 0.07792 -0.23415 -0.09938
v 0.08558 -0.20776 -0.10028
v 0.07548 -0.15355 -0.11914
v 0.06324 -0.30873 -0.08352
v 0.07664 0.17311 -0.11648
v 0.02277 0.39060 -0.05948
v 0.05061 -0.36395 -0.06145
v 0.09158 -0.05134 -0.11915
v 0.08677 0.22186 -0.09660
v 0.09477 0.18875 -0.09803
v 0.04885 0.35425 -0.07114
v 0.05224 0.33753 -0.07844
v 0.06508 0.32631 -0.07438
v 0.00760 0.41686 -0.03582
v -0.12086 0.04960 -0.09049
v -0.13407 -0.00459 -0.07181
v -0.08397 -0.31876 -0.05637
v -0.01393 -0.41661 -0.02913
v -0.04255 -0.40045 -0.03061
v 0.02171 -0.41668 -0.02426
v -0.01104 -0.42491 -0.00153
v -0.15132 0.03555 0.01161
v -0.15112 0.01802 -0.01798
v -0.14853 -0.02203 -0.03228
v -0.14978 -0.06357 0.01101
v -0.14140 -0.14380 -0.01416
v -0.14388 -0.11227 0.02413
v -0.13605 -0.09555 -0.05742
v -0.12935 -0.16838 -0.05008
v -0.12868 -0.21149 -0.02414
v -0.12604 -0.23381 0.00514
v -0.11360 -0.27475 -0.02258
v -0.11528 -0.27591 0.00653
v -0.12049 -0.19076 0.06058
v -0.11479 -0.22972 0.05458
v -0.13794 -0.00770 0.06334
v -0.13211 -0.09074 0.06631
v -0.14013 0.08158 0.05036
v -0.09035 -0.33432 0.02830
v -0.09303 -0.29484 0.05816
v -0.08760 -0.34493 -0.01965
v -0.09940 -0.29484 -0.04649
v -0.06175 -0.38962 -0.00579
v -0.11353 -0.23199 -0.05632
v -0.10474 -0.28782 -0.03958
v -0.07958 -0.33156 0.05345
v -0.04726 -0.40259 0.01685
v -0.12223 0.02987 0.08904
v -0.11135 -0.11514 0.09376
v -0.12882 0.12849 0.06459
v -0.12991 0.19637 0.02906
v -0.14323 0.13040 -0.01169
v -0.15065 0.05609 0.00755
v -0.14693 0.05273 -0.03487
v -0.12657 0.22677 -0.00640
v -0.14142 0.13365 -0.02309
v -0.11565 0.21703 0.05751
v -0.10981 0.27095 0.03712
v -0.10816 0.28359 -0.03031
v -0.11066 0.28802 0.00739
v -0.12931 0.17392 -0.04603
v -0.13407 -0.00459 -0.07181
v -0.12959 -0.05048 -0.07717
v -0.13384 0.06350 -0.06835
v -0.12747 0.11140 -0.07139
v -0.11653 0.21662 -0.05578
v -0.11800 0.16423 -0.07356
v -0.09386 -0.25728 -0.07590
v -0.12054 -0.08035 -0.08753
v -0.08397 -0.31876 -0.05637
v -0.08331 -0.34276 -0.03616
v -0.10492 -0.18581 -0.08669
v -0.12086 0.04960 -0.09049
v -0.10396 0.15263 -0.09547
v -0.05597 -0.37158 -0.04975
v -0.06264 -0.36426 0.04874
v -0.04255 -0.40045 -0.03061
v -0.09046 -0.21993 0.09279
v -0.08306 -0.26809 0.08364
v -0.10553 0.09692 0.10325
v -0.09789 0.19954 0.09030
v -0.08122 -0.07371 0.12570
v -0.08653 0.24863 0.08636
v -0.08030 0.33171 0.05193
v -0.09865 0.11460 0.10764
v -0.05917 0.31740 0.08253
v -0.01104 -0.42491 -0.00153
v -0.01393 -0.41661 -0.02913
v -0.01774 -0.41394 0.03174
v 0.13516 0.18476 -0.01400
v 0.12539 0.23625 -0.00831
v 0.13801 0.17025 0.00669
v 0.12450 0.23131 0.02390
v 0.11514 0.27413 0.01323
v 0.10637 0.30433 0.00291
v 0.14235 0.13092 -0.01849
v 0.14382 0.11844 -0.01825
v 0.14180 0.14053 0.01223
v 0.14892 0.07490 -0.00166
v 0.14661 0.08734 0.01997
v 0.15001 0.05755 0.00147
v 0.13411 0.16805 0.03471
v 0.14887 0.04320 0.02335
v 0.12713 0.18050 0.04996
v 0.13540 0.11632 0.05258
v 0.14079 0.07379 0.04897
v 0.10309 0.30469 0.02586
v 0.11232 0.27442 0.02823
v 0.11542 0.24185 0.04620
v 0.15029 0.01662 -0.01818
v 0.15132 -0.01211 -0.00404
v 0.14718 0.02540 0.03485
v 0.14635 -0.03649 0.03625
v 0.15118 -0.02136 -0.00268
v 0.14688 -0.09398 -0.00284
v 0.14426 -0.11077 0.01674
v 0.13513 0.03828 0.06737
v 0.14138 -0.06934 0.04719
v 0.13902 -0.00227 0.06030
v 0.13983 -0.01328 0.05813
v 0.12269 0.15006 0.06992
v 0.14287 0.08353 -0.03982
v 0.14671 0.02082 -0.03695
v 0.14450 -0.05965 -0.03870
v 0.13622 -0.15157 -0.03369
v 0.14289 -0.12907 0.00840
v 0.13874 -0.15471 0.01730
v 0.13252 -0.17904 -0.03160
v 0.13184 -0.20345 0.00276
v 0.13388 0.15371 -0.04354
v 0.12364 0.21588 -0.04092
v 0.11390 0.26536 -0.03242
v 0.12547 0.19045 -0.05025
v 0.13310 0.07678 -0.06664
v 0.09059 0.33860 -0.02153
v 0.11541 -0.24938 -0.03963
v 0.12300 -0.24289 -0.01063
v 0.11587 -0.27049 0.00936
v 0.13901 0.00768 -0.05974
v 0.10529 -0.29398 -0.02915
v 0.13343 -0.06168 -0.06720
v 0.09104 -0.33978 -0.00965
v 0.12424 -0.15369 -0.06510
v 0.12597 -0.10671 -0.07351
v 0.09911 -0.31637 0.02096
v 0.09390 0.31395 -0.04268
v 0.11362 -0.17719 -0.07638
v 0.11189 0.22815 -0.06185
v 0.10628 0.25829 -0.05680
v 0.10329 -0.24210 -0.06876
v 0.11809 0.12436 -0.08409
v 0.11820 0.11253 -0.08601
v 0.10141 0.18438 -0.09206
v 0.12431 0.00065 -0.08606
v 0.11633 -0.03175 -0.09580
v 0.11472 -0.08446 -0.09338
v 0.11812 0.06026 -0.09223
v 0.10445 0.02337 -0.10924
v 0.08207 -0.31938 -0.05816
v 0.08802 -0.28013 -0.07255
v 0.07229 -0.35066 -0.04785
v 0.07620 -0.36627 -0.01646
v 0.10232 -0.16027 -0.09514
v 0.10920 -0.11325 -0.09602
v 0.08558 -0.20776 -0.10028
v 0.09655 0.31781 0.03153
v 0.09097 0.24960 -0.08296
v 0.08499 0.29475 -0.06992
v 0.08677 0.22186 -0.09660
v 0.07145 0.37156 0.02645
v 0.07772 0.36518 -0.01859
v 0.07846 0.34194 -0.04768
v 0.09477 0.18875 -0.09803
v 0.09047 -0.22194 -0.09175
v 0.07792 -0.23415 -0.09938
v 0.06508 0.32631 -0.07438
v 0.08425 0.09461 -0.12219
v 0.09158 -0.05134 -0.11915
v 0.08610 -0.08217 -0.12100
v 0.07664 0.17311 -0.11648
v 0.07595 0.15294 -0.12056
v 0.05624 0.39506 -0.02043
v 0.06738 0.35945 -0.04894
v 0.05856 0.35312 -0.06398
v 0.05449 0.38514 -0.03990
v 0.06324 -0.30873 -0.08352
v 0.07548 -0.15355 -0.11914
v 0.05931 0.30449 -0.08928
v 0.07891 0.26365 -0.08986
v 0.04877 0.40374 0.01805
v 0.05796 0.26974 -0.10303
v 0.07311 0.00754 -0.13314
v 0.06966 0.06491 -0.13339
v 0.05061 -0.36395 -0.06145
v 0.05000 -0.39989 -0.01825
v 0.05224 0.33753 -0.07844
v 0.04885 0.35425 -0.07114
v 0.02277 0.39060 -0.05948
v 0.02643 0.42035 -0.01649
v 0.01971 -0.39107 -0.05770
v 0.02171 -0.41668 -0.02426
v 0.00760 0.41686 -0.03582
v 0.01929 0.41777 0.02941
v 0.07424 -0.35860 0.03576
v 0.03901 -0.38399 0.05395
v 0.06398 -0.38100 0.02466
v 0.06615 -0.33661 0.06613
v 0.08096 -0.30935 0.06608
v 0.09318 -0.31218 0.04418
v 0.06550 -0.30339 0.08450
v 0.09518 -0.26699 0.06973
v 0.09454 -0.25171 0.07743
v 0.11005 -0.25812 0.04770
v 0.11104 -0.20659 0.07144
v 0.09067 -0.20656 0.09696
v 0.06792 -0.23923 0.10612
v 0.12462 -0.16534 0.06108
v 0.12144 -0.14420 0.07355
v 0.10348 -0.12347 0.10184
v 0.12865 -0.19617 0.03514
v 0.11762 -0.25066 0.03103
v 0.13509 -0.12953 0.04789
v 0.12315 -0.12233 0.07586
v 0.09553 -0.11020 0.11151
v 0.11996 -0.09460 0.08594
v 0.13387 -0.10012 0.05984
v 0.13561 -0.08059 0.06009
v 0.12904 -0.05452 0.07685
v 0.12612 -0.02667 0.08365
v 0.12134 0.00335 0.09122
v 0.13218 0.01419 0.07416
v 0.10545 0.06097 0.10733
v 0.12124 0.09360 0.08437
v 0.11700 0.14682 0.07998
v 0.09081 -0.05880 0.12049
v 0.11251 -0.02330 0.10174
v 0.09032 -0.00297 0.12288
v 0.09652 0.11948 0.10878
v 0.10329 0.16874 0.09249
v 0.10601 0.20264 0.07990
v 0.09892 0.24101 0.07565
v 0.09972 0.26914 0.06179
v 0.09678 0.29187 0.05347
v 0.07587 0.30376 0.07511
v 0.07133 0.32583 0.06811
v 0.08406 0.33914 0.03954
v 0.05997 0.36679 0.05158
v 0.06691 0.37422 0.03295
v 0.03033 -0.41516 0.01741
v -0.00885 0.42491 0.01920
v -0.00621 0.42450 -0.02150
v -0.03171 0.41798 -0.01321
v -0.04240 0.40710 0.02252
v -0.06223 0.38638 -0.02189
v -0.06249 0.38814 0.01640
v -0.04678 0.39094 -0.04190
v -0.08994 0.33908 0.02098
v -0.08591 0.34040 -0.03259
v -0.11066 0.28802 0.00739
v -0.07270 0.35804 0.04073
v -0.10816 0.28359 -0.03031
v -0.10981 0.27095 0.03712
v -0.08030 0.33171 0.05193
v -0.04682 0.37570 0.05647
v -0.08061 0.31532 -0.06297
v -0.08017 0.32972 -0.05394
v -0.09874 0.23497 -0.07747
v -0.11653 0.21662 -0.05578
v -0.10396 0.15263 -0.09547
v -0.11800 0.16423 -0.07356
v -0.06485 0.28734 -0.09161
v -0.04441 0.34259 -0.08021
v -0.08897 0.17415 -0.10570
v -0.02581 0.38335 -0.06374
v 0.00760 0.41686 -0.03582
v 0.02643 0.42035 -0.01649
v 0.02171 -0.41668 -0.02426
v 0.03033 -0.41516 0.01741
v -0.01104 -0.42491 -0.00153
v 0.00562 -0.41729 0.03071
v -0.01774 -0.41394 0.03174
v 0.02643 0.42035 -0.01649
v -0.00885 0.42491 0.01920
v 0.01929 0.41777 0.02941
vt 0.36475 0.75807
vt 0.44299 0.75333
vt 0.45314 0.78718
vt 0.40448 0.80874
vt 0.31475 0.77280
vt 0.33373 0.79923
vt 0.29744 0.81308
vt 0.50649 0.80845
vt 0.53901 0.77190
vt 0.59563 0.80149
vt 0.58915 0.76458
vt 0.43829 0.72835
vt 0.63256 0.76486
vt 0.50779 0.72356
vt 0.57486 0.72990
vt 0.30780 0.72224
vt 0.25097 0.72022
vt 0.35820 0.71221
vt 0.25562 0.75162
vt 0.25669 0.78731
vt 0.19437 0.74045
vt 0.20527 0.77530
vt 0.15251 0.77266
vt 0.26496 0.82251
vt 0.11153 0.75360
vt 0.18256 0.80470
vt 0.38426 0.83300
vt 0.36190 0.83979
vt 0.57637 0.82430
vt 0.67006 0.80576
vt 0.66766 0.75498
vt 0.70488 0.78525
vt 0.51890 0.84274
vt 0.45373 0.85694
vt 0.62053 0.71712
vt 0.19725 0.70793
vt 0.27766 0.69585
vt 0.46786 0.68460
vt 0.38792 0.67787
vt 0.56193 0.69642
vt 0.13757 0.69892
vt 0.12153 0.71622
vt 0.68824 0.72248
vt 0.69440 0.73649
vt 0.72696 0.74938
vt 0.30978 0.66070
vt 0.37383 0.66426
vt 0.32481 0.65213
vt 0.08403 0.73713
vt 0.23652 0.65741
vt 0.19500 0.66888
vt 0.19034 0.68181
vt 0.59347 0.67370
vt 0.63507 0.68233
vt 0.50647 0.64709
vt 0.08248 0.70919
vt 0.38151 0.62982
vt 0.10273 0.79807
vt 0.05966 0.75602
vt 0.22522 0.83158
vt 0.60578 0.83490
vt 0.40657 0.85613
vt 0.16173 0.82126
vt 0.20639 0.83852
vt 0.32814 0.85186
vt 0.25219 0.83797
vt 0.66326 0.83289
vt 0.13868 0.82404
vt 0.30130 0.86225
vt 0.49729 0.86427
vt 0.57984 0.86097
vt 0.50969 0.87544
vt 0.25730 0.87103
vt 0.35101 0.87463
vt 0.73558 0.80387
vt 0.76875 0.77014
vt 0.69595 0.83373
vt 0.72138 0.70234
vt 0.69450 0.68287
vt 0.76528 0.74684
vt 0.14217 0.83558
vt 0.09007 0.67590
vt 0.11488 0.66920
vt 0.03963 0.77410
vt 0.22624 0.87544
vt 0.19341 0.86596
vt 0.16647 0.86920
vt 0.12244 0.83004
vt 0.08500 0.81660
vt 0.04233 0.80733
vt 0.04281 0.71120
vt 0.02932 0.74561
vt 0.76463 0.71254
vt 0.77623 0.79591
vt 0.41095 0.48227
vt 0.37843 0.48869
vt 0.35968 0.45513
vt 0.38080 0.44133
vt 0.44354 0.44663
vt 0.42972 0.48238
vt 0.32678 0.49512
vt 0.29971 0.44572
vt 0.24546 0.44954
vt 0.46834 0.43684
vt 0.47945 0.48343
vt 0.53568 0.43212
vt 0.51499 0.48474
vt 0.54971 0.43429
vt 0.60245 0.46483
vt 0.30128 0.42760
vt 0.44092 0.39427
vt 0.37815 0.40051
vt 0.30726 0.39714
vt 0.27426 0.40163
vt 0.49035 0.40208
vt 0.64298 0.41261
vt 0.54630 0.39208
vt 0.52809 0.37375
vt 0.39570 0.37641
vt 0.63563 0.48547
vt 0.65831 0.46183
vt 0.69173 0.43009
vt 0.54149 0.50419
vt 0.59292 0.48692
vt 0.69781 0.47427
vt 0.73035 0.44545
vt 0.47198 0.51915
vt 0.31814 0.50575
vt 0.26004 0.50288
vt 0.20529 0.51693
vt 0.20375 0.47061
vt 0.21353 0.43362
vt 0.23589 0.42245
vt 0.19786 0.51258
vt 0.38089 0.53345
vt 0.16007 0.47740
vt 0.16390 0.43045
vt 0.54584 0.53565
vt 0.61476 0.51726
vt 0.14146 0.50532
vt 0.68636 0.50375
vt 0.27940 0.55313
vt 0.12971 0.45793
vt 0.15824 0.42478
vt 0.09878 0.47807
vt 0.45690 0.55800
vt 0.13179 0.42480
vt 0.24349 0.37749
vt 0.18293 0.38787
vt 0.07347 0.46119
vt 0.10455 0.51404
vt 0.40855 0.56278
vt 0.08365 0.42424
vt 0.07684 0.43655
vt 0.33161 0.35841
vt 0.37154 0.55610
vt 0.33208 0.57700
vt 0.17341 0.54143
vt 0.66501 0.53706
vt 0.48369 0.57351
vt 0.63288 0.53767
vt 0.53269 0.56244
vt 0.06842 0.49966
vt 0.20214 0.56680
vt 0.22423 0.57605
vt 0.27221 0.56513
vt 0.13828 0.54838
vt 0.55049 0.56280
vt 0.74091 0.49253
vt 0.08863 0.53334
vt 0.35801 0.58421
vt 0.59593 0.57280
vt 0.56852 0.58421
vt 0.71071 0.52246
vt 0.69498 0.52763
vt 0.68774 0.54314
vt 0.77006 0.47468
vt 0.44117 0.35615
vt 0.39473 0.33509
vt 0.12770 0.39449
vt 0.03878 0.46279
vt 0.05222 0.43419
vt 0.03236 0.49749
vt 0.01389 0.46338
vt 0.90676 0.50161
vt 0.93163 0.48668
vt 0.94460 0.44960
vt 0.91000 0.40970
vt 0.93208 0.33523
vt 0.90033 0.36394
vt 0.96785 0.38056
vt 0.96278 0.31166
vt 0.94150 0.27140
vt 0.91792 0.25013
vt 0.94107 0.21086
vt 0.91734 0.21005
vt 0.87069 0.28759
vt 0.87635 0.25094
vt 0.86417 0.45974
vt 0.86349 0.38169
vt 0.87292 0.54367
vt 0.89932 0.15091
vt 0.87308 0.18650
vt 0.93885 0.14089
vt 0.96165 0.18879
vt 0.92752 0.09248
vt 0.96972 0.25018
vt 0.95561 0.19675
vt 0.87645 0.14893
vt 0.90852 0.07412
vt 0.83799 0.49417
vt 0.83671 0.35599
vt 0.85829 0.58796
vt 0.88598 0.65275
vt 0.92265 0.59166
vt 0.90972 0.52121
vt 0.94463 0.51985
vt 0.91399 0.68332
vt 0.93188 0.59553
vt 0.85994 0.67272
vt 0.87484 0.72539
vt 0.93072 0.74140
vt 0.89882 0.74350
vt 0.95015 0.63593
vt 0.97944 0.46721
vt 0.98535 0.42315
vt 0.97378 0.53216
vt 0.97468 0.57802
vt 0.95640 0.67895
vt 0.97610 0.63092
vt 0.98984 0.22246
vt 0.99654 0.39418
vt 0.97170 0.16210
vt 0.95276 0.14100
vt 0.99846 0.29239
vt 0.99618 0.52079
vt 0.99846 0.62101
vt 0.96622 0.10378
vt 0.88076 0.11307
vt 0.94945 0.07322
vt 0.83790 0.25421
vt 0.84703 0.20785
vt 0.82031 0.55852
vt 0.82809 0.65751
vt 0.79784 0.39245
vt 0.82799 0.70622
vt 0.85421 0.78772
vt 0.81410 0.57616
vt 0.82177 0.77721
vt 0.92571 0.03333
vt 0.94960 0.04112
vt 0.89629 0.04297
vt 0.23168 0.12805
vt 0.18892 0.11736
vt 0.24576 0.11003
vt 0.19546 0.08714
vt 0.15816 0.09331
vt 0.13152 0.10052
vt 0.27590 0.13789
vt 0.28620 0.13898
vt 0.27087 0.10799
vt 0.32353 0.12823
vt 0.31540 0.10663
vt 0.33792 0.12728
vt 0.24961 0.08343
vt 0.35172 0.10854
vt 0.24007 0.06662
vt 0.29413 0.07144
vt 0.32909 0.08025
vt 0.13183 0.07860
vt 0.15841 0.07873
vt 0.18710 0.06362
vt 0.36912 0.15007
vt 0.39371 0.14028
vt 0.36730 0.09972
vt 0.41764 0.10559
vt 0.40126 0.14007
vt 0.45988 0.14877
vt 0.47561 0.13280
vt 0.36008 0.06582
vt 0.44577 0.09895
vt 0.39252 0.07797
vt 0.40121 0.08145
vt 0.26693 0.04886
vt 0.31252 0.16315
vt 0.36382 0.16727
vt 0.42870 0.17818
vt 0.50364 0.18444
vt 0.48952 0.14267
vt 0.51137 0.13766
vt 0.52608 0.18582
vt 0.54917 0.15726
vt 0.25414 0.15957
vt 0.20218 0.15077
vt 0.16127 0.13775
vt 0.22236 0.16262
vt 0.31477 0.19066
vt 0.09884 0.12070
vt 0.58283 0.20242
vt 0.57971 0.17461
vt 0.60448 0.16038
vt 0.37206 0.19112
vt 0.62001 0.19841
vt 0.42778 0.20679
vt 0.65946 0.18730
vt 0.50311 0.21586
vt 0.46407 0.21889
vt 0.64409 0.15663
vt 0.11695 0.14352
vt 0.52227 0.23096
vt 0.18821 0.17104
vt 0.16314 0.16296
vt 0.57617 0.23133
vt 0.27276 0.20483
vt 0.28220 0.20817
vt 0.21982 0.20968
vt 0.37482 0.22008
vt 0.40042 0.23537
vt 0.44434 0.23889
vt 0.32476 0.22070
vt 0.35277 0.24606
vt 0.64167 0.23124
vt 0.60867 0.24108
vt 0.66880 0.22558
vt 0.68175 0.19754
vt 0.50736 0.25121
vt 0.46803 0.24577
vt 0.54795 0.26603
vt 0.11998 0.07204
vt 0.16406 0.19352
vt 0.12721 0.17468
vt 0.18474 0.21343
vt 0.07006 0.07258
vt 0.07485 0.11589
vt 0.09002 0.14651
vt 0.21430 0.21738
vt 0.55989 0.25604
vt 0.57110 0.26944
vt 0.09498 0.17928
vt 0.29003 0.25850
vt 0.41406 0.27005
vt 0.44031 0.27717
vt 0.22344 0.24527
vt 0.23999 0.25223
vt 0.04485 0.11558
vt 0.07266 0.14659
vt 0.07205 0.16484
vt 0.04981 0.13519
vt 0.63581 0.26213
vt 0.50143 0.28596
vt 0.10949 0.20094
vt 0.14868 0.20169
vt 0.03632 0.07805
vt 0.13620 0.22255
vt 0.36173 0.28596
vt 0.31275 0.28087
vt 0.68528 0.24540
vt 0.71447 0.20542
vt 0.08004 0.18537
vt 0.06585 0.17469
vt 0.02698 0.16092
vt 0.01178 0.11190
vt 0.71925 0.25187
vt 0.73915 0.21794
vt 0.00154 0.13624
vt 0.00832 0.06593
vt 0.68413 0.15010
vt 0.72068 0.13535
vt 0.70162 0.16387
vt 0.67687 0.11484
vt 0.65080 0.11156
vt 0.64585 0.13455
vt 0.65393 0.08787
vt 0.61445 0.10218
vt 0.60362 0.09154
vt 0.60115 0.12334
vt 0.56355 0.09191
vt 0.57137 0.06163
vt 0.60531 0.05203
vt 0.52686 0.09714
vt 0.51168 0.08117
vt 0.50093 0.04491
vt 0.54778 0.12653
vt 0.59168 0.13795
vt 0.49512 0.10547
vt 0.49386 0.07592
vt 0.49134 0.03058
vt 0.47261 0.06142
vt 0.47275 0.09010
vt 0.45679 0.08753
vt 0.43766 0.06692
vt 0.41554 0.05599
vt 0.39178 0.04364
vt 0.38066 0.06152
vt 0.34535 0.01564
vt 0.31560 0.04002
vt 0.27011 0.03789
vt 0.44934 0.01220
vt 0.41551 0.03414
vt 0.40192 0.00175
vt 0.29519 0.00463
vt 0.25154 0.01916
vt 0.22159 0.03044
vt 0.18744 0.03040
vt 0.16249 0.04347
vt 0.14230 0.05092
vt 0.12784 0.02339
vt 0.10794 0.03007
vt 0.09998 0.06224
vt 0.07051 0.04516
vt 0.06684 0.06574
vt 0.73920 0.17690
vt 0.92406 0.92813
vt 0.91139 0.96325
vt 0.89647 0.94656
vt 0.89572 0.91126
vt 0.86245 0.94157
vt 0.87228 0.90916
vt 0.86751 0.96370
vt 0.82935 0.89063
vt 0.82072 0.93923
vt 0.78215 0.89006
vt 0.85390 0.87766
vt 0.77190 0.92475
vt 0.77605 0.85789
vt 0.83421 0.85955
vt 0.88268 0.86855
vt 0.79837 0.96573
vt 0.81077 0.95870
vt 0.72793 0.96842
vt 0.71178 0.94127
vt 0.65586 0.98168
vt 0.66548 0.95575
vt 0.77615 0.99825
vt 0.82709 0.99819
vt 0.67562 0.99819
vt 0.86781 0.99253
vt 0.91346 0.98302
vt 0.93673 0.97469
vt 0.40586 0.92807
vt 0.41619 0.96667
vt 0.44040 0.93137
vt 0.44044 0.96667
vt 0.45833 0.95800
vt 0.07562 0.31053
vt 0.04080 0.27895
vt 0.03549 0.31053
vn -0.0453 0.0517 0.9976
vn -0.0911 -0.0435 0.9949
vn 0.1566 -0.0544 0.9862
vn 0.3137 -0.0023 0.9495
vn 0.0718 0.1154 0.9907
vn 0.2612 0.0920 0.9609
vn 0.3704 0.1279 0.9200
vn 0.3107 -0.1114 0.9440
vn 0.0361 -0.1496 0.9881
vn 0.2767 -0.2298 0.9331
vn -0.0274 -0.2215 0.9748
vn -0.2735 -0.0367 0.9612
vn -0.0279 -0.2956 0.9549
vn -0.3240 -0.1113 0.9395
vn -0.3053 -0.1952 0.9320
vn -0.2955 0.1198 0.9478
vn -0.3110 0.1782 0.9336
vn -0.3750 0.0572 0.9252
vn -0.0739 0.1724 0.9823
vn 0.2026 0.1694 0.9645
vn -0.1602 0.2482 0.9554
vn 0.1344 0.2323 0.9633
vn 0.1445 0.3236 0.9351
vn 0.4529 0.1561 0.8778
vn -0.0330 0.4474 0.8937
vn 0.3968 0.2601 0.8803
vn 0.4777 0.0205 0.8783
vn 0.5237 0.0494 0.8505
vn 0.4449 -0.1960 0.8739
vn 0.3679 -0.3649 0.8553
vn -0.1282 -0.3667 0.9215
vn 0.2047 -0.4793 0.8535
vn 0.5455 -0.1224 0.8291
vn 0.6168 -0.0523 0.7854
vn -0.4301 -0.2631 0.8636
vn -0.4257 0.2440 0.8714
vn -0.4753 0.1466 0.8675
vn -0.5598 -0.0642 0.8261
vn -0.5887 0.0168 0.8082
vn -0.5367 -0.1715 0.8261
vn -0.5530 0.3502 0.7560
vn -0.4225 0.4021 0.8123
vn -0.4562 -0.4124 0.7886
vn -0.3317 -0.4392 0.8349
vn -0.2219 -0.5830 0.7816
vn -0.6771 0.1042 0.7285
vn -0.6573 0.0314 0.7530
vn -0.7167 0.0860 0.6921
vn -0.2407 0.5596 0.7931
vn -0.7274 0.1931 0.6585
vn -0.6930 0.2433 0.6786
vn -0.6183 0.2510 0.7448
vn -0.6926 -0.2067 0.6911
vn -0.6831 -0.2688 0.6791
vn -0.7661 -0.1019 0.6346
vn -0.5438 0.5357 0.6460
vn -0.8055 0.0235 0.5921
vn 0.4615 0.4587 0.7593
vn 0.0013 0.7136 0.7006
vn 0.5466 0.2008 0.8129
vn 0.5352 -0.2370 0.8108
vn 0.6081 -0.0046 0.7938
vn 0.5508 0.2904 0.7825
vn 0.6090 0.2217 0.7615
vn 0.6016 0.0889 0.7938
vn 0.5629 0.1668 0.8095
vn 0.5826 -0.3356 0.7403
vn 0.6080 0.3363 0.7193
vn 0.6677 0.1141 0.7357
vn 0.6633 -0.0975 0.7420
vn 0.6851 -0.1934 0.7023
vn 0.7234 -0.1097 0.6816
vn 0.7399 0.1537 0.6549
vn 0.7104 0.0585 0.7013
vn 0.4707 -0.5939 0.6525
vn 0.0828 -0.8680 0.4895
vn 0.6496 -0.4110 0.6397
vn -0.6789 -0.5067 0.5313
vn -0.7604 -0.3984 0.5129
vn -0.2755 -0.8282 0.4880
vn 0.6757 0.3224 0.6630
vn -0.7749 0.4643 0.4289
vn -0.7784 0.3834 0.4971
vn 0.2970 0.8362 0.4609
vn 0.7859 0.1882 0.5891
vn 0.7736 0.2309 0.5901
vn 0.8198 0.2669 0.5066
vn 0.6751 0.3705 0.6379
vn 0.6603 0.4975 0.5627
vn 0.6713 0.6986 0.2475
vn -0.6069 0.7284 0.3180
vn -0.1572 0.9315 0.3280
vn -0.6535 -0.7203 0.2326
vn 0.4689 -0.8409 0.2702
vn -0.0558 0.0074 -0.9984
vn -0.0144 -0.0282 -0.9995
vn -0.2516 -0.0496 -0.9665
vn -0.3427 -0.0242 -0.9391
vn -0.2995 0.0399 -0.9533
vn -0.0517 0.0252 -0.9983
vn 0.0315 -0.0879 -0.9956
vn -0.3222 -0.1141 -0.9398
vn -0.3058 -0.1756 -0.9358
vn -0.3661 0.0670 -0.9282
vn -0.0348 0.0759 -0.9965
vn -0.4014 0.1507 -0.9034
vn -0.0142 0.1207 -0.9926
vn -0.3870 0.1697 -0.9063
vn -0.1425 0.2396 -0.9604
vn -0.4440 -0.1106 -0.8892
vn -0.6208 0.0426 -0.7828
vn -0.5931 -0.0253 -0.8047
vn -0.6292 -0.1015 -0.7706
vn -0.6156 -0.1377 -0.7760
vn -0.5850 0.0976 -0.8051
vn -0.5682 0.2952 -0.7681
vn -0.6516 0.1631 -0.7408
vn -0.7395 0.1430 -0.6578
vn -0.7144 -0.0061 -0.6998
vn 0.0542 0.2895 -0.9556
vn -0.1513 0.3363 -0.9295
vn -0.4515 0.4188 -0.7879
vn 0.1418 0.1562 -0.9775
vn 0.0368 0.2256 -0.9735
vn -0.0017 0.4458 -0.8951
vn -0.3149 0.5750 -0.7551
vn 0.2202 0.0658 -0.9732
vn 0.1111 -0.0967 -0.9891
vn 0.0999 -0.1573 -0.9825
vn 0.2367 -0.2321 -0.9435
vn -0.1476 -0.2375 -0.9601
vn -0.4352 -0.2193 -0.8732
vn -0.5024 -0.1865 -0.8443
vn 0.2065 -0.2442 -0.9475
vn 0.3054 -0.0250 -0.9519
vn -0.0842 -0.3152 -0.9453
vn -0.4871 -0.3007 -0.8199
vn 0.3730 0.1585 -0.9142
vn 0.3022 0.2517 -0.9194
vn 0.1894 -0.3535 -0.9161
vn 0.2844 0.3979 -0.8722
vn 0.4580 -0.1314 -0.8792
vn -0.2704 -0.3884 -0.8809
vn -0.5376 -0.3103 -0.7840
vn -0.0580 -0.4973 -0.8657
vn 0.4769 0.0470 -0.8777
vn -0.5630 -0.3725 -0.7377
vn -0.7624 -0.1713 -0.6241
vn -0.7528 -0.2528 -0.6077
vn -0.2560 -0.6197 -0.7419
vn 0.3304 -0.4597 -0.8243
vn 0.4966 0.0040 -0.8680
vn -0.6279 -0.5361 -0.5643
vn -0.5287 -0.5801 -0.6197
vn -0.8072 -0.0745 -0.5855
vn 0.4569 -0.0343 -0.8889
vn 0.5892 -0.0736 -0.8046
vn 0.4626 -0.2760 -0.8425
vn 0.5323 0.3290 -0.7800
vn 0.5797 0.0722 -0.8116
vn 0.4813 0.2735 -0.8328
vn 0.5406 0.1358 -0.8302
vn 0.2437 -0.6332 -0.7347
vn 0.6069 -0.2230 -0.7628
vn 0.6439 -0.1924 -0.7405
vn 0.5378 -0.1374 -0.8318
vn 0.5672 -0.3418 -0.7493
vn 0.5548 0.1596 -0.8165
vn 0.2820 0.6144 -0.7369
vn 0.5496 -0.5006 -0.6688
vn 0.6199 -0.0463 -0.7833
vn 0.6636 0.2140 -0.7169
vn 0.6962 0.1759 -0.6960
vn 0.5113 0.4549 -0.7291
vn 0.5153 0.4044 -0.7556
vn 0.6192 0.3746 -0.6901
vn 0.1118 0.8269 -0.5511
vn -0.7988 0.0460 -0.5998
vn -0.8794 -0.0061 -0.4760
vn -0.7710 -0.3647 -0.5222
vn -0.2238 -0.8592 -0.4600
vn -0.5777 -0.7025 -0.4156
vn 0.3382 -0.8599 -0.3823
vn -0.1979 -0.9799 -0.0252
vn -0.9964 0.0332 0.0785
vn -0.9928 0.0145 -0.1190
vn -0.9765 -0.0228 -0.2144
vn -0.9951 -0.0649 0.0749
vn -0.9863 -0.1326 -0.0976
vn -0.9802 -0.1076 0.1664
vn -0.9181 -0.0914 -0.3857
vn -0.9236 -0.1532 -0.3513
vn -0.9642 -0.1967 -0.1780
vn -0.9748 -0.2196 0.0401
vn -0.9437 -0.2740 -0.1856
vn -0.9597 -0.2757 0.0547
vn -0.8812 -0.1753 0.4390
vn -0.8835 -0.2151 0.4162
vn -0.9035 -0.0088 0.4284
vn -0.8884 -0.0848 0.4511
vn -0.9365 0.0802 0.3413
vn -0.8723 -0.4055 0.2731
vn -0.8063 -0.3116 0.5027
vn -0.8774 -0.4379 -0.1959
vn -0.8610 -0.3113 -0.4023
vn -0.7736 -0.6296 -0.0711
vn -0.8764 -0.2192 -0.4289
vn -0.8936 -0.2974 -0.3361
vn -0.7604 -0.3984 0.5129
vn -0.6535 -0.7203 0.2326
vn -0.8055 0.0235 0.5921
vn -0.7661 -0.1019 0.6346
vn -0.8897 0.1230 0.4397
vn -0.9592 0.1900 0.2096
vn -0.9882 0.1306 -0.0800
vn -0.9971 0.0566 0.0512
vn -0.9711 0.0524 -0.2327
vn -0.9748 0.2177 -0.0480
vn -0.9783 0.1331 -0.1588
vn -0.8802 0.2101 0.4257
vn -0.9150 0.2656 0.3037
vn -0.9250 0.2829 -0.2537
vn -0.9550 0.2898 0.0633
vn -0.9305 0.1667 -0.3261
vn -0.8794 -0.0061 -0.4760
vn -0.8569 -0.0483 -0.5132
vn -0.8876 0.0627 -0.4563
vn -0.8686 0.1099 -0.4833
vn -0.8864 0.2081 -0.4136
vn -0.8435 0.1559 -0.5140
vn -0.7528 -0.2528 -0.6077
vn -0.8072 -0.0745 -0.5855
vn -0.7710 -0.3647 -0.5222
vn -0.8273 -0.4310 -0.3604
vn -0.7624 -0.1713 -0.6241
vn -0.7988 0.0460 -0.5998
vn -0.7395 0.1430 -0.6578
vn -0.6279 -0.5361 -0.5643
vn -0.6789 -0.5067 0.5313
vn -0.5777 -0.7025 -0.4156
vn -0.6926 -0.2067 0.6911
vn -0.6831 -0.2688 0.6791
vn -0.7167 0.0860 0.6921
vn -0.7274 0.1931 0.6585
vn -0.5598 -0.0642 0.8261
vn -0.6930 0.2433 0.6786
vn -0.7784 0.3834 0.4971
vn -0.6771 0.1042 0.7285
vn -0.5530 0.3502 0.7560
vn -0.1979 -0.9799 -0.0252
vn -0.2238 -0.8592 -0.4600
vn -0.2755 -0.8282 0.4880
vn 0.9813 0.1650 -0.0993
vn 0.9723 0.2248 -0.0633
vn 0.9874 0.1507 0.0481
vn 0.9582 0.2188 0.1844
vn 0.9550 0.2754 0.1100
vn 0.9450 0.3260 0.0263
vn 0.9850 0.1188 -0.1249
vn 0.9865 0.1090 -0.1225
vn 0.9884 0.1263 0.0849
vn 0.9974 0.0714 -0.0105
vn 0.9876 0.0830 0.1336
vn 0.9985 0.0542 0.0102
vn 0.9576 0.1492 0.2464
vn 0.9873 0.0393 0.1539
vn 0.9191 0.1618 0.3592
vn 0.9281 0.1077 0.3565
vn 0.9432 0.0701 0.3248
vn 0.9171 0.3263 0.2290
vn 0.9323 0.2756 0.2343
vn 0.9030 0.2318 0.3617
vn 0.9927 0.0125 -0.1203
vn 0.9996 -0.0131 -0.0261
vn 0.9732 0.0211 0.2288
vn 0.9705 -0.0374 0.2382
vn 0.9996 -0.0223 -0.0171
vn 0.9955 -0.0932 -0.0185
vn 0.9880 -0.1063 0.1123
vn 0.8967 0.0341 0.4412
vn 0.9480 -0.0693 0.3105
vn 0.9190 -0.0041 0.3942
vn 0.9247 -0.0139 0.3803
vn 0.8632 0.1354 0.4864
vn 0.9608 0.0774 -0.2662
vn 0.9688 0.0163 -0.2473
vn 0.9638 -0.0605 -0.2598
vn 0.9629 -0.1358 -0.2331
vn 0.9911 -0.1198 0.0574
vn 0.9832 -0.1384 0.1192
vn 0.9614 -0.1595 -0.2241
vn 0.9824 -0.1858 0.0206
vn 0.9451 0.1365 -0.2969
vn 0.9323 0.2016 -0.3003
vn 0.9291 0.2632 -0.2597
vn 0.9185 0.1729 -0.3557
vn 0.8932 0.0661 -0.4448
vn 0.8910 0.4039 -0.2075
vn 0.9203 -0.2413 -0.3078
vn 0.9690 -0.2334 -0.0812
vn 0.9594 -0.2717 0.0756
vn 0.9165 0.0043 -0.3999
vn 0.9185 -0.3100 -0.2456
vn 0.8907 -0.0593 -0.4507
vn 0.9056 -0.4141 -0.0920
vn 0.8814 -0.1366 -0.4521
vn 0.8623 -0.0975 -0.4970
vn 0.9160 -0.3549 0.1871
vn 0.8572 0.3452 -0.3821
vn 0.8249 -0.1585 -0.5426
vn 0.8598 0.2179 -0.4619
vn 0.8572 0.2550 -0.4474
vn 0.8151 -0.2311 -0.5312
vn 0.8187 0.1058 -0.5644
vn 0.8128 0.0940 -0.5749
vn 0.7412 0.1702 -0.6494
vn 0.8215 -0.0016 -0.5702
vn 0.7737 -0.0294 -0.6329
vn 0.7774 -0.0760 -0.6244
vn 0.7904 0.0462 -0.6108
vn 0.6980 0.0161 -0.7159
vn 0.7651 -0.3638 -0.5312
vn 0.7448 -0.2865 -0.6027
vn 0.7483 -0.4511 -0.4864
vn 0.8444 -0.5057 -0.1767
vn 0.7322 -0.1425 -0.6660
vn 0.7534 -0.1006 -0.6498
vn 0.6439 -0.1924 -0.7405
vn 0.8901 0.3528 0.2885
vn 0.7251 0.2461 -0.6432
vn 0.7414 0.3100 -0.5952
vn 0.6636 0.2140 -0.7169
vn 0.8047 0.5153 0.2948
vn 0.8490 0.4897 -0.1986
vn 0.7824 0.4138 -0.4654
vn 0.6962 0.1759 -0.6960
vn 0.6932 -0.2076 -0.6902
vn 0.6069 -0.2230 -0.7628
vn 0.6192 0.3746 -0.6901
vn 0.5797 0.0722 -0.8116
vn 0.6199 -0.0463 -0.7833
vn 0.5892 -0.0736 -0.8046
vn 0.5548 0.1596 -0.8165
vn 0.5406 0.1358 -0.8302
vn 0.7266 0.6362 -0.2593
vn 0.7193 0.4702 -0.5115
vn 0.6102 0.4499 -0.6520
vn 0.6612 0.5801 -0.4757
vn 0.5672 -0.3418 -0.7493
vn 0.5378 -0.1374 -0.8318
vn 0.5323 0.3290 -0.7800
vn 0.6462 0.2647 -0.7158
vn 0.6713 0.6986 0.2475
vn 0.4813 0.2735 -0.8328
vn 0.4966 0.0040 -0.8680
vn 0.4769 0.0470 -0.8777
vn 0.5496 -0.5006 -0.6688
vn 0.6785 -0.6930 -0.2437
vn 0.5153 0.4044 -0.7556
vn 0.5113 0.4549 -0.7291
vn 0.2820 0.6144 -0.7369
vn 0.4222 0.8675 -0.2631
vn 0.2437 -0.6332 -0.7347
vn 0.3382 -0.8599 -0.3823
vn 0.1118 0.8269 -0.5511
vn 0.2970 0.8362 0.4609
vn 0.7951 -0.4778 0.3736
vn 0.4707 -0.5939 0.6525
vn 0.7659 -0.5742 0.2895
vn 0.6496 -0.4110 0.6397
vn 0.7350 -0.3443 0.5841
vn 0.8526 -0.3474 0.3903
vn 0.5826 -0.3356 0.7403
vn 0.7869 -0.2696 0.5551
vn 0.7609 -0.2485 0.5993
vn 0.8929 -0.2546 0.3713
vn 0.8361 -0.1913 0.5141
vn 0.6851 -0.1934 0.7023
vn 0.5352 -0.2370 0.8108
vn 0.8959 -0.1474 0.4192
vn 0.8584 -0.1290 0.4965
vn 0.7234 -0.1097 0.6816
vn 0.9518 -0.1780 0.2500
vn 0.9400 -0.2438 0.2388
vn 0.9398 -0.1188 0.3203
vn 0.8557 -0.1108 0.5054
vn 0.6633 -0.0975 0.7420
vn 0.8196 -0.0864 0.5664
vn 0.9137 -0.0947 0.3953
vn 0.9152 -0.0780 0.3953
vn 0.8629 -0.0520 0.5027
vn 0.8381 -0.0257 0.5448
vn 0.8059 0.0007 0.5921
vn 0.8752 0.0103 0.4836
vn 0.7104 0.0585 0.7013
vn 0.8224 0.0890 0.5619
vn 0.8215 0.1335 0.5543
vn 0.6168 -0.0523 0.7854
vn 0.7512 -0.0220 0.6597
vn 0.6081 -0.0046 0.7938
vn 0.6677 0.1141 0.7357
vn 0.7399 0.1537 0.6549
vn 0.7859 0.1882 0.5891
vn 0.7736 0.2309 0.5901
vn 0.8198 0.2669 0.5066
vn 0.8353 0.3021 0.4593
vn 0.6757 0.3224 0.6630
vn 0.6751 0.3705 0.6379
vn 0.8288 0.4052 0.3859
vn 0.6603 0.4975 0.5627
vn 0.7639 0.5270 0.3725
vn 0.4689 -0.8409 0.2702
vn -0.1572 0.9315 0.3280
vn -0.1115 0.9256 -0.3617
vn -0.5052 0.8383 -0.2048
vn -0.6069 0.7284 0.3180
vn -0.7661 0.5865 -0.2629
vn -0.7773 0.5959 0.2015
vn -0.5943 0.6140 -0.5195
vn -0.8917 0.4033 0.2056
vn -0.8562 0.4073 -0.3179
vn -0.9550 0.2898 0.0633
vn -0.7749 0.4643 0.4289
vn -0.9250 0.2829 -0.2537
vn -0.9150 0.2656 0.3037
vn -0.7784 0.3834 0.4971
vn -0.5438 0.5357 0.6460
vn -0.7476 0.3444 -0.5679
vn -0.7738 0.3785 -0.5079
vn -0.7769 0.2258 -0.5877
vn -0.8864 0.2081 -0.4136
vn -0.7395 0.1430 -0.6578
vn -0.8435 0.1559 -0.5140
vn -0.5682 0.2952 -0.7681
vn -0.4515 0.4188 -0.7879
vn -0.6516 0.1631 -0.7408
vn -0.3149 0.5750 -0.7551
vn 0.1118 0.8269 -0.5511
vn 0.4222 0.8675 -0.2631
vn 0.3382 -0.8599 -0.3823
vn 0.4689 -0.8409 0.2702
vn -0.1979 -0.9799 -0.0252
vn 0.0828 -0.8680 0.4895
vn -0.2755 -0.8282 0.4880
vn 0.4222 0.8675 -0.2631
vn -0.1572 0.9315 0.3280
vn 0.2970 0.8362 0.4609
f 185/185/185 187/187/187 188/188/188
f 185/185/185 188/188/188 199/199/199
f 185/185/185 186/186/186 187/187/187
f 217/217/217 186/186/186 216/216/216
f 201/201/201 216/216/216 186/186/186
f 201/201/201 186/186/186 185/185/185
f 215/215/215 217/217/217 216/216/216
f 215/215/215 216/216/216 201/201/201
f 188/188/188 189/189/189 190/190/190
f 187/187/187 189/189/189 188/188/188
f 187/187/187 191/191/191 189/189/189
f 200/200/200 188/188/188 190/190/190
f 199/199/199 188/188/188 200/200/200
f 186/186/186 225/225/225 187/187/187
f 217/217/217 225/225/225 186/186/186
f 201/201/201 185/185/185 199/199/199
f 215/215/215 219/219/219 217/217/217
f 217/217/217 219/219/219 224/224/224
f 214/214/214 215/215/215 201/201/201
f 189/189/189 194/194/194 197/197/197
f 189/189/189 193/193/193 194/194/194
f 189/189/189 197/197/197 190/190/190
f 192/192/192 193/193/193 189/189/189
f 191/191/191 192/192/192 189/189/189
f 190/190/190 197/197/197 200/200/200
f 187/187/187 226/226/226 191/191/191
f 226/226/226 187/187/187 225/225/225
f 227/227/227 225/225/225 217/217/217
f 211/211/211 201/201/201 199/199/199
f 217/217/217 224/224/224 227/227/227
f 201/201/201 213/213/213 214/214/214
f 215/215/215 224/224/224 219/219/219
f 218/218/218 215/215/215 214/214/214
f 191/191/191 232/232/232 192/192/192
f 226/226/226 232/232/232 191/191/191
f 199/199/199 200/200/200 212/212/212
f 227/227/227 236/236/236 225/225/225
f 224/224/224 228/228/228 227/227/227
f 218/218/218 224/224/224 215/215/215
f 222/222/222 224/224/224 218/218/218
f 194/194/194 196/196/196 198/198/198
f 192/192/192 207/207/207 193/193/193
f 198/198/198 197/197/197 194/194/194
f 192/192/192 235/235/235 207/207/207
f 232/232/232 235/235/235 192/192/192
f 226/226/226 225/225/225 232/232/232
f 211/211/211 213/213/213 201/201/201
f 228/228/228 236/236/236 227/227/227
f 228/228/228 237/237/237 236/236/236
f 224/224/224 237/237/237 228/228/228
f 224/224/224 230/230/230 237/237/237
f 229/229/229 230/230/230 224/224/224
f 213/213/213 220/220/220 214/214/214
f 213/213/213 244/244/244 220/220/220
f 224/224/224 222/222/222 229/229/229
f 221/221/221 214/214/214 220/220/220
f 222/222/222 218/218/218 214/214/214
f 222/222/222 214/214/214 221/221/221
f 194/194/194 195/195/195 196/196/196
f 193/193/193 195/195/195 194/194/194
f 207/207/207 195/195/195 193/193/193
f 212/212/212 200/200/200 197/197/197
f 179/179/179 119/119/119 155/155/155
f 178/178/178 111/111/111 179/179/179
f 179/179/179 111/111/111 119/119/119
f 57/57/57 39/39/39 47/47/47
f 178/178/178 118/118/118 111/111/111
f 211/211/211 243/243/243 213/213/213
f 243/243/243 248/248/248 213/213/213
f 213/213/213 248/248/248 244/244/244
f 431/431/431 432/432/432 433/433/433
f 221/221/221 223/223/223 222/222/222
f 208/208/208 196/196/196 195/195/195
f 202/202/202 198/198/198 196/196/196
f 231/231/231 208/208/208 207/207/207
f 207/207/207 208/208/208 195/195/195
f 155/155/155 113/113/113 148/148/148
f 245/245/245 199/199/199 212/212/212
f 155/155/155 119/119/119 112/112/112
f 245/245/245 211/211/211 199/199/199
f 111/111/111 118/118/118 115/115/115
f 244/244/244 246/246/246 220/220/220
f 431/431/431 430/430/430 432/432/432
f 424/424/424 430/430/430 431/431/431
f 220/220/220 246/246/246 221/221/221
f 422/422/422 421/421/421 424/424/424
f 204/204/204 202/202/202 196/196/196
f 205/205/205 204/204/204 196/196/196
f 208/208/208 205/205/205 196/196/196
f 203/203/203 198/198/198 202/202/202
f 231/231/231 205/205/205 208/208/208
f 242/242/242 198/198/198 203/203/203
f 242/242/242 241/241/241 198/198/198
f 207/207/207 235/235/235 231/231/231
f 241/241/241 197/197/197 198/198/198
f 241/241/241 212/212/212 197/197/197
f 113/113/113 114/114/114 148/148/148
f 155/155/155 112/112/112 113/113/113
f 57/57/57 38/38/38 39/39/39
f 432/432/432 430/430/430 436/436/436
f 420/420/420 422/422/422 425/425/425
f 421/421/421 422/422/422 420/420/420
f 205/205/205 233/233/233 204/204/204
f 205/205/205 231/231/231 233/233/233
f 55/55/55 40/40/40 38/38/38
f 119/119/119 111/111/111 112/112/112
f 47/47/47 48/48/48 57/57/57
f 37/37/37 50/50/50 46/46/46
f 246/246/246 247/247/247 221/221/221
f 424/424/424 428/428/428 430/430/430
f 426/426/426 420/420/420 425/425/425
f 421/421/421 428/428/428 424/424/424
f 421/421/421 429/429/429 428/428/428
f 204/204/204 233/233/233 234/234/234
f 209/209/209 203/203/203 202/202/202
f 40/40/40 55/55/55 53/53/53
f 111/111/111 115/115/115 104/104/104
f 430/430/430 434/434/434 436/436/436
f 428/428/428 434/434/434 430/430/430
f 429/429/429 434/434/434 428/428/428
f 423/423/423 420/420/420 426/426/426
f 204/204/204 206/206/206 202/202/202
f 234/234/234 238/238/238 204/204/204
f 233/233/233 238/238/238 234/234/234
f 239/239/239 209/209/209 202/202/202
f 209/209/209 242/242/242 203/203/203
f 149/149/149 147/147/147 180/180/180
f 149/149/149 144/144/144 147/147/147
f 149/149/149 137/137/137 144/144/144
f 53/53/53 54/54/54 35/35/35
f 132/132/132 149/149/149 148/148/148
f 133/133/133 132/132/132 148/148/148
f 114/114/114 103/103/103 148/148/148
f 14/14/14 38/38/38 40/40/40
f 104/104/104 99/99/99 111/111/111
f 18/18/18 48/48/48 47/47/47
f 18/18/18 46/46/46 48/48/48
f 37/37/37 46/46/46 18/18/18
f 115/115/115 118/118/118 106/106/106
f 117/117/117 106/106/106 118/118/118
f 106/106/106 117/117/117 108/108/108
f 17/17/17 51/51/51 50/50/50
f 246/246/246 249/249/249 247/247/247
f 420/420/420 417/417/417 421/421/421
f 423/423/423 418/418/418 420/420/420
f 418/418/418 417/417/417 420/420/420
f 43/43/43 54/54/54 79/79/79
f 137/137/137 149/149/149 132/132/132
f 148/148/148 103/103/103 133/133/133
f 113/113/113 103/103/103 114/114/114
f 113/113/113 110/110/110 103/103/103
f 102/102/102 110/110/110 113/113/113
f 112/112/112 98/98/98 113/113/113
f 111/111/111 98/98/98 112/112/112
f 47/47/47 39/39/39 18/18/18
f 17/17/17 50/50/50 37/37/37
f 117/117/117 116/116/116 108/108/108
f 36/36/36 51/51/51 17/17/17
f 36/36/36 52/52/52 51/51/51
f 52/52/52 41/41/41 51/51/51
f 419/419/419 429/429/429 421/421/421
f 202/202/202 206/206/206 210/210/210
f 210/210/210 239/239/239 202/202/202
f 238/238/238 206/206/206 204/204/204
f 147/147/147 153/153/153 180/180/180
f 78/78/78 43/43/43 79/79/79
f 35/35/35 54/54/54 43/43/43
f 40/40/40 53/53/53 35/35/35
f 98/98/98 102/102/102 113/113/113
f 12/12/12 39/39/39 38/38/38
f 16/16/16 37/37/37 18/18/18
f 41/41/41 52/52/52 36/36/36
f 435/435/435 434/434/434 429/429/429
f 42/42/42 82/82/82 83/83/83
f 83/83/83 41/41/41 42/42/42
f 82/82/82 42/42/42 56/56/56
f 419/419/419 435/435/435 429/429/429
f 15/15/15 14/14/14 40/40/40
f 18/18/18 39/39/39 12/12/12
f 106/106/106 104/104/104 115/115/115
f 423/423/423 427/427/427 418/418/418
f 417/417/417 419/419/419 421/421/421
f 238/238/238 240/240/240 206/206/206
f 210/210/210 206/206/206 240/240/240
f 154/154/154 182/182/182 153/153/153
f 103/103/103 132/132/132 133/133/133
f 12/12/12 38/38/38 14/14/14
f 111/111/111 99/99/99 98/98/98
f 108/108/108 116/116/116 109/109/109
f 416/416/416 418/418/418 427/427/427
f 415/415/415 419/419/419 417/417/417
f 418/418/418 416/416/416 417/417/417
f 45/45/45 78/78/78 93/93/93
f 147/147/147 143/143/143 153/153/153
f 144/144/144 143/143/143 147/147/147
f 144/144/144 136/136/136 143/143/143
f 35/35/35 43/43/43 31/31/31
f 103/103/103 131/131/131 132/132/132
f 110/110/110 102/102/102 103/103/103
f 21/21/21 41/41/41 36/36/36
f 116/116/116 122/122/122 121/121/121
f 435/435/435 419/419/419 437/437/437
f 417/417/417 416/416/416 415/415/415
f 80/80/80 45/45/45 93/93/93
f 45/45/45 43/43/43 78/78/78
f 153/153/153 150/150/150 154/154/154
f 143/143/143 150/150/150 153/153/153
f 136/136/136 144/144/144 137/137/137
f 137/137/137 132/132/132 136/136/136
f 131/131/131 136/136/136 132/132/132
f 15/15/15 40/40/40 35/35/35
f 101/101/101 128/128/128 103/103/103
f 102/102/102 101/101/101 103/103/103
f 98/98/98 97/97/97 102/102/102
f 104/104/104 100/100/100 99/99/99
f 16/16/16 17/17/17 37/37/37
f 17/17/17 21/21/21 36/36/36
f 116/116/116 120/120/120 109/109/109
f 413/413/413 415/415/415 416/416/416
f 240/240/240 251/251/251 250/250/250
f 240/240/240 250/250/250 210/210/210
f 252/252/252 210/210/210 250/250/250
f 154/154/154 150/150/150 182/182/182
f 9/9/9 14/14/14 15/15/15
f 96/96/96 101/101/101 97/97/97
f 1/1/1 18/18/18 12/12/12
f 1/1/1 16/16/16 18/18/18
f 121/121/121 120/120/120 116/116/116
f 25/25/25 41/41/41 21/21/21
f 42/42/42 41/41/41 25/25/25
f 42/42/42 49/49/49 56/56/56
f 59/59/59 91/91/91 56/56/56
f 181/181/181 182/182/182 150/150/150
f 45/45/45 44/44/44 43/43/43
f 150/150/150 143/143/143 145/145/145
f 31/31/31 44/44/44 45/45/45
f 44/44/44 31/31/31 43/43/43
f 13/13/13 35/35/35 31/31/31
f 35/35/35 13/13/13 15/15/15
f 11/11/11 9/9/9 15/15/15
f 98/98/98 95/95/95 97/97/97
f 104/104/104 105/105/105 100/100/100
f 106/106/106 105/105/105 104/104/104
f 105/105/105 106/106/106 107/107/107
f 5/5/5 17/17/17 16/16/16
f 108/108/108 107/107/107 106/106/106
f 109/109/109 107/107/107 108/108/108
f 21/21/21 17/17/17 19/19/19
f 109/109/109 120/120/120 124/124/124
f 25/25/25 49/49/49 42/42/42
f 59/59/59 56/56/56 49/49/49
f 415/415/415 438/438/438 419/419/419
f 91/91/91 59/59/59 92/92/92
f 15/15/15 13/13/13 11/11/11
f 128/128/128 129/129/129 103/103/103
f 97/97/97 101/101/101 102/102/102
f 12/12/12 14/14/14 9/9/9
f 98/98/98 99/99/99 95/95/95
f 5/5/5 16/16/16 1/1/1
f 121/121/121 122/122/122 125/125/125
f 438/438/438 437/437/437 419/419/419
f 415/415/415 414/414/414 438/438/438
f 413/413/413 414/414/414 415/415/415
f 443/443/443 444/444/444 442/442/442
f 45/45/45 80/80/80 76/76/76
f 140/140/140 145/145/145 143/143/143
f 143/143/143 136/136/136 140/140/140
f 95/95/95 96/96/96 97/97/97
f 1/1/1 12/12/12 2/2/2
f 23/23/23 25/25/25 21/21/21
f 122/122/122 126/126/126 125/125/125
f 177/177/177 169/169/169 126/126/126
f 92/92/92 59/59/59 84/84/84
f 181/181/181 183/183/183 184/184/184
f 163/163/163 183/183/183 181/181/181
f 181/181/181 150/150/150 163/163/163
f 103/103/103 130/130/130 131/131/131
f 129/129/129 130/130/130 103/103/103
f 12/12/12 9/9/9 3/3/3
f 12/12/12 3/3/3 2/2/2
f 1/1/1 2/2/2 3/3/3
f 100/100/100 95/95/95 99/99/99
f 107/107/107 109/109/109 123/123/123
f 5/5/5 19/19/19 17/17/17
f 23/23/23 21/21/21 22/22/22
f 125/125/125 126/126/126 169/169/169
f 150/150/150 145/145/145 163/163/163
f 76/76/76 75/75/75 45/45/45
f 32/32/32 31/31/31 45/45/45
f 105/105/105 127/127/127 100/100/100
f 121/121/121 125/125/125 120/120/120
f 25/25/25 59/59/59 49/49/49
f 439/439/439 414/414/414 413/413/413
f 440/440/440 441/441/441 442/442/442
f 441/441/441 443/443/443 442/442/442
f 31/31/31 30/30/30 13/13/13
f 134/134/134 136/136/136 131/131/131
f 95/95/95 135/135/135 96/96/96
f 100/100/100 135/135/135 95/95/95
f 123/123/123 138/138/138 107/107/107
f 20/20/20 21/21/21 19/19/19
f 20/20/20 22/22/22 21/21/21
f 124/124/124 120/120/120 139/139/139
f 439/439/439 438/438/438 414/414/414
f 45/45/45 75/75/75 32/32/32
f 145/145/145 151/151/151 163/163/163
f 145/145/145 140/140/140 151/151/151
f 32/32/32 30/30/30 31/31/31
f 130/130/130 134/134/134 131/131/131
f 19/19/19 5/5/5 20/20/20
f 125/125/125 141/141/141 120/120/120
f 25/25/25 23/23/23 58/58/58
f 169/169/169 141/141/141 125/125/125
f 59/59/59 25/25/25 58/58/58
f 445/445/445 446/446/446 447/447/447
f 136/136/136 134/134/134 140/140/140
f 11/11/11 13/13/13 10/10/10
f 8/8/8 3/3/3 9/9/9
f 96/96/96 135/135/135 101/101/101
f 4/4/4 1/1/1 3/3/3
f 105/105/105 107/107/107 127/127/127
f 109/109/109 124/124/124 123/123/123
f 353/353/353 362/362/362 366/366/366
f 76/76/76 94/94/94 75/75/75
f 358/358/358 363/363/363 357/357/357
f 363/363/363 358/358/358 364/364/364
f 170/170/170 163/163/163 151/151/151
f 13/13/13 30/30/30 10/10/10
f 11/11/11 10/10/10 9/9/9
f 9/9/9 10/10/10 8/8/8
f 4/4/4 5/5/5 1/1/1
f 100/100/100 127/127/127 135/135/135
f 4/4/4 6/6/6 5/5/5
f 138/138/138 127/127/127 107/107/107
f 123/123/123 124/124/124 138/138/138
f 139/139/139 138/138/138 124/124/124
f 26/26/26 23/23/23 22/22/22
f 120/120/120 141/141/141 159/159/159
f 169/169/169 174/174/174 141/141/141
f 90/90/90 84/84/84 58/58/58
f 58/58/58 84/84/84 59/59/59
f 362/362/362 361/361/361 365/365/365
f 358/358/358 412/412/412 364/364/364
f 32/32/32 75/75/75 30/30/30
f 140/140/140 170/170/170 151/151/151
f 129/129/129 142/142/142 130/130/130
f 6/6/6 7/7/7 5/5/5
f 24/24/24 5/5/5 7/7/7
f 24/24/24 20/20/20 5/5/5
f 159/159/159 161/161/161 120/120/120
f 63/63/63 58/58/58 23/23/23
f 75/75/75 77/77/77 30/30/30
f 140/140/140 158/158/158 167/167/167
f 10/10/10 30/30/30 61/61/61
f 134/134/134 130/130/130 140/140/140
f 140/140/140 130/130/130 158/158/158
f 128/128/128 142/142/142 129/129/129
f 101/101/101 135/135/135 128/128/128
f 127/127/127 146/146/146 135/135/135
f 24/24/24 22/22/22 20/20/20
f 120/120/120 161/161/161 139/139/139
f 63/63/63 23/23/23 26/26/26
f 90/90/90 58/58/58 89/89/89
f 348/348/348 361/361/361 362/362/362
f 345/345/345 362/362/362 353/353/353
f 369/369/369 412/412/412 358/358/358
f 369/369/369 368/368/368 412/412/412
f 167/167/167 170/170/170 140/140/140
f 29/29/29 10/10/10 61/61/61
f 29/29/29 8/8/8 10/10/10
f 142/142/142 166/166/166 130/130/130
f 142/142/142 128/128/128 135/135/135
f 4/4/4 3/3/3 8/8/8
f 152/152/152 156/156/156 135/135/135
f 6/6/6 4/4/4 27/27/27
f 28/28/28 7/7/7 6/6/6
f 127/127/127 160/160/160 146/146/146
f 138/138/138 160/160/160 127/127/127
f 24/24/24 60/60/60 26/26/26
f 24/24/24 26/26/26 22/22/22
f 141/141/141 176/176/176 159/159/159
f 175/175/175 176/176/176 141/141/141
f 141/141/141 174/174/174 175/175/175
f 58/58/58 88/88/88 89/89/89
f 361/361/361 347/347/347 360/360/360
f 347/347/347 361/361/361 348/348/348
f 362/362/362 345/345/345 348/348/348
f 358/358/358 325/325/325 369/369/369
f 358/358/358 357/357/357 325/325/325
f 367/367/367 368/368/368 369/369/369
f 30/30/30 77/77/77 67/67/67
f 30/30/30 67/67/67 61/61/61
f 165/165/165 164/164/164 130/130/130
f 166/166/166 165/165/165 130/130/130
f 4/4/4 8/8/8 33/33/33
f 146/146/146 152/152/152 135/135/135
f 139/139/139 161/161/161 138/138/138
f 360/360/360 347/347/347 359/359/359
f 81/81/81 88/88/88 58/58/58
f 348/348/348 346/346/346 347/347/347
f 411/411/411 410/410/410 333/333/333
f 411/411/411 353/353/353 410/410/410
f 324/324/324 325/325/325 357/357/357
f 322/322/322 324/324/324 357/357/357
f 367/367/367 370/370/370 368/368/368
f 158/158/158 130/130/130 164/164/164
f 33/33/33 8/8/8 29/29/29
f 135/135/135 157/157/157 142/142/142
f 135/135/135 156/156/156 157/157/157
f 34/34/34 4/4/4 33/33/33
f 27/27/27 4/4/4 62/62/62
f 28/28/28 6/6/6 27/27/27
f 138/138/138 162/162/162 160/160/160
f 66/66/66 60/60/60 24/24/24
f 172/172/172 138/138/138 161/161/161
f 60/60/60 64/64/64 26/26/26
f 352/352/352 354/354/354 351/351/351
f 63/63/63 68/68/68 58/58/58
f 68/68/68 81/81/81 58/58/58
f 347/347/347 339/339/339 359/359/359
f 346/346/346 339/339/339 347/347/347
f 345/345/345 346/346/346 348/348/348
f 333/333/333 353/353/353 411/411/411
f 353/353/353 334/334/334 345/345/345
f 349/349/349 322/322/322 357/357/357
f 371/371/371 379/379/379 373/373/373
f 164/164/164 167/167/167 158/158/158
f 33/33/33 29/29/29 61/61/61
f 34/34/34 33/33/33 70/70/70
f 171/171/171 157/157/157 156/156/156
f 34/34/34 62/62/62 4/4/4
f 65/65/65 7/7/7 28/28/28
f 24/24/24 7/7/7 65/65/65
f 168/168/168 138/138/138 173/173/173
f 64/64/64 63/63/63 26/26/26
f 331/331/331 351/351/351 339/339/339
f 81/81/81 68/68/68 63/63/63
f 409/409/409 410/410/410 408/408/408
f 346/346/346 335/335/335 339/339/339
f 345/345/345 335/335/335 346/346/346
f 335/335/335 345/345/345 334/334/334
f 298/298/298 334/334/334 353/353/353
f 298/298/298 353/353/353 333/333/333
f 367/367/367 369/369/369 325/325/325
f 325/325/325 305/305/305 367/367/367
f 371/371/371 370/370/370 367/367/367
f 372/372/372 371/371/371 367/367/367
f 371/371/371 373/373/373 370/370/370
f 349/349/349 313/313/313 323/323/323
f 338/338/338 313/313/313 349/349/349
f 375/375/375 379/379/379 371/371/371
f 71/71/71 33/33/33 61/61/61
f 350/350/350 326/326/326 328/328/328
f 142/142/142 157/157/157 166/166/166
f 321/321/321 355/355/355 356/356/356
f 69/69/69 24/24/24 65/65/65
f 162/162/162 138/138/138 168/168/168
f 354/354/354 330/330/330 332/332/332
f 86/86/86 63/63/63 64/64/64
f 352/352/352 330/330/330 354/354/354
f 351/351/351 330/330/330 352/352/352
f 331/331/331 330/330/330 351/351/351
f 339/339/339 309/309/309 331/331/331
f 339/339/339 335/335/335 309/309/309
f 409/409/409 333/333/333 410/410/410
f 305/305/305 308/308/308 367/367/367
f 308/308/308 372/372/372 367/367/367
f 305/305/305 325/325/325 324/324/324
f 305/305/305 324/324/324 303/303/303
f 324/324/324 322/322/322 303/303/303
f 323/323/323 322/322/322 349/349/349
f 374/374/374 375/375/375 371/371/371
f 337/337/337 313/313/313 338/338/338
f 378/378/378 379/379/379 375/375/375
f 33/33/33 72/72/72 70/70/70
f 152/152/152 171/171/171 156/156/156
f 27/27/27 62/62/62 28/28/28
f 74/74/74 65/65/65 28/28/28
f 340/340/340 344/344/344 316/316/316
f 343/343/343 316/316/316 344/344/344
f 73/73/73 66/66/66 24/24/24
f 73/73/73 24/24/24 69/69/69
f 60/60/60 66/66/66 73/73/73
f 138/138/138 172/172/172 173/173/173
f 86/86/86 64/64/64 60/60/60
f 86/86/86 60/60/60 85/85/85
f 87/87/87 63/63/63 86/86/86
f 63/63/63 87/87/87 81/81/81
f 406/406/406 408/408/408 407/407/407
f 329/329/329 409/409/409 408/408/408
f 334/334/334 309/309/309 335/335/335
f 309/309/309 334/334/334 298/298/298
f 258/258/258 333/333/333 409/409/409
f 372/372/372 374/374/374 371/371/371
f 313/313/313 322/322/322 323/323/323
f 338/338/338 310/310/310 337/337/337
f 328/328/328 310/310/310 338/338/338
f 71/71/71 72/72/72 33/33/33
f 350/350/350 327/327/327 326/326/326
f 342/342/342 327/327/327 350/350/350
f 341/341/341 318/318/318 342/342/342
f 355/355/355 321/321/321 341/341/341
f 74/74/74 28/28/28 62/62/62
f 340/340/340 321/321/321 356/356/356
f 343/343/343 336/336/336 316/316/316
f 85/85/85 60/60/60 73/73/73
f 330/330/330 309/309/309 312/312/312
f 330/330/330 331/331/331 309/309/309
f 406/406/406 407/407/407 405/405/405
f 270/270/270 408/408/408 406/406/406
f 270/270/270 329/329/329 408/408/408
f 258/258/258 298/298/298 333/333/333
f 329/329/329 258/258/258 409/409/409
f 305/305/305 303/303/303 301/301/301
f 305/305/305 301/301/301 308/308/308
f 376/376/376 372/372/372 308/308/308
f 376/376/376 374/374/374 372/372/372
f 299/299/299 322/322/322 313/313/313
f 376/376/376 375/375/375 374/374/374
f 375/375/375 377/377/377 378/378/378
f 310/310/310 313/313/313 337/337/337
f 342/342/342 319/319/319 327/327/327
f 320/320/320 321/321/321 340/340/340
f 320/320/320 340/340/340 315/315/315
f 69/69/69 65/65/65 74/74/74
f 340/340/340 314/314/314 315/315/315
f 314/314/314 340/340/340 316/316/316
f 332/332/332 311/311/311 336/336/336
f 330/330/330 311/311/311 332/332/332
f 312/312/312 311/311/311 330/330/330
f 405/405/405 270/270/270 406/406/406
f 270/270/270 258/258/258 329/329/329
f 301/301/301 376/376/376 308/308/308
f 322/322/322 299/299/299 303/303/303
f 377/377/377 375/375/375 376/376/376
f 306/306/306 310/310/310 328/328/328
f 377/377/377 380/380/380 378/378/378
f 381/381/381 382/382/382 378/378/378
f 381/381/381 378/378/378 380/380/380
f 328/328/328 326/326/326 306/306/306
f 388/388/388 398/398/398 387/387/387
f 318/318/318 319/319/319 342/342/342
f 399/399/399 400/400/400 398/398/398
f 318/318/318 341/341/341 321/321/321
f 392/392/392 400/400/400 399/399/399
f 393/393/393 395/395/395 400/400/400
f 316/316/316 336/336/336 311/311/311
f 272/272/272 405/405/405 404/404/404
f 272/272/272 271/271/271 405/405/405
f 295/295/295 312/312/312 309/309/309
f 271/271/271 270/270/270 405/405/405
f 295/295/295 309/309/309 298/298/298
f 295/295/295 298/298/298 258/258/258
f 258/258/258 270/270/270 257/257/257
f 257/257/257 270/270/270 271/271/271
f 303/303/303 300/300/300 301/301/301
f 300/300/300 303/303/303 299/299/299
f 301/301/301 384/384/384 376/376/376
f 299/299/299 313/313/313 291/291/291
f 377/377/377 376/376/376 384/384/384
f 313/313/313 310/310/310 291/291/291
f 381/381/381 387/387/387 382/382/382
f 327/327/327 307/307/307 326/326/326
f 386/386/386 387/387/387 381/381/381
f 388/388/388 387/387/387 386/386/386
f 392/392/392 398/398/398 388/388/388
f 399/399/399 398/398/398 392/392/392
f 321/321/321 317/317/317 318/318/318
f 393/393/393 400/400/400 392/392/392
f 321/321/321 320/320/320 297/297/297
f 401/401/401 395/395/395 396/396/396
f 397/397/397 402/402/402 401/401/401
f 397/397/397 401/401/401 396/396/396
f 296/296/296 314/314/314 316/316/316
f 284/284/284 402/402/402 397/397/397
f 403/403/403 402/402/402 284/284/284
f 316/316/316 294/294/294 296/296/296
f 272/272/272 403/403/403 267/267/267
f 311/311/311 294/294/294 316/316/316
f 272/272/272 404/404/404 403/403/403
f 294/294/294 258/258/258 254/254/254
f 295/295/295 311/311/311 312/312/312
f 294/294/294 311/311/311 295/295/295
f 256/256/256 257/257/257 272/272/272
f 294/294/294 295/295/295 258/258/258
f 257/257/257 271/271/271 272/272/272
f 254/254/254 258/258/258 257/257/257
f 299/299/299 291/291/291 292/292/292
f 300/300/300 299/299/299 292/292/292
f 292/292/292 301/301/301 300/300/300
f 301/301/301 383/383/383 384/384/384
f 383/383/383 377/377/377 384/384/384
f 383/383/383 380/380/380 377/377/377
f 291/291/291 310/310/310 288/288/288
f 288/288/288 310/310/310 306/306/306
f 326/326/326 307/307/307 306/306/306
f 319/319/319 307/307/307 327/327/327
f 318/318/318 304/304/304 319/319/319
f 392/392/392 388/388/388 391/391/391
f 297/297/297 317/317/317 321/321/321
f 280/280/280 393/393/393 394/394/394
f 280/280/280 395/395/395 393/393/393
f 396/396/396 395/395/395 280/280/280
f 315/315/315 297/297/297 320/320/320
f 268/268/268 284/284/284 396/396/396
f 397/397/397 396/396/396 284/284/284
f 293/293/293 315/315/315 314/314/314
f 314/314/314 296/296/296 293/293/293
f 284/284/284 267/267/267 403/403/403
f 256/256/256 272/272/272 267/267/267
f 254/254/254 257/257/257 256/256/256
f 292/292/292 383/383/383 301/301/301
f 292/292/292 380/380/380 383/383/383
f 385/385/385 381/381/381 380/380/380
f 386/386/386 381/381/381 385/385/385
f 287/287/287 306/306/306 307/307/307
f 385/385/385 388/388/388 386/386/386
f 389/389/389 388/388/388 385/385/385
f 389/389/389 390/390/390 388/388/388
f 307/307/307 319/319/319 304/304/304
f 390/390/390 391/391/391 388/388/388
f 304/304/304 318/318/318 302/302/302
f 317/317/317 302/302/302 318/318/318
f 394/394/394 393/393/393 282/282/282
f 268/268/268 396/396/396 280/280/280
f 293/293/293 297/297/297 315/315/315
f 267/267/267 284/284/284 268/268/268
f 294/294/294 253/253/253 296/296/296
f 255/255/255 267/267/267 265/265/265
f 253/253/253 254/254/254 255/255/255
f 253/253/253 294/294/294 254/254/254
f 255/255/255 256/256/256 267/267/267
f 255/255/255 254/254/254 256/256/256
f 292/292/292 291/291/291 290/290/290
f 290/290/290 380/380/380 292/292/292
f 291/291/291 288/288/288 290/290/290
f 290/290/290 385/385/385 380/380/380
f 288/288/288 289/289/289 290/290/290
f 288/288/288 306/306/306 287/287/287
f 385/385/385 290/290/290 389/389/389
f 290/290/290 390/390/390 389/389/389
f 290/290/290 281/281/281 390/390/390
f 304/304/304 287/287/287 307/307/307
f 281/281/281 392/392/392 390/390/390
f 392/392/392 391/391/391 390/390/390
f 304/304/304 302/302/302 287/287/287
f 276/276/276 392/392/392 281/281/281
f 283/283/283 393/393/393 392/392/392
f 283/283/283 392/392/392 276/276/276
f 282/282/282 393/393/393 283/283/283
f 297/297/297 302/302/302 317/317/317
f 297/297/297 285/285/285 302/302/302
f 269/269/269 268/268/268 280/280/280
f 297/297/297 293/293/293 259/259/259
f 261/261/261 267/267/267 268/268/268
f 261/261/261 265/265/265 267/267/267
f 253/253/253 293/293/293 296/296/296
f 293/293/293 253/253/253 259/259/259
f 261/261/261 255/255/255 265/265/265
f 259/259/259 253/253/253 255/255/255
f 279/279/279 289/289/289 288/288/288
f 279/279/279 288/288/288 278/278/278
f 288/288/288 287/287/287 278/278/278
f 289/289/289 279/279/279 290/290/290
f 290/290/290 279/279/279 281/281/281
f 276/276/276 281/281/281 279/279/279
f 279/279/279 278/278/278 276/276/276
f 274/274/274 287/287/287 273/273/273
f 286/286/286 287/287/287 302/302/302
f 282/282/282 283/283/283 276/276/276
f 286/286/286 273/273/273 287/287/287
f 276/276/276 275/275/275 282/282/282
f 275/275/275 280/280/280 282/282/282
f 280/280/280 394/394/394 282/282/282
f 302/302/302 285/285/285 286/286/286
f 266/266/266 269/269/269 280/280/280
f 266/266/266 280/280/280 275/275/275
f 285/285/285 262/262/262 286/286/286
f 263/263/263 268/268/268 269/269/269
f 263/263/263 269/269/269 266/266/266
f 259/259/259 260/260/260 285/285/285
f 259/259/259 285/285/285 297/297/297
f 285/285/285 260/260/260 262/262/262
f 263/263/263 261/261/261 268/268/268
f 255/255/255 260/260/260 259/259/259
f 261/261/261 260/260/260 255/255/255
f 260/260/260 261/261/261 262/262/262
f 262/262/262 261/261/261 263/263/263
f 277/277/277 278/278/278 287/287/287
f 277/277/277 276/276/276 278/278/278
f 287/287/287 274/274/274 277/277/277
f 274/274/274 275/275/275 276/276/276
f 274/274/274 276/276/276 277/277/277
f 274/274/274 273/273/273 266/266/266
f 266/266/266 275/275/275 274/274/274
f 286/286/286 262/262/262 273/273/273
f 262/262/262 264/264/264 273/273/273
f 273/273/273 264/264/264 266/266/266
f 266/266/266 264/264/264 263/263/263
f 264/264/264 262/262/262 263/263/263
