# Shopkeeper / ClawTipL  (local frame of part 'ClawTipL', bbox-centred; -Z = front)
v 0.22267 -0.00525 0.02882
v 0.21861 0.01181 0.05495
v 0.21380 -0.04337 0.03721
v 0.20734 -0.01540 0.09965
v 0.21451 0.00974 0.07590
v 0.20244 -0.05456 0.07236
v 0.22391 -0.00518 0.00497
v 0.21304 -0.04984 -0.01206
v 0.22187 0.00060 -0.03862
v 0.21550 -0.03125 -0.05523
v 0.20987 -0.05667 -0.00031
v 0.21931 0.01865 0.04377
v 0.21711 0.00455 -0.06752
v 0.22086 0.02189 -0.02396
v 0.21814 0.02739 0.03820
v 0.21330 0.04788 0.00291
v 0.20493 -0.04273 -0.08526
v 0.20814 -0.01087 -0.10015
v 0.19921 -0.03674 -0.10955
v 0.20745 0.01366 -0.10032
v 0.20571 -0.03736 0.08810
v 0.19786 -0.07042 -0.04815
v 0.21269 0.04233 -0.04425
v 0.21415 0.03075 -0.05983
v 0.19713 -0.02044 0.12421
v 0.20390 -0.03542 0.09603
v 0.19303 -0.04355 0.11691
v 0.19284 -0.05806 0.09810
v 0.19056 0.00981 0.14080
v 0.19986 0.02913 0.11074
v 0.20407 0.03411 0.09427
v 0.17305 -0.00683 0.17186
v 0.18334 -0.04547 0.13594
v 0.16560 -0.02893 0.17662
v 0.18783 -0.08054 0.05859
v 0.20577 0.05721 0.04190
v 0.18252 -0.09217 0.02295
v 0.16399 -0.04848 0.16627
v 0.17276 -0.06916 0.12720
v 0.17989 -0.09450 -0.02728
v 0.18511 -0.07738 -0.08110
v 0.17929 -0.06933 -0.11444
v 0.16842 -0.10589 -0.00630
v 0.16796 -0.08859 0.09811
v 0.16730 -0.07427 0.12943
v 0.15997 -0.07547 0.14059
v 0.18362 -0.03532 -0.14508
v 0.19253 -0.02675 -0.13263
v 0.18832 0.00796 -0.14690
v 0.13915 -0.06729 0.18143
v 0.15154 -0.03355 0.19300
v 0.15438 -0.11095 0.05669
v 0.14826 -0.09070 0.13276
v 0.15464 -0.07391 -0.15293
v 0.16353 -0.04549 -0.17077
v 0.16320 -0.07908 -0.13006
v 0.14769 -0.11341 -0.06812
v 0.16407 -0.10616 -0.04447
v 0.16081 -0.09619 -0.09581
v 0.14439 -0.09885 -0.12270
v 0.13280 -0.09744 0.14299
v 0.12654 -0.08080 0.17945
v 0.13874 -0.04771 -0.20069
v 0.15286 -0.03538 -0.19174
v 0.15300 0.00298 -0.20022
v 0.11601 -0.08977 -0.17957
v 0.19914 0.05917 -0.07189
v 0.09612 -0.07477 -0.21599
v 0.12058 -0.03377 0.22451
v 0.12565 -0.05996 0.20344
v 0.12511 -0.07165 0.19243
v 0.20791 0.05862 -0.00360
v 0.20195 0.06683 0.02365
v 0.15253 0.02020 0.19614
v 0.15377 -0.00526 0.19806
v 0.19840 0.04141 0.10278
v 0.10391 -0.07502 0.20814
v 0.11558 -0.07525 0.19778
v 0.18872 0.05699 -0.10849
v 0.18989 0.04372 -0.12280
v 0.17222 0.03757 -0.16134
v 0.15156 0.02642 -0.19621
v 0.17650 0.04645 0.14534
v 0.18215 0.05669 0.12273
v 0.19195 0.06940 0.07219
v 0.10512 -0.03015 -0.23898
v 0.13604 -0.00727 -0.21842
v 0.12692 0.01742 -0.22474
v 0.08801 -0.00249 0.25330
v 0.13010 0.02987 0.21644
v 0.16486 0.05751 0.15340
v 0.14406 0.05429 0.18561
v 0.06573 -0.04972 0.25054
v 0.08128 -0.07026 0.22799
v 0.14844 0.05198 -0.18334
v 0.09934 0.03794 0.23714
v 0.10996 0.04305 -0.22776
v 0.07577 0.01699 -0.25866
v 0.08204 -0.03220 -0.25218
v 0.05452 -0.00542 0.26804
v 0.04632 0.04385 0.25915
v 0.01871 -0.04190 0.26700
v 0.02459 -0.01053 -0.27528
v 0.07562 0.08965 -0.20605
v 0.11512 0.09394 -0.16778
v 0.12134 0.07373 -0.19083
v 0.09242 0.10384 -0.17175
v 0.06717 0.10118 -0.19381
v 0.07870 0.06069 -0.23533
v 0.05613 0.07520 -0.23220
v 0.10996 0.04305 -0.22776
v 0.12878 0.06146 -0.19674
v 0.15889 0.06341 -0.15694
v 0.15567 0.08372 -0.13069
v 0.14844 0.05198 -0.18334
v 0.16594 0.06937 -0.13727
v 0.08551 0.11392 -0.15728
v 0.14516 0.10450 -0.10042
v 0.09679 0.12994 -0.09914
v 0.05664 0.13939 -0.11037
v 0.10657 0.13590 -0.04786
v 0.14849 0.10822 -0.07982
v 0.17433 0.08385 -0.09037
v 0.16255 0.10086 -0.06801
v 0.18872 0.05699 -0.10849
v 0.17378 0.09145 -0.06739
v 0.15875 0.11076 -0.01556
v 0.17021 0.09940 -0.04301
v 0.01983 0.13604 -0.14068
v 0.06892 0.14913 -0.03772
v 0.01176 0.11359 -0.19093
v 0.02127 0.08953 -0.22517
v 0.04502 0.15281 -0.05151
v 0.01705 0.14950 -0.09267
v 0.12509 0.13061 0.00761
v 0.00110 0.14645 -0.10860
v 0.14741 0.11620 0.03939
v 0.18963 0.08066 -0.04122
v 0.17118 0.10156 -0.00842
v -0.02845 0.13209 -0.14994
v 0.17600 0.09381 0.04514
v 0.19279 0.06510 -0.08140
v 0.20195 0.06683 0.02365
v 0.20791 0.05862 -0.00360
v 0.13587 0.11535 0.08246
v 0.17464 0.08981 0.06949
v 0.19914 0.05917 -0.07189
v 0.21269 0.04233 -0.04425
v 0.17534 0.08460 0.08423
v 0.16063 0.08865 0.10978
v 0.11961 0.11399 0.11794
v 0.12685 0.10027 0.14119
v -0.02609 0.10396 -0.20518
v 0.19195 0.06940 0.07219
v 0.20577 0.05721 0.04190
v -0.00339 0.07749 -0.24045
v 0.14584 0.07969 0.15229
v 0.17447 0.07227 0.11451
v 0.09852 0.09940 0.17505
v 0.11368 0.07551 0.19580
v 0.16486 0.05751 0.15340
v 0.06303 0.10646 0.18836
v 0.08313 0.07278 0.22180
v 0.07199 0.06629 0.23386
v 0.03358 0.08686 0.22704
v 0.14406 0.05429 0.18561
v 0.18215 0.05669 0.12273
v 0.01996 0.04363 -0.26497
v 0.17222 0.03757 -0.16134
v 0.18989 0.04372 -0.12280
v 0.17650 0.04645 0.14534
v 0.09934 0.03794 0.23714
v 0.13010 0.02987 0.21644
v 0.04632 0.04385 0.25915
v 0.01219 0.05809 0.25678
v -0.03560 0.04999 -0.25953
v 0.00480 0.03778 0.26872
v 0.07577 0.01699 -0.25866
v -0.00181 0.01704 -0.27576
v 0.01668 0.00807 0.27576
v 0.02855 0.15667 0.03162
v 0.07028 0.14138 0.08655
v 0.05721 0.15216 0.03192
v 0.02000 0.15102 0.07957
v 0.02829 0.15777 0.01076
v 0.08660 0.14511 0.02218
v 0.09766 0.13939 0.04621
v 0.09649 0.13434 0.08087
v 0.04109 0.12858 0.15238
v 0.01750 0.14177 0.12067
v 0.01479 0.15899 -0.00101
v -0.03051 0.15290 0.06508
v -0.01919 0.14422 0.11179
v -0.04015 0.13082 0.14819
v -0.06849 0.15197 0.00762
v 0.00017 0.10289 0.21022
v 0.11116 0.13685 0.00511
v -0.01383 0.15111 -0.08647
v -0.05389 0.15062 -0.06154
v -0.08622 0.14209 0.06246
v -0.07590 0.14814 -0.04152
v -0.03628 0.09769 0.21358
v -0.06223 0.11381 0.17733
v -0.09694 0.10962 0.15996
v -0.11901 0.12066 0.10045
v -0.14209 0.12279 0.01881
v -0.14258 0.11228 0.08192
v -0.13959 0.12450 -0.01450
v -0.11932 0.12906 -0.06414
v -0.07098 0.13485 -0.11575
v -0.08661 0.12538 -0.12977
v -0.06286 0.11865 -0.16618
v -0.06645 0.08744 0.21665
v -0.09047 0.09067 0.19871
v -0.13197 0.10424 -0.12812
v -0.13554 0.11606 -0.08458
v -0.12289 0.08886 0.17158
v -0.09910 0.10755 -0.16163
v -0.17160 0.09578 -0.06273
v -0.17998 0.09572 0.00782
v -0.15836 0.07782 0.13953
v -0.18557 0.08383 0.05478
v -0.15866 0.09077 -0.11296
v -0.19728 0.07718 0.00933
v -0.12102 0.09244 -0.16784
v -0.13360 0.09952 -0.13692
v -0.11625 0.06146 0.21103
v -0.06779 0.07836 -0.22648
v -0.08780 0.08423 -0.20928
v -0.16625 0.07655 -0.12810
v -0.13225 0.08303 -0.17024
v -0.13301 0.06741 0.18905
v -0.05899 0.06355 0.24317
v -0.19749 0.05423 0.09034
v -0.17383 0.06446 0.13241
v -0.19703 0.05908 -0.08393
v -0.13351 0.06383 -0.19400
v -0.10250 0.06712 -0.21848
v -0.16635 0.06568 -0.14567
v -0.21442 0.04517 -0.03671
v -0.07697 0.04968 -0.24676
v -0.10201 0.04653 -0.23493
v -0.09892 0.03820 0.23883
v -0.14521 0.03525 0.20102
v -0.02101 0.04206 0.26577
v -0.05781 0.01722 0.26589
v -0.08521 0.02203 -0.25523
v -0.14309 -0.07337 0.17231
v -0.16327 -0.05646 0.16378
v -0.14246 -0.09165 0.14458
v -0.18701 -0.06197 0.11163
v -0.13901 -0.10626 0.11749
v -0.15059 -0.11469 0.06030
v -0.18092 -0.08865 0.06584
v -0.20266 -0.05370 0.07928
v -0.19196 -0.07955 0.05288
v -0.18048 -0.09732 -0.00951
v -0.10490 -0.09328 0.18513
v -0.12448 -0.08060 0.18438
v -0.09671 -0.10170 0.17846
v -0.09636 -0.13175 0.10353
v -0.10106 -0.13508 0.08197
v -0.12693 -0.12699 0.06667
v -0.07310 -0.12323 0.15313
v -0.08128 -0.10883 0.17776
v -0.07574 -0.13323 0.12269
v -0.09062 -0.14372 0.05070
v -0.11572 -0.13792 -0.00259
v -0.14141 -0.12264 -0.04716
v -0.05172 -0.14286 0.10952
v -0.04180 -0.11357 0.18980
v -0.02689 -0.12084 0.18033
v -0.06934 -0.07670 0.22878
v -0.09658 -0.05879 0.22906
v -0.12126 -0.05540 0.21292
v -0.02662 -0.07883 0.23995
v -0.14759 -0.04594 0.19325
v -0.16205 -0.09965 -0.08952
v -0.13879 -0.10707 -0.11824
v -0.12547 -0.10323 -0.14769
v -0.10934 -0.13293 -0.07925
v -0.07279 -0.12641 -0.14808
v -0.02450 -0.10058 0.21441
v -0.04819 -0.11723 -0.18396
v -0.09107 -0.09613 -0.19446
v -0.14112 -0.07330 -0.17692
v -0.03816 -0.09474 -0.22294
v -0.10441 -0.07186 -0.21454
v -0.08444 -0.06014 -0.23770
v -0.05216 -0.03489 0.26337
v -0.01418 -0.06359 0.25467
v -0.03108 -0.01431 0.27378
v 0.01871 -0.04190 0.26700
v 0.08511 -0.14797 -0.00950
v 0.05720 -0.15333 0.03269
v 0.00338 -0.15899 -0.02751
v 0.06187 -0.14844 -0.06726
v -0.01569 -0.15184 -0.08504
v -0.00872 -0.14647 -0.11246
v 0.03954 -0.14362 -0.11223
v -0.00940 -0.13553 -0.15046
v -0.07360 -0.14973 -0.03904
v -0.04646 -0.15656 -0.00689
v 0.02148 -0.15899 0.00192
v -0.02180 -0.15584 0.05873
v 0.02165 -0.15640 0.05140
v -0.05424 -0.14543 -0.09604
v 0.03151 -0.15116 0.08297
v -0.06723 -0.15232 0.02140
v -0.03616 -0.14871 0.09506
v 0.01349 -0.13956 0.13683
v 0.06454 -0.14360 0.09007
v 0.05952 -0.13433 0.13047
v -0.01673 -0.12296 0.17787
v 0.05585 -0.13122 0.14246
v 0.05544 -0.12290 -0.16665
v 0.12459 -0.13241 -0.02562
v 0.10470 -0.12069 -0.12669
v 0.10414 -0.13305 -0.08168
v -0.00191 -0.11973 -0.18903
v 0.10608 -0.12695 0.10118
v 0.12303 -0.13045 0.04857
v 0.14769 -0.11341 -0.06812
v 0.08752 -0.10622 -0.17883
v 0.12663 -0.11689 0.10154
v 0.05721 -0.10221 0.20169
v 0.16842 -0.10589 -0.00630
v 0.15438 -0.11095 0.05669
v 0.16407 -0.10616 -0.04447
v 0.10439 -0.10504 0.16263
v 0.09950 -0.10733 0.16297
v 0.06804 -0.09593 0.20575
v 0.13280 -0.09744 0.14299
v 0.17989 -0.09450 -0.02728
v 0.14439 -0.09885 -0.12270
v 0.15947 -0.09941 0.08784
v 0.16081 -0.09619 -0.09581
v 0.18252 -0.09217 0.02295
v 0.14826 -0.09070 0.13276
v 0.11601 -0.08977 -0.17957
v 0.16796 -0.08859 0.09811
v 0.02989 -0.08879 -0.23135
v 0.00302 -0.08767 -0.23575
v 0.12654 -0.08080 0.17945
v 0.10391 -0.07502 0.20814
v 0.11558 -0.07525 0.19778
v 0.09612 -0.07477 -0.21599
v 0.15464 -0.07391 -0.15293
v 0.12511 -0.07165 0.19243
v 0.03895 -0.07890 0.23677
v 0.08128 -0.07026 0.22799
v 0.06125 -0.06576 -0.24309
v 0.06573 -0.04972 0.25054
v -0.03654 -0.07180 -0.24682
v 0.03143 -0.04526 -0.26439
v -0.07943 -0.03755 -0.25348
v -0.01756 -0.04019 -0.26903
v -0.02901 -0.03749 -0.26875
v 0.06762 -0.05436 -0.24830
v 0.08204 -0.03220 -0.25218
v 0.10512 -0.03015 -0.23898
v 0.02459 -0.01053 -0.27528
v -0.18893 -0.01380 -0.14895
v -0.15422 -0.03076 -0.19691
v -0.15838 -0.05254 -0.17655
v -0.18437 -0.03908 -0.14478
v -0.16307 -0.00226 -0.19243
v -0.12653 -0.01190 -0.23068
v -0.12589 -0.04357 -0.21976
v -0.16823 -0.06985 -0.14070
v -0.19935 -0.04260 -0.10687
v -0.17881 -0.07337 -0.11305
v -0.20658 -0.01882 -0.10549
v -0.19517 0.01308 -0.13543
v -0.19741 -0.06312 -0.08028
v -0.22226 -0.00870 -0.04831
v -0.21045 -0.05030 -0.05398
v -0.21410 0.01594 -0.08088
v -0.16244 0.02172 -0.18895
v -0.22391 -0.02297 0.01333
v -0.21071 -0.05942 -0.00177
v -0.19248 -0.08200 -0.03906
v -0.14112 -0.07330 -0.17692
v -0.18069 -0.08634 -0.07613
v -0.16205 -0.09965 -0.08952
v -0.10441 -0.07186 -0.21454
v -0.13879 -0.10707 -0.11824
v -0.12547 -0.10323 -0.14769
v -0.18048 -0.09732 -0.00951
v -0.19196 -0.07955 0.05288
v -0.21319 -0.01755 0.08356
v -0.20266 -0.05370 0.07928
v -0.22238 0.00807 0.04525
v -0.22141 0.02997 0.01827
v -0.21442 0.04517 -0.03671
v -0.17438 0.03970 -0.16034
v -0.19667 0.05001 -0.10090
v -0.18701 -0.06197 0.11163
v -0.18570 -0.02644 0.14901
v -0.19703 0.05908 -0.08393
v -0.19328 0.02895 0.13035
v -0.17753 0.00475 0.16871
v -0.16327 -0.05646 0.16378
v -0.19749 0.05423 0.09034
v -0.13005 0.03259 -0.22067
v -0.19728 0.07718 0.00933
v -0.16625 0.07655 -0.12810
v -0.16635 0.06568 -0.14567
v -0.13351 0.06383 -0.19400
v -0.14749 -0.01783 0.20605
v -0.14759 -0.04594 0.19325
v -0.17383 0.06446 0.13241
v -0.14521 0.03525 0.20102
v -0.15836 0.07782 0.13953
v -0.13301 0.06741 0.18905
v -0.11175 -0.00605 0.23929
v -0.08521 0.02203 -0.25523
v -0.12126 -0.05540 0.21292
v -0.07943 -0.03755 -0.25348
v -0.10201 0.04653 -0.23493
v -0.09892 0.03820 0.23883
v -0.08444 -0.06014 -0.23770
v -0.09658 -0.05879 0.22906
v -0.04889 -0.00614 -0.27159
v -0.07697 0.04968 -0.24676
v -0.05781 0.01722 0.26589
v -0.05216 -0.03489 0.26337
v -0.03108 -0.01431 0.27378
v -0.03108 -0.01431 0.27378
v -0.02101 0.04206 0.26577
v -0.05781 0.01722 0.26589
v 0.01668 0.00807 0.27576
v 0.00480 0.03778 0.26872
v 0.01871 -0.04190 0.26700
v 0.05452 -0.00542 0.26804
v 0.04632 0.04385 0.25915
v -0.08521 0.02203 -0.25523
v -0.03560 0.04999 -0.25953
v -0.00181 0.01704 -0.27576
v -0.04889 -0.00614 -0.27159
v 0.02459 -0.01053 -0.27528
v -0.01756 -0.04019 -0.26903
v -0.02901 -0.03749 -0.26875
v -0.07943 -0.03755 -0.25348
v 0.07577 0.01699 -0.25866
v 0.01996 0.04363 -0.26497
vt 0.71441 0.38000
vt 0.72604 0.35151
vt 0.67999 0.37543
vt 0.69704 0.30932
vt 0.72180 0.33023
vt 0.66518 0.34041
vt 0.71680 0.40382
vt 0.67841 0.42557
vt 0.72546 0.44721
vt 0.69859 0.46717
vt 0.67078 0.41470
vt 0.73345 0.36156
vt 0.73072 0.47687
vt 0.74330 0.43055
vt 0.74197 0.36551
vt 0.76532 0.39930
vt 0.68949 0.49974
vt 0.71845 0.51202
vt 0.69565 0.52475
vt 0.73993 0.51163
vt 0.67916 0.32305
vt 0.66020 0.46577
vt 0.76471 0.45093
vt 0.75405 0.46794
vt 0.68897 0.28388
vt 0.67978 0.31484
vt 0.66898 0.29304
vt 0.65775 0.31346
vt 0.71242 0.26078
vt 0.73398 0.28923
vt 0.74087 0.30541
vt 0.69208 0.22807
vt 0.66372 0.27203
vt 0.67135 0.22448
vt 0.63905 0.35572
vt 0.77042 0.35550
vt 0.62871 0.39401
vt 0.65466 0.23636
vt 0.64014 0.28061
vt 0.63014 0.44873
vt 0.65392 0.50255
vt 0.66312 0.53744
vt 0.61331 0.42762
vt 0.62183 0.31226
vt 0.63376 0.27733
vt 0.62981 0.26354
vt 0.69716 0.56437
vt 0.70503 0.54898
vt 0.73613 0.56396
vt 0.62990 0.21330
vt 0.66315 0.20405
vt 0.59764 0.35704
vt 0.61088 0.26931
vt 0.65657 0.58577
vt 0.68688 0.59740
vt 0.65154 0.55924
vt 0.60474 0.50050
vt 0.61544 0.47108
vt 0.62978 0.52570
vt 0.62499 0.55967
vt 0.59819 0.25302
vt 0.61243 0.21087
vt 0.68338 0.63751
vt 0.69580 0.62174
vt 0.73012 0.63032
vt 0.63566 0.63350
vt 0.78283 0.48363
vt 0.65022 0.67812
vt 0.65429 0.15968
vt 0.63229 0.18460
vt 0.62058 0.19577
vt 0.77734 0.40497
vt 0.78283 0.37341
vt 0.71035 0.19022
vt 0.68785 0.19527
vt 0.74624 0.29415
vt 0.61154 0.16783
vt 0.61442 0.18501
vt 0.78184 0.52479
vt 0.76993 0.54047
vt 0.76364 0.58622
vt 0.75141 0.62907
vt 0.74458 0.24245
vt 0.75849 0.26533
vt 0.77893 0.31840
vt 0.69582 0.69274
vt 0.71976 0.65548
vt 0.74147 0.66836
vt 0.67245 0.10786
vt 0.71373 0.15682
vt 0.75348 0.22586
vt 0.74358 0.18593
vt 0.62484 0.10270
vt 0.61010 0.13519
vt 0.77741 0.62195
vt 0.71297 0.11585
vt 0.76582 0.68592
vt 0.73806 0.73435
vt 0.69221 0.72159
vt 0.66138 0.07106
vt 0.70635 0.05437
vt 0.61777 0.04883
vt 0.70845 0.79102
vt 0.47103 0.31888
vt 0.46052 0.26165
vt 0.48925 0.26814
vt 0.44921 0.28469
vt 0.45428 0.31906
vt 0.50669 0.33428
vt 0.48672 0.35194
vt 0.52802 0.30146
vt 0.50331 0.26397
vt 0.48661 0.21058
vt 0.45577 0.20169
vt 0.50882 0.23483
vt 0.47182 0.19307
vt 0.43264 0.28316
vt 0.42043 0.19730
vt 0.39116 0.24265
vt 0.37962 0.28341
vt 0.35673 0.20780
vt 0.40526 0.18322
vt 0.43333 0.15984
vt 0.40472 0.16235
vt 0.46662 0.14895
vt 0.41218 0.14916
vt 0.36024 0.13949
vt 0.38938 0.14101
vt 0.38567 0.33033
vt 0.33112 0.23594
vt 0.42343 0.36531
vt 0.45992 0.37818
vt 0.33037 0.26333
vt 0.34802 0.30773
vt 0.32433 0.16146
vt 0.35287 0.32924
vt 0.31119 0.12144
vt 0.40218 0.11549
vt 0.36205 0.12158
vt 0.37176 0.37691
vt 0.32223 0.08411
vt 0.44241 0.13020
vt 0.35793 0.05911
vt 0.38642 0.06521
vt 0.27233 0.10925
vt 0.30204 0.07030
vt 0.44018 0.11487
vt 0.42933 0.07621
vt 0.29038 0.05917
vt 0.26182 0.06171
vt 0.23706 0.10578
vt 0.22122 0.08291
vt 0.41922 0.40782
vt 0.31073 0.04092
vt 0.34612 0.03854
vt 0.46421 0.41146
vt 0.21904 0.05020
vt 0.26433 0.03705
vt 0.18224 0.09293
vt 0.16831 0.05897
vt 0.22506 0.01764
vt 0.15765 0.12089
vt 0.13323 0.07467
vt 0.11689 0.07674
vt 0.11092 0.12351
vt 0.18645 0.02132
vt 0.26096 0.01496
vt 0.51011 0.41070
vt 0.51183 0.19311
vt 0.48599 0.15299
vt 0.23749 0.00195
vt 0.11756 0.03187
vt 0.14745 0.00542
vt 0.07558 0.07827
vt 0.06744 0.11976
vt 0.47529 0.46142
vt 0.04369 0.11386
vt 0.55051 0.35702
vt 0.52407 0.44939
vt 0.02454 0.08108
vt 0.26329 0.23578
vt 0.24076 0.17139
vt 0.27538 0.21110
vt 0.22482 0.21892
vt 0.27803 0.24637
vt 0.29546 0.19007
vt 0.28257 0.16763
vt 0.25607 0.15002
vt 0.17833 0.16219
vt 0.19310 0.19988
vt 0.28078 0.26345
vt 0.21381 0.26849
vt 0.18415 0.23553
vt 0.14668 0.23448
vt 0.23881 0.32893
vt 0.11324 0.16541
vt 0.31942 0.17627
vt 0.33014 0.33026
vt 0.29484 0.35147
vt 0.19048 0.31707
vt 0.27093 0.36036
vt 0.09323 0.19523
vt 0.11211 0.23799
vt 0.10761 0.27734
vt 0.14433 0.32758
vt 0.19530 0.39033
vt 0.14561 0.35930
vt 0.22140 0.40512
vt 0.26780 0.41274
vt 0.32771 0.39614
vt 0.33193 0.41896
vt 0.37050 0.41763
vt 0.07365 0.21902
vt 0.07634 0.25015
vt 0.31085 0.46496
vt 0.27552 0.44084
vt 0.07953 0.29558
vt 0.35218 0.45125
vt 0.24043 0.46799
vt 0.18147 0.43755
vt 0.08311 0.34900
vt 0.13920 0.41991
vt 0.28591 0.48679
vt 0.16724 0.45956
vt 0.34860 0.48012
vt 0.31699 0.47273
vt 0.04116 0.26676
vt 0.42305 0.46454
vt 0.39883 0.47251
vt 0.29394 0.51014
vt 0.34638 0.49570
vt 0.05143 0.29686
vt 0.04732 0.19500
vt 0.09482 0.42120
vt 0.07670 0.37148
vt 0.24012 0.52200
vt 0.36857 0.51942
vt 0.40335 0.49861
vt 0.31004 0.52539
vt 0.18999 0.51864
vt 0.44469 0.49660
vt 0.42351 0.51772
vt 0.01535 0.23230
vt 0.01511 0.30139
vt 0.03573 0.14232
vt 0.00168 0.17371
vt 0.46143 0.52539
vt 0.50551 0.89439
vt 0.51042 0.92525
vt 0.47477 0.89743
vt 0.46693 0.96556
vt 0.44668 0.89893
vt 0.39862 0.92634
vt 0.41605 0.96378
vt 0.44487 0.99805
vt 0.40904 0.98363
vt 0.34689 0.98393
vt 0.50004 0.84659
vt 0.50882 0.86907
vt 0.48951 0.83921
vt 0.41917 0.85641
vt 0.40186 0.86669
vt 0.39635 0.89795
vt 0.45682 0.82084
vt 0.48302 0.82339
vt 0.43010 0.83104
vt 0.37239 0.86407
vt 0.33370 0.90444
vt 0.30210 0.94656
vt 0.41219 0.81089
vt 0.48214 0.78068
vt 0.46921 0.76886
vt 0.53454 0.79817
vt 0.55141 0.82837
vt 0.54552 0.86189
vt 0.53243 0.75122
vt 0.53924 0.90134
vt 0.26949 0.98788
vt 0.23757 0.96853
vt 0.20740 0.96334
vt 0.26663 0.92035
vt 0.19825 0.90329
vt 0.50294 0.75705
vt 0.16063 0.88911
vt 0.15627 0.93998
vt 0.17700 0.99805
vt 0.11961 0.89267
vt 0.13391 0.96699
vt 0.10389 0.95442
vt 0.58259 0.76951
vt 0.54848 0.73339
vt 0.60101 0.74076
vt 0.56432 0.69233
vt 0.28036 0.70817
vt 0.32280 0.72514
vt 0.28477 0.79342
vt 0.23693 0.74716
vt 0.24084 0.82750
vt 0.21594 0.82857
vt 0.20413 0.78178
vt 0.18304 0.84031
vt 0.29278 0.87147
vt 0.31337 0.83589
vt 0.30517 0.76823
vt 0.36217 0.79488
vt 0.34639 0.75514
vt 0.24005 0.86826
vt 0.37085 0.73713
vt 0.34185 0.84858
vt 0.39609 0.79959
vt 0.42078 0.74070
vt 0.37037 0.70207
vt 0.40687 0.69633
vt 0.46450 0.75955
vt 0.41828 0.69705
vt 0.15075 0.78177
vt 0.25583 0.67014
vt 0.17084 0.72005
vt 0.21205 0.70786
vt 0.14625 0.84472
vt 0.37246 0.65394
vt 0.32208 0.65100
vt 0.20944 0.65470
vt 0.12702 0.75272
vt 0.36930 0.62993
vt 0.47528 0.67735
vt 0.26073 0.61158
vt 0.32221 0.61016
vt 0.22583 0.62774
vt 0.43087 0.63645
vt 0.43168 0.64255
vt 0.47840 0.66391
vt 0.40849 0.60735
vt 0.23677 0.60157
vt 0.15757 0.67314
vt 0.35081 0.59255
vt 0.17662 0.64586
vt 0.28335 0.58304
vt 0.39616 0.59012
vt 0.11221 0.72126
vt 0.35970 0.57617
vt 0.09377 0.82789
vt 0.09676 0.85585
vt 0.44731 0.60066
vt 0.48024 0.61883
vt 0.46838 0.60778
vt 0.08057 0.75483
vt 0.11910 0.66693
vt 0.46244 0.59652
vt 0.51619 0.68490
vt 0.50461 0.63850
vt 0.06496 0.80109
vt 0.53694 0.64642
vt 0.09047 0.90127
vt 0.04489 0.83981
vt 0.07680 0.95934
vt 0.04961 0.89385
vt 0.05182 0.90782
vt 0.05237 0.79653
vt 0.02952 0.78276
vt 0.03063 0.75257
vt 0.01178 0.85464
vt 0.89595 0.76391
vt 0.90685 0.82441
vt 0.92910 0.80699
vt 0.91857 0.76456
vt 0.88217 0.81309
vt 0.88714 0.86711
vt 0.91695 0.86230
vt 0.94914 0.77133
vt 0.92540 0.72430
vt 0.95536 0.74117
vt 0.90440 0.71796
vt 0.87385 0.74653
vt 0.94772 0.70191
vt 0.90190 0.65839
vt 0.93821 0.67157
vt 0.87664 0.68843
vt 0.86130 0.80868
vt 0.92277 0.60003
vt 0.95403 0.62132
vt 0.97281 0.66465
vt 0.95178 0.81995
vt 0.97374 0.70595
vt 0.99006 0.72781
vt 0.94773 0.87737
vt 0.99832 0.76816
vt 0.99214 0.80335
vt 0.99655 0.63825
vt 0.98582 0.56855
vt 0.93019 0.52755
vt 0.96434 0.53576
vt 0.90109 0.56295
vt 0.87791 0.58600
vt 0.85457 0.63932
vt 0.84666 0.77600
vt 0.84232 0.70893
vt 0.97836 0.49839
vt 0.94822 0.45528
vt 0.83426 0.69011
vt 0.89493 0.46745
vt 0.92277 0.42825
vt 0.98196 0.43561
vt 0.86428 0.50405
vt 0.84763 0.85405
vt 0.82898 0.58415
vt 0.80976 0.74514
vt 0.82006 0.76447
vt 0.81746 0.82750
vt 0.95046 0.38202
vt 0.97652 0.39718
vt 0.86003 0.45062
vt 0.89963 0.37572
vt 0.84730 0.43187
vt 0.86524 0.37424
vt 0.94555 0.32883
vt 0.85277 0.91463
vt 0.99086 0.36235
vt 0.90915 0.92302
vt 0.83060 0.88470
vt 0.90519 0.31048
vt 0.93354 0.90984
vt 0.99832 0.33048
vt 0.87748 0.95898
vt 0.82410 0.91416
vt 0.93282 0.26059
vt 0.98306 0.26576
vt 0.96736 0.23633
vt 0.74242 0.90250
vt 0.70125 0.94248
vt 0.74242 0.94727
vt 0.69495 0.88803
vt 0.68543 0.92105
vt 0.72274 0.84570
vt 0.67541 0.85117
vt 0.65152 0.89790
vt 0.90404 0.04746
vt 0.90404 0.10924
vt 0.85974 0.12408
vt 0.86253 0.06722
vt 0.82459 0.13452
vt 0.81987 0.07889
vt 0.82744 0.06946
vt 0.85188 0.02148
vt 0.82507 0.19727
vt 0.87262 0.15856
vn 0.9956 -0.0342 0.0874
vn 0.9792 0.1146 0.1673
vn 0.9249 -0.3646 0.1075
vn 0.9414 -0.1259 0.3129
vn 0.9671 0.0976 0.2349
vn 0.8649 -0.4557 0.2107
vn 0.9993 -0.0336 0.0168
vn 0.9087 -0.4163 -0.0317
vn 0.9935 0.0171 -0.1128
vn 0.9515 -0.2624 -0.1604
vn 0.8834 -0.4686 0.0010
vn 0.9762 0.1723 0.1320
vn 0.9777 0.0519 -0.2034
vn 0.9777 0.1987 -0.0682
vn 0.9628 0.2449 0.1143
vn 0.9133 0.4072 0.0103
vn 0.8980 -0.3602 -0.2528
vn 0.9466 -0.0849 -0.3109
vn 0.8888 -0.3130 -0.3347
vn 0.9411 0.1331 -0.3108
vn 0.9098 -0.3162 0.2687
vn 0.8121 -0.5694 -0.1274
vn 0.9219 0.3662 -0.1265
vn 0.9454 0.2743 -0.1761
vn 0.9034 -0.1731 0.3924
vn 0.9068 -0.3006 0.2954
vn 0.8556 -0.3735 0.3585
vn 0.8231 -0.4878 0.2906
vn 0.8876 0.1027 0.4491
vn 0.8991 0.2687 0.3455
vn 0.9062 0.3072 0.2906
vn 0.8339 -0.0515 0.5495
vn 0.8191 -0.3940 0.4168
vn 0.7920 -0.2570 0.5539
vn 0.7515 -0.6398 0.1608
vn 0.8682 0.4812 0.1212
vn 0.7101 -0.7014 0.0617
vn 0.7527 -0.4258 0.5021
vn 0.7270 -0.5798 0.3678
vn 0.6955 -0.7152 -0.0694
vn 0.7470 -0.6258 -0.2242
vn 0.7471 -0.5783 -0.3279
vn 0.6321 -0.7748 -0.0141
vn 0.6578 -0.7036 0.2688
vn 0.6957 -0.6169 0.3680
vn 0.6704 -0.6278 0.3955
vn 0.8391 -0.3085 -0.4480
vn 0.8813 -0.2298 -0.4129
vn 0.8814 0.0856 -0.4645
vn 0.6316 -0.5775 0.5173
vn 0.7386 -0.3000 0.6037
vn 0.5651 -0.8100 0.1564
vn 0.5932 -0.7231 0.3539
vn 0.6602 -0.6197 -0.4244
vn 0.7568 -0.4017 -0.5156
vn 0.6691 -0.6500 -0.3601
vn 0.5377 -0.8236 -0.1807
vn 0.6118 -0.7821 -0.1184
vn 0.6154 -0.7460 -0.2546
vn 0.5635 -0.7639 -0.3147
vn 0.5312 -0.7639 0.3664
vn 0.5549 -0.6743 0.4872
vn 0.6693 -0.4226 -0.6111
vn 0.7395 -0.3157 -0.5946
vn 0.7646 0.0416 -0.6432
vn 0.5041 -0.7262 -0.4675
vn 0.8398 0.5019 -0.2071
vn 0.4521 -0.6343 -0.6271
vn 0.6125 -0.3071 0.7284
vn 0.5956 -0.5257 0.6074
vn 0.5703 -0.6130 0.5468
vn 0.8722 0.4890 -0.0082
vn 0.8322 0.5503 0.0675
vn 0.7537 0.2055 0.6243
vn 0.7688 -0.0373 0.6384
vn 0.8740 0.3695 0.3155
vn 0.4770 -0.6431 0.5991
vn 0.5251 -0.6411 0.5597
vn 0.8070 0.4957 -0.3210
vn 0.8402 0.3940 -0.3726
vn 0.7928 0.3549 -0.4955
vn 0.7407 0.2657 -0.6171
vn 0.7895 0.4243 0.4435
vn 0.7851 0.4980 0.3683
vn 0.7894 0.5773 0.2087
vn 0.5483 -0.2763 -0.7893
vn 0.6975 -0.0571 -0.7143
vn 0.6519 0.1862 -0.7351
vn 0.4856 -0.0114 0.8741
vn 0.6541 0.2994 0.6947
vn 0.7268 0.5150 0.4545
vn 0.6680 0.4999 0.5513
vn 0.3419 -0.4690 0.8143
vn 0.3830 -0.6191 0.6856
vn 0.6824 0.4858 -0.5462
vn 0.5112 0.3783 0.7718
vn 0.5468 0.4306 -0.7180
vn 0.4125 0.1903 -0.8908
vn 0.4372 -0.2998 -0.8479
vn 0.3148 -0.0416 0.9482
vn 0.2499 0.4494 0.8576
vn 0.1051 -0.4152 0.9036
vn 0.1408 -0.0939 -0.9856
vn 0.3234 0.7608 -0.5626
vn 0.4711 0.7638 -0.4411
vn 0.5364 0.6511 -0.5370
vn 0.3744 0.8170 -0.4386
vn 0.2779 0.8140 -0.5100
vn 0.3775 0.5854 -0.7175
vn 0.2547 0.6913 -0.6762
vn 0.5468 0.4306 -0.7180
vn 0.5904 0.5663 -0.5750
vn 0.6896 0.5633 -0.4551
vn 0.6268 0.6909 -0.3603
vn 0.6824 0.4858 -0.5462
vn 0.6972 0.5987 -0.3942
vn 0.3386 0.8568 -0.3890
vn 0.5452 0.7966 -0.2611
vn 0.3496 0.9066 -0.2362
vn 0.2193 0.9422 -0.2532
vn 0.3678 0.9230 -0.1127
vn 0.5472 0.8112 -0.2061
vn 0.6884 0.6807 -0.2506
vn 0.6077 0.7736 -0.1793
vn 0.8070 0.4957 -0.3210
vn 0.6680 0.7216 -0.1819
vn 0.5749 0.8173 -0.0377
vn 0.6375 0.7622 -0.1121
vn 0.0813 0.9403 -0.3305
vn 0.2450 0.9660 -0.0828
vn 0.0508 0.8658 -0.4977
vn 0.0939 0.7749 -0.6250
vn 0.1651 0.9799 -0.1117
vn 0.0660 0.9766 -0.2048
vn 0.4333 0.9010 0.0194
vn 0.0092 0.9700 -0.2431
vn 0.5285 0.8431 0.0999
vn 0.7528 0.6488 -0.1112
vn 0.6363 0.7712 -0.0199
vn -0.1036 0.9272 -0.3601
vn 0.6711 0.7312 0.1220
vn 0.8025 0.5488 -0.2341
vn 0.8322 0.5503 0.0675
vn 0.8722 0.4890 -0.0082
vn 0.4979 0.8420 0.2077
vn 0.6759 0.7117 0.1915
vn 0.8398 0.5019 -0.2071
vn 0.9219 0.3662 -0.1265
vn 0.6913 0.6828 0.2364
vn 0.6331 0.7123 0.3031
vn 0.4541 0.8411 0.2937
vn 0.5077 0.7804 0.3650
vn -0.0888 0.8327 -0.5465
vn 0.7894 0.5773 0.2087
vn 0.8682 0.4812 0.1212
vn -0.0074 0.7152 -0.6989
vn 0.6130 0.6686 0.4209
vn 0.7200 0.6095 0.3318
vn 0.4124 0.7912 0.4515
vn 0.5139 0.6562 0.5525
vn 0.7268 0.5150 0.4545
vn 0.2610 0.8362 0.4824
vn 0.3897 0.6503 0.6521
vn 0.3484 0.6119 0.7101
vn 0.1513 0.7494 0.6446
vn 0.6680 0.4999 0.5513
vn 0.7851 0.4980 0.3683
vn 0.1079 0.4621 -0.8802
vn 0.7928 0.3549 -0.4955
vn 0.8402 0.3940 -0.3726
vn 0.7895 0.4243 0.4435
vn 0.5112 0.3783 0.7718
vn 0.6541 0.2994 0.6947
vn 0.2499 0.4494 0.8576
vn 0.0667 0.5729 0.8169
vn -0.1570 0.5162 -0.8419
vn 0.0329 0.4001 0.9159
vn 0.4125 0.1903 -0.8908
vn -0.0008 0.1951 -0.9808
vn 0.1001 0.0981 0.9901
vn 0.1038 0.9917 0.0765
vn 0.2464 0.9490 0.1967
vn 0.2036 0.9762 0.0749
vn 0.0724 0.9805 0.1830
vn 0.1033 0.9943 0.0258
vn 0.2991 0.9528 0.0513
vn 0.3368 0.9355 0.1065
vn 0.3400 0.9215 0.1877
vn 0.1575 0.9216 0.3548
vn 0.0661 0.9616 0.2665
vn 0.0553 0.9985 -0.0007
vn -0.0961 0.9832 0.1551
vn -0.0608 0.9675 0.2455
vn -0.1415 0.9296 0.3404
vn -0.2235 0.9745 0.0191
vn 0.0073 0.8287 0.5596
vn 0.3796 0.9251 0.0133
vn -0.0419 0.9809 -0.1900
vn -0.1846 0.9726 -0.1416
vn -0.2946 0.9426 0.1570
vn -0.2559 0.9613 -0.1018
vn -0.1356 0.8035 0.5797
vn -0.2340 0.8701 0.4337
vn -0.3796 0.8411 0.3852
vn -0.4346 0.8680 0.2402
vn -0.5012 0.8638 0.0517
vn -0.5236 0.8251 0.2121
vn -0.4906 0.8707 -0.0357
vn -0.4177 0.8929 -0.1684
vn -0.2668 0.9262 -0.2666
vn -0.3250 0.8954 -0.3044
vn -0.2401 0.8824 -0.4045
vn -0.2749 0.7425 0.6108
vn -0.3814 0.7525 0.5369
vn -0.5024 0.8036 -0.3190
vn -0.4907 0.8440 -0.2167
vn -0.5158 0.7313 0.4463
vn -0.3859 0.8358 -0.3906
vn -0.6480 0.7404 -0.1785
vn -0.6769 0.7357 0.0231
vn -0.6564 0.6541 0.3759
vn -0.7239 0.6696 0.1661
vn -0.6205 0.7272 -0.2936
vn -0.7815 0.6233 0.0288
vn -0.4910 0.7611 -0.4239
vn -0.5181 0.7832 -0.3437
vn -0.5431 0.5464 0.6376
vn -0.2725 0.7069 -0.6527
vn -0.3620 0.7331 -0.5758
vn -0.6817 0.6444 -0.3463
vn -0.5528 0.7057 -0.4432
vn -0.5981 0.5895 0.5429
vn -0.2758 0.5935 0.7561
vn -0.8398 0.4714 0.2692
vn -0.7403 0.5600 0.3718
vn -0.8257 0.5062 -0.2489
vn -0.6001 0.5831 -0.5476
vn -0.4582 0.6176 -0.6393
vn -0.7116 0.5760 -0.4023
vn -0.9128 0.3911 -0.1176
vn -0.3578 0.4973 -0.7904
vn -0.4871 0.4578 -0.7438
vn -0.5020 0.3670 0.7831
vn -0.6964 0.3323 0.6361
vn -0.1014 0.4385 0.8930
vn -0.3221 0.1886 0.9277
vn -0.4310 0.2380 -0.8704
vn -0.6165 -0.6194 0.4860
vn -0.7268 -0.4893 0.4820
vn -0.5691 -0.7272 0.3838
vn -0.7968 -0.5113 0.3221
vn -0.5228 -0.7973 0.3018
vn -0.5413 -0.8266 0.1538
vn -0.7062 -0.6844 0.1816
vn -0.8652 -0.4404 0.2397
vn -0.7657 -0.6252 0.1508
vn -0.6819 -0.7311 -0.0231
vn -0.4348 -0.7545 0.4917
vn -0.5330 -0.6737 0.5120
vn -0.3902 -0.7988 0.4579
vn -0.3370 -0.9102 0.2409
vn -0.3425 -0.9201 0.1900
vn -0.4359 -0.8853 0.1621
vn -0.2811 -0.8882 0.3635
vn -0.3238 -0.8341 0.4466
vn -0.2774 -0.9188 0.2809
vn -0.2965 -0.9482 0.1140
vn -0.3780 -0.9258 -0.0044
vn -0.4936 -0.8625 -0.1120
vn -0.1875 -0.9525 0.2401
vn -0.1613 -0.8600 0.4841
vn -0.0988 -0.8875 0.4501
vn -0.3143 -0.6704 0.6722
vn -0.4635 -0.5296 0.7104
vn -0.5706 -0.4941 0.6560
vn -0.1138 -0.7002 0.7048
vn -0.6896 -0.4097 0.5971
vn -0.6184 -0.7513 -0.2305
vn -0.5262 -0.7977 -0.2946
vn -0.4918 -0.7866 -0.3733
vn -0.3696 -0.9123 -0.1766
vn -0.2657 -0.9031 -0.3374
vn -0.0935 -0.8107 0.5780
vn -0.1933 -0.8768 -0.4403
vn -0.3842 -0.7672 -0.5135
vn -0.6127 -0.6199 -0.4903
vn -0.1697 -0.7684 -0.6171
vn -0.4694 -0.6290 -0.6197
vn -0.3992 -0.5507 -0.7331
vn -0.2823 -0.3415 0.8965
vn -0.0604 -0.5999 0.7978
vn -0.1691 -0.1348 0.9763
vn 0.1051 -0.4152 0.9036
vn 0.2750 -0.9612 -0.0202
vn 0.1841 -0.9803 0.0720
vn 0.0156 -0.9982 -0.0587
vn 0.2049 -0.9673 -0.1497
vn -0.0454 -0.9837 -0.1742
vn -0.0237 -0.9732 -0.2288
vn 0.1414 -0.9624 -0.2319
vn -0.0277 -0.9460 -0.3229
vn -0.2338 -0.9687 -0.0836
vn -0.1437 -0.9895 -0.0134
vn 0.0696 -0.9976 0.0053
vn -0.0674 -0.9914 0.1124
vn 0.0753 -0.9923 0.0984
vn -0.1742 -0.9644 -0.1990
vn 0.1189 -0.9781 0.1710
vn -0.2132 -0.9759 0.0462
vn -0.1259 -0.9717 0.2001
vn 0.0562 -0.9496 0.3083
vn 0.2403 -0.9498 0.2001
vn 0.2366 -0.9260 0.2942
vn -0.0576 -0.8955 0.4414
vn 0.2256 -0.9181 0.3260
vn 0.2218 -0.8987 -0.3784
vn 0.4282 -0.9014 -0.0648
vn 0.3970 -0.8692 -0.2946
vn 0.3658 -0.9104 -0.1932
vn -0.0010 -0.8938 -0.4484
vn 0.3819 -0.8925 0.2399
vn 0.4259 -0.8951 0.1321
vn 0.5377 -0.8236 -0.1807
vn 0.3682 -0.8203 -0.4377
vn 0.4649 -0.8493 0.2501
vn 0.2344 -0.8141 0.5313
vn 0.6321 -0.7748 -0.0141
vn 0.5651 -0.8100 0.1564
vn 0.6118 -0.7821 -0.1184
vn 0.4209 -0.8143 0.3997
vn 0.4002 -0.8259 0.3971
vn 0.2863 -0.7820 0.5537
vn 0.5312 -0.7639 0.3664
vn 0.6955 -0.7152 -0.0694
vn 0.5635 -0.7639 -0.3147
vn 0.6030 -0.7620 0.2361
vn 0.6154 -0.7460 -0.2546
vn 0.7101 -0.7014 0.0617
vn 0.5932 -0.7231 0.3539
vn 0.5041 -0.7262 -0.4675
vn 0.6578 -0.7036 0.2688
vn 0.1400 -0.7346 -0.6639
vn 0.0204 -0.7296 -0.6835
vn 0.5549 -0.6743 0.4872
vn 0.4770 -0.6431 0.5991
vn 0.5251 -0.6411 0.5597
vn 0.4521 -0.6343 -0.6271
vn 0.6602 -0.6197 -0.4244
vn 0.5703 -0.6130 0.5468
vn 0.1767 -0.6966 0.6954
vn 0.3830 -0.6191 0.6856
vn 0.3043 -0.5797 -0.7559
vn 0.3419 -0.4690 0.8143
vn -0.1703 -0.6303 -0.7574
vn 0.1693 -0.4229 -0.8902
vn -0.3950 -0.3635 -0.8437
vn -0.0802 -0.3797 -0.9216
vn -0.1384 -0.3562 -0.9241
vn 0.3464 -0.4924 -0.7985
vn 0.4372 -0.2998 -0.8479
vn 0.5483 -0.2763 -0.7893
vn 0.1408 -0.0939 -0.9856
vn -0.8851 -0.1148 -0.4511
vn -0.7464 -0.2840 -0.6018
vn -0.7228 -0.4649 -0.5112
vn -0.8383 -0.3375 -0.4282
vn -0.8029 -0.0086 -0.5961
vn -0.6389 -0.1051 -0.7621
vn -0.6042 -0.4101 -0.6833
vn -0.7159 -0.5769 -0.3932
vn -0.8794 -0.3566 -0.3155
vn -0.7427 -0.5918 -0.3131
vn -0.9345 -0.1556 -0.3202
vn -0.9023 0.1322 -0.4104
vn -0.8271 -0.5114 -0.2331
vn -0.9849 -0.0650 -0.1604
vn -0.8944 -0.4151 -0.1664
vn -0.9546 0.1528 -0.2556
vn -0.7879 0.2190 -0.5755
vn -0.9806 -0.1911 0.0445
vn -0.8738 -0.4863 -0.0031
vn -0.7605 -0.6404 -0.1074
vn -0.6127 -0.6199 -0.4903
vn -0.7133 -0.6698 -0.2061
vn -0.6184 -0.7513 -0.2305
vn -0.4694 -0.6290 -0.6197
vn -0.5262 -0.7977 -0.2946
vn -0.4918 -0.7866 -0.3733
vn -0.6819 -0.7311 -0.0231
vn -0.7657 -0.6252 0.1508
vn -0.9533 -0.1427 0.2660
vn -0.8652 -0.4404 0.2397
vn -0.9845 0.0827 0.1545
vn -0.9616 0.2677 0.0611
vn -0.9128 0.3911 -0.1176
vn -0.8007 0.3738 -0.4682
vn -0.8476 0.4412 -0.2949
vn -0.7968 -0.5113 0.3221
vn -0.8603 -0.2286 0.4556
vn -0.8257 0.5062 -0.2489
vn -0.8785 0.2718 0.3928
vn -0.8453 0.0569 0.5313
vn -0.7268 -0.4893 0.4820
vn -0.8398 0.4714 0.2692
vn -0.6362 0.3269 -0.6989
vn -0.7815 0.6233 0.0288
vn -0.6817 0.6444 -0.3463
vn -0.7116 0.5760 -0.4023
vn -0.6001 0.5831 -0.5476
vn -0.7237 -0.1577 0.6718
vn -0.6896 -0.4097 0.5971
vn -0.7403 0.5600 0.3718
vn -0.6964 0.3323 0.6361
vn -0.6564 0.6541 0.3759
vn -0.5981 0.5895 0.5429
vn -0.5819 -0.0468 0.8119
vn -0.4310 0.2380 -0.8704
vn -0.5706 -0.4941 0.6560
vn -0.3950 -0.3635 -0.8437
vn -0.4871 0.4578 -0.7438
vn -0.5020 0.3670 0.7831
vn -0.3992 -0.5507 -0.7331
vn -0.4635 -0.5296 0.7104
vn -0.2448 -0.0493 -0.9683
vn -0.3578 0.4973 -0.7904
vn -0.3221 0.1886 0.9277
vn -0.2823 -0.3415 0.8965
vn -0.1691 -0.1348 0.9763
vn -0.1691 -0.1348 0.9763
vn -0.1014 0.4385 0.8930
vn -0.3221 0.1886 0.9277
vn 0.1001 0.0981 0.9901
vn 0.0329 0.4001 0.9159
vn 0.1051 -0.4152 0.9036
vn 0.3148 -0.0416 0.9482
vn 0.2499 0.4494 0.8576
vn -0.4310 0.2380 -0.8704
vn -0.1570 0.5162 -0.8419
vn -0.0008 0.1951 -0.9808
vn -0.2448 -0.0493 -0.9683
vn 0.1408 -0.0939 -0.9856
vn -0.0802 -0.3797 -0.9216
vn -0.1384 -0.3562 -0.9241
vn -0.3950 -0.3635 -0.8437
vn 0.4125 0.1903 -0.8908
vn 0.1079 0.4621 -0.8802
f 380/380/380 393/393/393 394/394/394
f 395/395/395 376/376/376 380/380/380
f 380/380/380 394/394/394 395/395/395
f 395/395/395 378/378/378 376/376/376
f 380/380/380 377/377/377 381/381/381
f 376/376/376 377/377/377 380/380/380
f 391/391/391 393/393/393 380/380/380
f 378/378/378 373/373/373 376/376/376
f 401/401/401 393/393/393 391/391/391
f 394/394/394 393/393/393 404/404/404
f 406/406/406 395/395/395 394/394/394
f 377/377/377 382/382/382 381/381/381
f 381/381/381 390/390/390 380/380/380
f 390/390/390 391/391/391 380/380/380
f 391/391/391 390/390/390 392/392/392
f 376/376/376 375/375/375 377/377/377
f 371/371/371 375/375/375 376/376/376
f 373/373/373 371/371/371 376/376/376
f 401/401/401 404/404/404 393/393/393
f 378/378/378 395/395/395 400/400/400
f 400/400/400 397/397/397 378/378/378
f 394/394/394 404/404/404 406/406/406
f 381/381/381 389/389/389 390/390/390
f 382/382/382 389/389/389 381/381/381
f 398/398/398 391/391/391 392/392/392
f 378/378/378 374/374/374 373/373/373
f 391/391/391 399/399/399 401/401/401
f 374/374/374 378/378/378 397/397/397
f 375/375/375 382/382/382 377/377/377
f 399/399/399 391/391/391 398/398/398
f 402/402/402 401/401/401 399/399/399
f 240/240/240 219/219/219 236/236/236
f 224/224/224 234/234/234 222/222/222
f 254/254/254 255/255/255 256/256/256
f 254/254/254 251/251/251 255/255/255
f 371/371/371 372/372/372 375/375/375
f 373/373/373 366/366/366 371/371/371
f 374/374/374 366/366/366 373/373/373
f 374/374/374 363/363/363 366/366/366
f 397/397/397 396/396/396 374/374/374
f 240/240/240 224/224/224 219/219/219
f 371/371/371 366/366/366 370/370/370
f 401/401/401 412/412/412 404/404/404
f 397/397/397 407/407/407 396/396/396
f 407/407/407 397/397/397 400/400/400
f 375/375/375 384/384/384 382/382/382
f 372/372/372 385/385/385 375/375/375
f 371/371/371 370/370/370 372/372/372
f 222/222/222 234/234/234 221/221/221
f 384/384/384 385/385/385 382/382/382
f 384/384/384 375/375/375 385/385/385
f 249/249/249 251/251/251 250/250/250
f 399/399/399 398/398/398 403/403/403
f 374/374/374 367/367/367 363/363/363
f 374/374/374 379/379/379 367/367/367
f 374/374/374 396/396/396 379/379/379
f 224/224/224 220/220/220 219/219/219
f 222/222/222 206/206/206 224/224/224
f 252/252/252 250/250/250 251/251/251
f 366/366/366 365/365/365 370/370/370
f 399/399/399 410/410/410 402/402/402
f 402/402/402 413/413/413 401/401/401
f 407/407/407 408/408/408 396/396/396
f 236/236/236 219/219/219 230/230/230
f 220/220/220 224/224/224 206/206/206
f 382/382/382 385/385/385 389/389/389
f 257/257/257 253/253/253 256/256/256
f 256/256/256 253/253/253 254/254/254
f 254/254/254 253/253/253 251/251/251
f 251/251/251 253/253/253 252/252/252
f 370/370/370 385/385/385 372/372/372
f 363/363/363 365/365/365 366/366/366
f 363/363/363 364/364/364 365/365/365
f 403/403/403 411/411/411 399/399/399
f 367/367/367 364/364/364 363/363/363
f 413/413/413 414/414/414 401/401/401
f 414/414/414 412/412/412 401/401/401
f 235/235/235 221/221/221 234/234/234
f 219/219/219 223/223/223 230/230/230
f 399/399/399 411/411/411 410/410/410
f 408/408/408 409/409/409 396/396/396
f 220/220/220 208/208/208 219/219/219
f 257/257/257 269/269/269 253/253/253
f 257/257/257 278/278/278 269/269/269
f 383/383/383 388/388/388 370/370/370
f 365/365/365 383/383/383 370/370/370
f 367/367/367 368/368/368 364/364/364
f 410/410/410 416/416/416 402/402/402
f 237/237/237 239/239/239 230/230/230
f 223/223/223 215/215/215 230/230/230
f 207/207/207 222/222/222 221/221/221
f 385/385/385 370/370/370 387/387/387
f 370/370/370 388/388/388 387/387/387
f 248/248/248 249/249/249 250/250/250
f 248/248/248 277/277/277 249/249/249
f 379/379/379 405/405/405 367/367/367
f 396/396/396 405/405/405 379/379/379
f 405/405/405 396/396/396 409/409/409
f 215/215/215 223/223/223 219/219/219
f 216/216/216 215/215/215 219/219/219
f 208/208/208 209/209/209 219/219/219
f 207/207/207 206/206/206 222/222/222
f 269/269/269 278/278/278 279/279/279
f 364/364/364 369/369/369 365/365/365
f 413/413/413 402/402/402 416/416/416
f 230/230/230 231/231/231 237/237/237
f 226/226/226 230/230/230 215/215/215
f 269/269/269 268/268/268 253/253/253
f 253/253/253 268/268/268 267/267/267
f 253/253/253 267/267/267 263/263/263
f 258/258/258 248/248/248 250/250/250
f 369/369/369 383/383/383 365/365/365
f 364/364/364 368/368/368 369/369/369
f 232/232/232 217/217/217 221/221/221
f 225/225/225 230/230/230 226/226/226
f 221/221/221 217/217/217 207/207/207
f 209/209/209 216/216/216 219/219/219
f 207/207/207 205/205/205 206/206/206
f 220/220/220 206/206/206 208/208/208
f 248/248/248 275/275/275 277/277/277
f 418/418/418 410/410/410 411/411/411
f 367/367/367 405/405/405 368/368/368
f 415/415/415 414/414/414 413/413/413
f 225/225/225 231/231/231 230/230/230
f 262/262/262 253/253/253 263/263/263
f 258/258/258 259/259/259 248/248/248
f 275/275/275 248/248/248 259/259/259
f 383/383/383 369/369/369 386/386/386
f 409/409/409 420/420/420 405/405/405
f 227/227/227 232/232/232 244/244/244
f 207/207/207 217/217/217 205/205/205
f 280/280/280 286/286/286 285/285/285
f 421/421/421 413/413/413 416/416/416
f 217/217/217 232/232/232 227/227/227
f 200/200/200 206/206/206 205/205/205
f 269/269/269 281/281/281 268/268/268
f 262/262/262 261/261/261 253/253/253
f 261/261/261 252/252/252 253/253/253
f 279/279/279 280/280/280 269/269/269
f 410/410/410 418/418/418 423/423/423
f 244/244/244 243/243/243 227/227/227
f 215/215/215 225/225/225 226/226/226
f 204/204/204 205/205/205 217/217/217
f 216/216/216 209/209/209 215/215/215
f 269/269/269 280/280/280 281/281/281
f 288/288/288 285/285/285 286/286/286
f 258/258/258 275/275/275 259/259/259
f 423/423/423 416/416/416 410/410/410
f 405/405/405 420/420/420 417/417/417
f 225/225/225 237/237/237 231/231/231
f 215/215/215 218/218/218 225/225/225
f 264/264/264 250/250/250 252/252/252
f 260/260/260 258/258/258 250/250/250
f 419/419/419 369/369/369 368/368/368
f 229/229/229 237/237/237 225/225/225
f 208/208/208 195/195/195 209/209/209
f 206/206/206 195/195/195 208/208/208
f 264/264/264 265/265/265 250/250/250
f 422/422/422 369/369/369 419/419/419
f 405/405/405 417/417/417 368/368/368
f 242/242/242 237/237/237 238/238/238
f 238/238/238 237/237/237 229/229/229
f 218/218/218 229/229/229 225/225/225
f 211/211/211 218/218/218 215/215/215
f 209/209/209 211/211/211 215/215/215
f 200/200/200 195/195/195 206/206/206
f 268/268/268 309/309/309 267/267/267
f 281/281/281 280/280/280 282/282/282
f 260/260/260 250/250/250 265/265/265
f 275/275/275 258/258/258 274/274/274
f 386/386/386 369/369/369 422/422/422
f 426/426/426 421/421/421 416/416/416
f 227/227/227 243/243/243 233/233/233
f 210/210/210 211/211/211 209/209/209
f 267/267/267 262/262/262 263/263/263
f 264/264/264 252/252/252 261/261/261
f 280/280/280 285/285/285 284/284/284
f 427/427/427 416/416/416 423/423/423
f 204/204/204 217/217/217 227/227/227
f 204/204/204 227/227/227 214/214/214
f 281/281/281 302/302/302 268/268/268
f 281/281/281 282/282/282 302/302/302
f 280/280/280 284/284/284 282/282/282
f 242/242/242 238/238/238 229/229/229
f 212/212/212 218/218/218 211/211/211
f 200/200/200 205/205/205 204/204/204
f 199/199/199 210/210/210 209/209/209
f 201/201/201 209/209/209 195/195/195
f 261/261/261 262/262/262 266/266/266
f 417/417/417 420/420/420 425/425/425
f 213/213/213 214/214/214 227/227/227
f 204/204/204 214/214/214 213/213/213
f 201/201/201 199/199/199 209/209/209
f 268/268/268 302/302/302 309/309/309
f 265/265/265 258/258/258 260/260/260
f 368/368/368 424/424/424 419/419/419
f 417/417/417 424/424/424 368/368/368
f 213/213/213 227/227/227 233/233/233
f 218/218/218 228/228/228 229/229/229
f 212/212/212 228/228/228 218/218/218
f 310/310/310 262/262/262 267/267/267
f 258/258/258 273/273/273 274/274/274
f 241/241/241 242/242/242 229/229/229
f 204/204/204 213/213/213 203/203/203
f 192/192/192 195/195/195 200/200/200
f 270/270/270 266/266/266 262/262/262
f 264/264/264 261/261/261 266/266/266
f 285/285/285 288/288/288 287/287/287
f 288/288/288 289/289/289 287/287/287
f 273/273/273 290/290/290 274/274/274
f 427/427/427 426/426/426 416/416/416
f 247/247/247 241/241/241 176/176/176
f 241/241/241 229/229/229 228/228/228
f 200/200/200 204/204/204 203/203/203
f 211/211/211 210/210/210 212/212/212
f 310/310/310 270/270/270 262/262/262
f 265/265/265 273/273/273 258/258/258
f 233/233/233 243/243/243 246/246/246
f 302/302/302 303/303/303 309/309/309
f 302/302/302 282/282/282 307/307/307
f 264/264/264 271/271/271 265/265/265
f 276/276/276 273/273/273 265/265/265
f 440/440/440 443/443/443 444/444/444
f 203/203/203 194/194/194 200/200/200
f 264/264/264 266/266/266 270/270/270
f 284/284/284 285/285/285 287/287/287
f 356/356/356 287/287/287 289/289/289
f 276/276/276 290/290/290 273/273/273
f 354/354/354 356/356/356 358/358/358
f 440/440/440 437/437/437 439/439/439
f 153/153/153 228/228/228 212/212/212
f 195/195/195 199/199/199 201/201/201
f 302/302/302 307/307/307 298/298/298
f 307/307/307 282/282/282 298/298/298
f 282/282/282 299/299/299 298/298/298
f 271/271/271 276/276/276 265/265/265
f 356/356/356 354/354/354 287/287/287
f 428/428/428 426/426/426 427/427/427
f 246/246/246 245/245/245 233/233/233
f 228/228/228 176/176/176 241/241/241
f 140/140/140 212/212/212 210/210/210
f 194/194/194 193/193/193 200/200/200
f 303/303/303 302/302/302 296/296/296
f 284/284/284 320/320/320 282/282/282
f 291/291/291 292/292/292 290/290/290
f 437/437/437 438/438/438 439/439/439
f 202/202/202 203/203/203 213/213/213
f 199/199/199 140/140/140 210/210/210
f 193/193/193 192/192/192 200/200/200
f 298/298/298 296/296/296 302/302/302
f 282/282/282 301/301/301 299/299/299
f 270/270/270 314/314/314 264/264/264
f 140/140/140 153/153/153 212/212/212
f 198/198/198 140/140/140 199/199/199
f 309/309/309 310/310/310 267/267/267
f 301/301/301 282/282/282 320/320/320
f 276/276/276 271/271/271 272/272/272
f 153/153/153 156/156/156 228/228/228
f 203/203/203 202/202/202 194/194/194
f 270/270/270 310/310/310 314/314/314
f 264/264/264 314/314/314 272/272/272
f 272/272/272 271/271/271 264/264/264
f 156/156/156 176/176/176 228/228/228
f 213/213/213 233/233/233 202/202/202
f 191/191/191 199/199/199 195/195/195
f 303/303/303 304/304/304 305/305/305
f 309/309/309 305/305/305 310/310/310
f 303/303/303 305/305/305 309/309/309
f 283/283/283 276/276/276 272/272/272
f 343/343/343 354/354/354 358/358/358
f 276/276/276 291/291/291 290/290/290
f 440/440/440 442/442/442 443/443/443
f 196/196/196 194/194/194 202/202/202
f 136/136/136 140/140/140 198/198/198
f 198/198/198 199/199/199 191/191/191
f 296/296/296 304/304/304 303/303/303
f 233/233/233 245/245/245 177/177/177
f 131/131/131 153/153/153 140/140/140
f 191/191/191 195/195/195 192/192/192
f 287/287/287 354/354/354 343/343/343
f 440/440/440 441/441/441 442/442/442
f 429/429/429 430/430/430 431/431/431
f 179/179/179 176/176/176 168/168/168
f 233/233/233 177/177/177 175/175/175
f 202/202/202 233/233/233 175/175/175
f 129/129/129 131/131/131 140/140/140
f 189/189/189 194/194/194 196/196/196
f 314/314/314 283/283/283 272/272/272
f 291/291/291 293/293/293 292/292/292
f 136/136/136 129/129/129 140/140/140
f 305/305/305 314/314/314 310/310/310
f 343/343/343 320/320/320 287/287/287
f 284/284/284 287/287/287 320/320/320
f 343/343/343 358/358/358 357/357/357
f 432/432/432 430/430/430 429/429/429
f 189/189/189 193/193/193 194/194/194
f 181/181/181 191/191/191 192/192/192
f 314/314/314 276/276/276 283/283/283
f 355/355/355 343/343/343 357/357/357
f 362/362/362 355/355/355 357/357/357
f 439/439/439 441/441/441 440/440/440
f 433/433/433 430/430/430 432/432/432
f 202/202/202 175/175/175 196/196/196
f 131/131/131 156/156/156 153/153/153
f 184/184/184 181/181/181 192/192/192
f 304/304/304 306/306/306 305/305/305
f 311/311/311 305/305/305 308/308/308
f 314/314/314 305/305/305 311/311/311
f 276/276/276 314/314/314 291/291/291
f 156/156/156 168/168/168 176/176/176
f 132/132/132 156/156/156 131/131/131
f 193/193/193 190/190/190 192/192/192
f 190/190/190 184/184/184 192/192/192
f 299/299/299 297/297/297 298/298/298
f 305/305/305 306/306/306 308/308/308
f 434/434/434 432/432/432 429/429/429
f 193/193/193 189/189/189 190/190/190
f 198/198/198 134/134/134 136/136/136
f 301/301/301 300/300/300 299/299/299
f 314/314/314 326/326/326 291/291/291
f 185/185/185 191/191/191 181/181/181
f 298/298/298 297/297/297 296/296/296
f 314/314/314 311/311/311 326/326/326
f 355/355/355 342/342/342 343/343/343
f 174/174/174 177/177/177 180/180/180
f 110/110/110 132/132/132 131/131/131
f 133/133/133 134/134/134 198/198/198
f 301/301/301 320/320/320 316/316/316
f 320/320/320 343/343/343 316/316/316
f 435/435/435 432/432/432 434/434/434
f 177/177/177 174/174/174 175/175/175
f 165/165/165 196/196/196 175/175/175
f 131/131/131 108/108/108 110/110/110
f 133/133/133 198/198/198 191/191/191
f 296/296/296 295/295/295 304/304/304
f 343/343/343 342/342/342 316/316/316
f 326/326/326 350/350/350 291/291/291
f 350/350/350 293/293/293 291/291/291
f 435/435/435 436/436/436 432/432/432
f 110/110/110 168/168/168 156/156/156
f 132/132/132 110/110/110 156/156/156
f 196/196/196 165/165/165 189/189/189
f 129/129/129 136/136/136 134/134/134
f 304/304/304 308/308/308 306/306/306
f 301/301/301 316/316/316 300/300/300
f 311/311/311 313/313/313 315/315/315
f 315/315/315 326/326/326 311/311/311
f 332/332/332 350/350/350 326/326/326
f 102/102/102 93/93/93 100/100/100
f 174/174/174 165/165/165 175/175/175
f 162/162/162 189/189/189 165/165/165
f 189/189/189 184/184/184 190/190/190
f 134/134/134 133/133/133 129/129/129
f 300/300/300 297/297/297 299/299/299
f 342/342/342 355/355/355 352/352/352
f 446/446/446 445/445/445 439/439/439
f 182/182/182 184/184/184 189/189/189
f 183/183/183 185/185/185 181/181/181
f 362/362/362 360/360/360 355/355/355
f 120/120/120 117/117/117 129/129/129
f 182/182/182 181/181/181 184/184/184
f 183/183/183 191/191/191 185/185/185
f 297/297/297 294/294/294 296/296/296
f 295/295/295 308/308/308 304/304/304
f 308/308/308 312/312/312 311/311/311
f 311/311/311 312/312/312 313/313/313
f 332/332/332 353/353/353 350/350/350
f 353/353/353 293/293/293 350/350/350
f 439/439/439 445/445/445 441/441/441
f 109/109/109 168/168/168 110/110/110
f 117/117/117 131/131/131 129/129/129
f 120/120/120 129/129/129 133/133/133
f 130/130/130 120/120/120 133/133/133
f 181/181/181 182/182/182 183/183/183
f 308/308/308 295/295/295 312/312/312
f 316/316/316 342/342/342 324/324/324
f 347/347/347 342/342/342 352/352/352
f 168/168/168 109/109/109 178/178/178
f 164/164/164 165/165/165 174/174/174
f 104/104/104 110/110/110 108/108/108
f 131/131/131 117/117/117 108/108/108
f 300/300/300 316/316/316 297/297/297
f 355/355/355 359/359/359 352/352/352
f 99/99/99 103/103/103 98/98/98
f 163/163/163 162/162/162 164/164/164
f 162/162/162 165/165/165 164/164/164
f 104/104/104 108/108/108 107/107/107
f 130/130/130 133/133/133 191/191/191
f 186/186/186 191/191/191 183/183/183
f 294/294/294 295/295/295 296/296/296
f 342/342/342 347/347/347 324/324/324
f 353/353/353 332/332/332 351/351/351
f 355/355/355 360/360/360 359/359/359
f 89/89/89 101/101/101 100/100/100
f 89/89/89 96/96/96 101/101/101
f 174/174/174 172/172/172 164/164/164
f 178/178/178 109/109/109 111/111/111
f 159/159/159 189/189/189 162/162/162
f 318/318/318 297/297/297 316/316/316
f 93/93/93 89/89/89 100/100/100
f 119/119/119 117/117/117 120/120/120
f 130/130/130 121/121/121 120/120/120
f 186/186/186 182/182/182 187/187/187
f 183/183/183 182/182/182 186/186/186
f 186/186/186 130/130/130 191/191/191
f 312/312/312 321/321/321 313/313/313
f 321/321/321 315/315/315 313/313/313
f 321/321/321 326/326/326 315/315/315
f 345/345/345 351/351/351 332/332/332
f 104/104/104 109/109/109 110/110/110
f 163/163/163 160/160/160 162/162/162
f 151/151/151 189/189/189 159/159/159
f 294/294/294 297/297/297 317/317/317
f 295/295/295 321/321/321 312/312/312
f 297/297/297 318/318/318 319/319/319
f 316/316/316 324/324/324 318/318/318
f 360/360/360 352/352/352 359/359/359
f 77/77/77 93/93/93 94/94/94
f 89/89/89 93/93/93 69/69/69
f 105/105/105 104/104/104 107/107/107
f 182/182/182 189/189/189 151/151/151
f 294/294/294 321/321/321 295/295/295
f 326/326/326 321/321/321 332/332/332
f 352/352/352 360/360/360 347/347/347
f 163/163/163 164/164/164 172/172/172
f 188/188/188 187/187/187 182/182/182
f 186/186/186 121/121/121 130/130/130
f 331/331/331 332/332/332 321/321/321
f 330/330/330 345/345/345 332/332/332
f 347/347/347 340/340/340 324/324/324
f 108/108/108 117/117/117 107/107/107
f 145/145/145 188/188/188 182/182/182
f 120/120/120 121/121/121 119/119/119
f 294/294/294 322/322/322 321/321/321
f 330/330/330 331/331/331 321/321/321
f 324/324/324 340/340/340 318/318/318
f 330/330/330 332/332/332 331/331/331
f 360/360/360 361/361/361 347/347/347
f 77/77/77 69/69/69 93/93/93
f 99/99/99 98/98/98 86/86/86
f 106/106/106 111/111/111 109/109/109
f 163/163/163 172/172/172 160/160/160
f 104/104/104 106/106/106 109/109/109
f 104/104/104 105/105/105 106/106/106
f 160/160/160 159/159/159 162/162/162
f 187/187/187 197/197/197 186/186/186
f 294/294/294 317/317/317 322/322/322
f 325/325/325 330/330/330 321/321/321
f 330/330/330 346/346/346 345/345/345
f 97/97/97 88/88/88 98/98/98
f 159/159/159 152/152/152 151/151/151
f 118/118/118 117/117/117 119/119/119
f 182/182/182 151/151/151 145/145/145
f 186/186/186 197/197/197 121/121/121
f 135/135/135 197/197/197 187/187/187
f 297/297/297 319/319/319 323/323/323
f 321/321/321 322/322/322 325/325/325
f 70/70/70 69/69/69 77/77/77
f 98/98/98 87/87/87 86/86/86
f 317/317/317 297/297/297 323/323/323
f 318/318/318 323/323/323 319/319/319
f 325/325/325 333/333/333 330/330/330
f 68/68/68 63/63/63 66/66/66
f 86/86/86 63/63/63 68/68/68
f 88/88/88 87/87/87 98/98/98
f 89/89/89 90/90/90 96/96/96
f 112/112/112 111/111/111 106/106/106
f 117/117/117 105/105/105 107/107/107
f 119/119/119 121/121/121 118/118/118
f 188/188/188 135/135/135 187/187/187
f 318/318/318 340/340/340 335/335/335
f 330/330/330 333/333/333 344/344/344
f 330/330/330 344/344/344 349/349/349
f 349/349/349 346/346/346 330/330/330
f 78/78/78 71/71/71 77/77/77
f 127/127/127 121/121/121 135/135/135
f 135/135/135 121/121/121 197/197/197
f 135/135/135 188/188/188 145/145/145
f 71/71/71 70/70/70 77/77/77
f 65/65/65 86/86/86 87/87/87
f 75/75/75 89/89/89 69/69/69
f 74/74/74 89/89/89 75/75/75
f 90/90/90 89/89/89 74/74/74
f 166/166/166 160/160/160 172/172/172
f 157/157/157 152/152/152 159/159/159
f 135/135/135 145/145/145 137/137/137
f 127/127/127 135/135/135 137/137/137
f 62/62/62 70/70/70 71/71/71
f 65/65/65 63/63/63 86/86/86
f 166/166/166 172/172/172 173/173/173
f 157/157/157 159/159/159 160/160/160
f 105/105/105 117/117/117 114/114/114
f 118/118/118 114/114/114 117/117/117
f 328/328/328 325/325/325 322/322/322
f 335/335/335 323/323/323 318/318/318
f 53/53/53 50/50/50 61/61/61
f 50/50/50 62/62/62 61/61/61
f 97/97/97 82/82/82 88/88/88
f 95/95/95 82/82/82 97/97/97
f 112/112/112 115/115/115 111/111/111
f 122/122/122 118/118/118 121/121/121
f 121/121/121 127/127/127 122/122/122
f 333/333/333 325/325/325 339/339/339
f 50/50/50 70/70/70 62/62/62
f 63/63/63 54/54/54 66/66/66
f 50/50/50 69/69/69 70/70/70
f 166/166/166 157/157/157 160/160/160
f 105/105/105 113/113/113 106/106/106
f 114/114/114 113/113/113 105/105/105
f 334/334/334 327/327/327 317/317/317
f 317/317/317 327/327/327 322/322/322
f 335/335/335 340/340/340 348/348/348
f 50/50/50 51/51/51 69/69/69
f 92/92/92 90/90/90 74/74/74
f 115/115/115 112/112/112 106/106/106
f 113/113/113 115/115/115 106/106/106
f 317/317/317 323/323/323 329/329/329
f 327/327/327 328/328/328 322/322/322
f 336/336/336 341/341/341 325/325/325
f 341/341/341 339/339/339 325/325/325
f 53/53/53 46/46/46 50/50/50
f 65/65/65 64/64/64 63/63/63
f 34/34/34 69/69/69 51/51/51
f 32/32/32 69/69/69 34/34/34
f 32/32/32 75/75/75 69/69/69
f 87/87/87 88/88/88 82/82/82
f 81/81/81 82/82/82 95/95/95
f 161/161/161 158/158/158 157/157/157
f 150/150/150 152/152/152 157/157/157
f 123/123/123 118/118/118 122/122/122
f 150/150/150 151/151/151 152/152/152
f 137/137/137 145/145/145 141/141/141
f 317/317/317 329/329/329 334/334/334
f 327/327/327 338/338/338 328/328/328
f 323/323/323 335/335/335 337/337/337
f 336/336/336 325/325/325 328/328/328
f 60/60/60 54/54/54 56/56/56
f 44/44/44 46/46/46 53/53/53
f 46/46/46 38/38/38 50/50/50
f 34/34/34 51/51/51 50/50/50
f 161/161/161 157/157/157 166/166/166
f 150/150/150 157/157/157 158/158/158
f 145/145/145 151/151/151 150/150/150
f 122/122/122 124/124/124 123/123/123
f 124/124/124 122/122/122 127/127/127
f 39/39/39 38/38/38 46/46/46
f 63/63/63 55/55/55 54/54/54
f 64/64/64 55/55/55 63/63/63
f 38/38/38 34/34/34 50/50/50
f 65/65/65 55/55/55 64/64/64
f 32/32/32 74/74/74 75/75/75
f 65/65/65 87/87/87 82/82/82
f 91/91/91 92/92/92 74/74/74
f 113/113/113 169/169/169 115/115/115
f 116/116/116 113/113/113 114/114/114
f 149/149/149 145/145/145 150/150/150
f 58/58/58 57/57/57 40/40/40
f 52/52/52 35/35/35 44/44/44
f 328/328/328 341/341/341 336/336/336
f 42/42/42 60/60/60 56/56/56
f 42/42/42 41/41/41 60/60/60
f 45/45/45 46/46/46 44/44/44
f 54/54/54 42/42/42 56/56/56
f 46/46/46 45/45/45 39/39/39
f 54/54/54 55/55/55 47/47/47
f 47/47/47 55/55/55 65/65/65
f 81/81/81 65/65/65 82/82/82
f 146/146/146 145/145/145 149/149/149
f 124/124/124 127/127/127 126/126/126
f 146/146/146 141/141/141 145/145/145
f 41/41/41 57/57/57 59/59/59
f 57/57/57 41/41/41 40/40/40
f 59/59/59 60/60/60 41/41/41
f 39/39/39 45/45/45 44/44/44
f 47/47/47 42/42/42 54/54/54
f 29/29/29 74/74/74 32/32/32
f 83/83/83 91/91/91 74/74/74
f 171/171/171 167/167/167 161/161/161
f 167/167/167 158/158/158 161/161/161
f 125/125/125 114/114/114 118/118/118
f 123/123/123 125/125/125 118/118/118
f 123/123/123 124/124/124 126/126/126
f 126/126/126 127/127/127 128/128/128
f 127/127/127 137/137/137 141/141/141
f 52/52/52 37/37/37 35/35/35
f 33/33/33 38/38/38 39/39/39
f 33/33/33 34/34/34 38/38/38
f 65/65/65 49/49/49 47/47/47
f 116/116/116 169/169/169 113/113/113
f 125/125/125 169/169/169 116/116/116
f 114/114/114 125/125/125 116/116/116
f 149/149/149 150/150/150 158/158/158
f 126/126/126 128/128/128 138/138/138
f 138/138/138 128/128/128 127/127/127
f 138/138/138 127/127/127 139/139/139
f 28/28/28 44/44/44 35/35/35
f 44/44/44 28/28/28 39/39/39
f 33/33/33 39/39/39 28/28/28
f 42/42/42 47/47/47 19/19/19
f 33/33/33 32/32/32 34/34/34
f 81/81/81 49/49/49 65/65/65
f 83/83/83 74/74/74 29/29/29
f 29/29/29 84/84/84 83/83/83
f 170/170/170 169/169/169 125/125/125
f 154/154/154 141/141/141 146/146/146
f 22/22/22 40/40/40 41/41/41
f 27/27/27 32/32/32 33/33/33
f 25/25/25 32/32/32 27/27/27
f 48/48/48 19/19/19 47/47/47
f 49/49/49 81/81/81 80/80/80
f 30/30/30 84/84/84 29/29/29
f 123/123/123 138/138/138 142/142/142
f 138/138/138 123/123/123 126/126/126
f 154/154/154 146/146/146 149/149/149
f 155/155/155 143/143/143 141/141/141
f 138/138/138 139/139/139 144/144/144
f 143/143/143 127/127/127 141/141/141
f 27/27/27 33/33/33 28/28/28
f 49/49/49 48/48/48 47/47/47
f 125/125/125 123/123/123 142/142/142
f 154/154/154 158/158/158 167/167/167
f 154/154/154 149/149/149 158/158/158
f 143/143/143 139/139/139 127/127/127
f 11/11/11 43/43/43 40/40/40
f 43/43/43 11/11/11 37/37/37
f 37/37/37 3/3/3 35/35/35
f 42/42/42 19/19/19 41/41/41
f 17/17/17 41/41/41 19/19/19
f 22/22/22 41/41/41 17/17/17
f 6/6/6 28/28/28 35/35/35
f 49/49/49 19/19/19 48/48/48
f 29/29/29 32/32/32 25/25/25
f 30/30/30 29/29/29 4/4/4
f 79/79/79 49/49/49 80/80/80
f 31/31/31 76/76/76 30/30/30
f 76/76/76 84/84/84 30/30/30
f 125/125/125 142/142/142 147/147/147
f 76/76/76 85/85/85 84/84/84
f 142/142/142 138/138/138 147/147/147
f 155/155/155 141/141/141 154/154/154
f 139/139/139 143/143/143 144/144/144
f 40/40/40 8/8/8 11/11/11
f 8/8/8 40/40/40 22/22/22
f 37/37/37 11/11/11 3/3/3
f 6/6/6 21/21/21 28/28/28
f 26/26/26 27/27/27 28/28/28
f 18/18/18 17/17/17 19/19/19
f 26/26/26 25/25/25 27/27/27
f 25/25/25 4/4/4 29/29/29
f 49/49/49 18/18/18 19/19/19
f 20/20/20 18/18/18 49/49/49
f 20/20/20 49/49/49 79/79/79
f 67/67/67 20/20/20 79/79/79
f 31/31/31 85/85/85 76/76/76
f 31/31/31 36/36/36 85/85/85
f 144/144/144 147/147/147 138/138/138
f 16/16/16 73/73/73 36/36/36
f 3/3/3 6/6/6 35/35/35
f 10/10/10 22/22/22 17/17/17
f 21/21/21 26/26/26 28/28/28
f 21/21/21 25/25/25 26/26/26
f 21/21/21 4/4/4 25/25/25
f 16/16/16 36/36/36 15/15/15
f 148/148/148 147/147/147 144/144/144
f 4/4/4 6/6/6 3/3/3
f 22/22/22 10/10/10 8/8/8
f 18/18/18 13/13/13 17/17/17
f 17/17/17 13/13/13 10/10/10
f 6/6/6 4/4/4 21/21/21
f 5/5/5 30/30/30 4/4/4
f 31/31/31 30/30/30 5/5/5
f 5/5/5 2/2/2 31/31/31
f 18/18/18 20/20/20 13/13/13
f 20/20/20 67/67/67 13/13/13
f 24/24/24 13/13/13 67/67/67
f 2/2/2 36/36/36 31/31/31
f 24/24/24 67/67/67 23/23/23
f 11/11/11 8/8/8 3/3/3
f 10/10/10 13/13/13 9/9/9
f 3/3/3 2/2/2 4/4/4
f 2/2/2 5/5/5 4/4/4
f 23/23/23 13/13/13 24/24/24
f 12/12/12 15/15/15 36/36/36
f 12/12/12 36/36/36 2/2/2
f 72/72/72 14/14/14 23/23/23
f 72/72/72 73/73/73 16/16/16
f 9/9/9 8/8/8 10/10/10
f 9/9/9 7/7/7 8/8/8
f 8/8/8 7/7/7 3/3/3
f 3/3/3 7/7/7 1/1/1
f 1/1/1 2/2/2 3/3/3
f 1/1/1 12/12/12 2/2/2
f 9/9/9 14/14/14 7/7/7
f 7/7/7 12/12/12 1/1/1
f 9/9/9 13/13/13 23/23/23
f 14/14/14 9/9/9 23/23/23
f 14/14/14 16/16/16 7/7/7
f 7/7/7 16/16/16 15/15/15
f 14/14/14 72/72/72 16/16/16
f 15/15/15 12/12/12 7/7/7
