# Shopkeeper / Leg1  (local frame of part 'Leg1', bbox-centred; -Z = front)
v 0.00963 -0.06098 0.14763
v 0.03718 -0.06369 0.14330
v -0.00116 0.00880 0.14885
v 0.04488 0.00466 0.14238
v 0.02896 0.05474 0.14535
v 0.02346 -0.13072 0.14201
v 0.00233 -0.10828 0.14567
v 0.01631 0.13940 0.14203
v 0.00607 0.11497 0.14503
v 0.04787 0.13815 0.13482
v 0.02196 0.18126 0.13546
v 0.06722 -0.09248 0.13058
v 0.07899 0.03158 0.12699
v 0.05279 0.22035 0.11843
v 0.08121 -0.02945 0.12572
v 0.07088 -0.17449 0.11827
v 0.03119 -0.19362 0.13140
v 0.07688 0.16181 0.11677
v 0.08986 0.05066 0.11907
v 0.09231 0.13910 0.10861
v 0.00665 0.26329 0.11879
v 0.04732 0.24001 0.11588
v 0.02953 0.31169 0.09883
v 0.04469 0.27414 0.10692
v 0.00537 0.31573 0.10129
v -0.02651 0.17270 0.13571
v -0.02460 0.12610 0.14189
v -0.01478 -0.17779 0.13685
v 0.00217 -0.24872 0.12261
v 0.05004 -0.27203 0.10475
v 0.07221 -0.23662 0.10281
v 0.02111 -0.34339 0.08581
v -0.05401 -0.03445 0.13824
v -0.05090 -0.09120 0.13728
v -0.05195 -0.02109 0.13926
v -0.01431 -0.31603 0.09909
v -0.04064 0.24982 0.11517
v -0.05192 0.09591 0.13639
v -0.03446 -0.26023 0.11403
v -0.05276 -0.17420 0.12731
v -0.04193 0.27754 0.10625
v 0.02937 0.36407 0.07306
v 0.04889 -0.33435 0.07911
v 0.03012 -0.35117 0.07907
v -0.01976 -0.34729 0.08379
v 0.07179 0.23035 0.10507
v 0.09676 0.20399 0.09049
v 0.06009 -0.27864 0.09697
v 0.06910 0.27913 0.09103
v 0.06112 0.29650 0.08987
v 0.08917 -0.26625 0.07715
v 0.10050 -0.15247 0.09841
v 0.10032 -0.10943 0.10536
v 0.11129 -0.03603 0.10058
v 0.08259 -0.22529 0.09800
v 0.10198 0.09749 0.10526
v -0.00814 0.37092 0.07379
v -0.04267 0.35020 0.07420
v 0.06645 -0.30981 0.07922
v -0.07732 0.12053 0.12108
v -0.07735 0.07704 0.12483
v -0.06686 0.19632 0.11540
v 0.06938 0.34088 0.05873
v 0.00332 0.40107 0.05081
v 0.07811 0.30718 0.06988
v 0.11695 0.04772 0.09332
v 0.12605 0.00675 0.08250
v 0.10385 0.17630 0.08972
v 0.10917 -0.21990 0.06917
v 0.07570 -0.30979 0.07067
v 0.09690 0.26371 0.06828
v 0.06481 0.36017 0.04865
v 0.09075 0.29263 0.06175
v 0.12258 0.11944 0.07646
v 0.10736 0.18306 0.08365
v 0.05526 -0.37755 0.04256
v 0.06572 -0.35508 0.05116
v 0.07175 -0.34932 0.04811
v 0.01121 -0.39133 0.05767
v 0.04347 0.39449 0.03759
v 0.03276 -0.40493 0.03296
v 0.02832 0.40924 0.03145
v -0.07655 0.17024 0.11426
v -0.09922 0.02756 0.11113
v -0.06228 0.28492 0.09254
v -0.08754 0.25010 0.08368
v -0.10544 -0.09407 0.10132
v -0.04028 0.39185 0.04268
v -0.07107 0.33484 0.05927
v -0.01622 0.41796 0.02344
v -0.06298 -0.09414 0.13193
v -0.03375 0.41076 0.02000
v 0.00292 0.42489 -0.00953
v 0.00524 -0.42489 0.00527
v -0.01356 -0.41362 0.03186
v -0.02490 -0.41859 -0.00719
v -0.04218 -0.40624 0.01164
v -0.03900 -0.39425 0.03979
v 0.01831 -0.41475 0.02825
v -0.03234 -0.37064 0.06546
v -0.06172 -0.32876 0.07162
v -0.07439 -0.35061 0.03949
v -0.07393 -0.19947 0.11060
v -0.08762 -0.26953 0.07571
v -0.07532 -0.30416 0.07223
v -0.08585 -0.10749 0.11708
v -0.09882 -0.22393 0.08063
v -0.11161 -0.17947 0.07782
v -0.13846 0.12074 0.03962
v -0.14597 0.07022 -0.02848
v -0.15029 -0.00747 0.01543
v -0.14144 0.14167 0.00688
v -0.13813 0.15589 -0.02044
v -0.12908 0.20321 -0.02597
v -0.14658 -0.06142 -0.02862
v -0.14637 -0.09526 0.01183
v -0.10540 0.30143 0.00130
v -0.11907 0.24044 0.03258
v -0.11281 0.26326 -0.03284
v -0.12157 0.20600 0.04872
v -0.09897 0.30179 0.03610
v -0.13444 0.11079 -0.05455
v -0.13608 -0.12442 -0.04601
v -0.13443 -0.00689 -0.06819
v -0.08809 0.32874 -0.03565
v -0.13135 0.07494 -0.06842
v -0.11420 0.19724 -0.06767
v -0.09707 0.28039 -0.05712
v -0.12086 0.13514 -0.07491
v -0.14130 -0.12092 -0.02857
v -0.13536 -0.18243 -0.00345
v -0.12432 -0.17127 -0.05777
v -0.13015 -0.20908 -0.00796
v -0.11507 -0.24424 -0.04187
v -0.12807 -0.20340 0.03006
v -0.12325 -0.24095 0.00033
v -0.11361 -0.27579 -0.00475
v -0.12629 -0.15960 0.05829
v -0.12859 -0.08529 0.07171
v -0.13958 -0.01948 0.05629
v -0.12861 0.02509 0.07700
v -0.11535 -0.21437 -0.05827
v -0.11928 -0.09206 -0.08513
v -0.12447 -0.03692 -0.08356
v -0.10571 -0.26625 0.04920
v -0.09237 -0.32518 0.02630
v -0.10000 -0.27980 -0.05179
v -0.07936 -0.35464 -0.02118
v -0.06710 -0.37939 -0.00044
v -0.08229 -0.32094 -0.05335
v -0.10477 -0.18700 -0.08422
v -0.12960 0.13735 0.05762
v -0.10872 0.20101 0.07453
v -0.09082 -0.25776 -0.07716
v -0.11678 0.05717 -0.09232
v -0.05755 0.38816 -0.02144
v -0.06451 0.37690 0.02597
v -0.10503 -0.02351 -0.10685
v -0.10015 0.16181 -0.09585
v -0.07439 -0.35061 0.03949
v -0.09882 -0.22393 0.08063
v -0.11161 -0.17947 0.07782
v -0.08754 0.25010 0.08368
v -0.10892 0.12500 0.09259
v -0.10544 -0.09407 0.10132
v -0.07107 0.33484 0.05927
v -0.08762 -0.26953 0.07571
v -0.07532 -0.30416 0.07223
v -0.06172 -0.32876 0.07162
v -0.09922 0.02756 0.11113
v -0.05735 -0.37025 -0.04583
v -0.03900 -0.39425 0.03979
v -0.04218 -0.40624 0.01164
v -0.04279 -0.39881 -0.02886
v -0.07540 0.33603 -0.05293
v -0.07287 0.28931 -0.08275
v -0.06706 -0.32299 -0.07083
v -0.10008 0.03865 -0.11079
v -0.03375 0.41076 0.02000
v -0.08490 -0.12269 -0.11567
v -0.08222 -0.05029 -0.12378
v -0.02895 -0.38052 -0.06048
v -0.07651 -0.18990 -0.11040
v -0.02490 -0.41859 -0.00719
v -0.06386 -0.26379 -0.09928
v -0.06686 0.19632 0.11540
v -0.07655 0.17024 0.11426
v -0.06228 0.28492 0.09254
v -0.04028 0.39185 0.04268
v -0.07732 0.12053 0.12108
v -0.07735 0.07704 0.12483
v -0.03977 0.35259 -0.07486
v -0.04538 0.36671 -0.06178
v -0.04613 0.39036 -0.03823
v -0.01936 0.41599 -0.02538
v 0.00292 0.42489 -0.00953
v -0.01622 0.41796 0.02344
v 0.13437 0.19137 0.00724
v 0.12290 0.24294 0.01495
v 0.13011 0.20995 0.01621
v 0.12273 0.23567 -0.02638
v 0.10938 0.29299 0.00075
v 0.11108 0.27898 0.02513
v 0.11656 0.24857 -0.03717
v 0.10783 0.28205 -0.03351
v 0.10246 0.30112 -0.02954
v 0.08844 0.33285 -0.03274
v 0.09036 0.33940 0.01317
v 0.12153 0.21187 -0.04780
v 0.13725 0.15762 -0.02639
v 0.14334 0.12657 -0.00939
v 0.14360 0.12083 0.01389
v 0.14078 0.09280 -0.04151
v 0.14939 0.03266 -0.01552
v 0.12968 0.15452 -0.05284
v 0.13913 0.05642 -0.05351
v 0.13942 -0.00317 -0.05650
v 0.14662 -0.03763 -0.03192
v 0.15029 -0.03061 -0.00213
v 0.14992 0.03863 0.00512
v 0.14280 0.09624 0.03320
v 0.14285 0.11206 0.02580
v 0.13918 -0.12105 -0.03873
v 0.13780 -0.08858 -0.05200
v 0.12920 0.10813 -0.06628
v 0.14938 -0.04248 0.01300
v 0.14471 -0.11785 0.00537
v 0.14099 -0.15085 0.00039
v 0.14566 -0.03462 0.03670
v 0.14854 0.00991 0.02503
v 0.14362 0.05087 0.04170
v 0.12699 0.21126 0.03157
v 0.12762 0.17634 0.04995
v 0.11721 -0.24534 -0.03946
v 0.13163 -0.05362 -0.07015
v 0.13148 -0.12362 -0.05915
v 0.13712 -0.17736 -0.00433
v 0.12120 -0.25386 -0.00918
v 0.13622 -0.16663 0.02662
v 0.12865 -0.13835 0.06110
v 0.13995 -0.05456 0.05247
v 0.13722 -0.11394 0.04728
v 0.13422 0.13222 0.04938
v 0.12816 -0.19394 0.04031
v 0.12115 -0.24966 0.01888
v 0.13921 0.00377 0.05771
v 0.14009 0.02677 0.05467
v 0.13040 0.05509 0.07283
v 0.10698 -0.29535 -0.02190
v 0.11060 -0.22108 -0.06684
v 0.09140 -0.33796 0.01242
v 0.10684 -0.29060 0.02922
v 0.11698 0.22678 0.05098
v 0.14809 0.07411 0.00694
v 0.12753 -0.14543 0.06142
v 0.09532 0.31568 0.03443
v 0.12605 0.00675 0.08250
v 0.11491 -0.24273 0.04717
v 0.10917 -0.21990 0.06917
v 0.12258 0.11944 0.07646
v 0.11809 -0.20968 0.05751
v 0.11290 -0.17333 0.07866
v 0.12403 0.13816 0.06987
v 0.10736 0.18306 0.08365
v 0.12737 -0.05268 0.07829
v 0.12140 -0.06674 0.08595
v 0.09075 0.29263 0.06175
v 0.09690 0.26371 0.06828
v 0.10934 0.22657 0.06597
v 0.09676 0.20399 0.09049
v 0.09475 -0.30190 0.04916
v 0.09010 -0.32429 0.03890
v 0.10014 -0.26601 0.06255
v 0.11695 0.04772 0.09332
v 0.07757 -0.35483 -0.03154
v 0.06718 -0.37986 -0.01329
v 0.06498 0.38466 0.00659
v 0.07434 0.36614 -0.02193
v 0.11921 0.09195 -0.08502
v 0.10032 -0.10943 0.10536
v 0.10198 0.09749 0.10526
v 0.06901 0.35926 0.04339
v 0.06938 0.34088 0.05873
v 0.11129 -0.03603 0.10058
v 0.10050 -0.15247 0.09841
v 0.05890 -0.39045 0.01356
v 0.07175 -0.34932 0.04811
v 0.10165 0.25376 -0.06553
v 0.12276 0.02885 -0.08566
v 0.12468 -0.03263 -0.08285
v 0.12046 0.05260 -0.08741
v 0.11781 -0.13410 -0.08112
v 0.08780 -0.30000 -0.06196
v 0.09489 0.26929 -0.06803
v 0.08679 0.30677 -0.05870
v 0.10784 0.16417 -0.08688
v 0.10622 0.19823 -0.08005
v 0.10996 0.12707 -0.09160
v 0.08917 0.21766 -0.09368
v 0.08917 -0.26625 0.07715
v 0.05526 -0.37755 0.04256
v 0.07570 -0.30979 0.07067
v 0.10048 -0.07322 -0.10846
v 0.06687 0.37103 -0.03309
v 0.07497 0.32803 -0.06091
v 0.10043 -0.14859 -0.09954
v 0.08295 -0.24994 -0.09028
v 0.08741 -0.20899 -0.09867
v 0.06481 0.36017 0.04865
v 0.03915 -0.41069 -0.00765
v 0.06153 -0.33410 -0.07082
v 0.06330 -0.35601 -0.05366
v 0.07164 -0.31697 -0.07132
v 0.04303 -0.39543 -0.03589
v 0.06572 -0.35508 0.05116
v 0.06014 0.34665 -0.06461
v 0.03016 0.41569 -0.01449
v 0.04347 0.39449 0.03759
v 0.04718 -0.37031 -0.05780
v 0.04737 0.38124 -0.04872
v 0.03945 0.41055 0.01042
v 0.03276 -0.40493 0.03296
v 0.02832 0.40924 0.03145
v 0.01831 -0.41475 0.02825
v 0.01547 -0.42035 -0.01760
v 0.00524 -0.42489 0.00527
v 0.05020 -0.21966 -0.11974
v 0.02728 -0.25068 -0.11953
v -0.00562 -0.25084 -0.12228
v 0.00931 -0.29156 -0.11007
v -0.00206 -0.27161 -0.11667
v -0.02013 -0.31331 -0.10030
v 0.00936 -0.33116 -0.09464
v 0.03217 -0.31052 -0.09859
v 0.05095 -0.26056 -0.10858
v 0.02843 -0.21869 -0.12692
v 0.00664 -0.17301 -0.13808
v 0.04815 -0.16904 -0.13030
v -0.01292 -0.16909 -0.13811
v 0.05505 -0.30888 -0.08856
v 0.06153 -0.33410 -0.07082
v 0.04373 -0.34592 -0.07661
v 0.01652 -0.37816 -0.06730
v 0.06539 -0.25722 -0.10156
v 0.08741 -0.20899 -0.09867
v 0.08378 -0.16715 -0.11092
v 0.07767 -0.13167 -0.12061
v 0.06298 -0.12904 -0.12925
v 0.02256 -0.11539 -0.14323
v 0.06516 -0.10161 -0.13075
v 0.02880 -0.05700 -0.14546
v 0.07912 -0.06703 -0.12514
v 0.04256 -0.02273 -0.14300
v 0.01559 -0.02702 -0.14818
v 0.04880 0.01002 -0.14116
v -0.00400 -0.02651 -0.14885
v -0.01713 -0.11413 -0.14387
v -0.01602 -0.06406 -0.14693
v -0.01396 -0.02086 -0.14830
v 0.00175 0.08826 -0.14665
v 0.05529 0.08164 -0.13633
v 0.02601 0.16116 -0.13736
v 0.01587 0.15433 -0.13982
v -0.02610 0.05820 -0.14562
v -0.04664 -0.08073 -0.13937
v 0.06933 0.12559 -0.12577
v 0.06704 0.13270 -0.12621
v 0.05445 0.17401 -0.12647
v 0.08189 0.04990 -0.12400
v -0.02025 0.17093 -0.13669
v -0.00172 0.25018 -0.12243
v 0.04567 0.22336 -0.12032
v -0.03090 0.02275 -0.14564
v 0.02817 0.28938 -0.10767
v 0.06850 0.21839 -0.10984
v 0.09370 0.13756 -0.10672
v 0.07757 0.17737 -0.11269
v 0.10048 -0.07322 -0.10846
v 0.06620 0.26892 -0.09668
v 0.07137 0.24233 -0.10147
v 0.08917 0.21766 -0.09368
v 0.10359 0.00788 -0.10810
v 0.08295 -0.24994 -0.09028
v 0.04471 0.31955 -0.08993
v 0.10622 0.19823 -0.08005
v -0.00002 0.32574 -0.09782
v 0.10043 -0.14859 -0.09954
v 0.02702 0.36445 -0.07406
v -0.06574 0.09647 -0.13026
v -0.04716 -0.22170 -0.11980
v -0.04717 -0.16892 -0.13002
v -0.05139 -0.10959 -0.13558
v -0.03332 0.26617 -0.11307
v -0.04873 0.18655 -0.12628
v 0.05183 0.33078 -0.08045
v 0.07354 0.30242 -0.07705
v 0.11921 0.09195 -0.08502
v 0.10996 0.12707 -0.09160
v 0.10784 0.16417 -0.08688
v 0.12046 0.05260 -0.08741
v 0.11781 -0.13410 -0.08112
v 0.07164 -0.31697 -0.07132
v 0.08780 -0.30000 -0.06196
v 0.12468 -0.03263 -0.08285
v -0.01522 0.37841 -0.06787
v 0.04718 -0.37031 -0.05780
v 0.12276 0.02885 -0.08566
v -0.06851 0.03886 -0.13207
v -0.08222 -0.05029 -0.12378
v -0.06386 -0.26379 -0.09928
v -0.03304 -0.33324 -0.08768
v -0.02895 -0.38052 -0.06048
v -0.07598 0.18313 -0.11225
v -0.03977 0.35259 -0.07486
v -0.05778 0.26283 -0.10341
v -0.00174 0.40078 -0.05129
v 0.06014 0.34665 -0.06461
v 0.04045 0.36092 -0.07003
v -0.08490 -0.12269 -0.11567
v -0.07651 -0.18990 -0.11040
v 0.01645 0.40643 -0.04251
v 0.07497 0.32803 -0.06091
v 0.10165 0.25376 -0.06553
v 0.09489 0.26929 -0.06803
v 0.08679 0.30677 -0.05870
v 0.04737 0.38124 -0.04872
v 0.00171 -0.40837 -0.04214
v 0.06330 -0.35601 -0.05366
v 0.04303 -0.39543 -0.03589
v -0.07287 0.28931 -0.08275
v -0.10503 -0.02351 -0.10685
v -0.10008 0.03865 -0.11079
v -0.06706 -0.32299 -0.07083
v -0.11678 0.05717 -0.09232
v -0.04538 0.36671 -0.06178
v -0.10015 0.16181 -0.09585
v -0.05735 -0.37025 -0.04583
v -0.04613 0.39036 -0.03823
v -0.01936 0.41599 -0.02538
v -0.07540 0.33603 -0.05293
v 0.01547 -0.42035 -0.01760
v -0.04279 -0.39881 -0.02886
v 0.03016 0.41569 -0.01449
v 0.00292 0.42489 -0.00953
v -0.13444 0.11079 -0.05455
v -0.02490 -0.41859 -0.00719
v -0.12086 0.13514 -0.07491
v -0.05735 -0.37025 -0.04583
v -0.02895 -0.38052 -0.06048
v -0.07936 -0.35464 -0.02118
v 0.12816 -0.19394 0.04031
v 0.10917 -0.21990 0.06917
v 0.11809 -0.20968 0.05751
v 0.03016 0.41569 -0.01449
v 0.00292 0.42489 -0.00953
v 0.02832 0.40924 0.03145
v 0.03945 0.41055 0.01042
v 0.00524 -0.42489 0.00527
v -0.02490 -0.41859 -0.00719
v 0.01547 -0.42035 -0.01760
vt 0.33369 0.52326
vt 0.33283 0.49348
vt 0.38865 0.53972
vt 0.38797 0.48982
vt 0.42714 0.51120
vt 0.27915 0.50396
vt 0.29589 0.52760
vt 0.49417 0.53111
vt 0.47406 0.54028
vt 0.49551 0.49656
vt 0.52820 0.52791
vt 0.31083 0.45729
vt 0.41197 0.45183
vt 0.56305 0.49625
vt 0.36242 0.44463
vt 0.24447 0.44767
vt 0.22955 0.49188
vt 0.51789 0.46364
vt 0.42844 0.43892
vt 0.50141 0.44123
vt 0.59418 0.54892
vt 0.57854 0.50360
vt 0.63631 0.52668
vt 0.60659 0.50832
vt 0.63780 0.55248
vt 0.51915 0.57898
vt 0.48151 0.57386
vt 0.24036 0.54064
vt 0.18492 0.51892
vt 0.16521 0.46638
vt 0.19333 0.44181
vt 0.10631 0.49448
vt 0.35103 0.59358
vt 0.30579 0.58555
vt 0.36176 0.59260
vt 0.12879 0.53278
vt 0.58276 0.59921
vt 0.45614 0.60191
vt 0.17312 0.55634
vt 0.24006 0.58154
vt 0.60643 0.60228
vt 0.68270 0.52924
vt 0.11159 0.46359
vt 0.09897 0.48442
vt 0.10158 0.53702
vt 0.57422 0.47361
vt 0.55712 0.43697
vt 0.15883 0.45396
vt 0.61547 0.47884
vt 0.62884 0.48955
vt 0.16528 0.41366
vt 0.26126 0.40802
vt 0.29743 0.41176
vt 0.35861 0.40139
vt 0.20173 0.42869
vt 0.46841 0.42446
vt 0.68589 0.56892
vt 0.67034 0.60605
vt 0.13040 0.44267
vt 0.47549 0.63529
vt 0.43990 0.63137
vt 0.53881 0.62785
vt 0.67317 0.47840
vt 0.71607 0.55857
vt 0.64377 0.46648
vt 0.42880 0.39778
vt 0.39545 0.37897
vt 0.53499 0.42513
vt 0.20233 0.38537
vt 0.12798 0.42859
vt 0.61077 0.43617
vt 0.69195 0.48408
vt 0.63559 0.44540
vt 0.49140 0.38986
vt 0.54159 0.41887
vt 0.06569 0.45070
vt 0.08586 0.43850
vt 0.08942 0.42897
vt 0.06239 0.50278
vt 0.72030 0.51191
vt 0.04161 0.47646
vt 0.73287 0.53082
vt 0.51702 0.63794
vt 0.39778 0.65610
vt 0.61514 0.62794
vt 0.58744 0.66071
vt 0.29785 0.65540
vt 0.71318 0.60773
vt 0.66418 0.64383
vt 0.74135 0.58205
vt 0.30235 0.59915
vt 0.73855 0.60340
vt 0.77027 0.56027
vt 0.01109 0.50903
vt 0.03531 0.52811
vt 0.00450 0.54529
vt 0.02404 0.56395
vt 0.04971 0.55831
vt 0.03221 0.49347
vt 0.07799 0.54969
vt 0.10939 0.58704
vt 0.07886 0.60696
vt 0.21692 0.60513
vt 0.15457 0.62174
vt 0.12776 0.60467
vt 0.28951 0.62634
vt 0.19084 0.63997
vt 0.22537 0.66071
vt 0.48841 0.82852
vt 0.44026 0.89168
vt 0.38466 0.83310
vt 0.50077 0.86577
vt 0.50923 0.89617
vt 0.54668 0.90781
vt 0.33678 0.86923
vt 0.31570 0.82168
vt 0.62827 0.89248
vt 0.58244 0.85219
vt 0.59475 0.92305
vt 0.55739 0.83046
vt 0.63356 0.85619
vt 0.47008 0.92761
vt 0.28479 0.87670
vt 0.37382 0.92196
vt 0.64999 0.93551
vt 0.43914 0.93742
vt 0.54006 0.95404
vt 0.60878 0.95314
vt 0.48907 0.95545
vt 0.29011 0.85873
vt 0.24525 0.82255
vt 0.24552 0.88184
vt 0.22357 0.82276
vt 0.18999 0.85271
vt 0.23231 0.78401
vt 0.19907 0.80913
vt 0.17012 0.80877
vt 0.26997 0.75998
vt 0.33069 0.75811
vt 0.38056 0.78772
vt 0.41871 0.77124
vt 0.21089 0.87550
vt 0.30310 0.92766
vt 0.34733 0.93536
vt 0.18202 0.75221
vt 0.13093 0.76784
vt 0.15835 0.85840
vt 0.09928 0.81397
vt 0.07960 0.78677
vt 0.12221 0.85481
vt 0.22669 0.91147
vt 0.50427 0.81109
vt 0.55846 0.79979
vt 0.16995 0.89210
vt 0.42143 0.96483
vt 0.70486 0.92784
vt 0.69811 0.87624
vt 0.35336 0.97049
vt 0.51118 0.98764
vt 0.10782 0.74738
vt 0.21815 0.72065
vt 0.25532 0.73220
vt 0.60194 0.79299
vt 0.50118 0.76642
vt 0.32744 0.71697
vt 0.66896 0.83279
vt 0.17903 0.71761
vt 0.14844 0.71472
vt 0.12543 0.70870
vt 0.42695 0.72434
vt 0.07728 0.84177
vt 0.06190 0.73597
vt 0.05140 0.76717
vt 0.05084 0.81270
vt 0.65789 0.95770
vt 0.61841 0.99014
vt 0.11368 0.87765
vt 0.40303 0.98827
vt 0.73475 0.88646
vt 0.26978 0.96762
vt 0.32638 0.99405
vt 0.05104 0.85594
vt 0.21514 0.95025
vt 0.03153 0.78446
vt 0.15514 0.92514
vt 0.56741 0.73833
vt 0.54466 0.73850
vt 0.63703 0.78252
vt 0.72108 0.85801
vt 0.50560 0.72100
vt 0.47092 0.70833
vt 0.68292 0.99405
vt 0.69307 0.97670
vt 0.71116 0.94834
vt 0.74302 0.93759
vt 0.76426 0.92340
vt 0.75065 0.88507
vt 0.90734 0.73153
vt 0.91324 0.78751
vt 0.91452 0.75175
vt 0.87965 0.77983
vt 0.90153 0.84206
vt 0.92144 0.82770
vt 0.87047 0.79468
vt 0.87357 0.83153
vt 0.87693 0.85236
vt 0.87411 0.88898
vt 0.91125 0.89477
vt 0.86160 0.75501
vt 0.88015 0.69529
vt 0.89422 0.66194
vt 0.91320 0.65598
vt 0.86777 0.62633
vt 0.88967 0.56216
vt 0.85768 0.69293
vt 0.85760 0.58756
vt 0.85528 0.52376
vt 0.87657 0.48730
vt 0.90097 0.49505
vt 0.90647 0.56848
vt 0.92965 0.62984
vt 0.92299 0.64685
vt 0.87127 0.39843
vt 0.85984 0.43251
vt 0.84579 0.64359
vt 0.91324 0.48247
vt 0.90721 0.40263
vt 0.90335 0.36777
vt 0.93276 0.49068
vt 0.92314 0.53801
vt 0.93692 0.58172
vt 0.92720 0.75390
vt 0.94315 0.71722
vt 0.87116 0.26600
vt 0.84319 0.46930
vt 0.85362 0.39463
vt 0.89971 0.33969
vt 0.89574 0.25827
vt 0.92460 0.35056
vt 0.95378 0.37931
vt 0.94614 0.46915
vt 0.94169 0.40610
vt 0.94303 0.66923
vt 0.93589 0.32074
vt 0.91815 0.26223
vt 0.95094 0.53149
vt 0.94827 0.55604
vt 0.96468 0.58700
vt 0.88518 0.21304
vt 0.84727 0.28930
vt 0.91205 0.16545
vt 0.92610 0.21676
vt 0.94376 0.77258
vt 0.90825 0.60588
vt 0.95425 0.37170
vt 0.92895 0.86992
vt 0.97431 0.53462
vt 0.94189 0.26743
vt 0.96227 0.28944
vt 0.96812 0.65703
vt 0.95110 0.30243
vt 0.97079 0.33987
vt 0.96160 0.67714
vt 0.97509 0.72850
vt 0.96968 0.47044
vt 0.97717 0.45483
vt 0.95385 0.84887
vt 0.95998 0.81675
vt 0.95738 0.77433
vt 0.98235 0.75346
vt 0.94305 0.20094
vt 0.93393 0.17733
vt 0.95567 0.23900
vt 0.98528 0.57992
vt 0.87635 0.14394
vt 0.89099 0.11576
vt 0.90544 0.94907
vt 0.88273 0.92702
vt 0.82759 0.62703
vt 0.99850 0.40685
vt 0.99850 0.63530
vt 0.93679 0.92456
vt 0.95141 0.90640
vt 0.99288 0.48731
vt 0.99144 0.36039
vt 0.91207 0.10146
vt 0.94223 0.14432
vt 0.84451 0.80407
vt 0.82747 0.55835
vt 0.83057 0.49148
vt 0.82567 0.58424
vt 0.83303 0.38141
vt 0.85009 0.20195
vt 0.84203 0.82282
vt 0.85062 0.86415
vt 0.82488 0.70633
vt 0.83116 0.74332
vt 0.82063 0.66605
vt 0.81579 0.76836
vt 0.97058 0.23483
vt 0.93722 0.10888
vt 0.96454 0.18502
vt 0.80330 0.44512
vt 0.87336 0.93531
vt 0.84821 0.89053
vt 0.81387 0.36248
vt 0.82242 0.25225
vt 0.81413 0.29619
vt 0.94195 0.92815
vt 0.89491 0.07270
vt 0.83925 0.15700
vt 0.85581 0.13566
vt 0.84001 0.17832
vt 0.87107 0.08716
vt 0.94514 0.13546
vt 0.84355 0.91633
vt 0.88688 0.99802
vt 0.93212 0.97191
vt 0.85078 0.11230
vt 0.85796 0.95612
vt 0.90837 0.98788
vt 0.92857 0.07072
vt 0.92757 0.99527
vt 0.92460 0.05147
vt 0.88592 0.04613
vt 0.90529 0.03373
vt 0.18648 0.19714
vt 0.16458 0.16810
vt 0.16772 0.13339
vt 0.13284 0.14451
vt 0.15051 0.13477
vt 0.11645 0.11092
vt 0.09938 0.13983
vt 0.11367 0.16660
vt 0.15238 0.19344
vt 0.19051 0.17315
vt 0.22957 0.15510
vt 0.22840 0.20042
vt 0.23455 0.13495
vt 0.10971 0.19302
vt 0.08402 0.19864
vt 0.07911 0.17501
vt 0.05596 0.14075
vt 0.15192 0.21119
vt 0.18763 0.24529
vt 0.22397 0.24429
vt 0.25445 0.24011
vt 0.25884 0.22222
vt 0.27451 0.17877
vt 0.28085 0.22797
vt 0.32055 0.19221
vt 0.30718 0.24913
vt 0.34672 0.21097
vt 0.34551 0.18140
vt 0.37229 0.22152
vt 0.34779 0.16079
vt 0.27897 0.13673
vt 0.31886 0.14362
vt 0.35326 0.15097
vt 0.43845 0.18040
vt 0.42885 0.23733
vt 0.49424 0.21493
vt 0.48949 0.20337
vt 0.41725 0.14746
vt 0.30797 0.10814
vt 0.46305 0.25942
vt 0.46894 0.25749
vt 0.50282 0.24792
vt 0.40131 0.26562
vt 0.50594 0.16766
vt 0.56737 0.19594
vt 0.54330 0.24378
vt 0.38966 0.13796
vt 0.59784 0.23167
vt 0.53876 0.27081
vt 0.47156 0.29366
vt 0.50475 0.27673
vt 0.29921 0.27784
vt 0.58156 0.27392
vt 0.55926 0.27744
vt 0.53915 0.29955
vt 0.36527 0.29029
vt 0.15341 0.23542
vt 0.62384 0.25386
vt 0.52244 0.32362
vt 0.62946 0.20588
vt 0.23588 0.27030
vt 0.66295 0.23930
vt 0.45242 0.10859
vt 0.19345 0.09122
vt 0.23667 0.09732
vt 0.28503 0.09942
vt 0.58387 0.16442
vt 0.52190 0.13889
vt 0.63450 0.26429
vt 0.61174 0.28940
vt 0.43252 0.32738
vt 0.46235 0.31763
vt 0.49365 0.32018
vt 0.40014 0.32338
vt 0.24448 0.30094
vt 0.09630 0.21438
vt 0.10538 0.24027
vt 0.32928 0.32141
vt 0.67821 0.19619
vt 0.05340 0.17626
vt 0.38021 0.32460
vt 0.40668 0.09733
vt 0.33585 0.06924
vt 0.15765 0.06567
vt 0.09919 0.09432
vt 0.05512 0.09134
vt 0.52359 0.10619
vt 0.65970 0.16560
vt 0.58560 0.13640
vt 0.69894 0.21333
vt 0.65120 0.27870
vt 0.66111 0.25437
vt 0.27629 0.05606
vt 0.22007 0.05834
vt 0.70522 0.23340
vt 0.63633 0.29798
vt 0.57289 0.32738
vt 0.58584 0.31830
vt 0.61881 0.31333
vt 0.68442 0.26704
vt 0.02653 0.12090
vt 0.06032 0.19937
vt 0.02611 0.16751
vt 0.61238 0.11928
vt 0.36034 0.04155
vt 0.41064 0.05630
vt 0.10449 0.05252
vt 0.42982 0.03364
vt 0.67647 0.16062
vt 0.51182 0.07039
vt 0.05990 0.05514
vt 0.70446 0.16303
vt 0.72452 0.19732
vt 0.65767 0.11666
vt 0.00375 0.13256
vt 0.02714 0.07049
vt 0.72641 0.25439
vt 0.73724 0.22476
vt 0.47990 0.00198
vt 0.00150 0.08650
vt 0.49661 0.03222
vt 0.73423 0.06183
vt 0.74024 0.02579
vt 0.74024 0.10119
vt 0.67718 0.71627
vt 0.71321 0.71627
vt 0.69833 0.71230
vt 0.71188 0.35516
vt 0.72222 0.38690
vt 0.68018 0.38690
vt 0.68998 0.36205
vt 0.04354 0.27183
vt 0.04354 0.30754
vt 0.02252 0.27199
vn 0.0596 -0.0305 0.9978
vn 0.2429 -0.0342 0.9695
vn -0.0129 0.0070 0.9999
vn 0.2868 0.0043 0.9580
vn 0.1871 0.0291 0.9819
vn 0.1613 -0.0961 0.9822
vn 0.0108 -0.0678 0.9976
vn 0.1108 0.1070 0.9881
vn 0.0370 0.0755 0.9965
vn 0.3369 0.1078 0.9353
vn 0.1572 0.1637 0.9739
vn 0.4554 -0.0638 0.8880
vn 0.5138 0.0231 0.8576
vn 0.4044 0.2105 0.8900
vn 0.5284 -0.0216 0.8487
vn 0.5194 -0.1551 0.8403
vn 0.2301 -0.1798 0.9564
vn 0.5539 0.1397 0.8208
vn 0.5921 0.0379 0.8050
vn 0.6498 0.1163 0.7511
vn 0.0484 0.2740 0.9605
vn 0.3714 0.2376 0.8975
vn 0.2629 0.3557 0.8969
vn 0.3700 0.2879 0.8833
vn 0.0424 0.3648 0.9301
vn -0.2030 0.1528 0.9672
vn -0.1808 0.0899 0.9794
vn -0.1131 -0.1616 0.9804
vn 0.0112 -0.2606 0.9654
vn 0.4098 -0.2923 0.8641
vn 0.5639 -0.2319 0.7926
vn 0.2045 -0.4360 0.8764
vn -0.3614 -0.0201 0.9322
vn -0.3513 -0.0544 0.9347
vn -0.3471 -0.0134 0.9377
vn -0.1388 -0.3734 0.9172
vn -0.3380 0.2517 0.9069
vn -0.3645 0.0615 0.9292
vn -0.2863 -0.2776 0.9171
vn -0.3901 -0.1567 0.9073
vn -0.3645 0.2928 0.8840
vn 0.3160 0.5038 0.8039
vn 0.4668 -0.4128 0.7821
vn 0.3043 -0.4586 0.8349
vn -0.2110 -0.4468 0.8694
vn 0.5573 0.2217 0.8002
vn 0.7229 0.1869 0.6652
vn 0.4986 -0.3006 0.8130
vn 0.5818 0.2928 0.7588
vn 0.5338 0.3236 0.7812
vn 0.7252 -0.2725 0.6324
vn 0.7129 -0.1312 0.6889
vn 0.6884 -0.0911 0.7196
vn 0.7360 -0.0302 0.6763
vn 0.6342 -0.2141 0.7429
vn 0.6939 0.0792 0.7157
vn -0.1012 0.5319 0.8407
vn -0.4528 0.4535 0.7677
vn 0.5917 -0.3565 0.7231
vn -0.5469 0.0937 0.8319
vn -0.5265 0.0538 0.8485
vn -0.5118 0.1794 0.8402
vn 0.6940 0.4240 0.5819
vn 0.0354 0.7059 0.7074
vn 0.7040 0.3426 0.6221
vn 0.7778 0.0407 0.6271
vn 0.8349 0.0064 0.5504
vn 0.7526 0.1556 0.6399
vn 0.8256 -0.2038 0.5261
vn 0.6759 -0.3551 0.6458
vn 0.7913 0.2670 0.5500
vn 0.7006 0.4868 0.5217
vn 0.7887 0.3144 0.5282
vn 0.8453 0.1030 0.5242
vn 0.7823 0.1626 0.6013
vn 0.6476 -0.5626 0.5139
vn 0.6873 -0.4734 0.5509
vn 0.7331 -0.4551 0.5053
vn 0.1362 -0.6350 0.7604
vn 0.5691 0.6568 0.4948
vn 0.4661 -0.7395 0.4856
vn 0.4159 0.7777 0.4715
vn -0.5667 0.1496 0.8103
vn -0.6543 0.0224 0.7559
vn -0.5440 0.3017 0.7830
vn -0.7071 0.2467 0.6626
vn -0.7152 -0.0720 0.6952
vn -0.5341 0.6402 0.5522
vn -0.7076 0.4063 0.5782
vn -0.2806 0.8783 0.3872
vn -0.4333 -0.0593 0.8993
vn -0.5279 0.7930 0.3041
vn 0.0390 0.9843 -0.1720
vn 0.0836 -0.9916 0.0986
vn -0.2293 -0.8270 0.5133
vn -0.4371 -0.8911 -0.1221
vn -0.6365 -0.7516 0.1731
vn -0.5313 -0.6559 0.5362
vn 0.2839 -0.8407 0.4610
vn -0.3799 -0.5283 0.7593
vn -0.5999 -0.3984 0.6938
vn -0.7856 -0.4573 0.4167
vn -0.5571 -0.1862 0.8093
vn -0.7294 -0.2846 0.6221
vn -0.6791 -0.3457 0.6475
vn -0.5916 -0.0783 0.8024
vn -0.7618 -0.2172 0.6103
vn -0.8124 -0.1646 0.5593
vn -0.9529 0.1118 0.2821
vn -0.9786 0.0672 -0.1946
vn -0.9944 -0.0057 0.1051
vn -0.9902 0.1305 0.0489
vn -0.9789 0.1427 -0.1465
vn -0.9620 0.1913 -0.1948
vn -0.9790 -0.0583 -0.1953
vn -0.9925 -0.0908 0.0814
vn -0.9429 0.3328 0.0115
vn -0.9361 0.2383 0.2588
vn -0.9252 0.2700 -0.2665
vn -0.9086 0.1932 0.3704
vn -0.8872 0.3322 0.3201
vn -0.9194 0.1029 -0.3797
vn -0.9385 -0.1165 -0.3251
vn -0.8867 -0.0052 -0.4624
vn -0.8568 0.3909 -0.3362
vn -0.8803 0.0701 -0.4692
vn -0.8459 0.1823 -0.5012
vn -0.8284 0.2935 -0.4770
vn -0.8415 0.1218 -0.5263
vn -0.9730 -0.1139 -0.2009
vn -0.9851 -0.1704 -0.0250
vn -0.8934 -0.1568 -0.4210
vn -0.9781 -0.1995 -0.0597
vn -0.9121 -0.2419 -0.3310
vn -0.9556 -0.1927 0.2227
vn -0.9710 -0.2391 0.0026
vn -0.9560 -0.2908 -0.0395
vn -0.8988 -0.1457 0.4135
vn -0.8652 -0.0735 0.4961
vn -0.9207 -0.0162 0.3899
vn -0.8469 0.0226 0.5313
vn -0.8736 -0.2026 -0.4425
vn -0.8051 -0.0857 -0.5869
vn -0.8222 -0.0337 -0.5682
vn -0.8726 -0.2767 0.4024
vn -0.8865 -0.3882 0.2519
vn -0.8511 -0.2957 -0.4338
vn -0.8534 -0.4708 -0.2238
vn -0.8212 -0.5706 -0.0053
vn -0.7823 -0.3785 -0.4947
vn -0.7700 -0.1697 -0.6150
vn -0.9024 0.1245 0.4126
vn -0.8101 0.1853 0.5563
vn -0.7429 -0.2578 -0.6178
vn -0.7755 0.0514 -0.6293
vn -0.7404 0.6166 -0.2675
vn -0.7729 0.5568 0.3043
vn -0.6894 -0.0198 -0.7241
vn -0.7177 0.1432 -0.6815
vn -0.7856 -0.4573 0.4167
vn -0.7618 -0.2172 0.6103
vn -0.8124 -0.1646 0.5593
vn -0.7071 0.2467 0.6626
vn -0.7558 0.1079 0.6459
vn -0.7152 -0.0720 0.6952
vn -0.7076 0.4063 0.5782
vn -0.7294 -0.2846 0.6221
vn -0.6791 -0.3457 0.6475
vn -0.5999 -0.3984 0.6938
vn -0.6543 0.0224 0.7559
vn -0.6690 -0.5307 -0.5204
vn -0.5313 -0.6559 0.5362
vn -0.6365 -0.7516 0.1731
vn -0.6046 -0.6905 -0.3972
vn -0.7543 0.4107 -0.5122
vn -0.6393 0.3067 -0.7052
vn -0.6450 -0.3842 -0.6606
vn -0.6589 0.0328 -0.7515
vn -0.5279 0.7930 0.3041
vn -0.5935 -0.1031 -0.7982
vn -0.5432 -0.0399 -0.8386
vn -0.3636 -0.5803 -0.7288
vn -0.5743 -0.1708 -0.8006
vn -0.4371 -0.8911 -0.1221
vn -0.5355 -0.2675 -0.8011
vn -0.5118 0.1794 0.8402
vn -0.5667 0.1496 0.8103
vn -0.5440 0.3017 0.7830
vn -0.5341 0.6402 0.5522
vn -0.5469 0.0937 0.8319
vn -0.5265 0.0538 0.8485
vn -0.4271 0.4640 -0.7761
vn -0.5184 0.5160 -0.6819
vn -0.6047 0.6318 -0.4850
vn -0.3251 0.8535 -0.4073
vn 0.0390 0.9843 -0.1720
vn -0.2806 0.8783 0.3872
vn 0.9838 0.1710 0.0531
vn 0.9638 0.2393 0.1172
vn 0.9735 0.1940 0.1216
vn 0.9512 0.2286 -0.2072
vn 0.9486 0.3163 0.0065
vn 0.9331 0.2927 0.2087
vn 0.9226 0.2460 -0.2971
vn 0.9122 0.2967 -0.2828
vn 0.9077 0.3298 -0.2593
vn 0.8616 0.3991 -0.3136
vn 0.8998 0.4168 0.1288
vn 0.9105 0.1954 -0.3644
vn 0.9721 0.1367 -0.1904
vn 0.9918 0.1096 -0.0655
vn 0.9899 0.1048 0.0956
vn 0.9542 0.0810 -0.2881
vn 0.9941 0.0288 -0.1044
vn 0.9151 0.1335 -0.3806
vn 0.9289 0.0494 -0.3669
vn 0.9231 -0.0019 -0.3846
vn 0.9757 -0.0310 -0.2167
vn 0.9996 -0.0252 -0.0141
vn 0.9988 0.0340 0.0340
vn 0.9707 0.0842 0.2252
vn 0.9794 0.0975 0.1766
vn 0.9581 -0.1021 -0.2677
vn 0.9315 -0.0730 -0.3565
vn 0.8819 0.0931 -0.4621
vn 0.9956 -0.0355 0.0863
vn 0.9943 -0.1002 0.0368
vn 0.9916 -0.1295 0.0027
vn 0.9695 -0.0289 0.2436
vn 0.9862 0.0090 0.1654
vn 0.9596 0.0449 0.2778
vn 0.9517 0.1956 0.2366
vn 0.9204 0.1550 0.3590
vn 0.9202 -0.2385 -0.3102
vn 0.8771 -0.0420 -0.4784
vn 0.9065 -0.1027 -0.4094
vn 0.9874 -0.1554 -0.0310
vn 0.9654 -0.2503 -0.0733
vn 0.9707 -0.1446 0.1918
vn 0.8954 -0.1191 0.4292
vn 0.9352 -0.0470 0.3509
vn 0.9400 -0.0978 0.3268
vn 0.9326 0.1146 0.3421
vn 0.9383 -0.1734 0.2992
vn 0.9580 -0.2441 0.1508
vn 0.9239 0.0038 0.3827
vn 0.9315 0.0237 0.3630
vn 0.8716 0.0483 0.4878
vn 0.9270 -0.3225 -0.1917
vn 0.8383 -0.2066 -0.5045
vn 0.8981 -0.4219 0.1244
vn 0.9151 -0.3132 0.2540
vn 0.8959 0.2157 0.3884
vn 0.9968 0.0650 0.0466
vn 0.8923 -0.1253 0.4338
vn 0.8796 0.3593 0.3117
vn 0.8349 0.0064 0.5504
vn 0.8977 -0.2339 0.3733
vn 0.8256 -0.2038 0.5261
vn 0.8453 0.1030 0.5242
vn 0.8806 -0.1913 0.4335
vn 0.8109 -0.1517 0.5652
vn 0.8664 0.1194 0.4848
vn 0.7823 0.1626 0.6013
vn 0.8497 -0.0460 0.5253
vn 0.8128 -0.0582 0.5796
vn 0.7887 0.3144 0.5282
vn 0.7913 0.2670 0.5500
vn 0.8382 0.2150 0.5012
vn 0.7229 0.1869 0.6652
vn 0.8326 -0.3365 0.4400
vn 0.8439 -0.3866 0.3721
vn 0.8139 -0.2702 0.5143
vn 0.7778 0.0407 0.6271
vn 0.8146 -0.4733 -0.3353
vn 0.8019 -0.5753 -0.1612
vn 0.8005 0.5939 0.0804
vn 0.8276 0.5072 -0.2405
vn 0.8074 0.0780 -0.5848
vn 0.6884 -0.0911 0.7196
vn 0.6939 0.0792 0.7157
vn 0.7437 0.4828 0.4625
vn 0.6940 0.4240 0.5819
vn 0.7360 -0.0302 0.6763
vn 0.7129 -0.1312 0.6889
vn 0.7527 -0.6340 0.1774
vn 0.7331 -0.4551 0.5053
vn 0.8141 0.2498 -0.5243
vn 0.8133 0.0248 -0.5813
vn 0.8264 -0.0247 -0.5625
vn 0.8025 0.0448 -0.5949
vn 0.8190 -0.1101 -0.5631
vn 0.7697 -0.3333 -0.5446
vn 0.7840 0.2723 -0.5578
vn 0.7832 0.3386 -0.5214
vn 0.7710 0.1412 -0.6209
vn 0.7854 0.1775 -0.5930
vn 0.7631 0.1069 -0.6373
vn 0.6802 0.2004 -0.7051
vn 0.7252 -0.2725 0.6324
vn 0.6476 -0.5626 0.5139
vn 0.6759 -0.3551 0.6458
vn 0.6755 -0.0515 -0.7355
vn 0.7629 0.5287 -0.3721
vn 0.7210 0.3870 -0.5748
vn 0.7076 -0.1233 -0.6957
vn 0.6583 -0.2480 -0.7107
vn 0.6544 -0.1923 -0.7313
vn 0.7006 0.4868 0.5217
vn 0.5930 -0.7964 -0.1185
vn 0.5977 -0.4124 -0.6875
vn 0.6687 -0.4774 -0.5700
vn 0.6587 -0.3702 -0.6551
vn 0.5689 -0.6671 -0.4809
vn 0.6873 -0.4734 0.5509
vn 0.6170 0.4410 -0.6518
vn 0.4759 0.8485 -0.2316
vn 0.5691 0.6568 0.4948
vn 0.5334 -0.5322 -0.6574
vn 0.5701 0.5799 -0.5820
vn 0.5932 0.7895 0.1576
vn 0.4661 -0.7395 0.4856
vn 0.4159 0.7777 0.4715
vn 0.2839 -0.8407 0.4610
vn 0.2561 -0.9170 -0.3058
vn 0.0836 -0.9916 0.0986
vn 0.3806 -0.2065 -0.9014
vn 0.2138 -0.2498 -0.9444
vn -0.0512 -0.2499 -0.9669
vn 0.0747 -0.3195 -0.9446
vn -0.0236 -0.2833 -0.9587
vn -0.1938 -0.3645 -0.9108
vn 0.0844 -0.4074 -0.9093
vn 0.2896 -0.3581 -0.8876
vn 0.4123 -0.2652 -0.8716
vn 0.2122 -0.2054 -0.9554
vn 0.0423 -0.1508 -0.9877
vn 0.3448 -0.1460 -0.9273
vn -0.0994 -0.1460 -0.9843
vn 0.4961 -0.3536 -0.7930
vn 0.5977 -0.4124 -0.6875
vn 0.4435 -0.4468 -0.7769
vn 0.1902 -0.5694 -0.7997
vn 0.5263 -0.2597 -0.8096
vn 0.6544 -0.1923 -0.7313
vn 0.6009 -0.1438 -0.7863
vn 0.5418 -0.1024 -0.8343
vn 0.4383 -0.0983 -0.8934
vn 0.1514 -0.0816 -0.9851
vn 0.4455 -0.0703 -0.8925
vn 0.1896 -0.0347 -0.9812
vn 0.5317 -0.0441 -0.8458
vn 0.2810 -0.0153 -0.9596
vn 0.0993 -0.0177 -0.9949
vn 0.3227 0.0083 -0.9465
vn -0.0316 -0.0174 -0.9994
vn -0.1239 -0.0804 -0.9890
vn -0.1119 -0.0390 -0.9930
vn -0.0968 -0.0141 -0.9952
vn 0.0068 0.0572 -0.9983
vn 0.3774 0.0561 -0.9244
vn 0.1858 0.1371 -0.9730
vn 0.1096 0.1286 -0.9856
vn -0.1777 0.0367 -0.9834
vn -0.3182 -0.0544 -0.9465
vn 0.4899 0.0990 -0.8661
vn 0.4768 0.1061 -0.8726
vn 0.4019 0.1522 -0.9029
vn 0.5482 0.0374 -0.8355
vn -0.1529 0.1492 -0.9769
vn -0.0199 0.2462 -0.9690
vn 0.3552 0.2097 -0.9110
vn -0.2063 0.0164 -0.9784
vn 0.2415 0.3075 -0.9204
vn 0.5284 0.2021 -0.8246
vn 0.6609 0.1144 -0.7417
vn 0.5706 0.1551 -0.8064
vn 0.6755 -0.0515 -0.7355
vn 0.5522 0.2705 -0.7886
vn 0.5682 0.2321 -0.7894
vn 0.6802 0.2004 -0.7051
vn 0.6857 0.0071 -0.7279
vn 0.6583 -0.2480 -0.7107
vn 0.4185 0.3687 -0.8300
vn 0.7854 0.1775 -0.5930
vn -0.0074 0.3859 -0.9225
vn 0.7076 -0.1233 -0.6957
vn 0.2932 0.5076 -0.8102
vn -0.4497 0.0723 -0.8902
vn -0.3742 -0.2083 -0.9037
vn -0.3524 -0.1464 -0.9243
vn -0.3604 -0.0808 -0.9293
vn -0.2827 0.2690 -0.9207
vn -0.3663 0.1676 -0.9153
vn 0.5030 0.3962 -0.7682
vn 0.6585 0.3293 -0.6767
vn 0.8074 0.0780 -0.5848
vn 0.7631 0.1069 -0.6373
vn 0.7710 0.1412 -0.6209
vn 0.8025 0.0448 -0.5949
vn 0.8190 -0.1101 -0.5631
vn 0.6587 -0.3702 -0.6551
vn 0.7697 -0.3333 -0.5446
vn 0.8264 -0.0247 -0.5625
vn -0.1901 0.5694 -0.7998
vn 0.5334 -0.5322 -0.6574
vn 0.8133 0.0248 -0.5813
vn -0.4506 0.0289 -0.8923
vn -0.5432 -0.0399 -0.8386
vn -0.5355 -0.2675 -0.8011
vn -0.3338 -0.4122 -0.8477
vn -0.3636 -0.5803 -0.7288
vn -0.5620 0.1641 -0.8107
vn -0.4271 0.4640 -0.7761
vn -0.4821 0.2631 -0.8357
vn -0.0347 0.7061 -0.7072
vn 0.6170 0.4410 -0.6518
vn 0.4373 0.4927 -0.7523
vn -0.5935 -0.1031 -0.7982
vn -0.5743 -0.1708 -0.8006
vn 0.2298 0.7531 -0.6165
vn 0.7210 0.3870 -0.5748
vn 0.8141 0.2498 -0.5243
vn 0.7840 0.2723 -0.5578
vn 0.7832 0.3386 -0.5214
vn 0.5701 0.5799 -0.5820
vn 0.0143 -0.7743 -0.6327
vn 0.6687 -0.4774 -0.5700
vn 0.5689 -0.6671 -0.4809
vn -0.6393 0.3067 -0.7052
vn -0.6894 -0.0198 -0.7241
vn -0.6589 0.0328 -0.7515
vn -0.6450 -0.3842 -0.6606
vn -0.7755 0.0514 -0.6293
vn -0.5184 0.5160 -0.6819
vn -0.7177 0.1432 -0.6815
vn -0.6690 -0.5307 -0.5204
vn -0.6047 0.6318 -0.4850
vn -0.3251 0.8535 -0.4073
vn -0.7543 0.4107 -0.5122
vn 0.2561 -0.9170 -0.3058
vn -0.6046 -0.6905 -0.3972
vn 0.4759 0.8485 -0.2316
vn 0.0390 0.9843 -0.1720
vn -0.9194 0.1029 -0.3797
vn -0.4371 -0.8911 -0.1221
vn -0.8415 0.1218 -0.5263
vn -0.6690 -0.5307 -0.5204
vn -0.3636 -0.5803 -0.7288
vn -0.8534 -0.4708 -0.2238
vn 0.9383 -0.1734 0.2992
vn 0.8256 -0.2038 0.5261
vn 0.8806 -0.1913 0.4335
vn 0.4759 0.8485 -0.2316
vn 0.0390 0.9843 -0.1720
vn 0.4159 0.7777 0.4715
vn 0.5932 0.7895 0.1576
vn 0.0836 -0.9916 0.0986
vn -0.4371 -0.8911 -0.1221
vn 0.2561 -0.9170 -0.3058
f 111/111/111 115/115/115 116/116/116
f 110/110/110 124/124/124 115/115/115
f 110/110/110 115/115/115 111/111/111
f 109/109/109 110/110/110 111/111/111
f 112/112/112 110/110/110 109/109/109
f 116/116/116 130/130/130 131/131/131
f 123/123/123 130/130/130 116/116/116
f 115/115/115 123/123/123 116/116/116
f 139/139/139 111/111/111 116/116/116
f 140/140/140 111/111/111 139/139/139
f 141/141/141 111/111/111 140/140/140
f 109/109/109 111/111/111 141/141/141
f 113/113/113 110/110/110 112/112/112
f 122/122/122 110/110/110 113/113/113
f 131/131/131 133/133/133 135/135/135
f 130/130/130 123/123/123 131/131/131
f 131/131/131 123/123/123 132/132/132
f 131/131/131 135/135/135 116/116/116
f 116/116/116 135/135/135 138/138/138
f 138/138/138 139/139/139 116/116/116
f 115/115/115 143/143/143 123/123/123
f 115/115/115 144/144/144 143/143/143
f 124/124/124 144/144/144 115/115/115
f 110/110/110 126/126/126 124/124/124
f 122/122/122 126/126/126 110/110/110
f 114/114/114 122/122/122 113/113/113
f 112/112/112 114/114/114 113/113/113
f 118/118/118 112/112/112 109/109/109
f 131/131/131 132/132/132 133/133/133
f 124/124/124 155/155/155 158/158/158
f 126/126/126 155/155/155 124/124/124
f 152/152/152 109/109/109 141/141/141
f 122/122/122 127/127/127 129/129/129
f 114/114/114 127/127/127 122/122/122
f 153/153/153 109/109/109 152/152/152
f 120/120/120 118/118/118 109/109/109
f 109/109/109 153/153/153 120/120/120
f 117/117/117 114/114/114 112/112/112
f 118/118/118 117/117/117 112/112/112
f 136/136/136 137/137/137 135/135/135
f 133/133/133 137/137/137 136/136/136
f 133/133/133 136/136/136 135/135/135
f 132/132/132 134/134/134 133/133/133
f 132/132/132 142/142/142 134/134/134
f 123/123/123 151/151/151 132/132/132
f 143/143/143 151/151/151 123/123/123
f 165/165/165 139/139/139 138/138/138
f 141/141/141 140/140/140 139/139/139
f 122/122/122 155/155/155 126/126/126
f 445/445/445 436/436/436 434/434/434
f 447/447/447 436/436/436 445/445/445
f 141/141/141 164/164/164 152/152/152
f 114/114/114 119/119/119 127/127/127
f 117/117/117 119/119/119 114/114/114
f 134/134/134 137/137/137 133/133/133
f 137/137/137 145/145/145 135/135/135
f 145/145/145 138/138/138 135/135/135
f 145/145/145 161/161/161 138/138/138
f 132/132/132 151/151/151 142/142/142
f 162/162/162 138/138/138 161/161/161
f 138/138/138 162/162/162 165/165/165
f 141/141/141 139/139/139 165/165/165
f 144/144/144 158/158/158 143/143/143
f 124/124/124 158/158/158 144/144/144
f 170/170/170 164/164/164 141/141/141
f 127/127/127 159/159/159 129/129/129
f 164/164/164 153/153/153 152/152/152
f 153/153/153 118/118/118 120/120/120
f 134/134/134 147/147/147 137/137/137
f 145/145/145 137/137/137 146/146/146
f 151/151/151 147/147/147 142/142/142
f 142/142/142 147/147/147 134/134/134
f 108/108/108 107/107/107 87/87/87
f 170/170/170 141/141/141 165/165/165
f 153/153/153 163/163/163 118/118/118
f 118/118/118 163/163/163 121/121/121
f 117/117/117 118/118/118 121/121/121
f 137/137/137 148/148/148 146/146/146
f 147/147/147 148/148/148 137/137/137
f 167/167/167 145/145/145 146/146/146
f 145/145/145 167/167/167 161/161/161
f 151/151/151 154/154/154 147/147/147
f 181/181/181 143/143/143 158/158/158
f 155/155/155 178/178/178 158/158/158
f 170/170/170 191/191/191 164/164/164
f 434/434/434 436/436/436 389/389/389
f 119/119/119 128/128/128 127/127/127
f 147/147/147 150/150/150 148/148/148
f 154/154/154 150/150/150 147/147/147
f 151/151/151 183/183/183 154/154/154
f 151/151/151 180/180/180 183/183/183
f 103/103/103 87/87/87 107/107/107
f 143/143/143 180/180/180 151/151/151
f 106/106/106 87/87/87 103/103/103
f 181/181/181 180/180/180 143/143/143
f 432/432/432 434/434/434 408/408/408
f 164/164/164 191/191/191 190/190/190
f 153/153/153 164/164/164 186/186/186
f 127/127/127 176/176/176 159/159/159
f 436/436/436 430/430/430 413/413/413
f 127/127/127 128/128/128 176/176/176
f 125/125/125 176/176/176 128/128/128
f 119/119/119 125/125/125 128/128/128
f 117/117/117 125/125/125 119/119/119
f 148/148/148 149/149/149 146/146/146
f 169/169/169 146/146/146 160/160/160
f 168/168/168 146/146/146 169/169/169
f 146/146/146 168/168/168 167/167/167
f 154/154/154 183/183/183 185/185/185
f 103/103/103 107/107/107 104/104/104
f 34/34/34 84/84/84 87/87/87
f 409/409/409 431/431/431 408/408/408
f 432/432/432 408/408/408 431/431/431
f 61/61/61 84/84/84 35/35/35
f 434/434/434 389/389/389 408/408/408
f 190/190/190 187/187/187 164/164/164
f 186/186/186 164/164/164 187/187/187
f 153/153/153 186/186/186 163/163/163
f 166/166/166 121/121/121 163/163/163
f 157/157/157 121/121/121 166/166/166
f 156/156/156 125/125/125 117/117/117
f 157/157/157 117/117/117 121/121/121
f 146/146/146 149/149/149 160/160/160
f 150/150/150 171/171/171 148/148/148
f 154/154/154 177/177/177 150/150/150
f 106/106/106 91/91/91 87/87/87
f 33/33/33 84/84/84 34/34/34
f 125/125/125 175/175/175 176/176/176
f 156/156/156 117/117/117 157/157/157
f 148/148/148 174/174/174 149/149/149
f 185/185/185 177/177/177 154/154/154
f 101/101/101 104/104/104 105/105/105
f 420/420/420 390/390/390 410/410/410
f 40/40/40 106/106/106 103/103/103
f 419/419/419 409/409/409 392/392/392
f 91/91/91 34/34/34 87/87/87
f 413/413/413 389/389/389 436/436/436
f 62/62/62 83/83/83 60/60/60
f 414/414/414 430/430/430 440/440/440
f 156/156/156 175/175/175 125/125/125
f 171/171/171 150/150/150 177/177/177
f 411/411/411 433/433/433 410/410/410
f 103/103/103 104/104/104 101/101/101
f 419/419/419 391/391/391 420/420/420
f 392/392/392 391/391/391 419/419/419
f 91/91/91 106/106/106 40/40/40
f 365/365/365 392/392/392 409/409/409
f 33/33/33 35/35/35 84/84/84
f 35/35/35 60/60/60 61/61/61
f 37/37/37 41/41/41 86/86/86
f 430/430/430 415/415/415 413/413/413
f 41/41/41 85/85/85 86/86/86
f 188/188/188 166/166/166 163/163/163
f 156/156/156 192/192/192 175/175/175
f 149/149/149 173/173/173 172/172/172
f 149/149/149 172/172/172 160/160/160
f 182/182/182 174/174/174 148/148/148
f 98/98/98 101/101/101 102/102/102
f 448/448/448 449/449/449 450/450/450
f 39/39/39 103/103/103 101/101/101
f 40/40/40 103/103/103 39/39/39
f 391/391/391 390/390/390 420/420/420
f 408/408/408 359/359/359 409/409/409
f 38/38/38 60/60/60 35/35/35
f 413/413/413 370/370/370 389/389/389
f 394/394/394 370/370/370 413/413/413
f 62/62/62 60/60/60 26/26/26
f 413/413/413 415/415/415 394/394/394
f 62/62/62 37/37/37 86/86/86
f 58/58/58 89/89/89 85/85/85
f 156/156/156 193/193/193 192/192/192
f 194/194/194 193/193/193 156/156/156
f 179/179/179 157/157/157 189/189/189
f 433/433/433 412/412/412 437/437/437
f 412/412/412 433/433/433 411/411/411
f 332/332/332 411/411/411 410/410/410
f 34/34/34 91/91/91 40/40/40
f 408/408/408 389/389/389 364/364/364
f 27/27/27 60/60/60 38/38/38
f 27/27/27 26/26/26 60/60/60
f 393/393/393 394/394/394 415/415/415
f 189/189/189 157/157/157 166/166/166
f 88/88/88 89/89/89 58/58/58
f 156/156/156 157/157/157 179/179/179
f 174/174/174 184/184/184 173/173/173
f 174/174/174 173/173/173 149/149/149
f 100/100/100 101/101/101 98/98/98
f 45/45/45 101/101/101 100/100/100
f 365/365/365 357/357/357 392/392/392
f 409/409/409 359/359/359 365/365/365
f 408/408/408 373/373/373 359/359/359
f 408/408/408 364/364/364 373/373/373
f 37/37/37 62/62/62 26/26/26
f 414/414/414 415/415/415 430/430/430
f 41/41/41 58/58/58 85/85/85
f 92/92/92 88/88/88 90/90/90
f 195/195/195 194/194/194 156/156/156
f 101/101/101 45/45/45 36/36/36
f 36/36/36 39/39/39 101/101/101
f 390/390/390 329/329/329 410/410/410
f 392/392/392 357/357/357 391/391/391
f 3/3/3 35/35/35 33/33/33
f 27/27/27 38/38/38 35/35/35
f 389/389/389 370/370/370 360/360/360
f 438/438/438 405/405/405 435/435/435
f 156/156/156 179/179/179 195/195/195
f 95/95/95 97/97/97 96/96/96
f 95/95/95 98/98/98 97/97/97
f 331/331/331 332/332/332 410/410/410
f 329/329/329 331/331/331 410/410/410
f 391/391/391 339/339/339 390/390/390
f 40/40/40 39/39/39 28/28/28
f 28/28/28 34/34/34 40/40/40
f 7/7/7 33/33/33 34/34/34
f 389/389/389 360/360/360 364/364/364
f 393/393/393 371/371/371 394/394/394
f 393/393/393 415/415/415 386/386/386
f 386/386/386 415/415/415 414/414/414
f 414/414/414 435/435/435 405/405/405
f 438/438/438 439/439/439 405/405/405
f 64/64/64 90/90/90 88/88/88
f 332/332/332 333/333/333 411/411/411
f 357/357/357 339/339/339 391/391/391
f 1/1/1 33/33/33 7/7/7
f 356/356/356 358/358/358 365/365/365
f 1/1/1 3/3/3 33/33/33
f 359/359/359 356/356/356 365/365/365
f 373/373/373 364/364/364 359/359/359
f 370/370/370 394/394/394 371/371/371
f 41/41/41 25/25/25 58/58/58
f 57/57/57 88/88/88 58/58/58
f 64/64/64 88/88/88 57/57/57
f 94/94/94 95/95/95 96/96/96
f 446/446/446 442/442/442 427/427/427
f 412/412/412 427/427/427 442/442/442
f 98/98/98 95/95/95 100/100/100
f 95/95/95 79/79/79 100/100/100
f 332/332/332 330/330/330 333/333/333
f 29/29/29 28/28/28 39/39/39
f 339/339/339 329/329/329 390/390/390
f 7/7/7 34/34/34 28/28/28
f 358/358/358 357/357/357 365/365/365
f 26/26/26 21/21/21 37/37/37
f 41/41/41 37/37/37 21/21/21
f 25/25/25 57/57/57 58/58/58
f 439/439/439 416/416/416 405/405/405
f 196/196/196 195/195/195 179/179/179
f 197/197/197 196/196/196 179/179/179
f 45/45/45 100/100/100 79/79/79
f 411/411/411 343/343/343 412/412/412
f 39/39/39 36/36/36 29/29/29
f 356/356/356 357/357/357 358/358/358
f 3/3/3 27/27/27 35/35/35
f 9/9/9 27/27/27 3/3/3
f 8/8/8 27/27/27 9/9/9
f 370/370/370 363/363/363 360/360/360
f 26/26/26 27/27/27 8/8/8
f 386/386/386 371/371/371 393/393/393
f 21/21/21 25/25/25 41/41/41
f 25/25/25 21/21/21 23/23/23
f 386/386/386 414/414/414 405/405/405
f 444/444/444 421/421/421 439/439/439
f 458/458/458 459/459/459 460/460/460
f 427/427/427 441/441/441 446/446/446
f 94/94/94 99/99/99 95/95/95
f 412/412/412 343/343/343 427/427/427
f 411/411/411 333/333/333 343/343/343
f 32/32/32 36/36/36 45/45/45
f 339/339/339 337/337/337 329/329/329
f 357/357/357 351/351/351 349/349/349
f 356/356/356 351/351/351 357/357/357
f 364/364/364 360/360/360 359/359/359
f 374/374/374 371/371/371 386/386/386
f 421/421/421 416/416/416 439/439/439
f 79/79/79 95/95/95 99/99/99
f 45/45/45 79/79/79 32/32/32
f 32/32/32 29/29/29 36/36/36
f 332/332/332 331/331/331 330/330/330
f 329/329/329 337/337/337 336/336/336
f 17/17/17 28/28/28 29/29/29
f 28/28/28 6/6/6 7/7/7
f 357/357/357 349/349/349 339/339/339
f 356/356/356 354/354/354 351/351/351
f 370/370/370 371/371/371 362/362/362
f 11/11/11 21/21/21 26/26/26
f 42/42/42 64/64/64 57/57/57
f 416/416/416 388/388/388 405/405/405
f 82/82/82 93/93/93 90/90/90
f 338/338/338 337/337/337 339/339/339
f 349/349/349 338/338/338 339/339/339
f 11/11/11 26/26/26 8/8/8
f 371/371/371 372/372/372 362/362/362
f 25/25/25 42/42/42 57/57/57
f 405/405/405 388/388/388 386/386/386
f 421/421/421 444/444/444 443/443/443
f 90/90/90 64/64/64 82/82/82
f 325/325/325 310/310/310 326/326/326
f 326/326/326 310/310/310 324/324/324
f 81/81/81 79/79/79 99/99/99
f 343/343/343 429/429/429 427/427/427
f 333/333/333 330/330/330 334/334/334
f 331/331/331 329/329/329 330/330/330
f 6/6/6 28/28/28 17/17/17
f 359/359/359 354/354/354 356/356/356
f 360/360/360 355/355/355 359/359/359
f 4/4/4 5/5/5 3/3/3
f 8/8/8 9/9/9 3/3/3
f 370/370/370 362/362/362 363/363/363
f 416/416/416 421/421/421 388/388/388
f 454/454/454 455/455/455 456/456/456
f 441/441/441 427/427/427 429/429/429
f 79/79/79 44/44/44 32/32/32
f 330/330/330 335/335/335 334/334/334
f 30/30/30 29/29/29 32/32/32
f 329/329/329 328/328/328 330/330/330
f 30/30/30 17/17/17 29/29/29
f 327/327/327 328/328/328 329/329/329
f 336/336/336 327/327/327 329/329/329
f 338/338/338 336/336/336 337/337/337
f 6/6/6 1/1/1 7/7/7
f 1/1/1 2/2/2 3/3/3
f 8/8/8 3/3/3 5/5/5
f 10/10/10 11/11/11 8/8/8
f 371/371/371 374/374/374 372/372/372
f 22/22/22 23/23/23 21/21/21
f 374/374/374 386/386/386 384/384/384
f 388/388/388 384/384/384 386/386/386
f 426/426/426 388/388/388 421/421/421
f 82/82/82 64/64/64 42/42/42
f 457/457/457 454/454/454 456/456/456
f 325/325/325 314/314/314 310/310/310
f 310/310/310 322/322/322 324/324/324
f 343/343/343 406/406/406 429/429/429
f 81/81/81 76/76/76 79/79/79
f 343/343/343 342/342/342 406/406/406
f 342/342/342 343/343/343 333/333/333
f 334/334/334 340/340/340 333/333/333
f 327/327/327 330/330/330 328/328/328
f 353/353/353 351/351/351 354/354/354
f 359/359/359 353/353/353 354/354/354
f 359/359/359 355/355/355 353/353/353
f 2/2/2 4/4/4 3/3/3
f 362/362/362 361/361/361 360/360/360
f 363/363/363 362/362/362 360/360/360
f 21/21/21 11/11/11 14/14/14
f 22/22/22 21/21/21 14/14/14
f 23/23/23 42/42/42 25/25/25
f 384/384/384 388/388/388 395/395/395
f 82/82/82 42/42/42 80/80/80
f 443/443/443 426/426/426 421/421/421
f 310/310/310 286/286/286 322/322/322
f 286/286/286 301/301/301 322/322/322
f 79/79/79 76/76/76 44/44/44
f 333/333/333 341/341/341 342/342/342
f 333/333/333 340/340/340 341/341/341
f 30/30/30 32/32/32 43/43/43
f 327/327/327 335/335/335 330/330/330
f 349/349/349 348/348/348 338/338/338
f 6/6/6 17/17/17 16/16/16
f 351/351/351 350/350/350 349/349/349
f 2/2/2 1/1/1 6/6/6
f 361/361/361 355/355/355 360/360/360
f 10/10/10 8/8/8 5/5/5
f 10/10/10 5/5/5 4/4/4
f 10/10/10 14/14/14 11/11/11
f 362/362/362 375/375/375 368/368/368
f 372/372/372 375/375/375 362/362/362
f 22/22/22 24/24/24 23/23/23
f 76/76/76 43/43/43 44/44/44
f 43/43/43 32/32/32 44/44/44
f 335/335/335 340/340/340 334/334/334
f 30/30/30 43/43/43 48/48/48
f 31/31/31 17/17/17 30/30/30
f 338/338/338 348/348/348 347/347/347
f 12/12/12 2/2/2 6/6/6
f 362/362/362 366/366/366 361/361/361
f 395/395/395 388/388/388 417/417/417
f 63/63/63 42/42/42 23/23/23
f 418/418/418 417/417/417 388/388/388
f 426/426/426 418/418/418 388/388/388
f 72/72/72 80/80/80 42/42/42
f 276/276/276 310/310/310 314/314/314
f 276/276/276 286/286/286 310/310/310
f 275/275/275 276/276/276 314/314/314
f 342/342/342 341/341/341 406/406/406
f 344/344/344 340/340/340 335/335/335
f 349/349/349 350/350/350 348/348/348
f 16/16/16 12/12/12 6/6/6
f 351/351/351 353/353/353 352/352/352
f 361/361/361 369/369/369 355/355/355
f 13/13/13 10/10/10 4/4/4
f 366/366/366 362/362/362 367/367/367
f 46/46/46 22/22/22 14/14/14
f 374/374/374 379/379/379 372/372/372
f 49/49/49 23/23/23 24/24/24
f 374/374/374 384/384/384 379/379/379
f 42/42/42 63/63/63 72/72/72
f 426/426/426 417/417/417 418/418/418
f 317/317/317 304/304/304 320/320/320
f 318/318/318 277/277/277 321/321/321
f 318/318/318 321/321/321 323/323/323
f 317/317/317 278/278/278 304/304/304
f 317/317/317 321/321/321 277/277/277
f 319/319/319 275/275/275 314/314/314
f 341/341/341 428/428/428 406/406/406
f 76/76/76 77/77/77 43/43/43
f 78/78/78 43/43/43 77/77/77
f 402/402/402 341/341/341 340/340/340
f 48/48/48 43/43/43 59/59/59
f 338/338/338 327/327/327 336/336/336
f 352/352/352 350/350/350 351/351/351
f 12/12/12 4/4/4 2/2/2
f 355/355/355 352/352/352 353/353/353
f 13/13/13 4/4/4 15/15/15
f 368/368/368 367/367/367 362/362/362
f 24/24/24 22/22/22 46/46/46
f 379/379/379 380/380/380 372/372/372
f 49/49/49 50/50/50 23/23/23
f 50/50/50 63/63/63 23/23/23
f 282/282/282 309/309/309 283/283/283
f 278/278/278 317/317/317 277/277/277
f 301/301/301 287/287/287 315/315/315
f 275/275/275 319/319/319 312/312/312
f 275/275/275 312/312/312 311/311/311
f 70/70/70 43/43/43 78/78/78
f 311/311/311 313/313/313 293/293/293
f 43/43/43 70/70/70 59/59/59
f 383/383/383 340/340/340 344/344/344
f 335/335/335 327/327/327 345/345/345
f 31/31/31 16/16/16 17/17/17
f 347/347/347 346/346/346 338/338/338
f 366/366/366 367/367/367 368/368/368
f 18/18/18 14/14/14 10/10/10
f 375/375/375 377/377/377 368/368/368
f 375/375/375 372/372/372 381/381/381
f 46/46/46 49/49/49 24/24/24
f 384/384/384 396/396/396 379/379/379
f 50/50/50 49/49/49 63/63/63
f 395/395/395 396/396/396 384/384/384
f 422/422/422 396/396/396 395/395/395
f 417/417/417 422/422/422 395/395/395
f 316/316/316 320/320/320 304/304/304
f 277/277/277 318/318/318 309/309/309
f 287/287/287 301/301/301 286/286/286
f 251/251/251 287/287/287 286/286/286
f 275/275/275 311/311/311 293/293/293
f 340/340/340 403/403/403 402/402/402
f 70/70/70 48/48/48 59/59/59
f 383/383/383 403/403/403 340/340/340
f 48/48/48 70/70/70 51/51/51
f 383/383/383 344/344/344 335/335/335
f 338/338/338 345/345/345 327/327/327
f 16/16/16 31/31/31 55/55/55
f 338/338/338 346/346/346 345/345/345
f 52/52/52 12/12/12 16/16/16
f 352/352/352 378/378/378 350/350/350
f 15/15/15 4/4/4 12/12/12
f 355/355/355 369/369/369 352/352/352
f 19/19/19 10/10/10 13/13/13
f 376/376/376 361/361/361 366/366/366
f 20/20/20 10/10/10 19/19/19
f 18/18/18 10/10/10 20/20/20
f 376/376/376 366/366/366 368/368/368
f 14/14/14 18/18/18 20/20/20
f 380/380/380 381/381/381 372/372/372
f 425/425/425 379/379/379 396/396/396
f 65/65/65 63/63/63 49/49/49
f 316/316/316 304/304/304 305/305/305
f 282/282/282 277/277/277 309/309/309
f 276/276/276 251/251/251 286/286/286
f 251/251/251 272/272/272 287/287/287
f 51/51/51 30/30/30 48/48/48
f 31/31/31 30/30/30 51/51/51
f 345/345/345 383/383/383 335/335/335
f 350/350/350 347/347/347 348/348/348
f 52/52/52 53/53/53 12/12/12
f 382/382/382 352/352/352 369/369/369
f 361/361/361 376/376/376 369/369/369
f 377/377/377 376/376/376 368/368/368
f 47/47/47 14/14/14 20/20/20
f 47/47/47 46/46/46 14/14/14
f 380/380/380 379/379/379 381/381/381
f 71/71/71 49/49/49 46/46/46
f 425/425/425 424/424/424 379/379/379
f 73/73/73 49/49/49 71/71/71
f 73/73/73 65/65/65 49/49/49
f 422/422/422 425/425/425 396/396/396
f 63/63/63 65/65/65 73/73/73
f 304/304/304 295/295/295 305/305/305
f 283/283/283 208/208/208 282/282/282
f 207/207/207 278/278/278 277/277/277
f 208/208/208 277/277/277 282/282/282
f 276/276/276 275/275/275 251/251/251
f 249/249/249 275/275/275 293/293/293
f 272/272/272 302/302/302 287/287/287
f 272/272/272 271/271/271 302/302/302
f 271/271/271 300/300/300 302/302/302
f 347/347/347 387/387/387 346/346/346
f 378/378/378 347/347/347 350/350/350
f 19/19/19 13/13/13 15/15/15
f 56/56/56 20/20/20 19/19/19
f 375/375/375 376/376/376 377/377/377
f 47/47/47 20/20/20 68/68/68
f 423/423/423 379/379/379 424/424/424
f 47/47/47 71/71/71 46/46/46
f 256/256/256 283/283/283 267/267/267
f 278/278/278 295/295/295 304/304/304
f 256/256/256 208/208/208 283/283/283
f 207/207/207 277/277/277 208/208/208
f 275/275/275 249/249/249 251/251/251
f 251/251/251 271/271/271 272/272/272
f 250/250/250 234/234/234 293/293/293
f 273/273/273 300/300/300 271/271/271
f 250/250/250 293/293/293 307/307/307
f 51/51/51 69/69/69 31/31/31
f 250/250/250 307/307/307 308/308/308
f 55/55/55 31/31/31 69/69/69
f 55/55/55 69/69/69 16/16/16
f 52/52/52 16/16/16 69/69/69
f 346/346/346 387/387/387 345/345/345
f 15/15/15 12/12/12 54/54/54
f 382/382/382 378/378/378 352/352/352
f 19/19/19 15/15/15 54/54/54
f 376/376/376 397/397/397 369/369/369
f 68/68/68 20/20/20 75/75/75
f 375/375/375 385/385/385 376/376/376
f 381/381/381 385/385/385 375/375/375
f 379/379/379 423/423/423 381/381/381
f 207/207/207 294/294/294 295/295/295
f 278/278/278 207/207/207 295/295/295
f 206/206/206 207/207/207 202/202/202
f 208/208/208 256/256/256 203/203/203
f 202/202/202 207/207/207 208/208/208
f 252/252/252 271/271/271 251/251/251
f 234/234/234 249/249/249 293/293/293
f 259/259/259 300/300/300 273/273/273
f 306/306/306 250/250/250 308/308/308
f 292/292/292 250/250/250 306/306/306
f 280/280/280 285/285/285 262/262/262
f 347/347/347 401/401/401 387/387/387
f 54/54/54 12/12/12 53/53/53
f 382/382/382 404/404/404 378/378/378
f 56/56/56 19/19/19 66/66/66
f 369/369/369 397/397/397 382/382/382
f 397/397/397 376/376/376 398/398/398
f 398/398/398 376/376/376 399/399/399
f 399/399/399 376/376/376 385/385/385
f 269/269/269 268/268/268 270/270/270
f 204/204/204 288/288/288 294/294/294
f 203/203/203 267/267/267 268/268/268
f 206/206/206 294/294/294 207/207/207
f 203/203/203 256/256/256 267/267/267
f 203/203/203 202/202/202 208/208/208
f 245/245/245 251/251/251 249/249/249
f 245/245/245 252/252/252 251/251/251
f 234/234/234 238/238/238 249/249/249
f 252/252/252 273/273/273 271/271/271
f 252/252/252 259/259/259 273/273/273
f 258/258/258 259/259/259 252/252/252
f 347/347/347 378/378/378 401/401/401
f 66/66/66 19/19/19 67/67/67
f 74/74/74 20/20/20 56/56/56
f 270/270/270 233/233/233 253/253/253
f 299/299/299 209/209/209 297/297/297
f 253/253/253 269/269/269 270/270/270
f 288/288/288 209/209/209 299/299/299
f 253/253/253 268/268/268 269/269/269
f 204/204/204 209/209/209 288/288/288
f 203/203/203 268/268/268 253/253/253
f 204/204/204 205/205/205 202/202/202
f 205/205/205 204/204/204 294/294/294
f 206/206/206 205/205/205 294/294/294
f 203/203/203 199/199/199 202/202/202
f 205/205/205 206/206/206 202/202/202
f 238/238/238 245/245/245 249/249/249
f 245/245/245 258/258/258 252/252/252
f 245/245/245 259/259/259 258/258/258
f 261/261/261 259/259/259 245/245/245
f 262/262/262 285/285/285 259/259/259
f 292/292/292 236/236/236 250/250/250
f 223/223/223 250/250/250 236/236/236
f 240/240/240 280/280/280 262/262/262
f 266/266/266 280/280/280 240/240/240
f 266/266/266 284/284/284 280/280/280
f 290/290/290 235/235/235 303/303/303
f 404/404/404 382/382/382 407/407/407
f 67/67/67 19/19/19 54/54/54
f 382/382/382 400/400/400 407/407/407
f 382/382/382 397/397/397 400/400/400
f 281/281/281 274/274/274 248/248/248
f 260/260/260 281/281/281 248/248/248
f 74/74/74 75/75/75 20/20/20
f 296/296/296 279/279/279 298/298/298
f 215/215/215 296/296/296 209/209/209
f 75/75/75 47/47/47 68/68/68
f 297/297/297 209/209/209 296/296/296
f 233/233/233 270/270/270 264/264/264
f 199/199/199 203/203/203 253/253/253
f 202/202/202 201/201/201 204/204/204
f 238/238/238 244/244/244 245/245/245
f 244/244/244 261/261/261 245/245/245
f 451/451/451 452/452/452 453/453/453
f 244/244/244 262/262/262 259/259/259
f 255/255/255 240/240/240 262/262/262
f 266/266/266 240/240/240 242/242/242
f 303/303/303 235/235/235 292/292/292
f 257/257/257 284/284/284 266/266/266
f 257/257/257 266/266/266 265/265/265
f 263/263/263 264/264/264 260/260/260
f 225/225/225 279/279/279 215/215/215
f 296/296/296 215/215/215 279/279/279
f 243/243/243 264/264/264 263/263/263
f 243/243/243 233/233/233 264/264/264
f 233/233/233 232/232/232 253/253/253
f 204/204/204 201/201/201 209/209/209
f 232/232/232 200/200/200 253/253/253
f 200/200/200 199/199/199 253/253/253
f 201/201/201 202/202/202 199/199/199
f 239/239/239 244/244/244 238/238/238
f 234/234/234 237/237/237 238/238/238
f 234/234/234 228/228/228 237/237/237
f 223/223/223 234/234/234 250/250/250
f 234/234/234 223/223/223 228/228/228
f 238/238/238 237/237/237 239/239/239
f 239/239/239 262/262/262 244/244/244
f 239/239/239 255/255/255 262/262/262
f 240/240/240 255/255/255 239/239/239
f 292/292/292 224/224/224 236/236/236
f 235/235/235 224/224/224 292/292/292
f 241/241/241 266/266/266 242/242/242
f 265/265/265 266/266/266 241/241/241
f 241/241/241 257/257/257 265/265/265
f 217/217/217 290/290/290 289/289/289
f 248/248/248 274/274/274 257/257/257
f 279/279/279 289/289/289 291/291/291
f 289/289/289 279/279/279 216/216/216
f 221/221/221 260/260/260 248/248/248
f 213/213/213 279/279/279 225/225/225
f 243/243/243 260/260/260 221/221/221
f 243/243/243 263/263/263 260/260/260
f 213/213/213 225/225/225 215/215/215
f 209/209/209 210/210/210 215/215/215
f 210/210/210 209/209/209 198/198/198
f 233/233/233 198/198/198 232/232/232
f 198/198/198 209/209/209 201/201/201
f 199/199/199 198/198/198 201/201/201
f 198/198/198 199/199/199 200/200/200
f 198/198/198 200/200/200 232/232/232
f 237/237/237 228/228/228 239/239/239
f 228/228/228 240/240/240 239/239/239
f 228/228/228 223/223/223 227/227/227
f 228/228/228 242/242/242 240/240/240
f 217/217/217 218/218/218 235/235/235
f 290/290/290 217/217/217 235/235/235
f 229/229/229 257/257/257 241/241/241
f 229/229/229 246/246/246 257/257/257
f 246/246/246 247/247/247 257/257/257
f 247/247/247 248/248/248 257/257/257
f 289/289/289 216/216/216 217/217/217
f 231/231/231 221/221/221 248/248/248
f 213/213/213 216/216/216 279/279/279
f 210/210/210 213/213/213 215/215/215
f 222/222/222 233/233/233 243/243/243
f 222/222/222 212/212/212 233/233/233
f 198/198/198 233/233/233 212/212/212
f 212/212/212 211/211/211 198/198/198
f 210/210/210 198/198/198 211/211/211
f 227/227/227 242/242/242 228/228/228
f 224/224/224 223/223/223 236/236/236
f 223/223/223 226/226/226 227/227/227
f 227/227/227 241/241/241 242/242/242
f 223/223/223 219/219/219 226/226/226
f 218/218/218 224/224/224 235/235/235
f 227/227/227 226/226/226 241/241/241
f 224/224/224 218/218/218 223/223/223
f 229/229/229 241/241/241 226/226/226
f 223/223/223 218/218/218 219/219/219
f 230/230/230 246/246/246 229/229/229
f 218/218/218 217/217/217 214/214/214
f 214/214/214 217/217/217 216/216/216
f 230/230/230 221/221/221 231/231/231
f 230/230/230 247/247/247 246/246/246
f 213/213/213 214/214/214 216/216/216
f 230/230/230 248/248/248 247/247/247
f 231/231/231 248/248/248 230/230/230
f 213/213/213 211/211/211 214/214/214
f 211/211/211 212/212/212 214/214/214
f 214/214/214 222/222/222 254/254/254
f 214/214/214 212/212/212 222/222/222
f 254/254/254 243/243/243 221/221/221
f 254/254/254 222/222/222 243/243/243
f 213/213/213 210/210/210 211/211/211
f 219/219/219 229/229/229 226/226/226
f 214/214/214 219/219/219 218/218/218
f 219/219/219 230/230/230 229/229/229
f 219/219/219 221/221/221 230/230/230
f 214/214/214 220/220/220 219/219/219
f 220/220/220 221/221/221 219/219/219
f 220/220/220 214/214/214 221/221/221
f 221/221/221 214/214/214 254/254/254
