# Shopkeeper / ClawTipR  (local frame of part 'ClawTipR', bbox-centred; -Z = front)
v -0.22387 -0.01847 0.02174
v -0.19626 -0.07802 -0.00090
v -0.20502 -0.06029 0.04746
v -0.20527 -0.06279 -0.03401
v -0.21658 -0.04204 -0.02743
v -0.20767 -0.02347 0.09773
v -0.19849 -0.06312 0.07138
v -0.22200 -0.01071 -0.04815
v -0.20600 -0.04942 -0.07310
v -0.21052 -0.03211 -0.08231
v -0.18876 -0.07812 -0.06714
v -0.17551 -0.09730 0.03941
v -0.18001 -0.08187 0.08785
v -0.16839 -0.06974 0.13813
v -0.16610 -0.10414 -0.04698
v -0.16595 -0.10743 -0.00285
v -0.16784 -0.09689 -0.07710
v -0.15139 -0.10737 0.09024
v -0.17548 -0.02619 0.16525
v -0.16433 -0.04726 0.16875
v -0.13081 -0.09874 0.14830
v -0.14015 -0.12435 0.00627
v -0.12789 -0.12874 0.04522
v -0.14059 -0.12256 -0.03549
v -0.12158 -0.11751 0.11742
v -0.10422 -0.13543 0.07477
v -0.11932 -0.08956 0.17576
v -0.14116 -0.07451 0.17188
v -0.14666 -0.04118 0.19516
v -0.18325 -0.05566 -0.12749
v -0.16930 -0.07737 -0.12283
v -0.14366 -0.09893 -0.12573
v -0.12209 -0.12819 -0.06768
v -0.13127 -0.11461 -0.10538
v -0.19299 -0.06435 -0.08929
v -0.20203 -0.04167 -0.09891
v -0.09009 -0.11773 0.15251
v -0.08413 -0.10506 0.18093
v -0.11409 -0.05139 0.21900
v -0.14431 -0.07251 -0.16898
v -0.19874 -0.02127 -0.12414
v -0.17507 -0.03447 -0.16089
v -0.20723 0.00743 0.10638
v -0.18183 0.01186 0.16006
v -0.21112 0.00729 -0.09670
v -0.22102 0.02722 0.03526
v -0.22031 0.03279 -0.02641
v -0.17474 0.01849 -0.16906
v -0.21261 0.02590 -0.08175
v -0.19429 -0.01133 -0.13737
v -0.14816 -0.03164 -0.19749
v -0.21117 0.05715 0.00816
v -0.11866 -0.01706 0.23105
v -0.14596 0.01947 0.20583
v -0.20442 0.05210 0.07597
v -0.19182 0.04704 0.11992
v -0.18780 0.03308 -0.14059
v -0.14126 -0.01010 -0.21106
v -0.17456 0.05066 0.15055
v -0.20073 0.05614 -0.08138
v -0.12017 -0.03430 -0.22272
v -0.13065 -0.06493 -0.19260
v -0.09548 -0.09090 -0.19280
v -0.07095 -0.10272 0.19272
v -0.06627 -0.06990 0.23372
v -0.07468 -0.04560 0.24697
v -0.11493 0.03110 0.22988
v -0.07851 -0.08032 -0.21623
v -0.08839 -0.04482 -0.23906
v -0.13182 0.03076 -0.21469
v -0.08974 -0.01040 -0.24961
v -0.06070 -0.05624 -0.24504
v -0.08037 0.00760 0.25643
v -0.03867 -0.03903 0.26254
v -0.08680 0.03540 -0.24488
v -0.03674 -0.00172 0.27138
v -0.04471 -0.01774 -0.26681
v -0.05868 0.12824 0.14934
v -0.04320 0.10150 0.20757
v -0.03156 0.13686 0.13773
v 0.02194 0.10347 0.20976
v 0.03964 0.11897 0.17851
v 0.02305 0.13693 0.13967
v 0.03512 0.13828 0.13198
v -0.03005 0.07657 0.24004
v -0.09979 0.09460 0.18591
v -0.08497 0.14042 0.08582
v -0.11542 0.10864 0.14669
v -0.01841 0.15668 0.05040
v 0.03138 0.14961 0.08943
v -0.08415 0.14762 0.04022
v 0.01892 0.15817 0.03121
v 0.06130 0.14683 0.08088
v -0.12197 0.13376 0.04586
v -0.03804 0.15761 -0.00921
v -0.08217 0.14870 -0.03271
v -0.13927 0.12371 0.05519
v -0.14822 0.10431 0.10799
v 0.00702 0.15775 -0.04018
v -0.12367 0.13406 -0.03602
v 0.07519 0.14549 0.06963
v 0.07408 0.15024 -0.00900
v 0.03905 0.15532 -0.03972
v 0.07965 0.10514 0.18384
v 0.10249 0.11970 0.13649
v 0.10887 0.13553 0.06348
v 0.07552 0.08662 0.21210
v 0.03363 0.08416 0.23146
v -0.06227 0.07206 0.23419
v -0.14900 0.06828 0.16988
v -0.18263 0.08762 0.06492
v -0.16350 0.10799 0.05224
v -0.11689 0.06207 0.20916
v 0.02433 0.05519 0.25704
v -0.17456 0.05066 0.15055
v -0.19182 0.04704 0.11992
v -0.20442 0.05210 0.07597
v -0.02929 0.03505 0.26632
v -0.07728 0.03761 0.25015
v -0.11493 0.03110 0.22988
v 0.06827 0.04491 0.25050
v 0.11244 0.04646 0.22407
v 0.12467 0.06640 0.19812
v -0.14596 0.01947 0.20583
v 0.01454 0.02038 0.27227
v -0.08037 0.00760 0.25643
v -0.03674 -0.00172 0.27138
v 0.05496 -0.00603 0.26633
v 0.07769 0.01263 0.25711
v 0.00879 -0.02551 0.27118
v 0.17417 0.06308 -0.13330
v 0.14808 0.08638 -0.14264
v 0.17973 0.06714 -0.11594
v 0.18249 0.07624 -0.09153
v 0.13878 0.11343 -0.09510
v 0.13698 0.10175 -0.12989
v 0.18528 0.08199 -0.06643
v 0.12264 0.10254 -0.14810
v 0.10488 0.09681 -0.17712
v 0.14064 0.05626 -0.18953
v 0.15800 0.05578 -0.16793
v 0.17557 0.04840 -0.14726
v 0.09965 0.07501 -0.20949
v 0.09450 0.08766 -0.19860
v 0.09374 0.11683 -0.14912
v 0.09932 0.13068 -0.10333
v 0.15324 0.04822 -0.18083
v 0.06545 0.09322 -0.20843
v 0.12231 0.03823 -0.21957
v 0.04815 0.12591 -0.15844
v 0.09234 0.13814 -0.08095
v 0.14517 0.11518 -0.07120
v 0.11715 0.13400 -0.04167
v 0.17248 0.09912 -0.04724
v 0.18972 0.07865 -0.05965
v 0.13954 0.12464 -0.01766
v 0.04164 0.13730 -0.13011
v 0.12055 0.13340 -0.03010
v 0.15598 0.11443 0.02426
v 0.17603 0.09993 -0.00400
v 0.14898 0.11509 0.06280
v 0.16169 0.10430 0.07199
v 0.19507 0.07754 0.03712
v 0.20380 0.06193 -0.04721
v 0.20129 0.07142 -0.01592
v 0.19217 0.07703 0.05755
v 0.17885 0.08684 0.07849
v 0.13252 0.11623 0.10333
v 0.15552 0.09525 0.11670
v 0.17804 0.08258 0.09325
v 0.13196 0.10591 0.13243
v 0.17379 0.08206 0.10583
v 0.19033 0.07454 0.07388
v 0.15047 0.08814 0.13988
v 0.12739 0.09678 0.15633
v 0.17066 0.07074 0.13269
v 0.15101 0.06919 0.16594
v 0.12695 0.08543 0.17405
v 0.08497 0.04645 -0.24089
v 0.06917 0.05730 -0.24176
v 0.15092 0.03367 0.19464
v -0.07566 0.09954 -0.19546
v -0.10358 0.07379 -0.20870
v -0.11368 0.07367 -0.20096
v -0.11451 0.10519 -0.15630
v -0.14985 0.08334 -0.14919
v -0.14923 0.07768 -0.15823
v -0.14804 0.05701 -0.18206
v -0.12052 0.12256 -0.10511
v -0.13015 0.11932 -0.09898
v -0.10796 0.11629 -0.13975
v -0.06009 0.11987 -0.16782
v -0.07572 0.12871 -0.13760
v -0.06743 0.12762 -0.14600
v -0.08095 0.14236 -0.08270
v -0.05557 0.06429 -0.24198
v -0.01610 0.08934 -0.22670
v 0.00070 0.12026 -0.18061
v -0.01766 0.14180 -0.12334
v -0.01676 0.14682 -0.10419
v 0.00934 0.09389 -0.22168
v -0.03171 0.06179 -0.25019
v 0.04164 0.13730 -0.13011
v 0.04815 0.12591 -0.15844
v 0.02389 0.14934 -0.09023
v 0.02816 0.09162 -0.22213
v -0.03804 0.15761 -0.00921
v -0.08217 0.14870 -0.03271
v -0.12367 0.13406 -0.03602
v 0.00702 0.15775 -0.04018
v -0.14766 0.11873 -0.05531
v -0.16056 0.09187 -0.11479
v 0.03905 0.15532 -0.03972
v 0.06545 0.09322 -0.20843
v -0.17241 0.09559 -0.07293
v -0.12197 0.13376 0.04586
v -0.17791 0.09994 0.00863
v -0.13927 0.12371 0.05519
v -0.16350 0.10799 0.05224
v -0.18570 0.09038 -0.03030
v -0.17970 0.05937 -0.13131
v -0.20073 0.05614 -0.08138
v -0.18263 0.08762 0.06492
v 0.02734 0.05795 -0.25349
v -0.00284 0.03983 -0.26581
v -0.08680 0.03540 -0.24488
v 0.06917 0.05730 -0.24176
v -0.13182 0.03076 -0.21469
v -0.21117 0.05715 0.00816
v -0.17474 0.01849 -0.16906
v -0.18780 0.03308 -0.14059
v -0.03565 0.02640 -0.26711
v -0.20442 0.05210 0.07597
v 0.05223 0.02974 -0.26182
v 0.08497 0.04645 -0.24089
v 0.02663 0.00124 -0.27227
v -0.04471 -0.01774 -0.26681
v -0.08974 -0.01040 -0.24961
v 0.05820 0.00625 -0.26452
v 0.21937 -0.02809 0.03125
v 0.21225 -0.05204 -0.00977
v 0.22045 -0.01535 -0.04308
v 0.22387 0.01048 0.00051
v 0.20868 -0.04200 -0.07042
v 0.20330 -0.05760 -0.06183
v 0.20169 -0.01987 -0.11370
v 0.21762 -0.00496 -0.06627
v 0.20854 -0.00964 -0.09904
v 0.19747 -0.03970 -0.10952
v 0.22232 0.01709 -0.02273
v 0.21589 0.01630 -0.06974
v 0.21763 0.03394 -0.03471
v 0.20972 0.02578 -0.08697
v 0.18038 0.01359 -0.15902
v 0.18454 -0.01694 -0.15070
v 0.19624 0.03732 -0.11534
v 0.19022 0.03415 -0.13139
v 0.21816 0.03602 0.02262
v 0.21365 0.05003 -0.00329
v 0.21935 0.01918 0.04798
v 0.21943 0.00889 0.05508
v 0.20380 0.06193 -0.04721
v 0.21094 0.03544 0.07192
v 0.20921 0.01524 0.09497
v 0.20930 -0.01642 0.09358
v 0.20281 -0.05829 0.06190
v 0.21820 -0.03172 0.03346
v 0.20008 -0.04297 0.09856
v 0.20170 -0.06854 0.03179
v 0.19477 0.01202 0.13367
v 0.19458 -0.00583 0.13506
v 0.20345 0.05553 0.06866
v 0.20019 0.03600 0.10741
v 0.20129 0.07142 -0.01592
v 0.20164 0.06678 0.04429
v 0.19586 0.05638 0.09438
v 0.19507 0.07754 0.03712
v 0.18249 0.07624 -0.09153
v 0.18528 0.08199 -0.06643
v 0.18972 0.07865 -0.05965
v 0.17973 0.06714 -0.11594
v 0.18750 0.04781 0.12689
v 0.19217 0.07703 0.05755
v 0.19033 0.07454 0.07388
v 0.17104 0.04350 0.16113
v 0.17557 0.04840 -0.14726
v 0.17417 0.06308 -0.13330
v 0.17066 0.07074 0.13269
v 0.17804 0.08258 0.09325
v 0.17379 0.08206 0.10583
v 0.17885 0.08684 0.07849
v 0.16777 0.05662 0.15491
v 0.15685 0.00148 0.19583
v 0.15092 0.03367 0.19464
v 0.18749 -0.02392 0.14369
v 0.18448 -0.05850 0.11845
v 0.17706 -0.03254 0.15776
v 0.15101 0.06919 0.16594
v 0.16441 -0.04027 0.17246
v 0.14242 -0.03430 0.20332
v 0.19480 -0.07600 -0.04399
v 0.13236 0.00100 0.22177
v 0.17040 -0.04858 0.15672
v 0.16719 -0.08016 0.12045
v 0.16539 -0.06880 0.14227
v 0.17869 -0.06283 0.12511
v 0.18259 -0.06419 -0.11408
v 0.18501 -0.09151 0.01449
v 0.18092 -0.09537 -0.01769
v 0.16589 -0.05993 -0.15136
v 0.17778 -0.02994 -0.15659
v 0.18050 -0.08088 -0.08640
v 0.15416 -0.10604 0.08415
v 0.17735 -0.09616 0.04168
v 0.15973 -0.04482 -0.17421
v 0.13063 -0.04985 0.20565
v 0.14165 -0.07630 0.16734
v 0.12330 -0.07314 0.19134
v 0.15800 0.05578 -0.16793
v 0.15129 0.02249 -0.19706
v 0.15324 0.04822 -0.18083
v 0.12538 0.01103 -0.22558
v 0.14679 -0.01460 -0.20403
v 0.14625 -0.04180 -0.19319
v 0.14037 -0.10250 -0.12262
v 0.15381 -0.08330 -0.13870
v 0.16147 -0.09456 -0.10102
v 0.13676 -0.08597 -0.15877
v 0.11477 -0.06983 -0.20150
v 0.12402 -0.04737 -0.21210
v 0.09356 -0.03292 0.24315
v 0.11512 -0.04813 0.22038
v 0.09122 -0.01786 -0.24803
v 0.12231 0.03823 -0.21957
v 0.14064 0.05626 -0.18953
v 0.11244 0.04646 0.22407
v 0.08391 -0.05568 -0.23476
v 0.07769 0.01263 0.25711
v 0.08497 0.04645 -0.24089
v 0.05820 0.00625 -0.26452
v 0.05496 -0.00603 0.26633
v 0.06655 -0.05745 -0.24175
v 0.06566 -0.13802 -0.11106
v 0.00299 -0.12813 -0.16078
v 0.04644 -0.12999 -0.14662
v 0.00399 -0.15387 -0.06750
v -0.01795 -0.13163 -0.15095
v -0.03844 -0.14283 -0.11035
v 0.03383 -0.15072 -0.07613
v 0.06620 -0.14734 -0.06693
v -0.06708 -0.14489 -0.07858
v -0.00172 -0.15814 -0.02630
v 0.06392 -0.15289 -0.00871
v -0.02190 -0.15817 0.00542
v -0.08290 -0.14622 -0.03469
v 0.05118 -0.15318 0.04178
v 0.02904 -0.15398 0.05727
v 0.09729 -0.14262 -0.03964
v 0.00674 -0.14940 0.09173
v -0.02315 -0.15650 0.03872
v -0.07133 -0.14815 0.05028
v -0.03790 -0.14987 0.07898
v -0.10557 -0.14001 -0.00986
v -0.08931 -0.12721 -0.12450
v -0.12209 -0.12819 -0.06768
v -0.08925 -0.11375 -0.15818
v -0.06077 -0.11106 -0.18130
v -0.10422 -0.13543 0.07477
v -0.10895 -0.13870 0.01315
v -0.05166 -0.13848 0.12148
v 0.01073 -0.13927 0.13145
v -0.05601 -0.13625 0.12661
v -0.08080 -0.12836 0.13352
v -0.14015 -0.12435 0.00627
v -0.12789 -0.12874 0.04522
v -0.14059 -0.12256 -0.03549
v -0.13127 -0.11461 -0.10538
v -0.12158 -0.11751 0.11742
v -0.02428 -0.12173 0.17617
v 0.06347 -0.14041 0.10419
v 0.04219 -0.14149 0.11404
v 0.08589 -0.14348 0.06124
v 0.02717 -0.11866 0.18162
v 0.10843 -0.13651 0.05758
v 0.13234 -0.12979 0.01853
v 0.07719 -0.12716 0.13718
v 0.06083 -0.11876 0.16817
v 0.09906 -0.12898 0.10889
v 0.13645 -0.12756 -0.01894
v 0.12982 -0.12605 -0.06286
v 0.11439 -0.12466 -0.10148
v 0.08804 -0.11746 -0.15113
v 0.01629 -0.09690 0.21935
v -0.07095 -0.10272 0.19272
v -0.08413 -0.10506 0.18093
v -0.09009 -0.11773 0.15251
v 0.13501 -0.11429 0.09978
v 0.15416 -0.10604 0.08415
v 0.11763 -0.10650 0.14628
v 0.07930 -0.10772 0.17833
v -0.02829 -0.09409 0.22116
v 0.05732 -0.08970 0.21688
v -0.02133 -0.09304 -0.21951
v 0.15862 -0.10999 -0.05275
v 0.04323 -0.10159 -0.20280
v 0.17735 -0.09616 0.04168
v 0.14037 -0.10250 -0.12262
v 0.10425 -0.09364 0.18213
v 0.18501 -0.09151 0.01449
v 0.18092 -0.09537 -0.01769
v 0.16147 -0.09456 -0.10102
v 0.09973 -0.08947 -0.19062
v 0.15446 -0.09798 0.10753
v 0.13676 -0.08597 -0.15877
v -0.09548 -0.09090 -0.19280
v -0.14366 -0.09893 -0.12573
v 0.08386 -0.07480 0.21975
v -0.01903 -0.08133 0.23685
v 0.14165 -0.07630 0.16734
v 0.12253 -0.08064 0.18315
v 0.12330 -0.07314 0.19134
v 0.18050 -0.08088 -0.08640
v 0.16833 -0.10077 -0.06028
v 0.19480 -0.07600 -0.04399
v 0.16719 -0.08016 0.12045
v 0.15381 -0.08330 -0.13870
v -0.07851 -0.08032 -0.21623
v 0.01364 -0.06262 -0.25079
v 0.06655 -0.05745 -0.24175
v 0.11477 -0.06983 -0.20150
v 0.08391 -0.05568 -0.23476
v -0.14431 -0.07251 -0.16898
v 0.03265 -0.06103 0.25132
v 0.07206 -0.05860 0.23988
v -0.02245 -0.05284 -0.25681
v -0.06070 -0.05624 -0.24504
v -0.11932 -0.08956 0.17576
v -0.06627 -0.06990 0.23372
v 0.11512 -0.04813 0.22038
v 0.12402 -0.04737 -0.21210
v -0.03867 -0.03903 0.26254
v 0.09356 -0.03292 0.24315
v -0.07468 -0.04560 0.24697
v 0.00879 -0.02551 0.27118
v 0.00310 -0.03216 -0.26839
v -0.03275 -0.03514 -0.26428
v -0.04471 -0.01774 -0.26681
v 0.03262 -0.02082 -0.26879
v 0.05496 -0.00603 0.26633
v 0.05820 0.00625 -0.26452
v 0.06655 -0.05745 -0.24175
v 0.03262 -0.02082 -0.26879
v 0.09122 -0.01786 -0.24803
v 0.02663 0.00124 -0.27227
v -0.04471 -0.01774 -0.26681
v 0.00310 -0.03216 -0.26839
v -0.03275 -0.03514 -0.26428
v 0.00879 -0.02551 0.27118
v -0.03674 -0.00172 0.27138
v -0.03867 -0.03903 0.26254
vt 0.60037 0.44602
vt 0.65186 0.45993
vt 0.63276 0.41953
vt 0.64072 0.49048
vt 0.62246 0.48643
vt 0.60186 0.37848
vt 0.63461 0.39801
vt 0.60022 0.50718
vt 0.63365 0.52576
vt 0.62062 0.53544
vt 0.65937 0.51887
vt 0.66999 0.42093
vt 0.65227 0.37944
vt 0.64230 0.33333
vt 0.68643 0.49883
vt 0.68548 0.45751
vt 0.68190 0.52788
vt 0.68170 0.36978
vt 0.60632 0.31240
vt 0.62425 0.30603
vt 0.67679 0.31167
vt 0.71028 0.44505
vt 0.71497 0.40541
vt 0.71249 0.48649
vt 0.70009 0.33637
vt 0.72879 0.37152
vt 0.67126 0.28170
vt 0.65165 0.29468
vt 0.62241 0.27660
vt 0.64830 0.57661
vt 0.66932 0.57236
vt 0.69733 0.57761
vt 0.72879 0.51944
vt 0.71503 0.55719
vt 0.64921 0.53975
vt 0.63069 0.54974
vt 0.71097 0.29134
vt 0.70034 0.26224
vt 0.63677 0.24164
vt 0.67701 0.62272
vt 0.61799 0.57529
vt 0.63645 0.61148
vt 0.57797 0.37111
vt 0.57583 0.31712
vt 0.59182 0.55297
vt 0.56471 0.43664
vt 0.56487 0.49280
vt 0.59473 0.62979
vt 0.57548 0.54268
vt 0.61228 0.58944
vt 0.64411 0.65363
vt 0.54091 0.46380
vt 0.60782 0.23165
vt 0.57314 0.26163
vt 0.54143 0.39824
vt 0.54514 0.35409
vt 0.57714 0.60262
vt 0.62986 0.67282
vt 0.54256 0.31944
vt 0.54957 0.54885
vt 0.65556 0.68744
vt 0.67571 0.65082
vt 0.71159 0.66505
vt 0.69774 0.23908
vt 0.66580 0.20186
vt 0.64119 0.19453
vt 0.56822 0.22178
vt 0.70884 0.69610
vt 0.67512 0.71610
vt 0.59855 0.69275
vt 0.64710 0.73318
vt 0.69574 0.73589
vt 0.59452 0.18345
vt 0.64287 0.15515
vt 0.60857 0.74620
vt 0.61196 0.14111
vt 0.67100 0.77526
vt 0.15004 0.58976
vt 0.12647 0.54025
vt 0.17218 0.58278
vt 0.16104 0.50187
vt 0.18852 0.51285
vt 0.20167 0.54946
vt 0.21224 0.54714
vt 0.11270 0.50768
vt 0.10159 0.58426
vt 0.16656 0.64884
vt 0.11328 0.62104
vt 0.22597 0.63449
vt 0.23337 0.57760
vt 0.19044 0.68072
vt 0.25811 0.62404
vt 0.25461 0.56363
vt 0.16133 0.69945
vt 0.24663 0.68847
vt 0.22975 0.73246
vt 0.14255 0.70189
vt 0.10833 0.66642
vt 0.29201 0.68030
vt 0.20300 0.76132
vt 0.26857 0.56120
vt 0.31339 0.61360
vt 0.31168 0.65894
vt 0.20517 0.48094
vt 0.24513 0.49737
vt 0.29087 0.54124
vt 0.18497 0.46152
vt 0.15257 0.47720
vt 0.09554 0.52783
vt 0.06843 0.61964
vt 0.09775 0.71866
vt 0.12299 0.71767
vt 0.06939 0.57282
vt 0.12779 0.45852
vt 0.05103 0.64742
vt 0.05052 0.68123
vt 0.06212 0.72285
vt 0.08673 0.47714
vt 0.06567 0.51600
vt 0.04598 0.55044
vt 0.15110 0.42777
vt 0.19019 0.41036
vt 0.21592 0.42660
vt 0.02879 0.58540
vt 0.10277 0.44004
vt 0.04358 0.50119
vt 0.06027 0.45875
vt 0.11507 0.39691
vt 0.14183 0.39751
vt 0.07453 0.41155
vt 0.47192 0.60646
vt 0.45407 0.63672
vt 0.46132 0.59150
vt 0.44289 0.57528
vt 0.40909 0.61750
vt 0.43425 0.63932
vt 0.42568 0.55772
vt 0.43843 0.66184
vt 0.45071 0.69346
vt 0.49506 0.66923
vt 0.49001 0.64109
vt 0.48963 0.61212
vt 0.47890 0.71625
vt 0.46355 0.71452
vt 0.41988 0.68588
vt 0.38933 0.65381
vt 0.50024 0.65232
vt 0.45439 0.74502
vt 0.51667 0.70193
vt 0.40051 0.72843
vt 0.36996 0.64550
vt 0.39678 0.59791
vt 0.35930 0.60222
vt 0.40029 0.55921
vt 0.42426 0.54900
vt 0.35806 0.56951
vt 0.37494 0.71533
vt 0.35398 0.59239
vt 0.34264 0.52901
vt 0.37431 0.52913
vt 0.31489 0.50939
vt 0.31753 0.49115
vt 0.36393 0.48089
vt 0.42902 0.52414
vt 0.40362 0.50885
vt 0.34923 0.46889
vt 0.32577 0.46803
vt 0.28089 0.49610
vt 0.28623 0.46433
vt 0.31569 0.45707
vt 0.26312 0.47565
vt 0.30478 0.45140
vt 0.33826 0.45778
vt 0.26854 0.45107
vt 0.24562 0.46164
vt 0.28528 0.43135
vt 0.25135 0.42582
vt 0.23381 0.44719
vt 0.50941 0.74683
vt 0.49728 0.76132
vt 0.22901 0.38850
vt 0.88544 0.50764
vt 0.85764 0.49110
vt 0.85031 0.49847
vt 0.85911 0.54641
vt 0.82586 0.54929
vt 0.82458 0.53961
vt 0.81814 0.51150
vt 0.85954 0.59563
vt 0.85162 0.60119
vt 0.86700 0.56279
vt 0.90258 0.53459
vt 0.89409 0.56410
vt 0.89975 0.55588
vt 0.89529 0.61609
vt 0.89018 0.45306
vt 0.92599 0.46884
vt 0.94824 0.51421
vt 0.94260 0.57233
vt 0.94550 0.59017
vt 0.94653 0.46936
vt 0.90708 0.44145
vt 0.98930 0.55559
vt 0.99018 0.52528
vt 0.98000 0.59745
vt 0.96074 0.46373
vt 0.93721 0.68163
vt 0.89775 0.66354
vt 0.86055 0.66166
vt 0.97177 0.64776
vt 0.83734 0.64169
vt 0.81996 0.58270
vt 0.99848 0.64324
vt 0.99342 0.46585
vt 0.81074 0.62208
vt 0.85523 0.74196
vt 0.80256 0.70011
vt 0.83732 0.74960
vt 0.81256 0.74435
vt 0.79582 0.66139
vt 0.79249 0.55979
vt 0.77136 0.60647
vt 0.78704 0.75416
vt 0.95070 0.42315
vt 0.92316 0.41151
vt 0.85768 0.43930
vt 0.98638 0.41869
vt 0.81979 0.46882
vt 0.75622 0.69368
vt 0.77767 0.50864
vt 0.77319 0.54251
vt 0.89546 0.40923
vt 0.75000 0.76132
vt 0.96494 0.39108
vt 0.99848 0.40554
vt 0.93769 0.36879
vt 0.87567 0.37388
vt 0.84106 0.39916
vt 0.96613 0.36760
vt 0.45034 0.88545
vt 0.48311 0.86373
vt 0.50787 0.89951
vt 0.47312 0.92167
vt 0.53103 0.87469
vt 0.52545 0.85853
vt 0.56522 0.89611
vt 0.52589 0.90956
vt 0.55259 0.90559
vt 0.56335 0.87727
vt 0.49114 0.92854
vt 0.52858 0.92904
vt 0.50042 0.94480
vt 0.54300 0.93822
vt 0.60531 0.92710
vt 0.59760 0.89866
vt 0.56807 0.94974
vt 0.58191 0.94688
vt 0.45443 0.94437
vt 0.47473 0.95956
vt 0.43528 0.92731
vt 0.43036 0.91763
vt 0.51139 0.97437
vt 0.41474 0.94130
vt 0.39791 0.92094
vt 0.40079 0.89236
vt 0.42639 0.85453
vt 0.44892 0.88200
vt 0.39673 0.86689
vt 0.45026 0.84503
vt 0.36582 0.91493
vt 0.36595 0.89854
vt 0.41495 0.96182
vt 0.38503 0.93950
vt 0.48456 0.98390
vt 0.43405 0.97543
vt 0.39266 0.96110
vt 0.43913 0.98871
vt 0.55236 0.99193
vt 0.53119 0.99826
vt 0.52436 0.99399
vt 0.57304 0.98217
vt 0.36569 0.94955
vt 0.42086 0.98718
vt 0.40672 0.98328
vt 0.33496 0.94220
vt 0.59917 0.96199
vt 0.58856 0.97794
vt 0.35357 0.97416
vt 0.38627 0.99142
vt 0.37498 0.98953
vt 0.39845 0.99826
vt 0.33699 0.95638
vt 0.30862 0.89864
vt 0.30304 0.92944
vt 0.35876 0.88099
vt 0.37880 0.84876
vt 0.34585 0.87125
vt 0.32045 0.96962
vt 0.33146 0.86172
vt 0.30032 0.86273
vt 0.51241 0.83737
vt 0.28028 0.89371
vt 0.34546 0.85512
vt 0.37416 0.82271
vt 0.35582 0.83420
vt 0.37272 0.84319
vt 0.57125 0.85172
vt 0.46414 0.81780
vt 0.49111 0.81327
vt 0.60489 0.85519
vt 0.60416 0.88620
vt 0.55045 0.83184
vt 0.40276 0.79268
vt 0.44068 0.81043
vt 0.62375 0.87088
vt 0.29418 0.84523
vt 0.32821 0.82047
vt 0.30239 0.81932
vt 0.62228 0.96938
vt 0.64464 0.93486
vt 0.63370 0.96147
vt 0.67584 0.92253
vt 0.65023 0.89912
vt 0.64304 0.87280
vt 0.59202 0.80164
vt 0.60100 0.82710
vt 0.56803 0.81414
vt 0.62345 0.82273
vt 0.66397 0.83894
vt 0.66712 0.86500
vt 0.24832 0.85516
vt 0.27619 0.84366
vt 0.70899 0.89257
vt 0.67545 0.94976
vt 0.64683 0.96987
vt 0.26133 0.93601
vt 0.70527 0.85276
vt 0.22569 0.89655
vt 0.71243 0.95662
vt 0.74091 0.91533
vt 0.20758 0.87493
vt 0.72071 0.84835
vt 0.17558 0.14167
vt 0.13299 0.19608
vt 0.14610 0.15722
vt 0.20894 0.20020
vt 0.14011 0.21567
vt 0.17242 0.23672
vt 0.20309 0.17278
vt 0.21114 0.14361
vt 0.19626 0.26495
vt 0.24114 0.20715
vt 0.25686 0.14822
vt 0.26536 0.22669
vt 0.23079 0.28231
vt 0.29616 0.16150
vt 0.30767 0.18209
vt 0.23324 0.11557
vt 0.33457 0.20328
vt 0.29152 0.22917
vt 0.29991 0.27476
vt 0.32367 0.24416
vt 0.24980 0.30582
vt 0.15572 0.28406
vt 0.20013 0.32034
vt 0.12608 0.28222
vt 0.10913 0.25364
vt 0.32015 0.30840
vt 0.26850 0.31018
vt 0.35887 0.25806
vt 0.36684 0.20057
vt 0.36327 0.26228
vt 0.37031 0.28660
vt 0.26146 0.34321
vt 0.29464 0.33160
vt 0.22615 0.34134
vt 0.16592 0.32839
vt 0.35841 0.32826
vt 0.40466 0.23280
vt 0.34650 0.15142
vt 0.35346 0.17119
vt 0.31299 0.12963
vt 0.40942 0.18520
vt 0.31124 0.10767
vt 0.28073 0.08276
vt 0.37466 0.13886
vt 0.40000 0.15412
vt 0.35273 0.11741
vt 0.25042 0.07709
vt 0.21460 0.08175
vt 0.18280 0.09492
vt 0.14144 0.11737
vt 0.44376 0.19511
vt 0.42404 0.27762
vt 0.41422 0.29080
vt 0.38804 0.29675
vt 0.34876 0.07994
vt 0.33749 0.05774
vt 0.38739 0.09806
vt 0.41124 0.13622
vt 0.44692 0.23605
vt 0.44513 0.15686
vt 0.07711 0.21403
vt 0.22260 0.05031
vt 0.09609 0.15567
vt 0.30298 0.03039
vt 0.16274 0.06410
vt 0.41934 0.11046
vt 0.28000 0.02011
vt 0.25217 0.02429
vt 0.18065 0.04123
vt 0.10337 0.10084
vt 0.35907 0.05687
vt 0.12876 0.06352
vt 0.09130 0.28805
vt 0.14432 0.34144
vt 0.45405 0.13033
vt 0.46293 0.22696
vt 0.41388 0.06787
vt 0.42534 0.08988
vt 0.43530 0.08802
vt 0.19225 0.01728
vt 0.21599 0.03789
vt 0.22871 0.00174
vt 0.37487 0.03940
vt 0.14485 0.04529
vt 0.07012 0.26940
vt 0.04395 0.17801
vt 0.05064 0.12670
vt 0.08828 0.08147
vt 0.05581 0.10923
vt 0.10144 0.34321
vt 0.48140 0.17840
vt 0.47548 0.14061
vt 0.03211 0.21177
vt 0.03909 0.25017
vt 0.41673 0.32851
vt 0.46838 0.27268
vt 0.46898 0.09408
vt 0.06998 0.06629
vt 0.50367 0.24524
vt 0.49332 0.11516
vt 0.49158 0.28138
vt 0.51626 0.19844
vt 0.01368 0.18451
vt 0.01520 0.22042
vt 0.00152 0.23408
vt 0.00853 0.15404
vt 0.52576 0.15015
vt 0.76515 0.16236
vt 0.81970 0.13681
vt 0.79194 0.18092
vt 0.78064 0.12369
vt 0.77477 0.19182
vt 0.80788 0.25261
vt 0.80804 0.20565
vt 0.81970 0.23737
vt 0.48636 0.41986
vt 0.48636 0.46864
vt 0.45606 0.45383
vn -0.9830 -0.1706 0.0676
vn -0.7776 -0.6287 -0.0047
vn -0.8505 -0.5082 0.1352
vn -0.8435 -0.5295 -0.0903
vn -0.9240 -0.3740 -0.0795
vn -0.9290 -0.2108 0.3042
vn -0.8294 -0.5211 0.2015
vn -0.9839 -0.1004 -0.1476
vn -0.8794 -0.4269 -0.2108
vn -0.9250 -0.2868 -0.2494
vn -0.7590 -0.6276 -0.1733
vn -0.6703 -0.7370 0.0868
vn -0.7346 -0.6380 0.2309
vn -0.7236 -0.5645 0.3972
vn -0.6205 -0.7772 -0.1049
vn -0.6107 -0.7918 -0.0090
vn -0.6451 -0.7398 -0.1914
vn -0.5764 -0.7889 0.2131
vn -0.8189 -0.2395 0.5216
vn -0.7472 -0.4125 0.5211
vn -0.5173 -0.7539 0.4051
vn -0.4864 -0.8736 0.0118
vn -0.4385 -0.8953 0.0780
vn -0.4923 -0.8673 -0.0736
vn -0.4441 -0.8479 0.2895
vn -0.3458 -0.9274 0.1426
vn -0.4903 -0.7104 0.5049
vn -0.6049 -0.6114 0.5102
vn -0.6874 -0.3776 0.6205
vn -0.7900 -0.4784 -0.3834
vn -0.6946 -0.6278 -0.3512
vn -0.5553 -0.7597 -0.3383
vn -0.4199 -0.8959 -0.1451
vn -0.4780 -0.8373 -0.2656
vn -0.8056 -0.5355 -0.2534
vn -0.8814 -0.3657 -0.2991
vn -0.3211 -0.8628 0.3904
vn -0.3287 -0.8073 0.4901
vn -0.5417 -0.4778 0.6915
vn -0.6215 -0.6083 -0.4937
vn -0.8989 -0.1971 -0.3914
vn -0.7980 -0.3136 -0.5146
vn -0.9408 0.0612 0.3334
vn -0.8547 0.1037 0.5087
vn -0.9511 0.0616 -0.3026
vn -0.9652 0.2363 0.1118
vn -0.9548 0.2864 -0.0800
vn -0.8159 0.1653 -0.5541
vn -0.9406 0.2292 -0.2506
vn -0.8903 -0.1091 -0.4422
vn -0.7082 -0.2927 -0.6425
vn -0.8797 0.4750 0.0205
vn -0.6049 -0.1758 0.7766
vn -0.7143 0.1822 0.6757
vn -0.8761 0.4260 0.2257
vn -0.8462 0.3909 0.3622
vn -0.8470 0.2931 -0.4435
vn -0.6993 -0.1023 -0.7075
vn -0.7782 0.4301 0.4576
vn -0.8507 0.4695 -0.2365
vn -0.5912 -0.3234 -0.7389
vn -0.5868 -0.5612 -0.5837
vn -0.3911 -0.7459 -0.5392
vn -0.2898 -0.8034 0.5201
vn -0.3220 -0.6221 0.7136
vn -0.3799 -0.4429 0.8121
vn -0.5763 0.3001 0.7601
vn -0.3348 -0.6929 -0.6386
vn -0.4421 -0.4249 -0.7899
vn -0.6454 0.2795 -0.7108
vn -0.4805 -0.1106 -0.8700
vn -0.2951 -0.5371 -0.7902
vn -0.4302 0.0741 0.8997
vn -0.2024 -0.3870 0.8996
vn -0.4494 0.3347 -0.8282
vn -0.1984 -0.0241 0.9798
vn -0.2515 -0.1919 -0.9487
vn -0.2025 0.9118 0.3573
vn -0.1869 0.8094 0.5568
vn -0.1027 0.9431 0.3164
vn 0.0980 0.8233 0.5591
vn 0.1502 0.8846 0.4414
vn 0.0753 0.9443 0.3203
vn 0.1101 0.9468 0.3024
vn -0.1431 0.6700 0.7285
vn -0.4089 0.7532 0.5153
vn -0.2713 0.9415 0.2001
vn -0.4378 0.8128 0.3844
vn -0.0532 0.9929 0.1066
vn 0.0962 0.9763 0.1939
vn -0.2543 0.9628 0.0908
vn 0.0637 0.9959 0.0639
vn 0.1900 0.9675 0.1668
vn -0.4054 0.9071 0.1131
vn -0.1074 0.9940 -0.0220
vn -0.2441 0.9671 -0.0721
vn -0.4877 0.8615 0.1415
vn -0.5610 0.7766 0.2867
vn 0.0245 0.9952 -0.0949
vn -0.4106 0.9080 -0.0832
vn 0.2400 0.9615 0.1340
vn 0.2474 0.9687 -0.0204
vn 0.1286 0.9876 -0.0901
vn 0.3138 0.8089 0.4973
vn 0.3673 0.8651 0.3416
vn 0.3651 0.9238 0.1154
vn 0.3346 0.7217 0.6060
vn 0.1628 0.7171 0.6777
vn -0.2990 0.6365 0.7110
vn -0.6452 0.5731 0.5053
vn -0.7260 0.6657 0.1724
vn -0.6133 0.7782 0.1351
vn -0.5353 0.5508 0.6404
vn 0.1263 0.5173 0.8465
vn -0.7782 0.4301 0.4576
vn -0.8462 0.3909 0.3622
vn -0.8761 0.4260 0.2257
vn -0.1525 0.3461 0.9257
vn -0.3983 0.3674 0.8405
vn -0.5763 0.3001 0.7601
vn 0.3456 0.4369 0.8305
vn 0.5420 0.4418 0.7148
vn 0.5561 0.5766 0.5985
vn -0.7143 0.1822 0.6757
vn 0.0812 0.2069 0.9750
vn -0.4302 0.0741 0.8997
vn -0.1984 -0.0241 0.9798
vn 0.2941 -0.0693 0.9533
vn 0.4098 0.1269 0.9033
vn 0.0505 -0.2644 0.9631
vn 0.7525 0.5267 -0.3954
vn 0.6142 0.6814 -0.3981
vn 0.7615 0.5511 -0.3412
vn 0.7499 0.6069 -0.2633
vn 0.5171 0.8223 -0.2374
vn 0.5388 0.7672 -0.3481
vn 0.7427 0.6423 -0.1895
vn 0.4874 0.7799 -0.3928
vn 0.4335 0.7630 -0.4794
vn 0.6524 0.4933 -0.5754
vn 0.7162 0.4814 -0.5053
vn 0.7871 0.4210 -0.4509
vn 0.4501 0.6426 -0.6201
vn 0.4059 0.7209 -0.5617
vn 0.3503 0.8582 -0.3752
vn 0.3429 0.9076 -0.2421
vn 0.7144 0.4259 -0.5552
vn 0.2683 0.7650 -0.5855
vn 0.6057 0.3565 -0.7114
vn 0.1642 0.9092 -0.3826
vn 0.3055 0.9364 -0.1727
vn 0.5317 0.8305 -0.1663
vn 0.3952 0.9150 -0.0815
vn 0.6524 0.7478 -0.1231
vn 0.7648 0.6206 -0.1731
vn 0.4825 0.8750 -0.0392
vn 0.1318 0.9454 -0.2980
vn 0.4066 0.9116 -0.0599
vn 0.5557 0.8300 0.0482
vn 0.6552 0.7553 -0.0125
vn 0.5409 0.8314 0.1274
vn 0.6127 0.7731 0.1638
vn 0.7871 0.6089 0.0986
vn 0.8537 0.5012 -0.1416
vn 0.8235 0.5653 -0.0480
vn 0.7823 0.6032 0.1550
vn 0.7179 0.6657 0.2035
vn 0.4844 0.8387 0.2488
vn 0.6196 0.7202 0.3119
vn 0.7292 0.6364 0.2517
vn 0.5054 0.7902 0.3467
vn 0.7172 0.6333 0.2907
vn 0.7861 0.5838 0.2031
vn 0.6176 0.6829 0.3903
vn 0.5065 0.7445 0.4350
vn 0.7328 0.5624 0.3829
vn 0.6589 0.5673 0.4940
vn 0.5272 0.6839 0.5044
vn 0.4244 0.4404 -0.7911
vn 0.3335 0.5351 -0.7762
vn 0.7254 0.3085 0.6153
vn -0.2925 0.7881 -0.5416
vn -0.4617 0.6203 -0.6341
vn -0.5041 0.6134 -0.6080
vn -0.4432 0.7932 -0.4176
vn -0.6276 0.6531 -0.4238
vn -0.6371 0.6188 -0.4595
vn -0.6719 0.4795 -0.5645
vn -0.4277 0.8667 -0.2566
vn -0.4683 0.8491 -0.2444
vn -0.3943 0.8478 -0.3546
vn -0.1984 0.8844 -0.4225
vn -0.2419 0.9120 -0.3313
vn -0.2127 0.9108 -0.3538
vn -0.2417 0.9525 -0.1851
vn -0.2628 0.5877 -0.7652
vn -0.0641 0.7553 -0.6522
vn 0.0053 0.8931 -0.4497
vn -0.0509 0.9600 -0.2752
vn -0.0471 0.9724 -0.2286
vn 0.0411 0.7788 -0.6259
vn -0.1508 0.5822 -0.7989
vn 0.1318 0.9454 -0.2980
vn 0.1642 0.9092 -0.3826
vn 0.0734 0.9771 -0.1998
vn 0.1158 0.7659 -0.6325
vn -0.1074 0.9940 -0.0220
vn -0.2441 0.9671 -0.0721
vn -0.4106 0.9080 -0.0832
vn 0.0245 0.9952 -0.0949
vn -0.5340 0.8346 -0.1351
vn -0.6480 0.6952 -0.3110
vn 0.1286 0.9876 -0.0901
vn 0.2683 0.7650 -0.5855
vn -0.6798 0.7079 -0.1916
vn -0.4054 0.9071 0.1131
vn -0.6871 0.7263 0.0195
vn -0.4877 0.8615 0.1415
vn -0.6133 0.7782 0.1351
vn -0.7335 0.6749 -0.0805
vn -0.7785 0.4926 -0.3889
vn -0.8507 0.4695 -0.2365
vn -0.7260 0.6657 0.1724
vn 0.1327 0.5559 -0.8206
vn -0.0108 0.4034 -0.9149
vn -0.4494 0.3347 -0.8282
vn 0.3335 0.5351 -0.7762
vn -0.6454 0.2795 -0.7108
vn -0.8797 0.4750 0.0205
vn -0.8159 0.1653 -0.5541
vn -0.8470 0.2931 -0.4435
vn -0.1969 0.2694 -0.9427
vn -0.8761 0.4260 0.2257
vn 0.2765 0.3011 -0.9126
vn 0.4244 0.4404 -0.7911
vn 0.1468 0.0077 -0.9891
vn -0.2515 -0.1919 -0.9487
vn -0.4805 -0.1106 -0.8700
vn 0.3173 0.0602 -0.9464
vn 0.9669 -0.2378 0.0930
vn 0.9074 -0.4193 -0.0299
vn 0.9829 -0.1356 -0.1248
vn 0.9964 0.0854 -0.0011
vn 0.9103 -0.3560 -0.2110
vn 0.8637 -0.4699 -0.1822
vn 0.9139 -0.1809 -0.3634
vn 0.9788 -0.0481 -0.1992
vn 0.9448 -0.0904 -0.3148
vn 0.8742 -0.3453 -0.3415
vn 0.9878 0.1410 -0.0665
vn 0.9675 0.1396 -0.2108
vn 0.9546 0.2802 -0.1014
vn 0.9360 0.2259 -0.2698
vn 0.8497 0.1213 -0.5132
vn 0.8599 -0.1581 -0.4854
vn 0.8728 0.3287 -0.3609
vn 0.8583 0.3036 -0.4138
vn 0.9538 0.2933 0.0650
vn 0.9154 0.4024 -0.0119
vn 0.9766 0.1585 0.1455
vn 0.9830 0.0725 0.1686
vn 0.8537 0.5012 -0.1416
vn 0.9314 0.2917 0.2179
vn 0.9473 0.1282 0.2936
vn 0.9455 -0.1496 0.2891
vn 0.8604 -0.4738 0.1876
vn 0.9586 -0.2667 0.0999
vn 0.8802 -0.3701 0.2970
vn 0.8367 -0.5395 0.0940
vn 0.9026 0.1028 0.4179
vn 0.9041 -0.0580 0.4233
vn 0.8720 0.4465 0.2009
vn 0.8966 0.2994 0.3264
vn 0.8235 0.5653 -0.0480
vn 0.8386 0.5304 0.1240
vn 0.8472 0.4536 0.2767
vn 0.7871 0.6089 0.0986
vn 0.7499 0.6069 -0.2633
vn 0.7427 0.6423 -0.1895
vn 0.7648 0.6206 -0.1731
vn 0.7615 0.5511 -0.3412
vn 0.8364 0.3939 0.3812
vn 0.7823 0.6032 0.1550
vn 0.7861 0.5838 0.2031
vn 0.7857 0.3704 0.4954
vn 0.7871 0.4210 -0.4509
vn 0.7525 0.5267 -0.3954
vn 0.7328 0.5624 0.3829
vn 0.7292 0.6364 0.2517
vn 0.7172 0.6333 0.2907
vn 0.7179 0.6657 0.2035
vn 0.7502 0.4685 0.4667
vn 0.7751 0.0093 0.6317
vn 0.7254 0.3085 0.6153
vn 0.8673 -0.2199 0.4467
vn 0.8002 -0.4901 0.3457
vn 0.8213 -0.2959 0.4877
vn 0.6589 0.5673 0.4940
vn 0.7650 -0.3651 0.5305
vn 0.6892 -0.3294 0.6454
vn 0.7955 -0.5926 -0.1266
vn 0.6721 0.0048 0.7404
vn 0.7716 -0.4258 0.4726
vn 0.6947 -0.6364 0.3353
vn 0.7134 -0.5682 0.4101
vn 0.7720 -0.5221 0.3625
vn 0.7792 -0.5266 -0.3399
vn 0.7239 -0.6889 0.0379
vn 0.7001 -0.7123 -0.0490
vn 0.7327 -0.5050 -0.4563
vn 0.8242 -0.2710 -0.4973
vn 0.7352 -0.6311 -0.2473
vn 0.5851 -0.7797 0.2231
vn 0.6863 -0.7178 0.1178
vn 0.7408 -0.3984 -0.5408
vn 0.6141 -0.4640 0.6384
vn 0.6072 -0.6314 0.4823
vn 0.5408 -0.6266 0.5612
vn 0.7162 0.4814 -0.5053
vn 0.7443 0.2072 -0.6349
vn 0.7144 0.4259 -0.5552
vn 0.6434 0.1039 -0.7585
vn 0.7323 -0.1448 -0.6654
vn 0.6964 -0.3837 -0.6065
vn 0.5445 -0.7712 -0.3298
vn 0.6390 -0.6597 -0.3955
vn 0.6388 -0.7173 -0.2781
vn 0.5692 -0.6870 -0.4517
vn 0.5163 -0.6086 -0.6025
vn 0.5958 -0.4426 -0.6702
vn 0.4745 -0.3335 0.8146
vn 0.5518 -0.4587 0.6965
vn 0.4818 -0.1874 -0.8560
vn 0.6057 0.3565 -0.7114
vn 0.6524 0.4933 -0.5754
vn 0.5420 0.4418 0.7148
vn 0.4030 -0.5296 -0.7464
vn 0.4098 0.1269 0.9033
vn 0.4244 0.4404 -0.7911
vn 0.3173 0.0602 -0.9464
vn 0.2941 -0.0693 0.9533
vn 0.3179 -0.5525 -0.7705
vn 0.2053 -0.9436 -0.2599
vn 0.0130 -0.9190 -0.3941
vn 0.1506 -0.9222 -0.3562
vn 0.0146 -0.9888 -0.1488
vn -0.0587 -0.9296 -0.3638
vn -0.1202 -0.9602 -0.2523
vn 0.0999 -0.9803 -0.1701
vn 0.1977 -0.9685 -0.1516
vn -0.2134 -0.9620 -0.1702
vn -0.0031 -0.9984 -0.0570
vn 0.1856 -0.9824 -0.0206
vn -0.0688 -0.9976 0.0096
vn -0.2716 -0.9600 -0.0685
vn 0.1463 -0.9847 0.0952
vn 0.0840 -0.9880 0.1298
vn 0.3093 -0.9466 -0.0913
vn 0.0232 -0.9794 0.2004
vn -0.0713 -0.9937 0.0860
vn -0.2254 -0.9697 0.0937
vn -0.1067 -0.9795 0.1710
vn -0.3470 -0.9376 -0.0221
vn -0.3072 -0.9018 -0.3038
vn -0.4199 -0.8959 -0.1451
vn -0.3274 -0.8550 -0.4021
vn -0.2183 -0.8545 -0.4714
vn -0.3458 -0.9274 0.1426
vn -0.3589 -0.9331 0.0237
vn -0.1468 -0.9508 0.2727
vn 0.0371 -0.9555 0.2925
vn -0.1628 -0.9436 0.2882
vn -0.2635 -0.9104 0.3188
vn -0.4864 -0.8736 0.0118
vn -0.4385 -0.8953 0.0780
vn -0.4923 -0.8673 -0.0736
vn -0.4780 -0.8373 -0.2656
vn -0.4441 -0.8479 0.2895
vn -0.0861 -0.9054 0.4158
vn 0.1954 -0.9524 0.2341
vn 0.1280 -0.9592 0.2521
vn 0.2681 -0.9528 0.1424
vn 0.1072 -0.8935 0.4362
vn 0.3588 -0.9232 0.1380
vn 0.4520 -0.8910 0.0434
vn 0.2644 -0.9068 0.3283
vn 0.2252 -0.8819 0.4141
vn 0.3418 -0.9035 0.2585
vn 0.4708 -0.8810 -0.0467
vn 0.4519 -0.8787 -0.1539
vn 0.4026 -0.8801 -0.2516
vn 0.3168 -0.8657 -0.3876
vn 0.0761 -0.7914 0.6065
vn -0.2898 -0.8034 0.5201
vn -0.3287 -0.8073 0.4901
vn -0.3211 -0.8628 0.3904
vn 0.4982 -0.8292 0.2534
vn 0.5851 -0.7797 0.2231
vn 0.4552 -0.8037 0.3832
vn 0.3132 -0.8268 0.4672
vn -0.1288 -0.7742 0.6197
vn 0.2646 -0.7451 0.6122
vn -0.0811 -0.7837 -0.6158
vn 0.5887 -0.7966 -0.1374
vn 0.1641 -0.8176 -0.5519
vn 0.6863 -0.7178 0.1178
vn 0.5445 -0.7712 -0.3298
vn 0.4301 -0.7482 0.5052
vn 0.7239 -0.6889 0.0379
vn 0.7001 -0.7123 -0.0490
vn 0.6388 -0.7173 -0.2781
vn 0.4150 -0.7323 -0.5399
vn 0.6074 -0.7410 0.2865
vn 0.5692 -0.6870 -0.4517
vn -0.3911 -0.7459 -0.5392
vn -0.5553 -0.7597 -0.3383
vn 0.3860 -0.6543 0.6503
vn -0.0883 -0.6994 0.7092
vn 0.6072 -0.6314 0.4823
vn 0.5234 -0.6700 0.5264
vn 0.5408 -0.6266 0.5612
vn 0.7352 -0.6311 -0.2473
vn 0.6452 -0.7465 -0.1626
vn 0.7955 -0.5926 -0.1266
vn 0.6947 -0.6364 0.3353
vn 0.6390 -0.6597 -0.3955
vn -0.3348 -0.6929 -0.6386
vn 0.0665 -0.6068 -0.7921
vn 0.3179 -0.5525 -0.7705
vn 0.5163 -0.6086 -0.6025
vn 0.4030 -0.5296 -0.7464
vn -0.6215 -0.6083 -0.4937
vn 0.1666 -0.5629 0.8095
vn 0.3534 -0.5471 0.7588
vn -0.1086 -0.5299 -0.8411
vn -0.2951 -0.5371 -0.7902
vn -0.4903 -0.7104 0.5049
vn -0.3220 -0.6221 0.7136
vn 0.5518 -0.4587 0.6965
vn 0.5958 -0.4426 -0.6702
vn -0.2024 -0.3870 0.8996
vn 0.4745 -0.3335 0.8146
vn -0.3799 -0.4429 0.8121
vn 0.0505 -0.2644 0.9631
vn 0.0197 -0.3436 -0.9389
vn -0.1746 -0.3691 -0.9128
vn -0.2515 -0.1919 -0.9487
vn 0.1762 -0.2266 -0.9579
vn 0.2941 -0.0693 0.9533
vn 0.3173 0.0602 -0.9464
vn 0.3179 -0.5525 -0.7705
vn 0.1762 -0.2266 -0.9579
vn 0.4818 -0.1874 -0.8560
vn 0.1468 0.0077 -0.9891
vn -0.2515 -0.1919 -0.9487
vn 0.0197 -0.3436 -0.9389
vn -0.1746 -0.3691 -0.9128
vn 0.0505 -0.2644 0.9631
vn -0.1984 -0.0241 0.9798
vn -0.2024 -0.3870 0.8996
f 47/47/47 8/8/8 1/1/1
f 52/52/52 47/47/47 1/1/1
f 52/52/52 1/1/1 46/46/46
f 8/8/8 5/5/5 1/1/1
f 47/47/47 45/45/45 8/8/8
f 46/46/46 1/1/1 43/43/43
f 3/3/3 6/6/6 1/1/1
f 6/6/6 43/43/43 1/1/1
f 47/47/47 49/49/49 45/45/45
f 46/46/46 43/43/43 55/55/55
f 47/47/47 52/52/52 49/49/49
f 55/55/55 52/52/52 46/46/46
f 5/5/5 4/4/4 1/1/1
f 1/1/1 4/4/4 2/2/2
f 1/1/1 2/2/2 3/3/3
f 8/8/8 4/4/4 5/5/5
f 8/8/8 9/9/9 4/4/4
f 45/45/45 10/10/10 8/8/8
f 8/8/8 10/10/10 9/9/9
f 49/49/49 52/52/52 60/60/60
f 60/60/60 45/45/45 49/49/49
f 9/9/9 11/11/11 4/4/4
f 3/3/3 12/12/12 7/7/7
f 10/10/10 11/11/11 9/9/9
f 3/3/3 7/7/7 6/6/6
f 10/10/10 41/41/41 36/36/36
f 45/45/45 41/41/41 10/10/10
f 56/56/56 55/55/55 43/43/43
f 229/229/229 220/220/220 222/222/222
f 233/233/233 223/223/223 229/229/229
f 10/10/10 35/35/35 11/11/11
f 36/36/36 35/35/35 10/10/10
f 41/41/41 30/30/30 36/36/36
f 19/19/19 43/43/43 6/6/6
f 41/41/41 50/50/50 30/30/30
f 41/41/41 45/45/45 50/50/50
f 43/43/43 19/19/19 44/44/44
f 45/45/45 48/48/48 50/50/50
f 45/45/45 57/57/57 48/48/48
f 60/60/60 57/57/57 45/45/45
f 229/229/229 217/217/217 220/220/220
f 4/4/4 15/15/15 2/2/2
f 2/2/2 12/12/12 3/3/3
f 4/4/4 11/11/11 15/15/15
f 35/35/35 30/30/30 11/11/11
f 36/36/36 30/30/30 35/35/35
f 7/7/7 13/13/13 6/6/6
f 6/6/6 13/13/13 14/14/14
f 14/14/14 19/19/19 6/6/6
f 50/50/50 48/48/48 30/30/30
f 43/43/43 44/44/44 56/56/56
f 222/222/222 221/221/221 231/231/231
f 215/215/215 222/222/222 220/220/220
f 11/11/11 30/30/30 17/17/17
f 42/42/42 31/31/31 30/30/30
f 48/48/48 42/42/42 30/30/30
f 59/59/59 56/56/56 44/44/44
f 222/222/222 215/215/215 221/221/221
f 117/117/117 116/116/116 98/98/98
f 229/229/229 223/223/223 217/217/217
f 2/2/2 15/15/15 12/12/12
f 13/13/13 7/7/7 12/12/12
f 20/20/20 19/19/19 14/14/14
f 231/231/231 221/221/221 230/230/230
f 115/115/115 98/98/98 116/116/116
f 117/117/117 98/98/98 111/111/111
f 12/12/12 15/15/15 16/16/16
f 11/11/11 17/17/17 15/15/15
f 30/30/30 31/31/31 17/17/17
f 18/18/18 14/14/14 13/13/13
f 44/44/44 54/54/54 59/59/59
f 221/221/221 215/215/215 212/212/212
f 220/220/220 211/211/211 215/215/215
f 51/51/51 40/40/40 42/42/42
f 42/42/42 58/58/58 51/51/51
f 48/48/48 58/58/58 42/42/42
f 54/54/54 44/44/44 19/19/19
f 212/212/212 186/186/186 221/221/221
f 110/110/110 98/98/98 115/115/115
f 223/223/223 219/219/219 217/217/217
f 220/220/220 217/217/217 211/211/211
f 13/13/13 12/12/12 18/18/18
f 17/17/17 31/31/31 32/32/32
f 48/48/48 70/70/70 58/58/58
f 230/230/230 186/186/186 188/188/188
f 186/186/186 230/230/230 221/221/221
f 97/97/97 111/111/111 98/98/98
f 112/112/112 111/111/111 97/97/97
f 16/16/16 22/22/22 12/12/12
f 17/17/17 32/32/32 34/34/34
f 42/42/42 40/40/40 31/31/31
f 20/20/20 29/29/29 19/19/19
f 29/29/29 53/53/53 19/19/19
f 110/110/110 115/115/115 124/124/124
f 219/219/219 218/218/218 217/217/217
f 216/216/216 217/217/217 218/218/218
f 24/24/24 22/22/22 16/16/16
f 16/16/16 15/15/15 24/24/24
f 31/31/31 40/40/40 32/32/32
f 27/27/27 28/28/28 14/14/14
f 27/27/27 14/14/14 21/21/21
f 14/14/14 29/29/29 20/20/20
f 53/53/53 54/54/54 19/19/19
f 187/187/187 188/188/188 186/186/186
f 186/186/186 212/212/212 211/211/211
f 215/215/215 211/211/211 212/212/212
f 211/211/211 217/217/217 216/216/216
f 17/17/17 33/33/33 15/15/15
f 17/17/17 34/34/34 33/33/33
f 21/21/21 18/18/18 25/25/25
f 18/18/18 21/21/21 14/14/14
f 28/28/28 29/29/29 14/14/14
f 188/188/188 228/228/228 230/230/230
f 113/113/113 110/110/110 124/124/124
f 22/22/22 23/23/23 12/12/12
f 18/18/18 12/12/12 23/23/23
f 15/15/15 33/33/33 24/24/24
f 187/187/187 184/184/184 188/188/188
f 186/186/186 184/184/184 187/187/187
f 18/18/18 26/26/26 25/25/25
f 39/39/39 29/29/29 28/28/28
f 53/53/53 29/29/29 39/39/39
f 124/124/124 120/120/120 113/113/113
f 88/88/88 98/98/98 110/110/110
f 189/189/189 185/185/185 186/186/186
f 190/190/190 186/186/186 211/211/211
f 189/189/189 190/190/190 211/211/211
f 209/209/209 189/189/189 211/211/211
f 209/209/209 211/211/211 216/216/216
f 376/376/376 365/365/365 374/374/374
f 62/62/62 63/63/63 40/40/40
f 51/51/51 61/61/61 40/40/40
f 51/51/51 58/58/58 61/61/61
f 184/184/184 228/228/228 188/188/188
f 86/86/86 88/88/88 110/110/110
f 186/186/186 185/185/185 184/184/184
f 365/365/365 363/363/363 374/374/374
f 18/18/18 23/23/23 26/26/26
f 432/432/432 366/366/366 416/416/416
f 40/40/40 61/61/61 62/62/62
f 53/53/53 67/67/67 54/54/54
f 189/189/189 186/186/186 190/190/190
f 374/374/374 368/368/368 375/375/375
f 416/416/416 366/366/366 377/377/377
f 58/58/58 70/70/70 75/75/75
f 183/183/183 228/228/228 184/184/184
f 87/87/87 98/98/98 88/88/88
f 374/374/374 363/363/363 369/369/369
f 374/374/374 369/369/369 368/368/368
f 366/366/366 364/364/364 377/377/377
f 27/27/27 39/39/39 28/28/28
f 61/61/61 58/58/58 71/71/71
f 58/58/58 75/75/75 71/71/71
f 86/86/86 110/110/110 113/113/113
f 185/185/185 182/182/182 184/184/184
f 185/185/185 189/189/189 191/191/191
f 87/87/87 97/97/97 98/98/98
f 365/365/365 355/355/355 363/363/363
f 37/37/37 21/21/21 25/25/25
f 415/415/415 366/366/366 432/432/432
f 73/73/73 67/67/67 53/53/53
f 208/208/208 195/195/195 189/189/189
f 87/87/87 94/94/94 97/97/97
f 91/91/91 100/100/100 94/94/94
f 365/365/365 377/377/377 364/364/364
f 62/62/62 68/68/68 63/63/63
f 68/68/68 62/62/62 61/61/61
f 61/61/61 71/71/71 69/69/69
f 195/195/195 193/193/193 189/189/189
f 209/209/209 208/208/208 189/189/189
f 91/91/91 96/96/96 100/100/100
f 363/363/363 368/368/368 369/369/369
f 365/365/365 351/351/351 355/355/355
f 373/373/373 378/378/378 368/368/368
f 378/378/378 373/373/373 396/396/396
f 64/64/64 39/39/39 27/27/27
f 61/61/61 69/69/69 68/68/68
f 66/66/66 53/53/53 39/39/39
f 126/126/126 119/119/119 120/120/120
f 183/183/183 226/226/226 228/228/228
f 109/109/109 113/113/113 120/120/120
f 182/182/182 183/183/183 184/184/184
f 193/193/193 185/185/185 191/191/191
f 189/189/189 193/193/193 191/191/191
f 37/37/37 27/27/27 21/21/21
f 395/395/395 394/394/394 437/437/437
f 64/64/64 65/65/65 39/39/39
f 88/88/88 86/86/86 78/78/78
f 38/38/38 27/27/27 37/37/37
f 415/415/415 367/367/367 366/366/366
f 192/192/192 182/182/182 185/185/185
f 193/193/193 192/192/192 185/185/185
f 88/88/88 78/78/78 87/87/87
f 363/363/363 355/355/355 361/361/361
f 363/363/363 361/361/361 368/368/368
f 351/351/351 365/365/365 364/364/364
f 109/109/109 120/120/120 119/119/119
f 86/86/86 113/113/113 109/109/109
f 68/68/68 69/69/69 72/72/72
f 39/39/39 65/65/65 66/66/66
f 77/77/77 69/69/69 71/71/71
f 74/74/74 53/53/53 66/66/66
f 196/196/196 226/226/226 183/183/183
f 79/79/79 86/86/86 109/109/109
f 361/361/361 370/370/370 368/368/368
f 370/370/370 372/372/372 368/368/368
f 372/372/372 373/373/373 368/368/368
f 74/74/74 73/73/73 53/53/53
f 226/226/226 237/237/237 238/238/238
f 182/182/182 196/196/196 183/183/183
f 78/78/78 86/86/86 79/79/79
f 72/72/72 69/69/69 77/77/77
f 89/89/89 96/96/96 91/91/91
f 89/89/89 95/95/95 96/96/96
f 355/355/355 354/354/354 361/361/361
f 364/364/364 348/348/348 351/351/351
f 373/373/373 395/395/395 396/396/396
f 118/118/118 119/119/119 126/126/126
f 194/194/194 192/192/192 193/193/193
f 193/193/193 200/200/200 194/194/194
f 195/195/195 200/200/200 193/193/193
f 379/379/379 373/373/373 372/372/372
f 395/395/395 373/373/373 394/394/394
f 232/232/232 226/226/226 196/196/196
f 80/80/80 87/87/87 78/78/78
f 87/87/87 91/91/91 94/94/94
f 355/355/355 351/351/351 354/354/354
f 370/370/370 361/361/361 362/362/362
f 364/364/364 366/366/366 348/348/348
f 379/379/379 394/394/394 373/373/373
f 415/415/415 427/427/427 367/367/367
f 443/443/443 438/438/438 441/441/441
f 118/118/118 126/126/126 127/127/127
f 232/232/232 237/237/237 226/226/226
f 85/85/85 109/109/109 119/119/119
f 182/182/182 197/197/197 196/196/196
f 427/427/427 436/436/436 403/403/403
f 435/435/435 436/436/436 447/447/447
f 435/435/435 447/447/447 446/446/446
f 192/192/192 197/197/197 182/182/182
f 194/194/194 200/200/200 192/192/192
f 207/207/207 200/200/200 195/195/195
f 207/207/207 195/195/195 208/208/208
f 348/348/348 366/366/366 347/347/347
f 367/367/367 347/347/347 366/366/366
f 367/367/367 427/427/427 403/403/403
f 394/394/394 418/418/418 438/438/438
f 441/441/441 438/438/438 418/418/418
f 76/76/76 73/73/73 74/74/74
f 199/199/199 192/192/192 200/200/200
f 89/89/89 91/91/91 87/87/87
f 354/354/354 360/360/360 361/361/361
f 360/360/360 359/359/359 361/361/361
f 359/359/359 362/362/362 361/361/361
f 401/401/401 418/418/418 394/394/394
f 403/403/403 436/436/436 435/435/435
f 458/458/458 459/459/459 460/460/460
f 119/119/119 118/118/118 85/85/85
f 199/199/199 198/198/198 192/192/192
f 346/346/346 352/352/352 351/351/351
f 348/348/348 346/346/346 351/351/351
f 367/367/367 403/403/403 347/347/347
f 232/232/232 196/196/196 225/225/225
f 202/202/202 225/225/225 196/196/196
f 197/197/197 202/202/202 196/196/196
f 79/79/79 109/109/109 85/85/85
f 197/197/197 192/192/192 198/198/198
f 80/80/80 89/89/89 87/87/87
f 370/370/370 379/379/379 372/372/372
f 352/352/352 354/354/354 351/351/351
f 362/362/362 371/371/371 370/370/370
f 379/379/379 401/401/401 394/394/394
f 446/446/446 428/428/428 435/435/435
f 457/457/457 455/455/455 456/456/456
f 118/118/118 127/127/127 125/125/125
f 202/202/202 197/197/197 225/225/225
f 207/207/207 210/210/210 200/200/200
f 359/359/359 371/371/371 362/362/362
f 232/232/232 236/236/236 237/237/237
f 232/232/232 225/225/225 236/236/236
f 78/78/78 79/79/79 80/80/80
f 371/371/371 379/379/379 370/370/370
f 347/347/347 403/403/403 344/344/344
f 435/435/435 428/428/428 403/403/403
f 114/114/114 108/108/108 85/85/85
f 197/197/197 198/198/198 201/201/201
f 92/92/92 95/95/95 89/89/89
f 354/354/354 359/359/359 360/360/360
f 347/347/347 346/346/346 348/348/348
f 85/85/85 118/118/118 114/114/114
f 79/79/79 85/85/85 81/81/81
f 80/80/80 79/79/79 81/81/81
f 81/81/81 82/82/82 80/80/80
f 401/401/401 379/379/379 393/393/393
f 433/433/433 441/441/441 418/418/418
f 445/445/445 428/428/428 446/446/446
f 455/455/455 452/452/452 456/456/456
f 130/130/130 125/125/125 127/127/127
f 125/125/125 114/114/114 118/118/118
f 83/83/83 89/89/89 80/80/80
f 347/347/347 344/344/344 346/346/346
f 359/359/359 383/383/383 371/371/371
f 371/371/371 393/393/393 379/379/379
f 393/393/393 418/418/418 401/401/401
f 405/405/405 403/403/403 428/428/428
f 433/433/433 444/444/444 441/441/441
f 224/224/224 225/225/225 197/197/197
f 85/85/85 108/108/108 81/81/81
f 198/198/198 199/199/199 203/203/203
f 200/200/200 203/203/203 199/199/199
f 84/84/84 90/90/90 89/89/89
f 90/90/90 92/92/92 89/89/89
f 201/201/201 224/224/224 197/197/197
f 198/198/198 206/206/206 201/201/201
f 205/205/205 203/203/203 200/200/200
f 92/92/92 99/99/99 95/95/95
f 357/357/357 359/359/359 354/354/354
f 455/455/455 454/454/454 452/452/452
f 128/128/128 125/125/125 130/130/130
f 83/83/83 80/80/80 82/82/82
f 89/89/89 83/83/83 84/84/84
f 200/200/200 210/210/210 213/213/213
f 352/352/352 356/356/356 354/354/354
f 356/356/356 357/357/357 354/354/354
f 383/383/383 393/393/393 371/371/371
f 405/405/405 344/344/344 403/403/403
f 433/433/433 418/418/418 393/393/393
f 224/224/224 201/201/201 206/206/206
f 213/213/213 205/205/205 200/200/200
f 344/344/344 343/343/343 346/346/346
f 349/349/349 346/346/346 343/343/343
f 198/198/198 203/203/203 204/204/204
f 346/346/346 353/353/353 352/352/352
f 353/353/353 356/356/356 352/352/352
f 349/349/349 353/353/353 346/346/346
f 381/381/381 383/383/383 359/359/359
f 225/225/225 234/234/234 236/236/236
f 225/225/225 224/224/224 234/234/234
f 102/102/102 103/103/103 99/99/99
f 102/102/102 99/99/99 92/92/92
f 343/343/343 344/344/344 345/345/345
f 445/445/445 429/429/429 428/428/428
f 445/445/445 448/448/448 429/429/429
f 206/206/206 198/198/198 214/214/214
f 81/81/81 107/107/107 82/82/82
f 198/198/198 204/204/204 214/214/214
f 84/84/84 83/83/83 82/82/82
f 213/213/213 203/203/203 205/205/205
f 350/350/350 353/353/353 349/349/349
f 356/356/356 359/359/359 357/357/357
f 359/359/359 356/356/356 380/380/380
f 359/359/359 380/380/380 381/381/381
f 405/405/405 392/392/392 344/344/344
f 345/345/345 344/344/344 392/392/392
f 402/402/402 393/393/393 383/383/383
f 114/114/114 121/121/121 108/108/108
f 206/206/206 227/227/227 224/224/224
f 214/214/214 227/227/227 206/206/206
f 108/108/108 107/107/107 81/81/81
f 92/92/92 90/90/90 93/93/93
f 349/349/349 343/343/343 350/350/350
f 381/381/381 380/380/380 383/383/383
f 386/386/386 387/387/387 383/383/383
f 402/402/402 433/433/433 393/393/393
f 449/449/449 444/444/444 433/433/433
f 103/103/103 151/151/151 157/157/157
f 380/380/380 386/386/386 383/383/383
f 400/400/400 402/402/402 383/383/383
f 429/429/429 405/405/405 428/428/428
f 114/114/114 125/125/125 128/128/128
f 224/224/224 227/227/227 234/234/234
f 104/104/104 84/84/84 82/82/82
f 102/102/102 151/151/151 103/103/103
f 101/101/101 102/102/102 92/92/92
f 387/387/387 400/400/400 383/383/383
f 417/417/417 433/433/433 402/402/402
f 417/417/417 434/434/434 433/433/433
f 450/450/450 451/451/451 452/452/452
f 128/128/128 121/121/121 114/114/114
f 101/101/101 92/92/92 93/93/93
f 433/433/433 442/442/442 449/449/449
f 450/450/450 453/453/453 451/451/451
f 454/454/454 450/450/450 452/452/452
f 234/234/234 239/239/239 236/236/236
f 150/150/150 145/145/145 148/148/148
f 84/84/84 104/104/104 105/105/105
f 90/90/90 84/84/84 93/93/93
f 356/356/356 382/382/382 380/380/380
f 392/392/392 343/343/343 345/345/345
f 433/433/433 434/434/434 442/442/442
f 342/342/342 333/333/333 337/337/337
f 129/129/129 121/121/121 128/128/128
f 148/148/148 179/179/179 180/180/180
f 157/157/157 145/145/145 150/150/150
f 400/400/400 417/417/417 402/402/402
f 405/405/405 429/429/429 412/412/412
f 429/429/429 431/431/431 412/412/412
f 338/338/338 341/341/341 331/331/331
f 121/121/121 107/107/107 108/108/108
f 143/143/143 179/179/179 148/148/148
f 107/107/107 104/104/104 82/82/82
f 157/157/157 151/151/151 146/146/146
f 392/392/392 391/391/391 343/343/343
f 380/380/380 388/388/388 386/386/386
f 400/400/400 387/387/387 386/386/386
f 405/405/405 412/412/412 392/392/392
f 107/107/107 121/121/121 122/122/122
f 148/148/148 144/144/144 143/143/143
f 139/139/139 148/148/148 145/145/145
f 157/157/157 146/146/146 145/145/145
f 353/353/353 384/384/384 356/356/356
f 356/356/356 384/384/384 382/382/382
f 101/101/101 93/93/93 84/84/84
f 350/350/350 358/358/358 353/353/353
f 384/384/384 380/380/380 382/382/382
f 399/399/399 400/400/400 386/386/386
f 400/400/400 408/408/408 417/417/417
f 234/234/234 235/235/235 239/239/239
f 227/227/227 235/235/235 234/234/234
f 139/139/139 144/144/144 148/148/148
f 84/84/84 105/105/105 101/101/101
f 153/153/153 151/151/151 102/102/102
f 390/390/390 350/350/350 343/343/343
f 390/390/390 358/358/358 350/350/350
f 380/380/380 384/384/384 388/388/388
f 417/417/417 442/442/442 434/434/434
f 340/340/340 322/322/322 333/333/333
f 121/121/121 129/129/129 122/122/122
f 104/104/104 107/107/107 105/105/105
f 106/106/106 102/102/102 101/101/101
f 358/358/358 385/385/385 353/353/353
f 353/353/353 385/385/385 384/384/384
f 302/302/302 338/338/338 331/331/331
f 339/339/339 322/322/322 340/340/340
f 343/343/343 391/391/391 390/390/390
f 399/399/399 408/408/408 400/400/400
f 430/430/430 414/414/414 412/412/412
f 408/408/408 421/421/421 417/417/417
f 431/431/431 430/430/430 412/412/412
f 442/442/442 417/417/417 439/439/439
f 440/440/440 430/430/430 431/431/431
f 106/106/106 101/101/101 105/105/105
f 153/153/153 102/102/102 158/158/158
f 397/397/397 386/386/386 388/388/388
f 421/421/421 439/439/439 417/417/417
f 333/333/333 330/330/330 337/337/337
f 336/336/336 338/338/338 302/302/302
f 179/179/179 143/143/143 149/149/149
f 122/122/122 123/123/123 107/107/107
f 139/139/139 143/143/143 144/144/144
f 178/178/178 105/105/105 107/107/107
f 151/151/151 135/135/135 146/146/146
f 358/358/358 390/390/390 389/389/389
f 334/334/334 322/322/322 339/339/339
f 123/123/123 178/178/178 107/107/107
f 145/145/145 146/146/146 135/135/135
f 385/385/385 358/358/358 389/389/389
f 407/407/407 391/391/391 392/392/392
f 386/386/386 397/397/397 399/399/399
f 420/420/420 421/421/421 408/408/408
f 331/331/331 332/332/332 316/316/316
f 145/145/145 138/138/138 139/139/139
f 391/391/391 404/404/404 390/390/390
f 392/392/392 412/412/412 414/414/414
f 419/419/419 408/408/408 399/399/399
f 332/332/332 318/318/318 316/316/316
f 323/323/323 330/330/330 333/333/333
f 322/322/322 323/323/323 333/333/333
f 175/175/175 105/105/105 178/178/178
f 175/175/175 171/171/171 105/105/105
f 158/158/158 102/102/102 106/106/106
f 385/385/385 398/398/398 384/384/384
f 397/397/397 388/388/388 384/384/384
f 407/407/407 392/392/392 414/414/414
f 419/419/419 421/421/421 420/420/420
f 408/408/408 419/419/419 420/420/420
f 331/331/331 316/316/316 300/300/300
f 302/302/302 331/331/331 300/300/300
f 139/139/139 140/140/140 143/143/143
f 132/132/132 140/140/140 139/139/139
f 138/138/138 132/132/132 139/139/139
f 135/135/135 138/138/138 145/145/145
f 105/105/105 171/171/171 168/168/168
f 168/168/168 161/161/161 105/105/105
f 161/161/161 106/106/106 105/105/105
f 156/156/156 158/158/158 106/106/106
f 143/143/143 140/140/140 149/149/149
f 153/153/153 152/152/152 151/151/151
f 161/161/161 156/156/156 106/106/106
f 398/398/398 397/397/397 384/384/384
f 397/397/397 413/413/413 399/399/399
f 328/328/328 329/329/329 315/315/315
f 315/315/315 329/329/329 330/330/330
f 294/294/294 336/336/336 302/302/302
f 320/320/320 322/322/322 334/334/334
f 177/177/177 178/178/178 123/123/123
f 132/132/132 138/138/138 136/136/136
f 178/178/178 171/171/171 175/175/175
f 136/136/136 138/138/138 135/135/135
f 153/153/153 158/158/158 156/156/156
f 391/391/391 407/407/407 404/404/404
f 399/399/399 413/413/413 419/419/419
f 317/317/317 316/316/316 318/318/318
f 324/324/324 315/315/315 330/330/330
f 123/123/123 122/122/122 181/181/181
f 171/171/171 178/178/178 177/177/177
f 135/135/135 151/151/151 152/152/152
f 161/161/161 168/168/168 169/169/169
f 169/169/169 168/168/168 171/171/171
f 152/152/152 153/153/153 154/154/154
f 161/161/161 162/162/162 159/159/159
f 390/390/390 404/404/404 389/389/389
f 317/317/317 299/299/299 316/316/316
f 316/316/316 299/299/299 300/300/300
f 324/324/324 330/330/330 323/323/323
f 293/293/293 302/302/302 300/300/300
f 335/335/335 320/320/320 334/334/334
f 177/177/177 123/123/123 181/181/181
f 132/132/132 141/141/141 140/140/140
f 174/174/174 171/171/171 177/177/177
f 174/174/174 169/169/169 171/171/171
f 136/136/136 135/135/135 132/132/132
f 156/156/156 154/154/154 153/153/153
f 406/406/406 398/398/398 385/385/385
f 426/426/426 407/407/407 414/414/414
f 413/413/413 425/425/425 419/419/419
f 310/310/310 326/326/326 328/328/328
f 320/320/320 335/335/335 321/321/321
f 141/141/141 147/147/147 140/140/140
f 176/176/176 174/174/174 177/177/177
f 159/159/159 156/156/156 161/161/161
f 409/409/409 406/406/406 385/385/385
f 397/397/397 398/398/398 413/413/413
f 407/407/407 411/411/411 404/404/404
f 326/326/326 310/310/310 325/325/325
f 305/305/305 317/317/317 304/304/304
f 293/293/293 300/300/300 299/299/299
f 322/322/322 254/254/254 323/323/323
f 320/320/320 254/254/254 322/322/322
f 302/302/302 293/293/293 294/294/294
f 285/285/285 298/298/298 294/294/294
f 285/285/285 292/292/292 298/298/298
f 176/176/176 169/169/169 174/174/174
f 132/132/132 135/135/135 134/134/134
f 162/162/162 161/161/161 169/169/169
f 135/135/135 152/152/152 154/154/154
f 162/162/162 160/160/160 159/159/159
f 410/410/410 389/389/389 404/404/404
f 409/409/409 389/389/389 410/410/410
f 409/409/409 385/385/385 389/389/389
f 325/325/325 312/312/312 327/327/327
f 310/310/310 307/307/307 325/325/325
f 305/305/305 303/303/303 317/317/317
f 303/303/303 299/299/299 317/317/317
f 315/315/315 324/324/324 323/323/323
f 297/297/297 293/293/293 299/299/299
f 321/321/321 319/319/319 320/320/320
f 167/167/167 162/162/162 170/170/170
f 135/135/135 155/155/155 137/137/137
f 155/155/155 135/135/135 154/154/154
f 154/154/154 156/156/156 159/159/159
f 411/411/411 422/422/422 404/404/404
f 404/404/404 422/422/422 423/423/423
f 398/398/398 425/425/425 413/413/413
f 325/325/325 307/307/307 312/312/312
f 310/310/310 328/328/328 315/315/315
f 319/319/319 254/254/254 320/320/320
f 288/288/288 298/298/298 292/292/292
f 132/132/132 142/142/142 141/141/141
f 142/142/142 132/132/132 131/131/131
f 131/131/131 132/132/132 133/133/133
f 134/134/134 133/133/133 132/132/132
f 170/170/170 162/162/162 169/169/169
f 134/134/134 135/135/135 137/137/137
f 296/296/296 304/304/304 313/313/313
f 304/304/304 303/303/303 305/305/305
f 310/310/310 315/315/315 311/311/311
f 255/255/255 311/311/311 315/315/315
f 254/254/254 315/315/315 323/323/323
f 255/255/255 315/315/315 254/254/254
f 285/285/285 294/294/294 293/293/293
f 286/286/286 254/254/254 319/319/319
f 172/172/172 169/169/169 176/176/176
f 172/172/172 170/170/170 169/169/169
f 154/154/154 159/159/159 160/160/160
f 163/163/163 160/160/160 162/162/162
f 423/423/423 424/424/424 404/404/404
f 266/266/266 313/313/313 314/314/314
f 314/314/314 269/269/269 266/266/266
f 296/296/296 306/306/306 304/304/304
f 306/306/306 297/297/297 304/304/304
f 297/297/297 303/303/303 304/304/304
f 297/297/297 299/299/299 303/303/303
f 270/270/270 285/285/285 293/293/293
f 424/424/424 423/423/423 422/422/422
f 266/266/266 296/296/296 313/313/313
f 307/307/307 310/310/310 246/246/246
f 310/310/310 255/255/255 246/246/246
f 255/255/255 310/310/310 311/311/311
f 271/271/271 270/270/270 293/293/293
f 257/257/257 254/254/254 286/286/286
f 281/281/281 286/286/286 287/287/287
f 285/285/285 282/282/282 292/292/292
f 282/282/282 288/288/288 292/292/292
f 289/289/289 290/290/290 288/288/288
f 410/410/410 404/404/404 424/424/424
f 297/297/297 306/306/306 296/296/296
f 271/271/271 293/293/293 295/295/295
f 293/293/293 297/297/297 295/295/295
f 270/270/270 282/282/282 285/285/285
f 281/281/281 257/257/257 286/286/286
f 257/257/257 281/281/281 256/256/256
f 276/276/276 288/288/288 282/282/282
f 276/276/276 289/289/289 288/288/288
f 166/166/166 163/163/163 162/162/162
f 166/166/166 162/162/162 167/167/167
f 165/165/165 160/160/160 163/163/163
f 312/312/312 245/245/245 301/301/301
f 245/245/245 312/312/312 307/307/307
f 266/266/266 268/268/268 296/296/296
f 249/249/249 307/307/307 246/246/246
f 296/296/296 295/295/295 297/297/297
f 271/271/271 295/295/295 296/296/296
f 255/255/255 254/254/254 246/246/246
f 256/256/256 254/254/254 257/257/257
f 282/282/282 270/270/270 273/273/273
f 273/273/273 276/276/276 282/282/282
f 256/256/256 281/281/281 278/278/278
f 276/276/276 291/291/291 289/289/289
f 283/283/283 284/284/284 276/276/276
f 276/276/276 284/284/284 291/291/291
f 166/166/166 167/167/167 173/173/173
f 164/164/164 154/154/154 160/160/160
f 164/164/164 160/160/160 165/165/165
f 308/308/308 269/269/269 314/314/314
f 309/309/309 241/241/241 308/308/308
f 245/245/245 307/307/307 244/244/244
f 249/249/249 244/244/244 307/307/307
f 268/268/268 271/271/271 296/296/296
f 265/265/265 270/270/270 271/271/271
f 254/254/254 253/253/253 246/246/246
f 253/253/253 254/254/254 256/256/256
f 278/278/278 279/279/279 253/253/253
f 273/273/273 272/272/272 276/276/276
f 272/272/272 283/283/283 276/276/276
f 164/164/164 155/155/155 154/154/154
f 275/275/275 277/277/277 283/283/283
f 301/301/301 241/241/241 309/309/309
f 308/308/308 241/241/241 269/269/269
f 265/265/265 271/271/271 268/268/268
f 264/264/264 273/273/273 270/270/270
f 253/253/253 256/256/256 278/278/278
f 263/263/263 272/272/272 273/273/273
f 253/253/253 279/279/279 280/280/280
f 275/275/275 283/283/283 272/272/272
f 245/245/245 241/241/241 301/301/301
f 266/266/266 265/265/265 268/268/268
f 249/249/249 246/246/246 244/244/244
f 265/265/265 264/264/264 270/270/270
f 253/253/253 248/248/248 246/246/246
f 264/264/264 263/263/263 273/273/273
f 253/253/253 280/280/280 262/262/262
f 258/258/258 277/277/277 275/275/275
f 258/258/258 275/275/275 272/272/272
f 259/259/259 274/274/274 277/277/277
f 245/245/245 244/244/244 241/241/241
f 244/244/244 246/246/246 242/242/242
f 246/246/246 248/248/248 247/247/247
f 253/253/253 247/247/247 248/248/248
f 247/247/247 253/253/253 251/251/251
f 261/261/261 264/264/264 265/265/265
f 261/261/261 263/263/263 264/264/264
f 252/252/252 253/253/253 262/262/262
f 260/260/260 258/258/258 272/272/272
f 260/260/260 272/272/272 263/263/263
f 274/274/274 252/252/252 262/262/262
f 259/259/259 252/252/252 274/274/274
f 258/258/258 259/259/259 277/277/277
f 269/269/269 241/241/241 240/240/240
f 266/266/266 269/269/269 267/267/267
f 269/269/269 240/240/240 267/267/267
f 244/244/244 242/242/242 241/241/241
f 267/267/267 261/261/261 266/266/266
f 266/266/266 261/261/261 265/265/265
f 242/242/242 246/246/246 247/247/247
f 260/260/260 263/263/263 261/261/261
f 252/252/252 251/251/251 253/253/253
f 240/240/240 241/241/241 242/242/242
f 267/267/267 240/240/240 261/261/261
f 261/261/261 240/240/240 260/260/260
f 242/242/242 243/243/243 240/240/240
f 242/242/242 247/247/247 251/251/251
f 251/251/251 252/252/252 242/242/242
f 242/242/242 252/252/252 250/250/250
f 242/242/242 250/250/250 243/243/243
f 243/243/243 258/258/258 240/240/240
f 240/240/240 258/258/258 260/260/260
f 250/250/250 252/252/252 259/259/259
f 258/258/258 250/250/250 259/259/259
f 250/250/250 258/258/258 243/243/243
