# GoldGuppy / DorsalFin  (local frame of part 'DorsalFin', bbox-centred; -Z = front)
v -0.01248 0.26963 0.11140
v 0.00360 0.27254 0.07857
v -0.01585 0.24923 -0.02378
v -0.03369 0.24256 0.01840
v -0.03997 0.19172 -0.08618
v -0.05309 0.20730 0.05855
v -0.03023 0.24804 0.14086
v -0.01707 0.20727 -0.11064
v -0.02943 0.12601 -0.19528
v -0.01076 0.24732 0.20671
v 0.00290 0.24641 -0.04298
v 0.01302 0.26262 0.15096
v 0.01908 0.25316 0.00258
v -0.00465 -0.27254 -0.12956
v 0.01638 -0.26638 -0.05673
v -0.01015 -0.26783 -0.03279
v 0.01827 -0.24768 0.02284
v -0.00374 -0.24517 0.05064
v 0.00972 -0.21843 0.10071
v 0.02122 -0.26121 -0.12808
v 0.00227 -0.25697 -0.19301
v 0.01406 -0.24221 -0.21147
v -0.01489 -0.19290 0.13869
v -0.01630 0.17852 0.28092
v -0.02232 0.22379 0.22828
v -0.03743 0.18159 0.23800
v -0.02182 0.10658 0.30239
v -0.05848 0.10675 0.21018
v -0.05209 0.06423 0.24421
v -0.05060 0.19513 0.16170
v -0.07316 0.11403 0.10019
v -0.07806 0.02390 0.10993
v -0.07146 -0.02564 0.14416
v -0.05612 -0.05205 0.19646
v -0.05427 -0.01654 0.22197
v -0.02619 0.00839 0.29029
v -0.03149 -0.10011 0.22074
v -0.01076 0.24732 0.20671
v -0.03023 0.24804 0.14086
v -0.00550 0.04225 0.31234
v -0.00882 -0.05219 0.27677
v -0.00284 0.15865 0.29910
v -0.01358 -0.10795 0.23477
v 0.00557 0.21251 0.26006
v 0.00709 0.10014 0.31293
v 0.00696 -0.01450 0.29511
v 0.01756 0.13488 0.29792
v -0.00284 0.15865 0.29910
v 0.00709 0.10014 0.31293
v 0.00557 0.21251 0.26006
v 0.02669 0.18263 0.25873
v 0.01752 0.23784 0.21055
v 0.04253 0.10854 0.25828
v 0.04640 0.17637 0.20130
v 0.05416 0.10168 0.22071
v 0.04081 0.02883 0.26702
v 0.01763 0.02868 0.30220
v 0.03578 0.23947 0.11280
v 0.01302 0.26262 0.15096
v -0.00550 0.04225 0.31234
v 0.00696 -0.01450 0.29511
v -0.01076 0.24732 0.20671
v 0.03470 -0.19211 0.09911
v 0.04551 -0.13922 0.14174
v 0.00724 -0.16764 0.17615
v 0.02112 -0.11503 0.21944
v 0.03911 -0.09121 0.20894
v 0.00972 -0.21843 0.10071
v 0.01827 -0.24768 0.02284
v 0.01405 -0.06396 0.26566
v 0.05432 -0.18689 0.01545
v 0.03720 -0.23594 -0.02458
v 0.05231 -0.04573 0.20637
v 0.06195 -0.06044 0.15844
v 0.06902 -0.06954 0.11044
v 0.06548 -0.15457 -0.01440
v 0.04832 -0.21229 -0.11135
v 0.07665 -0.06436 0.04335
v 0.05957 0.00409 0.20303
v 0.05737 -0.00705 0.20789
v 0.07607 -0.09246 -0.02694
v 0.06767 0.02500 0.16850
v 0.07621 -0.02352 0.08745
v 0.07716 -0.03475 0.06853
v 0.05968 -0.15511 -0.14347
v 0.07632 0.03769 0.09885
v 0.07937 -0.03770 -0.04954
v 0.08078 0.01289 0.00400
v 0.07977 0.00649 0.04990
v 0.06616 0.08052 0.16820
v 0.07774 0.06070 0.06073
v 0.06666 0.12229 0.13009
v 0.03708 -0.21503 -0.19061
v 0.04486 -0.16596 -0.22081
v 0.05397 0.16105 0.17923
v 0.07603 0.08702 0.00747
v 0.07906 0.04627 -0.01795
v 0.06005 0.17693 0.06408
v 0.06010 0.16252 0.12779
v 0.02122 -0.26121 -0.12808
v 0.01638 -0.26638 -0.05673
v 0.01947 -0.17392 -0.27861
v 0.01406 -0.24221 -0.21147
v -0.01358 -0.10795 0.23477
v -0.00882 -0.05219 0.27677
v 0.00197 -0.00727 -0.29990
v -0.01764 0.08190 -0.24702
v 0.01776 0.04783 -0.26659
v -0.00155 0.10038 -0.24058
v 0.00290 0.15235 -0.19192
v -0.02943 0.12601 -0.19528
v -0.01707 0.20727 -0.11064
v -0.00280 0.20112 -0.12987
v -0.02446 -0.03343 -0.29333
v -0.01081 -0.07275 -0.31107
v -0.07181 -0.09125 -0.13425
v -0.05540 -0.15691 -0.19041
v -0.06028 -0.16326 -0.14941
v -0.04929 -0.10567 -0.24485
v -0.07759 -0.04768 -0.09735
v -0.05367 -0.02372 -0.22826
v -0.07605 0.05836 -0.07000
v -0.05718 0.09820 -0.14627
v -0.08078 -0.04120 0.00803
v -0.06681 -0.16084 -0.04273
v -0.07316 0.11403 0.10019
v -0.07806 0.02390 0.10993
v -0.06746 0.14740 -0.00486
v -0.06762 -0.13442 0.04508
v -0.07146 -0.02564 0.14416
v -0.05859 0.14845 -0.07724
v -0.04373 0.03698 -0.23294
v -0.04679 -0.22242 -0.11235
v -0.05060 0.19513 0.16170
v -0.05309 0.20730 0.05855
v -0.02608 -0.17902 -0.26841
v -0.03525 -0.21169 -0.21210
v -0.03369 0.24256 0.01840
v -0.03997 0.19172 -0.08618
v -0.02320 -0.11393 -0.29890
v -0.03023 0.24804 0.14086
v -0.00204 -0.16658 -0.29596
v 0.00272 -0.10273 -0.31293
v -0.04290 -0.22758 -0.01814
v -0.02649 -0.25893 -0.11705
v -0.01015 -0.26783 -0.03279
v -0.03033 -0.23409 0.03172
v -0.04837 -0.17733 0.08269
v -0.03218 -0.18402 0.12359
v -0.03403 -0.23494 -0.17223
v -0.05612 -0.05205 0.19646
v -0.03149 -0.10011 0.22074
v -0.01773 -0.24266 -0.20784
v -0.00666 -0.20952 -0.26455
v -0.01489 -0.19290 0.13869
v -0.00374 -0.24517 0.05064
v -0.01358 -0.10795 0.23477
v -0.00465 -0.27254 -0.12956
v 0.00227 -0.25697 -0.19301
v 0.00724 -0.16764 0.17615
v -0.01081 -0.07275 -0.31107
v 0.00197 -0.00727 -0.29990
v 0.00272 -0.10273 -0.31293
v 0.01898 -0.05874 -0.30169
v 0.01776 0.04783 -0.26659
v 0.01947 -0.17392 -0.27861
v -0.00204 -0.16658 -0.29596
v -0.00666 -0.20952 -0.26455
v 0.01406 -0.24221 -0.21147
v 0.02502 0.22309 -0.06338
v -0.00280 0.20112 -0.12987
v -0.01707 0.20727 -0.11064
v 0.00290 0.24641 -0.04298
v 0.01544 0.18491 -0.14392
v 0.00290 0.15235 -0.19192
v 0.01908 0.25316 0.00258
v 0.02942 0.14829 -0.16840
v -0.00155 0.10038 -0.24058
v 0.03668 0.07091 -0.22304
v 0.04049 0.19796 -0.06497
v 0.04643 0.21076 0.00269
v 0.03889 -0.01445 -0.25979
v 0.03578 0.23947 0.11280
v 0.00360 0.27254 0.07857
v 0.01302 0.26262 0.15096
v 0.07224 0.06188 -0.08843
v 0.06361 0.13285 -0.05890
v 0.07602 0.02494 -0.08427
v 0.07149 0.11754 0.00100
v 0.07603 0.08702 0.00747
v 0.07906 0.04627 -0.01795
v 0.05956 0.09644 -0.13067
v 0.06054 0.02736 -0.17687
v 0.07009 -0.04051 -0.14539
v 0.07937 -0.03770 -0.04954
v 0.05116 0.08860 -0.17082
v 0.04675 -0.09685 -0.24739
v 0.05968 -0.15511 -0.14347
v 0.04486 -0.16596 -0.22081
v 0.06548 -0.15457 -0.01440
v 0.06005 0.17693 0.06408
v 0.06010 0.16252 0.12779
v 0.05397 0.16105 0.17923
v 0.04640 0.17637 0.20130
v 0.07607 -0.09246 -0.02694
v 0.00972 -0.21843 0.10071
v 0.00724 -0.16764 0.17615
v -0.01489 -0.19290 0.13869
v -0.00882 -0.05219 0.27677
v -0.01358 -0.10795 0.23477
v 0.01405 -0.06396 0.26566
v -0.00666 -0.20952 -0.26455
v 0.01406 -0.24221 -0.21147
v 0.00227 -0.25697 -0.19301
vt 0.93031 0.37763
vt 0.91187 0.40635
vt 0.93071 0.50421
vt 0.95288 0.46697
vt 0.97477 0.57440
vt 0.99477 0.43349
vt 0.95840 0.35217
vt 0.94509 0.59342
vt 0.99477 0.69406
vt 0.94779 0.28846
vt 0.91420 0.52343
vt 0.91381 0.33664
vt 0.89721 0.48002
vt 0.46216 0.97012
vt 0.39392 0.99224
vt 0.37099 0.96678
vt 0.31728 0.99825
vt 0.29021 0.97796
vt 0.23868 0.99738
vt 0.46113 0.99764
vt 0.52292 0.98156
vt 0.54181 0.99825
vt 0.19338 0.97844
vt 0.95213 0.85119
vt 0.97695 0.91143
vt 0.93835 0.89336
vt 0.89405 0.81212
vt 0.86190 0.89799
vt 0.83580 0.85477
vt 0.92762 0.96630
vt 0.83419 0.99825
vt 0.75627 0.96181
vt 0.72345 0.91476
vt 0.71778 0.85769
vt 0.75794 0.84752
vt 0.80412 0.79101
vt 0.68395 0.81253
vt 0.99826 0.93565
vt 0.97663 0.99825
vt 0.84347 0.77360
vt 0.74593 0.77283
vt 0.94596 0.82307
vt 0.68118 0.78973
vt 0.99048 0.87184
vt 0.90088 0.78320
vt 0.78667 0.75699
vt 0.67375 0.05604
vt 0.68170 0.02768
vt 0.63902 0.06805
vt 0.74453 0.01446
vt 0.73074 0.04607
vt 0.79611 0.02781
vt 0.69019 0.10285
vt 0.77092 0.08644
vt 0.71383 0.13100
vt 0.63676 0.15320
vt 0.60689 0.12855
vt 0.87282 0.07938
vt 0.85571 0.03532
vt 0.59520 0.10442
vt 0.57986 0.16096
vt 0.80646 0.00175
vt 0.61114 0.41027
vt 0.61850 0.34633
vt 0.56320 0.34516
vt 0.57460 0.28058
vt 0.60207 0.27119
vt 0.58309 0.43006
vt 0.62128 0.50040
vt 0.57206 0.21544
vt 0.67521 0.45991
vt 0.66634 0.52128
vt 0.63478 0.24213
vt 0.65958 0.28199
vt 0.68743 0.31816
vt 0.71812 0.45701
vt 0.74091 0.56347
vt 0.73724 0.35701
vt 0.66838 0.21030
vt 0.65807 0.21491
vt 0.76800 0.42161
vt 0.70557 0.21711
vt 0.73235 0.30088
vt 0.73837 0.32056
vt 0.80234 0.54757
vt 0.76210 0.25116
vt 0.81907 0.39736
vt 0.81346 0.32771
vt 0.77713 0.30344
vt 0.73911 0.17825
vt 0.80292 0.25846
vt 0.79140 0.17134
vt 0.78902 0.62250
vt 0.84357 0.61201
vt 0.77883 0.11213
vt 0.85738 0.27278
vt 0.84991 0.31790
vt 0.87254 0.17214
vt 0.81761 0.14297
vt 0.71405 0.61231
vt 0.66179 0.56765
vt 0.87282 0.66608
vt 0.78066 0.66113
vt 0.54181 0.26513
vt 0.55481 0.19524
vt 0.17117 0.03831
vt 0.10686 0.11563
vt 0.11368 0.06565
vt 0.08292 0.11758
vt 0.03929 0.17096
vt 0.07926 0.17538
vt 0.00457 0.26107
vt 0.00174 0.23738
vt 0.20464 0.05115
vt 0.23476 0.02011
vt 0.29334 0.18823
vt 0.33918 0.12194
vt 0.35404 0.15716
vt 0.28148 0.08440
vt 0.26303 0.23131
vt 0.21224 0.11768
vt 0.17428 0.27950
vt 0.12034 0.21809
vt 0.28156 0.32722
vt 0.37679 0.25299
vt 0.16226 0.44693
vt 0.24699 0.43514
vt 0.10775 0.35825
vt 0.37458 0.33792
vt 0.30084 0.45455
vt 0.08966 0.29195
vt 0.15603 0.12512
vt 0.41693 0.17469
vt 0.09853 0.52273
vt 0.06481 0.42998
vt 0.34277 0.04195
vt 0.38450 0.08700
vt 0.01964 0.40044
vt 0.04437 0.29214
vt 0.27667 0.02835
vt 0.04155 0.51696
vt 0.32734 0.00811
vt 0.26233 0.00175
vt 0.44618 0.25796
vt 0.45314 0.15931
vt 0.49070 0.23274
vt 0.46778 0.30141
vt 0.42539 0.36153
vt 0.44585 0.39803
vt 0.41516 0.11676
vt 0.34016 0.49635
vt 0.39490 0.50845
vt 0.41701 0.07934
vt 0.37576 0.03029
vt 0.46475 0.41185
vt 0.49652 0.31721
vt 0.41285 0.52273
vt 0.47247 0.13964
vt 0.44449 0.08042
vt 0.46586 0.45989
vt 0.11562 0.58117
vt 0.17823 0.56718
vt 0.09480 0.60453
vt 0.13939 0.59970
vt 0.24099 0.57330
vt 0.05574 0.67063
vt 0.04675 0.64486
vt 0.01319 0.68321
vt 0.00174 0.74524
vt 0.48308 0.64763
vt 0.43782 0.59167
vt 0.46158 0.58911
vt 0.51884 0.64160
vt 0.41267 0.60091
vt 0.36395 0.57200
vt 0.54339 0.68180
vt 0.36978 0.60524
vt 0.29730 0.55769
vt 0.28103 0.60287
vt 0.46033 0.66350
vt 0.50512 0.71056
vt 0.19618 0.61616
vt 0.58942 0.77860
vt 0.60541 0.72612
vt 0.63589 0.78949
vt 0.33986 0.71894
vt 0.41080 0.70549
vt 0.31272 0.74092
vt 0.42934 0.76120
vt 0.40845 0.78261
vt 0.36274 0.78337
vt 0.34631 0.66713
vt 0.26960 0.66486
vt 0.23121 0.72327
vt 0.27936 0.79947
vt 0.32052 0.63822
vt 0.13715 0.66604
vt 0.13878 0.77779
vt 0.09244 0.71866
vt 0.19964 0.88287
vt 0.51048 0.77805
vt 0.53538 0.83520
vt 0.56459 0.87508
vt 0.59001 0.88287
vt 0.24570 0.84391
vt 0.38502 0.87937
vt 0.47213 0.87937
vt 0.42946 0.85490
vt 0.97735 0.10315
vt 0.97735 0.16958
vt 0.95296 0.11691
vt 0.02962 0.91084
vt 0.01568 0.84851
vt 0.02962 0.82692
vn -0.4644 0.8837 0.0582
vn 0.1980 0.9796 -0.0353
vn -0.5042 0.8179 -0.2773
vn -0.8207 0.5591 -0.1175
vn -0.8571 0.4479 -0.2543
vn -0.9417 0.3364 -0.0116
vn -0.8297 0.5465 0.1135
vn -0.5351 0.7234 -0.4363
vn -0.7702 0.4429 -0.4589
vn -0.4556 0.8071 0.3755
vn 0.1516 0.9189 -0.3643
vn 0.5711 0.8036 0.1676
vn 0.6348 0.7476 -0.1951
vn -0.1611 -0.9803 -0.1144
vn 0.5994 -0.7964 0.0806
vn -0.3491 -0.9232 0.1608
vn 0.6140 -0.7496 0.2473
vn -0.1016 -0.9207 0.3767
vn 0.3892 -0.8021 0.4530
vn 0.7291 -0.6784 -0.0899
vn 0.1668 -0.9171 -0.3621
vn 0.6245 -0.6900 -0.3659
vn -0.4821 -0.7207 0.4981
vn -0.6551 0.4091 0.6352
vn -0.7663 0.5292 0.3644
vn -0.9111 0.2777 0.3046
vn -0.7450 0.1085 0.6582
vn -0.9701 0.0965 0.2226
vn -0.9548 0.0199 0.2965
vn -0.9468 0.2921 0.1353
vn -0.9900 0.1262 0.0633
vn -0.9958 -0.0026 0.0917
vn -0.9826 -0.0933 0.1607
vn -0.9438 -0.1867 0.2728
vn -0.9462 -0.1267 0.2979
vn -0.7521 -0.1945 0.6296
vn -0.7885 -0.4027 0.4649
vn -0.4556 0.8071 0.3755
vn -0.8297 0.5465 0.1135
vn -0.1908 -0.1575 0.9689
vn -0.2911 -0.4776 0.8290
vn -0.0963 0.4088 0.9075
vn -0.4438 -0.5813 0.6820
vn 0.3479 0.6709 0.6549
vn 0.3843 0.0983 0.9179
vn 0.3109 -0.3570 0.8808
vn 0.7205 0.2127 0.6601
vn -0.0963 0.4088 0.9075
vn 0.3843 0.0983 0.9179
vn 0.3479 0.6709 0.6549
vn 0.8538 0.3216 0.4094
vn 0.7104 0.6243 0.3250
vn 0.9382 0.0988 0.3318
vn 0.9507 0.2359 0.2012
vn 0.9679 0.0900 0.2345
vn 0.9128 -0.0753 0.4014
vn 0.6456 -0.1612 0.7465
vn 0.8833 0.4650 0.0589
vn 0.5711 0.8036 0.1676
vn -0.1908 -0.1575 0.9689
vn 0.3109 -0.3570 0.8808
vn -0.4556 0.8071 0.3755
vn 0.8304 -0.4769 0.2879
vn 0.9003 -0.3394 0.2726
vn 0.3137 -0.7329 0.6037
vn 0.6700 -0.5016 0.5473
vn 0.8703 -0.3205 0.3740
vn 0.3892 -0.8021 0.4530
vn 0.6140 -0.7496 0.2473
vn 0.5182 -0.4601 0.7209
vn 0.9418 -0.3211 0.1000
vn 0.8667 -0.4906 0.0902
vn 0.9409 -0.1790 0.2876
vn 0.9652 -0.1621 0.2051
vn 0.9796 -0.1419 0.1425
vn 0.9741 -0.2229 0.0379
vn 0.9452 -0.3213 -0.0584
vn 0.9934 -0.0940 0.0652
vn 0.9688 -0.0731 0.2369
vn 0.9624 -0.0954 0.2542
vn 0.9938 -0.1110 -0.0043
vn 0.9853 -0.0190 0.1696
vn 0.9941 -0.0564 0.0928
vn 0.9949 -0.0638 0.0787
vn 0.9785 -0.1752 -0.1091
vn 0.9961 0.0243 0.0844
vn 0.9986 -0.0313 -0.0421
vn 0.9999 0.0154 -0.0010
vn 0.9989 -0.0068 0.0467
vn 0.9858 0.0702 0.1528
vn 0.9969 0.0652 0.0446
vn 0.9867 0.1315 0.0959
vn 0.9115 -0.3610 -0.1972
vn 0.9507 -0.2073 -0.2307
vn 0.9673 0.1968 0.1600
vn 0.9930 0.1160 -0.0220
vn 0.9972 0.0667 -0.0330
vn 0.9685 0.2487 0.0124
vn 0.9753 0.2031 0.0864
vn 0.7291 -0.6784 -0.0899
vn 0.5994 -0.7964 0.0806
vn 0.7544 -0.3444 -0.5589
vn 0.6245 -0.6900 -0.3659
vn -0.4438 -0.5813 0.6820
vn -0.2911 -0.4776 0.8290
vn 0.1450 0.3106 -0.9394
vn -0.5871 0.4712 -0.6583
vn 0.6513 0.3713 -0.6618
vn -0.0199 0.6209 -0.7836
vn 0.1603 0.7239 -0.6710
vn -0.7702 0.4429 -0.4589
vn -0.5351 0.7234 -0.4363
vn -0.0672 0.8343 -0.5471
vn -0.7671 0.1446 -0.6251
vn -0.4416 0.0595 -0.8952
vn -0.9904 -0.0726 -0.1176
vn -0.9680 -0.1808 -0.1739
vn -0.9735 -0.1965 -0.1167
vn -0.9543 -0.0679 -0.2910
vn -0.9962 -0.0201 -0.0853
vn -0.9544 0.0680 -0.2907
vn -0.9908 0.0975 -0.0942
vn -0.9464 0.2255 -0.2312
vn -0.9992 -0.0356 0.0185
vn -0.9740 -0.2265 0.0059
vn -0.9900 0.1262 0.0633
vn -0.9958 -0.0026 0.0917
vn -0.9734 0.2209 -0.0617
vn -0.9698 -0.2151 0.1147
vn -0.9826 -0.0933 0.1607
vn -0.9473 0.2723 -0.1687
vn -0.9055 0.2003 -0.3742
vn -0.9289 -0.3662 -0.0553
vn -0.9468 0.2921 0.1353
vn -0.9417 0.3364 -0.0116
vn -0.8173 -0.3330 -0.4703
vn -0.8906 -0.3770 -0.2545
vn -0.8207 0.5591 -0.1175
vn -0.8571 0.4479 -0.2543
vn -0.7677 -0.1047 -0.6322
vn -0.8297 0.5465 0.1135
vn -0.0508 -0.4408 -0.8962
vn 0.1903 -0.0807 -0.9784
vn -0.8908 -0.4455 0.0899
vn -0.7711 -0.6336 -0.0625
vn -0.3491 -0.9232 0.1608
vn -0.7742 -0.5958 0.2138
vn -0.9067 -0.3626 0.2156
vn -0.7919 -0.5066 0.3410
vn -0.8712 -0.4586 -0.1753
vn -0.9438 -0.1867 0.2728
vn -0.7885 -0.4027 0.4649
vn -0.6608 -0.6680 -0.3422
vn -0.2901 -0.6666 -0.6866
vn -0.4821 -0.7207 0.4981
vn -0.1016 -0.9207 0.3767
vn -0.4438 -0.5813 0.6820
vn -0.1611 -0.9803 -0.1144
vn 0.1668 -0.9171 -0.3621
vn 0.3137 -0.7329 0.6037
vn -0.4416 0.0595 -0.8952
vn 0.1450 0.3106 -0.9394
vn 0.1903 -0.0807 -0.9784
vn 0.7215 0.0892 -0.6866
vn 0.6513 0.3713 -0.6618
vn 0.7544 -0.3444 -0.5589
vn -0.0508 -0.4408 -0.8962
vn -0.2901 -0.6666 -0.6866
vn 0.6245 -0.6900 -0.3659
vn 0.7258 0.6213 -0.2953
vn -0.0672 0.8343 -0.5471
vn -0.5351 0.7234 -0.4363
vn 0.1516 0.9189 -0.3643
vn 0.5500 0.6776 -0.4883
vn 0.1603 0.7239 -0.6710
vn 0.6348 0.7476 -0.1951
vn 0.7842 0.4639 -0.4120
vn -0.0199 0.6209 -0.7836
vn 0.8684 0.2823 -0.4076
vn 0.8747 0.4338 -0.2161
vn 0.9175 0.3851 -0.0999
vn 0.9074 0.1175 -0.4034
vn 0.8833 0.4650 0.0589
vn 0.1980 0.9796 -0.0353
vn 0.5711 0.8036 0.1676
vn 0.9856 0.1173 -0.1218
vn 0.9666 0.2253 -0.1220
vn 0.9930 0.0611 -0.1009
vn 0.9854 0.1655 -0.0408
vn 0.9930 0.1160 -0.0220
vn 0.9972 0.0667 -0.0330
vn 0.9563 0.2072 -0.2061
vn 0.9663 0.1130 -0.2314
vn 0.9887 -0.0110 -0.1498
vn 0.9986 -0.0313 -0.0421
vn 0.9314 0.2344 -0.2784
vn 0.9534 -0.0468 -0.2981
vn 0.9785 -0.1752 -0.1091
vn 0.9507 -0.2073 -0.2307
vn 0.9741 -0.2229 0.0379
vn 0.9685 0.2487 0.0124
vn 0.9753 0.2031 0.0864
vn 0.9673 0.1968 0.1600
vn 0.9507 0.2359 0.2012
vn 0.9938 -0.1110 -0.0043
vn 0.3892 -0.8021 0.4530
vn 0.3137 -0.7329 0.6037
vn -0.4821 -0.7207 0.4981
vn -0.2911 -0.4776 0.8290
vn -0.4438 -0.5813 0.6820
vn 0.5182 -0.4601 0.7209
vn -0.2901 -0.6666 -0.6866
vn 0.6245 -0.6900 -0.3659
vn 0.1668 -0.9171 -0.3621
f 122/122/122 120/120/120 124/124/124
f 126/126/126 124/124/124 127/127/127
f 126/126/126 122/122/122 124/124/124
f 118/118/118 125/125/125 120/120/120
f 120/120/120 125/125/125 124/124/124
f 124/124/124 125/125/125 129/129/129
f 116/116/116 118/118/118 120/120/120
f 127/127/127 124/124/124 129/129/129
f 127/127/127 129/129/129 130/130/130
f 128/128/128 122/122/122 126/126/126
f 120/120/120 119/119/119 116/116/116
f 122/122/122 121/121/121 120/120/120
f 29/29/29 32/32/32 33/33/33
f 28/28/28 32/32/32 29/29/29
f 131/131/131 122/122/122 128/128/128
f 31/31/31 32/32/32 28/28/28
f 125/125/125 144/144/144 129/129/129
f 116/116/116 117/117/117 118/118/118
f 119/119/119 117/117/117 116/116/116
f 129/129/129 151/151/151 130/130/130
f 120/120/120 121/121/121 119/119/119
f 29/29/29 33/33/33 34/34/34
f 122/122/122 123/123/123 121/121/121
f 131/131/131 123/123/123 122/122/122
f 131/131/131 128/128/128 135/135/135
f 128/128/128 126/126/126 134/134/134
f 129/129/129 144/144/144 148/148/148
f 151/151/151 129/129/129 148/148/148
f 123/123/123 132/132/132 121/121/121
f 29/29/29 34/34/34 35/35/35
f 28/28/28 30/30/30 31/31/31
f 139/139/139 123/123/123 131/131/131
f 135/135/135 128/128/128 134/134/134
f 118/118/118 133/133/133 125/125/125
f 117/117/117 137/137/137 118/118/118
f 123/123/123 111/111/111 132/132/132
f 139/139/139 131/131/131 138/138/138
f 138/138/138 131/131/131 135/135/135
f 125/125/125 145/145/145 144/144/144
f 133/133/133 145/145/145 125/125/125
f 118/118/118 150/150/150 133/133/133
f 144/144/144 147/147/147 148/148/148
f 136/136/136 137/137/137 117/117/117
f 119/119/119 136/136/136 117/117/117
f 148/148/148 149/149/149 151/151/151
f 151/151/151 149/149/149 152/152/152
f 121/121/121 140/140/140 119/119/119
f 121/121/121 132/132/132 114/114/114
f 35/35/35 36/36/36 29/29/29
f 27/27/27 28/28/28 29/29/29
f 139/139/139 111/111/111 123/123/123
f 28/28/28 26/26/26 30/30/30
f 134/134/134 141/141/141 135/135/135
f 137/137/137 150/150/150 118/118/118
f 36/36/36 35/35/35 34/34/34
f 107/107/107 132/132/132 111/111/111
f 27/27/27 26/26/26 28/28/28
f 6/6/6 7/7/7 1/1/1
f 1/1/1 4/4/4 6/6/6
f 150/150/150 145/145/145 133/133/133
f 148/148/148 147/147/147 149/149/149
f 137/137/137 136/136/136 153/153/153
f 36/36/36 34/34/34 37/37/37
f 36/36/36 27/27/27 29/29/29
f 26/26/26 25/25/25 30/30/30
f 150/150/150 153/153/153 145/145/145
f 144/144/144 146/146/146 147/147/147
f 137/137/137 153/153/153 150/150/150
f 155/155/155 152/152/152 149/149/149
f 119/119/119 140/140/140 136/136/136
f 114/114/114 140/140/140 121/121/121
f 41/41/41 37/37/37 43/43/43
f 41/41/41 36/36/36 37/37/37
f 132/132/132 107/107/107 114/114/114
f 27/27/27 24/24/24 26/26/26
f 5/5/5 8/8/8 9/9/9
f 3/3/3 8/8/8 5/5/5
f 4/4/4 3/3/3 5/5/5
f 30/30/30 25/25/25 38/38/38
f 30/30/30 38/38/38 39/39/39
f 144/144/144 145/145/145 146/146/146
f 147/147/147 146/146/146 156/156/156
f 156/156/156 149/149/149 147/147/147
f 155/155/155 157/157/157 152/152/152
f 142/142/142 136/136/136 140/140/140
f 24/24/24 25/25/25 26/26/26
f 1/1/1 3/3/3 4/4/4
f 158/158/158 146/146/146 145/145/145
f 145/145/145 153/153/153 158/158/158
f 155/155/155 149/149/149 156/156/156
f 136/136/136 154/154/154 153/153/153
f 114/114/114 115/115/115 140/140/140
f 40/40/40 36/36/36 46/46/46
f 107/107/107 106/106/106 114/114/114
f 36/36/36 40/40/40 27/27/27
f 110/110/110 111/111/111 112/112/112
f 113/113/113 110/110/110 112/112/112
f 11/11/11 8/8/8 3/3/3
f 10/10/10 1/1/1 7/7/7
f 158/158/158 153/153/153 159/159/159
f 153/153/153 154/154/154 159/159/159
f 136/136/136 142/142/142 154/154/154
f 157/157/157 155/155/155 160/160/160
f 140/140/140 143/143/143 142/142/142
f 140/140/140 115/115/115 143/143/143
f 209/209/209 210/210/210 211/211/211
f 106/106/106 115/115/115 114/114/114
f 36/36/36 41/41/41 46/46/46
f 106/106/106 107/107/107 108/108/108
f 45/45/45 27/27/27 40/40/40
f 110/110/110 109/109/109 107/107/107
f 111/111/111 110/110/110 107/107/107
f 42/42/42 24/24/24 27/27/27
f 25/25/25 24/24/24 44/44/44
f 44/44/44 38/38/38 25/25/25
f 1/1/1 2/2/2 3/3/3
f 14/14/14 15/15/15 16/16/16
f 16/16/16 17/17/17 18/18/18
f 109/109/109 108/108/108 107/107/107
f 45/45/45 42/42/42 27/27/27
f 24/24/24 42/42/42 44/44/44
f 12/12/12 1/1/1 10/10/10
f 15/15/15 17/17/17 16/16/16
f 19/19/19 23/23/23 18/18/18
f 167/167/167 166/166/166 168/168/168
f 206/206/206 207/207/207 208/208/208
f 65/65/65 66/66/66 104/104/104
f 170/170/170 171/171/171 172/172/172
f 173/173/173 170/170/170 172/172/172
f 52/52/52 62/62/62 50/50/50
f 13/13/13 11/11/11 3/3/3
f 3/3/3 2/2/2 13/13/13
f 2/2/2 1/1/1 12/12/12
f 21/21/21 20/20/20 14/14/14
f 17/17/17 19/19/19 18/18/18
f 212/212/212 213/213/213 214/214/214
f 66/66/66 70/70/70 104/104/104
f 161/161/161 162/162/162 163/163/163
f 105/105/105 70/70/70 61/61/61
f 57/57/57 60/60/60 61/61/61
f 49/49/49 60/60/60 57/57/57
f 171/171/171 174/174/174 175/175/175
f 51/51/51 52/52/52 50/50/50
f 59/59/59 62/62/62 52/52/52
f 20/20/20 15/15/15 14/14/14
f 21/21/21 22/22/22 20/20/20
f 168/168/168 166/166/166 169/169/169
f 163/163/163 166/166/166 167/167/167
f 162/162/162 164/164/164 163/163/163
f 175/175/175 177/177/177 178/178/178
f 47/47/47 48/48/48 49/49/49
f 47/47/47 50/50/50 48/48/48
f 69/69/69 63/63/63 68/68/68
f 68/68/68 63/63/63 65/65/65
f 166/166/166 163/163/163 164/164/164
f 177/177/177 175/175/175 174/174/174
f 51/51/51 50/50/50 47/47/47
f 171/171/171 170/170/170 174/174/174
f 176/176/176 184/184/184 183/183/183
f 183/183/183 184/184/184 185/185/185
f 72/72/72 69/69/69 101/101/101
f 100/100/100 103/103/103 93/93/93
f 102/102/102 93/93/93 103/103/103
f 64/64/64 66/66/66 65/65/65
f 197/197/197 166/166/166 164/164/164
f 70/70/70 57/57/57 61/61/61
f 165/165/165 164/164/164 162/162/162
f 47/47/47 49/49/49 57/57/57
f 177/177/177 165/165/165 178/178/178
f 170/170/170 180/180/180 174/174/174
f 176/176/176 170/170/170 173/173/173
f 102/102/102 94/94/94 93/93/93
f 166/166/166 197/197/197 199/199/199
f 63/63/63 64/64/64 65/65/65
f 67/67/67 70/70/70 66/66/66
f 56/56/56 57/57/57 70/70/70
f 165/165/165 182/182/182 164/164/164
f 56/56/56 47/47/47 57/57/57
f 53/53/53 51/51/51 47/47/47
f 174/174/174 180/180/180 177/177/177
f 58/58/58 59/59/59 52/52/52
f 181/181/181 176/176/176 183/183/183
f 77/77/77 101/101/101 100/100/100
f 77/77/77 72/72/72 101/101/101
f 93/93/93 77/77/77 100/100/100
f 71/71/71 69/69/69 72/72/72
f 69/69/69 71/71/71 63/63/63
f 64/64/64 67/67/67 66/66/66
f 197/197/197 164/164/164 182/182/182
f 56/56/56 70/70/70 67/67/67
f 165/165/165 179/179/179 182/182/182
f 177/177/177 179/179/179 165/165/165
f 53/53/53 47/47/47 56/56/56
f 54/54/54 52/52/52 51/51/51
f 73/73/73 56/56/56 67/67/67
f 177/177/177 196/196/196 179/179/179
f 53/53/53 55/55/55 51/51/51
f 170/170/170 176/176/176 180/180/180
f 58/58/58 52/52/52 54/54/54
f 181/181/181 180/180/180 176/176/176
f 181/181/181 183/183/183 201/201/201
f 85/85/85 93/93/93 94/94/94
f 64/64/64 73/73/73 67/67/67
f 54/54/54 51/51/51 55/55/55
f 177/177/177 180/180/180 192/192/192
f 203/203/203 183/183/183 204/204/204
f 72/72/72 77/77/77 71/71/71
f 63/63/63 71/71/71 64/64/64
f 74/74/74 73/73/73 64/64/64
f 193/193/193 197/197/197 182/182/182
f 80/80/80 56/56/56 73/73/73
f 79/79/79 56/56/56 80/80/80
f 179/179/179 196/196/196 182/182/182
f 55/55/55 53/53/53 56/56/56
f 177/177/177 192/192/192 196/196/196
f 95/95/95 54/54/54 55/55/55
f 192/192/192 180/180/180 187/187/187
f 180/180/180 181/181/181 187/187/187
f 201/201/201 183/183/183 202/202/202
f 202/202/202 183/183/183 203/203/203
f 77/77/77 76/76/76 71/71/71
f 93/93/93 85/85/85 77/77/77
f 76/76/76 64/64/64 71/71/71
f 197/197/197 198/198/198 199/199/199
f 198/198/198 197/197/197 194/194/194
f 74/74/74 79/79/79 73/73/73
f 79/79/79 80/80/80 73/73/73
f 196/196/196 193/193/193 182/182/182
f 82/82/82 56/56/56 79/79/79
f 55/55/55 56/56/56 82/82/82
f 82/82/82 90/90/90 55/55/55
f 193/193/193 196/196/196 192/192/192
f 90/90/90 95/95/95 55/55/55
f 90/90/90 92/92/92 95/95/95
f 92/92/92 99/99/99 95/95/95
f 189/189/189 181/181/181 201/201/201
f 77/77/77 85/85/85 76/76/76
f 75/75/75 64/64/64 76/76/76
f 75/75/75 74/74/74 64/64/64
f 82/82/82 74/74/74 75/75/75
f 193/193/193 194/194/194 197/197/197
f 82/82/82 79/79/79 74/74/74
f 192/192/192 186/186/186 193/193/193
f 187/187/187 186/186/186 192/192/192
f 189/189/189 187/187/187 181/181/181
f 98/98/98 99/99/99 92/92/92
f 76/76/76 81/81/81 78/78/78
f 198/198/198 195/195/195 200/200/200
f 200/200/200 195/195/195 205/205/205
f 75/75/75 76/76/76 78/78/78
f 198/198/198 194/194/194 195/195/195
f 194/194/194 188/188/188 195/195/195
f 78/78/78 83/83/83 75/75/75
f 83/83/83 82/82/82 75/75/75
f 194/194/194 186/186/186 188/188/188
f 83/83/83 86/86/86 82/82/82
f 193/193/193 186/186/186 194/194/194
f 86/86/86 90/90/90 82/82/82
f 186/186/186 187/187/187 188/188/188
f 91/91/91 92/92/92 86/86/86
f 86/86/86 92/92/92 90/90/90
f 189/189/189 188/188/188 187/187/187
f 91/91/91 98/98/98 92/92/92
f 189/189/189 201/201/201 190/190/190
f 87/87/87 78/78/78 81/81/81
f 87/87/87 88/88/88 78/78/78
f 78/78/78 84/84/84 83/83/83
f 78/78/78 88/88/88 89/89/89
f 84/84/84 86/86/86 83/83/83
f 78/78/78 86/86/86 84/84/84
f 78/78/78 89/89/89 86/86/86
f 88/88/88 91/91/91 89/89/89
f 97/97/97 96/96/96 87/87/87
f 195/195/195 188/188/188 191/191/191
f 91/91/91 86/86/86 89/89/89
f 87/87/87 96/96/96 88/88/88
f 188/188/188 189/189/189 191/191/191
f 190/190/190 191/191/191 189/189/189
f 96/96/96 98/98/98 88/88/88
f 88/88/88 98/98/98 91/91/91
