# GoldGuppy / SideFin2  (local frame of part 'SideFin2', bbox-centred; -Z = front)
v 0.08093 0.02133 0.17798
v 0.10914 0.01113 0.17307
v 0.11811 0.02314 0.15737
v 0.13880 0.00903 0.15552
v 0.13479 0.02739 0.13879
v 0.16194 0.01158 0.13408
v 0.14997 0.02304 0.13253
v 0.17017 0.02139 0.11357
v 0.08636 0.03379 0.15860
v 0.15886 0.03145 0.10607
v 0.08279 0.03444 0.15906
v 0.06633 0.03907 0.15659
v 0.09708 0.04319 0.13003
v 0.12709 0.04127 0.11155
v 0.13342 0.04438 0.09310
v 0.16457 0.04054 0.06233
v 0.16988 0.03577 0.07527
v 0.17362 0.02767 0.09594
v 0.09409 0.05146 0.10144
v 0.19156 0.02415 0.07354
v 0.07289 0.05457 0.10269
v 0.05664 0.05351 0.11672
v 0.10098 0.05611 0.06850
v 0.07828 0.05857 0.07543
v 0.12639 0.05122 0.06680
v 0.15568 0.04606 0.04539
v 0.12669 0.05437 0.04199
v 0.05279 0.05460 0.11384
v 0.01538 0.04862 0.14436
v 0.18377 0.03374 0.05269
v 0.15022 0.04953 0.02580
v 0.18740 0.03382 0.03951
v 0.15529 0.04823 0.02093
v 0.01042 0.05888 0.10589
v 0.18669 0.03639 0.01106
v 0.15587 0.04858 -0.00370
v 0.20296 0.02417 0.03986
v 0.18474 0.01631 0.10187
v 0.16220 0.04604 -0.01913
v 0.18826 0.03527 -0.01934
v 0.17741 0.03897 -0.03650
v 0.16226 0.04443 -0.04077
v 0.21123 0.02055 0.01515
v 0.20649 0.02448 -0.01572
v 0.20510 0.01849 0.05589
v 0.19648 0.02740 -0.04846
v -0.02130 0.04379 0.15639
v 0.02820 0.01843 0.19338
v -0.02238 0.02012 0.19251
v -0.04910 0.02940 0.17753
v 0.21656 0.01536 -0.00985
v 0.21552 0.01512 -0.02346
v 0.21827 0.00821 0.03277
v 0.21267 0.00952 0.05340
v 0.20795 0.00330 0.07249
v 0.19852 0.01457 0.08083
v 0.19085 -0.00123 0.10452
v 0.06284 0.00661 0.19275
v -0.05910 0.01229 0.19070
v -0.08486 0.02965 0.16416
v -0.10606 0.00778 0.17426
v 0.09007 0.00453 0.18419
v 0.10339 -0.00969 0.17695
v 0.17909 -0.00103 0.12020
v 0.18237 0.00004 0.11615
v -0.03484 -0.00582 0.19862
v 0.05056 -0.00438 0.19633
v 0.11021 -0.00144 0.17553
v 0.11978 -0.01370 0.16593
v 0.14833 -0.00738 0.14912
v -0.10092 -0.01734 -0.17073
v -0.10292 -0.00634 -0.17596
v -0.07588 -0.02966 -0.16687
v -0.05333 -0.01811 -0.18646
v -0.13744 -0.00548 -0.15688
v -0.11845 -0.02013 -0.15905
v -0.15607 -0.01830 -0.13386
v -0.09674 -0.04445 -0.12505
v -0.13177 -0.04129 -0.10798
v -0.16451 -0.02342 -0.11852
v -0.04694 -0.04173 -0.15404
v 0.00934 -0.02211 -0.18932
v -0.02443 -0.04361 -0.15450
v 0.03049 -0.03594 -0.16893
v -0.13887 -0.04791 -0.07132
v -0.18322 -0.02181 -0.09740
v -0.15788 -0.04693 -0.04146
v 0.03758 -0.01249 -0.19330
v 0.09051 -0.02176 -0.17002
v 0.05565 -0.03814 -0.15867
v 0.11173 -0.03655 -0.13537
v 0.12490 -0.02983 -0.13986
v 0.12866 -0.01938 -0.15196
v 0.16251 -0.01715 -0.12726
v 0.17178 -0.02646 -0.10221
v -0.17436 -0.03609 -0.07055
v 0.14647 -0.01228 -0.14550
v 0.18628 -0.00927 -0.10731
v 0.19998 -0.01879 -0.07124
v 0.10281 -0.00323 -0.17571
v -0.19378 -0.00786 -0.09852
v 0.13749 -0.00465 -0.15560
v 0.04626 -0.00281 -0.19469
v -0.01844 0.00304 -0.19862
v -0.05255 0.00160 -0.19351
v 0.12028 0.01072 -0.16369
v -0.08575 0.01207 -0.18023
v -0.18168 0.01031 -0.11356
v 0.11515 -0.05907 0.01436
v 0.08834 -0.06160 0.04198
v 0.08198 -0.06421 0.00360
v 0.12983 -0.05514 0.03171
v 0.11933 -0.05549 0.05106
v 0.08982 -0.06252 -0.02721
v 0.11997 -0.05829 -0.00941
v 0.10956 -0.05884 -0.03668
v 0.05037 -0.06691 -0.01405
v 0.05710 -0.06503 0.04084
v 0.04959 -0.06681 0.01878
v 0.01825 -0.06848 -0.00623
v 0.03291 -0.06602 0.04810
v 0.07712 -0.06000 0.06913
v -0.00507 -0.06829 0.02192
v 0.05275 -0.06035 0.08514
v 0.04580 -0.06006 0.09074
v 0.02174 -0.06425 0.07051
v 0.00658 -0.06353 0.07896
v 0.03893 -0.05537 0.11738
v 0.08795 -0.05355 0.09862
v 0.12807 -0.04991 0.07599
v 0.08408 -0.04852 0.12230
v -0.05793 -0.06571 0.03076
v -0.04296 -0.06757 -0.00104
v -0.03781 -0.06739 -0.02252
v -0.03449 -0.06693 -0.03509
v 0.03733 -0.06212 -0.08160
v 0.01410 -0.06688 -0.04692
v 0.06373 -0.06101 -0.07333
v 0.08030 -0.06115 -0.05729
v -0.03745 -0.06432 -0.06377
v 0.00751 -0.06340 -0.08074
v 0.11933 -0.05680 -0.03913
v -0.09162 -0.06294 -0.00740
v -0.08345 -0.06085 -0.05410
v -0.09706 -0.06163 -0.02287
v -0.04599 -0.06577 -0.04235
v -0.01123 -0.05684 -0.11509
v -0.09327 -0.05926 0.05806
v -0.11450 -0.05916 0.01079
v -0.06862 -0.06241 0.05834
v -0.03100 -0.06198 0.08481
v -0.02010 -0.06514 0.06294
v 0.01862 -0.05009 0.14121
v -0.01615 -0.05649 0.11767
v -0.03476 -0.05683 0.11224
v -0.06104 -0.05181 0.12288
v -0.08675 -0.05591 0.08755
v -0.10864 -0.05546 0.06688
v -0.07824 -0.05446 -0.09864
v -0.14974 -0.05135 0.01166
v -0.13669 -0.05469 0.00663
v -0.15004 -0.05016 -0.03160
v -0.14874 -0.05175 -0.00616
v -0.15350 -0.04740 0.04759
v 0.07221 -0.05557 -0.09856
v 0.12766 -0.05239 -0.06123
v 0.08899 -0.05235 -0.10164
v 0.02138 -0.05221 -0.13118
v 0.14770 -0.05064 0.03105
v 0.12555 -0.04818 -0.08691
v 0.17477 -0.04255 -0.00632
v -0.03585 -0.04826 0.14364
v 0.12635 -0.04687 0.09320
v 0.11293 -0.04433 0.11588
v 0.12094 -0.04437 0.10868
v 0.06700 -0.04435 0.14436
v 0.04496 -0.04804 0.14190
v 0.13612 -0.04701 0.08070
v 0.15858 -0.04095 0.07632
v 0.15973 -0.04432 0.05501
v 0.06554 -0.04815 -0.13032
v 0.10555 -0.04298 -0.12313
v -0.06532 -0.04858 -0.12887
v 0.17560 -0.03960 -0.04443
v 0.16597 -0.03931 -0.07002
v 0.16092 -0.04689 -0.02554
v 0.15674 -0.03673 -0.09410
v 0.10282 -0.04009 0.13620
v 0.18509 -0.03401 0.05208
v 0.18501 -0.03347 0.05541
v 0.18310 -0.03904 -0.00068
v 0.18572 -0.03665 -0.02840
v 0.13131 -0.03975 0.11429
v 0.15839 -0.03516 0.09836
v 0.03466 -0.03717 0.17000
v 0.19729 -0.03147 0.01294
v 0.15465 -0.02754 0.12131
v 0.12514 -0.03121 0.14050
v 0.18135 -0.02959 0.07986
v 0.09173 -0.03226 0.15947
v 0.20164 -0.02674 -0.03504
v 0.15133 -0.02591 0.12766
v 0.21802 -0.01365 0.01430
v 0.07034 -0.01829 0.18483
v 0.20843 -0.01593 0.05479
v 0.19778 -0.01756 0.07826
v 0.21314 -0.01290 0.04611
v 0.21522 -0.01440 0.03187
v 0.15074 -0.01998 0.13697
v 0.13040 -0.02448 0.14781
v 0.11978 -0.01370 0.16593
v 0.18910 -0.01330 0.10004
v 0.21131 -0.01158 -0.05609
v 0.16469 -0.01329 0.13050
v 0.21970 -0.00712 -0.02902
v 0.17909 -0.00103 0.12020
v 0.10339 -0.00969 0.17695
v 0.18237 0.00004 0.11615
v 0.19085 -0.00123 0.10452
v 0.14833 -0.00738 0.14912
v 0.22132 0.00021 0.02547
v 0.20795 0.00330 0.07249
v 0.11021 -0.00144 0.17553
v -0.17860 -0.04182 -0.01306
v -0.19614 -0.02812 -0.05325
v -0.18111 -0.03187 -0.07422
v -0.21006 -0.02197 -0.02925
v -0.19131 -0.03424 0.03233
v -0.15980 -0.04326 0.06067
v -0.21581 -0.01536 0.02875
v -0.15202 -0.03752 0.09598
v -0.18518 -0.02879 0.07207
v -0.10689 -0.04762 0.10801
v -0.12737 -0.03974 0.11582
v -0.08002 -0.04696 0.12960
v -0.10708 -0.03474 0.14411
v -0.17097 -0.01710 0.11622
v -0.15343 -0.01442 0.13717
v -0.10776 -0.02696 0.15711
v -0.05440 -0.03553 0.16781
v -0.00398 -0.03349 0.17899
v -0.07135 -0.02178 0.18038
v 0.01629 -0.02451 0.18975
v -0.02184 -0.01790 0.19483
v -0.12274 -0.01490 0.16084
v -0.19511 -0.01023 0.09018
v -0.20847 -0.01467 -0.06025
v -0.08906 -0.00680 0.18276
v -0.03484 -0.00582 0.19862
v 0.05056 -0.00438 0.19633
v -0.22255 0.00127 -0.02075
v -0.16781 -0.00177 0.12951
v -0.17888 0.00644 0.11548
v 0.16907 0.00249 -0.12983
v 0.18628 -0.00927 -0.10731
v 0.16251 -0.01715 -0.12726
v 0.14647 -0.01228 -0.14550
v 0.13397 0.01021 -0.15542
v 0.15362 0.01060 -0.14043
v 0.18437 0.01098 -0.10798
v 0.19731 0.00129 -0.09411
v 0.13749 -0.00465 -0.15560
v 0.12028 0.01072 -0.16369
v 0.19864 0.01343 -0.08263
v 0.20907 -0.00425 -0.07023
v 0.21433 0.00587 -0.05370
v 0.16327 0.02244 -0.11847
v 0.15043 0.02001 -0.13408
v 0.21131 -0.01158 -0.05609
v 0.21970 -0.00712 -0.02902
v 0.19998 -0.01879 -0.07124
v 0.21656 0.01536 -0.00985
v 0.22255 0.00344 -0.00910
v 0.21552 0.01512 -0.02346
v 0.21181 0.01640 -0.03908
v 0.19648 0.02740 -0.04846
v 0.22196 0.00635 0.00338
v 0.17209 0.02882 -0.09476
v 0.18704 0.02693 -0.07509
v 0.21123 0.02055 0.01515
v 0.21827 0.00821 0.03277
v 0.22132 0.00021 0.02547
v 0.21802 -0.01365 0.01430
v 0.20795 0.00330 0.07249
v 0.11358 0.05906 -0.01014
v 0.07640 0.06324 -0.03513
v 0.10895 0.05966 0.01770
v 0.08500 0.06353 0.00887
v 0.11688 0.05851 -0.00563
v 0.04667 0.06657 -0.02524
v 0.10716 0.05719 -0.05043
v 0.09573 0.05923 -0.04926
v 0.12835 0.05265 -0.05259
v 0.05182 0.06154 -0.07155
v 0.07644 0.05973 -0.06575
v 0.06494 0.05575 -0.09745
v 0.11202 0.05116 -0.08248
v 0.09180 0.05100 -0.10129
v 0.13593 0.04485 -0.08611
v 0.14905 0.04370 -0.07412
v 0.16226 0.04443 -0.04077
v 0.15587 0.04858 -0.00370
v 0.16220 0.04604 -0.01913
v 0.15529 0.04823 0.02093
v 0.13756 0.05335 0.02107
v 0.12669 0.05437 0.04199
v 0.15022 0.04953 0.02580
v 0.03310 0.06731 -0.02530
v 0.06370 0.06568 0.01525
v 0.01083 0.06848 -0.01099
v 0.00744 0.05831 -0.10421
v 0.01134 0.06363 -0.07198
v -0.00536 0.06630 -0.04921
v 0.04880 0.05142 -0.12351
v 0.02889 0.06595 0.04911
v 0.07240 0.06291 0.04556
v 0.10098 0.05611 0.06850
v -0.03036 0.06357 -0.06741
v -0.01235 0.06845 -0.00971
v -0.02920 0.06795 -0.00326
v 0.01576 0.06554 0.05836
v -0.03673 0.06676 0.02940
v -0.06759 0.06309 -0.04426
v 0.07828 0.05857 0.07543
v -0.02735 0.05621 -0.11097
v -0.05618 0.05518 -0.10552
v -0.06287 0.05635 -0.09659
v 0.05279 0.05460 0.11384
v 0.01326 0.06333 0.07810
v -0.02107 0.06379 0.07244
v 0.01042 0.05888 0.10589
v 0.07289 0.05457 0.10269
v 0.12639 0.05122 0.06680
v -0.09897 0.05899 -0.04473
v -0.05963 0.06544 0.01795
v -0.07691 0.06391 -0.00087
v -0.08021 0.05400 -0.09739
v -0.12738 0.05597 0.00375
v -0.06376 0.05975 0.07805
v -0.11668 0.05713 -0.02945
v -0.11340 0.05528 0.05556
v -0.03504 0.05635 0.11245
v -0.09006 0.05024 0.10818
v -0.11545 0.04751 -0.09844
v -0.15858 0.04594 -0.04471
v -0.16395 0.04591 0.02475
v -0.16246 0.04167 -0.06497
v -0.17573 0.04234 -0.01569
v -0.10962 0.04551 -0.11094
v -0.12046 0.04576 0.09952
v 0.01538 0.04862 0.14436
v -0.01306 0.05340 0.12892
v -0.02130 0.04379 0.15639
v -0.03614 0.04764 0.14345
v -0.08053 0.03895 0.14869
v -0.15295 0.03696 -0.09851
v -0.17446 0.03307 0.07479
v -0.04868 0.03619 0.16679
v -0.20077 0.02629 -0.04410
v -0.04910 0.02940 0.17753
v -0.14621 0.02425 0.13077
v -0.08486 0.02965 0.16416
v -0.21110 0.02179 0.01735
v -0.18487 0.02402 -0.08903
v -0.13369 0.01206 0.15477
v -0.10606 0.00778 0.17426
v -0.16781 -0.00177 0.12951
v -0.17888 0.00644 0.11548
v 0.10383 0.02591 -0.15782
v 0.12028 0.01072 -0.16369
v 0.08445 0.01296 -0.17939
v 0.06038 0.02516 -0.17654
v 0.13397 0.01021 -0.15542
v 0.13850 0.02448 -0.13755
v 0.15043 0.02001 -0.13408
v 0.15362 0.01060 -0.14043
v 0.04536 0.01266 -0.19133
v 0.07329 0.03367 -0.15950
v 0.16327 0.02244 -0.11847
v 0.05472 0.03558 -0.16265
v 0.01709 0.02053 -0.18974
v 0.11974 0.04017 -0.11832
v 0.09433 0.04221 -0.13021
v 0.14050 0.03754 -0.10769
v 0.07382 0.04483 -0.13386
v 0.17209 0.02882 -0.09476
v -0.01615 0.03492 -0.17145
v 0.03669 0.04623 -0.14376
v -0.00622 0.04737 -0.14485
v 0.17298 0.03350 -0.07904
v -0.03862 0.04264 -0.15241
v -0.09307 0.03613 -0.14671
v -0.05401 0.02779 -0.17533
v -0.03984 0.02411 -0.18304
v -0.13538 0.03147 -0.12945
v 0.19648 0.02740 -0.04846
v 0.17741 0.03897 -0.03650
v 0.18704 0.02693 -0.07509
v -0.09983 0.02915 -0.15625
v -0.08575 0.01207 -0.18023
v -0.16263 0.01794 -0.12738
v -0.13283 0.01306 -0.15585
v -0.01844 0.00304 -0.19862
v -0.18168 0.01031 -0.11356
v -0.05255 0.00160 -0.19351
v 0.04626 -0.00281 -0.19469
v 0.10281 -0.00323 -0.17571
v -0.10292 -0.00634 -0.17596
v -0.13744 -0.00548 -0.15688
v -0.20815 0.01229 0.06044
v -0.21752 -0.00101 0.04489
v -0.19047 0.01620 0.08955
v -0.19511 -0.01023 0.09018
v -0.17888 0.00644 0.11548
v -0.21110 0.02179 0.01735
v -0.22255 0.00127 -0.02075
v -0.21841 0.01319 -0.01947
v -0.20966 0.01008 -0.06373
v -0.21581 -0.01536 0.02875
v -0.20077 0.02629 -0.04410
v -0.17446 0.03307 0.07479
v -0.14621 0.02425 0.13077
v -0.18487 0.02402 -0.08903
v -0.18168 0.01031 -0.11356
v 0.14833 -0.00738 0.14912
v 0.13880 0.00903 0.15552
v 0.11978 -0.01370 0.16593
v 0.10914 0.01113 0.17307
v 0.10339 -0.00969 0.17695
v 0.06284 0.00661 0.19275
v 0.07034 -0.01829 0.18483
v 0.09007 0.00453 0.18419
v 0.05056 -0.00438 0.19633
v -0.16263 0.01794 -0.12738
v -0.13744 -0.00548 -0.15688
v -0.15607 -0.01830 -0.13386
v -0.18168 0.01031 -0.11356
v -0.08575 0.01207 -0.18023
v -0.05333 -0.01811 -0.18646
v -0.10292 -0.00634 -0.17596
v -0.22255 0.00127 -0.02075
v -0.20966 0.01008 -0.06373
v -0.20847 -0.01467 -0.06025
v -0.19378 -0.00786 -0.09852
v -0.18168 0.01031 -0.11356
v -0.03484 -0.00582 0.19862
v -0.05910 0.01229 0.19070
v -0.08906 -0.00680 0.18276
v -0.10606 0.00778 0.17426
v -0.12274 -0.01490 0.16084
v -0.13369 0.01206 0.15477
v -0.15343 -0.01442 0.13717
v -0.16781 -0.00177 0.12951
v 0.12028 0.01072 -0.16369
v 0.12866 -0.01938 -0.15196
v 0.10281 -0.00323 -0.17571
v 0.01629 -0.02451 0.18975
v -0.03484 -0.00582 0.19862
v -0.02184 -0.01790 0.19483
v 0.21522 -0.01440 0.03187
v 0.20795 0.00330 0.07249
v 0.21314 -0.01290 0.04611
v 0.21827 0.00821 0.03277
v 0.21267 0.00952 0.05340
v 0.20795 0.00330 0.07249
vt 0.69915 0.46745
vt 0.67276 0.49479
vt 0.69020 0.51477
vt 0.66364 0.53327
vt 0.69686 0.54222
vt 0.66789 0.56826
vt 0.68769 0.55934
vt 0.68723 0.58968
vt 0.72129 0.48716
vt 0.70976 0.58576
vt 0.72410 0.48405
vt 0.74300 0.47238
vt 0.74537 0.51744
vt 0.73681 0.55573
vt 0.75059 0.57453
vt 0.75045 0.62313
vt 0.73123 0.61761
vt 0.70448 0.60525
vt 0.77994 0.53568
vt 0.70722 0.63701
vt 0.79858 0.51679
vt 0.79795 0.49267
vt 0.80873 0.56592
vt 0.82307 0.54165
vt 0.78562 0.58855
vt 0.77715 0.62913
vt 0.81055 0.60818
vt 0.80475 0.49128
vt 0.80253 0.43689
vt 0.73880 0.64639
vt 0.80256 0.64018
vt 0.74786 0.65979
vt 0.80182 0.64842
vt 0.85082 0.45979
vt 0.77644 0.68211
vt 0.82491 0.66926
vt 0.72833 0.67297
vt 0.68222 0.61043
vt 0.83245 0.68739
vt 0.80310 0.70889
vt 0.83131 0.71473
vt 0.85233 0.70614
vt 0.74190 0.70062
vt 0.77754 0.72186
vt 0.70792 0.66270
vt 0.81924 0.74174
vt 0.81830 0.39523
vt 0.72765 0.41068
vt 0.76991 0.36655
vt 0.81115 0.35278
vt 0.75778 0.72735
vt 0.77158 0.73828
vt 0.71048 0.69493
vt 0.69673 0.67294
vt 0.67723 0.65498
vt 0.68822 0.63829
vt 0.65726 0.61654
vt 0.68893 0.43704
vt 0.79381 0.32917
vt 0.85233 0.32351
vt 0.84322 0.28719
vt 0.67056 0.46614
vt 0.64718 0.48052
vt 0.65278 0.59378
vt 0.65488 0.59992
vt 0.75043 0.33763
vt 0.68396 0.41770
vt 0.65511 0.49102
vt 0.63472 0.50386
vt 0.64051 0.54654
vt 0.05470 0.32288
vt 0.03682 0.32459
vt 0.07588 0.29580
vt 0.05102 0.26479
vt 0.04980 0.37009
vt 0.06580 0.34554
vt 0.08477 0.39524
vt 0.12921 0.33015
vt 0.13831 0.37316
vt 0.10589 0.40841
vt 0.10855 0.26847
vt 0.07466 0.19645
vt 0.11696 0.24460
vt 0.11537 0.18150
vt 0.18604 0.39091
vt 0.12759 0.43582
vt 0.21879 0.42014
vt 0.07306 0.16259
vt 0.12871 0.11338
vt 0.13831 0.15769
vt 0.18850 0.10276
vt 0.18513 0.08526
vt 0.16557 0.07407
vt 0.21369 0.04225
vt 0.25504 0.04358
vt 0.17209 0.43200
vt 0.17917 0.05260
vt 0.24954 0.01694
vt 0.30878 0.01797
vt 0.11203 0.09040
vt 0.11394 0.45334
vt 0.15620 0.05459
vt 0.06461 0.14914
vt 0.02821 0.21933
vt 0.02181 0.25871
vt 0.12007 0.05814
vt 0.00259 0.29873
vt 0.07582 0.44617
vt 0.39383 0.14645
vt 0.42041 0.18308
vt 0.36718 0.17875
vt 0.42266 0.13555
vt 0.44457 0.15247
vt 0.32926 0.16139
vt 0.36400 0.13430
vt 0.32381 0.13732
vt 0.33241 0.20705
vt 0.40723 0.21587
vt 0.37534 0.21742
vt 0.33106 0.24307
vt 0.40783 0.24345
vt 0.45244 0.20287
vt 0.35952 0.27566
vt 0.46447 0.23338
vt 0.46934 0.24241
vt 0.43331 0.26178
vt 0.43886 0.28017
vt 0.50260 0.25764
vt 0.49662 0.19986
vt 0.48198 0.15003
vt 0.52770 0.21095
vt 0.35197 0.33370
vt 0.31568 0.30873
vt 0.28937 0.29718
vt 0.27406 0.29003
vt 0.23851 0.20101
vt 0.27604 0.23563
vt 0.25872 0.17549
vt 0.28594 0.16266
vt 0.23515 0.28487
vt 0.22907 0.23266
vt 0.32404 0.12592
vt 0.28955 0.35816
vt 0.23089 0.33620
vt 0.26718 0.35955
vt 0.26031 0.30002
vt 0.17644 0.24245
vt 0.37518 0.37928
vt 0.30504 0.38784
vt 0.38438 0.35314
vt 0.43291 0.32138
vt 0.40800 0.30347
vt 0.52714 0.28642
vt 0.48210 0.31577
vt 0.46807 0.33368
vt 0.47316 0.36491
vt 0.41665 0.38138
vt 0.38136 0.39843
vt 0.17312 0.31806
vt 0.29316 0.42620
vt 0.29131 0.41051
vt 0.23529 0.41418
vt 0.26985 0.41990
vt 0.33954 0.44144
vt 0.22764 0.15882
vt 0.29738 0.10994
vt 0.22925 0.13972
vt 0.16625 0.20331
vt 0.42888 0.11568
vt 0.26160 0.10399
vt 0.38924 0.07394
vt 0.51046 0.34472
vt 0.50500 0.15671
vt 0.53106 0.17773
vt 0.52438 0.16689
vt 0.55159 0.23586
vt 0.53868 0.25868
vt 0.49172 0.14248
vt 0.49521 0.11610
vt 0.46632 0.10895
vt 0.18188 0.15612
vt 0.20448 0.11426
vt 0.13675 0.29546
vt 0.33753 0.06062
vt 0.29884 0.06341
vt 0.35768 0.08370
vt 0.26205 0.06570
vt 0.55584 0.19457
vt 0.47370 0.07844
vt 0.47817 0.07942
vt 0.40026 0.06571
vt 0.36330 0.05368
vt 0.53706 0.15679
vt 0.52661 0.12190
vt 0.57487 0.27883
vt 0.42509 0.05229
vt 0.55958 0.13144
vt 0.57350 0.17049
vt 0.51127 0.09005
vt 0.58583 0.21357
vt 0.36050 0.03082
vt 0.56783 0.13671
vt 0.43823 0.02186
vt 0.61965 0.24533
vt 0.49162 0.04741
vt 0.51962 0.06774
vt 0.48221 0.03774
vt 0.46209 0.03195
vt 0.58362 0.13894
vt 0.58854 0.16617
vt 0.61708 0.18241
vt 0.54903 0.08247
vt 0.33519 0.00565
vt 0.58375 0.11955
vt 0.37784 0.00207
vt 0.58501 0.09391
vt 0.62927 0.20467
vt 0.58094 0.08799
vt 0.56603 0.07509
vt 0.60975 0.14186
vt 0.46341 0.01114
vt 0.52996 0.04054
vt 0.63990 0.19479
vt 0.24911 0.45140
vt 0.18614 0.46247
vt 0.16377 0.43865
vt 0.21292 0.48650
vt 0.30513 0.48032
vt 0.35472 0.45268
vt 0.29009 0.51382
vt 0.40545 0.45635
vt 0.36145 0.48725
vt 0.43736 0.40981
vt 0.44130 0.43533
vt 0.47598 0.38758
vt 0.48844 0.42304
vt 0.42930 0.49012
vt 0.46663 0.47871
vt 0.50815 0.42968
vt 0.53917 0.37303
vt 0.57331 0.32271
vt 0.55555 0.39800
vt 0.59902 0.30537
vt 0.59636 0.34889
vt 0.51275 0.45195
vt 0.38507 0.51290
vt 0.16708 0.47958
vt 0.56217 0.42435
vt 0.60702 0.36843
vt 0.63946 0.27262
vt 0.21314 0.51860
vt 0.45547 0.50163
vt 0.43520 0.51860
vt 0.95311 0.33234
vt 0.93443 0.30134
vt 0.92439 0.33684
vt 0.93428 0.36402
vt 0.96752 0.38060
vt 0.96660 0.35255
vt 0.96280 0.30260
vt 0.94914 0.28222
vt 0.94587 0.37900
vt 0.97049 0.39876
vt 0.96692 0.27092
vt 0.94305 0.25300
vt 0.95818 0.23475
vt 0.98510 0.32561
vt 0.98304 0.34875
vt 0.93318 0.23670
vt 0.94398 0.20496
vt 0.91969 0.25769
vt 0.98019 0.18751
vt 0.96198 0.18407
vt 0.97754 0.20290
vt 0.97658 0.22120
vt 0.99741 0.23815
vt 0.96815 0.17085
vt 0.99741 0.29804
vt 0.99356 0.27002
vt 0.99534 0.15992
vt 0.97791 0.13787
vt 0.96403 0.14501
vt 0.94166 0.15548
vt 0.98284 0.08884
vt 0.16661 0.87936
vt 0.19888 0.83546
vt 0.19015 0.90552
vt 0.21552 0.88421
vt 0.16508 0.88566
vt 0.24248 0.83066
vt 0.14963 0.83497
vt 0.16527 0.83061
vt 0.12033 0.84297
vt 0.20725 0.78704
vt 0.17974 0.80471
vt 0.17467 0.76720
vt 0.12309 0.80439
vt 0.13778 0.77569
vt 0.08872 0.81167
vt 0.07843 0.83039
vt 0.08135 0.87200
vt 0.11378 0.90759
vt 0.09532 0.89464
vt 0.13013 0.93318
vt 0.15445 0.92396
vt 0.18222 0.94013
vt 0.14015 0.93561
vt 0.25934 0.82383
vt 0.24666 0.87979
vt 0.29591 0.82679
vt 0.24205 0.73319
vt 0.25734 0.76704
vt 0.29190 0.78121
vt 0.17878 0.73333
vt 0.31200 0.89569
vt 0.25507 0.91502
vt 0.23298 0.95393
vt 0.31099 0.75088
vt 0.32521 0.81636
vt 0.34995 0.81410
vt 0.33439 0.89805
vt 0.38024 0.84215
vt 0.37084 0.75455
vt 0.26712 0.94888
vt 0.28019 0.70939
vt 0.31856 0.70022
vt 0.33223 0.70561
vt 0.32521 0.97436
vt 0.35060 0.91650
vt 0.38959 0.89275
vt 0.37339 0.94333
vt 0.29229 0.97392
vt 0.19854 0.96599
vt 0.40883 0.73777
vt 0.40073 0.81916
vt 0.40985 0.79191
vt 0.35274 0.69578
vt 0.47491 0.76983
vt 0.44597 0.87568
vt 0.44025 0.74327
vt 0.49212 0.82747
vt 0.43454 0.92508
vt 0.49992 0.89135
vt 0.39504 0.67583
vt 0.48262 0.70552
vt 0.53488 0.77050
vt 0.47471 0.68309
vt 0.52322 0.72451
vt 0.38002 0.66637
vt 0.53211 0.86667
vt 0.39524 0.98554
vt 0.41929 0.95375
vt 0.45011 0.97775
vt 0.45865 0.95591
vt 0.51876 0.93732
vt 0.44160 0.65413
vt 0.58572 0.81347
vt 0.49322 0.97353
vt 0.54036 0.68021
vt 0.50347 0.98554
vt 0.59253 0.88501
vt 0.53826 0.95159
vt 0.59600 0.73549
vt 0.49030 0.64268
vt 0.60031 0.91809
vt 0.58370 0.95440
vt 0.63990 0.87854
vt 0.63699 0.85636
vt 0.08309 0.71960
vt 0.05004 0.71560
vt 0.09055 0.68433
vt 0.12797 0.68079
vt 0.03608 0.73107
vt 0.04842 0.75645
vt 0.03215 0.76476
vt 0.01813 0.75647
vt 0.13358 0.65403
vt 0.12384 0.70587
vt 0.02548 0.78815
vt 0.14575 0.69472
vt 0.17258 0.64609
vt 0.08962 0.77035
vt 0.11590 0.74662
vt 0.06805 0.79078
vt 0.14038 0.73384
vt 0.03046 0.81861
vt 0.22773 0.65220
vt 0.18115 0.70700
vt 0.23321 0.68559
vt 0.04062 0.83619
vt 0.26747 0.66145
vt 0.33714 0.63796
vt 0.27066 0.62728
vt 0.24789 0.62575
vt 0.40011 0.63169
vt 0.02483 0.88028
vt 0.06185 0.88391
vt 0.02140 0.84709
vt 0.33920 0.62326
vt 0.30541 0.59825
vt 0.43689 0.61360
vt 0.38059 0.59944
vt 0.20528 0.60889
vt 0.47262 0.61327
vt 0.25194 0.59469
vt 0.12001 0.63936
vt 0.05499 0.68585
vt 0.33024 0.57645
vt 0.38758 0.57853
vt 0.93439 0.86235
vt 0.91534 0.84407
vt 0.94527 0.89840
vt 0.90820 0.90000
vt 0.93726 0.93146
vt 0.95016 0.81510
vt 0.91857 0.77089
vt 0.93613 0.77311
vt 0.94219 0.72169
vt 0.89378 0.82775
vt 0.96752 0.74529
vt 0.98187 0.88867
vt 0.98114 0.96074
vt 0.98187 0.69098
vt 0.97084 0.65909
vt 0.69689 0.05992
vt 0.66862 0.05017
vt 0.69689 0.01974
vt 0.65544 0.01033
vt 0.03470 0.51033
vt 0.05440 0.56240
vt 0.01813 0.54916
vt 0.05440 0.52891
vt 0.03724 0.57645
vt 0.77979 0.87991
vt 0.77979 0.93182
vt 0.73834 0.91050
vt 0.75058 0.86157
vt 0.95330 0.00620
vt 0.89896 0.03099
vt 0.97150 0.03099
vt 0.94256 0.48967
vt 0.94041 0.54145
vt 0.97668 0.53373
vt 0.97668 0.58107
vt 0.95432 0.60537
vt 0.80297 0.02686
vt 0.77462 0.05524
vt 0.80320 0.08925
vt 0.78071 0.11074
vt 0.81606 0.13455
vt 0.77461 0.14874
vt 0.81606 0.17785
vt 0.79660 0.19628
vt 0.00259 0.99380
vt 0.04922 0.99380
vt 0.00814 0.96488
vt 0.72280 0.80785
vt 0.80052 0.80785
vt 0.77691 0.79959
vt 0.72798 0.99793
vt 0.79534 0.99793
vt 0.74869 0.98967
vt 0.02332 0.05579
vt 0.01295 0.03051
vt 0.02332 0.00620
vn 0.2623 0.6738 0.6908
vn 0.4180 0.4271 0.8018
vn 0.3697 0.7289 0.5762
vn 0.5534 0.3740 0.7443
vn 0.3804 0.8030 0.4588
vn 0.6181 0.4753 0.6261
vn 0.4575 0.7446 0.4861
vn 0.5337 0.7243 0.4365
vn 0.2224 0.8567 0.4654
vn 0.4010 0.8560 0.3262
vn 0.2109 0.8619 0.4611
vn 0.1549 0.8974 0.4131
vn 0.2076 0.9293 0.3055
vn 0.2690 0.9223 0.2776
vn 0.2638 0.9392 0.2197
vn 0.3516 0.9227 0.1584
vn 0.3944 0.8949 0.2089
vn 0.4757 0.8195 0.3197
vn 0.1735 0.9623 0.2093
vn 0.5686 0.7803 0.2604
vn 0.1345 0.9704 0.2004
vn 0.1105 0.9665 0.2316
vn 0.1697 0.9751 0.1429
vn 0.1316 0.9807 0.1448
vn 0.2251 0.9626 0.1510
vn 0.3086 0.9450 0.1088
vn 0.2201 0.9705 0.0988
vn 0.1022 0.9696 0.2223
vn 0.0288 0.9458 0.3236
vn 0.4465 0.8824 0.1482
vn 0.2889 0.9554 0.0611
vn 0.4542 0.8840 0.1103
vn 0.3050 0.9511 0.0496
vn 0.0175 0.9810 0.1932
vn 0.4312 0.9017 0.0310
vn 0.3058 0.9521 -0.0083
vn 0.5994 0.7884 0.1385
vn 0.6479 0.6231 0.4381
vn 0.3276 0.9438 -0.0435
vn 0.4435 0.8949 -0.0503
vn 0.3936 0.9150 -0.0882
vn 0.3286 0.9396 -0.0955
vn 0.6747 0.7357 0.0594
vn 0.6044 0.7949 -0.0532
vn 0.6889 0.6896 0.2234
vn 0.5434 0.8255 -0.1523
vn -0.0492 0.9225 0.3828
vn 0.0948 0.6035 0.7917
vn -0.0807 0.6415 0.7629
vn -0.1518 0.7995 0.5812
vn 0.7778 0.6270 -0.0424
vn 0.7788 0.6194 -0.0986
vn 0.9039 0.3950 0.1643
vn 0.8596 0.4397 0.2602
vn 0.9065 0.1729 0.3851
vn 0.7257 0.5874 0.3582
vn 0.8279 -0.0415 0.5594
vn 0.2511 0.2579 0.9330
vn -0.2410 0.4497 0.8600
vn -0.2479 0.8124 0.5278
vn -0.4361 0.3234 0.8398
vn 0.3641 0.1878 0.9122
vn 0.4041 -0.3565 0.8424
vn 0.7692 -0.0313 0.6382
vn 0.7856 0.0173 0.6185
vn -0.1538 -0.2037 0.9669
vn 0.2063 -0.1518 0.9666
vn 0.4578 -0.0445 0.8879
vn 0.4486 -0.4956 0.7437
vn 0.6069 -0.2936 0.7386
vn -0.3327 -0.6038 -0.7244
vn -0.4005 -0.2516 -0.8811
vn -0.2020 -0.8097 -0.5510
vn -0.1851 -0.6100 -0.7705
vn -0.5466 -0.2202 -0.8079
vn -0.3710 -0.6714 -0.6416
vn -0.5135 -0.6406 -0.5710
vn -0.1886 -0.9344 -0.3024
vn -0.2626 -0.9237 -0.2789
vn -0.4896 -0.7458 -0.4518
vn -0.1112 -0.9080 -0.4040
vn 0.0295 -0.6883 -0.7248
vn -0.0572 -0.9165 -0.3959
vn 0.0846 -0.8630 -0.4981
vn -0.2462 -0.9544 -0.1689
vn -0.5802 -0.7198 -0.3812
vn -0.2920 -0.9504 -0.1070
vn 0.1544 -0.4588 -0.8750
vn 0.2825 -0.6998 -0.6561
vn 0.1446 -0.8820 -0.4486
vn 0.2590 -0.8817 -0.3945
vn 0.3248 -0.8231 -0.4658
vn 0.4127 -0.6634 -0.6241
vn 0.5466 -0.6218 -0.5608
vn 0.4807 -0.7957 -0.3686
vn -0.4011 -0.8928 -0.2051
vn 0.5363 -0.4825 -0.6925
vn 0.7425 -0.3867 -0.5469
vn 0.6767 -0.6746 -0.2950
vn 0.4191 -0.1282 -0.8989
vn -0.8022 -0.3219 -0.5028
vn 0.5561 -0.1928 -0.8084
vn 0.2061 -0.1038 -0.9730
vn -0.0790 0.1383 -0.9872
vn -0.2205 0.0813 -0.9720
vn 0.4488 0.4478 -0.7733
vn -0.3065 0.4769 -0.8238
vn -0.7108 0.4305 -0.5563
vn 0.1814 -0.9829 0.0315
vn 0.1324 -0.9873 0.0874
vn 0.1158 -0.9932 0.0071
vn 0.2198 -0.9728 0.0730
vn 0.1962 -0.9738 0.1150
vn 0.1320 -0.9897 -0.0550
vn 0.1928 -0.9810 -0.0196
vn 0.1723 -0.9818 -0.0800
vn 0.0663 -0.9975 -0.0243
vn 0.0810 -0.9938 0.0760
vn 0.0656 -0.9972 0.0346
vn 0.0236 -0.9997 -0.0103
vn 0.0473 -0.9955 0.0816
vn 0.1231 -0.9836 0.1321
vn -0.0073 -0.9993 0.0372
vn 0.0900 -0.9844 0.1510
vn 0.0797 -0.9838 0.1604
vn 0.0339 -0.9926 0.1166
vn 0.0096 -0.9914 0.1308
vn 0.0741 -0.9713 0.2259
vn 0.1564 -0.9678 0.1974
vn 0.2264 -0.9589 0.1713
vn 0.1655 -0.9501 0.2645
vn -0.0789 -0.9952 0.0576
vn -0.0534 -0.9986 -0.0016
vn -0.0486 -0.9981 -0.0388
vn -0.0478 -0.9971 -0.0590
vn 0.0654 -0.9868 -0.1485
vn 0.0199 -0.9971 -0.0731
vn 0.1063 -0.9844 -0.1403
vn 0.1246 -0.9855 -0.1148
vn -0.0651 -0.9916 -0.1118
vn 0.0113 -0.9898 -0.1419
vn 0.1951 -0.9768 -0.0880
vn -0.1385 -0.9902 -0.0151
vn -0.1303 -0.9847 -0.1153
vn -0.1497 -0.9874 -0.0512
vn -0.0680 -0.9947 -0.0768
vn -0.0221 -0.9726 -0.2316
vn -0.1506 -0.9817 0.1167
vn -0.1803 -0.9833 0.0232
vn -0.1048 -0.9886 0.1086
vn -0.0494 -0.9882 0.1449
vn -0.0292 -0.9942 0.1035
vn 0.0367 -0.9528 0.3015
vn -0.0287 -0.9745 0.2226
vn -0.0626 -0.9754 0.2115
vn -0.1218 -0.9596 0.2535
vn -0.1523 -0.9729 0.1738
vn -0.1847 -0.9726 0.1412
vn -0.1385 -0.9693 -0.2033
vn -0.2580 -0.9657 0.0287
vn -0.2232 -0.9747 0.0152
vn -0.2620 -0.9618 -0.0795
vn -0.2544 -0.9670 -0.0144
vn -0.2878 -0.9492 0.1271
vn 0.1313 -0.9702 -0.2038
vn 0.2218 -0.9645 -0.1432
vn 0.1615 -0.9615 -0.2226
vn 0.0438 -0.9567 -0.2877
vn 0.2741 -0.9591 0.0714
vn 0.2319 -0.9502 -0.2084
vn 0.3734 -0.9275 -0.0158
vn -0.0755 -0.9450 0.3181
vn 0.2367 -0.9478 0.2135
vn 0.2292 -0.9342 0.2735
vn 0.2408 -0.9354 0.2589
vn 0.1467 -0.9293 0.3389
vn 0.0951 -0.9452 0.3125
vn 0.2519 -0.9491 0.1888
vn 0.3350 -0.9211 0.1982
vn 0.3232 -0.9369 0.1332
vn 0.1391 -0.9415 -0.3069
vn 0.2196 -0.9223 -0.3180
vn -0.1343 -0.9472 -0.2912
vn 0.3897 -0.9139 -0.1134
vn 0.3618 -0.9123 -0.1916
vn 0.3208 -0.9453 -0.0597
vn 0.3523 -0.8943 -0.2757
vn 0.2308 -0.9099 0.3446
vn 0.4581 -0.8766 0.1472
vn 0.4628 -0.8721 0.1591
vn 0.4123 -0.9110 -0.0015
vn 0.4350 -0.8973 -0.0745
vn 0.2828 -0.9117 0.2982
vn 0.3745 -0.8817 0.2870
vn 0.0862 -0.8734 0.4792
vn 0.5079 -0.8605 0.0402
vn 0.4307 -0.8024 0.4132
vn 0.3290 -0.8401 0.4312
vn 0.4898 -0.8326 0.2586
vn 0.2418 -0.8404 0.4850
vn 0.5733 -0.8115 -0.1130
vn 0.4377 -0.7792 0.4486
vn 0.8251 -0.5609 0.0670
vn 0.2434 -0.5934 0.7672
vn 0.7533 -0.6137 0.2365
vn 0.6912 -0.6429 0.3301
vn 0.8195 -0.5321 0.2127
vn 0.8020 -0.5800 0.1429
vn 0.4971 -0.6742 0.5462
vn 0.3960 -0.7506 0.5290
vn 0.4486 -0.4956 0.7437
vn 0.7158 -0.5210 0.4649
vn 0.8336 -0.4852 -0.2641
vn 0.6174 -0.5084 0.6003
vn 0.9354 -0.3223 -0.1453
vn 0.7692 -0.0313 0.6382
vn 0.4041 -0.3565 0.8424
vn 0.7856 0.0173 0.6185
vn 0.8279 -0.0415 0.5594
vn 0.6069 -0.2936 0.7386
vn 0.9899 0.0274 0.1392
vn 0.9065 0.1729 0.3851
vn 0.4578 -0.0445 0.8879
vn -0.3768 -0.9256 -0.0363
vn -0.5475 -0.8162 -0.1846
vn -0.4591 -0.8571 -0.2339
vn -0.6761 -0.7274 -0.1170
vn -0.4726 -0.8735 0.1169
vn -0.3275 -0.9291 0.1719
vn -0.7984 -0.5832 0.1494
vn -0.3530 -0.8928 0.2799
vn -0.5068 -0.8200 0.2660
vn -0.2152 -0.9441 0.2498
vn -0.2899 -0.9046 0.3124
vn -0.1726 -0.9402 0.2938
vn -0.2805 -0.8632 0.4198
vn -0.5945 -0.6232 0.5082
vn -0.5684 -0.5444 0.6169
vn -0.3281 -0.7742 0.5412
vn -0.1503 -0.8577 0.4918
vn -0.0112 -0.8354 0.5495
vn -0.2503 -0.6687 0.7001
vn 0.0490 -0.7105 0.7020
vn -0.0826 -0.5731 0.8153
vn -0.4631 -0.5382 0.7042
vn -0.7751 -0.4309 0.4620
vn -0.7790 -0.5624 -0.2772
vn -0.3741 -0.2538 0.8920
vn -0.1538 -0.2037 0.9669
vn 0.2063 -0.1518 0.9666
vn -0.9908 0.0743 -0.1129
vn -0.7186 -0.0666 0.6922
vn -0.7367 0.3065 0.6027
vn 0.7005 0.1288 -0.7019
vn 0.7425 -0.3867 -0.5469
vn 0.5466 -0.6218 -0.5608
vn 0.5363 -0.4825 -0.6925
vn 0.5026 0.4341 -0.7476
vn 0.5732 0.4503 -0.6846
vn 0.7065 0.4693 -0.5298
vn 0.8530 0.0758 -0.5163
vn 0.5561 -0.1928 -0.8084
vn 0.4488 0.4478 -0.7733
vn 0.7395 0.5521 -0.3852
vn 0.9083 -0.1850 -0.3753
vn 0.9165 0.2910 -0.2744
vn 0.4859 0.7420 -0.4618
vn 0.4673 0.6951 -0.5464
vn 0.8336 -0.4852 -0.2641
vn 0.9354 -0.3223 -0.1453
vn 0.6767 -0.6746 -0.2950
vn 0.7778 0.6270 -0.0424
vn 0.9812 0.1869 -0.0487
vn 0.7788 0.6194 -0.0986
vn 0.7455 0.6474 -0.1587
vn 0.5434 0.8255 -0.1523
vn 0.9471 0.3203 0.0189
vn 0.4527 0.8315 -0.3220
vn 0.5217 0.8133 -0.2575
vn 0.6747 0.7357 0.0594
vn 0.9039 0.3950 0.1643
vn 0.9899 0.0274 0.1392
vn 0.8251 -0.5609 0.0670
vn 0.9065 0.1729 0.3851
vn 0.1835 0.9828 -0.0226
vn 0.1141 0.9902 -0.0810
vn 0.1731 0.9841 0.0398
vn 0.1263 0.9918 0.0182
vn 0.1917 0.9814 -0.0119
vn 0.0648 0.9965 -0.0526
vn 0.1734 0.9773 -0.1219
vn 0.1512 0.9816 -0.1166
vn 0.2197 0.9670 -0.1292
vn 0.0870 0.9862 -0.1412
vn 0.1237 0.9822 -0.1412
vn 0.1183 0.9733 -0.1966
vn 0.1950 0.9628 -0.1872
vn 0.1658 0.9610 -0.2212
vn 0.2524 0.9435 -0.2148
vn 0.2864 0.9392 -0.1896
vn 0.3286 0.9396 -0.0955
vn 0.3058 0.9521 -0.0083
vn 0.3276 0.9438 -0.0435
vn 0.3050 0.9511 0.0496
vn 0.2500 0.9670 0.0495
vn 0.2201 0.9705 0.0988
vn 0.2889 0.9554 0.0611
vn 0.0453 0.9977 -0.0508
vn 0.0900 0.9955 0.0304
vn 0.0143 0.9997 -0.0206
vn 0.0118 0.9796 -0.2005
vn 0.0172 0.9910 -0.1330
vn -0.0085 0.9955 -0.0941
vn 0.1005 0.9594 -0.2634
vn 0.0431 0.9954 0.0855
vn 0.1107 0.9895 0.0928
vn 0.1697 0.9751 0.1429
vn -0.0489 0.9909 -0.1255
vn -0.0200 0.9996 -0.0180
vn -0.0489 0.9988 -0.0057
vn 0.0237 0.9949 0.0982
vn -0.0620 0.9967 0.0522
vn -0.1051 0.9910 -0.0835
vn 0.1316 0.9807 0.1448
vn -0.0501 0.9742 -0.2202
vn -0.1004 0.9713 -0.2157
vn -0.1080 0.9750 -0.1944
vn 0.1022 0.9696 0.2223
vn 0.0210 0.9911 0.1311
vn -0.0376 0.9919 0.1215
vn 0.0175 0.9810 0.1932
vn 0.1345 0.9704 0.2004
vn 0.2251 0.9626 0.1510
vn -0.1535 0.9842 -0.0885
vn -0.0948 0.9949 0.0333
vn -0.1161 0.9932 -0.0014
vn -0.1364 0.9694 -0.2040
vn -0.1963 0.9805 0.0084
vn -0.1121 0.9836 0.1410
vn -0.1808 0.9817 -0.0604
vn -0.1870 0.9753 0.1179
vn -0.0718 0.9739 0.2154
vn -0.1752 0.9565 0.2334
vn -0.2079 0.9510 -0.2288
vn -0.2946 0.9493 -0.1096
vn -0.3099 0.9479 0.0734
vn -0.3289 0.9290 -0.1699
vn -0.3627 0.9310 -0.0415
vn -0.2061 0.9415 -0.2667
vn -0.2417 0.9405 0.2390
vn 0.0288 0.9458 0.3236
vn -0.0263 0.9639 0.2651
vn -0.0492 0.9225 0.3828
vn -0.0815 0.9422 0.3249
vn -0.1999 0.8978 0.3924
vn -0.3327 0.9005 -0.2799
vn -0.4295 0.8684 0.2477
vn -0.1325 0.8709 0.4732
vn -0.5816 0.7982 -0.1572
vn -0.1518 0.7995 0.5812
vn -0.4411 0.7627 0.4730
vn -0.2479 0.8124 0.5278
vn -0.6750 0.7337 0.0782
vn -0.5566 0.7624 -0.3301
vn -0.5189 0.4841 0.7046
vn -0.4361 0.3234 0.8398
vn -0.7186 -0.0666 0.6922
vn -0.7367 0.3065 0.6027
vn 0.2929 0.7779 -0.5559
vn 0.4488 0.4478 -0.7733
vn 0.3095 0.5077 -0.8040
vn 0.1918 0.7537 -0.6286
vn 0.5026 0.4341 -0.7476
vn 0.3919 0.7681 -0.5065
vn 0.4673 0.6951 -0.5464
vn 0.5732 0.4503 -0.6846
vn 0.1832 0.4846 -0.8553
vn 0.1914 0.8553 -0.4815
vn 0.4859 0.7420 -0.4618
vn 0.1476 0.8679 -0.4743
vn 0.0586 0.6691 -0.7408
vn 0.2495 0.9164 -0.3130
vn 0.1977 0.9231 -0.3300
vn 0.3004 0.9042 -0.3036
vn 0.1575 0.9333 -0.3227
vn 0.4527 0.8315 -0.3220
vn -0.0436 0.8595 -0.5093
vn 0.0844 0.9370 -0.3390
vn -0.0133 0.9423 -0.3346
vn 0.4156 0.8774 -0.2398
vn -0.0925 0.9176 -0.3866
vn -0.2082 0.8840 -0.4186
vn -0.1571 0.7902 -0.5923
vn -0.1275 0.7348 -0.6662
vn -0.3253 0.8521 -0.4100
vn 0.5434 0.8255 -0.1523
vn 0.3936 0.9150 -0.0882
vn 0.5217 0.8133 -0.2575
vn -0.2553 0.8195 -0.5131
vn -0.3065 0.4769 -0.8238
vn -0.5375 0.6448 -0.5434
vn -0.4708 0.5148 -0.7165
vn -0.0790 0.1383 -0.9872
vn -0.7108 0.4305 -0.5563
vn -0.2205 0.0813 -0.9720
vn 0.2061 -0.1038 -0.9730
vn 0.4191 -0.1282 -0.8989
vn -0.4005 -0.2516 -0.8811
vn -0.5466 -0.2202 -0.8079
vn -0.7931 0.5205 0.3164
vn -0.9611 -0.0318 0.2743
vn -0.6642 0.6294 0.4034
vn -0.7751 -0.4309 0.4620
vn -0.7367 0.3065 0.6027
vn -0.6750 0.7337 0.0782
vn -0.9908 0.0743 -0.1129
vn -0.8376 0.5386 -0.0915
vn -0.8429 0.4359 -0.3154
vn -0.7984 -0.5832 0.1494
vn -0.5816 0.7982 -0.1572
vn -0.4295 0.8684 0.2477
vn -0.4411 0.7627 0.4730
vn -0.5566 0.7624 -0.3301
vn -0.7108 0.4305 -0.5563
vn 0.6069 -0.2936 0.7386
vn 0.5534 0.3740 0.7443
vn 0.4486 -0.4956 0.7437
vn 0.4180 0.4271 0.8018
vn 0.4041 -0.3565 0.8424
vn 0.2511 0.2579 0.9330
vn 0.2434 -0.5934 0.7672
vn 0.3641 0.1878 0.9122
vn 0.2063 -0.1518 0.9666
vn -0.5375 0.6448 -0.5434
vn -0.5466 -0.2202 -0.8079
vn -0.5135 -0.6406 -0.5710
vn -0.7108 0.4305 -0.5563
vn -0.3065 0.4769 -0.8238
vn -0.1851 -0.6100 -0.7705
vn -0.4005 -0.2516 -0.8811
vn -0.9908 0.0743 -0.1129
vn -0.8429 0.4359 -0.3154
vn -0.7790 -0.5624 -0.2772
vn -0.8022 -0.3219 -0.5028
vn -0.7108 0.4305 -0.5563
vn -0.1538 -0.2037 0.9669
vn -0.2410 0.4497 0.8600
vn -0.3741 -0.2538 0.8920
vn -0.4361 0.3234 0.8398
vn -0.4631 -0.5382 0.7042
vn -0.5189 0.4841 0.7046
vn -0.5684 -0.5444 0.6169
vn -0.7186 -0.0666 0.6922
vn 0.4488 0.4478 -0.7733
vn 0.4127 -0.6634 -0.6241
vn 0.4191 -0.1282 -0.8989
vn 0.0490 -0.7105 0.7020
vn -0.1538 -0.2037 0.9669
vn -0.0826 -0.5731 0.8153
vn 0.8020 -0.5800 0.1429
vn 0.9065 0.1729 0.3851
vn 0.8195 -0.5321 0.2127
vn 0.9039 0.3950 0.1643
vn 0.8596 0.4397 0.2602
vn 0.9065 0.1729 0.3851
f 417/417/417 416/416/416 415/415/415
f 416/416/416 411/411/411 415/415/415
f 251/251/251 227/227/227 230/230/230
f 416/416/416 419/419/419 411/411/411
f 251/251/251 247/247/247 227/227/227
f 441/441/441 442/442/442 443/443/443
f 411/411/411 410/410/410 415/415/415
f 416/416/416 417/417/417 418/418/418
f 420/420/420 418/418/418 417/417/417
f 227/227/227 228/228/228 230/230/230
f 225/225/225 227/227/227 247/247/247
f 419/419/419 413/413/413 411/411/411
f 410/410/410 411/411/411 412/412/412
f 417/417/417 415/415/415 420/420/420
f 232/232/232 230/230/230 228/228/228
f 232/232/232 246/246/246 230/230/230
f 442/442/442 444/444/444 443/443/443
f 413/413/413 412/412/412 411/411/411
f 420/420/420 423/423/423 418/418/418
f 421/421/421 415/415/415 410/410/410
f 225/225/225 247/247/247 86/86/86
f 247/247/247 101/101/101 86/86/86
f 445/445/445 444/444/444 442/442/442
f 423/423/423 424/424/424 418/418/418
f 228/228/228 227/227/227 224/224/224
f 237/237/237 253/253/253 246/246/246
f 413/413/413 414/414/414 412/412/412
f 410/410/410 412/412/412 421/421/421
f 359/359/359 347/347/347 364/364/364
f 346/346/346 359/359/359 363/363/363
f 227/227/227 225/225/225 224/224/224
f 226/226/226 225/225/225 86/86/86
f 348/348/348 345/345/345 359/359/359
f 346/346/346 363/363/363 357/357/357
f 232/232/232 237/237/237 246/246/246
f 101/101/101 80/80/80 86/86/86
f 252/252/252 253/253/253 237/237/237
f 401/401/401 404/404/404 364/364/364
f 359/359/359 345/345/345 347/347/347
f 346/346/346 348/348/348 359/359/359
f 164/164/164 228/228/228 224/224/224
f 87/87/87 225/225/225 96/96/96
f 87/87/87 224/224/224 225/225/225
f 164/164/164 229/229/229 228/228/228
f 226/226/226 96/96/96 225/225/225
f 226/226/226 86/86/86 96/96/96
f 101/101/101 108/108/108 80/80/80
f 96/96/96 86/86/86 87/87/87
f 231/231/231 237/237/237 232/232/232
f 238/238/238 252/252/252 237/237/237
f 421/421/421 412/412/412 422/422/422
f 87/87/87 162/162/162 224/224/224
f 224/224/224 160/160/160 164/164/164
f 87/87/87 86/86/86 85/85/85
f 86/86/86 80/80/80 85/85/85
f 108/108/108 77/77/77 80/80/80
f 414/414/414 422/422/422 412/412/412
f 162/162/162 163/163/163 224/224/224
f 224/224/224 163/163/163 160/160/160
f 229/229/229 231/231/231 228/228/228
f 228/228/228 231/231/231 232/232/232
f 437/437/437 434/434/434 436/436/436
f 364/364/364 356/356/356 401/401/401
f 347/347/347 356/356/356 364/364/364
f 338/338/338 348/348/348 346/346/346
f 338/338/338 345/345/345 348/348/348
f 231/231/231 238/238/238 237/237/237
f 434/434/434 435/435/435 436/436/436
f 367/367/367 361/361/361 368/368/368
f 409/409/409 401/401/401 402/402/402
f 395/395/395 401/401/401 356/356/356
f 350/350/350 346/346/346 357/357/357
f 85/85/85 80/80/80 79/79/79
f 453/453/453 452/452/452 451/451/451
f 367/367/367 365/365/365 361/361/361
f 346/346/346 350/350/350 341/341/341
f 163/163/163 162/162/162 161/161/161
f 80/80/80 77/77/77 79/79/79
f 231/231/231 236/236/236 238/238/238
f 76/76/76 77/77/77 75/75/75
f 450/450/450 451/451/451 452/452/452
f 395/395/395 356/356/356 344/344/344
f 347/347/347 344/344/344 356/356/356
f 160/160/160 158/158/158 164/164/164
f 148/148/148 158/158/158 160/160/160
f 164/164/164 231/231/231 229/229/229
f 77/77/77 76/76/76 79/79/79
f 163/163/163 161/161/161 160/160/160
f 231/231/231 233/233/233 234/234/234
f 234/234/234 236/236/236 231/231/231
f 239/239/239 238/238/238 236/236/236
f 239/239/239 245/245/245 238/238/238
f 361/361/361 350/350/350 357/357/357
f 143/143/143 162/162/162 87/87/87
f 149/149/149 162/162/162 143/143/143
f 162/162/162 149/149/149 161/161/161
f 164/164/164 233/233/233 231/231/231
f 402/402/402 408/408/408 409/409/409
f 395/395/395 402/402/402 401/401/401
f 341/341/341 338/338/338 346/346/346
f 149/149/149 160/160/160 161/161/161
f 79/79/79 76/76/76 78/78/78
f 349/349/349 392/392/392 395/395/395
f 349/349/349 395/395/395 344/344/344
f 334/334/334 347/347/347 345/345/345
f 338/338/338 340/340/340 345/345/345
f 85/85/85 145/145/145 87/87/87
f 87/87/87 145/145/145 143/143/143
f 149/149/149 148/148/148 160/160/160
f 75/75/75 71/71/71 76/76/76
f 449/449/449 451/451/451 450/450/450
f 334/334/334 344/344/344 347/347/347
f 334/334/334 345/345/345 340/340/340
f 144/144/144 79/79/79 159/159/159
f 233/233/233 164/164/164 158/158/158
f 79/79/79 78/78/78 159/159/159
f 236/236/236 234/234/234 233/233/233
f 448/448/448 449/449/449 450/450/450
f 365/365/365 362/362/362 361/361/361
f 362/362/362 350/350/350 361/361/361
f 334/334/334 340/340/340 338/338/338
f 144/144/144 85/85/85 79/79/79
f 71/71/71 75/75/75 72/72/72
f 362/362/362 365/365/365 366/366/366
f 395/395/395 399/399/399 402/402/402
f 392/392/392 399/399/399 395/395/395
f 144/144/144 145/145/145 85/85/85
f 148/148/148 157/157/157 158/158/158
f 248/248/248 245/245/245 242/242/242
f 408/408/408 402/402/402 400/400/400
f 399/399/399 400/400/400 402/402/402
f 149/149/149 143/143/143 148/148/148
f 158/158/158 157/157/157 233/233/233
f 239/239/239 242/242/242 245/245/245
f 337/337/337 392/392/392 349/349/349
f 334/334/334 337/337/337 344/344/344
f 336/336/336 334/334/334 338/338/338
f 339/339/339 338/338/338 341/341/341
f 132/132/132 148/148/148 143/143/143
f 71/71/71 78/78/78 76/76/76
f 71/71/71 73/73/73 78/78/78
f 392/392/392 400/400/400 399/399/399
f 355/355/355 350/350/350 362/362/362
f 337/337/337 349/349/349 344/344/344
f 132/132/132 150/150/150 148/148/148
f 156/156/156 235/235/235 233/233/233
f 235/235/235 236/236/236 233/233/233
f 71/71/71 72/72/72 73/73/73
f 438/438/438 439/439/439 440/440/440
f 323/323/323 337/337/337 334/334/334
f 330/330/330 335/335/335 338/338/338
f 330/330/330 338/338/338 339/339/339
f 157/157/157 156/156/156 233/233/233
f 78/78/78 81/81/81 183/183/183
f 240/240/240 242/242/242 239/239/239
f 393/393/393 400/400/400 392/392/392
f 355/355/355 343/343/343 350/350/350
f 341/341/341 350/350/350 343/343/343
f 144/144/144 143/143/143 145/145/145
f 144/144/144 159/159/159 146/146/146
f 81/81/81 78/78/78 73/73/73
f 240/240/240 239/239/239 236/236/236
f 446/446/446 447/447/447 448/448/448
f 447/447/447 449/449/449 448/448/448
f 61/61/61 59/59/59 60/60/60
f 360/360/360 355/355/355 362/362/362
f 393/393/393 392/392/392 391/391/391
f 336/336/336 338/338/338 335/335/335
f 156/156/156 236/236/236 235/235/235
f 249/249/249 248/248/248 242/242/242
f 105/105/105 74/74/74 107/107/107
f 326/326/326 391/391/391 392/392/392
f 326/326/326 392/392/392 337/337/337
f 326/326/326 337/337/337 327/327/327
f 327/327/327 337/337/337 318/318/318
f 339/339/339 341/341/341 342/342/342
f 342/342/342 341/341/341 343/343/343
f 335/335/335 334/334/334 336/336/336
f 74/74/74 73/73/73 72/72/72
f 322/322/322 334/334/334 335/335/335
f 140/140/140 159/159/159 78/78/78
f 148/148/148 156/156/156 157/157/157
f 183/183/183 140/140/140 78/78/78
f 236/236/236 156/156/156 240/240/240
f 405/405/405 400/400/400 393/393/393
f 59/59/59 50/50/50 60/60/60
f 358/358/358 355/355/355 360/360/360
f 133/133/133 132/132/132 143/143/143
f 143/143/143 144/144/144 133/133/133
f 73/73/73 74/74/74 81/81/81
f 320/320/320 323/323/323 334/334/334
f 322/322/322 320/320/320 334/334/334
f 322/322/322 335/335/335 330/330/330
f 146/146/146 133/133/133 144/144/144
f 150/150/150 151/151/151 148/148/148
f 342/342/342 343/343/343 355/355/355
f 355/355/355 354/354/354 342/342/342
f 326/326/326 327/327/327 318/318/318
f 318/318/318 337/337/337 323/323/323
f 132/132/132 151/151/151 150/150/150
f 148/148/148 151/151/151 156/156/156
f 240/240/240 156/156/156 172/172/172
f 59/59/59 66/66/66 49/49/49
f 358/358/358 354/354/354 355/355/355
f 320/320/320 318/318/318 323/323/323
f 151/151/151 155/155/155 156/156/156
f 249/249/249 242/242/242 244/244/244
f 49/49/49 50/50/50 59/59/59
f 391/391/391 394/394/394 393/393/393
f 360/360/360 354/354/354 358/358/358
f 326/326/326 325/325/325 391/391/391
f 140/140/140 183/183/183 81/81/81
f 155/155/155 172/172/172 156/156/156
f 387/387/387 394/394/394 391/391/391
f 134/134/134 133/133/133 146/146/146
f 123/123/123 132/132/132 133/133/133
f 140/140/140 135/135/135 159/159/159
f 132/132/132 152/152/152 151/151/151
f 74/74/74 105/105/105 104/104/104
f 393/393/393 403/403/403 405/405/405
f 319/319/319 318/318/318 320/320/320
f 135/135/135 146/146/146 159/159/159
f 154/154/154 172/172/172 155/155/155
f 244/244/244 242/242/242 240/240/240
f 394/394/394 403/403/403 393/393/393
f 354/354/354 360/360/360 353/353/353
f 342/342/342 354/354/354 353/353/353
f 312/312/312 326/326/326 318/318/318
f 313/313/313 312/312/312 318/318/318
f 152/152/152 132/132/132 127/127/127
f 140/140/140 81/81/81 147/147/147
f 81/81/81 74/74/74 83/83/83
f 241/241/241 244/244/244 240/240/240
f 74/74/74 104/104/104 82/82/82
f 50/50/50 49/49/49 47/47/47
f 391/391/391 389/389/389 387/387/387
f 325/325/325 389/389/389 391/391/391
f 312/312/312 325/325/325 326/326/326
f 342/342/342 330/330/330 339/339/339
f 146/146/146 123/123/123 134/134/134
f 123/123/123 127/127/127 132/132/132
f 151/151/151 154/154/154 155/155/155
f 240/240/240 172/172/172 241/241/241
f 134/134/134 123/123/123 133/133/133
f 81/81/81 83/83/83 147/147/147
f 154/154/154 153/153/153 172/172/172
f 342/342/342 331/331/331 330/330/330
f 146/146/146 135/135/135 123/123/123
f 153/153/153 241/241/241 172/172/172
f 74/74/74 82/82/82 83/83/83
f 135/135/135 120/120/120 123/123/123
f 147/147/147 137/137/137 140/140/140
f 151/151/151 153/153/153 154/154/154
f 66/66/66 48/48/48 49/49/49
f 387/387/387 403/403/403 394/394/394
f 311/311/311 389/389/389 325/325/325
f 353/353/353 352/352/352 342/342/342
f 318/318/318 310/310/310 313/313/313
f 321/321/321 320/320/320 322/322/322
f 329/329/329 322/322/322 330/330/330
f 315/315/315 319/319/319 320/320/320
f 140/140/140 120/120/120 135/135/135
f 126/126/126 127/127/127 123/123/123
f 152/152/152 127/127/127 151/151/151
f 151/151/151 127/127/127 153/153/153
f 457/457/457 458/458/458 459/459/459
f 49/49/49 48/48/48 47/47/47
f 351/351/351 352/352/352 353/353/353
f 311/311/311 325/325/325 312/312/312
f 342/342/342 352/352/352 351/351/351
f 308/308/308 311/311/311 312/312/312
f 315/315/315 320/320/320 321/321/321
f 329/329/329 321/321/321 322/322/322
f 310/310/310 318/318/318 319/319/319
f 141/141/141 137/137/137 147/147/147
f 244/244/244 241/241/241 243/243/243
f 88/88/88 82/82/82 104/104/104
f 403/403/403 387/387/387 381/381/381
f 83/83/83 136/136/136 147/147/147
f 82/82/82 84/84/84 83/83/83
f 83/83/83 84/84/84 168/168/168
f 82/82/82 88/88/88 84/84/84
f 67/67/67 48/48/48 66/66/66
f 342/342/342 351/351/351 331/331/331
f 136/136/136 141/141/141 147/147/147
f 104/104/104 103/103/103 88/88/88
f 381/381/381 406/406/406 403/403/403
f 47/47/47 48/48/48 12/12/12
f 29/29/29 47/47/47 12/12/12
f 388/388/388 387/387/387 389/389/389
f 319/319/319 315/315/315 310/310/310
f 123/123/123 121/121/121 126/126/126
f 136/136/136 137/137/137 141/141/141
f 127/127/127 128/128/128 153/153/153
f 168/168/168 136/136/136 83/83/83
f 250/250/250 249/249/249 243/243/243
f 311/311/311 388/388/388 389/389/389
f 153/153/153 195/195/195 241/241/241
f 381/381/381 377/377/377 406/406/406
f 381/381/381 387/387/387 380/380/380
f 388/388/388 380/380/380 387/387/387
f 310/310/310 312/312/312 313/313/313
f 128/128/128 195/195/195 153/153/153
f 241/241/241 195/195/195 243/243/243
f 28/28/28 34/34/34 29/29/29
f 330/330/330 331/331/331 328/328/328
f 329/329/329 330/330/330 328/328/328
f 315/315/315 309/309/309 310/310/310
f 328/328/328 321/321/321 329/329/329
f 136/136/136 117/117/117 137/137/137
f 120/120/120 121/121/121 123/123/123
f 28/28/28 29/29/29 12/12/12
f 314/314/314 388/388/388 311/311/311
f 290/290/290 311/311/311 308/308/308
f 308/308/308 312/312/312 310/310/310
f 140/140/140 117/117/117 120/120/120
f 117/117/117 119/119/119 120/120/120
f 121/121/121 128/128/128 126/126/126
f 126/126/126 128/128/128 127/127/127
f 128/128/128 177/177/177 195/195/195
f 380/380/380 377/377/377 381/381/381
f 388/388/388 314/314/314 380/380/380
f 290/290/290 294/294/294 311/311/311
f 309/309/309 308/308/308 310/310/310
f 137/137/137 117/117/117 140/140/140
f 121/121/121 125/125/125 128/128/128
f 84/84/84 165/165/165 168/168/168
f 90/90/90 84/84/84 89/89/89
f 84/84/84 88/88/88 89/89/89
f 328/328/328 315/315/315 321/321/321
f 119/119/119 121/121/121 120/120/120
f 121/121/121 124/124/124 125/125/125
f 165/165/165 136/136/136 168/168/168
f 181/181/181 165/165/165 84/84/84
f 90/90/90 181/181/181 84/84/84
f 380/380/380 372/372/372 377/377/377
f 294/294/294 314/314/314 311/311/311
f 121/121/121 119/119/119 118/118/118
f 118/118/118 124/124/124 121/121/121
f 125/125/125 124/124/124 128/128/128
f 243/243/243 204/204/204 250/250/250
f 67/67/67 58/58/58 48/48/48
f 296/296/296 314/314/314 294/294/294
f 316/316/316 309/309/309 315/315/315
f 165/165/165 138/138/138 136/136/136
f 243/243/243 195/195/195 204/204/204
f 12/12/12 48/48/48 1/1/1
f 378/378/378 372/372/372 380/380/380
f 385/385/385 378/378/378 380/380/380
f 385/385/385 380/380/380 314/314/314
f 21/21/21 28/28/28 22/22/22
f 136/136/136 114/114/114 117/117/117
f 119/119/119 117/117/117 118/118/118
f 128/128/128 176/176/176 177/177/177
f 195/195/195 177/177/177 176/176/176
f 433/433/433 431/431/431 430/430/430
f 1/1/1 48/48/48 58/58/58
f 12/12/12 22/22/22 28/28/28
f 332/332/332 324/324/324 328/328/328
f 324/324/324 316/316/316 315/315/315
f 324/324/324 315/315/315 328/328/328
f 290/290/290 286/286/286 294/294/294
f 371/371/371 377/377/377 372/372/372
f 12/12/12 21/21/21 22/22/22
f 294/294/294 295/295/295 296/296/296
f 138/138/138 114/114/114 136/136/136
f 114/114/114 111/111/111 117/117/117
f 111/111/111 110/110/110 117/117/117
f 110/110/110 118/118/118 117/117/117
f 118/118/118 122/122/122 124/124/124
f 124/124/124 131/131/131 128/128/128
f 128/128/128 131/131/131 176/176/176
f 176/176/176 204/204/204 195/195/195
f 406/406/406 377/377/377 371/371/371
f 11/11/11 12/12/12 1/1/1
f 139/139/139 114/114/114 138/138/138
f 110/110/110 122/122/122 118/118/118
f 129/129/129 131/131/131 124/124/124
f 91/91/91 90/90/90 89/89/89
f 200/200/200 204/204/204 176/176/176
f 88/88/88 103/103/103 89/89/89
f 371/371/371 407/407/407 406/406/406
f 314/314/314 298/298/298 385/385/385
f 298/298/298 314/314/314 296/296/296
f 288/288/288 290/290/290 308/308/308
f 288/288/288 308/308/308 309/309/309
f 182/182/182 90/90/90 91/91/91
f 90/90/90 182/182/182 181/181/181
f 429/429/429 430/430/430 431/431/431
f 62/62/62 1/1/1 58/58/58
f 369/369/369 371/371/371 372/372/372
f 378/378/378 369/369/369 372/372/372
f 383/383/383 378/378/378 385/385/385
f 11/11/11 9/9/9 12/12/12
f 21/21/21 12/12/12 13/13/13
f 291/291/291 298/298/298 296/296/296
f 295/295/295 292/292/292 296/296/296
f 309/309/309 316/316/316 317/317/317
f 165/165/165 139/139/139 138/138/138
f 124/124/124 122/122/122 129/129/129
f 103/103/103 100/100/100 89/89/89
f 298/298/298 383/383/383 385/385/385
f 291/291/291 296/296/296 292/292/292
f 19/19/19 24/24/24 21/21/21
f 286/286/286 290/290/290 288/288/288
f 139/139/139 116/116/116 114/114/114
f 165/165/165 181/181/181 167/167/167
f 176/176/176 131/131/131 188/188/188
f 188/188/188 200/200/200 176/176/176
f 200/200/200 217/217/217 204/204/204
f 432/432/432 430/430/430 429/429/429
f 378/378/378 383/383/383 369/369/369
f 9/9/9 11/11/11 1/1/1
f 292/292/292 295/295/295 294/294/294
f 292/292/292 294/294/294 286/286/286
f 291/291/291 292/292/292 286/286/286
f 324/324/324 317/317/317 316/316/316
f 166/166/166 142/142/142 165/165/165
f 165/165/165 116/116/116 139/139/139
f 110/110/110 129/129/129 122/122/122
f 174/174/174 131/131/131 129/129/129
f 182/182/182 170/170/170 181/181/181
f 91/91/91 89/89/89 92/92/92
f 63/63/63 1/1/1 62/62/62
f 297/297/297 383/383/383 298/298/298
f 19/19/19 21/21/21 13/13/13
f 23/23/23 24/24/24 19/19/19
f 287/287/287 286/286/286 288/288/288
f 288/288/288 309/309/309 317/317/317
f 116/116/116 115/115/115 114/114/114
f 165/165/165 167/167/167 166/166/166
f 110/110/110 130/130/130 129/129/129
f 129/129/129 130/130/130 173/173/173
f 173/173/173 174/174/174 129/129/129
f 170/170/170 167/167/167 181/181/181
f 174/174/174 188/188/188 131/131/131
f 200/200/200 188/188/188 198/198/198
f 1/1/1 63/63/63 2/2/2
f 369/369/369 370/370/370 371/371/371
f 1/1/1 2/2/2 3/3/3
f 1/1/1 3/3/3 9/9/9
f 9/9/9 3/3/3 12/12/12
f 293/293/293 297/297/297 291/291/291
f 285/285/285 286/286/286 287/287/287
f 285/285/285 291/291/291 286/286/286
f 142/142/142 116/116/116 165/165/165
f 114/114/114 109/109/109 111/111/111
f 109/109/109 110/110/110 111/111/111
f 13/13/13 14/14/14 19/19/19
f 297/297/297 298/298/298 291/291/291
f 317/317/317 287/287/287 288/288/288
f 115/115/115 109/109/109 114/114/114
f 113/113/113 130/130/130 110/110/110
f 200/200/200 211/211/211 217/217/217
f 211/211/211 223/223/223 217/217/217
f 407/407/407 371/371/371 370/370/370
f 68/68/68 2/2/2 63/63/63
f 369/369/369 373/373/373 370/370/370
f 369/369/369 374/374/374 373/373/373
f 297/297/297 382/382/382 383/383/383
f 14/14/14 23/23/23 19/19/19
f 287/287/287 317/317/317 306/306/306
f 109/109/109 112/112/112 110/110/110
f 110/110/110 112/112/112 113/113/113
f 167/167/167 170/170/170 166/166/166
f 174/174/174 173/173/173 175/175/175
f 12/12/12 3/3/3 5/5/5
f 5/5/5 14/14/14 13/13/13
f 289/289/289 293/293/293 291/291/291
f 306/306/306 317/317/317 333/333/333
f 25/25/25 23/23/23 15/15/15
f 198/198/198 188/188/188 174/174/174
f 198/198/198 211/211/211 200/200/200
f 69/69/69 2/2/2 68/68/68
f 369/369/369 382/382/382 374/374/374
f 383/383/383 382/382/382 369/369/369
f 297/297/297 293/293/293 299/299/299
f 289/289/289 291/291/291 285/285/285
f 182/182/182 187/187/187 170/170/170
f 174/174/174 175/175/175 193/193/193
f 89/89/89 93/93/93 92/92/92
f 198/198/198 210/210/210 211/211/211
f 4/4/4 3/3/3 2/2/2
f 12/12/12 5/5/5 13/13/13
f 297/297/297 299/299/299 382/382/382
f 15/15/15 23/23/23 14/14/14
f 289/289/289 285/285/285 287/287/287
f 306/306/306 289/289/289 287/287/287
f 115/115/115 116/116/116 142/142/142
f 115/115/115 169/169/169 109/109/109
f 169/169/169 112/112/112 109/109/109
f 130/130/130 178/178/178 173/173/173
f 182/182/182 91/91/91 187/187/187
f 175/175/175 173/173/173 193/193/193
f 174/174/174 193/193/193 197/197/197
f 197/197/197 198/198/198 174/174/174
f 211/211/211 210/210/210 209/209/209
f 100/100/100 93/93/93 89/89/89
f 454/454/454 455/455/455 456/456/456
f 426/426/426 428/428/428 427/427/427
f 375/375/375 373/373/373 374/374/374
f 384/384/384 382/382/382 299/299/299
f 142/142/142 169/169/169 115/115/115
f 92/92/92 187/187/187 91/91/91
f 93/93/93 94/94/94 92/92/92
f 106/106/106 102/102/102 93/93/93
f 425/425/425 426/426/426 427/427/427
f 4/4/4 5/5/5 3/3/3
f 379/379/379 375/375/375 374/374/374
f 384/384/384 374/374/374 382/382/382
f 142/142/142 171/171/171 169/169/169
f 130/130/130 113/113/113 112/112/112
f 197/197/197 193/193/193 173/173/173
f 210/210/210 198/198/198 209/209/209
f 93/93/93 102/102/102 97/97/97
f 263/263/263 258/258/258 262/262/262
f 375/375/375 376/376/376 373/373/373
f 300/300/300 299/299/299 293/293/293
f 301/301/301 293/293/293 289/289/289
f 27/27/27 25/25/25 15/15/15
f 304/304/304 289/289/289 305/305/305
f 305/305/305 289/289/289 306/306/306
f 142/142/142 166/166/166 171/171/171
f 112/112/112 169/169/169 130/130/130
f 187/187/187 185/185/185 170/170/170
f 173/173/173 178/178/178 179/179/179
f 93/93/93 97/97/97 94/94/94
f 220/220/220 211/211/211 209/209/209
f 14/14/14 5/5/5 15/15/15
f 302/302/302 301/301/301 289/289/289
f 302/302/302 289/289/289 304/304/304
f 304/304/304 305/305/305 306/306/306
f 27/27/27 15/15/15 26/26/26
f 170/170/170 184/184/184 166/166/166
f 130/130/130 169/169/169 179/179/179
f 170/170/170 185/185/185 184/184/184
f 178/178/178 130/130/130 179/179/179
f 179/179/179 194/194/194 173/173/173
f 173/173/173 194/194/194 197/197/197
f 92/92/92 95/95/95 187/187/187
f 202/202/202 209/209/209 198/198/198
f 258/258/258 257/257/257 262/262/262
f 6/6/6 5/5/5 4/4/4
f 7/7/7 5/5/5 6/6/6
f 5/5/5 7/7/7 8/8/8
f 5/5/5 10/10/10 15/15/15
f 300/300/300 384/384/384 299/299/299
f 293/293/293 301/301/301 300/300/300
f 16/16/16 26/26/26 15/15/15
f 302/302/302 303/303/303 301/301/301
f 307/307/307 304/304/304 306/306/306
f 31/31/31 27/27/27 26/26/26
f 166/166/166 186/186/186 171/171/171
f 94/94/94 95/95/95 92/92/92
f 258/258/258 254/254/254 257/257/257
f 258/258/258 259/259/259 254/254/254
f 374/374/374 384/384/384 379/379/379
f 16/16/16 15/15/15 10/10/10
f 186/186/186 191/191/191 171/171/171
f 189/189/189 180/180/180 169/169/169
f 198/198/198 197/197/197 202/202/202
f 197/197/197 209/209/209 202/202/202
f 70/70/70 6/6/6 4/4/4
f 10/10/10 5/5/5 8/8/8
f 390/390/390 384/384/384 300/300/300
f 33/33/33 31/31/31 26/26/26
f 16/16/16 33/33/33 26/26/26
f 186/186/186 166/166/166 184/184/184
f 171/171/171 189/189/189 169/169/169
f 169/169/169 180/180/180 179/179/179
f 214/214/214 216/216/216 220/220/220
f 64/64/64 6/6/6 70/70/70
f 384/384/384 386/386/386 379/379/379
f 384/384/384 390/390/390 386/386/386
f 300/300/300 301/301/301 390/390/390
f 179/179/179 180/180/180 189/189/189
f 179/179/179 189/189/189 190/190/190
f 179/179/179 199/199/199 194/194/194
f 220/220/220 209/209/209 214/214/214
f 95/95/95 94/94/94 98/98/98
f 257/257/257 254/254/254 256/256/256
f 268/268/268 254/254/254 259/259/259
f 267/267/267 254/254/254 268/268/268
f 8/8/8 7/7/7 6/6/6
f 10/10/10 18/18/18 17/17/17
f 17/17/17 16/16/16 10/10/10
f 42/42/42 39/39/39 41/41/41
f 35/35/35 36/36/36 33/33/33
f 184/184/184 191/191/191 186/186/186
f 95/95/95 99/99/99 187/187/187
f 187/187/187 99/99/99 185/185/185
f 199/199/199 197/197/197 194/194/194
f 197/197/197 214/214/214 209/209/209
f 197/197/197 216/216/216 214/214/214
f 18/18/18 10/10/10 38/38/38
f 35/35/35 39/39/39 36/36/36
f 184/184/184 192/192/192 191/191/191
f 190/190/190 199/199/199 179/179/179
f 199/199/199 212/212/212 197/197/197
f 212/212/212 219/219/219 197/197/197
f 218/218/218 216/216/216 197/197/197
f 218/218/218 197/197/197 219/219/219
f 64/64/64 8/8/8 6/6/6
f 38/38/38 10/10/10 8/8/8
f 17/17/17 30/30/30 16/16/16
f 397/397/397 396/396/396 301/301/301
f 40/40/40 41/41/41 39/39/39
f 35/35/35 40/40/40 39/39/39
f 33/33/33 16/16/16 32/32/32
f 35/35/35 33/33/33 32/32/32
f 32/32/32 16/16/16 30/30/30
f 199/199/199 206/206/206 212/212/212
f 254/254/254 255/255/255 256/256/256
f 267/267/267 260/260/260 254/254/254
f 64/64/64 38/38/38 8/8/8
f 65/65/65 38/38/38 64/64/64
f 264/264/264 260/260/260 267/267/267
f 278/278/278 264/264/264 267/267/267
f 20/20/20 18/18/18 38/38/38
f 301/301/301 396/396/396 390/390/390
f 20/20/20 17/17/17 18/18/18
f 30/30/30 17/17/17 20/20/20
f 201/201/201 191/191/191 192/192/192
f 189/189/189 171/171/171 191/191/191
f 184/184/184 185/185/185 201/201/201
f 99/99/99 201/201/201 185/185/185
f 260/260/260 255/255/255 254/254/254
f 278/278/278 279/279/279 264/264/264
f 398/398/398 386/386/386 390/390/390
f 398/398/398 390/390/390 396/396/396
f 98/98/98 99/99/99 95/95/95
f 261/261/261 255/255/255 260/260/260
f 65/65/65 57/57/57 38/38/38
f 264/264/264 261/261/261 260/260/260
f 264/264/264 279/279/279 276/276/276
f 32/32/32 30/30/30 20/20/20
f 46/46/46 41/41/41 40/40/40
f 201/201/201 192/192/192 184/184/184
f 191/191/191 196/196/196 189/189/189
f 199/199/199 190/190/190 205/205/205
f 205/205/205 206/206/206 199/199/199
f 255/255/255 261/261/261 271/271/271
f 56/56/56 20/20/20 57/57/57
f 57/57/57 20/20/20 38/38/38
f 55/55/55 45/45/45 20/20/20
f 55/55/55 20/20/20 56/56/56
f 35/35/35 44/44/44 40/40/40
f 43/43/43 35/35/35 32/32/32
f 43/43/43 32/32/32 37/37/37
f 205/205/205 190/190/190 189/189/189
f 99/99/99 213/213/213 201/201/201
f 206/206/206 222/222/222 212/212/212
f 222/222/222 219/219/219 212/212/212
f 55/55/55 56/56/56 57/57/57
f 37/37/37 32/32/32 20/20/20
f 46/46/46 40/40/40 44/44/44
f 44/44/44 35/35/35 43/43/43
f 203/203/203 196/196/196 191/191/191
f 203/203/203 191/191/191 201/201/201
f 208/208/208 189/189/189 196/196/196
f 207/207/207 205/205/205 189/189/189
f 269/269/269 271/271/271 265/265/265
f 264/264/264 265/265/265 261/261/261
f 265/265/265 271/271/271 261/261/261
f 266/266/266 265/265/265 264/264/264
f 266/266/266 276/276/276 275/275/275
f 45/45/45 37/37/37 20/20/20
f 208/208/208 196/196/196 203/203/203
f 215/215/215 201/201/201 213/213/213
f 208/208/208 207/207/207 189/189/189
f 205/205/205 222/222/222 206/206/206
f 54/54/54 45/45/45 55/55/55
f 276/276/276 266/266/266 264/264/264
f 275/275/275 276/276/276 274/274/274
f 52/52/52 46/46/46 44/44/44
f 51/51/51 44/44/44 43/43/43
f 272/272/272 280/280/280 277/277/277
f 43/43/43 37/37/37 45/45/45
f 215/215/215 203/203/203 201/201/201
f 222/222/222 205/205/205 207/207/207
f 269/269/269 265/265/265 266/266/266
f 463/463/463 464/464/464 465/465/465
f 53/53/53 45/45/45 54/54/54
f 51/51/51 52/52/52 44/44/44
f 43/43/43 45/45/45 53/53/53
f 270/270/270 269/269/269 266/266/266
f 283/283/283 270/270/270 273/273/273
f 460/460/460 461/461/461 462/462/462
f 221/221/221 222/222/222 208/208/208
f 282/282/282 281/281/281 284/284/284
f 266/266/266 272/272/272 270/270/270
f 266/266/266 274/274/274 272/272/272
f 274/274/274 266/266/266 275/275/275
f 277/277/277 280/280/280 281/281/281
f 277/277/277 281/281/281 282/282/282
f 273/273/273 272/272/272 277/277/277
f 277/277/277 283/283/283 273/273/273
f 203/203/203 221/221/221 208/208/208
f 283/283/283 277/277/277 282/282/282
f 270/270/270 272/272/272 273/273/273
