# GoldGuppy / Eye1  (local frame of part 'Eye1', bbox-centred; -Z = front)
v -0.00000 -0.01296 0.12957
v -0.00000 -0.01296 0.12957
v -0.00000 -0.01296 0.12957
v -0.00000 -0.01296 0.12957
v -0.00000 -0.01296 0.12957
v -0.00000 -0.01296 0.12957
v -0.00000 -0.01296 0.12957
v -0.00000 -0.01296 0.12957
v -0.00000 -0.01296 0.12957
v -0.00000 -0.01296 0.12957
v -0.00000 -0.01296 0.12957
v -0.00000 -0.01296 0.12957
v -0.00000 -0.01296 0.12957
v -0.00000 -0.01296 0.12957
v -0.00000 -0.01296 0.12957
v -0.00000 -0.01296 0.12957
v -0.00000 -0.01296 0.12957
v -0.04944 -0.01232 0.12323
v -0.04568 -0.03118 0.12199
v -0.03496 -0.04717 0.12093
v -0.01892 -0.05785 0.12023
v -0.00000 -0.06160 0.11998
v 0.01892 -0.05785 0.12023
v 0.03496 -0.04717 0.12093
v 0.04568 -0.03118 0.12199
v 0.04944 -0.01232 0.12323
v 0.04568 0.00654 0.12448
v 0.03496 0.02252 0.12553
v 0.01892 0.03321 0.12624
v 0.00000 0.03696 0.12648
v -0.01892 0.03321 0.12624
v -0.03496 0.02252 0.12553
v -0.04568 0.00654 0.12448
v -0.04944 -0.01232 0.12323
v -0.09405 -0.01048 0.10483
v -0.08689 -0.04635 0.10246
v -0.06650 -0.07676 0.10045
v -0.03599 -0.09708 0.09911
v -0.00000 -0.10422 0.09864
v 0.03599 -0.09708 0.09911
v 0.06650 -0.07676 0.10045
v 0.08689 -0.04635 0.10246
v 0.09405 -0.01048 0.10483
v 0.08689 0.02539 0.10719
v 0.06650 0.05580 0.10920
v 0.03599 0.07612 0.11054
v 0.00000 0.08325 0.11101
v -0.03599 0.07612 0.11054
v -0.06650 0.05580 0.10920
v -0.08689 0.02539 0.10719
v -0.09405 -0.01048 0.10483
v -0.12944 -0.00762 0.07616
v -0.11959 -0.05699 0.07290
v -0.09153 -0.09885 0.07014
v -0.04954 -0.12681 0.06829
v -0.00000 -0.13663 0.06764
v 0.04954 -0.12681 0.06829
v 0.09153 -0.09885 0.07014
v 0.11959 -0.05699 0.07290
v 0.12944 -0.00762 0.07616
v 0.11959 0.04176 0.07942
v 0.09153 0.08361 0.08218
v 0.04954 0.11158 0.08403
v 0.00000 0.12140 0.08468
v -0.04954 0.11158 0.08403
v -0.09153 0.08361 0.08218
v -0.11959 0.04176 0.07942
v -0.12944 -0.00762 0.07616
v -0.15217 -0.00400 0.04004
v -0.14059 -0.06205 0.03621
v -0.10760 -0.11125 0.03296
v -0.05823 -0.14413 0.03079
v -0.00000 -0.15567 0.03003
v 0.05823 -0.14413 0.03079
v 0.10760 -0.11125 0.03296
v 0.14059 -0.06205 0.03621
v 0.15217 -0.00400 0.04004
v 0.14059 0.05404 0.04387
v 0.10760 0.10324 0.04712
v 0.05823 0.13612 0.04929
v 0.00000 0.14767 0.05005
v -0.05823 0.13612 0.04929
v -0.10760 0.10324 0.04712
v -0.14059 0.05404 0.04387
v -0.15217 -0.00400 0.04004
v -0.16000 0.00000 0.00000
v -0.14782 -0.06103 -0.00403
v -0.11314 -0.11277 -0.00744
v -0.06123 -0.14734 -0.00973
v -0.00000 -0.15947 -0.01053
v 0.06123 -0.14734 -0.00973
v 0.11314 -0.11277 -0.00744
v 0.14782 -0.06103 -0.00403
v 0.16000 -0.00000 0.00000
v 0.14782 0.06103 0.00403
v 0.11314 0.11277 0.00744
v 0.06123 0.14734 0.00973
v 0.00000 0.15947 0.01053
v -0.06123 0.14734 0.00973
v -0.11314 0.11277 0.00744
v -0.14782 0.06103 0.00403
v -0.16000 0.00000 0.00000
v -0.15217 0.00400 -0.04004
v -0.14059 -0.05404 -0.04387
v -0.10760 -0.10324 -0.04712
v -0.05823 -0.13612 -0.04929
v -0.00000 -0.14767 -0.05005
v 0.05823 -0.13612 -0.04929
v 0.10760 -0.10324 -0.04712
v 0.14059 -0.05404 -0.04387
v 0.15217 0.00400 -0.04004
v 0.14059 0.06205 -0.03621
v 0.10760 0.11125 -0.03296
v 0.05823 0.14413 -0.03079
v 0.00000 0.15567 -0.03003
v -0.05823 0.14413 -0.03079
v -0.10760 0.11125 -0.03296
v -0.14059 0.06205 -0.03621
v -0.15217 0.00400 -0.04004
v -0.12944 0.00762 -0.07616
v -0.11959 -0.04176 -0.07942
v -0.09153 -0.08361 -0.08218
v -0.04954 -0.11158 -0.08403
v -0.00000 -0.12140 -0.08468
v 0.04954 -0.11158 -0.08403
v 0.09153 -0.08361 -0.08218
v 0.11959 -0.04176 -0.07942
v 0.12944 0.00762 -0.07616
v 0.11959 0.05699 -0.07290
v 0.09153 0.09885 -0.07014
v 0.04954 0.12681 -0.06829
v 0.00000 0.13663 -0.06764
v -0.04954 0.12681 -0.06829
v -0.09153 0.09885 -0.07014
v -0.11959 0.05699 -0.07290
v -0.12944 0.00762 -0.07616
v -0.09405 0.01048 -0.10483
v -0.08689 -0.02539 -0.10719
v -0.06650 -0.05580 -0.10920
v -0.03599 -0.07612 -0.11054
v -0.00000 -0.08325 -0.11101
v 0.03599 -0.07612 -0.11054
v 0.06650 -0.05580 -0.10920
v 0.08689 -0.02539 -0.10719
v 0.09405 0.01048 -0.10483
v 0.08689 0.04635 -0.10246
v 0.06650 0.07676 -0.10045
v 0.03599 0.09708 -0.09911
v 0.00000 0.10422 -0.09864
v -0.03599 0.09708 -0.09911
v -0.06650 0.07676 -0.10045
v -0.08689 0.04635 -0.10246
v -0.09405 0.01048 -0.10483
v -0.04944 0.01232 -0.12323
v -0.04568 -0.00654 -0.12448
v -0.03496 -0.02252 -0.12553
v -0.01892 -0.03321 -0.12624
v -0.00000 -0.03696 -0.12648
v 0.01892 -0.03321 -0.12624
v 0.03496 -0.02252 -0.12553
v 0.04568 -0.00654 -0.12448
v 0.04944 0.01232 -0.12323
v 0.04568 0.03118 -0.12199
v 0.03496 0.04717 -0.12093
v 0.01892 0.05785 -0.12023
v 0.00000 0.06160 -0.11998
v -0.01892 0.05785 -0.12023
v -0.03496 0.04717 -0.12093
v -0.04568 0.03118 -0.12199
v -0.04944 0.01232 -0.12323
v -0.00000 0.01296 -0.12957
v -0.00000 0.01296 -0.12957
v -0.00000 0.01296 -0.12957
v -0.00000 0.01296 -0.12957
v -0.00000 0.01296 -0.12957
v 0.00000 0.01296 -0.12957
v 0.00000 0.01296 -0.12957
v 0.00000 0.01296 -0.12957
v 0.00000 0.01296 -0.12957
v 0.00000 0.01296 -0.12957
v 0.00000 0.01296 -0.12957
v 0.00000 0.01296 -0.12957
v -0.00000 0.01296 -0.12957
v -0.00000 0.01296 -0.12957
v -0.00000 0.01296 -0.12957
v -0.00000 0.01296 -0.12957
v -0.00000 0.01296 -0.12957
vt 0.00000 1.00000
vt 0.06250 1.00000
vt 0.12500 1.00000
vt 0.18750 1.00000
vt 0.25000 1.00000
vt 0.31250 1.00000
vt 0.37500 1.00000
vt 0.43750 1.00000
vt 0.50000 1.00000
vt 0.56250 1.00000
vt 0.62500 1.00000
vt 0.68750 1.00000
vt 0.75000 1.00000
vt 0.81250 1.00000
vt 0.87500 1.00000
vt 0.93750 1.00000
vt 1.00000 1.00000
vt 0.00000 0.90000
vt 0.06250 0.90000
vt 0.12500 0.90000
vt 0.18750 0.90000
vt 0.25000 0.90000
vt 0.31250 0.90000
vt 0.37500 0.90000
vt 0.43750 0.90000
vt 0.50000 0.90000
vt 0.56250 0.90000
vt 0.62500 0.90000
vt 0.68750 0.90000
vt 0.75000 0.90000
vt 0.81250 0.90000
vt 0.87500 0.90000
vt 0.93750 0.90000
vt 1.00000 0.90000
vt 0.00000 0.80000
vt 0.06250 0.80000
vt 0.12500 0.80000
vt 0.18750 0.80000
vt 0.25000 0.80000
vt 0.31250 0.80000
vt 0.37500 0.80000
vt 0.43750 0.80000
vt 0.50000 0.80000
vt 0.56250 0.80000
vt 0.62500 0.80000
vt 0.68750 0.80000
vt 0.75000 0.80000
vt 0.81250 0.80000
vt 0.87500 0.80000
vt 0.93750 0.80000
vt 1.00000 0.80000
vt 0.00000 0.70000
vt 0.06250 0.70000
vt 0.12500 0.70000
vt 0.18750 0.70000
vt 0.25000 0.70000
vt 0.31250 0.70000
vt 0.37500 0.70000
vt 0.43750 0.70000
vt 0.50000 0.70000
vt 0.56250 0.70000
vt 0.62500 0.70000
vt 0.68750 0.70000
vt 0.75000 0.70000
vt 0.81250 0.70000
vt 0.87500 0.70000
vt 0.93750 0.70000
vt 1.00000 0.70000
vt 0.00000 0.60000
vt 0.06250 0.60000
vt 0.12500 0.60000
vt 0.18750 0.60000
vt 0.25000 0.60000
vt 0.31250 0.60000
vt 0.37500 0.60000
vt 0.43750 0.60000
vt 0.50000 0.60000
vt 0.56250 0.60000
vt 0.62500 0.60000
vt 0.68750 0.60000
vt 0.75000 0.60000
vt 0.81250 0.60000
vt 0.87500 0.60000
vt 0.93750 0.60000
vt 1.00000 0.60000
vt 0.00000 0.50000
vt 0.06250 0.50000
vt 0.12500 0.50000
vt 0.18750 0.50000
vt 0.25000 0.50000
vt 0.31250 0.50000
vt 0.37500 0.50000
vt 0.43750 0.50000
vt 0.50000 0.50000
vt 0.56250 0.50000
vt 0.62500 0.50000
vt 0.68750 0.50000
vt 0.75000 0.50000
vt 0.81250 0.50000
vt 0.87500 0.50000
vt 0.93750 0.50000
vt 1.00000 0.50000
vt 0.00000 0.40000
vt 0.06250 0.40000
vt 0.12500 0.40000
vt 0.18750 0.40000
vt 0.25000 0.40000
vt 0.31250 0.40000
vt 0.37500 0.40000
vt 0.43750 0.40000
vt 0.50000 0.40000
vt 0.56250 0.40000
vt 0.62500 0.40000
vt 0.68750 0.40000
vt 0.75000 0.40000
vt 0.81250 0.40000
vt 0.87500 0.40000
vt 0.93750 0.40000
vt 1.00000 0.40000
vt 0.00000 0.30000
vt 0.06250 0.30000
vt 0.12500 0.30000
vt 0.18750 0.30000
vt 0.25000 0.30000
vt 0.31250 0.30000
vt 0.37500 0.30000
vt 0.43750 0.30000
vt 0.50000 0.30000
vt 0.56250 0.30000
vt 0.62500 0.30000
vt 0.68750 0.30000
vt 0.75000 0.30000
vt 0.81250 0.30000
vt 0.87500 0.30000
vt 0.93750 0.30000
vt 1.00000 0.30000
vt 0.00000 0.20000
vt 0.06250 0.20000
vt 0.12500 0.20000
vt 0.18750 0.20000
vt 0.25000 0.20000
vt 0.31250 0.20000
vt 0.37500 0.20000
vt 0.43750 0.20000
vt 0.50000 0.20000
vt 0.56250 0.20000
vt 0.62500 0.20000
vt 0.68750 0.20000
vt 0.75000 0.20000
vt 0.81250 0.20000
vt 0.87500 0.20000
vt 0.93750 0.20000
vt 1.00000 0.20000
vt 0.00000 0.10000
vt 0.06250 0.10000
vt 0.12500 0.10000
vt 0.18750 0.10000
vt 0.25000 0.10000
vt 0.31250 0.10000
vt 0.37500 0.10000
vt 0.43750 0.10000
vt 0.50000 0.10000
vt 0.56250 0.10000
vt 0.62500 0.10000
vt 0.68750 0.10000
vt 0.75000 0.10000
vt 0.81250 0.10000
vt 0.87500 0.10000
vt 0.93750 0.10000
vt 1.00000 0.10000
vt 0.00000 0.00000
vt 0.06250 0.00000
vt 0.12500 0.00000
vt 0.18750 0.00000
vt 0.25000 0.00000
vt 0.31250 0.00000
vt 0.37500 0.00000
vt 0.43750 0.00000
vt 0.50000 0.00000
vt 0.56250 0.00000
vt 0.62500 0.00000
vt 0.68750 0.00000
vt 0.75000 0.00000
vt 0.81250 0.00000
vt 0.87500 0.00000
vt 0.93750 0.00000
vt 1.00000 0.00000
vn 0.0000 -0.0659 0.9978
vn 0.0000 -0.0659 0.9978
vn 0.0000 -0.0659 0.9978
vn 0.0000 -0.0659 0.9978
vn 0.0000 -0.0659 0.9978
vn 0.0000 -0.0659 0.9978
vn 0.0000 -0.0659 0.9978
vn 0.0000 -0.0659 0.9978
vn 0.0000 -0.0659 0.9978
vn 0.0000 -0.0659 0.9978
vn 0.0000 -0.0659 0.9978
vn 0.0000 -0.0659 0.9978
vn 0.0000 -0.0659 0.9978
vn 0.0000 -0.0659 0.9978
vn 0.0000 -0.0659 0.9978
vn 0.0000 -0.0659 0.9978
vn 0.0000 -0.0659 0.9978
vn -0.2555 -0.0637 0.9647
vn -0.2368 -0.1617 0.9580
vn -0.1817 -0.2452 0.9523
vn -0.0985 -0.3013 0.9484
vn -0.0000 -0.3210 0.9471
vn 0.0985 -0.3013 0.9484
vn 0.1817 -0.2452 0.9523
vn 0.2368 -0.1617 0.9580
vn 0.2555 -0.0637 0.9647
vn 0.2353 0.0337 0.9713
vn 0.1796 0.1157 0.9769
vn 0.0970 0.1703 0.9806
vn 0.0000 0.1894 0.9819
vn -0.0970 0.1703 0.9806
vn -0.1796 0.1157 0.9769
vn -0.2353 0.0337 0.9713
vn -0.2555 -0.0637 0.9647
vn -0.5088 -0.0567 0.8590
vn -0.4727 -0.2522 0.8444
vn -0.3635 -0.4196 0.8317
vn -0.1973 -0.5323 0.8232
vn -0.0000 -0.5721 0.8202
vn 0.1973 -0.5323 0.8232
vn 0.3635 -0.4196 0.8317
vn 0.4727 -0.2522 0.8444
vn 0.5088 -0.0567 0.8590
vn 0.4674 0.1366 0.8734
vn 0.3560 0.2987 0.8855
vn 0.1920 0.4061 0.8934
vn 0.0000 0.4437 0.8962
vn -0.1920 0.4061 0.8934
vn -0.3560 0.2987 0.8855
vn -0.4674 0.1366 0.8734
vn -0.5088 -0.0567 0.8590
vn -0.7458 -0.0439 0.6647
vn -0.6934 -0.3304 0.6403
vn -0.5335 -0.5761 0.6193
vn -0.2897 -0.7416 0.6050
vn -0.0000 -0.8000 0.6000
vn 0.2897 -0.7416 0.6050
vn 0.5335 -0.5761 0.6193
vn 0.6934 -0.3304 0.6403
vn 0.7458 -0.0439 0.6647
vn 0.6846 0.2390 0.6887
vn 0.5210 0.4759 0.7086
vn 0.2809 0.6327 0.7217
vn 0.0000 0.6874 0.7263
vn -0.2809 0.6327 0.7217
vn -0.5210 0.4759 0.7086
vn -0.6846 0.2390 0.6887
vn -0.7458 -0.0439 0.6647
vn -0.9287 -0.0244 0.3701
vn -0.8616 -0.3803 0.3362
vn -0.6616 -0.6841 0.3070
vn -0.3588 -0.8881 0.2874
vn -0.0000 -0.9599 0.2805
vn 0.3588 -0.8881 0.2874
vn 0.6616 -0.6841 0.3070
vn 0.8616 -0.3803 0.3362
vn 0.9287 -0.0244 0.3701
vn 0.8540 0.3282 0.4037
vn 0.6508 0.6245 0.4317
vn 0.3512 0.8209 0.4503
vn 0.0000 0.8896 0.4568
vn -0.3512 0.8209 0.4503
vn -0.6508 0.6245 0.4317
vn -0.8540 0.3282 0.4037
vn -0.9287 -0.0244 0.3701
vn -1.0000 -0.0000 0.0000
vn -0.9237 -0.3813 -0.0381
vn -0.7065 -0.7042 -0.0704
vn -0.3821 -0.9195 -0.0920
vn -0.0000 -0.9950 -0.0995
vn 0.3821 -0.9195 -0.0920
vn 0.7065 -0.7042 -0.0704
vn 0.9237 -0.3813 -0.0381
vn 1.0000 -0.0000 0.0000
vn 0.9237 0.3813 0.0381
vn 0.7065 0.7042 0.0704
vn 0.3821 0.9195 0.0920
vn 0.0000 0.9950 0.0995
vn -0.3821 0.9195 0.0920
vn -0.7065 0.7042 0.0704
vn -0.9237 0.3813 0.0381
vn -1.0000 0.0000 0.0000
vn -0.9287 0.0244 -0.3701
vn -0.8540 -0.3282 -0.4037
vn -0.6508 -0.6245 -0.4317
vn -0.3512 -0.8209 -0.4503
vn -0.0000 -0.8896 -0.4568
vn 0.3512 -0.8209 -0.4503
vn 0.6508 -0.6245 -0.4317
vn 0.8540 -0.3282 -0.4037
vn 0.9287 0.0244 -0.3701
vn 0.8616 0.3803 -0.3362
vn 0.6616 0.6841 -0.3070
vn 0.3588 0.8881 -0.2874
vn 0.0000 0.9599 -0.2805
vn -0.3588 0.8881 -0.2874
vn -0.6616 0.6841 -0.3070
vn -0.8616 0.3803 -0.3362
vn -0.9287 0.0244 -0.3701
vn -0.7458 0.0439 -0.6647
vn -0.6846 -0.2390 -0.6887
vn -0.5210 -0.4759 -0.7086
vn -0.2809 -0.6327 -0.7217
vn -0.0000 -0.6874 -0.7263
vn 0.2809 -0.6327 -0.7217
vn 0.5210 -0.4759 -0.7086
vn 0.6846 -0.2390 -0.6887
vn 0.7458 0.0439 -0.6647
vn 0.6934 0.3304 -0.6403
vn 0.5335 0.5761 -0.6193
vn 0.2897 0.7416 -0.6050
vn 0.0000 0.8000 -0.6000
vn -0.2897 0.7416 -0.6050
vn -0.5335 0.5761 -0.6193
vn -0.6934 0.3304 -0.6403
vn -0.7458 0.0439 -0.6647
vn -0.5088 0.0567 -0.8590
vn -0.4674 -0.1366 -0.8734
vn -0.3560 -0.2987 -0.8855
vn -0.1920 -0.4061 -0.8934
vn -0.0000 -0.4437 -0.8962
vn 0.1920 -0.4061 -0.8934
vn 0.3560 -0.2987 -0.8855
vn 0.4674 -0.1366 -0.8734
vn 0.5088 0.0567 -0.8590
vn 0.4727 0.2522 -0.8444
vn 0.3635 0.4196 -0.8317
vn 0.1973 0.5323 -0.8232
vn 0.0000 0.5721 -0.8202
vn -0.1973 0.5323 -0.8232
vn -0.3635 0.4196 -0.8317
vn -0.4727 0.2522 -0.8444
vn -0.5088 0.0567 -0.8590
vn -0.2555 0.0637 -0.9647
vn -0.2353 -0.0337 -0.9713
vn -0.1796 -0.1157 -0.9769
vn -0.0970 -0.1703 -0.9806
vn -0.0000 -0.1894 -0.9819
vn 0.0970 -0.1703 -0.9806
vn 0.1796 -0.1157 -0.9769
vn 0.2353 -0.0337 -0.9713
vn 0.2555 0.0637 -0.9647
vn 0.2368 0.1617 -0.9580
vn 0.1817 0.2452 -0.9523
vn 0.0985 0.3013 -0.9484
vn 0.0000 0.3210 -0.9471
vn -0.0985 0.3013 -0.9484
vn -0.1817 0.2452 -0.9523
vn -0.2368 0.1617 -0.9580
vn -0.2555 0.0637 -0.9647
vn -0.0000 0.0659 -0.9978
vn -0.0000 0.0659 -0.9978
vn -0.0000 0.0659 -0.9978
vn -0.0000 0.0659 -0.9978
vn -0.0000 0.0659 -0.9978
vn 0.0000 0.0659 -0.9978
vn 0.0000 0.0659 -0.9978
vn 0.0000 0.0659 -0.9978
vn 0.0000 0.0659 -0.9978
vn 0.0000 0.0659 -0.9978
vn 0.0000 0.0659 -0.9978
vn 0.0000 0.0659 -0.9978
vn 0.0000 0.0659 -0.9978
vn -0.0000 0.0659 -0.9978
vn -0.0000 0.0659 -0.9978
vn -0.0000 0.0659 -0.9978
vn -0.0000 0.0659 -0.9978
f 2/2/2 18/18/18 19/19/19
f 3/3/3 19/19/19 20/20/20
f 4/4/4 20/20/20 21/21/21
f 5/5/5 21/21/21 22/22/22
f 6/6/6 22/22/22 23/23/23
f 7/7/7 23/23/23 24/24/24
f 8/8/8 24/24/24 25/25/25
f 9/9/9 25/25/25 26/26/26
f 10/10/10 26/26/26 27/27/27
f 11/11/11 27/27/27 28/28/28
f 12/12/12 28/28/28 29/29/29
f 13/13/13 29/29/29 30/30/30
f 14/14/14 30/30/30 31/31/31
f 15/15/15 31/31/31 32/32/32
f 16/16/16 32/32/32 33/33/33
f 17/17/17 33/33/33 34/34/34
f 18/18/18 35/35/35 19/19/19
f 19/19/19 35/35/35 36/36/36
f 19/19/19 36/36/36 20/20/20
f 20/20/20 36/36/36 37/37/37
f 20/20/20 37/37/37 21/21/21
f 21/21/21 37/37/37 38/38/38
f 21/21/21 38/38/38 22/22/22
f 22/22/22 38/38/38 39/39/39
f 22/22/22 39/39/39 23/23/23
f 23/23/23 39/39/39 40/40/40
f 23/23/23 40/40/40 24/24/24
f 24/24/24 40/40/40 41/41/41
f 24/24/24 41/41/41 25/25/25
f 25/25/25 41/41/41 42/42/42
f 25/25/25 42/42/42 26/26/26
f 26/26/26 42/42/42 43/43/43
f 26/26/26 43/43/43 27/27/27
f 27/27/27 43/43/43 44/44/44
f 27/27/27 44/44/44 28/28/28
f 28/28/28 44/44/44 45/45/45
f 28/28/28 45/45/45 29/29/29
f 29/29/29 45/45/45 46/46/46
f 29/29/29 46/46/46 30/30/30
f 30/30/30 46/46/46 47/47/47
f 30/30/30 47/47/47 31/31/31
f 31/31/31 47/47/47 48/48/48
f 31/31/31 48/48/48 32/32/32
f 32/32/32 48/48/48 49/49/49
f 32/32/32 49/49/49 33/33/33
f 33/33/33 49/49/49 50/50/50
f 33/33/33 50/50/50 34/34/34
f 34/34/34 50/50/50 51/51/51
f 35/35/35 52/52/52 36/36/36
f 36/36/36 52/52/52 53/53/53
f 36/36/36 53/53/53 37/37/37
f 37/37/37 53/53/53 54/54/54
f 37/37/37 54/54/54 38/38/38
f 38/38/38 54/54/54 55/55/55
f 38/38/38 55/55/55 39/39/39
f 39/39/39 55/55/55 56/56/56
f 39/39/39 56/56/56 40/40/40
f 40/40/40 56/56/56 57/57/57
f 40/40/40 57/57/57 41/41/41
f 41/41/41 57/57/57 58/58/58
f 41/41/41 58/58/58 42/42/42
f 42/42/42 58/58/58 59/59/59
f 42/42/42 59/59/59 43/43/43
f 43/43/43 59/59/59 60/60/60
f 43/43/43 60/60/60 44/44/44
f 44/44/44 60/60/60 61/61/61
f 44/44/44 61/61/61 45/45/45
f 45/45/45 61/61/61 62/62/62
f 45/45/45 62/62/62 46/46/46
f 46/46/46 62/62/62 63/63/63
f 46/46/46 63/63/63 47/47/47
f 47/47/47 63/63/63 64/64/64
f 47/47/47 64/64/64 48/48/48
f 48/48/48 64/64/64 65/65/65
f 48/48/48 65/65/65 49/49/49
f 49/49/49 65/65/65 66/66/66
f 49/49/49 66/66/66 50/50/50
f 50/50/50 66/66/66 67/67/67
f 50/50/50 67/67/67 51/51/51
f 51/51/51 67/67/67 68/68/68
f 52/52/52 69/69/69 53/53/53
f 53/53/53 69/69/69 70/70/70
f 53/53/53 70/70/70 54/54/54
f 54/54/54 70/70/70 71/71/71
f 54/54/54 71/71/71 55/55/55
f 55/55/55 71/71/71 72/72/72
f 55/55/55 72/72/72 56/56/56
f 56/56/56 72/72/72 73/73/73
f 56/56/56 73/73/73 57/57/57
f 57/57/57 73/73/73 74/74/74
f 57/57/57 74/74/74 58/58/58
f 58/58/58 74/74/74 75/75/75
f 58/58/58 75/75/75 59/59/59
f 59/59/59 75/75/75 76/76/76
f 59/59/59 76/76/76 60/60/60
f 60/60/60 76/76/76 77/77/77
f 60/60/60 77/77/77 61/61/61
f 61/61/61 77/77/77 78/78/78
f 61/61/61 78/78/78 62/62/62
f 62/62/62 78/78/78 79/79/79
f 62/62/62 79/79/79 63/63/63
f 63/63/63 79/79/79 80/80/80
f 63/63/63 80/80/80 64/64/64
f 64/64/64 80/80/80 81/81/81
f 64/64/64 81/81/81 65/65/65
f 65/65/65 81/81/81 82/82/82
f 65/65/65 82/82/82 66/66/66
f 66/66/66 82/82/82 83/83/83
f 66/66/66 83/83/83 67/67/67
f 67/67/67 83/83/83 84/84/84
f 67/67/67 84/84/84 68/68/68
f 68/68/68 84/84/84 85/85/85
f 69/69/69 86/86/86 70/70/70
f 70/70/70 86/86/86 87/87/87
f 70/70/70 87/87/87 71/71/71
f 71/71/71 87/87/87 88/88/88
f 71/71/71 88/88/88 72/72/72
f 72/72/72 88/88/88 89/89/89
f 72/72/72 89/89/89 73/73/73
f 73/73/73 89/89/89 90/90/90
f 73/73/73 90/90/90 74/74/74
f 74/74/74 90/90/90 91/91/91
f 74/74/74 91/91/91 75/75/75
f 75/75/75 91/91/91 92/92/92
f 75/75/75 92/92/92 76/76/76
f 76/76/76 92/92/92 93/93/93
f 76/76/76 93/93/93 77/77/77
f 77/77/77 93/93/93 94/94/94
f 77/77/77 94/94/94 78/78/78
f 78/78/78 94/94/94 95/95/95
f 78/78/78 95/95/95 79/79/79
f 79/79/79 95/95/95 96/96/96
f 79/79/79 96/96/96 80/80/80
f 80/80/80 96/96/96 97/97/97
f 80/80/80 97/97/97 81/81/81
f 81/81/81 97/97/97 98/98/98
f 81/81/81 98/98/98 82/82/82
f 82/82/82 98/98/98 99/99/99
f 82/82/82 99/99/99 83/83/83
f 83/83/83 99/99/99 100/100/100
f 83/83/83 100/100/100 84/84/84
f 84/84/84 100/100/100 101/101/101
f 84/84/84 101/101/101 85/85/85
f 85/85/85 101/101/101 102/102/102
f 86/86/86 103/103/103 87/87/87
f 87/87/87 103/103/103 104/104/104
f 87/87/87 104/104/104 88/88/88
f 88/88/88 104/104/104 105/105/105
f 88/88/88 105/105/105 89/89/89
f 89/89/89 105/105/105 106/106/106
f 89/89/89 106/106/106 90/90/90
f 90/90/90 106/106/106 107/107/107
f 90/90/90 107/107/107 91/91/91
f 91/91/91 107/107/107 108/108/108
f 91/91/91 108/108/108 92/92/92
f 92/92/92 108/108/108 109/109/109
f 92/92/92 109/109/109 93/93/93
f 93/93/93 109/109/109 110/110/110
f 93/93/93 110/110/110 94/94/94
f 94/94/94 110/110/110 111/111/111
f 94/94/94 111/111/111 95/95/95
f 95/95/95 111/111/111 112/112/112
f 95/95/95 112/112/112 96/96/96
f 96/96/96 112/112/112 113/113/113
f 96/96/96 113/113/113 97/97/97
f 97/97/97 113/113/113 114/114/114
f 97/97/97 114/114/114 98/98/98
f 98/98/98 114/114/114 115/115/115
f 98/98/98 115/115/115 99/99/99
f 99/99/99 115/115/115 116/116/116
f 99/99/99 116/116/116 100/100/100
f 100/100/100 116/116/116 117/117/117
f 100/100/100 117/117/117 101/101/101
f 101/101/101 117/117/117 118/118/118
f 101/101/101 118/118/118 102/102/102
f 102/102/102 118/118/118 119/119/119
f 103/103/103 120/120/120 104/104/104
f 104/104/104 120/120/120 121/121/121
f 104/104/104 121/121/121 105/105/105
f 105/105/105 121/121/121 122/122/122
f 105/105/105 122/122/122 106/106/106
f 106/106/106 122/122/122 123/123/123
f 106/106/106 123/123/123 107/107/107
f 107/107/107 123/123/123 124/124/124
f 107/107/107 124/124/124 108/108/108
f 108/108/108 124/124/124 125/125/125
f 108/108/108 125/125/125 109/109/109
f 109/109/109 125/125/125 126/126/126
f 109/109/109 126/126/126 110/110/110
f 110/110/110 126/126/126 127/127/127
f 110/110/110 127/127/127 111/111/111
f 111/111/111 127/127/127 128/128/128
f 111/111/111 128/128/128 112/112/112
f 112/112/112 128/128/128 129/129/129
f 112/112/112 129/129/129 113/113/113
f 113/113/113 129/129/129 130/130/130
f 113/113/113 130/130/130 114/114/114
f 114/114/114 130/130/130 131/131/131
f 114/114/114 131/131/131 115/115/115
f 115/115/115 131/131/131 132/132/132
f 115/115/115 132/132/132 116/116/116
f 116/116/116 132/132/132 133/133/133
f 116/116/116 133/133/133 117/117/117
f 117/117/117 133/133/133 134/134/134
f 117/117/117 134/134/134 118/118/118
f 118/118/118 134/134/134 135/135/135
f 118/118/118 135/135/135 119/119/119
f 119/119/119 135/135/135 136/136/136
f 120/120/120 137/137/137 121/121/121
f 121/121/121 137/137/137 138/138/138
f 121/121/121 138/138/138 122/122/122
f 122/122/122 138/138/138 139/139/139
f 122/122/122 139/139/139 123/123/123
f 123/123/123 139/139/139 140/140/140
f 123/123/123 140/140/140 124/124/124
f 124/124/124 140/140/140 141/141/141
f 124/124/124 141/141/141 125/125/125
f 125/125/125 141/141/141 142/142/142
f 125/125/125 142/142/142 126/126/126
f 126/126/126 142/142/142 143/143/143
f 126/126/126 143/143/143 127/127/127
f 127/127/127 143/143/143 144/144/144
f 127/127/127 144/144/144 128/128/128
f 128/128/128 144/144/144 145/145/145
f 128/128/128 145/145/145 129/129/129
f 129/129/129 145/145/145 146/146/146
f 129/129/129 146/146/146 130/130/130
f 130/130/130 146/146/146 147/147/147
f 130/130/130 147/147/147 131/131/131
f 131/131/131 147/147/147 148/148/148
f 131/131/131 148/148/148 132/132/132
f 132/132/132 148/148/148 149/149/149
f 132/132/132 149/149/149 133/133/133
f 133/133/133 149/149/149 150/150/150
f 133/133/133 150/150/150 134/134/134
f 134/134/134 150/150/150 151/151/151
f 134/134/134 151/151/151 135/135/135
f 135/135/135 151/151/151 152/152/152
f 135/135/135 152/152/152 136/136/136
f 136/136/136 152/152/152 153/153/153
f 137/137/137 154/154/154 138/138/138
f 138/138/138 154/154/154 155/155/155
f 138/138/138 155/155/155 139/139/139
f 139/139/139 155/155/155 156/156/156
f 139/139/139 156/156/156 140/140/140
f 140/140/140 156/156/156 157/157/157
f 140/140/140 157/157/157 141/141/141
f 141/141/141 157/157/157 158/158/158
f 141/141/141 158/158/158 142/142/142
f 142/142/142 158/158/158 159/159/159
f 142/142/142 159/159/159 143/143/143
f 143/143/143 159/159/159 160/160/160
f 143/143/143 160/160/160 144/144/144
f 144/144/144 160/160/160 161/161/161
f 144/144/144 161/161/161 145/145/145
f 145/145/145 161/161/161 162/162/162
f 145/145/145 162/162/162 146/146/146
f 146/146/146 162/162/162 163/163/163
f 146/146/146 163/163/163 147/147/147
f 147/147/147 163/163/163 164/164/164
f 147/147/147 164/164/164 148/148/148
f 148/148/148 164/164/164 165/165/165
f 148/148/148 165/165/165 149/149/149
f 149/149/149 165/165/165 166/166/166
f 149/149/149 166/166/166 150/150/150
f 150/150/150 166/166/166 167/167/167
f 150/150/150 167/167/167 151/151/151
f 151/151/151 167/167/167 168/168/168
f 151/151/151 168/168/168 152/152/152
f 152/152/152 168/168/168 169/169/169
f 152/152/152 169/169/169 153/153/153
f 153/153/153 169/169/169 170/170/170
f 154/154/154 171/171/171 155/155/155
f 155/155/155 172/172/172 156/156/156
f 156/156/156 173/173/173 157/157/157
f 157/157/157 174/174/174 158/158/158
f 158/158/158 175/175/175 159/159/159
f 159/159/159 176/176/176 160/160/160
f 160/160/160 177/177/177 161/161/161
f 161/161/161 178/178/178 162/162/162
f 162/162/162 179/179/179 163/163/163
f 163/163/163 180/180/180 164/164/164
f 164/164/164 181/181/181 165/165/165
f 165/165/165 182/182/182 166/166/166
f 166/166/166 183/183/183 167/167/167
f 167/167/167 184/184/184 168/168/168
f 168/168/168 185/185/185 169/169/169
f 169/169/169 186/186/186 170/170/170
