# GoldGuppy / SideFin1  (local frame of part 'SideFin1', bbox-centred; -Z = front)
v 0.18945 -0.02235 0.08463
v 0.21594 -0.01015 0.04465
v 0.20686 -0.00037 0.07627
v 0.18947 -0.00557 0.10525
v 0.15295 -0.02973 0.11907
v 0.16202 -0.01435 0.13199
v 0.19934 -0.03069 0.02366
v 0.22083 -0.01223 0.00018
v 0.15671 -0.04262 0.07346
v 0.20392 -0.02878 -0.00892
v 0.15447 -0.05036 0.00689
v 0.13465 -0.05013 0.06991
v 0.10133 -0.03588 0.14786
v 0.08285 -0.05500 0.10127
v 0.14141 -0.05191 -0.04224
v 0.05385 -0.04881 0.13872
v 0.16023 -0.04201 -0.07072
v 0.19216 -0.02973 -0.05862
v 0.18812 -0.01936 -0.09542
v 0.16622 -0.03588 -0.08696
v 0.09240 -0.01915 0.17493
v -0.00701 -0.03202 0.17936
v 0.01739 -0.01342 0.19655
v 0.21975 0.00052 -0.04075
v 0.19781 -0.00615 -0.09422
v 0.07003 0.00172 0.19070
v 0.14532 0.00501 0.15173
v 0.16076 0.00429 0.13876
v 0.22192 0.00540 0.02351
v 0.17291 0.00958 0.12389
v 0.22319 0.00656 0.00322
v -0.11754 -0.06075 -0.00716
v -0.02155 -0.06923 0.00865
v -0.07069 -0.06540 0.03884
v -0.08459 -0.06359 -0.04351
v -0.01810 -0.06051 -0.09909
v 0.02139 -0.06719 -0.05244
v -0.09646 -0.06362 0.02143
v -0.12834 -0.05589 -0.04810
v 0.02398 -0.06776 0.04630
v 0.07322 -0.06491 0.03797
v 0.09190 -0.06355 -0.02005
v 0.04796 -0.05722 -0.10488
v -0.10672 -0.05012 -0.10281
v -0.00070 -0.05510 0.12833
v 0.03467 -0.06216 0.09180
v -0.11218 -0.05832 0.05362
v -0.02212 -0.04857 0.14619
v -0.06519 -0.04994 0.13030
v -0.10227 -0.04731 0.11757
v -0.16421 -0.04620 0.04453
v -0.13560 -0.03862 0.11722
v -0.16143 -0.03295 -0.10469
v -0.18503 -0.03511 -0.05801
v -0.18749 -0.03170 0.06967
v -0.21268 -0.02311 0.00909
v -0.08284 -0.01982 0.17907
v -0.18227 -0.01300 0.11398
v -0.20810 -0.01524 0.06673
v -0.15144 -0.00943 0.14681
v -0.22319 -0.00753 -0.01792
v -0.20239 -0.01745 -0.07464
v -0.17908 -0.00529 -0.12135
v -0.04313 -0.00305 0.19709
v -0.22252 0.00220 0.03148
v -0.10802 0.00269 0.17649
v 0.05855 -0.01727 -0.18493
v 0.01651 -0.03280 -0.17366
v -0.01901 -0.00649 -0.19709
v -0.05801 -0.02354 -0.17997
v -0.05579 -0.03916 -0.15625
v 0.08897 -0.04413 -0.13124
v 0.09995 -0.03885 -0.13896
v -0.10682 -0.03578 -0.14305
v -0.12984 -0.01214 -0.16001
v 0.14147 -0.04179 -0.09842
v 0.13433 -0.02813 -0.13887
v 0.12975 -0.01492 -0.15769
v 0.17073 -0.00345 -0.13096
v 0.11060 -0.00114 -0.17344
v -0.07240 0.00450 -0.18833
v -0.11952 0.00965 -0.16731
v 0.04989 0.00445 -0.19306
v -0.19855 0.00476 -0.09482
v -0.20239 -0.01745 -0.07464
v -0.22149 0.00470 -0.03476
v -0.22319 -0.00753 -0.01792
v -0.17908 -0.00529 -0.12135
v -0.21300 0.02240 0.00968
v -0.22252 0.00220 0.03148
v -0.19097 0.02623 -0.07714
v -0.14863 0.02111 -0.13789
v -0.11952 0.00965 -0.16731
v -0.20475 0.01491 0.07481
v -0.10254 0.02671 -0.16023
v -0.07240 0.00450 -0.18833
v -0.06462 0.03033 -0.16921
v 0.19934 -0.03069 0.02366
v 0.15447 -0.05036 0.00689
v 0.09190 -0.06355 -0.02005
v 0.16016 0.01151 -0.13738
v 0.12975 -0.01492 -0.15769
v 0.11060 -0.00114 -0.17344
v 0.17073 -0.00345 -0.13096
v 0.11714 0.02231 -0.15742
v 0.06454 0.01472 -0.18504
v 0.04989 0.00445 -0.19306
v 0.19781 -0.00615 -0.09422
v 0.19984 0.01524 -0.08068
v 0.14880 0.02959 -0.12398
v -0.01153 0.01995 -0.18950
v -0.01901 -0.00649 -0.19709
v -0.07240 0.00450 -0.18833
v 0.19936 0.03154 -0.00651
v 0.21366 0.01955 -0.02176
v 0.18240 0.03398 -0.06375
v 0.12973 0.04410 -0.10241
v 0.16225 0.04736 -0.02083
v 0.11640 0.05498 -0.06448
v 0.09039 0.05451 -0.09329
v 0.08284 0.06501 -0.00716
v 0.15224 0.05099 -0.00082
v 0.19001 0.03276 0.04601
v 0.15105 0.04960 0.03637
v 0.02781 0.03675 -0.16565
v 0.01346 0.05232 -0.13006
v -0.06462 0.03033 -0.16921
v -0.05498 0.04790 -0.13458
v -0.10254 0.02671 -0.16023
v -0.12215 0.04526 -0.10624
v -0.14863 0.02111 -0.13789
v -0.19097 0.02623 -0.07714
v 0.21464 0.01573 0.03442
v 0.22070 0.01212 -0.00302
v 0.20937 0.02013 0.04006
v 0.21135 0.01298 0.05385
v 0.18228 0.02284 0.09472
v 0.21975 0.00052 -0.04075
v 0.22319 0.00656 0.00322
v 0.22192 0.00540 0.02351
v 0.20686 -0.00037 0.07627
v 0.18947 -0.00557 0.10525
v -0.02139 0.06430 0.08173
v -0.12375 0.05316 0.07098
v -0.07295 0.04676 0.13629
v -0.13228 0.05719 0.01227
v -0.07752 0.06641 -0.00655
v 0.01467 0.06908 0.03915
v -0.01315 0.06680 -0.06189
v 0.04096 0.06923 -0.00479
v -0.09340 0.06217 -0.04397
v 0.01121 0.05604 0.12367
v 0.02656 0.06240 -0.08739
v 0.11038 0.05416 0.07759
v 0.08096 0.04081 0.14672
v 0.12429 0.04472 0.10576
v -0.04936 0.04029 0.16006
v -0.17362 0.04371 -0.02619
v -0.15874 0.04417 0.06712
v -0.15157 0.03612 0.10756
v -0.21300 0.02240 0.00968
v 0.00643 0.02731 0.18516
v 0.16146 0.02957 0.10870
v -0.15052 0.02380 0.13366
v -0.09274 0.01607 0.17791
v -0.20475 0.01491 0.07481
v 0.10089 0.01995 0.16989
v 0.00248 0.01566 0.19565
v -0.17707 0.01233 0.12042
v 0.14532 0.00501 0.15173
v 0.17291 0.00958 0.12389
v 0.16076 0.00429 0.13876
v 0.07003 0.00172 0.19070
v -0.10802 0.00269 0.17649
v -0.04313 -0.00305 0.19709
v -0.15144 -0.00943 0.14681
v 0.10089 0.01995 0.16989
v 0.09240 -0.01915 0.17493
v 0.14532 0.00501 0.15173
v 0.07003 0.00172 0.19070
v 0.07003 0.00172 0.19070
v 0.00248 0.01566 0.19565
v 0.01739 -0.01342 0.19655
v -0.04313 -0.00305 0.19709
v -0.17707 0.01233 0.12042
v -0.20475 0.01491 0.07481
v -0.20810 -0.01524 0.06673
v -0.18227 -0.01300 0.11398
v -0.22252 0.00220 0.03148
v -0.15144 -0.00943 0.14681
v -0.12984 -0.01214 -0.16001
v -0.17908 -0.00529 -0.12135
v -0.11952 0.00965 -0.16731
v 0.19781 -0.00615 -0.09422
v 0.19984 0.01524 -0.08068
v 0.21975 0.00052 -0.04075
v 0.22083 -0.01223 0.00018
v 0.21975 0.00052 -0.04075
v 0.21366 0.01955 -0.02176
v 0.22070 0.01212 -0.00302
v 0.22319 0.00656 0.00322
v 0.21594 -0.01015 0.04465
v 0.21135 0.01298 0.05385
v 0.20686 -0.00037 0.07627
v 0.21464 0.01573 0.03442
v 0.22192 0.00540 0.02351
vt 0.24490 0.04609
vt 0.19225 0.02067
vt 0.22983 0.00294
vt 0.26809 0.01821
vt 0.29413 0.08344
vt 0.30597 0.05260
vt 0.17915 0.07326
vt 0.14273 0.04366
vt 0.24646 0.11025
vt 0.14437 0.08577
vt 0.18196 0.15576
vt 0.25160 0.14635
vt 0.34315 0.14423
vt 0.30270 0.20338
vt 0.13977 0.20423
vt 0.35118 0.22188
vt 0.10297 0.19269
vt 0.10003 0.13543
vt 0.06113 0.15921
vt 0.08350 0.19197
vt 0.37885 0.13344
vt 0.41962 0.28377
vt 0.43480 0.23169
vt 0.09651 0.06328
vt 0.05174 0.13594
vt 0.41609 0.14555
vt 0.34147 0.04497
vt 0.32061 0.02795
vt 0.16334 0.00336
vt 0.30129 0.00729
vt 0.14003 0.01030
vt 0.27767 0.55353
vt 0.25468 0.40767
vt 0.30302 0.45972
vt 0.22983 0.52802
vt 0.15007 0.46652
vt 0.17939 0.38276
vt 0.29668 0.50651
vt 0.24286 0.59419
vt 0.27260 0.32106
vt 0.24518 0.25590
vt 0.18216 0.26348
vt 0.11769 0.37609
vt 0.18079 0.59678
vt 0.36195 0.30753
vt 0.31213 0.27888
vt 0.33426 0.51038
vt 0.38863 0.32723
vt 0.38991 0.39821
vt 0.39325 0.45903
vt 0.34781 0.59257
vt 0.40843 0.50817
vt 0.19990 0.68226
vt 0.25605 0.68875
vt 0.38457 0.61515
vt 0.33546 0.69300
vt 0.45320 0.39445
vt 0.43404 0.58535
vt 0.39529 0.65569
vt 0.45622 0.51764
vt 0.31552 0.73824
vt 0.24658 0.73549
vt 0.18592 0.73824
vt 0.46714 0.32197
vt 0.37111 0.71667
vt 0.47817 0.43433
vt 0.02515 0.41180
vt 0.05937 0.46455
vt 0.03846 0.53898
vt 0.08060 0.57937
vt 0.10703 0.55755
vt 0.07342 0.33291
vt 0.06031 0.32147
vt 0.13991 0.62487
vt 0.12659 0.68152
vt 0.08329 0.23633
vt 0.04233 0.27023
vt 0.01900 0.28747
vt 0.02285 0.20191
vt 0.00198 0.32768
vt 0.06204 0.62455
vt 0.09903 0.69169
vt 0.00314 0.43518
vt 0.51971 0.79618
vt 0.54211 0.76176
vt 0.58552 0.80517
vt 0.60526 0.79093
vt 0.48523 0.77898
vt 0.62541 0.85400
vt 0.65501 0.82744
vt 0.53060 0.83945
vt 0.45029 0.82809
vt 0.40422 0.81242
vt 0.69643 0.87941
vt 0.39590 0.85288
vt 0.34722 0.82491
vt 0.35605 0.87941
vt 0.98611 0.92647
vt 0.97817 0.84365
vt 0.98611 0.73235
vt 0.95532 0.55278
vt 0.99802 0.51419
vt 0.99343 0.46676
vt 0.96288 0.58233
vt 0.96197 0.47538
vt 0.98410 0.38566
vt 0.99728 0.36006
vt 0.93139 0.64424
vt 0.90308 0.63602
vt 0.93165 0.53373
vt 0.97030 0.26526
vt 0.99802 0.24435
vt 0.96856 0.16411
vt 0.81874 0.65426
vt 0.84038 0.67879
vt 0.87569 0.60611
vt 0.90205 0.50931
vt 0.82439 0.58584
vt 0.85877 0.50003
vt 0.88264 0.45157
vt 0.79226 0.46632
vt 0.80091 0.57608
vt 0.75950 0.65624
vt 0.76167 0.58637
vt 0.94772 0.33451
vt 0.90468 0.32343
vt 0.93539 0.18778
vt 0.89643 0.21642
vt 0.91762 0.12869
vt 0.85242 0.12119
vt 0.88408 0.06061
vt 0.80814 0.01647
vt 0.77762 0.70233
vt 0.82152 0.70214
vt 0.76977 0.69225
vt 0.75377 0.70517
vt 0.70462 0.66301
vt 0.86919 0.69714
vt 0.81560 0.71446
vt 0.79244 0.72059
vt 0.72512 0.71866
vt 0.68701 0.70733
vt 0.67992 0.33619
vt 0.66810 0.17754
vt 0.61131 0.27466
vt 0.72693 0.14650
vt 0.75817 0.22441
vt 0.73098 0.37723
vt 0.82803 0.30445
vt 0.78107 0.40347
vt 0.79304 0.18821
vt 0.64295 0.39829
vt 0.86251 0.35654
vt 0.71041 0.53557
vt 0.63085 0.51370
vt 0.68331 0.56747
vt 0.59038 0.31773
vt 0.75742 0.06734
vt 0.66323 0.12133
vt 0.62142 0.14381
vt 0.70923 0.00882
vt 0.57144 0.41183
vt 0.68591 0.63166
vt 0.59115 0.15122
vt 0.55407 0.25401
vt 0.63925 0.04038
vt 0.60448 0.55870
vt 0.55330 0.41074
vt 0.59411 0.09909
vt 0.62860 0.63307
vt 0.66731 0.66746
vt 0.64574 0.65551
vt 0.56602 0.52201
vt 0.54199 0.22623
vt 0.52976 0.33809
vt 0.55264 0.13767
vt 0.25348 0.86176
vt 0.22694 0.91471
vt 0.29563 0.91471
vt 0.20833 0.86607
vt 0.14484 0.83018
vt 0.07064 0.82647
vt 0.09170 0.87353
vt 0.02579 0.87353
vt 0.80975 0.83516
vt 0.86767 0.82647
vt 0.87850 0.87941
vt 0.81985 0.87941
vt 0.91865 0.84594
vt 0.77183 0.87709
vt 0.53550 0.92647
vt 0.47024 0.96176
vt 0.55357 0.96176
vt 0.52183 0.03824
vt 0.50473 0.00294
vt 0.45833 0.03824
vt 0.64087 0.99706
vt 0.68849 0.99706
vt 0.67529 0.95588
vt 0.65208 0.95938
vt 0.64335 0.96555
vt 0.03187 0.95000
vt 0.03529 0.99118
vt 0.00595 0.99118
vt 0.05569 0.97905
vt 0.06151 0.95348
vn 0.5966 -0.7309 0.3314
vn 0.8732 -0.4267 0.2357
vn 0.9065 -0.0093 0.4222
vn 0.7985 -0.2387 0.5527
vn 0.4203 -0.8169 0.3950
vn 0.5978 -0.5325 0.5993
vn 0.5256 -0.8467 0.0828
vn 0.8671 -0.4981 0.0024
vn 0.3344 -0.9231 0.1898
vn 0.5604 -0.8277 -0.0296
vn 0.2884 -0.9574 0.0168
vn 0.2544 -0.9542 0.1576
vn 0.2543 -0.8617 0.4391
vn 0.1523 -0.9666 0.2059
vn 0.2555 -0.9616 -0.1006
vn 0.1088 -0.9382 0.3285
vn 0.3302 -0.9264 -0.1810
vn 0.5142 -0.8365 -0.1893
vn 0.6297 -0.6717 -0.3902
vn 0.3840 -0.8895 -0.2475
vn 0.3137 -0.6166 0.7221
vn -0.0170 -0.8154 0.5786
vn 0.0600 -0.4678 0.8818
vn 0.9751 0.0315 -0.2197
vn 0.8342 -0.2591 -0.4868
vn 0.2825 0.0737 0.9564
vn 0.5984 0.2140 0.7721
vn 0.6713 0.1895 0.7166
vn 0.9584 0.2522 0.1336
vn 0.6858 0.3999 0.6081
vn 0.9535 0.3009 0.0192
vn -0.1815 -0.9833 -0.0144
vn -0.0221 -0.9997 0.0136
vn -0.0925 -0.9926 0.0780
vn -0.1157 -0.9888 -0.0939
vn -0.0312 -0.9777 -0.2078
vn 0.0325 -0.9958 -0.0851
vn -0.1346 -0.9897 0.0479
vn -0.2172 -0.9693 -0.1149
vn 0.0332 -0.9975 0.0623
vn 0.1096 -0.9914 0.0716
vn 0.1440 -0.9886 -0.0443
vn 0.0926 -0.9697 -0.2261
vn -0.1843 -0.9511 -0.2480
vn -0.0014 -0.9595 0.2815
vn 0.0643 -0.9840 0.1659
vn -0.1747 -0.9766 0.1252
vn -0.0448 -0.9324 0.3586
vn -0.1324 -0.9460 0.2959
vn -0.2000 -0.9390 0.2798
vn -0.3290 -0.9387 0.1032
vn -0.2919 -0.8965 0.3333
vn -0.3987 -0.8525 -0.3382
vn -0.4515 -0.8755 -0.1723
vn -0.4929 -0.8423 0.2181
vn -0.6698 -0.7417 0.0347
vn -0.2702 -0.6332 0.7253
vn -0.6851 -0.4771 0.5504
vn -0.7782 -0.5543 0.2954
vn -0.5837 -0.3602 0.7277
vn -0.9438 -0.3175 -0.0917
vn -0.7148 -0.6175 -0.3282
vn -0.7362 -0.2128 -0.6424
vn -0.1547 -0.1110 0.9817
vn -0.9814 0.1050 0.1609
vn -0.4422 0.1113 0.8900
vn 0.1893 -0.6074 -0.7715
vn 0.0404 -0.8432 -0.5360
vn -0.0683 -0.2648 -0.9619
vn -0.1516 -0.7304 -0.6659
vn -0.1094 -0.8941 -0.4342
vn 0.1677 -0.9273 -0.3346
vn 0.2057 -0.8980 -0.3889
vn -0.2363 -0.8738 -0.4250
vn -0.4754 -0.4593 -0.7503
vn 0.2872 -0.9239 -0.2529
vn 0.3470 -0.8063 -0.4790
vn 0.4339 -0.5503 -0.7134
vn 0.7124 -0.1411 -0.6874
vn 0.4289 -0.0422 -0.9024
vn -0.2673 0.1949 -0.9437
vn -0.4468 0.3876 -0.8063
vn 0.1969 0.1971 -0.9604
vn -0.8365 0.2058 -0.5078
vn -0.7148 -0.6175 -0.3282
vn -0.9600 0.2132 -0.1814
vn -0.9438 -0.3175 -0.0917
vn -0.7362 -0.2128 -0.6424
vn -0.6733 0.7384 0.0370
vn -0.9814 0.1050 0.1609
vn -0.5561 0.7824 -0.2805
vn -0.4600 0.6928 -0.5553
vn -0.4468 0.3876 -0.8063
vn -0.7605 0.5548 0.3374
vn -0.2700 0.7837 -0.5594
vn -0.2673 0.1949 -0.9437
vn -0.1509 0.8234 -0.5471
vn 0.5256 -0.8467 0.0828
vn 0.2884 -0.9574 0.0168
vn 0.1440 -0.9886 -0.0443
vn 0.5978 0.4580 -0.6579
vn 0.4339 -0.5503 -0.7134
vn 0.4289 -0.0422 -0.9024
vn 0.7124 -0.1411 -0.6874
vn 0.3328 0.7189 -0.6103
vn 0.2161 0.5514 -0.8058
vn 0.1969 0.1971 -0.9604
vn 0.8342 -0.2591 -0.4868
vn 0.7308 0.5810 -0.3583
vn 0.3815 0.8269 -0.4131
vn -0.0339 0.6664 -0.7448
vn -0.0683 -0.2648 -0.9619
vn -0.2673 0.1949 -0.9437
vn 0.5178 0.8553 -0.0201
vn 0.7173 0.6911 -0.0884
vn 0.4493 0.8733 -0.1885
vn 0.2522 0.9323 -0.2591
vn 0.3145 0.9480 -0.0493
vn 0.1987 0.9696 -0.1425
vn 0.1524 0.9664 -0.2070
vn 0.1310 0.9913 -0.0135
vn 0.2797 0.9601 -0.0012
vn 0.4778 0.8647 0.1548
vn 0.2844 0.9543 0.0920
vn 0.0672 0.8735 -0.4821
vn 0.0260 0.9519 -0.3052
vn -0.1509 0.8234 -0.5471
vn -0.1047 0.9397 -0.3256
vn -0.2700 0.7837 -0.5594
vn -0.2271 0.9353 -0.2712
vn -0.4600 0.6928 -0.5553
vn -0.5561 0.7824 -0.2805
vn 0.7781 0.6061 0.1650
vn 0.8639 0.5035 -0.0133
vn 0.6895 0.7029 0.1747
vn 0.8051 0.5302 0.2660
vn 0.5621 0.7446 0.3602
vn 0.9751 0.0315 -0.2197
vn 0.9535 0.3009 0.0192
vn 0.9584 0.2522 0.1336
vn 0.9065 -0.0093 0.4222
vn 0.7985 -0.2387 0.5527
vn -0.0378 0.9882 0.1484
vn -0.2158 0.9624 0.1652
vn -0.1502 0.9349 0.3216
vn -0.2329 0.9721 0.0283
vn -0.1098 0.9939 -0.0127
vn 0.0239 0.9974 0.0681
vn -0.0217 0.9922 -0.1230
vn 0.0673 0.9977 -0.0083
vn -0.1393 0.9845 -0.1068
vn 0.0214 0.9647 0.2624
vn 0.0486 0.9820 -0.1827
vn 0.1971 0.9665 0.1644
vn 0.1850 0.9005 0.3935
vn 0.2592 0.9306 0.2586
vn -0.1035 0.8921 0.4399
vn -0.3654 0.9288 -0.0612
vn -0.3160 0.9337 0.1685
vn -0.3426 0.8835 0.3196
vn -0.6733 0.7384 0.0370
vn 0.0176 0.7587 0.6512
vn 0.4375 0.8256 0.3564
vn -0.4426 0.7379 0.5095
vn -0.3275 0.5481 0.7696
vn -0.7605 0.5548 0.3374
vn 0.3330 0.6505 0.6826
vn 0.0082 0.5352 0.8447
vn -0.6635 0.4692 0.5827
vn 0.5984 0.2140 0.7721
vn 0.6858 0.3999 0.6081
vn 0.6713 0.1895 0.7166
vn 0.2825 0.0737 0.9564
vn -0.4422 0.1113 0.8900
vn -0.1547 -0.1110 0.9817
vn -0.5837 -0.3602 0.7277
vn 0.3330 0.6505 0.6826
vn 0.3137 -0.6166 0.7221
vn 0.5984 0.2140 0.7721
vn 0.2825 0.0737 0.9564
vn 0.2825 0.0737 0.9564
vn 0.0082 0.5352 0.8447
vn 0.0600 -0.4678 0.8818
vn -0.1547 -0.1110 0.9817
vn -0.6635 0.4692 0.5827
vn -0.7605 0.5548 0.3374
vn -0.7782 -0.5543 0.2954
vn -0.6851 -0.4771 0.5504
vn -0.9814 0.1050 0.1609
vn -0.5837 -0.3602 0.7277
vn -0.4754 -0.4593 -0.7503
vn -0.7362 -0.2128 -0.6424
vn -0.4468 0.3876 -0.8063
vn 0.8342 -0.2591 -0.4868
vn 0.7308 0.5810 -0.3583
vn 0.9751 0.0315 -0.2197
vn 0.8671 -0.4981 0.0024
vn 0.9751 0.0315 -0.2197
vn 0.7173 0.6911 -0.0884
vn 0.8639 0.5035 -0.0133
vn 0.9535 0.3009 0.0192
vn 0.8732 -0.4267 0.2357
vn 0.8051 0.5302 0.2660
vn 0.9065 -0.0093 0.4222
vn 0.7781 0.6061 0.1650
vn 0.9584 0.2522 0.1336
f 89/89/89 86/86/86 87/87/87
f 89/89/89 87/87/87 90/90/90
f 61/61/61 56/56/56 65/65/65
f 65/65/65 56/56/56 59/59/59
f 61/61/61 54/54/54 56/56/56
f 86/86/86 85/85/85 87/87/87
f 84/84/84 85/85/85 86/86/86
f 187/187/187 186/186/186 189/189/189
f 86/86/86 91/91/91 84/84/84
f 89/89/89 90/90/90 94/94/94
f 91/91/91 86/86/86 89/89/89
f 61/61/61 62/62/62 54/54/54
f 55/55/55 59/59/59 56/56/56
f 55/55/55 58/58/58 59/59/59
f 185/185/185 186/186/186 187/187/187
f 185/185/185 187/187/187 188/188/188
f 85/85/85 84/84/84 88/88/88
f 132/132/132 161/161/161 158/158/158
f 56/56/56 51/51/51 55/55/55
f 159/159/159 161/161/161 166/166/166
f 158/158/158 161/161/161 159/159/159
f 54/54/54 51/51/51 56/56/56
f 169/169/169 160/160/160 166/166/166
f 63/63/63 54/54/54 62/62/62
f 91/91/91 88/88/88 84/84/84
f 159/159/159 166/166/166 160/160/160
f 164/164/164 160/160/160 169/169/169
f 51/51/51 52/52/52 55/55/55
f 188/188/188 190/190/190 185/185/185
f 91/91/91 92/92/92 88/88/88
f 53/53/53 54/54/54 63/63/63
f 51/51/51 54/54/54 32/32/32
f 144/144/144 158/158/158 159/159/159
f 144/144/144 146/146/146 158/158/158
f 52/52/52 60/60/60 58/58/58
f 191/191/191 192/192/192 193/193/193
f 88/88/88 92/92/92 93/93/93
f 53/53/53 39/39/39 54/54/54
f 47/47/47 52/52/52 51/51/51
f 52/52/52 58/58/58 55/55/55
f 63/63/63 75/75/75 53/53/53
f 164/164/164 169/169/169 176/176/176
f 130/130/130 132/132/132 158/158/158
f 54/54/54 39/39/39 32/32/32
f 130/130/130 131/131/131 132/132/132
f 151/151/151 158/158/158 146/146/146
f 35/35/35 53/53/53 44/44/44
f 174/174/174 164/164/164 176/176/176
f 32/32/32 47/47/47 51/51/51
f 39/39/39 53/53/53 35/35/35
f 44/44/44 53/53/53 74/74/74
f 53/53/53 75/75/75 74/74/74
f 93/93/93 92/92/92 95/95/95
f 151/151/151 130/130/130 158/158/158
f 57/57/57 60/60/60 52/52/52
f 47/47/47 50/50/50 52/52/52
f 57/57/57 66/66/66 60/60/60
f 165/165/165 164/164/164 174/174/174
f 130/130/130 129/129/129 131/131/131
f 146/146/146 147/147/147 151/151/151
f 39/39/39 35/35/35 32/32/32
f 157/157/157 164/164/164 165/165/165
f 157/157/157 160/160/160 164/164/164
f 160/160/160 145/145/145 159/159/159
f 71/71/71 75/75/75 70/70/70
f 32/32/32 38/38/38 47/47/47
f 75/75/75 71/71/71 74/74/74
f 82/82/82 70/70/70 75/75/75
f 82/82/82 81/81/81 70/70/70
f 93/93/93 95/95/95 96/96/96
f 128/128/128 127/127/127 129/129/129
f 130/130/130 128/128/128 129/129/129
f 128/128/128 130/130/130 151/151/151
f 145/145/145 144/144/144 159/159/159
f 47/47/47 49/49/49 50/50/50
f 50/50/50 49/49/49 52/52/52
f 145/145/145 160/160/160 157/157/157
f 143/143/143 146/146/146 144/144/144
f 143/143/143 147/147/147 146/146/146
f 57/57/57 52/52/52 49/49/49
f 97/97/97 96/96/96 95/95/95
f 32/32/32 34/34/34 38/38/38
f 64/64/64 66/66/66 57/57/57
f 35/35/35 33/33/33 32/32/32
f 44/44/44 74/74/74 71/71/71
f 165/165/165 174/174/174 175/175/175
f 32/32/32 33/33/33 34/34/34
f 38/38/38 34/34/34 47/47/47
f 49/49/49 22/22/22 57/57/57
f 70/70/70 81/81/81 69/69/69
f 151/151/151 149/149/149 128/128/128
f 36/36/36 35/35/35 44/44/44
f 165/165/165 175/175/175 168/168/168
f 47/47/47 48/48/48 49/49/49
f 71/71/71 36/36/36 44/44/44
f 157/157/157 165/165/165 168/168/168
f 147/147/147 149/149/149 151/151/151
f 111/111/111 113/113/113 127/127/127
f 143/143/143 144/144/144 145/145/145
f 34/34/34 48/48/48 47/47/47
f 112/112/112 113/113/113 111/111/111
f 145/145/145 157/157/157 143/143/143
f 148/148/148 149/149/149 147/147/147
f 48/48/48 22/22/22 49/49/49
f 57/57/57 22/22/22 64/64/64
f 127/127/127 128/128/128 126/126/126
f 152/152/152 148/148/148 143/143/143
f 36/36/36 33/33/33 35/35/35
f 34/34/34 45/45/45 48/48/48
f 71/71/71 70/70/70 68/68/68
f 143/143/143 148/148/148 147/147/147
f 34/34/34 33/33/33 45/45/45
f 182/182/182 184/184/184 183/183/183
f 125/125/125 111/111/111 127/127/127
f 125/125/125 127/127/127 126/126/126
f 22/22/22 23/23/23 64/64/64
f 168/168/168 162/162/162 157/157/157
f 153/153/153 126/126/126 128/128/128
f 149/149/149 153/153/153 128/128/128
f 152/152/152 143/143/143 157/157/157
f 70/70/70 69/69/69 68/68/68
f 36/36/36 37/37/37 33/33/33
f 33/33/33 46/46/46 45/45/45
f 36/36/36 71/71/71 43/43/43
f 43/43/43 71/71/71 68/68/68
f 40/40/40 46/46/46 33/33/33
f 111/111/111 107/107/107 112/112/112
f 106/106/106 107/107/107 111/111/111
f 125/125/125 106/106/106 111/111/111
f 67/67/67 68/68/68 69/69/69
f 150/150/150 149/149/149 148/148/148
f 37/37/37 40/40/40 33/33/33
f 22/22/22 48/48/48 45/45/45
f 67/67/67 69/69/69 83/83/83
f 157/157/157 162/162/162 152/152/152
f 121/121/121 153/153/153 149/149/149
f 43/43/43 37/37/37 36/36/36
f 181/181/181 182/182/182 183/183/183
f 152/152/152 162/162/162 155/155/155
f 45/45/45 16/16/16 22/22/22
f 37/37/37 42/42/42 41/41/41
f 43/43/43 68/68/68 72/72/72
f 68/68/68 67/67/67 72/72/72
f 155/155/155 162/162/162 168/168/168
f 46/46/46 16/16/16 45/45/45
f 16/16/16 21/21/21 22/22/22
f 21/21/21 23/23/23 22/22/22
f 155/155/155 168/168/168 167/167/167
f 120/120/120 126/126/126 153/153/153
f 150/150/150 121/121/121 149/149/149
f 41/41/41 40/40/40 37/37/37
f 125/125/125 126/126/126 120/120/120
f 72/72/72 67/67/67 73/73/73
f 21/21/21 26/26/26 23/23/23
f 168/168/168 173/173/173 167/167/167
f 121/121/121 120/120/120 153/153/153
f 121/121/121 150/150/150 148/148/148
f 154/154/154 148/148/148 152/152/152
f 46/46/46 14/14/14 16/16/16
f 152/152/152 155/155/155 154/154/154
f 105/105/105 106/106/106 125/125/125
f 16/16/16 13/13/13 21/21/21
f 120/120/120 105/105/105 125/125/125
f 41/41/41 14/14/14 40/40/40
f 40/40/40 14/14/14 46/46/46
f 43/43/43 42/42/42 37/37/37
f 80/80/80 78/78/78 67/67/67
f 83/83/83 80/80/80 67/67/67
f 14/14/14 13/13/13 16/16/16
f 77/77/77 67/67/67 78/78/78
f 154/154/154 121/121/121 148/148/148
f 43/43/43 72/72/72 15/15/15
f 73/73/73 67/67/67 77/77/77
f 106/106/106 103/103/103 107/107/107
f 117/117/117 105/105/105 120/120/120
f 119/119/119 117/117/117 120/120/120
f 156/156/156 154/154/154 155/155/155
f 119/119/119 120/120/120 121/121/121
f 42/42/42 12/12/12 41/41/41
f 41/41/41 12/12/12 14/14/14
f 14/14/14 12/12/12 13/13/13
f 177/177/177 180/180/180 178/178/178
f 105/105/105 103/103/103 106/106/106
f 43/43/43 15/15/15 42/42/42
f 177/177/177 178/178/178 179/179/179
f 121/121/121 154/154/154 124/124/124
f 73/73/73 17/17/17 72/72/72
f 105/105/105 110/110/110 101/101/101
f 121/121/121 118/118/118 119/119/119
f 42/42/42 11/11/11 12/12/12
f 12/12/12 5/5/5 13/13/13
f 6/6/6 21/21/21 13/13/13
f 117/117/117 110/110/110 105/105/105
f 163/163/163 156/156/156 155/155/155
f 122/122/122 118/118/118 121/121/121
f 72/72/72 17/17/17 15/15/15
f 17/17/17 73/73/73 76/76/76
f 76/76/76 73/73/73 77/77/77
f 5/5/5 6/6/6 13/13/13
f 163/163/163 155/155/155 167/167/167
f 21/21/21 6/6/6 27/27/27
f 101/101/101 103/103/103 105/105/105
f 122/122/122 121/121/121 124/124/124
f 101/101/101 102/102/102 103/103/103
f 163/163/163 167/167/167 170/170/170
f 119/119/119 118/118/118 117/117/117
f 154/154/154 156/156/156 163/163/163
f 15/15/15 7/7/7 42/42/42
f 11/11/11 9/9/9 12/12/12
f 12/12/12 9/9/9 5/5/5
f 77/77/77 20/20/20 76/76/76
f 104/104/104 102/102/102 101/101/101
f 28/28/28 27/27/27 6/6/6
f 163/163/163 170/170/170 172/172/172
f 98/98/98 99/99/99 100/100/100
f 17/17/17 76/76/76 20/20/20
f 77/77/77 19/19/19 20/20/20
f 9/9/9 1/1/1 5/5/5
f 78/78/78 79/79/79 77/77/77
f 79/79/79 19/19/19 77/77/77
f 171/171/171 163/163/163 172/172/172
f 116/116/116 110/110/110 117/117/117
f 116/116/116 117/117/117 118/118/118
f 17/17/17 10/10/10 15/15/15
f 4/4/4 6/6/6 5/5/5
f 6/6/6 30/30/30 28/28/28
f 110/110/110 116/116/116 109/109/109
f 154/154/154 137/137/137 123/123/123
f 124/124/124 154/154/154 123/123/123
f 137/137/137 154/154/154 163/163/163
f 124/124/124 118/118/118 122/122/122
f 1/1/1 4/4/4 5/5/5
f 6/6/6 4/4/4 30/30/30
f 137/137/137 163/163/163 171/171/171
f 10/10/10 7/7/7 15/15/15
f 11/11/11 7/7/7 9/9/9
f 79/79/79 25/25/25 19/19/19
f 109/109/109 101/101/101 110/110/110
f 123/123/123 118/118/118 124/124/124
f 7/7/7 1/1/1 9/9/9
f 19/19/19 17/17/17 20/20/20
f 118/118/118 114/114/114 116/116/116
f 18/18/18 10/10/10 17/17/17
f 142/142/142 137/137/137 171/171/171
f 17/17/17 19/19/19 18/18/18
f 101/101/101 108/108/108 104/104/104
f 108/108/108 101/101/101 109/109/109
f 114/114/114 115/115/115 116/116/116
f 123/123/123 114/114/114 118/118/118
f 1/1/1 7/7/7 2/2/2
f 116/116/116 115/115/115 109/109/109
f 10/10/10 18/18/18 19/19/19
f 1/1/1 2/2/2 3/3/3
f 4/4/4 1/1/1 3/3/3
f 141/141/141 137/137/137 142/142/142
f 136/136/136 123/123/123 137/137/137
f 114/114/114 123/123/123 133/133/133
f 136/136/136 137/137/137 141/141/141
f 135/135/135 123/123/123 136/136/136
f 8/8/8 10/10/10 19/19/19
f 10/10/10 8/8/8 7/7/7
f 135/135/135 133/133/133 123/123/123
f 24/24/24 8/8/8 19/19/19
f 2/2/2 7/7/7 8/8/8
f 24/24/24 19/19/19 25/25/25
f 194/194/194 195/195/195 196/196/196
f 202/202/202 203/203/203 204/204/204
f 115/115/115 138/138/138 109/109/109
f 133/133/133 135/135/135 136/136/136
f 115/115/115 114/114/114 133/133/133
f 205/205/205 203/203/203 202/202/202
f 202/202/202 206/206/206 205/205/205
f 134/134/134 115/115/115 133/133/133
f 29/29/29 2/2/2 8/8/8
f 197/197/197 198/198/198 199/199/199
f 199/199/199 200/200/200 197/197/197
f 197/197/197 200/200/200 201/201/201
f 31/31/31 29/29/29 8/8/8
f 139/139/139 134/134/134 133/133/133
f 139/139/139 133/133/133 140/140/140
